%TF.GenerationSoftware,KiCad,Pcbnew,5.99.0+really5.1.10+dfsg1-1*%
%TF.CreationDate,2022-03-13T14:28:09+01:00*%
%TF.ProjectId,terrarium,74657272-6172-4697-956d-2e6b69636164,rev?*%
%TF.SameCoordinates,Original*%
%TF.FileFunction,Soldermask,Bot*%
%TF.FilePolarity,Negative*%
%FSLAX46Y46*%
G04 Gerber Fmt 4.6, Leading zero omitted, Abs format (unit mm)*
G04 Created by KiCad (PCBNEW 5.99.0+really5.1.10+dfsg1-1) date 2022-03-13 14:28:09*
%MOMM*%
%LPD*%
G01*
G04 APERTURE LIST*
%TA.AperFunction,Profile*%
%ADD10C,0.050000*%
%TD*%
%ADD11C,3.000000*%
%ADD12R,3.000000X3.000000*%
%ADD13O,1.950000X1.700000*%
%ADD14R,1.508000X1.508000*%
%ADD15C,1.508000*%
%ADD16C,1.750000*%
%ADD17R,1.700000X1.700000*%
%ADD18O,1.700000X1.700000*%
%ADD19C,0.600000*%
%ADD20O,1.700000X0.900000*%
%ADD21O,2.000000X0.900000*%
%ADD22C,1.524000*%
%ADD23C,6.400000*%
%ADD24C,0.800000*%
G04 APERTURE END LIST*
D10*
X51054000Y-97536000D02*
G75*
G02*
X51054000Y-96520000I0J508000D01*
G01*
X122047000Y-96520000D02*
G75*
G02*
X122047000Y-97536000I0J-508000D01*
G01*
X122047000Y-97536000D02*
X51054000Y-97536000D01*
X51054000Y-96520000D02*
X122047000Y-96520000D01*
X45000000Y-113000000D02*
G75*
G02*
X41000000Y-109000000I0J4000000D01*
G01*
X131000000Y-109000000D02*
G75*
G02*
X127000000Y-113000000I-4000000J0D01*
G01*
X127000000Y-23000000D02*
G75*
G02*
X131000000Y-27000000I0J-4000000D01*
G01*
X41000000Y-27000000D02*
G75*
G02*
X45000000Y-23000000I4000000J0D01*
G01*
X127000000Y-23000000D02*
X45000000Y-23000000D01*
X131000000Y-109000000D02*
X131000000Y-27000000D01*
X45000000Y-113000000D02*
X127000000Y-113000000D01*
X41000000Y-27000000D02*
X41000000Y-109000000D01*
D11*
%TO.C,S3*%
X67580000Y-108750000D03*
D12*
X62500000Y-108750000D03*
%TD*%
D11*
%TO.C,S2*%
X86830000Y-108750000D03*
D12*
X81750000Y-108750000D03*
%TD*%
D13*
%TO.C,SENS5*%
X112000000Y-38000000D03*
X112000000Y-35500000D03*
X112000000Y-33000000D03*
X112000000Y-30500000D03*
G36*
G01*
X111275000Y-27150000D02*
X112725000Y-27150000D01*
G75*
G02*
X112975000Y-27400000I0J-250000D01*
G01*
X112975000Y-28600000D01*
G75*
G02*
X112725000Y-28850000I-250000J0D01*
G01*
X111275000Y-28850000D01*
G75*
G02*
X111025000Y-28600000I0J250000D01*
G01*
X111025000Y-27400000D01*
G75*
G02*
X111275000Y-27150000I250000J0D01*
G01*
G37*
%TD*%
%TO.C,SENS4*%
X103000000Y-38000000D03*
X103000000Y-35500000D03*
X103000000Y-33000000D03*
X103000000Y-30500000D03*
G36*
G01*
X102275000Y-27150000D02*
X103725000Y-27150000D01*
G75*
G02*
X103975000Y-27400000I0J-250000D01*
G01*
X103975000Y-28600000D01*
G75*
G02*
X103725000Y-28850000I-250000J0D01*
G01*
X102275000Y-28850000D01*
G75*
G02*
X102025000Y-28600000I0J250000D01*
G01*
X102025000Y-27400000D01*
G75*
G02*
X102275000Y-27150000I250000J0D01*
G01*
G37*
%TD*%
%TO.C,SENS3*%
X94000000Y-38000000D03*
X94000000Y-35500000D03*
X94000000Y-33000000D03*
X94000000Y-30500000D03*
G36*
G01*
X93275000Y-27150000D02*
X94725000Y-27150000D01*
G75*
G02*
X94975000Y-27400000I0J-250000D01*
G01*
X94975000Y-28600000D01*
G75*
G02*
X94725000Y-28850000I-250000J0D01*
G01*
X93275000Y-28850000D01*
G75*
G02*
X93025000Y-28600000I0J250000D01*
G01*
X93025000Y-27400000D01*
G75*
G02*
X93275000Y-27150000I250000J0D01*
G01*
G37*
%TD*%
%TO.C,SENS2*%
X85000000Y-38000000D03*
X85000000Y-35500000D03*
X85000000Y-33000000D03*
X85000000Y-30500000D03*
G36*
G01*
X84275000Y-27150000D02*
X85725000Y-27150000D01*
G75*
G02*
X85975000Y-27400000I0J-250000D01*
G01*
X85975000Y-28600000D01*
G75*
G02*
X85725000Y-28850000I-250000J0D01*
G01*
X84275000Y-28850000D01*
G75*
G02*
X84025000Y-28600000I0J250000D01*
G01*
X84025000Y-27400000D01*
G75*
G02*
X84275000Y-27150000I250000J0D01*
G01*
G37*
%TD*%
%TO.C,SENS1*%
X76000000Y-38000000D03*
X76000000Y-35500000D03*
X76000000Y-33000000D03*
X76000000Y-30500000D03*
G36*
G01*
X75275000Y-27150000D02*
X76725000Y-27150000D01*
G75*
G02*
X76975000Y-27400000I0J-250000D01*
G01*
X76975000Y-28600000D01*
G75*
G02*
X76725000Y-28850000I-250000J0D01*
G01*
X75275000Y-28850000D01*
G75*
G02*
X75025000Y-28600000I0J250000D01*
G01*
X75025000Y-27400000D01*
G75*
G02*
X75275000Y-27150000I250000J0D01*
G01*
G37*
%TD*%
%TO.C,SENS0*%
X67000000Y-38000000D03*
X67000000Y-35500000D03*
X67000000Y-33000000D03*
X67000000Y-30500000D03*
G36*
G01*
X66275000Y-27150000D02*
X67725000Y-27150000D01*
G75*
G02*
X67975000Y-27400000I0J-250000D01*
G01*
X67975000Y-28600000D01*
G75*
G02*
X67725000Y-28850000I-250000J0D01*
G01*
X66275000Y-28850000D01*
G75*
G02*
X66025000Y-28600000I0J250000D01*
G01*
X66025000Y-27400000D01*
G75*
G02*
X66275000Y-27150000I250000J0D01*
G01*
G37*
%TD*%
%TO.C,UART2*%
X47000000Y-69500000D03*
X47000000Y-67000000D03*
X47000000Y-64500000D03*
G36*
G01*
X46275000Y-61150000D02*
X47725000Y-61150000D01*
G75*
G02*
X47975000Y-61400000I0J-250000D01*
G01*
X47975000Y-62600000D01*
G75*
G02*
X47725000Y-62850000I-250000J0D01*
G01*
X46275000Y-62850000D01*
G75*
G02*
X46025000Y-62600000I0J250000D01*
G01*
X46025000Y-61400000D01*
G75*
G02*
X46275000Y-61150000I250000J0D01*
G01*
G37*
%TD*%
%TO.C,I2C1*%
X47000000Y-54500000D03*
X47000000Y-52000000D03*
X47000000Y-49500000D03*
G36*
G01*
X46275000Y-46150000D02*
X47725000Y-46150000D01*
G75*
G02*
X47975000Y-46400000I0J-250000D01*
G01*
X47975000Y-47600000D01*
G75*
G02*
X47725000Y-47850000I-250000J0D01*
G01*
X46275000Y-47850000D01*
G75*
G02*
X46025000Y-47600000I0J250000D01*
G01*
X46025000Y-46400000D01*
G75*
G02*
X46275000Y-46150000I250000J0D01*
G01*
G37*
%TD*%
D14*
%TO.C,K2*%
X73350000Y-110160000D03*
D15*
X73350000Y-102540000D03*
X73350000Y-92380000D03*
X73350000Y-89840000D03*
%TD*%
D14*
%TO.C,K3*%
X54100000Y-110160000D03*
D15*
X54100000Y-102540000D03*
X54100000Y-92380000D03*
X54100000Y-89840000D03*
%TD*%
D16*
%TO.C,SW1*%
X127444500Y-98488500D03*
X127444500Y-102988500D03*
%TD*%
D17*
%TO.C,PWR1*%
X118529100Y-70142100D03*
%TD*%
D18*
%TO.C,UART1*%
X105765600Y-72745600D03*
X108305600Y-72745600D03*
X110845600Y-72745600D03*
X113385600Y-72745600D03*
X115925600Y-72745600D03*
D17*
X118465600Y-72745600D03*
%TD*%
D11*
%TO.C,S0*%
X118830000Y-108750000D03*
D12*
X113750000Y-108750000D03*
%TD*%
D11*
%TO.C,S1*%
X106080000Y-108750000D03*
D12*
X101000000Y-108750000D03*
%TD*%
D19*
%TO.C,P1*%
X125245200Y-93491800D03*
X125245200Y-87711800D03*
D20*
X128935200Y-86281800D03*
X128935200Y-94921800D03*
D21*
X124765200Y-86281800D03*
X124765200Y-94921800D03*
%TD*%
D14*
%TO.C,K1*%
X92600000Y-110160000D03*
D15*
X92600000Y-102540000D03*
X92600000Y-92380000D03*
X92600000Y-89840000D03*
%TD*%
D22*
%TO.C,BT1*%
X43600000Y-93250000D03*
X47400000Y-98250000D03*
X47400000Y-88250000D03*
%TD*%
D23*
%TO.C,H2*%
X45000000Y-27000000D03*
D24*
X47400000Y-27000000D03*
X46697056Y-28697056D03*
X45000000Y-29400000D03*
X43302944Y-28697056D03*
X42600000Y-27000000D03*
X43302944Y-25302944D03*
X45000000Y-24600000D03*
X46697056Y-25302944D03*
%TD*%
D23*
%TO.C,H1*%
X127000000Y-27000000D03*
D24*
X129400000Y-27000000D03*
X128697056Y-28697056D03*
X127000000Y-29400000D03*
X125302944Y-28697056D03*
X124600000Y-27000000D03*
X125302944Y-25302944D03*
X127000000Y-24600000D03*
X128697056Y-25302944D03*
%TD*%
D23*
%TO.C,H4*%
X127000000Y-109000000D03*
D24*
X129400000Y-109000000D03*
X128697056Y-110697056D03*
X127000000Y-111400000D03*
X125302944Y-110697056D03*
X124600000Y-109000000D03*
X125302944Y-107302944D03*
X127000000Y-106600000D03*
X128697056Y-107302944D03*
%TD*%
D23*
%TO.C,H3*%
X45000000Y-109000000D03*
D24*
X47400000Y-109000000D03*
X46697056Y-110697056D03*
X45000000Y-111400000D03*
X43302944Y-110697056D03*
X42600000Y-109000000D03*
X43302944Y-107302944D03*
X45000000Y-106600000D03*
X46697056Y-107302944D03*
%TD*%
M02*
