%TF.GenerationSoftware,KiCad,Pcbnew,5.99.0+really5.1.10+dfsg1-1*%
%TF.CreationDate,2022-01-11T00:34:58+01:00*%
%TF.ProjectId,terrarium,74657272-6172-4697-956d-2e6b69636164,rev?*%
%TF.SameCoordinates,Original*%
%TF.FileFunction,Copper,L1,Top*%
%TF.FilePolarity,Positive*%
%FSLAX46Y46*%
G04 Gerber Fmt 4.6, Leading zero omitted, Abs format (unit mm)*
G04 Created by KiCad (PCBNEW 5.99.0+really5.1.10+dfsg1-1) date 2022-01-11 00:34:58*
%MOMM*%
%LPD*%
G01*
G04 APERTURE LIST*
%TA.AperFunction,Profile*%
%ADD10C,0.050000*%
%TD*%
%TA.AperFunction,ComponentPad*%
%ADD11O,1.700000X1.700000*%
%TD*%
%TA.AperFunction,ComponentPad*%
%ADD12R,1.700000X1.700000*%
%TD*%
%TA.AperFunction,SMDPad,CuDef*%
%ADD13R,0.900000X0.800000*%
%TD*%
%TA.AperFunction,SMDPad,CuDef*%
%ADD14R,1.500000X1.500000*%
%TD*%
%TA.AperFunction,SMDPad,CuDef*%
%ADD15R,1.120000X2.160000*%
%TD*%
%TA.AperFunction,SMDPad,CuDef*%
%ADD16R,3.510000X2.540000*%
%TD*%
%TA.AperFunction,ComponentPad*%
%ADD17O,1.950000X1.700000*%
%TD*%
%TA.AperFunction,ComponentPad*%
%ADD18C,3.000000*%
%TD*%
%TA.AperFunction,ComponentPad*%
%ADD19R,3.000000X3.000000*%
%TD*%
%TA.AperFunction,SMDPad,CuDef*%
%ADD20R,2.000000X1.500000*%
%TD*%
%TA.AperFunction,SMDPad,CuDef*%
%ADD21R,2.000000X3.800000*%
%TD*%
%TA.AperFunction,ComponentPad*%
%ADD22C,2.500000*%
%TD*%
%TA.AperFunction,SMDPad,CuDef*%
%ADD23R,0.800000X0.900000*%
%TD*%
%TA.AperFunction,SMDPad,CuDef*%
%ADD24R,0.900000X2.000000*%
%TD*%
%TA.AperFunction,SMDPad,CuDef*%
%ADD25R,2.000000X0.900000*%
%TD*%
%TA.AperFunction,SMDPad,CuDef*%
%ADD26R,5.000000X5.000000*%
%TD*%
%TA.AperFunction,ComponentPad*%
%ADD27C,6.400000*%
%TD*%
%TA.AperFunction,ComponentPad*%
%ADD28C,0.800000*%
%TD*%
%TA.AperFunction,SMDPad,CuDef*%
%ADD29R,2.160000X1.120000*%
%TD*%
%TA.AperFunction,SMDPad,CuDef*%
%ADD30R,1.000000X1.500000*%
%TD*%
%TA.AperFunction,ViaPad*%
%ADD31C,0.800000*%
%TD*%
%TA.AperFunction,Conductor*%
%ADD32C,0.250000*%
%TD*%
%TA.AperFunction,Conductor*%
%ADD33C,0.800000*%
%TD*%
%TA.AperFunction,Conductor*%
%ADD34C,0.400000*%
%TD*%
%TA.AperFunction,Conductor*%
%ADD35C,3.000000*%
%TD*%
G04 APERTURE END LIST*
D10*
X45000000Y-113000000D02*
G75*
G02*
X41000000Y-109000000I0J4000000D01*
G01*
X131000000Y-109000000D02*
G75*
G02*
X127000000Y-113000000I-4000000J0D01*
G01*
X127000000Y-23000000D02*
G75*
G02*
X131000000Y-27000000I0J-4000000D01*
G01*
X41000000Y-27000000D02*
G75*
G02*
X45000000Y-23000000I4000000J0D01*
G01*
X127000000Y-23000000D02*
X45000000Y-23000000D01*
X131000000Y-109000000D02*
X131000000Y-27000000D01*
X45000000Y-113000000D02*
X127000000Y-113000000D01*
X41000000Y-27000000D02*
X41000000Y-109000000D01*
%TO.P,R17,2*%
%TO.N,Net-(Q4-Pad3)*%
%TA.AperFunction,SMDPad,CuDef*%
G36*
G01*
X118469300Y-32852199D02*
X118469300Y-34102201D01*
G75*
G02*
X118219301Y-34352200I-249999J0D01*
G01*
X117594299Y-34352200D01*
G75*
G02*
X117344300Y-34102201I0J249999D01*
G01*
X117344300Y-32852199D01*
G75*
G02*
X117594299Y-32602200I249999J0D01*
G01*
X118219301Y-32602200D01*
G75*
G02*
X118469300Y-32852199I0J-249999D01*
G01*
G37*
%TD.AperFunction*%
%TO.P,R17,1*%
%TO.N,Net-(LED5-Pad1)*%
%TA.AperFunction,SMDPad,CuDef*%
G36*
G01*
X121394300Y-32852199D02*
X121394300Y-34102201D01*
G75*
G02*
X121144301Y-34352200I-249999J0D01*
G01*
X120519299Y-34352200D01*
G75*
G02*
X120269300Y-34102201I0J249999D01*
G01*
X120269300Y-32852199D01*
G75*
G02*
X120519299Y-32602200I249999J0D01*
G01*
X121144301Y-32602200D01*
G75*
G02*
X121394300Y-32852199I0J-249999D01*
G01*
G37*
%TD.AperFunction*%
%TD*%
%TO.P,R16,2*%
%TO.N,Net-(Q3-Pad3)*%
%TA.AperFunction,SMDPad,CuDef*%
G36*
G01*
X80775700Y-79029399D02*
X80775700Y-80279401D01*
G75*
G02*
X80525701Y-80529400I-249999J0D01*
G01*
X79900699Y-80529400D01*
G75*
G02*
X79650700Y-80279401I0J249999D01*
G01*
X79650700Y-79029399D01*
G75*
G02*
X79900699Y-78779400I249999J0D01*
G01*
X80525701Y-78779400D01*
G75*
G02*
X80775700Y-79029399I0J-249999D01*
G01*
G37*
%TD.AperFunction*%
%TO.P,R16,1*%
%TO.N,Net-(LED3-Pad1)*%
%TA.AperFunction,SMDPad,CuDef*%
G36*
G01*
X83700700Y-79029399D02*
X83700700Y-80279401D01*
G75*
G02*
X83450701Y-80529400I-249999J0D01*
G01*
X82825699Y-80529400D01*
G75*
G02*
X82575700Y-80279401I0J249999D01*
G01*
X82575700Y-79029399D01*
G75*
G02*
X82825699Y-78779400I249999J0D01*
G01*
X83450701Y-78779400D01*
G75*
G02*
X83700700Y-79029399I0J-249999D01*
G01*
G37*
%TD.AperFunction*%
%TD*%
%TO.P,R15,2*%
%TO.N,Net-(Q2-Pad3)*%
%TA.AperFunction,SMDPad,CuDef*%
G36*
G01*
X98744200Y-79130999D02*
X98744200Y-80381001D01*
G75*
G02*
X98494201Y-80631000I-249999J0D01*
G01*
X97869199Y-80631000D01*
G75*
G02*
X97619200Y-80381001I0J249999D01*
G01*
X97619200Y-79130999D01*
G75*
G02*
X97869199Y-78881000I249999J0D01*
G01*
X98494201Y-78881000D01*
G75*
G02*
X98744200Y-79130999I0J-249999D01*
G01*
G37*
%TD.AperFunction*%
%TO.P,R15,1*%
%TO.N,Net-(LED2-Pad1)*%
%TA.AperFunction,SMDPad,CuDef*%
G36*
G01*
X101669200Y-79130999D02*
X101669200Y-80381001D01*
G75*
G02*
X101419201Y-80631000I-249999J0D01*
G01*
X100794199Y-80631000D01*
G75*
G02*
X100544200Y-80381001I0J249999D01*
G01*
X100544200Y-79130999D01*
G75*
G02*
X100794199Y-78881000I249999J0D01*
G01*
X101419201Y-78881000D01*
G75*
G02*
X101669200Y-79130999I0J-249999D01*
G01*
G37*
%TD.AperFunction*%
%TD*%
%TO.P,R14,2*%
%TO.N,Net-(Q1-Pad3)*%
%TA.AperFunction,SMDPad,CuDef*%
G36*
G01*
X116752800Y-79029399D02*
X116752800Y-80279401D01*
G75*
G02*
X116502801Y-80529400I-249999J0D01*
G01*
X115877799Y-80529400D01*
G75*
G02*
X115627800Y-80279401I0J249999D01*
G01*
X115627800Y-79029399D01*
G75*
G02*
X115877799Y-78779400I249999J0D01*
G01*
X116502801Y-78779400D01*
G75*
G02*
X116752800Y-79029399I0J-249999D01*
G01*
G37*
%TD.AperFunction*%
%TO.P,R14,1*%
%TO.N,Net-(LED1-Pad1)*%
%TA.AperFunction,SMDPad,CuDef*%
G36*
G01*
X119677800Y-79029399D02*
X119677800Y-80279401D01*
G75*
G02*
X119427801Y-80529400I-249999J0D01*
G01*
X118802799Y-80529400D01*
G75*
G02*
X118552800Y-80279401I0J249999D01*
G01*
X118552800Y-79029399D01*
G75*
G02*
X118802799Y-78779400I249999J0D01*
G01*
X119427801Y-78779400D01*
G75*
G02*
X119677800Y-79029399I0J-249999D01*
G01*
G37*
%TD.AperFunction*%
%TD*%
%TO.P,LED5,2*%
%TO.N,+5V*%
%TA.AperFunction,SMDPad,CuDef*%
G36*
G01*
X126962200Y-34102200D02*
X126962200Y-32852200D01*
G75*
G02*
X127212200Y-32602200I250000J0D01*
G01*
X127962200Y-32602200D01*
G75*
G02*
X128212200Y-32852200I0J-250000D01*
G01*
X128212200Y-34102200D01*
G75*
G02*
X127962200Y-34352200I-250000J0D01*
G01*
X127212200Y-34352200D01*
G75*
G02*
X126962200Y-34102200I0J250000D01*
G01*
G37*
%TD.AperFunction*%
%TO.P,LED5,1*%
%TO.N,Net-(LED5-Pad1)*%
%TA.AperFunction,SMDPad,CuDef*%
G36*
G01*
X124162200Y-34102200D02*
X124162200Y-32852200D01*
G75*
G02*
X124412200Y-32602200I250000J0D01*
G01*
X125162200Y-32602200D01*
G75*
G02*
X125412200Y-32852200I0J-250000D01*
G01*
X125412200Y-34102200D01*
G75*
G02*
X125162200Y-34352200I-250000J0D01*
G01*
X124412200Y-34352200D01*
G75*
G02*
X124162200Y-34102200I0J250000D01*
G01*
G37*
%TD.AperFunction*%
%TD*%
D11*
%TO.P,RESET_j1,2*%
%TO.N,EN*%
X101193600Y-57708800D03*
D12*
%TO.P,RESET_j1,1*%
%TO.N,Net-(R11-Pad2)*%
X98653600Y-57708800D03*
%TD*%
%TO.P,R13,2*%
%TO.N,Net-(R13-Pad2)*%
%TA.AperFunction,SMDPad,CuDef*%
G36*
G01*
X97652000Y-52105399D02*
X97652000Y-53355401D01*
G75*
G02*
X97402001Y-53605400I-249999J0D01*
G01*
X96776999Y-53605400D01*
G75*
G02*
X96527000Y-53355401I0J249999D01*
G01*
X96527000Y-52105399D01*
G75*
G02*
X96776999Y-51855400I249999J0D01*
G01*
X97402001Y-51855400D01*
G75*
G02*
X97652000Y-52105399I0J-249999D01*
G01*
G37*
%TD.AperFunction*%
%TO.P,R13,1*%
%TO.N,G33*%
%TA.AperFunction,SMDPad,CuDef*%
G36*
G01*
X100577000Y-52105399D02*
X100577000Y-53355401D01*
G75*
G02*
X100327001Y-53605400I-249999J0D01*
G01*
X99701999Y-53605400D01*
G75*
G02*
X99452000Y-53355401I0J249999D01*
G01*
X99452000Y-52105399D01*
G75*
G02*
X99701999Y-51855400I249999J0D01*
G01*
X100327001Y-51855400D01*
G75*
G02*
X100577000Y-52105399I0J-249999D01*
G01*
G37*
%TD.AperFunction*%
%TD*%
%TO.P,R10,2*%
%TO.N,Net-(Q4-Pad1)*%
%TA.AperFunction,SMDPad,CuDef*%
G36*
G01*
X122037001Y-27802000D02*
X120786999Y-27802000D01*
G75*
G02*
X120537000Y-27552001I0J249999D01*
G01*
X120537000Y-26926999D01*
G75*
G02*
X120786999Y-26677000I249999J0D01*
G01*
X122037001Y-26677000D01*
G75*
G02*
X122287000Y-26926999I0J-249999D01*
G01*
X122287000Y-27552001D01*
G75*
G02*
X122037001Y-27802000I-249999J0D01*
G01*
G37*
%TD.AperFunction*%
%TO.P,R10,1*%
%TO.N,G32*%
%TA.AperFunction,SMDPad,CuDef*%
G36*
G01*
X122037001Y-30727000D02*
X120786999Y-30727000D01*
G75*
G02*
X120537000Y-30477001I0J249999D01*
G01*
X120537000Y-29851999D01*
G75*
G02*
X120786999Y-29602000I249999J0D01*
G01*
X122037001Y-29602000D01*
G75*
G02*
X122287000Y-29851999I0J-249999D01*
G01*
X122287000Y-30477001D01*
G75*
G02*
X122037001Y-30727000I-249999J0D01*
G01*
G37*
%TD.AperFunction*%
%TD*%
D13*
%TO.P,Q4,3*%
%TO.N,Net-(Q4-Pad3)*%
X116872000Y-28636000D03*
%TO.P,Q4,2*%
%TO.N,GND*%
X118872000Y-27686000D03*
%TO.P,Q4,1*%
%TO.N,Net-(Q4-Pad1)*%
X118872000Y-29586000D03*
%TD*%
D14*
%TO.P,TP1,1*%
%TO.N,EN*%
X101193600Y-61061600D03*
%TD*%
%TO.P,TP2,1*%
%TO.N,Net-(R11-Pad2)*%
X98653600Y-61061600D03*
%TD*%
D11*
%TO.P,UART,6*%
%TO.N,EN*%
X109156500Y-70612000D03*
%TO.P,UART,5*%
%TO.N,IO0*%
X111696500Y-70612000D03*
%TO.P,UART,4*%
%TO.N,RX*%
X114236500Y-70612000D03*
%TO.P,UART,3*%
%TO.N,TX*%
X116776500Y-70612000D03*
%TO.P,UART,2*%
%TO.N,+3V3*%
X119316500Y-70612000D03*
D12*
%TO.P,UART,1*%
%TO.N,GND*%
X121856500Y-70612000D03*
%TD*%
D15*
%TO.P,SW3,2*%
%TO.N,Net-(D4-Pad1)*%
X46164500Y-76072500D03*
%TO.P,SW3,1*%
%TO.N,Net-(R13-Pad2)*%
X46164500Y-69342500D03*
%TD*%
D16*
%TO.P,BT1,2*%
%TO.N,GND*%
X54292500Y-105993000D03*
%TO.P,BT1,1*%
%TO.N,Net-(BT1-Pad1)*%
X54292500Y-76633000D03*
%TD*%
%TO.P,D4,2*%
%TO.N,Net-(BT1-Pad1)*%
%TA.AperFunction,SMDPad,CuDef*%
G36*
G01*
X55804000Y-73592001D02*
X55804000Y-71441999D01*
G75*
G02*
X56053999Y-71192000I249999J0D01*
G01*
X56904001Y-71192000D01*
G75*
G02*
X57154000Y-71441999I0J-249999D01*
G01*
X57154000Y-73592001D01*
G75*
G02*
X56904001Y-73842000I-249999J0D01*
G01*
X56053999Y-73842000D01*
G75*
G02*
X55804000Y-73592001I0J249999D01*
G01*
G37*
%TD.AperFunction*%
%TO.P,D4,1*%
%TO.N,Net-(D4-Pad1)*%
%TA.AperFunction,SMDPad,CuDef*%
G36*
G01*
X51304000Y-73592001D02*
X51304000Y-71441999D01*
G75*
G02*
X51553999Y-71192000I249999J0D01*
G01*
X52404001Y-71192000D01*
G75*
G02*
X52654000Y-71441999I0J-249999D01*
G01*
X52654000Y-73592001D01*
G75*
G02*
X52404001Y-73842000I-249999J0D01*
G01*
X51553999Y-73842000D01*
G75*
G02*
X51304000Y-73592001I0J249999D01*
G01*
G37*
%TD.AperFunction*%
%TD*%
%TO.P,D3,2*%
%TO.N,Net-(D3-Pad2)*%
%TA.AperFunction,SMDPad,CuDef*%
G36*
G01*
X74371000Y-78553999D02*
X74371000Y-80704001D01*
G75*
G02*
X74121001Y-80954000I-249999J0D01*
G01*
X73270999Y-80954000D01*
G75*
G02*
X73021000Y-80704001I0J249999D01*
G01*
X73021000Y-78553999D01*
G75*
G02*
X73270999Y-78304000I249999J0D01*
G01*
X74121001Y-78304000D01*
G75*
G02*
X74371000Y-78553999I0J-249999D01*
G01*
G37*
%TD.AperFunction*%
%TO.P,D3,1*%
%TO.N,+5V*%
%TA.AperFunction,SMDPad,CuDef*%
G36*
G01*
X78871000Y-78553999D02*
X78871000Y-80704001D01*
G75*
G02*
X78621001Y-80954000I-249999J0D01*
G01*
X77770999Y-80954000D01*
G75*
G02*
X77521000Y-80704001I0J249999D01*
G01*
X77521000Y-78553999D01*
G75*
G02*
X77770999Y-78304000I249999J0D01*
G01*
X78621001Y-78304000D01*
G75*
G02*
X78871000Y-78553999I0J-249999D01*
G01*
G37*
%TD.AperFunction*%
%TD*%
%TO.P,D2,2*%
%TO.N,Net-(D2-Pad2)*%
%TA.AperFunction,SMDPad,CuDef*%
G36*
G01*
X92354200Y-78553999D02*
X92354200Y-80704001D01*
G75*
G02*
X92104201Y-80954000I-249999J0D01*
G01*
X91254199Y-80954000D01*
G75*
G02*
X91004200Y-80704001I0J249999D01*
G01*
X91004200Y-78553999D01*
G75*
G02*
X91254199Y-78304000I249999J0D01*
G01*
X92104201Y-78304000D01*
G75*
G02*
X92354200Y-78553999I0J-249999D01*
G01*
G37*
%TD.AperFunction*%
%TO.P,D2,1*%
%TO.N,+5V*%
%TA.AperFunction,SMDPad,CuDef*%
G36*
G01*
X96854200Y-78553999D02*
X96854200Y-80704001D01*
G75*
G02*
X96604201Y-80954000I-249999J0D01*
G01*
X95754199Y-80954000D01*
G75*
G02*
X95504200Y-80704001I0J249999D01*
G01*
X95504200Y-78553999D01*
G75*
G02*
X95754199Y-78304000I249999J0D01*
G01*
X96604201Y-78304000D01*
G75*
G02*
X96854200Y-78553999I0J-249999D01*
G01*
G37*
%TD.AperFunction*%
%TD*%
%TO.P,D1,2*%
%TO.N,Net-(D1-Pad2)*%
%TA.AperFunction,SMDPad,CuDef*%
G36*
G01*
X110348000Y-78553999D02*
X110348000Y-80704001D01*
G75*
G02*
X110098001Y-80954000I-249999J0D01*
G01*
X109247999Y-80954000D01*
G75*
G02*
X108998000Y-80704001I0J249999D01*
G01*
X108998000Y-78553999D01*
G75*
G02*
X109247999Y-78304000I249999J0D01*
G01*
X110098001Y-78304000D01*
G75*
G02*
X110348000Y-78553999I0J-249999D01*
G01*
G37*
%TD.AperFunction*%
%TO.P,D1,1*%
%TO.N,+5V*%
%TA.AperFunction,SMDPad,CuDef*%
G36*
G01*
X114848000Y-78553999D02*
X114848000Y-80704001D01*
G75*
G02*
X114598001Y-80954000I-249999J0D01*
G01*
X113747999Y-80954000D01*
G75*
G02*
X113498000Y-80704001I0J249999D01*
G01*
X113498000Y-78553999D01*
G75*
G02*
X113747999Y-78304000I249999J0D01*
G01*
X114598001Y-78304000D01*
G75*
G02*
X114848000Y-78553999I0J-249999D01*
G01*
G37*
%TD.AperFunction*%
%TD*%
D17*
%TO.P,i2c2,4*%
%TO.N,GND*%
X48196500Y-49363000D03*
%TO.P,i2c2,3*%
%TO.N,+5V*%
X48196500Y-46863000D03*
%TO.P,i2c2,2*%
%TO.N,SDA*%
X48196500Y-44363000D03*
%TO.P,i2c2,1*%
%TO.N,SCL*%
%TA.AperFunction,ComponentPad*%
G36*
G01*
X47471500Y-41013000D02*
X48921500Y-41013000D01*
G75*
G02*
X49171500Y-41263000I0J-250000D01*
G01*
X49171500Y-42463000D01*
G75*
G02*
X48921500Y-42713000I-250000J0D01*
G01*
X47471500Y-42713000D01*
G75*
G02*
X47221500Y-42463000I0J250000D01*
G01*
X47221500Y-41263000D01*
G75*
G02*
X47471500Y-41013000I250000J0D01*
G01*
G37*
%TD.AperFunction*%
%TD*%
%TO.P,SENS1,3*%
%TO.N,Net-(Q4-Pad3)*%
X112522000Y-33665000D03*
%TO.P,SENS1,2*%
%TO.N,G26*%
X112522000Y-31165000D03*
%TO.P,SENS1,1*%
%TO.N,+5V*%
%TA.AperFunction,ComponentPad*%
G36*
G01*
X111797000Y-27815000D02*
X113247000Y-27815000D01*
G75*
G02*
X113497000Y-28065000I0J-250000D01*
G01*
X113497000Y-29265000D01*
G75*
G02*
X113247000Y-29515000I-250000J0D01*
G01*
X111797000Y-29515000D01*
G75*
G02*
X111547000Y-29265000I0J250000D01*
G01*
X111547000Y-28065000D01*
G75*
G02*
X111797000Y-27815000I250000J0D01*
G01*
G37*
%TD.AperFunction*%
%TD*%
%TO.P,SENS3,3*%
%TO.N,Net-(Q4-Pad3)*%
X93472000Y-33665000D03*
%TO.P,SENS3,2*%
%TO.N,G19*%
X93472000Y-31165000D03*
%TO.P,SENS3,1*%
%TO.N,+5V*%
%TA.AperFunction,ComponentPad*%
G36*
G01*
X92747000Y-27815000D02*
X94197000Y-27815000D01*
G75*
G02*
X94447000Y-28065000I0J-250000D01*
G01*
X94447000Y-29265000D01*
G75*
G02*
X94197000Y-29515000I-250000J0D01*
G01*
X92747000Y-29515000D01*
G75*
G02*
X92497000Y-29265000I0J250000D01*
G01*
X92497000Y-28065000D01*
G75*
G02*
X92747000Y-27815000I250000J0D01*
G01*
G37*
%TD.AperFunction*%
%TD*%
%TO.P,SENS2,3*%
%TO.N,Net-(Q4-Pad3)*%
X102997000Y-33665000D03*
%TO.P,SENS2,2*%
%TO.N,G27*%
X102997000Y-31165000D03*
%TO.P,SENS2,1*%
%TO.N,+5V*%
%TA.AperFunction,ComponentPad*%
G36*
G01*
X102272000Y-27815000D02*
X103722000Y-27815000D01*
G75*
G02*
X103972000Y-28065000I0J-250000D01*
G01*
X103972000Y-29265000D01*
G75*
G02*
X103722000Y-29515000I-250000J0D01*
G01*
X102272000Y-29515000D01*
G75*
G02*
X102022000Y-29265000I0J250000D01*
G01*
X102022000Y-28065000D01*
G75*
G02*
X102272000Y-27815000I250000J0D01*
G01*
G37*
%TD.AperFunction*%
%TD*%
%TO.P,SENS4,3*%
%TO.N,Net-(Q4-Pad3)*%
X83947000Y-33665000D03*
%TO.P,SENS4,2*%
%TO.N,G18*%
X83947000Y-31165000D03*
%TO.P,SENS4,1*%
%TO.N,+5V*%
%TA.AperFunction,ComponentPad*%
G36*
G01*
X83222000Y-27815000D02*
X84672000Y-27815000D01*
G75*
G02*
X84922000Y-28065000I0J-250000D01*
G01*
X84922000Y-29265000D01*
G75*
G02*
X84672000Y-29515000I-250000J0D01*
G01*
X83222000Y-29515000D01*
G75*
G02*
X82972000Y-29265000I0J250000D01*
G01*
X82972000Y-28065000D01*
G75*
G02*
X83222000Y-27815000I250000J0D01*
G01*
G37*
%TD.AperFunction*%
%TD*%
%TO.P,SENS5,3*%
%TO.N,Net-(Q4-Pad3)*%
X74422000Y-33665000D03*
%TO.P,SENS5,2*%
%TO.N,G17*%
X74422000Y-31165000D03*
%TO.P,SENS5,1*%
%TO.N,+5V*%
%TA.AperFunction,ComponentPad*%
G36*
G01*
X73697000Y-27815000D02*
X75147000Y-27815000D01*
G75*
G02*
X75397000Y-28065000I0J-250000D01*
G01*
X75397000Y-29265000D01*
G75*
G02*
X75147000Y-29515000I-250000J0D01*
G01*
X73697000Y-29515000D01*
G75*
G02*
X73447000Y-29265000I0J250000D01*
G01*
X73447000Y-28065000D01*
G75*
G02*
X73697000Y-27815000I250000J0D01*
G01*
G37*
%TD.AperFunction*%
%TD*%
D18*
%TO.P,S4,2*%
%TO.N,+5V*%
X127000000Y-78105000D03*
D19*
%TO.P,S4,1*%
%TO.N,GND*%
X127000000Y-83185000D03*
%TD*%
D17*
%TO.P,SENS6,3*%
%TO.N,Net-(Q4-Pad3)*%
X64897000Y-33665000D03*
%TO.P,SENS6,2*%
%TO.N,G16*%
X64897000Y-31165000D03*
%TO.P,SENS6,1*%
%TO.N,+5V*%
%TA.AperFunction,ComponentPad*%
G36*
G01*
X64172000Y-27815000D02*
X65622000Y-27815000D01*
G75*
G02*
X65872000Y-28065000I0J-250000D01*
G01*
X65872000Y-29265000D01*
G75*
G02*
X65622000Y-29515000I-250000J0D01*
G01*
X64172000Y-29515000D01*
G75*
G02*
X63922000Y-29265000I0J250000D01*
G01*
X63922000Y-28065000D01*
G75*
G02*
X64172000Y-27815000I250000J0D01*
G01*
G37*
%TD.AperFunction*%
%TD*%
D20*
%TO.P,U3,1*%
%TO.N,GND*%
X114821500Y-43702000D03*
%TO.P,U3,3*%
%TO.N,+5V*%
X114821500Y-39102000D03*
%TO.P,U3,2*%
%TO.N,+3V3*%
X114821500Y-41402000D03*
D21*
X108521500Y-41402000D03*
%TD*%
D18*
%TO.P,RE1,1*%
%TO.N,220L*%
X112000000Y-84000000D03*
D22*
%TO.P,RE1,5*%
%TO.N,+5V*%
X117950000Y-85950000D03*
D18*
%TO.P,RE1,4*%
%TO.N,Net-(RE1-Pad4)*%
X118000000Y-98200000D03*
%TO.P,RE1,3*%
%TO.N,Net-(RE1-Pad3)*%
X105950000Y-98150000D03*
D22*
%TO.P,RE1,2*%
%TO.N,Net-(D1-Pad2)*%
X105950000Y-85950000D03*
%TD*%
D18*
%TO.P,RE2,1*%
%TO.N,220L*%
X94000000Y-84000000D03*
D22*
%TO.P,RE2,5*%
%TO.N,+5V*%
X99950000Y-85950000D03*
D18*
%TO.P,RE2,4*%
%TO.N,Net-(RE2-Pad4)*%
X100000000Y-98200000D03*
%TO.P,RE2,3*%
%TO.N,Net-(RE2-Pad3)*%
X87950000Y-98150000D03*
D22*
%TO.P,RE2,2*%
%TO.N,Net-(D2-Pad2)*%
X87950000Y-85950000D03*
%TD*%
%TO.P,RE3,2*%
%TO.N,Net-(D3-Pad2)*%
X69950000Y-85950000D03*
D18*
%TO.P,RE3,3*%
%TO.N,Net-(RE3-Pad3)*%
X69950000Y-98150000D03*
%TO.P,RE3,4*%
%TO.N,Net-(RE3-Pad4)*%
X82000000Y-98200000D03*
D22*
%TO.P,RE3,5*%
%TO.N,+5V*%
X81950000Y-85950000D03*
D18*
%TO.P,RE3,1*%
%TO.N,220L*%
X76000000Y-84000000D03*
%TD*%
D23*
%TO.P,Q2,3*%
%TO.N,Net-(Q2-Pad3)*%
X94234000Y-76717400D03*
%TO.P,Q2,2*%
%TO.N,GND*%
X93284000Y-74717400D03*
%TO.P,Q2,1*%
%TO.N,Net-(Q2-Pad1)*%
X95184000Y-74717400D03*
%TD*%
%TO.P,Q1,3*%
%TO.N,Net-(Q1-Pad3)*%
X112077500Y-76755500D03*
%TO.P,Q1,2*%
%TO.N,GND*%
X111127500Y-74755500D03*
%TO.P,Q1,1*%
%TO.N,Net-(Q1-Pad1)*%
X113027500Y-74755500D03*
%TD*%
%TO.P,Q3,3*%
%TO.N,Net-(Q3-Pad3)*%
X75996800Y-76676000D03*
%TO.P,Q3,2*%
%TO.N,GND*%
X75046800Y-74676000D03*
%TO.P,Q3,1*%
%TO.N,Net-(Q3-Pad1)*%
X76946800Y-74676000D03*
%TD*%
D24*
%TO.P,U1,38*%
%TO.N,GND*%
X123070000Y-64745000D03*
%TO.P,U1,37*%
%TO.N,G23*%
X121800000Y-64745000D03*
%TO.P,U1,36*%
%TO.N,SCL*%
X120530000Y-64745000D03*
%TO.P,U1,35*%
%TO.N,TX*%
X119260000Y-64745000D03*
%TO.P,U1,34*%
%TO.N,RX*%
X117990000Y-64745000D03*
%TO.P,U1,33*%
%TO.N,SDA*%
X116720000Y-64745000D03*
%TO.P,U1,32*%
%TO.N,Net-(U1-Pad32)*%
X115450000Y-64745000D03*
%TO.P,U1,31*%
%TO.N,G19*%
X114180000Y-64745000D03*
%TO.P,U1,30*%
%TO.N,G18*%
X112910000Y-64745000D03*
%TO.P,U1,29*%
%TO.N,G5*%
X111640000Y-64745000D03*
%TO.P,U1,28*%
%TO.N,G17*%
X110370000Y-64745000D03*
%TO.P,U1,27*%
%TO.N,G16*%
X109100000Y-64745000D03*
%TO.P,U1,26*%
%TO.N,G4*%
X107830000Y-64745000D03*
%TO.P,U1,25*%
%TO.N,IO0*%
X106560000Y-64745000D03*
D25*
%TO.P,U1,24*%
%TO.N,Net-(U1-Pad24)*%
X105560000Y-61960000D03*
%TO.P,U1,23*%
%TO.N,Net-(U1-Pad23)*%
X105560000Y-60690000D03*
%TO.P,U1,22*%
%TO.N,Net-(U1-Pad22)*%
X105560000Y-59420000D03*
%TO.P,U1,21*%
%TO.N,Net-(U1-Pad21)*%
X105560000Y-58150000D03*
%TO.P,U1,20*%
%TO.N,Net-(U1-Pad20)*%
X105560000Y-56880000D03*
%TO.P,U1,19*%
%TO.N,Net-(U1-Pad19)*%
X105560000Y-55610000D03*
%TO.P,U1,18*%
%TO.N,Net-(U1-Pad18)*%
X105560000Y-54340000D03*
%TO.P,U1,17*%
%TO.N,Net-(U1-Pad17)*%
X105560000Y-53070000D03*
%TO.P,U1,16*%
%TO.N,Net-(U1-Pad16)*%
X105560000Y-51800000D03*
%TO.P,U1,15*%
%TO.N,GND*%
X105560000Y-50530000D03*
D24*
%TO.P,U1,14*%
%TO.N,Net-(U1-Pad14)*%
X106560000Y-47745000D03*
%TO.P,U1,13*%
%TO.N,Net-(U1-Pad13)*%
X107830000Y-47745000D03*
%TO.P,U1,12*%
%TO.N,G27*%
X109100000Y-47745000D03*
%TO.P,U1,11*%
%TO.N,G26*%
X110370000Y-47745000D03*
%TO.P,U1,10*%
%TO.N,G25*%
X111640000Y-47745000D03*
%TO.P,U1,9*%
%TO.N,G33*%
X112910000Y-47745000D03*
%TO.P,U1,8*%
%TO.N,G32*%
X114180000Y-47745000D03*
%TO.P,U1,7*%
%TO.N,Net-(U1-Pad7)*%
X115450000Y-47745000D03*
%TO.P,U1,6*%
%TO.N,Net-(U1-Pad6)*%
X116720000Y-47745000D03*
%TO.P,U1,5*%
%TO.N,Net-(U1-Pad5)*%
X117990000Y-47745000D03*
%TO.P,U1,4*%
%TO.N,Net-(U1-Pad4)*%
X119260000Y-47745000D03*
%TO.P,U1,3*%
%TO.N,EN*%
X120530000Y-47745000D03*
%TO.P,U1,2*%
%TO.N,+3V3*%
X121800000Y-47745000D03*
%TO.P,U1,1*%
%TO.N,GND*%
X123070000Y-47745000D03*
D26*
%TO.P,U1,39*%
X115570000Y-55245000D03*
%TD*%
D27*
%TO.P,H3,1*%
%TO.N,N/C*%
X45000000Y-109000000D03*
D28*
X47400000Y-109000000D03*
X46697056Y-110697056D03*
X45000000Y-111400000D03*
X43302944Y-110697056D03*
X42600000Y-109000000D03*
X43302944Y-107302944D03*
X45000000Y-106600000D03*
X46697056Y-107302944D03*
%TD*%
D27*
%TO.P,H4,1*%
%TO.N,N/C*%
X127000000Y-109000000D03*
D28*
X129400000Y-109000000D03*
X128697056Y-110697056D03*
X127000000Y-111400000D03*
X125302944Y-110697056D03*
X124600000Y-109000000D03*
X125302944Y-107302944D03*
X127000000Y-106600000D03*
X128697056Y-107302944D03*
%TD*%
D27*
%TO.P,H1,1*%
%TO.N,N/C*%
X127000000Y-27000000D03*
D28*
X129400000Y-27000000D03*
X128697056Y-28697056D03*
X127000000Y-29400000D03*
X125302944Y-28697056D03*
X124600000Y-27000000D03*
X125302944Y-25302944D03*
X127000000Y-24600000D03*
X128697056Y-25302944D03*
%TD*%
D27*
%TO.P,H2,1*%
%TO.N,N/C*%
X45000000Y-27000000D03*
D28*
X47400000Y-27000000D03*
X46697056Y-28697056D03*
X45000000Y-29400000D03*
X43302944Y-28697056D03*
X42600000Y-27000000D03*
X43302944Y-25302944D03*
X45000000Y-24600000D03*
X46697056Y-25302944D03*
%TD*%
%TO.P,LED3,2*%
%TO.N,+5V*%
%TA.AperFunction,SMDPad,CuDef*%
G36*
G01*
X80959200Y-75270200D02*
X80959200Y-76520200D01*
G75*
G02*
X80709200Y-76770200I-250000J0D01*
G01*
X79959200Y-76770200D01*
G75*
G02*
X79709200Y-76520200I0J250000D01*
G01*
X79709200Y-75270200D01*
G75*
G02*
X79959200Y-75020200I250000J0D01*
G01*
X80709200Y-75020200D01*
G75*
G02*
X80959200Y-75270200I0J-250000D01*
G01*
G37*
%TD.AperFunction*%
%TO.P,LED3,1*%
%TO.N,Net-(LED3-Pad1)*%
%TA.AperFunction,SMDPad,CuDef*%
G36*
G01*
X83759200Y-75270200D02*
X83759200Y-76520200D01*
G75*
G02*
X83509200Y-76770200I-250000J0D01*
G01*
X82759200Y-76770200D01*
G75*
G02*
X82509200Y-76520200I0J250000D01*
G01*
X82509200Y-75270200D01*
G75*
G02*
X82759200Y-75020200I250000J0D01*
G01*
X83509200Y-75020200D01*
G75*
G02*
X83759200Y-75270200I0J-250000D01*
G01*
G37*
%TD.AperFunction*%
%TD*%
%TO.P,R11,2*%
%TO.N,Net-(R11-Pad2)*%
%TA.AperFunction,SMDPad,CuDef*%
G36*
G01*
X97713500Y-48092198D02*
X97713500Y-49342202D01*
G75*
G02*
X97463502Y-49592200I-249998J0D01*
G01*
X96838498Y-49592200D01*
G75*
G02*
X96588500Y-49342202I0J249998D01*
G01*
X96588500Y-48092198D01*
G75*
G02*
X96838498Y-47842200I249998J0D01*
G01*
X97463502Y-47842200D01*
G75*
G02*
X97713500Y-48092198I0J-249998D01*
G01*
G37*
%TD.AperFunction*%
%TO.P,R11,1*%
%TO.N,+3V3*%
%TA.AperFunction,SMDPad,CuDef*%
G36*
G01*
X100638500Y-48092198D02*
X100638500Y-49342202D01*
G75*
G02*
X100388502Y-49592200I-249998J0D01*
G01*
X99763498Y-49592200D01*
G75*
G02*
X99513500Y-49342202I0J249998D01*
G01*
X99513500Y-48092198D01*
G75*
G02*
X99763498Y-47842200I249998J0D01*
G01*
X100388502Y-47842200D01*
G75*
G02*
X100638500Y-48092198I0J-249998D01*
G01*
G37*
%TD.AperFunction*%
%TD*%
%TO.P,LED1,2*%
%TO.N,+5V*%
%TA.AperFunction,SMDPad,CuDef*%
G36*
G01*
X116951000Y-75270200D02*
X116951000Y-76520200D01*
G75*
G02*
X116701000Y-76770200I-250000J0D01*
G01*
X115951000Y-76770200D01*
G75*
G02*
X115701000Y-76520200I0J250000D01*
G01*
X115701000Y-75270200D01*
G75*
G02*
X115951000Y-75020200I250000J0D01*
G01*
X116701000Y-75020200D01*
G75*
G02*
X116951000Y-75270200I0J-250000D01*
G01*
G37*
%TD.AperFunction*%
%TO.P,LED1,1*%
%TO.N,Net-(LED1-Pad1)*%
%TA.AperFunction,SMDPad,CuDef*%
G36*
G01*
X119751000Y-75270200D02*
X119751000Y-76520200D01*
G75*
G02*
X119501000Y-76770200I-250000J0D01*
G01*
X118751000Y-76770200D01*
G75*
G02*
X118501000Y-76520200I0J250000D01*
G01*
X118501000Y-75270200D01*
G75*
G02*
X118751000Y-75020200I250000J0D01*
G01*
X119501000Y-75020200D01*
G75*
G02*
X119751000Y-75270200I0J-250000D01*
G01*
G37*
%TD.AperFunction*%
%TD*%
%TO.P,LED2,2*%
%TO.N,+5V*%
%TA.AperFunction,SMDPad,CuDef*%
G36*
G01*
X98942400Y-75270200D02*
X98942400Y-76520200D01*
G75*
G02*
X98692400Y-76770200I-250000J0D01*
G01*
X97942400Y-76770200D01*
G75*
G02*
X97692400Y-76520200I0J250000D01*
G01*
X97692400Y-75270200D01*
G75*
G02*
X97942400Y-75020200I250000J0D01*
G01*
X98692400Y-75020200D01*
G75*
G02*
X98942400Y-75270200I0J-250000D01*
G01*
G37*
%TD.AperFunction*%
%TO.P,LED2,1*%
%TO.N,Net-(LED2-Pad1)*%
%TA.AperFunction,SMDPad,CuDef*%
G36*
G01*
X101742400Y-75270200D02*
X101742400Y-76520200D01*
G75*
G02*
X101492400Y-76770200I-250000J0D01*
G01*
X100742400Y-76770200D01*
G75*
G02*
X100492400Y-76520200I0J250000D01*
G01*
X100492400Y-75270200D01*
G75*
G02*
X100742400Y-75020200I250000J0D01*
G01*
X101492400Y-75020200D01*
G75*
G02*
X101742400Y-75270200I0J-250000D01*
G01*
G37*
%TD.AperFunction*%
%TD*%
%TO.P,LED4,2*%
%TO.N,+3V3*%
%TA.AperFunction,SMDPad,CuDef*%
G36*
G01*
X126962200Y-37912200D02*
X126962200Y-36662200D01*
G75*
G02*
X127212200Y-36412200I250000J0D01*
G01*
X127962200Y-36412200D01*
G75*
G02*
X128212200Y-36662200I0J-250000D01*
G01*
X128212200Y-37912200D01*
G75*
G02*
X127962200Y-38162200I-250000J0D01*
G01*
X127212200Y-38162200D01*
G75*
G02*
X126962200Y-37912200I0J250000D01*
G01*
G37*
%TD.AperFunction*%
%TO.P,LED4,1*%
%TO.N,Net-(LED4-Pad1)*%
%TA.AperFunction,SMDPad,CuDef*%
G36*
G01*
X124162200Y-37912200D02*
X124162200Y-36662200D01*
G75*
G02*
X124412200Y-36412200I250000J0D01*
G01*
X125162200Y-36412200D01*
G75*
G02*
X125412200Y-36662200I0J-250000D01*
G01*
X125412200Y-37912200D01*
G75*
G02*
X125162200Y-38162200I-250000J0D01*
G01*
X124412200Y-38162200D01*
G75*
G02*
X124162200Y-37912200I0J250000D01*
G01*
G37*
%TD.AperFunction*%
%TD*%
%TO.P,R12,2*%
%TO.N,Net-(LED4-Pad1)*%
%TA.AperFunction,SMDPad,CuDef*%
G36*
G01*
X120320100Y-37912202D02*
X120320100Y-36662198D01*
G75*
G02*
X120570098Y-36412200I249998J0D01*
G01*
X121195102Y-36412200D01*
G75*
G02*
X121445100Y-36662198I0J-249998D01*
G01*
X121445100Y-37912202D01*
G75*
G02*
X121195102Y-38162200I-249998J0D01*
G01*
X120570098Y-38162200D01*
G75*
G02*
X120320100Y-37912202I0J249998D01*
G01*
G37*
%TD.AperFunction*%
%TO.P,R12,1*%
%TO.N,GND*%
%TA.AperFunction,SMDPad,CuDef*%
G36*
G01*
X117395100Y-37912202D02*
X117395100Y-36662198D01*
G75*
G02*
X117645098Y-36412200I249998J0D01*
G01*
X118270102Y-36412200D01*
G75*
G02*
X118520100Y-36662198I0J-249998D01*
G01*
X118520100Y-37912202D01*
G75*
G02*
X118270102Y-38162200I-249998J0D01*
G01*
X117645098Y-38162200D01*
G75*
G02*
X117395100Y-37912202I0J249998D01*
G01*
G37*
%TD.AperFunction*%
%TD*%
%TO.P,C2,2*%
%TO.N,GND*%
%TA.AperFunction,SMDPad,CuDef*%
G36*
G01*
X121248800Y-41709101D02*
X121248800Y-40409099D01*
G75*
G02*
X121498799Y-40159100I249999J0D01*
G01*
X122148801Y-40159100D01*
G75*
G02*
X122398800Y-40409099I0J-249999D01*
G01*
X122398800Y-41709101D01*
G75*
G02*
X122148801Y-41959100I-249999J0D01*
G01*
X121498799Y-41959100D01*
G75*
G02*
X121248800Y-41709101I0J249999D01*
G01*
G37*
%TD.AperFunction*%
%TO.P,C2,1*%
%TO.N,+5V*%
%TA.AperFunction,SMDPad,CuDef*%
G36*
G01*
X118298800Y-41709101D02*
X118298800Y-40409099D01*
G75*
G02*
X118548799Y-40159100I249999J0D01*
G01*
X119198801Y-40159100D01*
G75*
G02*
X119448800Y-40409099I0J-249999D01*
G01*
X119448800Y-41709101D01*
G75*
G02*
X119198801Y-41959100I-249999J0D01*
G01*
X118548799Y-41959100D01*
G75*
G02*
X118298800Y-41709101I0J249999D01*
G01*
G37*
%TD.AperFunction*%
%TD*%
%TO.P,C3,2*%
%TO.N,GND*%
%TA.AperFunction,SMDPad,CuDef*%
G36*
G01*
X119445200Y-44130199D02*
X119445200Y-45430201D01*
G75*
G02*
X119195201Y-45680200I-249999J0D01*
G01*
X118545199Y-45680200D01*
G75*
G02*
X118295200Y-45430201I0J249999D01*
G01*
X118295200Y-44130199D01*
G75*
G02*
X118545199Y-43880200I249999J0D01*
G01*
X119195201Y-43880200D01*
G75*
G02*
X119445200Y-44130199I0J-249999D01*
G01*
G37*
%TD.AperFunction*%
%TO.P,C3,1*%
%TO.N,+3V3*%
%TA.AperFunction,SMDPad,CuDef*%
G36*
G01*
X122395200Y-44130199D02*
X122395200Y-45430201D01*
G75*
G02*
X122145201Y-45680200I-249999J0D01*
G01*
X121495199Y-45680200D01*
G75*
G02*
X121245200Y-45430201I0J249999D01*
G01*
X121245200Y-44130199D01*
G75*
G02*
X121495199Y-43880200I249999J0D01*
G01*
X122145201Y-43880200D01*
G75*
G02*
X122395200Y-44130199I0J-249999D01*
G01*
G37*
%TD.AperFunction*%
%TD*%
%TO.P,C1,2*%
%TO.N,GND*%
%TA.AperFunction,SMDPad,CuDef*%
G36*
G01*
X57325499Y-28141500D02*
X58625501Y-28141500D01*
G75*
G02*
X58875500Y-28391499I0J-249999D01*
G01*
X58875500Y-29041501D01*
G75*
G02*
X58625501Y-29291500I-249999J0D01*
G01*
X57325499Y-29291500D01*
G75*
G02*
X57075500Y-29041501I0J249999D01*
G01*
X57075500Y-28391499D01*
G75*
G02*
X57325499Y-28141500I249999J0D01*
G01*
G37*
%TD.AperFunction*%
%TO.P,C1,1*%
%TO.N,+5V*%
%TA.AperFunction,SMDPad,CuDef*%
G36*
G01*
X57325499Y-25191500D02*
X58625501Y-25191500D01*
G75*
G02*
X58875500Y-25441499I0J-249999D01*
G01*
X58875500Y-26091501D01*
G75*
G02*
X58625501Y-26341500I-249999J0D01*
G01*
X57325499Y-26341500D01*
G75*
G02*
X57075500Y-26091501I0J249999D01*
G01*
X57075500Y-25441499D01*
G75*
G02*
X57325499Y-25191500I249999J0D01*
G01*
G37*
%TD.AperFunction*%
%TD*%
%TO.P,R9,2*%
%TO.N,+3V3*%
%TA.AperFunction,SMDPad,CuDef*%
G36*
G01*
X87024100Y-43609098D02*
X87024100Y-44859102D01*
G75*
G02*
X86774102Y-45109100I-249998J0D01*
G01*
X86149098Y-45109100D01*
G75*
G02*
X85899100Y-44859102I0J249998D01*
G01*
X85899100Y-43609098D01*
G75*
G02*
X86149098Y-43359100I249998J0D01*
G01*
X86774102Y-43359100D01*
G75*
G02*
X87024100Y-43609098I0J-249998D01*
G01*
G37*
%TD.AperFunction*%
%TO.P,R9,1*%
%TO.N,SCL*%
%TA.AperFunction,SMDPad,CuDef*%
G36*
G01*
X89949100Y-43609098D02*
X89949100Y-44859102D01*
G75*
G02*
X89699102Y-45109100I-249998J0D01*
G01*
X89074098Y-45109100D01*
G75*
G02*
X88824100Y-44859102I0J249998D01*
G01*
X88824100Y-43609098D01*
G75*
G02*
X89074098Y-43359100I249998J0D01*
G01*
X89699102Y-43359100D01*
G75*
G02*
X89949100Y-43609098I0J-249998D01*
G01*
G37*
%TD.AperFunction*%
%TD*%
%TO.P,R8,2*%
%TO.N,SDA*%
%TA.AperFunction,SMDPad,CuDef*%
G36*
G01*
X88798700Y-58829102D02*
X88798700Y-57579098D01*
G75*
G02*
X89048698Y-57329100I249998J0D01*
G01*
X89673702Y-57329100D01*
G75*
G02*
X89923700Y-57579098I0J-249998D01*
G01*
X89923700Y-58829102D01*
G75*
G02*
X89673702Y-59079100I-249998J0D01*
G01*
X89048698Y-59079100D01*
G75*
G02*
X88798700Y-58829102I0J249998D01*
G01*
G37*
%TD.AperFunction*%
%TO.P,R8,1*%
%TO.N,+3V3*%
%TA.AperFunction,SMDPad,CuDef*%
G36*
G01*
X85873700Y-58829102D02*
X85873700Y-57579098D01*
G75*
G02*
X86123698Y-57329100I249998J0D01*
G01*
X86748702Y-57329100D01*
G75*
G02*
X86998700Y-57579098I0J-249998D01*
G01*
X86998700Y-58829102D01*
G75*
G02*
X86748702Y-59079100I-249998J0D01*
G01*
X86123698Y-59079100D01*
G75*
G02*
X85873700Y-58829102I0J249998D01*
G01*
G37*
%TD.AperFunction*%
%TD*%
%TO.P,R7,2*%
%TO.N,Net-(Q3-Pad1)*%
%TA.AperFunction,SMDPad,CuDef*%
G36*
G01*
X71243300Y-76520202D02*
X71243300Y-75270198D01*
G75*
G02*
X71493298Y-75020200I249998J0D01*
G01*
X72118302Y-75020200D01*
G75*
G02*
X72368300Y-75270198I0J-249998D01*
G01*
X72368300Y-76520202D01*
G75*
G02*
X72118302Y-76770200I-249998J0D01*
G01*
X71493298Y-76770200D01*
G75*
G02*
X71243300Y-76520202I0J249998D01*
G01*
G37*
%TD.AperFunction*%
%TO.P,R7,1*%
%TO.N,G25*%
%TA.AperFunction,SMDPad,CuDef*%
G36*
G01*
X68318300Y-76520202D02*
X68318300Y-75270198D01*
G75*
G02*
X68568298Y-75020200I249998J0D01*
G01*
X69193302Y-75020200D01*
G75*
G02*
X69443300Y-75270198I0J-249998D01*
G01*
X69443300Y-76520202D01*
G75*
G02*
X69193302Y-76770200I-249998J0D01*
G01*
X68568298Y-76770200D01*
G75*
G02*
X68318300Y-76520202I0J249998D01*
G01*
G37*
%TD.AperFunction*%
%TD*%
%TO.P,R6,2*%
%TO.N,Net-(D3-Pad2)*%
%TA.AperFunction,SMDPad,CuDef*%
G36*
G01*
X71192500Y-80254002D02*
X71192500Y-79003998D01*
G75*
G02*
X71442498Y-78754000I249998J0D01*
G01*
X72067502Y-78754000D01*
G75*
G02*
X72317500Y-79003998I0J-249998D01*
G01*
X72317500Y-80254002D01*
G75*
G02*
X72067502Y-80504000I-249998J0D01*
G01*
X71442498Y-80504000D01*
G75*
G02*
X71192500Y-80254002I0J249998D01*
G01*
G37*
%TD.AperFunction*%
%TO.P,R6,1*%
%TO.N,Net-(Q3-Pad3)*%
%TA.AperFunction,SMDPad,CuDef*%
G36*
G01*
X68267500Y-80254002D02*
X68267500Y-79003998D01*
G75*
G02*
X68517498Y-78754000I249998J0D01*
G01*
X69142502Y-78754000D01*
G75*
G02*
X69392500Y-79003998I0J-249998D01*
G01*
X69392500Y-80254002D01*
G75*
G02*
X69142502Y-80504000I-249998J0D01*
G01*
X68517498Y-80504000D01*
G75*
G02*
X68267500Y-80254002I0J249998D01*
G01*
G37*
%TD.AperFunction*%
%TD*%
%TO.P,R4,2*%
%TO.N,Net-(D2-Pad2)*%
%TA.AperFunction,SMDPad,CuDef*%
G36*
G01*
X89175700Y-80279402D02*
X89175700Y-79029398D01*
G75*
G02*
X89425698Y-78779400I249998J0D01*
G01*
X90050702Y-78779400D01*
G75*
G02*
X90300700Y-79029398I0J-249998D01*
G01*
X90300700Y-80279402D01*
G75*
G02*
X90050702Y-80529400I-249998J0D01*
G01*
X89425698Y-80529400D01*
G75*
G02*
X89175700Y-80279402I0J249998D01*
G01*
G37*
%TD.AperFunction*%
%TO.P,R4,1*%
%TO.N,Net-(Q2-Pad3)*%
%TA.AperFunction,SMDPad,CuDef*%
G36*
G01*
X86250700Y-80279402D02*
X86250700Y-79029398D01*
G75*
G02*
X86500698Y-78779400I249998J0D01*
G01*
X87125702Y-78779400D01*
G75*
G02*
X87375700Y-79029398I0J-249998D01*
G01*
X87375700Y-80279402D01*
G75*
G02*
X87125702Y-80529400I-249998J0D01*
G01*
X86500698Y-80529400D01*
G75*
G02*
X86250700Y-80279402I0J249998D01*
G01*
G37*
%TD.AperFunction*%
%TD*%
%TO.P,R3,2*%
%TO.N,Net-(Q2-Pad1)*%
%TA.AperFunction,SMDPad,CuDef*%
G36*
G01*
X89128900Y-76520202D02*
X89128900Y-75270198D01*
G75*
G02*
X89378898Y-75020200I249998J0D01*
G01*
X90003902Y-75020200D01*
G75*
G02*
X90253900Y-75270198I0J-249998D01*
G01*
X90253900Y-76520202D01*
G75*
G02*
X90003902Y-76770200I-249998J0D01*
G01*
X89378898Y-76770200D01*
G75*
G02*
X89128900Y-76520202I0J249998D01*
G01*
G37*
%TD.AperFunction*%
%TO.P,R3,1*%
%TO.N,G4*%
%TA.AperFunction,SMDPad,CuDef*%
G36*
G01*
X86203900Y-76520202D02*
X86203900Y-75270198D01*
G75*
G02*
X86453898Y-75020200I249998J0D01*
G01*
X87078902Y-75020200D01*
G75*
G02*
X87328900Y-75270198I0J-249998D01*
G01*
X87328900Y-76520202D01*
G75*
G02*
X87078902Y-76770200I-249998J0D01*
G01*
X86453898Y-76770200D01*
G75*
G02*
X86203900Y-76520202I0J249998D01*
G01*
G37*
%TD.AperFunction*%
%TD*%
%TO.P,R2,2*%
%TO.N,Net-(D1-Pad2)*%
%TA.AperFunction,SMDPad,CuDef*%
G36*
G01*
X107197000Y-80254002D02*
X107197000Y-79003998D01*
G75*
G02*
X107446998Y-78754000I249998J0D01*
G01*
X108072002Y-78754000D01*
G75*
G02*
X108322000Y-79003998I0J-249998D01*
G01*
X108322000Y-80254002D01*
G75*
G02*
X108072002Y-80504000I-249998J0D01*
G01*
X107446998Y-80504000D01*
G75*
G02*
X107197000Y-80254002I0J249998D01*
G01*
G37*
%TD.AperFunction*%
%TO.P,R2,1*%
%TO.N,Net-(Q1-Pad3)*%
%TA.AperFunction,SMDPad,CuDef*%
G36*
G01*
X104272000Y-80254002D02*
X104272000Y-79003998D01*
G75*
G02*
X104521998Y-78754000I249998J0D01*
G01*
X105147002Y-78754000D01*
G75*
G02*
X105397000Y-79003998I0J-249998D01*
G01*
X105397000Y-80254002D01*
G75*
G02*
X105147002Y-80504000I-249998J0D01*
G01*
X104521998Y-80504000D01*
G75*
G02*
X104272000Y-80254002I0J249998D01*
G01*
G37*
%TD.AperFunction*%
%TD*%
%TO.P,R1,2*%
%TO.N,Net-(Q1-Pad1)*%
%TA.AperFunction,SMDPad,CuDef*%
G36*
G01*
X107197000Y-76507502D02*
X107197000Y-75257498D01*
G75*
G02*
X107446998Y-75007500I249998J0D01*
G01*
X108072002Y-75007500D01*
G75*
G02*
X108322000Y-75257498I0J-249998D01*
G01*
X108322000Y-76507502D01*
G75*
G02*
X108072002Y-76757500I-249998J0D01*
G01*
X107446998Y-76757500D01*
G75*
G02*
X107197000Y-76507502I0J249998D01*
G01*
G37*
%TD.AperFunction*%
%TO.P,R1,1*%
%TO.N,G5*%
%TA.AperFunction,SMDPad,CuDef*%
G36*
G01*
X104272000Y-76507502D02*
X104272000Y-75257498D01*
G75*
G02*
X104521998Y-75007500I249998J0D01*
G01*
X105147002Y-75007500D01*
G75*
G02*
X105397000Y-75257498I0J-249998D01*
G01*
X105397000Y-76507502D01*
G75*
G02*
X105147002Y-76757500I-249998J0D01*
G01*
X104521998Y-76757500D01*
G75*
G02*
X104272000Y-76507502I0J249998D01*
G01*
G37*
%TD.AperFunction*%
%TD*%
%TO.P,R5,2*%
%TO.N,Net-(ALED1-Pad4)*%
%TA.AperFunction,SMDPad,CuDef*%
G36*
G01*
X53920500Y-34597502D02*
X53920500Y-33347498D01*
G75*
G02*
X54170498Y-33097500I249998J0D01*
G01*
X54795502Y-33097500D01*
G75*
G02*
X55045500Y-33347498I0J-249998D01*
G01*
X55045500Y-34597502D01*
G75*
G02*
X54795502Y-34847500I-249998J0D01*
G01*
X54170498Y-34847500D01*
G75*
G02*
X53920500Y-34597502I0J249998D01*
G01*
G37*
%TD.AperFunction*%
%TO.P,R5,1*%
%TO.N,G23*%
%TA.AperFunction,SMDPad,CuDef*%
G36*
G01*
X50995500Y-34597502D02*
X50995500Y-33347498D01*
G75*
G02*
X51245498Y-33097500I249998J0D01*
G01*
X51870502Y-33097500D01*
G75*
G02*
X52120500Y-33347498I0J-249998D01*
G01*
X52120500Y-34597502D01*
G75*
G02*
X51870502Y-34847500I-249998J0D01*
G01*
X51245498Y-34847500D01*
G75*
G02*
X50995500Y-34597502I0J249998D01*
G01*
G37*
%TD.AperFunction*%
%TD*%
D29*
%TO.P,SW1,2*%
%TO.N,Net-(R11-Pad2)*%
X97219000Y-43840400D03*
%TO.P,SW1,1*%
%TO.N,GND*%
X103949000Y-43840400D03*
%TD*%
%TO.P,U2,16*%
%TO.N,SCL*%
%TA.AperFunction,SMDPad,CuDef*%
G36*
G01*
X90645400Y-47076500D02*
X90645400Y-46776500D01*
G75*
G02*
X90795400Y-46626500I150000J0D01*
G01*
X92545400Y-46626500D01*
G75*
G02*
X92695400Y-46776500I0J-150000D01*
G01*
X92695400Y-47076500D01*
G75*
G02*
X92545400Y-47226500I-150000J0D01*
G01*
X90795400Y-47226500D01*
G75*
G02*
X90645400Y-47076500I0J150000D01*
G01*
G37*
%TD.AperFunction*%
%TO.P,U2,15*%
%TO.N,SDA*%
%TA.AperFunction,SMDPad,CuDef*%
G36*
G01*
X90645400Y-48346500D02*
X90645400Y-48046500D01*
G75*
G02*
X90795400Y-47896500I150000J0D01*
G01*
X92545400Y-47896500D01*
G75*
G02*
X92695400Y-48046500I0J-150000D01*
G01*
X92695400Y-48346500D01*
G75*
G02*
X92545400Y-48496500I-150000J0D01*
G01*
X90795400Y-48496500D01*
G75*
G02*
X90645400Y-48346500I0J150000D01*
G01*
G37*
%TD.AperFunction*%
%TO.P,U2,14*%
%TO.N,Net-(R13-Pad2)*%
%TA.AperFunction,SMDPad,CuDef*%
G36*
G01*
X90645400Y-49616500D02*
X90645400Y-49316500D01*
G75*
G02*
X90795400Y-49166500I150000J0D01*
G01*
X92545400Y-49166500D01*
G75*
G02*
X92695400Y-49316500I0J-150000D01*
G01*
X92695400Y-49616500D01*
G75*
G02*
X92545400Y-49766500I-150000J0D01*
G01*
X90795400Y-49766500D01*
G75*
G02*
X90645400Y-49616500I0J150000D01*
G01*
G37*
%TD.AperFunction*%
%TO.P,U2,13*%
%TO.N,GND*%
%TA.AperFunction,SMDPad,CuDef*%
G36*
G01*
X90645400Y-50886500D02*
X90645400Y-50586500D01*
G75*
G02*
X90795400Y-50436500I150000J0D01*
G01*
X92545400Y-50436500D01*
G75*
G02*
X92695400Y-50586500I0J-150000D01*
G01*
X92695400Y-50886500D01*
G75*
G02*
X92545400Y-51036500I-150000J0D01*
G01*
X90795400Y-51036500D01*
G75*
G02*
X90645400Y-50886500I0J150000D01*
G01*
G37*
%TD.AperFunction*%
%TO.P,U2,12*%
%TA.AperFunction,SMDPad,CuDef*%
G36*
G01*
X90645400Y-52156500D02*
X90645400Y-51856500D01*
G75*
G02*
X90795400Y-51706500I150000J0D01*
G01*
X92545400Y-51706500D01*
G75*
G02*
X92695400Y-51856500I0J-150000D01*
G01*
X92695400Y-52156500D01*
G75*
G02*
X92545400Y-52306500I-150000J0D01*
G01*
X90795400Y-52306500D01*
G75*
G02*
X90645400Y-52156500I0J150000D01*
G01*
G37*
%TD.AperFunction*%
%TO.P,U2,11*%
%TA.AperFunction,SMDPad,CuDef*%
G36*
G01*
X90645400Y-53426500D02*
X90645400Y-53126500D01*
G75*
G02*
X90795400Y-52976500I150000J0D01*
G01*
X92545400Y-52976500D01*
G75*
G02*
X92695400Y-53126500I0J-150000D01*
G01*
X92695400Y-53426500D01*
G75*
G02*
X92545400Y-53576500I-150000J0D01*
G01*
X90795400Y-53576500D01*
G75*
G02*
X90645400Y-53426500I0J150000D01*
G01*
G37*
%TD.AperFunction*%
%TO.P,U2,10*%
%TA.AperFunction,SMDPad,CuDef*%
G36*
G01*
X90645400Y-54696500D02*
X90645400Y-54396500D01*
G75*
G02*
X90795400Y-54246500I150000J0D01*
G01*
X92545400Y-54246500D01*
G75*
G02*
X92695400Y-54396500I0J-150000D01*
G01*
X92695400Y-54696500D01*
G75*
G02*
X92545400Y-54846500I-150000J0D01*
G01*
X90795400Y-54846500D01*
G75*
G02*
X90645400Y-54696500I0J150000D01*
G01*
G37*
%TD.AperFunction*%
%TO.P,U2,9*%
%TA.AperFunction,SMDPad,CuDef*%
G36*
G01*
X90645400Y-55966500D02*
X90645400Y-55666500D01*
G75*
G02*
X90795400Y-55516500I150000J0D01*
G01*
X92545400Y-55516500D01*
G75*
G02*
X92695400Y-55666500I0J-150000D01*
G01*
X92695400Y-55966500D01*
G75*
G02*
X92545400Y-56116500I-150000J0D01*
G01*
X90795400Y-56116500D01*
G75*
G02*
X90645400Y-55966500I0J150000D01*
G01*
G37*
%TD.AperFunction*%
%TO.P,U2,8*%
%TA.AperFunction,SMDPad,CuDef*%
G36*
G01*
X81345400Y-55966500D02*
X81345400Y-55666500D01*
G75*
G02*
X81495400Y-55516500I150000J0D01*
G01*
X83245400Y-55516500D01*
G75*
G02*
X83395400Y-55666500I0J-150000D01*
G01*
X83395400Y-55966500D01*
G75*
G02*
X83245400Y-56116500I-150000J0D01*
G01*
X81495400Y-56116500D01*
G75*
G02*
X81345400Y-55966500I0J150000D01*
G01*
G37*
%TD.AperFunction*%
%TO.P,U2,7*%
%TA.AperFunction,SMDPad,CuDef*%
G36*
G01*
X81345400Y-54696500D02*
X81345400Y-54396500D01*
G75*
G02*
X81495400Y-54246500I150000J0D01*
G01*
X83245400Y-54246500D01*
G75*
G02*
X83395400Y-54396500I0J-150000D01*
G01*
X83395400Y-54696500D01*
G75*
G02*
X83245400Y-54846500I-150000J0D01*
G01*
X81495400Y-54846500D01*
G75*
G02*
X81345400Y-54696500I0J150000D01*
G01*
G37*
%TD.AperFunction*%
%TO.P,U2,6*%
%TA.AperFunction,SMDPad,CuDef*%
G36*
G01*
X81345400Y-53426500D02*
X81345400Y-53126500D01*
G75*
G02*
X81495400Y-52976500I150000J0D01*
G01*
X83245400Y-52976500D01*
G75*
G02*
X83395400Y-53126500I0J-150000D01*
G01*
X83395400Y-53426500D01*
G75*
G02*
X83245400Y-53576500I-150000J0D01*
G01*
X81495400Y-53576500D01*
G75*
G02*
X81345400Y-53426500I0J150000D01*
G01*
G37*
%TD.AperFunction*%
%TO.P,U2,5*%
%TA.AperFunction,SMDPad,CuDef*%
G36*
G01*
X81345400Y-52156500D02*
X81345400Y-51856500D01*
G75*
G02*
X81495400Y-51706500I150000J0D01*
G01*
X83245400Y-51706500D01*
G75*
G02*
X83395400Y-51856500I0J-150000D01*
G01*
X83395400Y-52156500D01*
G75*
G02*
X83245400Y-52306500I-150000J0D01*
G01*
X81495400Y-52306500D01*
G75*
G02*
X81345400Y-52156500I0J150000D01*
G01*
G37*
%TD.AperFunction*%
%TO.P,U2,4*%
%TO.N,Net-(U2-Pad4)*%
%TA.AperFunction,SMDPad,CuDef*%
G36*
G01*
X81345400Y-50886500D02*
X81345400Y-50586500D01*
G75*
G02*
X81495400Y-50436500I150000J0D01*
G01*
X83245400Y-50436500D01*
G75*
G02*
X83395400Y-50586500I0J-150000D01*
G01*
X83395400Y-50886500D01*
G75*
G02*
X83245400Y-51036500I-150000J0D01*
G01*
X81495400Y-51036500D01*
G75*
G02*
X81345400Y-50886500I0J150000D01*
G01*
G37*
%TD.AperFunction*%
%TO.P,U2,3*%
%TO.N,Net-(U2-Pad3)*%
%TA.AperFunction,SMDPad,CuDef*%
G36*
G01*
X81345400Y-49616500D02*
X81345400Y-49316500D01*
G75*
G02*
X81495400Y-49166500I150000J0D01*
G01*
X83245400Y-49166500D01*
G75*
G02*
X83395400Y-49316500I0J-150000D01*
G01*
X83395400Y-49616500D01*
G75*
G02*
X83245400Y-49766500I-150000J0D01*
G01*
X81495400Y-49766500D01*
G75*
G02*
X81345400Y-49616500I0J150000D01*
G01*
G37*
%TD.AperFunction*%
%TO.P,U2,2*%
%TO.N,+3V3*%
%TA.AperFunction,SMDPad,CuDef*%
G36*
G01*
X81345400Y-48346500D02*
X81345400Y-48046500D01*
G75*
G02*
X81495400Y-47896500I150000J0D01*
G01*
X83245400Y-47896500D01*
G75*
G02*
X83395400Y-48046500I0J-150000D01*
G01*
X83395400Y-48346500D01*
G75*
G02*
X83245400Y-48496500I-150000J0D01*
G01*
X81495400Y-48496500D01*
G75*
G02*
X81345400Y-48346500I0J150000D01*
G01*
G37*
%TD.AperFunction*%
%TO.P,U2,1*%
%TO.N,Net-(U2-Pad1)*%
%TA.AperFunction,SMDPad,CuDef*%
G36*
G01*
X81345400Y-47076500D02*
X81345400Y-46776500D01*
G75*
G02*
X81495400Y-46626500I150000J0D01*
G01*
X83245400Y-46626500D01*
G75*
G02*
X83395400Y-46776500I0J-150000D01*
G01*
X83395400Y-47076500D01*
G75*
G02*
X83245400Y-47226500I-150000J0D01*
G01*
X81495400Y-47226500D01*
G75*
G02*
X81345400Y-47076500I0J150000D01*
G01*
G37*
%TD.AperFunction*%
%TD*%
D18*
%TO.P,S3,2*%
%TO.N,220N*%
X78580000Y-108712000D03*
D19*
%TO.P,S3,1*%
%TO.N,Net-(RE3-Pad3)*%
X73500000Y-108712000D03*
%TD*%
D18*
%TO.P,S2,2*%
%TO.N,220N*%
X96580000Y-108712000D03*
D19*
%TO.P,S2,1*%
%TO.N,Net-(RE2-Pad3)*%
X91500000Y-108712000D03*
%TD*%
D18*
%TO.P,S1,2*%
%TO.N,220N*%
X114580000Y-108712000D03*
D19*
%TO.P,S1,1*%
%TO.N,Net-(RE1-Pad3)*%
X109500000Y-108712000D03*
%TD*%
D18*
%TO.P,S0,2*%
%TO.N,220L*%
X126873000Y-92837000D03*
D19*
%TO.P,S0,1*%
%TO.N,220N*%
X126873000Y-97917000D03*
%TD*%
D30*
%TO.P,ALED1,1*%
%TO.N,+5V*%
X54483000Y-25834000D03*
%TO.P,ALED1,2*%
%TO.N,Net-(ALED1-Pad2)*%
X51283000Y-25834000D03*
%TO.P,ALED1,4*%
%TO.N,Net-(ALED1-Pad4)*%
X54483000Y-30734000D03*
%TO.P,ALED1,3*%
%TO.N,GND*%
X51283000Y-30734000D03*
%TD*%
D11*
%TO.P,i2c4,4*%
%TO.N,SCL*%
X50038000Y-65151000D03*
%TO.P,i2c4,3*%
%TO.N,SDA*%
X50038000Y-62611000D03*
%TO.P,i2c4,2*%
%TO.N,+3V3*%
X50038000Y-60071000D03*
D12*
%TO.P,i2c4,1*%
%TO.N,GND*%
X50038000Y-57531000D03*
%TD*%
D11*
%TO.P,i2c3,4*%
%TO.N,SCL*%
X46228000Y-65151000D03*
%TO.P,i2c3,3*%
%TO.N,SDA*%
X46228000Y-62611000D03*
%TO.P,i2c3,2*%
%TO.N,+5V*%
X46228000Y-60071000D03*
D12*
%TO.P,i2c3,1*%
%TO.N,GND*%
X46228000Y-57531000D03*
%TD*%
D31*
%TO.N,G4*%
X107835700Y-66090800D03*
%TO.N,G5*%
X111645700Y-66090800D03*
%TO.N,IO0*%
X106565700Y-66065400D03*
%TO.N,GND*%
X54292500Y-107632500D03*
X118440200Y-55219600D03*
X104190800Y-50546000D03*
X57975500Y-27749500D03*
X74282300Y-74676000D03*
X118033800Y-44805600D03*
X92570300Y-74726800D03*
X110413800Y-74777600D03*
X90297000Y-55816500D03*
X83820000Y-55816500D03*
X122872500Y-46101000D03*
X122682000Y-41059100D03*
X122872500Y-63182500D03*
X101904800Y-45466000D03*
X114833400Y-44754800D03*
X118173500Y-27686000D03*
X118745000Y-37274500D03*
%TO.N,SCL*%
X97802700Y-65963800D03*
%TO.N,RX*%
X117995700Y-66090800D03*
%TO.N,TX*%
X119265700Y-66090800D03*
%TO.N,G4*%
X86753700Y-74714100D03*
%TO.N,G5*%
X104838500Y-74739500D03*
%TO.N,SCL*%
X97802700Y-67957700D03*
%TO.N,G19*%
X103759000Y-38227000D03*
X114180000Y-63398400D03*
%TO.N,G18*%
X102743000Y-38227000D03*
X112910000Y-63398400D03*
%TO.N,G17*%
X101727000Y-38227000D03*
X110370000Y-63398400D03*
%TO.N,G16*%
X100711000Y-38227000D03*
X109100000Y-63398400D03*
%TO.N,+3V3*%
X109829600Y-41402000D03*
X113487200Y-41402000D03*
%TO.N,+5V*%
X124088401Y-40487600D03*
X112460300Y-25766500D03*
X129489200Y-32969200D03*
X81965800Y-78130400D03*
X117866200Y-78105000D03*
X99923600Y-78105000D03*
%TO.N,G23*%
X50673000Y-33972500D03*
X57785000Y-40640000D03*
X85064600Y-40640000D03*
X87985600Y-40640000D03*
%TO.N,G25*%
X112445800Y-51587400D03*
X107645200Y-62179200D03*
X111633000Y-49123600D03*
X98399600Y-70866000D03*
%TO.N,IO0*%
X102298500Y-69202300D03*
%TO.N,EN*%
X107442000Y-57759600D03*
X120530000Y-60889500D03*
%TO.N,G32*%
X116471700Y-45707300D03*
X116471700Y-35572700D03*
%TO.N,Net-(R13-Pad2)*%
X97078800Y-51498500D03*
X56184800Y-66243200D03*
X46990000Y-68681600D03*
X93091000Y-49466500D03*
X93167200Y-66243200D03*
%TD*%
D32*
%TO.N,GND*%
X117475000Y-57150000D02*
X115570000Y-55245000D01*
D33*
X57863000Y-28829000D02*
X57975500Y-28716500D01*
X53188000Y-28829000D02*
X57863000Y-28829000D01*
X51283000Y-30734000D02*
X53188000Y-28829000D01*
X105576000Y-50546000D02*
X105560000Y-50530000D01*
X57988200Y-28729200D02*
X57975500Y-28716500D01*
D34*
X91670400Y-55816500D02*
X91670400Y-50736500D01*
X82370400Y-55816500D02*
X82370400Y-52006500D01*
X83820000Y-55816500D02*
X82370400Y-55816500D01*
D33*
X114835500Y-43688000D02*
X114821500Y-43702000D01*
X54292500Y-107632500D02*
X54292500Y-105993000D01*
X57990000Y-28702000D02*
X57975500Y-28716500D01*
X105544000Y-50546000D02*
X105560000Y-50530000D01*
X104190800Y-50546000D02*
X105544000Y-50546000D01*
X118844800Y-44805600D02*
X118870200Y-44780200D01*
X118033800Y-44805600D02*
X118844800Y-44805600D01*
X123088400Y-47726600D02*
X123070000Y-47745000D01*
X123063000Y-64738000D02*
X123070000Y-64745000D01*
X115595400Y-55219600D02*
X115570000Y-55245000D01*
X118440200Y-55219600D02*
X115595400Y-55219600D01*
D34*
X90297000Y-55816500D02*
X91670400Y-55816500D01*
D33*
X123070000Y-46298500D02*
X122872500Y-46101000D01*
X123070000Y-47745000D02*
X123070000Y-46298500D01*
X123070000Y-63380000D02*
X122872500Y-63182500D01*
X123070000Y-64745000D02*
X123070000Y-63380000D01*
X122682000Y-41059100D02*
X121823800Y-41059100D01*
X57975500Y-27749500D02*
X57975500Y-28716500D01*
D32*
X101904800Y-45466000D02*
X103530400Y-45466000D01*
X103949000Y-45047400D02*
X103949000Y-43840400D01*
X103530400Y-45466000D02*
X103949000Y-45047400D01*
D33*
X114833400Y-43713900D02*
X114821500Y-43702000D01*
X114833400Y-44754800D02*
X114833400Y-43713900D01*
X118173500Y-27686000D02*
X118872000Y-27686000D01*
X117970300Y-37274500D02*
X117957600Y-37287200D01*
X118745000Y-37274500D02*
X117970300Y-37274500D01*
X111125000Y-74753000D02*
X111127500Y-74755500D01*
X93294200Y-74707200D02*
X93284000Y-74717400D01*
X111105400Y-74777600D02*
X111127500Y-74755500D01*
X110413800Y-74777600D02*
X111105400Y-74777600D01*
X93274600Y-74726800D02*
X93284000Y-74717400D01*
X92570300Y-74726800D02*
X93274600Y-74726800D01*
X74282300Y-74676000D02*
X75046800Y-74676000D01*
D32*
%TO.N,SCL*%
X120523000Y-64738000D02*
X120530000Y-64745000D01*
X50038000Y-65151000D02*
X46228000Y-65151000D01*
X46228000Y-65151000D02*
X45528090Y-65151000D01*
X47416590Y-41863000D02*
X48196500Y-41863000D01*
X91668600Y-46924700D02*
X91670400Y-46926500D01*
X48196500Y-41863000D02*
X44941500Y-41863000D01*
X44941500Y-41863000D02*
X43053000Y-43751500D01*
X43053000Y-43751500D02*
X43053000Y-64008000D01*
X44196000Y-65151000D02*
X46228000Y-65151000D01*
X43053000Y-64008000D02*
X44196000Y-65151000D01*
X54127400Y-69240400D02*
X50038000Y-65151000D01*
X91670400Y-46926500D02*
X90220800Y-46926500D01*
X89386600Y-46092300D02*
X89386600Y-44234100D01*
X90220800Y-46926500D02*
X89386600Y-46092300D01*
X97828100Y-67932300D02*
X97802700Y-67957700D01*
X118592700Y-67932300D02*
X97828100Y-67932300D01*
X120530000Y-65995000D02*
X118592700Y-67932300D01*
X120530000Y-64745000D02*
X120530000Y-65995000D01*
X97802700Y-67957700D02*
X96532700Y-67957700D01*
X95250000Y-69240400D02*
X54127400Y-69240400D01*
X96532700Y-67957700D02*
X95250000Y-69240400D01*
X92695400Y-46926500D02*
X91670400Y-46926500D01*
X94310200Y-48541300D02*
X92695400Y-46926500D01*
X94310200Y-62471300D02*
X94310200Y-48541300D01*
X97802700Y-65963800D02*
X94310200Y-62471300D01*
%TO.N,SDA*%
X50038000Y-62611000D02*
X46228000Y-62611000D01*
X46228000Y-62611000D02*
X45021500Y-62611000D01*
X45021500Y-62611000D02*
X44259500Y-61849000D01*
X44259500Y-61849000D02*
X44259500Y-45656500D01*
X45553000Y-44363000D02*
X48196500Y-44363000D01*
X44259500Y-45656500D02*
X45553000Y-44363000D01*
X116713000Y-64738000D02*
X116720000Y-64745000D01*
X89361200Y-58204100D02*
X89361200Y-49056100D01*
X90220800Y-48196500D02*
X91670400Y-48196500D01*
X89361200Y-49056100D02*
X90220800Y-48196500D01*
X55302990Y-67875990D02*
X50038000Y-62611000D01*
X116720000Y-65995000D02*
X115735200Y-66979800D01*
X116720000Y-64745000D02*
X116720000Y-65995000D01*
X95480280Y-66979800D02*
X94584090Y-67875990D01*
X94584090Y-67875990D02*
X55302990Y-67875990D01*
X115735200Y-66979800D02*
X100406200Y-66979800D01*
X100406200Y-66979800D02*
X99961700Y-66979800D01*
X96989900Y-66979800D02*
X96901000Y-66979800D01*
X100406200Y-66979800D02*
X96989900Y-66979800D01*
X96989900Y-66979800D02*
X95480280Y-66979800D01*
X89361200Y-60860720D02*
X95480280Y-66979800D01*
X89361200Y-58204100D02*
X89361200Y-60860720D01*
%TO.N,G19*%
X103759000Y-38227000D02*
X103759000Y-38227000D01*
X114180000Y-63398400D02*
X114180000Y-64745000D01*
X103759000Y-36743000D02*
X103759000Y-38227000D01*
X103759000Y-36068000D02*
X103759000Y-36743000D01*
X102997000Y-35306000D02*
X103759000Y-36068000D01*
X98171000Y-34671000D02*
X98806000Y-35306000D01*
X98806000Y-35306000D02*
X102997000Y-35306000D01*
X97576000Y-31155000D02*
X98171000Y-31750000D01*
X98171000Y-31750000D02*
X98171000Y-34671000D01*
X93893000Y-31155000D02*
X97576000Y-31155000D01*
%TO.N,G18*%
X112910000Y-63398400D02*
X112910000Y-64745000D01*
X87934000Y-31165000D02*
X83947000Y-31165000D01*
X88582500Y-31813500D02*
X87934000Y-31165000D01*
X88582500Y-35306000D02*
X88582500Y-31813500D01*
X101854000Y-35966400D02*
X89242900Y-35966400D01*
X102743000Y-36855400D02*
X101854000Y-35966400D01*
X89242900Y-35966400D02*
X88582500Y-35306000D01*
X102743000Y-38227000D02*
X102743000Y-36855400D01*
D34*
%TO.N,G5*%
X111645700Y-64750700D02*
X111640000Y-64745000D01*
X111645700Y-66090800D02*
X111645700Y-64750700D01*
X104838500Y-75878500D02*
X104834500Y-75882500D01*
X104838500Y-74739500D02*
X104838500Y-75878500D01*
D32*
%TO.N,G17*%
X110370000Y-63398400D02*
X110370000Y-64745000D01*
X101727000Y-37592000D02*
X101727000Y-38227000D01*
X101346000Y-37211000D02*
X101727000Y-37592000D01*
X79375000Y-36131500D02*
X80454500Y-37211000D01*
X79375000Y-31750000D02*
X79375000Y-36131500D01*
X80454500Y-37211000D02*
X101346000Y-37211000D01*
X78780000Y-31155000D02*
X79375000Y-31750000D01*
X74422000Y-31155000D02*
X78780000Y-31155000D01*
%TO.N,G16*%
X69175000Y-31155000D02*
X69255000Y-31155000D01*
X64897000Y-31155000D02*
X69175000Y-31155000D01*
X109100000Y-63398400D02*
X109100000Y-64745000D01*
X71755000Y-38227000D02*
X77851000Y-38227000D01*
X77851000Y-38227000D02*
X100711000Y-38227000D01*
X70485000Y-36957000D02*
X71755000Y-38227000D01*
X70485000Y-31750000D02*
X70485000Y-36957000D01*
X69890000Y-31155000D02*
X70485000Y-31750000D01*
X69175000Y-31155000D02*
X69890000Y-31155000D01*
D34*
%TO.N,G4*%
X107835700Y-64750700D02*
X107830000Y-64745000D01*
X107835700Y-66090800D02*
X107835700Y-64750700D01*
X86753700Y-75882500D02*
X86766400Y-75895200D01*
X86753700Y-74714100D02*
X86753700Y-75882500D01*
D32*
%TO.N,TX*%
X119265700Y-64750700D02*
X119260000Y-64745000D01*
X119265700Y-66090800D02*
X119265700Y-64750700D01*
%TO.N,RX*%
X114236500Y-69970502D02*
X114236500Y-70612000D01*
X117995700Y-64750700D02*
X117990000Y-64745000D01*
X117995700Y-66090800D02*
X117995700Y-64750700D01*
D33*
%TO.N,+3V3*%
X106489500Y-39370000D02*
X108521500Y-41402000D01*
X114885000Y-41465500D02*
X114821500Y-41402000D01*
D32*
X96164400Y-39471600D02*
X96062800Y-39370000D01*
D33*
X96062800Y-39370000D02*
X89408000Y-39370000D01*
D34*
X86588600Y-39395400D02*
X86614000Y-39370000D01*
D33*
X89408000Y-39370000D02*
X86614000Y-39370000D01*
X121820200Y-47724800D02*
X121800000Y-47745000D01*
X121820200Y-44780200D02*
X121820200Y-47724800D01*
D32*
X101600000Y-39497000D02*
X101727000Y-39370000D01*
D33*
X106489500Y-39370000D02*
X101727000Y-39370000D01*
X121800000Y-60695774D02*
X124120001Y-63015775D01*
X121800000Y-47745000D02*
X121800000Y-60695774D01*
X51689000Y-60071000D02*
X50038000Y-60071000D01*
X52895500Y-58864500D02*
X51689000Y-60071000D01*
X56959500Y-39370000D02*
X52895500Y-43434000D01*
X52895500Y-43434000D02*
X52895500Y-58864500D01*
X86614000Y-39370000D02*
X56959500Y-39370000D01*
X121820200Y-44780200D02*
X119966000Y-42926000D01*
X119966000Y-42926000D02*
X117538500Y-42926000D01*
X116014500Y-41402000D02*
X114821500Y-41402000D01*
X117538500Y-42926000D02*
X116014500Y-41402000D01*
D32*
X100076000Y-48717200D02*
X100076000Y-39624000D01*
D33*
X99822000Y-39370000D02*
X96062800Y-39370000D01*
D32*
X100076000Y-39624000D02*
X99822000Y-39370000D01*
D33*
X101727000Y-39370000D02*
X99822000Y-39370000D01*
X109829600Y-41402000D02*
X108521500Y-41402000D01*
X113487200Y-41402000D02*
X114821500Y-41402000D01*
X123367800Y-44780200D02*
X121820200Y-44780200D01*
X124206000Y-43942000D02*
X123367800Y-44780200D01*
X124206000Y-41783000D02*
X124206000Y-43942000D01*
X127587200Y-40713200D02*
X126517400Y-41783000D01*
X126517400Y-41783000D02*
X124206000Y-41783000D01*
X127587200Y-37287200D02*
X127587200Y-40713200D01*
X124120001Y-63015775D02*
X124120001Y-67865899D01*
X124120001Y-67865899D02*
X123405900Y-68580000D01*
X123405900Y-68580000D02*
X120103900Y-68580000D01*
X119316500Y-69367400D02*
X119316500Y-70612000D01*
X120103900Y-68580000D02*
X119316500Y-69367400D01*
X86461600Y-58178700D02*
X86436200Y-58204100D01*
X86461600Y-48158400D02*
X82408500Y-48158400D01*
X86461600Y-44234100D02*
X86461600Y-48158400D01*
X82408500Y-48158400D02*
X82370400Y-48196500D01*
X86461600Y-48158400D02*
X86461600Y-58178700D01*
X86461600Y-39522400D02*
X86614000Y-39370000D01*
X86461600Y-44234100D02*
X86461600Y-39522400D01*
%TO.N,+5V*%
X54519500Y-25797500D02*
X54483000Y-25834000D01*
X54550500Y-25766500D02*
X54483000Y-25834000D01*
X57975500Y-25766500D02*
X54550500Y-25766500D01*
X115125000Y-38798500D02*
X114821500Y-39102000D01*
X114835500Y-39116000D02*
X114821500Y-39102000D01*
X125795000Y-78105000D02*
X127000000Y-78105000D01*
X117950000Y-85950000D02*
X125795000Y-78105000D01*
X114832900Y-39090600D02*
X114821500Y-39102000D01*
X50292000Y-46863000D02*
X48196500Y-46863000D01*
X50990500Y-46164500D02*
X50292000Y-46863000D01*
X50990500Y-41829274D02*
X50990500Y-46164500D01*
X60784000Y-25766500D02*
X60784000Y-32035774D01*
X57975500Y-25766500D02*
X60784000Y-25766500D01*
X60784000Y-32035774D02*
X50990500Y-41829274D01*
X112522000Y-25844500D02*
X112444000Y-25766500D01*
X112522000Y-28665000D02*
X112522000Y-25844500D01*
X64897000Y-26035000D02*
X64628500Y-25766500D01*
X64897000Y-28665000D02*
X64897000Y-26035000D01*
X64628500Y-25766500D02*
X67586500Y-25766500D01*
X60784000Y-25766500D02*
X64628500Y-25766500D01*
X74422000Y-25781000D02*
X74407500Y-25766500D01*
X74422000Y-28665000D02*
X74422000Y-25781000D01*
X74407500Y-25766500D02*
X67586500Y-25766500D01*
X83947000Y-25908000D02*
X83805500Y-25766500D01*
X83947000Y-28665000D02*
X83947000Y-25908000D01*
X83805500Y-25766500D02*
X74407500Y-25766500D01*
X93472000Y-25815500D02*
X93423000Y-25766500D01*
X93472000Y-28665000D02*
X93472000Y-25815500D01*
X93423000Y-25766500D02*
X83805500Y-25766500D01*
X102997000Y-25781000D02*
X102982500Y-25766500D01*
X102997000Y-28665000D02*
X102997000Y-25781000D01*
X102982500Y-25766500D02*
X93423000Y-25766500D01*
X112444000Y-25766500D02*
X102982500Y-25766500D01*
X116916700Y-39102000D02*
X114821500Y-39102000D01*
X118873800Y-41059100D02*
X116916700Y-39102000D01*
X120562900Y-39370000D02*
X118873800Y-41059100D01*
X122970801Y-39370000D02*
X120562900Y-39370000D01*
X124088401Y-40487600D02*
X122970801Y-39370000D01*
X128981200Y-33477200D02*
X129489200Y-32969200D01*
X127587200Y-33477200D02*
X128981200Y-33477200D01*
X78196000Y-82196000D02*
X81950000Y-85950000D01*
X78196000Y-79629000D02*
X78196000Y-82196000D01*
X114173000Y-82173000D02*
X117950000Y-85950000D01*
X114173000Y-79629000D02*
X114173000Y-82173000D01*
D34*
X117866200Y-77435400D02*
X116326000Y-75895200D01*
X117866200Y-78105000D02*
X117866200Y-77435400D01*
D33*
X96179200Y-82179200D02*
X99950000Y-85950000D01*
X96179200Y-79629000D02*
X96179200Y-82179200D01*
D34*
X99923600Y-77501400D02*
X98317400Y-75895200D01*
X99923600Y-78105000D02*
X99923600Y-77501400D01*
X81965800Y-77526800D02*
X80334200Y-75895200D01*
X81965800Y-78130400D02*
X81965800Y-77526800D01*
D33*
%TO.N,Net-(D1-Pad2)*%
X105918000Y-85918000D02*
X105950000Y-85950000D01*
X105613200Y-85613200D02*
X105950000Y-85950000D01*
X105609000Y-85609000D02*
X105950000Y-85950000D01*
X109673000Y-82227000D02*
X105950000Y-85950000D01*
X109673000Y-79629000D02*
X109673000Y-82227000D01*
X109673000Y-79629000D02*
X107759500Y-79629000D01*
%TO.N,Net-(D2-Pad2)*%
X87884000Y-85884000D02*
X87950000Y-85950000D01*
X87579200Y-85579200D02*
X87950000Y-85950000D01*
X87575000Y-85575000D02*
X87950000Y-85950000D01*
X91679200Y-82220800D02*
X87950000Y-85950000D01*
X91679200Y-79629000D02*
X91679200Y-82220800D01*
X91653800Y-79654400D02*
X91679200Y-79629000D01*
X89738200Y-79654400D02*
X91653800Y-79654400D01*
D35*
%TO.N,Net-(RE1-Pad3)*%
X105950000Y-105162000D02*
X109500000Y-108712000D01*
X105950000Y-98150000D02*
X105950000Y-105162000D01*
%TO.N,Net-(RE2-Pad3)*%
X87950000Y-105162000D02*
X91500000Y-108712000D01*
X87950000Y-98150000D02*
X87950000Y-105162000D01*
D34*
%TO.N,Net-(LED1-Pad1)*%
X119115300Y-75905900D02*
X119126000Y-75895200D01*
X119115300Y-79654400D02*
X119115300Y-75905900D01*
%TO.N,Net-(LED2-Pad1)*%
X101106700Y-75905900D02*
X101117400Y-75895200D01*
X101106700Y-79756000D02*
X101106700Y-75905900D01*
D32*
%TO.N,G23*%
X69850000Y-40640000D02*
X85064600Y-40640000D01*
X50673000Y-33972500D02*
X51558000Y-33972500D01*
X121800000Y-63495000D02*
X121800000Y-64745000D01*
X108885999Y-62139999D02*
X120444999Y-62139999D01*
X120444999Y-62139999D02*
X121800000Y-63495000D01*
X108885999Y-62157601D02*
X108885999Y-62139999D01*
X96977200Y-62992000D02*
X108051600Y-62992000D01*
X95415960Y-61430760D02*
X96977200Y-62992000D01*
X108051600Y-62992000D02*
X108885999Y-62157601D01*
X95415960Y-41504460D02*
X95415960Y-61430760D01*
X94551500Y-40640000D02*
X95415960Y-41504460D01*
X87985600Y-40640000D02*
X94551500Y-40640000D01*
X69850000Y-40640000D02*
X57785000Y-40640000D01*
D33*
%TO.N,Net-(D3-Pad2)*%
X69977000Y-85923000D02*
X69950000Y-85950000D01*
X69951600Y-85948400D02*
X69950000Y-85950000D01*
X69545200Y-85545200D02*
X69950000Y-85950000D01*
X69566400Y-85566400D02*
X69950000Y-85950000D01*
X73696000Y-82204000D02*
X69950000Y-85950000D01*
X73696000Y-79629000D02*
X73696000Y-82204000D01*
X71755000Y-79629000D02*
X73696000Y-79629000D01*
D34*
%TO.N,Net-(LED3-Pad1)*%
X83138200Y-75899200D02*
X83134200Y-75895200D01*
X83138200Y-79654400D02*
X83138200Y-75899200D01*
D35*
%TO.N,Net-(RE3-Pad3)*%
X69950000Y-105162000D02*
X73500000Y-108712000D01*
X69950000Y-98150000D02*
X69950000Y-105162000D01*
D32*
%TO.N,Net-(ALED1-Pad4)*%
X54483000Y-30734000D02*
X54483000Y-33972500D01*
%TO.N,G26*%
X112445000Y-31242000D02*
X112522000Y-31165000D01*
D34*
X112522000Y-31165000D02*
X112472000Y-31165000D01*
D32*
X110370000Y-46979998D02*
X110370000Y-47745000D01*
X110370000Y-46398800D02*
X110370000Y-47745000D01*
X112369600Y-37338000D02*
X112369600Y-44399200D01*
X110439200Y-35407600D02*
X112369600Y-37338000D01*
X110439200Y-32156400D02*
X110439200Y-35407600D01*
X111430600Y-31165000D02*
X110439200Y-32156400D01*
X112369600Y-44399200D02*
X110370000Y-46398800D01*
X112522000Y-31165000D02*
X111430600Y-31165000D01*
%TO.N,G27*%
X102997000Y-31165000D02*
X102312000Y-31165000D01*
X109100000Y-46979998D02*
X109100000Y-47745000D01*
X102997000Y-31165000D02*
X107568200Y-31165000D01*
X107568200Y-31165000D02*
X108458000Y-32054800D01*
X108458000Y-32054800D02*
X108458000Y-36169600D01*
X108458000Y-36169600D02*
X110845600Y-38557200D01*
X110845600Y-38557200D02*
X110845600Y-44551600D01*
X109100000Y-46297200D02*
X109100000Y-47745000D01*
X110845600Y-44551600D02*
X109100000Y-46297200D01*
D34*
%TO.N,G25*%
X107645200Y-62179200D02*
X108483400Y-61341000D01*
X112445800Y-57378600D02*
X108483400Y-61341000D01*
X112445800Y-51587400D02*
X112445800Y-57378600D01*
X111633000Y-47752000D02*
X111640000Y-47745000D01*
X111633000Y-49123600D02*
X111633000Y-47752000D01*
X68880800Y-72952800D02*
X68880800Y-75895200D01*
X70967600Y-70866000D02*
X68880800Y-72952800D01*
X98399600Y-70866000D02*
X70967600Y-70866000D01*
D33*
%TO.N,Net-(Q1-Pad3)*%
X106759510Y-77703990D02*
X111129010Y-77703990D01*
X111129010Y-77703990D02*
X112077500Y-76755500D01*
X104834500Y-79629000D02*
X106759510Y-77703990D01*
D34*
X116190300Y-78779400D02*
X114166400Y-76755500D01*
X114166400Y-76755500D02*
X112077500Y-76755500D01*
X116190300Y-79654400D02*
X116190300Y-78779400D01*
D33*
%TO.N,Net-(Q2-Pad3)*%
X93581190Y-77370210D02*
X89097390Y-77370210D01*
X89097390Y-77370210D02*
X86813200Y-79654400D01*
X94234000Y-76717400D02*
X93581190Y-77370210D01*
D34*
X96018100Y-76717400D02*
X94234000Y-76717400D01*
X98181700Y-78881000D02*
X96018100Y-76717400D01*
X98181700Y-79756000D02*
X98181700Y-78881000D01*
%TO.N,Net-(Q3-Pad3)*%
X78109800Y-76676000D02*
X75996800Y-76676000D01*
X80213200Y-78779400D02*
X78109800Y-76676000D01*
X80213200Y-79654400D02*
X80213200Y-78779400D01*
D33*
X74968810Y-77703990D02*
X75996800Y-76676000D01*
X70755010Y-77703990D02*
X74968810Y-77703990D01*
X68830000Y-79629000D02*
X70755010Y-77703990D01*
D34*
%TO.N,Net-(BT1-Pad1)*%
X56479000Y-74446500D02*
X54292500Y-76633000D01*
X56479000Y-72517000D02*
X56479000Y-74446500D01*
D33*
%TO.N,Net-(LED4-Pad1)*%
X124787200Y-37287200D02*
X120882600Y-37287200D01*
D32*
%TO.N,Net-(R11-Pad2)*%
X98653600Y-61061600D02*
X98653600Y-57708800D01*
X97151000Y-43908400D02*
X97219000Y-43840400D01*
X97151000Y-48717200D02*
X97151000Y-43908400D01*
X98653600Y-50219800D02*
X97151000Y-48717200D01*
X98653600Y-57708800D02*
X98653600Y-50219800D01*
D34*
%TO.N,Net-(D4-Pad1)*%
X48423500Y-76072500D02*
X51979000Y-72517000D01*
X46164500Y-76072500D02*
X48423500Y-76072500D01*
%TO.N,Net-(Q3-Pad1)*%
X71805800Y-75895200D02*
X71875001Y-75825999D01*
X71805800Y-75895200D02*
X71805800Y-73761600D01*
X71805800Y-73761600D02*
X72301100Y-73266300D01*
X72301100Y-73266300D02*
X76377800Y-73266300D01*
X76946800Y-73835300D02*
X76946800Y-74676000D01*
X76377800Y-73266300D02*
X76946800Y-73835300D01*
%TO.N,Net-(Q1-Pad1)*%
X107759500Y-75882500D02*
X107759500Y-73875900D01*
X107759500Y-73875900D02*
X108381800Y-73253600D01*
X108381800Y-73253600D02*
X112445800Y-73253600D01*
X113027500Y-73835300D02*
X113027500Y-74755500D01*
X112445800Y-73253600D02*
X113027500Y-73835300D01*
%TO.N,Net-(Q2-Pad1)*%
X89691400Y-75895200D02*
X89719201Y-75867399D01*
X89691400Y-73833800D02*
X89691400Y-74240200D01*
X90258900Y-73266300D02*
X89691400Y-73833800D01*
X94576900Y-73266300D02*
X90258900Y-73266300D01*
X95184000Y-73873400D02*
X94576900Y-73266300D01*
X89691400Y-74240200D02*
X89691400Y-75895200D01*
X95184000Y-74717400D02*
X95184000Y-73873400D01*
%TO.N,G33*%
X112910000Y-47745000D02*
X112910000Y-49345200D01*
X112255201Y-49999999D02*
X107454799Y-49999999D01*
X112910000Y-49345200D02*
X112255201Y-49999999D01*
X107454799Y-49999999D02*
X106667300Y-49212500D01*
X103532400Y-49212500D02*
X100014500Y-52730400D01*
X106667300Y-49212500D02*
X103532400Y-49212500D01*
D32*
%TO.N,IO0*%
X106534200Y-64719200D02*
X106560000Y-64745000D01*
X106565700Y-64750700D02*
X106560000Y-64745000D01*
X106565700Y-66065400D02*
X106565700Y-64750700D01*
X110286800Y-69202300D02*
X111696500Y-70612000D01*
X102298500Y-69202300D02*
X110286800Y-69202300D01*
%TO.N,EN*%
X120530000Y-60889500D02*
X120530000Y-60889500D01*
X120530000Y-50666000D02*
X120530000Y-60889500D01*
X120530000Y-47745000D02*
X120530000Y-50666000D01*
X101244400Y-57759600D02*
X101193600Y-57708800D01*
X101193600Y-61061600D02*
X101193600Y-57708800D01*
X120530000Y-48995000D02*
X120530000Y-47745000D01*
X118826600Y-50698400D02*
X120530000Y-48995000D01*
X109829600Y-50698400D02*
X118826600Y-50698400D01*
X107442000Y-53086000D02*
X109829600Y-50698400D01*
X107442000Y-57759600D02*
X107442000Y-53086000D01*
D33*
%TO.N,Net-(Q4-Pad3)*%
X112786000Y-33401000D02*
X112522000Y-33665000D01*
X116872000Y-32442400D02*
X116872000Y-28636000D01*
X117906800Y-33477200D02*
X116872000Y-32442400D01*
X115649400Y-33665000D02*
X116872000Y-32442400D01*
X112522000Y-33665000D02*
X115649400Y-33665000D01*
D34*
%TO.N,G32*%
X121412000Y-30164500D02*
X119329200Y-32247300D01*
X119329200Y-32247300D02*
X119329200Y-34747200D01*
X119329200Y-34747200D02*
X118516400Y-35560000D01*
X114817700Y-45707300D02*
X114180000Y-46345000D01*
X114180000Y-46345000D02*
X114180000Y-47745000D01*
X116471700Y-45707300D02*
X114817700Y-45707300D01*
X116484400Y-35560000D02*
X116471700Y-35572700D01*
X118516400Y-35560000D02*
X116484400Y-35560000D01*
D33*
%TO.N,Net-(LED5-Pad1)*%
X124787200Y-33477200D02*
X120831800Y-33477200D01*
D34*
%TO.N,Net-(Q4-Pad1)*%
X121218500Y-27239500D02*
X118872000Y-29586000D01*
X121412000Y-27239500D02*
X121218500Y-27239500D01*
D33*
%TO.N,Net-(R13-Pad2)*%
X46825400Y-68681600D02*
X46164500Y-69342500D01*
X46990000Y-68681600D02*
X46825400Y-68681600D01*
D34*
X88138000Y-66243200D02*
X56184800Y-66243200D01*
X88138000Y-66243200D02*
X93167200Y-66243200D01*
X97078800Y-52741100D02*
X97089500Y-52730400D01*
X93091000Y-49466500D02*
X91670400Y-49466500D01*
X97078800Y-52719700D02*
X97089500Y-52730400D01*
X97078800Y-51498500D02*
X97078800Y-52719700D01*
%TD*%
M02*
