%TF.GenerationSoftware,KiCad,Pcbnew,5.99.0+really5.1.10+dfsg1-1*%
%TF.CreationDate,2022-01-11T00:43:00+01:00*%
%TF.ProjectId,terrarium,74657272-6172-4697-956d-2e6b69636164,rev?*%
%TF.SameCoordinates,Original*%
%TF.FileFunction,Legend,Top*%
%TF.FilePolarity,Positive*%
%FSLAX46Y46*%
G04 Gerber Fmt 4.6, Leading zero omitted, Abs format (unit mm)*
G04 Created by KiCad (PCBNEW 5.99.0+really5.1.10+dfsg1-1) date 2022-01-11 00:43:00*
%MOMM*%
%LPD*%
G01*
G04 APERTURE LIST*
%ADD10C,0.150000*%
%ADD11C,0.300000*%
%ADD12C,0.500000*%
%ADD13C,0.120000*%
%TA.AperFunction,Profile*%
%ADD14C,0.050000*%
%TD*%
G04 APERTURE END LIST*
D10*
X52226785Y-57094500D02*
X52131547Y-57046880D01*
X51988690Y-57046880D01*
X51845833Y-57094500D01*
X51750595Y-57189738D01*
X51702976Y-57284976D01*
X51655357Y-57475452D01*
X51655357Y-57618309D01*
X51702976Y-57808785D01*
X51750595Y-57904023D01*
X51845833Y-57999261D01*
X51988690Y-58046880D01*
X52083928Y-58046880D01*
X52226785Y-57999261D01*
X52274404Y-57951642D01*
X52274404Y-57618309D01*
X52083928Y-57618309D01*
X52702976Y-58046880D02*
X52702976Y-57046880D01*
X53274404Y-58046880D01*
X53274404Y-57046880D01*
X53750595Y-58046880D02*
X53750595Y-57046880D01*
X53988690Y-57046880D01*
X54131547Y-57094500D01*
X54226785Y-57189738D01*
X54274404Y-57284976D01*
X54322023Y-57475452D01*
X54322023Y-57618309D01*
X54274404Y-57808785D01*
X54226785Y-57904023D01*
X54131547Y-57999261D01*
X53988690Y-58046880D01*
X53750595Y-58046880D01*
X51798190Y-59586880D02*
X52417238Y-59586880D01*
X52083904Y-59967833D01*
X52226761Y-59967833D01*
X52322000Y-60015452D01*
X52369619Y-60063071D01*
X52417238Y-60158309D01*
X52417238Y-60396404D01*
X52369619Y-60491642D01*
X52322000Y-60539261D01*
X52226761Y-60586880D01*
X51941047Y-60586880D01*
X51845809Y-60539261D01*
X51798190Y-60491642D01*
X52750571Y-59920214D02*
X52988666Y-60586880D01*
X53226761Y-59920214D01*
X53512476Y-59586880D02*
X54131523Y-59586880D01*
X53798190Y-59967833D01*
X53941047Y-59967833D01*
X54036285Y-60015452D01*
X54083904Y-60063071D01*
X54131523Y-60158309D01*
X54131523Y-60396404D01*
X54083904Y-60491642D01*
X54036285Y-60539261D01*
X53941047Y-60586880D01*
X53655333Y-60586880D01*
X53560095Y-60539261D01*
X53512476Y-60491642D01*
X109097771Y-69070985D02*
X109097771Y-68737652D01*
X109621580Y-68594795D02*
X109621580Y-69070985D01*
X108621580Y-69070985D01*
X108621580Y-68594795D01*
X109621580Y-68166223D02*
X108621580Y-68166223D01*
X109621580Y-67594795D01*
X108621580Y-67594795D01*
X112161580Y-68934395D02*
X111161580Y-68934395D01*
X111161580Y-68267728D02*
X111161580Y-68077252D01*
X111209200Y-67982014D01*
X111304438Y-67886776D01*
X111494914Y-67839157D01*
X111828247Y-67839157D01*
X112018723Y-67886776D01*
X112113961Y-67982014D01*
X112161580Y-68077252D01*
X112161580Y-68267728D01*
X112113961Y-68362966D01*
X112018723Y-68458204D01*
X111828247Y-68505823D01*
X111494914Y-68505823D01*
X111304438Y-68458204D01*
X111209200Y-68362966D01*
X111161580Y-68267728D01*
X111161580Y-67220109D02*
X111161580Y-67124871D01*
X111209200Y-67029633D01*
X111256819Y-66982014D01*
X111352057Y-66934395D01*
X111542533Y-66886776D01*
X111780628Y-66886776D01*
X111971104Y-66934395D01*
X112066342Y-66982014D01*
X112113961Y-67029633D01*
X112161580Y-67124871D01*
X112161580Y-67220109D01*
X112113961Y-67315347D01*
X112066342Y-67362966D01*
X111971104Y-67410585D01*
X111780628Y-67458204D01*
X111542533Y-67458204D01*
X111352057Y-67410585D01*
X111256819Y-67362966D01*
X111209200Y-67315347D01*
X111161580Y-67220109D01*
D11*
X126067571Y-73473571D02*
X125353285Y-73473571D01*
X125281857Y-74187857D01*
X125353285Y-74116428D01*
X125496142Y-74045000D01*
X125853285Y-74045000D01*
X125996142Y-74116428D01*
X126067571Y-74187857D01*
X126139000Y-74330714D01*
X126139000Y-74687857D01*
X126067571Y-74830714D01*
X125996142Y-74902142D01*
X125853285Y-74973571D01*
X125496142Y-74973571D01*
X125353285Y-74902142D01*
X125281857Y-74830714D01*
X126639000Y-73973571D02*
X126996142Y-74973571D01*
X127353285Y-73973571D01*
X129067571Y-74973571D02*
X129067571Y-73973571D01*
X129067571Y-73473571D02*
X128996142Y-73545000D01*
X129067571Y-73616428D01*
X129139000Y-73545000D01*
X129067571Y-73473571D01*
X129067571Y-73616428D01*
X129781857Y-73973571D02*
X129781857Y-74973571D01*
X129781857Y-74116428D02*
X129853285Y-74045000D01*
X129996142Y-73973571D01*
X130210428Y-73973571D01*
X130353285Y-74045000D01*
X130424714Y-74187857D01*
X130424714Y-74973571D01*
D12*
X121412000Y-87122000D02*
X130810000Y-87122000D01*
X121412000Y-81724500D02*
X121412000Y-87122000D01*
X66548000Y-81724500D02*
X121412000Y-81724500D01*
X66548000Y-112776000D02*
X66548000Y-81724500D01*
D10*
X84963000Y-47434500D02*
G75*
G03*
X84963000Y-47434500I-355600J0D01*
G01*
X51702952Y-63079261D02*
X51845809Y-63126880D01*
X52083904Y-63126880D01*
X52179142Y-63079261D01*
X52226761Y-63031642D01*
X52274380Y-62936404D01*
X52274380Y-62841166D01*
X52226761Y-62745928D01*
X52179142Y-62698309D01*
X52083904Y-62650690D01*
X51893428Y-62603071D01*
X51798190Y-62555452D01*
X51750571Y-62507833D01*
X51702952Y-62412595D01*
X51702952Y-62317357D01*
X51750571Y-62222119D01*
X51798190Y-62174500D01*
X51893428Y-62126880D01*
X52131523Y-62126880D01*
X52274380Y-62174500D01*
X52702952Y-63126880D02*
X52702952Y-62126880D01*
X52941047Y-62126880D01*
X53083904Y-62174500D01*
X53179142Y-62269738D01*
X53226761Y-62364976D01*
X53274380Y-62555452D01*
X53274380Y-62698309D01*
X53226761Y-62888785D01*
X53179142Y-62984023D01*
X53083904Y-63079261D01*
X52941047Y-63126880D01*
X52702952Y-63126880D01*
X53655333Y-62841166D02*
X54131523Y-62841166D01*
X53560095Y-63126880D02*
X53893428Y-62126880D01*
X54226761Y-63126880D01*
X51687071Y-65492261D02*
X51829928Y-65539880D01*
X52068023Y-65539880D01*
X52163261Y-65492261D01*
X52210880Y-65444642D01*
X52258500Y-65349404D01*
X52258500Y-65254166D01*
X52210880Y-65158928D01*
X52163261Y-65111309D01*
X52068023Y-65063690D01*
X51877547Y-65016071D01*
X51782309Y-64968452D01*
X51734690Y-64920833D01*
X51687071Y-64825595D01*
X51687071Y-64730357D01*
X51734690Y-64635119D01*
X51782309Y-64587500D01*
X51877547Y-64539880D01*
X52115642Y-64539880D01*
X52258500Y-64587500D01*
X53258500Y-65444642D02*
X53210880Y-65492261D01*
X53068023Y-65539880D01*
X52972785Y-65539880D01*
X52829928Y-65492261D01*
X52734690Y-65397023D01*
X52687071Y-65301785D01*
X52639452Y-65111309D01*
X52639452Y-64968452D01*
X52687071Y-64777976D01*
X52734690Y-64682738D01*
X52829928Y-64587500D01*
X52972785Y-64539880D01*
X53068023Y-64539880D01*
X53210880Y-64587500D01*
X53258500Y-64635119D01*
X54163261Y-65539880D02*
X53687071Y-65539880D01*
X53687071Y-64539880D01*
D13*
X48708000Y-57531000D02*
X48708000Y-58801000D01*
X44898000Y-57531000D02*
X44898000Y-58801000D01*
X47561500Y-56197500D02*
X47558000Y-58801000D01*
X46228000Y-56201000D02*
X47561500Y-56197500D01*
X51358800Y-56197500D02*
X51368000Y-58801000D01*
X50038000Y-56201000D02*
X51358800Y-56197500D01*
D10*
X118781580Y-68915309D02*
X118781580Y-68296261D01*
X119162533Y-68629595D01*
X119162533Y-68486738D01*
X119210152Y-68391500D01*
X119257771Y-68343880D01*
X119353009Y-68296261D01*
X119591104Y-68296261D01*
X119686342Y-68343880D01*
X119733961Y-68391500D01*
X119781580Y-68486738D01*
X119781580Y-68772452D01*
X119733961Y-68867690D01*
X119686342Y-68915309D01*
X119114914Y-67962928D02*
X119781580Y-67724833D01*
X119114914Y-67486738D01*
X118781580Y-67201023D02*
X118781580Y-66581976D01*
X119162533Y-66915309D01*
X119162533Y-66772452D01*
X119210152Y-66677214D01*
X119257771Y-66629595D01*
X119353009Y-66581976D01*
X119591104Y-66581976D01*
X119686342Y-66629595D01*
X119733961Y-66677214D01*
X119781580Y-66772452D01*
X119781580Y-67058166D01*
X119733961Y-67153404D01*
X119686342Y-67201023D01*
X116292380Y-69077347D02*
X116292380Y-68505919D01*
X117292380Y-68791633D02*
X116292380Y-68791633D01*
X116292380Y-68267823D02*
X117292380Y-67601157D01*
X116292380Y-67601157D02*
X117292380Y-68267823D01*
X114752380Y-68499557D02*
X114276190Y-68832890D01*
X114752380Y-69070985D02*
X113752380Y-69070985D01*
X113752380Y-68690033D01*
X113800000Y-68594795D01*
X113847619Y-68547176D01*
X113942857Y-68499557D01*
X114085714Y-68499557D01*
X114180952Y-68547176D01*
X114228571Y-68594795D01*
X114276190Y-68690033D01*
X114276190Y-69070985D01*
X113752380Y-68166223D02*
X114752380Y-67499557D01*
X113752380Y-67499557D02*
X114752380Y-68166223D01*
X121369200Y-68575614D02*
X121321580Y-68670852D01*
X121321580Y-68813709D01*
X121369200Y-68956566D01*
X121464438Y-69051804D01*
X121559676Y-69099423D01*
X121750152Y-69147042D01*
X121893009Y-69147042D01*
X122083485Y-69099423D01*
X122178723Y-69051804D01*
X122273961Y-68956566D01*
X122321580Y-68813709D01*
X122321580Y-68718471D01*
X122273961Y-68575614D01*
X122226342Y-68527995D01*
X121893009Y-68527995D01*
X121893009Y-68718471D01*
X122321580Y-68099423D02*
X121321580Y-68099423D01*
X122321580Y-67527995D01*
X121321580Y-67527995D01*
X122321580Y-67051804D02*
X121321580Y-67051804D01*
X121321580Y-66813709D01*
X121369200Y-66670852D01*
X121464438Y-66575614D01*
X121559676Y-66527995D01*
X121750152Y-66480376D01*
X121893009Y-66480376D01*
X122083485Y-66527995D01*
X122178723Y-66575614D01*
X122273961Y-66670852D01*
X122321580Y-66813709D01*
X122321580Y-67051804D01*
D12*
X130750000Y-42000000D02*
X130750000Y-70500000D01*
X124500000Y-42000000D02*
X130750000Y-42000000D01*
X124500000Y-70500000D02*
X124500000Y-42000000D01*
X130750000Y-70500000D02*
X124500000Y-70500000D01*
D13*
X50164800Y-30855900D02*
X51308000Y-31940500D01*
D11*
X71374571Y-104310571D02*
X71374571Y-102810571D01*
X71374571Y-103524857D02*
X72231714Y-103524857D01*
X72231714Y-104310571D02*
X72231714Y-102810571D01*
X73517428Y-104239142D02*
X73374571Y-104310571D01*
X73088857Y-104310571D01*
X72946000Y-104239142D01*
X72874571Y-104096285D01*
X72874571Y-103524857D01*
X72946000Y-103382000D01*
X73088857Y-103310571D01*
X73374571Y-103310571D01*
X73517428Y-103382000D01*
X73588857Y-103524857D01*
X73588857Y-103667714D01*
X72874571Y-103810571D01*
X74874571Y-104310571D02*
X74874571Y-103524857D01*
X74803142Y-103382000D01*
X74660285Y-103310571D01*
X74374571Y-103310571D01*
X74231714Y-103382000D01*
X74874571Y-104239142D02*
X74731714Y-104310571D01*
X74374571Y-104310571D01*
X74231714Y-104239142D01*
X74160285Y-104096285D01*
X74160285Y-103953428D01*
X74231714Y-103810571D01*
X74374571Y-103739142D01*
X74731714Y-103739142D01*
X74874571Y-103667714D01*
X75374571Y-103310571D02*
X75946000Y-103310571D01*
X75588857Y-102810571D02*
X75588857Y-104096285D01*
X75660285Y-104239142D01*
X75803142Y-104310571D01*
X75946000Y-104310571D01*
X77017428Y-104239142D02*
X76874571Y-104310571D01*
X76588857Y-104310571D01*
X76446000Y-104239142D01*
X76374571Y-104096285D01*
X76374571Y-103524857D01*
X76446000Y-103382000D01*
X76588857Y-103310571D01*
X76874571Y-103310571D01*
X77017428Y-103382000D01*
X77088857Y-103524857D01*
X77088857Y-103667714D01*
X76374571Y-103810571D01*
X77731714Y-104310571D02*
X77731714Y-103310571D01*
X77731714Y-103596285D02*
X77803142Y-103453428D01*
X77874571Y-103382000D01*
X78017428Y-103310571D01*
X78160285Y-103310571D01*
X79731714Y-102953428D02*
X79803142Y-102882000D01*
X79946000Y-102810571D01*
X80303142Y-102810571D01*
X80446000Y-102882000D01*
X80517428Y-102953428D01*
X80588857Y-103096285D01*
X80588857Y-103239142D01*
X80517428Y-103453428D01*
X79660285Y-104310571D01*
X80588857Y-104310571D01*
X122456285Y-88094428D02*
X122527714Y-88023000D01*
X122670571Y-87951571D01*
X123027714Y-87951571D01*
X123170571Y-88023000D01*
X123242000Y-88094428D01*
X123313428Y-88237285D01*
X123313428Y-88380142D01*
X123242000Y-88594428D01*
X122384857Y-89451571D01*
X123313428Y-89451571D01*
X123884857Y-88094428D02*
X123956285Y-88023000D01*
X124099142Y-87951571D01*
X124456285Y-87951571D01*
X124599142Y-88023000D01*
X124670571Y-88094428D01*
X124742000Y-88237285D01*
X124742000Y-88380142D01*
X124670571Y-88594428D01*
X123813428Y-89451571D01*
X124742000Y-89451571D01*
X125670571Y-87951571D02*
X125813428Y-87951571D01*
X125956285Y-88023000D01*
X126027714Y-88094428D01*
X126099142Y-88237285D01*
X126170571Y-88523000D01*
X126170571Y-88880142D01*
X126099142Y-89165857D01*
X126027714Y-89308714D01*
X125956285Y-89380142D01*
X125813428Y-89451571D01*
X125670571Y-89451571D01*
X125527714Y-89380142D01*
X125456285Y-89308714D01*
X125384857Y-89165857D01*
X125313428Y-88880142D01*
X125313428Y-88523000D01*
X125384857Y-88237285D01*
X125456285Y-88094428D01*
X125527714Y-88023000D01*
X125670571Y-87951571D01*
X126670571Y-88451571D02*
X127027714Y-89451571D01*
X127384857Y-88451571D01*
X129099142Y-89451571D02*
X129099142Y-88451571D01*
X129099142Y-87951571D02*
X129027714Y-88023000D01*
X129099142Y-88094428D01*
X129170571Y-88023000D01*
X129099142Y-87951571D01*
X129099142Y-88094428D01*
X129813428Y-88451571D02*
X129813428Y-89451571D01*
X129813428Y-88594428D02*
X129884857Y-88523000D01*
X130027714Y-88451571D01*
X130242000Y-88451571D01*
X130384857Y-88523000D01*
X130456285Y-88665857D01*
X130456285Y-89451571D01*
X89408571Y-104183571D02*
X89408571Y-102683571D01*
X89408571Y-103397857D02*
X90265714Y-103397857D01*
X90265714Y-104183571D02*
X90265714Y-102683571D01*
X91551428Y-104112142D02*
X91408571Y-104183571D01*
X91122857Y-104183571D01*
X90980000Y-104112142D01*
X90908571Y-103969285D01*
X90908571Y-103397857D01*
X90980000Y-103255000D01*
X91122857Y-103183571D01*
X91408571Y-103183571D01*
X91551428Y-103255000D01*
X91622857Y-103397857D01*
X91622857Y-103540714D01*
X90908571Y-103683571D01*
X92908571Y-104183571D02*
X92908571Y-103397857D01*
X92837142Y-103255000D01*
X92694285Y-103183571D01*
X92408571Y-103183571D01*
X92265714Y-103255000D01*
X92908571Y-104112142D02*
X92765714Y-104183571D01*
X92408571Y-104183571D01*
X92265714Y-104112142D01*
X92194285Y-103969285D01*
X92194285Y-103826428D01*
X92265714Y-103683571D01*
X92408571Y-103612142D01*
X92765714Y-103612142D01*
X92908571Y-103540714D01*
X93408571Y-103183571D02*
X93980000Y-103183571D01*
X93622857Y-102683571D02*
X93622857Y-103969285D01*
X93694285Y-104112142D01*
X93837142Y-104183571D01*
X93980000Y-104183571D01*
X95051428Y-104112142D02*
X94908571Y-104183571D01*
X94622857Y-104183571D01*
X94480000Y-104112142D01*
X94408571Y-103969285D01*
X94408571Y-103397857D01*
X94480000Y-103255000D01*
X94622857Y-103183571D01*
X94908571Y-103183571D01*
X95051428Y-103255000D01*
X95122857Y-103397857D01*
X95122857Y-103540714D01*
X94408571Y-103683571D01*
X95765714Y-104183571D02*
X95765714Y-103183571D01*
X95765714Y-103469285D02*
X95837142Y-103326428D01*
X95908571Y-103255000D01*
X96051428Y-103183571D01*
X96194285Y-103183571D01*
X98622857Y-104183571D02*
X97765714Y-104183571D01*
X98194285Y-104183571D02*
X98194285Y-102683571D01*
X98051428Y-102897857D01*
X97908571Y-103040714D01*
X97765714Y-103112142D01*
X108835428Y-104183571D02*
X108121142Y-104183571D01*
X108121142Y-102683571D01*
X109978285Y-104183571D02*
X109978285Y-103397857D01*
X109906857Y-103255000D01*
X109764000Y-103183571D01*
X109478285Y-103183571D01*
X109335428Y-103255000D01*
X109978285Y-104112142D02*
X109835428Y-104183571D01*
X109478285Y-104183571D01*
X109335428Y-104112142D01*
X109264000Y-103969285D01*
X109264000Y-103826428D01*
X109335428Y-103683571D01*
X109478285Y-103612142D01*
X109835428Y-103612142D01*
X109978285Y-103540714D01*
X110692571Y-104183571D02*
X110692571Y-103183571D01*
X110692571Y-103326428D02*
X110764000Y-103255000D01*
X110906857Y-103183571D01*
X111121142Y-103183571D01*
X111264000Y-103255000D01*
X111335428Y-103397857D01*
X111335428Y-104183571D01*
X111335428Y-103397857D02*
X111406857Y-103255000D01*
X111549714Y-103183571D01*
X111764000Y-103183571D01*
X111906857Y-103255000D01*
X111978285Y-103397857D01*
X111978285Y-104183571D01*
X112692571Y-103183571D02*
X112692571Y-104683571D01*
X112692571Y-103255000D02*
X112835428Y-103183571D01*
X113121142Y-103183571D01*
X113264000Y-103255000D01*
X113335428Y-103326428D01*
X113406857Y-103469285D01*
X113406857Y-103897857D01*
X113335428Y-104040714D01*
X113264000Y-104112142D01*
X113121142Y-104183571D01*
X112835428Y-104183571D01*
X112692571Y-104112142D01*
X115978285Y-104183571D02*
X115121142Y-104183571D01*
X115549714Y-104183571D02*
X115549714Y-102683571D01*
X115406857Y-102897857D01*
X115264000Y-103040714D01*
X115121142Y-103112142D01*
D10*
X70200204Y-33231200D02*
X70104966Y-33183580D01*
X69962109Y-33183580D01*
X69819252Y-33231200D01*
X69724014Y-33326438D01*
X69676395Y-33421676D01*
X69628776Y-33612152D01*
X69628776Y-33755009D01*
X69676395Y-33945485D01*
X69724014Y-34040723D01*
X69819252Y-34135961D01*
X69962109Y-34183580D01*
X70057347Y-34183580D01*
X70200204Y-34135961D01*
X70247823Y-34088342D01*
X70247823Y-33755009D01*
X70057347Y-33755009D01*
D14*
X45000000Y-113000000D02*
G75*
G02*
X41000000Y-109000000I0J4000000D01*
G01*
X131000000Y-109000000D02*
G75*
G02*
X127000000Y-113000000I-4000000J0D01*
G01*
X127000000Y-23000000D02*
G75*
G02*
X131000000Y-27000000I0J-4000000D01*
G01*
X41000000Y-27000000D02*
G75*
G02*
X45000000Y-23000000I4000000J0D01*
G01*
D11*
X108648428Y-26523761D02*
X107505571Y-26523761D01*
X108077000Y-26523761D02*
X108077000Y-24523761D01*
X107886523Y-24809476D01*
X107696047Y-24999952D01*
X107505571Y-25095190D01*
X97980571Y-24714238D02*
X98075809Y-24619000D01*
X98266285Y-24523761D01*
X98742476Y-24523761D01*
X98932952Y-24619000D01*
X99028190Y-24714238D01*
X99123428Y-24904714D01*
X99123428Y-25095190D01*
X99028190Y-25380904D01*
X97885333Y-26523761D01*
X99123428Y-26523761D01*
X88360333Y-24523761D02*
X89598428Y-24523761D01*
X88931761Y-25285666D01*
X89217476Y-25285666D01*
X89407952Y-25380904D01*
X89503190Y-25476142D01*
X89598428Y-25666619D01*
X89598428Y-26142809D01*
X89503190Y-26333285D01*
X89407952Y-26428523D01*
X89217476Y-26523761D01*
X88646047Y-26523761D01*
X88455571Y-26428523D01*
X88360333Y-26333285D01*
X79755952Y-25190428D02*
X79755952Y-26523761D01*
X79279761Y-24428523D02*
X78803571Y-25857095D01*
X80041666Y-25857095D01*
X70453190Y-24523761D02*
X69500809Y-24523761D01*
X69405571Y-25476142D01*
X69500809Y-25380904D01*
X69691285Y-25285666D01*
X70167476Y-25285666D01*
X70357952Y-25380904D01*
X70453190Y-25476142D01*
X70548428Y-25666619D01*
X70548428Y-26142809D01*
X70453190Y-26333285D01*
X70357952Y-26428523D01*
X70167476Y-26523761D01*
X69691285Y-26523761D01*
X69500809Y-26428523D01*
X69405571Y-26333285D01*
X60832952Y-24558761D02*
X60452000Y-24558761D01*
X60261523Y-24654000D01*
X60166285Y-24749238D01*
X59975809Y-25034952D01*
X59880571Y-25415904D01*
X59880571Y-26177809D01*
X59975809Y-26368285D01*
X60071047Y-26463523D01*
X60261523Y-26558761D01*
X60642476Y-26558761D01*
X60832952Y-26463523D01*
X60928190Y-26368285D01*
X61023428Y-26177809D01*
X61023428Y-25701619D01*
X60928190Y-25511142D01*
X60832952Y-25415904D01*
X60642476Y-25320666D01*
X60261523Y-25320666D01*
X60071047Y-25415904D01*
X59975809Y-25511142D01*
X59880571Y-25701619D01*
D10*
X60675204Y-33104200D02*
X60579966Y-33056580D01*
X60437109Y-33056580D01*
X60294252Y-33104200D01*
X60199014Y-33199438D01*
X60151395Y-33294676D01*
X60103776Y-33485152D01*
X60103776Y-33628009D01*
X60151395Y-33818485D01*
X60199014Y-33913723D01*
X60294252Y-34008961D01*
X60437109Y-34056580D01*
X60532347Y-34056580D01*
X60675204Y-34008961D01*
X60722823Y-33961342D01*
X60722823Y-33628009D01*
X60532347Y-33628009D01*
X59926000Y-28217880D02*
X59449809Y-28217880D01*
X59402190Y-28694071D01*
X59449809Y-28646452D01*
X59545047Y-28598833D01*
X59783142Y-28598833D01*
X59878380Y-28646452D01*
X59926000Y-28694071D01*
X59973619Y-28789309D01*
X59973619Y-29027404D01*
X59926000Y-29122642D01*
X59878380Y-29170261D01*
X59783142Y-29217880D01*
X59545047Y-29217880D01*
X59449809Y-29170261D01*
X59402190Y-29122642D01*
X60306952Y-28551214D02*
X60545047Y-29217880D01*
X60783142Y-28551214D01*
X60151395Y-31595961D02*
X60294252Y-31643580D01*
X60532347Y-31643580D01*
X60627585Y-31595961D01*
X60675204Y-31548342D01*
X60722823Y-31453104D01*
X60722823Y-31357866D01*
X60675204Y-31262628D01*
X60627585Y-31215009D01*
X60532347Y-31167390D01*
X60341871Y-31119771D01*
X60246633Y-31072152D01*
X60199014Y-31024533D01*
X60151395Y-30929295D01*
X60151395Y-30834057D01*
X60199014Y-30738819D01*
X60246633Y-30691200D01*
X60341871Y-30643580D01*
X60579966Y-30643580D01*
X60722823Y-30691200D01*
X69463700Y-28078180D02*
X68987509Y-28078180D01*
X68939890Y-28554371D01*
X68987509Y-28506752D01*
X69082747Y-28459133D01*
X69320842Y-28459133D01*
X69416080Y-28506752D01*
X69463700Y-28554371D01*
X69511319Y-28649609D01*
X69511319Y-28887704D01*
X69463700Y-28982942D01*
X69416080Y-29030561D01*
X69320842Y-29078180D01*
X69082747Y-29078180D01*
X68987509Y-29030561D01*
X68939890Y-28982942D01*
X69844652Y-28411514D02*
X70082747Y-29078180D01*
X70320842Y-28411514D01*
X69701795Y-31570561D02*
X69844652Y-31618180D01*
X70082747Y-31618180D01*
X70177985Y-31570561D01*
X70225604Y-31522942D01*
X70273223Y-31427704D01*
X70273223Y-31332466D01*
X70225604Y-31237228D01*
X70177985Y-31189609D01*
X70082747Y-31141990D01*
X69892271Y-31094371D01*
X69797033Y-31046752D01*
X69749414Y-30999133D01*
X69701795Y-30903895D01*
X69701795Y-30808657D01*
X69749414Y-30713419D01*
X69797033Y-30665800D01*
X69892271Y-30618180D01*
X70130366Y-30618180D01*
X70273223Y-30665800D01*
X79750604Y-33078800D02*
X79655366Y-33031180D01*
X79512509Y-33031180D01*
X79369652Y-33078800D01*
X79274414Y-33174038D01*
X79226795Y-33269276D01*
X79179176Y-33459752D01*
X79179176Y-33602609D01*
X79226795Y-33793085D01*
X79274414Y-33888323D01*
X79369652Y-33983561D01*
X79512509Y-34031180D01*
X79607747Y-34031180D01*
X79750604Y-33983561D01*
X79798223Y-33935942D01*
X79798223Y-33602609D01*
X79607747Y-33602609D01*
X78988700Y-28078180D02*
X78512509Y-28078180D01*
X78464890Y-28554371D01*
X78512509Y-28506752D01*
X78607747Y-28459133D01*
X78845842Y-28459133D01*
X78941080Y-28506752D01*
X78988700Y-28554371D01*
X79036319Y-28649609D01*
X79036319Y-28887704D01*
X78988700Y-28982942D01*
X78941080Y-29030561D01*
X78845842Y-29078180D01*
X78607747Y-29078180D01*
X78512509Y-29030561D01*
X78464890Y-28982942D01*
X79369652Y-28411514D02*
X79607747Y-29078180D01*
X79845842Y-28411514D01*
X79226795Y-31570561D02*
X79369652Y-31618180D01*
X79607747Y-31618180D01*
X79702985Y-31570561D01*
X79750604Y-31522942D01*
X79798223Y-31427704D01*
X79798223Y-31332466D01*
X79750604Y-31237228D01*
X79702985Y-31189609D01*
X79607747Y-31141990D01*
X79417271Y-31094371D01*
X79322033Y-31046752D01*
X79274414Y-30999133D01*
X79226795Y-30903895D01*
X79226795Y-30808657D01*
X79274414Y-30713419D01*
X79322033Y-30665800D01*
X79417271Y-30618180D01*
X79655366Y-30618180D01*
X79798223Y-30665800D01*
X88802595Y-31595961D02*
X88945452Y-31643580D01*
X89183547Y-31643580D01*
X89278785Y-31595961D01*
X89326404Y-31548342D01*
X89374023Y-31453104D01*
X89374023Y-31357866D01*
X89326404Y-31262628D01*
X89278785Y-31215009D01*
X89183547Y-31167390D01*
X88993071Y-31119771D01*
X88897833Y-31072152D01*
X88850214Y-31024533D01*
X88802595Y-30929295D01*
X88802595Y-30834057D01*
X88850214Y-30738819D01*
X88897833Y-30691200D01*
X88993071Y-30643580D01*
X89231166Y-30643580D01*
X89374023Y-30691200D01*
X107639900Y-28128980D02*
X107163709Y-28128980D01*
X107116090Y-28605171D01*
X107163709Y-28557552D01*
X107258947Y-28509933D01*
X107497042Y-28509933D01*
X107592280Y-28557552D01*
X107639900Y-28605171D01*
X107687519Y-28700409D01*
X107687519Y-28938504D01*
X107639900Y-29033742D01*
X107592280Y-29081361D01*
X107497042Y-29128980D01*
X107258947Y-29128980D01*
X107163709Y-29081361D01*
X107116090Y-29033742D01*
X108020852Y-28462314D02*
X108258947Y-29128980D01*
X108497042Y-28462314D01*
X107877995Y-31748361D02*
X108020852Y-31795980D01*
X108258947Y-31795980D01*
X108354185Y-31748361D01*
X108401804Y-31700742D01*
X108449423Y-31605504D01*
X108449423Y-31510266D01*
X108401804Y-31415028D01*
X108354185Y-31367409D01*
X108258947Y-31319790D01*
X108068471Y-31272171D01*
X107973233Y-31224552D01*
X107925614Y-31176933D01*
X107877995Y-31081695D01*
X107877995Y-30986457D01*
X107925614Y-30891219D01*
X107973233Y-30843600D01*
X108068471Y-30795980D01*
X108306566Y-30795980D01*
X108449423Y-30843600D01*
X98089500Y-28154380D02*
X97613309Y-28154380D01*
X97565690Y-28630571D01*
X97613309Y-28582952D01*
X97708547Y-28535333D01*
X97946642Y-28535333D01*
X98041880Y-28582952D01*
X98089500Y-28630571D01*
X98137119Y-28725809D01*
X98137119Y-28963904D01*
X98089500Y-29059142D01*
X98041880Y-29106761D01*
X97946642Y-29154380D01*
X97708547Y-29154380D01*
X97613309Y-29106761D01*
X97565690Y-29059142D01*
X98470452Y-28487714D02*
X98708547Y-29154380D01*
X98946642Y-28487714D01*
X98327595Y-31773761D02*
X98470452Y-31821380D01*
X98708547Y-31821380D01*
X98803785Y-31773761D01*
X98851404Y-31726142D01*
X98899023Y-31630904D01*
X98899023Y-31535666D01*
X98851404Y-31440428D01*
X98803785Y-31392809D01*
X98708547Y-31345190D01*
X98518071Y-31297571D01*
X98422833Y-31249952D01*
X98375214Y-31202333D01*
X98327595Y-31107095D01*
X98327595Y-31011857D01*
X98375214Y-30916619D01*
X98422833Y-30869000D01*
X98518071Y-30821380D01*
X98756166Y-30821380D01*
X98899023Y-30869000D01*
X88564500Y-28103580D02*
X88088309Y-28103580D01*
X88040690Y-28579771D01*
X88088309Y-28532152D01*
X88183547Y-28484533D01*
X88421642Y-28484533D01*
X88516880Y-28532152D01*
X88564500Y-28579771D01*
X88612119Y-28675009D01*
X88612119Y-28913104D01*
X88564500Y-29008342D01*
X88516880Y-29055961D01*
X88421642Y-29103580D01*
X88183547Y-29103580D01*
X88088309Y-29055961D01*
X88040690Y-29008342D01*
X88945452Y-28436914D02*
X89183547Y-29103580D01*
X89421642Y-28436914D01*
X108401804Y-33256600D02*
X108306566Y-33208980D01*
X108163709Y-33208980D01*
X108020852Y-33256600D01*
X107925614Y-33351838D01*
X107877995Y-33447076D01*
X107830376Y-33637552D01*
X107830376Y-33780409D01*
X107877995Y-33970885D01*
X107925614Y-34066123D01*
X108020852Y-34161361D01*
X108163709Y-34208980D01*
X108258947Y-34208980D01*
X108401804Y-34161361D01*
X108449423Y-34113742D01*
X108449423Y-33780409D01*
X108258947Y-33780409D01*
X98851404Y-33282000D02*
X98756166Y-33234380D01*
X98613309Y-33234380D01*
X98470452Y-33282000D01*
X98375214Y-33377238D01*
X98327595Y-33472476D01*
X98279976Y-33662952D01*
X98279976Y-33805809D01*
X98327595Y-33996285D01*
X98375214Y-34091523D01*
X98470452Y-34186761D01*
X98613309Y-34234380D01*
X98708547Y-34234380D01*
X98851404Y-34186761D01*
X98899023Y-34139142D01*
X98899023Y-33805809D01*
X98708547Y-33805809D01*
X89326404Y-33104200D02*
X89231166Y-33056580D01*
X89088309Y-33056580D01*
X88945452Y-33104200D01*
X88850214Y-33199438D01*
X88802595Y-33294676D01*
X88754976Y-33485152D01*
X88754976Y-33628009D01*
X88802595Y-33818485D01*
X88850214Y-33913723D01*
X88945452Y-34008961D01*
X89088309Y-34056580D01*
X89183547Y-34056580D01*
X89326404Y-34008961D01*
X89374023Y-33961342D01*
X89374023Y-33628009D01*
X89183547Y-33628009D01*
X53744880Y-96059047D02*
X54459166Y-96059047D01*
X54602023Y-96106666D01*
X54697261Y-96201904D01*
X54744880Y-96344761D01*
X54744880Y-96440000D01*
X54744880Y-95106666D02*
X54744880Y-95582857D01*
X53744880Y-95582857D01*
X54649642Y-94201904D02*
X54697261Y-94249523D01*
X54744880Y-94392380D01*
X54744880Y-94487619D01*
X54697261Y-94630476D01*
X54602023Y-94725714D01*
X54506785Y-94773333D01*
X54316309Y-94820952D01*
X54173452Y-94820952D01*
X53982976Y-94773333D01*
X53887738Y-94725714D01*
X53792500Y-94630476D01*
X53744880Y-94487619D01*
X53744880Y-94392380D01*
X53792500Y-94249523D01*
X53840119Y-94201904D01*
X53744880Y-93487619D02*
X54459166Y-93487619D01*
X54602023Y-93535238D01*
X54697261Y-93630476D01*
X54744880Y-93773333D01*
X54744880Y-93868571D01*
X54744880Y-92535238D02*
X54744880Y-93011428D01*
X53744880Y-93011428D01*
X54649642Y-91630476D02*
X54697261Y-91678095D01*
X54744880Y-91820952D01*
X54744880Y-91916190D01*
X54697261Y-92059047D01*
X54602023Y-92154285D01*
X54506785Y-92201904D01*
X54316309Y-92249523D01*
X54173452Y-92249523D01*
X53982976Y-92201904D01*
X53887738Y-92154285D01*
X53792500Y-92059047D01*
X53744880Y-91916190D01*
X53744880Y-91820952D01*
X53792500Y-91678095D01*
X53840119Y-91630476D01*
X53744880Y-90916190D02*
X54459166Y-90916190D01*
X54602023Y-90963809D01*
X54697261Y-91059047D01*
X54744880Y-91201904D01*
X54744880Y-91297142D01*
X54744880Y-89963809D02*
X54744880Y-90440000D01*
X53744880Y-90440000D01*
X54649642Y-89059047D02*
X54697261Y-89106666D01*
X54744880Y-89249523D01*
X54744880Y-89344761D01*
X54697261Y-89487619D01*
X54602023Y-89582857D01*
X54506785Y-89630476D01*
X54316309Y-89678095D01*
X54173452Y-89678095D01*
X53982976Y-89630476D01*
X53887738Y-89582857D01*
X53792500Y-89487619D01*
X53744880Y-89344761D01*
X53744880Y-89249523D01*
X53792500Y-89106666D01*
X53840119Y-89059047D01*
X53744880Y-88344761D02*
X54459166Y-88344761D01*
X54602023Y-88392380D01*
X54697261Y-88487619D01*
X54744880Y-88630476D01*
X54744880Y-88725714D01*
X54744880Y-87392380D02*
X54744880Y-87868571D01*
X53744880Y-87868571D01*
X54649642Y-86487619D02*
X54697261Y-86535238D01*
X54744880Y-86678095D01*
X54744880Y-86773333D01*
X54697261Y-86916190D01*
X54602023Y-87011428D01*
X54506785Y-87059047D01*
X54316309Y-87106666D01*
X54173452Y-87106666D01*
X53982976Y-87059047D01*
X53887738Y-87011428D01*
X53792500Y-86916190D01*
X53744880Y-86773333D01*
X53744880Y-86678095D01*
X53792500Y-86535238D01*
X53840119Y-86487619D01*
D14*
X127000000Y-23000000D02*
X45000000Y-23000000D01*
X131000000Y-109000000D02*
X131000000Y-27000000D01*
X45000000Y-113000000D02*
X127000000Y-113000000D01*
X41000000Y-27000000D02*
X41000000Y-109000000D01*
D11*
X44036371Y-65798971D02*
X43036371Y-65798971D01*
X42536371Y-65798971D02*
X42607800Y-65870400D01*
X42679228Y-65798971D01*
X42607800Y-65727542D01*
X42536371Y-65798971D01*
X42679228Y-65798971D01*
X42679228Y-65156114D02*
X42607800Y-65084685D01*
X42536371Y-64941828D01*
X42536371Y-64584685D01*
X42607800Y-64441828D01*
X42679228Y-64370400D01*
X42822085Y-64298971D01*
X42964942Y-64298971D01*
X43179228Y-64370400D01*
X44036371Y-65227542D01*
X44036371Y-64298971D01*
X43964942Y-63013257D02*
X44036371Y-63156114D01*
X44036371Y-63441828D01*
X43964942Y-63584685D01*
X43893514Y-63656114D01*
X43750657Y-63727542D01*
X43322085Y-63727542D01*
X43179228Y-63656114D01*
X43107800Y-63584685D01*
X43036371Y-63441828D01*
X43036371Y-63156114D01*
X43107800Y-63013257D01*
X43250657Y-60727542D02*
X43322085Y-60513257D01*
X43393514Y-60441828D01*
X43536371Y-60370400D01*
X43750657Y-60370400D01*
X43893514Y-60441828D01*
X43964942Y-60513257D01*
X44036371Y-60656114D01*
X44036371Y-61227542D01*
X42536371Y-61227542D01*
X42536371Y-60727542D01*
X42607800Y-60584685D01*
X42679228Y-60513257D01*
X42822085Y-60441828D01*
X42964942Y-60441828D01*
X43107800Y-60513257D01*
X43179228Y-60584685D01*
X43250657Y-60727542D01*
X43250657Y-61227542D01*
X42536371Y-59727542D02*
X43750657Y-59727542D01*
X43893514Y-59656114D01*
X43964942Y-59584685D01*
X44036371Y-59441828D01*
X44036371Y-59156114D01*
X43964942Y-59013257D01*
X43893514Y-58941828D01*
X43750657Y-58870400D01*
X42536371Y-58870400D01*
X43964942Y-58227542D02*
X44036371Y-58013257D01*
X44036371Y-57656114D01*
X43964942Y-57513257D01*
X43893514Y-57441828D01*
X43750657Y-57370400D01*
X43607800Y-57370400D01*
X43464942Y-57441828D01*
X43393514Y-57513257D01*
X43322085Y-57656114D01*
X43250657Y-57941828D01*
X43179228Y-58084685D01*
X43107800Y-58156114D01*
X42964942Y-58227542D01*
X42822085Y-58227542D01*
X42679228Y-58156114D01*
X42607800Y-58084685D01*
X42536371Y-57941828D01*
X42536371Y-57584685D01*
X42607800Y-57370400D01*
D10*
X51512452Y-44981761D02*
X51655309Y-45029380D01*
X51893404Y-45029380D01*
X51988642Y-44981761D01*
X52036261Y-44934142D01*
X52083880Y-44838904D01*
X52083880Y-44743666D01*
X52036261Y-44648428D01*
X51988642Y-44600809D01*
X51893404Y-44553190D01*
X51702928Y-44505571D01*
X51607690Y-44457952D01*
X51560071Y-44410333D01*
X51512452Y-44315095D01*
X51512452Y-44219857D01*
X51560071Y-44124619D01*
X51607690Y-44077000D01*
X51702928Y-44029380D01*
X51941023Y-44029380D01*
X52083880Y-44077000D01*
X52512452Y-45029380D02*
X52512452Y-44029380D01*
X52750547Y-44029380D01*
X52893404Y-44077000D01*
X52988642Y-44172238D01*
X53036261Y-44267476D01*
X53083880Y-44457952D01*
X53083880Y-44600809D01*
X53036261Y-44791285D01*
X52988642Y-44886523D01*
X52893404Y-44981761D01*
X52750547Y-45029380D01*
X52512452Y-45029380D01*
X53464833Y-44743666D02*
X53941023Y-44743666D01*
X53369595Y-45029380D02*
X53702928Y-44029380D01*
X54036261Y-45029380D01*
X51560071Y-42441761D02*
X51702928Y-42489380D01*
X51941023Y-42489380D01*
X52036261Y-42441761D01*
X52083880Y-42394142D01*
X52131500Y-42298904D01*
X52131500Y-42203666D01*
X52083880Y-42108428D01*
X52036261Y-42060809D01*
X51941023Y-42013190D01*
X51750547Y-41965571D01*
X51655309Y-41917952D01*
X51607690Y-41870333D01*
X51560071Y-41775095D01*
X51560071Y-41679857D01*
X51607690Y-41584619D01*
X51655309Y-41537000D01*
X51750547Y-41489380D01*
X51988642Y-41489380D01*
X52131500Y-41537000D01*
X53131500Y-42394142D02*
X53083880Y-42441761D01*
X52941023Y-42489380D01*
X52845785Y-42489380D01*
X52702928Y-42441761D01*
X52607690Y-42346523D01*
X52560071Y-42251285D01*
X52512452Y-42060809D01*
X52512452Y-41917952D01*
X52560071Y-41727476D01*
X52607690Y-41632238D01*
X52702928Y-41537000D01*
X52845785Y-41489380D01*
X52941023Y-41489380D01*
X53083880Y-41537000D01*
X53131500Y-41584619D01*
X54036261Y-42489380D02*
X53560071Y-42489380D01*
X53560071Y-41489380D01*
X51972785Y-49030000D02*
X51877547Y-48982380D01*
X51734690Y-48982380D01*
X51591833Y-49030000D01*
X51496595Y-49125238D01*
X51448976Y-49220476D01*
X51401357Y-49410952D01*
X51401357Y-49553809D01*
X51448976Y-49744285D01*
X51496595Y-49839523D01*
X51591833Y-49934761D01*
X51734690Y-49982380D01*
X51829928Y-49982380D01*
X51972785Y-49934761D01*
X52020404Y-49887142D01*
X52020404Y-49553809D01*
X51829928Y-49553809D01*
X52448976Y-49982380D02*
X52448976Y-48982380D01*
X53020404Y-49982380D01*
X53020404Y-48982380D01*
X53496595Y-49982380D02*
X53496595Y-48982380D01*
X53734690Y-48982380D01*
X53877547Y-49030000D01*
X53972785Y-49125238D01*
X54020404Y-49220476D01*
X54068023Y-49410952D01*
X54068023Y-49553809D01*
X54020404Y-49744285D01*
X53972785Y-49839523D01*
X53877547Y-49934761D01*
X53734690Y-49982380D01*
X53496595Y-49982380D01*
X51988500Y-46569380D02*
X51512309Y-46569380D01*
X51464690Y-47045571D01*
X51512309Y-46997952D01*
X51607547Y-46950333D01*
X51845642Y-46950333D01*
X51940880Y-46997952D01*
X51988500Y-47045571D01*
X52036119Y-47140809D01*
X52036119Y-47378904D01*
X51988500Y-47474142D01*
X51940880Y-47521761D01*
X51845642Y-47569380D01*
X51607547Y-47569380D01*
X51512309Y-47521761D01*
X51464690Y-47474142D01*
X52369452Y-46902714D02*
X52607547Y-47569380D01*
X52845642Y-46902714D01*
D11*
X43858571Y-46882714D02*
X43858571Y-47597000D01*
X42358571Y-47597000D01*
X43715714Y-45525571D02*
X43787142Y-45597000D01*
X43858571Y-45811285D01*
X43858571Y-45954142D01*
X43787142Y-46168428D01*
X43644285Y-46311285D01*
X43501428Y-46382714D01*
X43215714Y-46454142D01*
X43001428Y-46454142D01*
X42715714Y-46382714D01*
X42572857Y-46311285D01*
X42430000Y-46168428D01*
X42358571Y-45954142D01*
X42358571Y-45811285D01*
X42430000Y-45597000D01*
X42501428Y-45525571D01*
X43858571Y-44882714D02*
X42358571Y-44882714D01*
X42358571Y-44525571D01*
X42430000Y-44311285D01*
X42572857Y-44168428D01*
X42715714Y-44097000D01*
X43001428Y-44025571D01*
X43215714Y-44025571D01*
X43501428Y-44097000D01*
X43644285Y-44168428D01*
X43787142Y-44311285D01*
X43858571Y-44525571D01*
X43858571Y-44882714D01*
D13*
%TO.C,R17*%
X120096364Y-34387200D02*
X118642236Y-34387200D01*
X120096364Y-32567200D02*
X118642236Y-32567200D01*
%TO.C,R16*%
X82402764Y-80564400D02*
X80948636Y-80564400D01*
X82402764Y-78744400D02*
X80948636Y-78744400D01*
%TO.C,R15*%
X100371264Y-80666000D02*
X98917136Y-80666000D01*
X100371264Y-78846000D02*
X98917136Y-78846000D01*
%TO.C,R14*%
X118379864Y-80564400D02*
X116925736Y-80564400D01*
X118379864Y-78744400D02*
X116925736Y-78744400D01*
%TO.C,LED5*%
X127787200Y-32342200D02*
X123902200Y-32342200D01*
X123902200Y-32342200D02*
X123902200Y-34612200D01*
X123902200Y-34612200D02*
X127787200Y-34612200D01*
%TO.C,RESET_j1*%
X102523600Y-59038800D02*
X102523600Y-56378800D01*
X98653600Y-59038800D02*
X102523600Y-59038800D01*
X97323600Y-56378800D02*
X102523600Y-56378800D01*
X97323600Y-59038800D02*
X97323600Y-56378800D01*
X98653600Y-59038800D02*
X97323600Y-59038800D01*
X97323600Y-59038800D02*
X97323600Y-57708800D01*
%TO.C,R13*%
X99279064Y-51820400D02*
X97824936Y-51820400D01*
X99279064Y-53640400D02*
X97824936Y-53640400D01*
%TO.C,R10*%
X122322000Y-29429064D02*
X122322000Y-27974936D01*
X120502000Y-29429064D02*
X120502000Y-27974936D01*
%TO.C,Q4*%
X117112000Y-27056000D02*
X118572000Y-27056000D01*
X117112000Y-30216000D02*
X119272000Y-30216000D01*
X117112000Y-30216000D02*
X117112000Y-29286000D01*
X117112000Y-27056000D02*
X117112000Y-27986000D01*
%TO.C,UART*%
X107826500Y-69282000D02*
X107826500Y-71942000D01*
X121856500Y-69282000D02*
X107826500Y-69282000D01*
X123190000Y-71945500D02*
X107826500Y-71942000D01*
X123190000Y-69285500D02*
X123190000Y-71945500D01*
X121856500Y-69282000D02*
X123186500Y-69282000D01*
X123186500Y-69282000D02*
X123186500Y-70612000D01*
%TO.C,SW3*%
X46799500Y-72104167D02*
X45529500Y-72104167D01*
X45599500Y-70897500D02*
X45599500Y-72104167D01*
X45719500Y-70897500D02*
X45719500Y-72104167D01*
X45839500Y-70897500D02*
X45839500Y-72104167D01*
X45959500Y-70897500D02*
X45959500Y-72104167D01*
X46079500Y-70897500D02*
X46079500Y-72104167D01*
X46199500Y-70897500D02*
X46199500Y-72104167D01*
X46319500Y-70897500D02*
X46319500Y-72104167D01*
X46439500Y-70897500D02*
X46439500Y-72104167D01*
X46559500Y-70897500D02*
X46559500Y-72104167D01*
X46679500Y-70897500D02*
X46679500Y-72104167D01*
X46799500Y-74517500D02*
X46799500Y-70897500D01*
X45529500Y-74517500D02*
X46799500Y-74517500D01*
X45529500Y-70897500D02*
X45529500Y-74517500D01*
X46799500Y-70897500D02*
X45529500Y-70897500D01*
X48514500Y-69057500D02*
X47131500Y-69057500D01*
X48514500Y-69057500D02*
X48514500Y-70440500D01*
X45364500Y-76117500D02*
X44054500Y-76117500D01*
X48274500Y-76117500D02*
X46964500Y-76117500D01*
X45364500Y-69297500D02*
X44054500Y-69297500D01*
X48274500Y-69297500D02*
X46964500Y-69297500D01*
X44054500Y-69297500D02*
X44054500Y-76117500D01*
X48274500Y-69297500D02*
X48274500Y-76117500D01*
%TO.C,BT1*%
X57902500Y-77003000D02*
X57902500Y-80621000D01*
X56192500Y-77003000D02*
X57902500Y-77003000D01*
X62402500Y-83465700D02*
X62402500Y-99160300D01*
X56192500Y-105623000D02*
X57902500Y-105623000D01*
X57902500Y-102005000D02*
X57902500Y-105623000D01*
X50682500Y-105623000D02*
X50682500Y-102005000D01*
X52392500Y-105623000D02*
X50682500Y-105623000D01*
X46182500Y-99160300D02*
X46182500Y-95173000D01*
X48382500Y-92973000D02*
X46182500Y-95173000D01*
X48382500Y-92973000D02*
X48382500Y-89653000D01*
X48382500Y-89653000D02*
X46182500Y-87453000D01*
X46182500Y-87453000D02*
X46182500Y-83465700D01*
X50682500Y-80621000D02*
X50682500Y-77003000D01*
X52392500Y-77003000D02*
X50682500Y-77003000D01*
X62404289Y-83467630D02*
G75*
G03*
X57902500Y-80621000I-8111789J-7845370D01*
G01*
X46180711Y-99158370D02*
G75*
G03*
X50682500Y-102005000I8111789J7845370D01*
G01*
X62404289Y-99158370D02*
G75*
G02*
X57902500Y-102005000I-8111789J7845370D01*
G01*
X46180711Y-83467630D02*
G75*
G02*
X50682500Y-80621000I8111789J-7845370D01*
G01*
%TO.C,D4*%
X51044000Y-74102000D02*
X56729000Y-74102000D01*
X51044000Y-70932000D02*
X51044000Y-74102000D01*
X56729000Y-70932000D02*
X51044000Y-70932000D01*
%TO.C,D3*%
X73446000Y-81214000D02*
X79131000Y-81214000D01*
X79131000Y-81214000D02*
X79131000Y-78044000D01*
X79131000Y-78044000D02*
X73446000Y-78044000D01*
%TO.C,D2*%
X91429200Y-81214000D02*
X97114200Y-81214000D01*
X97114200Y-81214000D02*
X97114200Y-78044000D01*
X97114200Y-78044000D02*
X91429200Y-78044000D01*
%TO.C,D1*%
X109423000Y-81214000D02*
X115108000Y-81214000D01*
X115108000Y-81214000D02*
X115108000Y-78044000D01*
X115108000Y-78044000D02*
X109423000Y-78044000D01*
%TO.C,i2c2*%
X45446500Y-51163000D02*
X45446500Y-45613000D01*
X48396500Y-51163000D02*
X45446500Y-51163000D01*
X48396500Y-51913000D02*
X48396500Y-51163000D01*
X45446500Y-45613000D02*
X45446500Y-40063000D01*
X48396500Y-39313000D02*
X48396500Y-40063000D01*
X50646500Y-51913000D02*
X50646500Y-50113000D01*
X49896500Y-51913000D02*
X50646500Y-51913000D01*
X49896500Y-50113000D02*
X49896500Y-51913000D01*
X50646500Y-50113000D02*
X49896500Y-50113000D01*
X50646500Y-41113000D02*
X50646500Y-39313000D01*
X49896500Y-41113000D02*
X50646500Y-41113000D01*
X49896500Y-39313000D02*
X49896500Y-41113000D01*
X50646500Y-39313000D02*
X49896500Y-39313000D01*
X50646500Y-48613000D02*
X50646500Y-42613000D01*
X49896500Y-48613000D02*
X50646500Y-48613000D01*
X49896500Y-42613000D02*
X49896500Y-48613000D01*
X50646500Y-42613000D02*
X49896500Y-42613000D01*
X50656500Y-51923000D02*
X50656500Y-39303000D01*
X44686500Y-51923000D02*
X50656500Y-51923000D01*
X44686500Y-39303000D02*
X44686500Y-51923000D01*
X50656500Y-39303000D02*
X44686500Y-39303000D01*
X48396500Y-40063000D02*
X45446500Y-40063000D01*
%TO.C,SENS1*%
X114982000Y-26105000D02*
X109012000Y-26105000D01*
X109012000Y-26105000D02*
X109012000Y-36225000D01*
X109012000Y-36225000D02*
X114982000Y-36225000D01*
X114982000Y-36225000D02*
X114982000Y-26105000D01*
X114972000Y-29415000D02*
X114222000Y-29415000D01*
X114222000Y-29415000D02*
X114222000Y-32915000D01*
X114222000Y-32915000D02*
X114972000Y-32915000D01*
X114972000Y-32915000D02*
X114972000Y-29415000D01*
X114972000Y-26115000D02*
X114222000Y-26115000D01*
X114222000Y-26115000D02*
X114222000Y-27915000D01*
X114222000Y-27915000D02*
X114972000Y-27915000D01*
X114972000Y-27915000D02*
X114972000Y-26115000D01*
X114972000Y-34415000D02*
X114222000Y-34415000D01*
X114222000Y-34415000D02*
X114222000Y-36215000D01*
X114222000Y-36215000D02*
X114972000Y-36215000D01*
X114972000Y-36215000D02*
X114972000Y-34415000D01*
X112722000Y-26115000D02*
X112722000Y-26865000D01*
X109772000Y-31165000D02*
X109772000Y-26865000D01*
X112722000Y-36215000D02*
X112722000Y-35465000D01*
X112722000Y-35465000D02*
X109772000Y-35465000D01*
X109772000Y-35465000D02*
X109772000Y-31165000D01*
X112722000Y-26865000D02*
X109772000Y-26865000D01*
%TO.C,SENS3*%
X95932000Y-26105000D02*
X89962000Y-26105000D01*
X89962000Y-26105000D02*
X89962000Y-36225000D01*
X89962000Y-36225000D02*
X95932000Y-36225000D01*
X95932000Y-36225000D02*
X95932000Y-26105000D01*
X95922000Y-29415000D02*
X95172000Y-29415000D01*
X95172000Y-29415000D02*
X95172000Y-32915000D01*
X95172000Y-32915000D02*
X95922000Y-32915000D01*
X95922000Y-32915000D02*
X95922000Y-29415000D01*
X95922000Y-26115000D02*
X95172000Y-26115000D01*
X95172000Y-26115000D02*
X95172000Y-27915000D01*
X95172000Y-27915000D02*
X95922000Y-27915000D01*
X95922000Y-27915000D02*
X95922000Y-26115000D01*
X95922000Y-34415000D02*
X95172000Y-34415000D01*
X95172000Y-34415000D02*
X95172000Y-36215000D01*
X95172000Y-36215000D02*
X95922000Y-36215000D01*
X95922000Y-36215000D02*
X95922000Y-34415000D01*
X93672000Y-26115000D02*
X93672000Y-26865000D01*
X90722000Y-31165000D02*
X90722000Y-26867100D01*
X93672000Y-36215000D02*
X93672000Y-35465000D01*
X93672000Y-35465000D02*
X90722000Y-35465000D01*
X90722000Y-35465000D02*
X90722000Y-31165000D01*
X93672000Y-26867100D02*
X90722000Y-26867100D01*
%TO.C,SENS2*%
X105457000Y-26105000D02*
X99487000Y-26105000D01*
X99487000Y-26105000D02*
X99487000Y-36225000D01*
X99487000Y-36225000D02*
X105457000Y-36225000D01*
X105457000Y-36225000D02*
X105457000Y-26105000D01*
X105447000Y-29415000D02*
X104697000Y-29415000D01*
X104697000Y-29415000D02*
X104697000Y-32915000D01*
X104697000Y-32915000D02*
X105447000Y-32915000D01*
X105447000Y-32915000D02*
X105447000Y-29415000D01*
X105447000Y-26115000D02*
X104697000Y-26115000D01*
X104697000Y-26115000D02*
X104697000Y-27915000D01*
X104697000Y-27915000D02*
X105447000Y-27915000D01*
X105447000Y-27915000D02*
X105447000Y-26115000D01*
X105447000Y-34415000D02*
X104697000Y-34415000D01*
X104697000Y-34415000D02*
X104697000Y-36215000D01*
X104697000Y-36215000D02*
X105447000Y-36215000D01*
X105447000Y-36215000D02*
X105447000Y-34415000D01*
X103197000Y-26115000D02*
X103197000Y-26865000D01*
X100247000Y-31165000D02*
X100247000Y-26867100D01*
X103197000Y-36215000D02*
X103197000Y-35465000D01*
X103197000Y-35465000D02*
X100247000Y-35465000D01*
X100247000Y-35465000D02*
X100247000Y-31165000D01*
X103197000Y-26867100D02*
X100247000Y-26867100D01*
%TO.C,SENS4*%
X86407000Y-26105000D02*
X80437000Y-26105000D01*
X80437000Y-26105000D02*
X80437000Y-36225000D01*
X80437000Y-36225000D02*
X86407000Y-36225000D01*
X86407000Y-36225000D02*
X86407000Y-26105000D01*
X86397000Y-29415000D02*
X85647000Y-29415000D01*
X85647000Y-29415000D02*
X85647000Y-32915000D01*
X85647000Y-32915000D02*
X86397000Y-32915000D01*
X86397000Y-32915000D02*
X86397000Y-29415000D01*
X86397000Y-26115000D02*
X85647000Y-26115000D01*
X85647000Y-26115000D02*
X85647000Y-27915000D01*
X85647000Y-27915000D02*
X86397000Y-27915000D01*
X86397000Y-27915000D02*
X86397000Y-26115000D01*
X86397000Y-34415000D02*
X85647000Y-34415000D01*
X85647000Y-34415000D02*
X85647000Y-36215000D01*
X85647000Y-36215000D02*
X86397000Y-36215000D01*
X86397000Y-36215000D02*
X86397000Y-34415000D01*
X84147000Y-26115000D02*
X84147000Y-26865000D01*
X81197000Y-31165000D02*
X81197000Y-26867100D01*
X84147000Y-36215000D02*
X84147000Y-35465000D01*
X84147000Y-35465000D02*
X81197000Y-35465000D01*
X81197000Y-35465000D02*
X81197000Y-31165000D01*
X84147000Y-26867100D02*
X81197000Y-26867100D01*
%TO.C,SENS5*%
X76882000Y-26105000D02*
X70912000Y-26105000D01*
X70912000Y-26105000D02*
X70912000Y-36225000D01*
X70912000Y-36225000D02*
X76882000Y-36225000D01*
X76882000Y-36225000D02*
X76882000Y-26105000D01*
X76872000Y-29415000D02*
X76122000Y-29415000D01*
X76122000Y-29415000D02*
X76122000Y-32915000D01*
X76122000Y-32915000D02*
X76872000Y-32915000D01*
X76872000Y-32915000D02*
X76872000Y-29415000D01*
X76872000Y-26115000D02*
X76122000Y-26115000D01*
X76122000Y-26115000D02*
X76122000Y-27915000D01*
X76122000Y-27915000D02*
X76872000Y-27915000D01*
X76872000Y-27915000D02*
X76872000Y-26115000D01*
X76872000Y-34415000D02*
X76122000Y-34415000D01*
X76122000Y-34415000D02*
X76122000Y-36215000D01*
X76122000Y-36215000D02*
X76872000Y-36215000D01*
X76872000Y-36215000D02*
X76872000Y-34415000D01*
X74622000Y-26115000D02*
X74622000Y-26865000D01*
X71672000Y-31165000D02*
X71672000Y-26861600D01*
X74622000Y-36215000D02*
X74622000Y-35465000D01*
X74622000Y-35465000D02*
X71672000Y-35465000D01*
X71672000Y-35465000D02*
X71672000Y-31165000D01*
X71666100Y-26861600D02*
X74625200Y-26861600D01*
%TO.C,S4*%
X129540000Y-75565000D02*
X129540000Y-85725000D01*
X130810000Y-75565000D02*
X123190000Y-75565000D01*
X123190000Y-75565000D02*
X123190000Y-85725000D01*
X123190000Y-85725000D02*
X130810000Y-85725000D01*
X130810000Y-85725000D02*
X130810000Y-75565000D01*
%TO.C,SENS6*%
X67357000Y-26105000D02*
X61387000Y-26105000D01*
X61387000Y-26105000D02*
X61387000Y-36225000D01*
X61387000Y-36225000D02*
X67357000Y-36225000D01*
X67357000Y-36225000D02*
X67357000Y-26105000D01*
X67347000Y-29415000D02*
X66597000Y-29415000D01*
X66597000Y-29415000D02*
X66597000Y-32915000D01*
X66597000Y-32915000D02*
X67347000Y-32915000D01*
X67347000Y-32915000D02*
X67347000Y-29415000D01*
X67347000Y-26115000D02*
X66597000Y-26115000D01*
X66597000Y-26115000D02*
X66597000Y-27915000D01*
X66597000Y-27915000D02*
X67347000Y-27915000D01*
X67347000Y-27915000D02*
X67347000Y-26115000D01*
X67347000Y-34415000D02*
X66597000Y-34415000D01*
X66597000Y-34415000D02*
X66597000Y-36215000D01*
X66597000Y-36215000D02*
X67347000Y-36215000D01*
X67347000Y-36215000D02*
X67347000Y-34415000D01*
X65097000Y-26115000D02*
X65097000Y-26865000D01*
X62147000Y-31165000D02*
X62147000Y-26867100D01*
X65097000Y-36215000D02*
X65097000Y-35465000D01*
X65097000Y-35465000D02*
X62147000Y-35465000D01*
X62147000Y-35465000D02*
X62147000Y-31165000D01*
X65097000Y-26867100D02*
X62147000Y-26867100D01*
%TO.C,U3*%
X109761500Y-37992000D02*
X109761500Y-39252000D01*
X109761500Y-44812000D02*
X109761500Y-43552000D01*
X113521500Y-37992000D02*
X109761500Y-37992000D01*
X115771500Y-44812000D02*
X109761500Y-44812000D01*
%TO.C,Q2*%
X92654000Y-76477400D02*
X93584000Y-76477400D01*
X95814000Y-76477400D02*
X94884000Y-76477400D01*
X95814000Y-76477400D02*
X95814000Y-74317400D01*
X92654000Y-76477400D02*
X92654000Y-75017400D01*
%TO.C,Q1*%
X110497500Y-76515500D02*
X111427500Y-76515500D01*
X113657500Y-76515500D02*
X112727500Y-76515500D01*
X113657500Y-76515500D02*
X113657500Y-74355500D01*
X110497500Y-76515500D02*
X110497500Y-75055500D01*
%TO.C,Q3*%
X74416800Y-76436000D02*
X74416800Y-74976000D01*
X77576800Y-76436000D02*
X77576800Y-74276000D01*
X77576800Y-76436000D02*
X76646800Y-76436000D01*
X74416800Y-76436000D02*
X75346800Y-76436000D01*
%TO.C,U1*%
X105715000Y-47125000D02*
X104935000Y-47125000D01*
X104935000Y-47125000D02*
X104935000Y-48125000D01*
X105715000Y-65365000D02*
X104935000Y-65365000D01*
X104935000Y-65365000D02*
X104935000Y-64365000D01*
%TO.C,LED3*%
X80134200Y-77030200D02*
X84019200Y-77030200D01*
X84019200Y-77030200D02*
X84019200Y-74760200D01*
X84019200Y-74760200D02*
X80134200Y-74760200D01*
%TO.C,R11*%
X99340564Y-49627200D02*
X97886436Y-49627200D01*
X99340564Y-47807200D02*
X97886436Y-47807200D01*
%TO.C,LED1*%
X116126000Y-77030200D02*
X120011000Y-77030200D01*
X120011000Y-77030200D02*
X120011000Y-74760200D01*
X120011000Y-74760200D02*
X116126000Y-74760200D01*
%TO.C,LED2*%
X98117400Y-77030200D02*
X102002400Y-77030200D01*
X102002400Y-77030200D02*
X102002400Y-74760200D01*
X102002400Y-74760200D02*
X98117400Y-74760200D01*
%TO.C,LED4*%
X127787200Y-36152200D02*
X123902200Y-36152200D01*
X123902200Y-36152200D02*
X123902200Y-38422200D01*
X123902200Y-38422200D02*
X127787200Y-38422200D01*
%TO.C,R12*%
X118693036Y-36377200D02*
X120147164Y-36377200D01*
X118693036Y-38197200D02*
X120147164Y-38197200D01*
%TO.C,C2*%
X119637548Y-40149100D02*
X121060052Y-40149100D01*
X119637548Y-41969100D02*
X121060052Y-41969100D01*
%TO.C,C3*%
X121056452Y-45690200D02*
X119633948Y-45690200D01*
X121056452Y-43870200D02*
X119633948Y-43870200D01*
%TO.C,C1*%
X58885500Y-26530248D02*
X58885500Y-27952752D01*
X57065500Y-26530248D02*
X57065500Y-27952752D01*
%TO.C,R9*%
X88651164Y-45144100D02*
X87197036Y-45144100D01*
X88651164Y-43324100D02*
X87197036Y-43324100D01*
%TO.C,R8*%
X87171636Y-57294100D02*
X88625764Y-57294100D01*
X87171636Y-59114100D02*
X88625764Y-59114100D01*
%TO.C,R7*%
X69616236Y-74985200D02*
X71070364Y-74985200D01*
X69616236Y-76805200D02*
X71070364Y-76805200D01*
%TO.C,R6*%
X69565436Y-78719000D02*
X71019564Y-78719000D01*
X69565436Y-80539000D02*
X71019564Y-80539000D01*
%TO.C,R4*%
X87548636Y-78744400D02*
X89002764Y-78744400D01*
X87548636Y-80564400D02*
X89002764Y-80564400D01*
%TO.C,R3*%
X87501836Y-74985200D02*
X88955964Y-74985200D01*
X87501836Y-76805200D02*
X88955964Y-76805200D01*
%TO.C,R2*%
X105569936Y-78719000D02*
X107024064Y-78719000D01*
X105569936Y-80539000D02*
X107024064Y-80539000D01*
%TO.C,R1*%
X105569936Y-74972500D02*
X107024064Y-74972500D01*
X105569936Y-76792500D02*
X107024064Y-76792500D01*
%TO.C,R5*%
X52293436Y-33062500D02*
X53747564Y-33062500D01*
X52293436Y-34882500D02*
X53747564Y-34882500D01*
%TO.C,SW1*%
X103994000Y-45950400D02*
X97174000Y-45950400D01*
X103994000Y-41730400D02*
X97174000Y-41730400D01*
X103994000Y-45950400D02*
X103994000Y-44640400D01*
X103994000Y-43040400D02*
X103994000Y-41730400D01*
X97174000Y-45950400D02*
X97174000Y-44640400D01*
X97174000Y-43040400D02*
X97174000Y-41730400D01*
X104234000Y-46190400D02*
X102851000Y-46190400D01*
X104234000Y-46190400D02*
X104234000Y-44807400D01*
X102394000Y-44475400D02*
X102394000Y-43205400D01*
X102394000Y-43205400D02*
X98774000Y-43205400D01*
X98774000Y-43205400D02*
X98774000Y-44475400D01*
X98774000Y-44475400D02*
X102394000Y-44475400D01*
X102394000Y-44355400D02*
X101187333Y-44355400D01*
X102394000Y-44235400D02*
X101187333Y-44235400D01*
X102394000Y-44115400D02*
X101187333Y-44115400D01*
X102394000Y-43995400D02*
X101187333Y-43995400D01*
X102394000Y-43875400D02*
X101187333Y-43875400D01*
X102394000Y-43755400D02*
X101187333Y-43755400D01*
X102394000Y-43635400D02*
X101187333Y-43635400D01*
X102394000Y-43515400D02*
X101187333Y-43515400D01*
X102394000Y-43395400D02*
X101187333Y-43395400D01*
X102394000Y-43275400D02*
X101187333Y-43275400D01*
X101187333Y-44475400D02*
X101187333Y-43205400D01*
%TO.C,U2*%
X83160400Y-46366500D02*
X81345400Y-46366500D01*
X83160400Y-46111500D02*
X83160400Y-46366500D01*
X87020400Y-46111500D02*
X83160400Y-46111500D01*
X90880400Y-46111500D02*
X90880400Y-46366500D01*
X87020400Y-46111500D02*
X90880400Y-46111500D01*
X83160400Y-56631500D02*
X83160400Y-56376500D01*
X87020400Y-56631500D02*
X83160400Y-56631500D01*
X90880400Y-56631500D02*
X90880400Y-56376500D01*
X87020400Y-56631500D02*
X90880400Y-56631500D01*
%TO.C,S3*%
X70960000Y-112522000D02*
X81120000Y-112522000D01*
X70960000Y-104902000D02*
X70960000Y-112522000D01*
X81120000Y-104902000D02*
X70960000Y-104902000D01*
X81120000Y-112522000D02*
X81120000Y-104902000D01*
X81120000Y-111252000D02*
X70960000Y-111252000D01*
%TO.C,S2*%
X99120000Y-111252000D02*
X88960000Y-111252000D01*
X99120000Y-112522000D02*
X99120000Y-104902000D01*
X99120000Y-104902000D02*
X88960000Y-104902000D01*
X88960000Y-104902000D02*
X88960000Y-112522000D01*
X88960000Y-112522000D02*
X99120000Y-112522000D01*
%TO.C,S1*%
X117120000Y-111252000D02*
X106960000Y-111252000D01*
X117120000Y-112522000D02*
X117120000Y-104902000D01*
X117120000Y-104902000D02*
X106960000Y-104902000D01*
X106960000Y-104902000D02*
X106960000Y-112522000D01*
X106960000Y-112522000D02*
X117120000Y-112522000D01*
%TO.C,S0*%
X129413000Y-90297000D02*
X129413000Y-100457000D01*
X130683000Y-90297000D02*
X123063000Y-90297000D01*
X123063000Y-90297000D02*
X123063000Y-100457000D01*
X123063000Y-100457000D02*
X130683000Y-100457000D01*
X130683000Y-100457000D02*
X130683000Y-90297000D01*
%TO.C,ALED1*%
X55633000Y-24634000D02*
X55633000Y-31934000D01*
X50133000Y-24634000D02*
X50133000Y-31934000D01*
X50133000Y-31934000D02*
X51283000Y-31934000D01*
%TO.C,i2c4*%
X48708000Y-56201000D02*
X50038000Y-56201000D01*
X48708000Y-57531000D02*
X48708000Y-56201000D01*
X48708000Y-58801000D02*
X51368000Y-58801000D01*
X51368000Y-58801000D02*
X51368000Y-66481000D01*
X48708000Y-58801000D02*
X48708000Y-66481000D01*
X48708000Y-66481000D02*
X51368000Y-66481000D01*
%TO.C,i2c3*%
X44898000Y-66481000D02*
X47558000Y-66481000D01*
X44898000Y-58801000D02*
X44898000Y-66481000D01*
X47558000Y-58801000D02*
X47558000Y-66481000D01*
X44898000Y-58801000D02*
X47558000Y-58801000D01*
X44898000Y-57531000D02*
X44898000Y-56201000D01*
X44898000Y-56201000D02*
X46228000Y-56201000D01*
%TD*%
%TO.C,R17*%
D10*
X118787942Y-32151580D02*
X118454609Y-31675390D01*
X118216514Y-32151580D02*
X118216514Y-31151580D01*
X118597466Y-31151580D01*
X118692704Y-31199200D01*
X118740323Y-31246819D01*
X118787942Y-31342057D01*
X118787942Y-31484914D01*
X118740323Y-31580152D01*
X118692704Y-31627771D01*
X118597466Y-31675390D01*
X118216514Y-31675390D01*
X119740323Y-32151580D02*
X119168895Y-32151580D01*
X119454609Y-32151580D02*
X119454609Y-31151580D01*
X119359371Y-31294438D01*
X119264133Y-31389676D01*
X119168895Y-31437295D01*
X120073657Y-31151580D02*
X120740323Y-31151580D01*
X120311752Y-32151580D01*
%TO.C,R16*%
X85161380Y-80297257D02*
X84685190Y-80630590D01*
X85161380Y-80868685D02*
X84161380Y-80868685D01*
X84161380Y-80487733D01*
X84209000Y-80392495D01*
X84256619Y-80344876D01*
X84351857Y-80297257D01*
X84494714Y-80297257D01*
X84589952Y-80344876D01*
X84637571Y-80392495D01*
X84685190Y-80487733D01*
X84685190Y-80868685D01*
X85161380Y-79344876D02*
X85161380Y-79916304D01*
X85161380Y-79630590D02*
X84161380Y-79630590D01*
X84304238Y-79725828D01*
X84399476Y-79821066D01*
X84447095Y-79916304D01*
X84161380Y-78487733D02*
X84161380Y-78678209D01*
X84209000Y-78773447D01*
X84256619Y-78821066D01*
X84399476Y-78916304D01*
X84589952Y-78963923D01*
X84970904Y-78963923D01*
X85066142Y-78916304D01*
X85113761Y-78868685D01*
X85161380Y-78773447D01*
X85161380Y-78582971D01*
X85113761Y-78487733D01*
X85066142Y-78440114D01*
X84970904Y-78392495D01*
X84732809Y-78392495D01*
X84637571Y-78440114D01*
X84589952Y-78487733D01*
X84542333Y-78582971D01*
X84542333Y-78773447D01*
X84589952Y-78868685D01*
X84637571Y-78916304D01*
X84732809Y-78963923D01*
%TO.C,R15*%
X103195380Y-80348057D02*
X102719190Y-80681390D01*
X103195380Y-80919485D02*
X102195380Y-80919485D01*
X102195380Y-80538533D01*
X102243000Y-80443295D01*
X102290619Y-80395676D01*
X102385857Y-80348057D01*
X102528714Y-80348057D01*
X102623952Y-80395676D01*
X102671571Y-80443295D01*
X102719190Y-80538533D01*
X102719190Y-80919485D01*
X103195380Y-79395676D02*
X103195380Y-79967104D01*
X103195380Y-79681390D02*
X102195380Y-79681390D01*
X102338238Y-79776628D01*
X102433476Y-79871866D01*
X102481095Y-79967104D01*
X102195380Y-78490914D02*
X102195380Y-78967104D01*
X102671571Y-79014723D01*
X102623952Y-78967104D01*
X102576333Y-78871866D01*
X102576333Y-78633771D01*
X102623952Y-78538533D01*
X102671571Y-78490914D01*
X102766809Y-78443295D01*
X103004904Y-78443295D01*
X103100142Y-78490914D01*
X103147761Y-78538533D01*
X103195380Y-78633771D01*
X103195380Y-78871866D01*
X103147761Y-78967104D01*
X103100142Y-79014723D01*
%TO.C,R14*%
X121153180Y-80246457D02*
X120676990Y-80579790D01*
X121153180Y-80817885D02*
X120153180Y-80817885D01*
X120153180Y-80436933D01*
X120200800Y-80341695D01*
X120248419Y-80294076D01*
X120343657Y-80246457D01*
X120486514Y-80246457D01*
X120581752Y-80294076D01*
X120629371Y-80341695D01*
X120676990Y-80436933D01*
X120676990Y-80817885D01*
X121153180Y-79294076D02*
X121153180Y-79865504D01*
X121153180Y-79579790D02*
X120153180Y-79579790D01*
X120296038Y-79675028D01*
X120391276Y-79770266D01*
X120438895Y-79865504D01*
X120486514Y-78436933D02*
X121153180Y-78436933D01*
X120105561Y-78675028D02*
X120819847Y-78913123D01*
X120819847Y-78294076D01*
%TO.C,LED5*%
X124449104Y-32091261D02*
X124591961Y-32138880D01*
X124830057Y-32138880D01*
X124925295Y-32091261D01*
X124972914Y-32043642D01*
X125020533Y-31948404D01*
X125020533Y-31853166D01*
X124972914Y-31757928D01*
X124925295Y-31710309D01*
X124830057Y-31662690D01*
X124639580Y-31615071D01*
X124544342Y-31567452D01*
X124496723Y-31519833D01*
X124449104Y-31424595D01*
X124449104Y-31329357D01*
X124496723Y-31234119D01*
X124544342Y-31186500D01*
X124639580Y-31138880D01*
X124877676Y-31138880D01*
X125020533Y-31186500D01*
X125449104Y-31615071D02*
X125782438Y-31615071D01*
X125925295Y-32138880D02*
X125449104Y-32138880D01*
X125449104Y-31138880D01*
X125925295Y-31138880D01*
X126353866Y-32138880D02*
X126353866Y-31138880D01*
X126925295Y-32138880D01*
X126925295Y-31138880D01*
X127353866Y-32091261D02*
X127496723Y-32138880D01*
X127734819Y-32138880D01*
X127830057Y-32091261D01*
X127877676Y-32043642D01*
X127925295Y-31948404D01*
X127925295Y-31853166D01*
X127877676Y-31757928D01*
X127830057Y-31710309D01*
X127734819Y-31662690D01*
X127544342Y-31615071D01*
X127449104Y-31567452D01*
X127401485Y-31519833D01*
X127353866Y-31424595D01*
X127353866Y-31329357D01*
X127401485Y-31234119D01*
X127449104Y-31186500D01*
X127544342Y-31138880D01*
X127782438Y-31138880D01*
X127925295Y-31186500D01*
%TO.C,R13*%
X101566742Y-53182780D02*
X101233409Y-52706590D01*
X100995314Y-53182780D02*
X100995314Y-52182780D01*
X101376266Y-52182780D01*
X101471504Y-52230400D01*
X101519123Y-52278019D01*
X101566742Y-52373257D01*
X101566742Y-52516114D01*
X101519123Y-52611352D01*
X101471504Y-52658971D01*
X101376266Y-52706590D01*
X100995314Y-52706590D01*
X102519123Y-53182780D02*
X101947695Y-53182780D01*
X102233409Y-53182780D02*
X102233409Y-52182780D01*
X102138171Y-52325638D01*
X102042933Y-52420876D01*
X101947695Y-52468495D01*
X102852457Y-52182780D02*
X103471504Y-52182780D01*
X103138171Y-52563733D01*
X103281028Y-52563733D01*
X103376266Y-52611352D01*
X103423885Y-52658971D01*
X103471504Y-52754209D01*
X103471504Y-52992304D01*
X103423885Y-53087542D01*
X103376266Y-53135161D01*
X103281028Y-53182780D01*
X102995314Y-53182780D01*
X102900076Y-53135161D01*
X102852457Y-53087542D01*
%TO.C,R10*%
X120819942Y-26157180D02*
X120486609Y-25680990D01*
X120248514Y-26157180D02*
X120248514Y-25157180D01*
X120629466Y-25157180D01*
X120724704Y-25204800D01*
X120772323Y-25252419D01*
X120819942Y-25347657D01*
X120819942Y-25490514D01*
X120772323Y-25585752D01*
X120724704Y-25633371D01*
X120629466Y-25680990D01*
X120248514Y-25680990D01*
X121772323Y-26157180D02*
X121200895Y-26157180D01*
X121486609Y-26157180D02*
X121486609Y-25157180D01*
X121391371Y-25300038D01*
X121296133Y-25395276D01*
X121200895Y-25442895D01*
X122391371Y-25157180D02*
X122486609Y-25157180D01*
X122581847Y-25204800D01*
X122629466Y-25252419D01*
X122677085Y-25347657D01*
X122724704Y-25538133D01*
X122724704Y-25776228D01*
X122677085Y-25966704D01*
X122629466Y-26061942D01*
X122581847Y-26109561D01*
X122486609Y-26157180D01*
X122391371Y-26157180D01*
X122296133Y-26109561D01*
X122248514Y-26061942D01*
X122200895Y-25966704D01*
X122153276Y-25776228D01*
X122153276Y-25538133D01*
X122200895Y-25347657D01*
X122248514Y-25252419D01*
X122296133Y-25204800D01*
X122391371Y-25157180D01*
%TO.C,Q4*%
X117862361Y-26557219D02*
X117767123Y-26509600D01*
X117671885Y-26414361D01*
X117529028Y-26271504D01*
X117433790Y-26223885D01*
X117338552Y-26223885D01*
X117386171Y-26461980D02*
X117290933Y-26414361D01*
X117195695Y-26319123D01*
X117148076Y-26128647D01*
X117148076Y-25795314D01*
X117195695Y-25604838D01*
X117290933Y-25509600D01*
X117386171Y-25461980D01*
X117576647Y-25461980D01*
X117671885Y-25509600D01*
X117767123Y-25604838D01*
X117814742Y-25795314D01*
X117814742Y-26128647D01*
X117767123Y-26319123D01*
X117671885Y-26414361D01*
X117576647Y-26461980D01*
X117386171Y-26461980D01*
X118671885Y-25795314D02*
X118671885Y-26461980D01*
X118433790Y-25414361D02*
X118195695Y-26128647D01*
X118814742Y-26128647D01*
%TO.C,SW3*%
X43506880Y-76731309D02*
X43030690Y-77064642D01*
X43506880Y-77302738D02*
X42506880Y-77302738D01*
X42506880Y-76921785D01*
X42554500Y-76826547D01*
X42602119Y-76778928D01*
X42697357Y-76731309D01*
X42840214Y-76731309D01*
X42935452Y-76778928D01*
X42983071Y-76826547D01*
X43030690Y-76921785D01*
X43030690Y-77302738D01*
X42506880Y-76445595D02*
X42506880Y-75874166D01*
X43506880Y-76159880D02*
X42506880Y-76159880D01*
X43411642Y-74969404D02*
X43459261Y-75017023D01*
X43506880Y-75159880D01*
X43506880Y-75255119D01*
X43459261Y-75397976D01*
X43364023Y-75493214D01*
X43268785Y-75540833D01*
X43078309Y-75588452D01*
X42935452Y-75588452D01*
X42744976Y-75540833D01*
X42649738Y-75493214D01*
X42554500Y-75397976D01*
X42506880Y-75255119D01*
X42506880Y-75159880D01*
X42554500Y-75017023D01*
X42602119Y-74969404D01*
X42983071Y-73445595D02*
X43030690Y-73302738D01*
X43078309Y-73255119D01*
X43173547Y-73207500D01*
X43316404Y-73207500D01*
X43411642Y-73255119D01*
X43459261Y-73302738D01*
X43506880Y-73397976D01*
X43506880Y-73778928D01*
X42506880Y-73778928D01*
X42506880Y-73445595D01*
X42554500Y-73350357D01*
X42602119Y-73302738D01*
X42697357Y-73255119D01*
X42792595Y-73255119D01*
X42887833Y-73302738D01*
X42935452Y-73350357D01*
X42983071Y-73445595D01*
X42983071Y-73778928D01*
X43221166Y-72826547D02*
X43221166Y-72350357D01*
X43506880Y-72921785D02*
X42506880Y-72588452D01*
X43506880Y-72255119D01*
X42506880Y-72064642D02*
X42506880Y-71493214D01*
X43506880Y-71778928D02*
X42506880Y-71778928D01*
X42506880Y-71302738D02*
X42506880Y-70731309D01*
X43506880Y-71017023D02*
X42506880Y-71017023D01*
X42983071Y-70397976D02*
X42983071Y-70064642D01*
X43506880Y-69921785D02*
X43506880Y-70397976D01*
X42506880Y-70397976D01*
X42506880Y-69921785D01*
X43506880Y-68921785D02*
X43030690Y-69255119D01*
X43506880Y-69493214D02*
X42506880Y-69493214D01*
X42506880Y-69112261D01*
X42554500Y-69017023D01*
X42602119Y-68969404D01*
X42697357Y-68921785D01*
X42840214Y-68921785D01*
X42935452Y-68969404D01*
X42983071Y-69017023D01*
X43030690Y-69112261D01*
X43030690Y-69493214D01*
X43030690Y-68302738D02*
X43506880Y-68302738D01*
X42506880Y-68636071D02*
X43030690Y-68302738D01*
X42506880Y-67969404D01*
%TO.C,BT1*%
X46601071Y-92098714D02*
X46648690Y-91955857D01*
X46696309Y-91908238D01*
X46791547Y-91860619D01*
X46934404Y-91860619D01*
X47029642Y-91908238D01*
X47077261Y-91955857D01*
X47124880Y-92051095D01*
X47124880Y-92432047D01*
X46124880Y-92432047D01*
X46124880Y-92098714D01*
X46172500Y-92003476D01*
X46220119Y-91955857D01*
X46315357Y-91908238D01*
X46410595Y-91908238D01*
X46505833Y-91955857D01*
X46553452Y-92003476D01*
X46601071Y-92098714D01*
X46601071Y-92432047D01*
X46124880Y-91574904D02*
X46124880Y-91003476D01*
X47124880Y-91289190D02*
X46124880Y-91289190D01*
X47124880Y-90146333D02*
X47124880Y-90717761D01*
X47124880Y-90432047D02*
X46124880Y-90432047D01*
X46267738Y-90527285D01*
X46362976Y-90622523D01*
X46410595Y-90717761D01*
%TO.C,D4*%
X53490904Y-70689380D02*
X53490904Y-69689380D01*
X53729000Y-69689380D01*
X53871857Y-69737000D01*
X53967095Y-69832238D01*
X54014714Y-69927476D01*
X54062333Y-70117952D01*
X54062333Y-70260809D01*
X54014714Y-70451285D01*
X53967095Y-70546523D01*
X53871857Y-70641761D01*
X53729000Y-70689380D01*
X53490904Y-70689380D01*
X54919476Y-70022714D02*
X54919476Y-70689380D01*
X54681380Y-69641761D02*
X54443285Y-70356047D01*
X55062333Y-70356047D01*
%TO.C,D3*%
X75233304Y-80081380D02*
X75233304Y-79081380D01*
X75471400Y-79081380D01*
X75614257Y-79129000D01*
X75709495Y-79224238D01*
X75757114Y-79319476D01*
X75804733Y-79509952D01*
X75804733Y-79652809D01*
X75757114Y-79843285D01*
X75709495Y-79938523D01*
X75614257Y-80033761D01*
X75471400Y-80081380D01*
X75233304Y-80081380D01*
X76138066Y-79081380D02*
X76757114Y-79081380D01*
X76423780Y-79462333D01*
X76566638Y-79462333D01*
X76661876Y-79509952D01*
X76709495Y-79557571D01*
X76757114Y-79652809D01*
X76757114Y-79890904D01*
X76709495Y-79986142D01*
X76661876Y-80033761D01*
X76566638Y-80081380D01*
X76280923Y-80081380D01*
X76185685Y-80033761D01*
X76138066Y-79986142D01*
%TO.C,D2*%
X93191104Y-80081380D02*
X93191104Y-79081380D01*
X93429200Y-79081380D01*
X93572057Y-79129000D01*
X93667295Y-79224238D01*
X93714914Y-79319476D01*
X93762533Y-79509952D01*
X93762533Y-79652809D01*
X93714914Y-79843285D01*
X93667295Y-79938523D01*
X93572057Y-80033761D01*
X93429200Y-80081380D01*
X93191104Y-80081380D01*
X94143485Y-79176619D02*
X94191104Y-79129000D01*
X94286342Y-79081380D01*
X94524438Y-79081380D01*
X94619676Y-79129000D01*
X94667295Y-79176619D01*
X94714914Y-79271857D01*
X94714914Y-79367095D01*
X94667295Y-79509952D01*
X94095866Y-80081380D01*
X94714914Y-80081380D01*
%TO.C,D1*%
X111212404Y-80081380D02*
X111212404Y-79081380D01*
X111450500Y-79081380D01*
X111593357Y-79129000D01*
X111688595Y-79224238D01*
X111736214Y-79319476D01*
X111783833Y-79509952D01*
X111783833Y-79652809D01*
X111736214Y-79843285D01*
X111688595Y-79938523D01*
X111593357Y-80033761D01*
X111450500Y-80081380D01*
X111212404Y-80081380D01*
X112736214Y-80081380D02*
X112164785Y-80081380D01*
X112450500Y-80081380D02*
X112450500Y-79081380D01*
X112355261Y-79224238D01*
X112260023Y-79319476D01*
X112164785Y-79367095D01*
%TO.C,SENS1*%
X110307714Y-25005761D02*
X110450571Y-25053380D01*
X110688666Y-25053380D01*
X110783904Y-25005761D01*
X110831523Y-24958142D01*
X110879142Y-24862904D01*
X110879142Y-24767666D01*
X110831523Y-24672428D01*
X110783904Y-24624809D01*
X110688666Y-24577190D01*
X110498190Y-24529571D01*
X110402952Y-24481952D01*
X110355333Y-24434333D01*
X110307714Y-24339095D01*
X110307714Y-24243857D01*
X110355333Y-24148619D01*
X110402952Y-24101000D01*
X110498190Y-24053380D01*
X110736285Y-24053380D01*
X110879142Y-24101000D01*
X111307714Y-24529571D02*
X111641047Y-24529571D01*
X111783904Y-25053380D02*
X111307714Y-25053380D01*
X111307714Y-24053380D01*
X111783904Y-24053380D01*
X112212476Y-25053380D02*
X112212476Y-24053380D01*
X112783904Y-25053380D01*
X112783904Y-24053380D01*
X113212476Y-25005761D02*
X113355333Y-25053380D01*
X113593428Y-25053380D01*
X113688666Y-25005761D01*
X113736285Y-24958142D01*
X113783904Y-24862904D01*
X113783904Y-24767666D01*
X113736285Y-24672428D01*
X113688666Y-24624809D01*
X113593428Y-24577190D01*
X113402952Y-24529571D01*
X113307714Y-24481952D01*
X113260095Y-24434333D01*
X113212476Y-24339095D01*
X113212476Y-24243857D01*
X113260095Y-24148619D01*
X113307714Y-24101000D01*
X113402952Y-24053380D01*
X113641047Y-24053380D01*
X113783904Y-24101000D01*
X114736285Y-25053380D02*
X114164857Y-25053380D01*
X114450571Y-25053380D02*
X114450571Y-24053380D01*
X114355333Y-24196238D01*
X114260095Y-24291476D01*
X114164857Y-24339095D01*
%TO.C,SENS3*%
X91257714Y-25005761D02*
X91400571Y-25053380D01*
X91638666Y-25053380D01*
X91733904Y-25005761D01*
X91781523Y-24958142D01*
X91829142Y-24862904D01*
X91829142Y-24767666D01*
X91781523Y-24672428D01*
X91733904Y-24624809D01*
X91638666Y-24577190D01*
X91448190Y-24529571D01*
X91352952Y-24481952D01*
X91305333Y-24434333D01*
X91257714Y-24339095D01*
X91257714Y-24243857D01*
X91305333Y-24148619D01*
X91352952Y-24101000D01*
X91448190Y-24053380D01*
X91686285Y-24053380D01*
X91829142Y-24101000D01*
X92257714Y-24529571D02*
X92591047Y-24529571D01*
X92733904Y-25053380D02*
X92257714Y-25053380D01*
X92257714Y-24053380D01*
X92733904Y-24053380D01*
X93162476Y-25053380D02*
X93162476Y-24053380D01*
X93733904Y-25053380D01*
X93733904Y-24053380D01*
X94162476Y-25005761D02*
X94305333Y-25053380D01*
X94543428Y-25053380D01*
X94638666Y-25005761D01*
X94686285Y-24958142D01*
X94733904Y-24862904D01*
X94733904Y-24767666D01*
X94686285Y-24672428D01*
X94638666Y-24624809D01*
X94543428Y-24577190D01*
X94352952Y-24529571D01*
X94257714Y-24481952D01*
X94210095Y-24434333D01*
X94162476Y-24339095D01*
X94162476Y-24243857D01*
X94210095Y-24148619D01*
X94257714Y-24101000D01*
X94352952Y-24053380D01*
X94591047Y-24053380D01*
X94733904Y-24101000D01*
X95067238Y-24053380D02*
X95686285Y-24053380D01*
X95352952Y-24434333D01*
X95495809Y-24434333D01*
X95591047Y-24481952D01*
X95638666Y-24529571D01*
X95686285Y-24624809D01*
X95686285Y-24862904D01*
X95638666Y-24958142D01*
X95591047Y-25005761D01*
X95495809Y-25053380D01*
X95210095Y-25053380D01*
X95114857Y-25005761D01*
X95067238Y-24958142D01*
%TO.C,SENS2*%
X100782714Y-25005761D02*
X100925571Y-25053380D01*
X101163666Y-25053380D01*
X101258904Y-25005761D01*
X101306523Y-24958142D01*
X101354142Y-24862904D01*
X101354142Y-24767666D01*
X101306523Y-24672428D01*
X101258904Y-24624809D01*
X101163666Y-24577190D01*
X100973190Y-24529571D01*
X100877952Y-24481952D01*
X100830333Y-24434333D01*
X100782714Y-24339095D01*
X100782714Y-24243857D01*
X100830333Y-24148619D01*
X100877952Y-24101000D01*
X100973190Y-24053380D01*
X101211285Y-24053380D01*
X101354142Y-24101000D01*
X101782714Y-24529571D02*
X102116047Y-24529571D01*
X102258904Y-25053380D02*
X101782714Y-25053380D01*
X101782714Y-24053380D01*
X102258904Y-24053380D01*
X102687476Y-25053380D02*
X102687476Y-24053380D01*
X103258904Y-25053380D01*
X103258904Y-24053380D01*
X103687476Y-25005761D02*
X103830333Y-25053380D01*
X104068428Y-25053380D01*
X104163666Y-25005761D01*
X104211285Y-24958142D01*
X104258904Y-24862904D01*
X104258904Y-24767666D01*
X104211285Y-24672428D01*
X104163666Y-24624809D01*
X104068428Y-24577190D01*
X103877952Y-24529571D01*
X103782714Y-24481952D01*
X103735095Y-24434333D01*
X103687476Y-24339095D01*
X103687476Y-24243857D01*
X103735095Y-24148619D01*
X103782714Y-24101000D01*
X103877952Y-24053380D01*
X104116047Y-24053380D01*
X104258904Y-24101000D01*
X104639857Y-24148619D02*
X104687476Y-24101000D01*
X104782714Y-24053380D01*
X105020809Y-24053380D01*
X105116047Y-24101000D01*
X105163666Y-24148619D01*
X105211285Y-24243857D01*
X105211285Y-24339095D01*
X105163666Y-24481952D01*
X104592238Y-25053380D01*
X105211285Y-25053380D01*
%TO.C,SENS4*%
X81732714Y-24925761D02*
X81875571Y-24973380D01*
X82113666Y-24973380D01*
X82208904Y-24925761D01*
X82256523Y-24878142D01*
X82304142Y-24782904D01*
X82304142Y-24687666D01*
X82256523Y-24592428D01*
X82208904Y-24544809D01*
X82113666Y-24497190D01*
X81923190Y-24449571D01*
X81827952Y-24401952D01*
X81780333Y-24354333D01*
X81732714Y-24259095D01*
X81732714Y-24163857D01*
X81780333Y-24068619D01*
X81827952Y-24021000D01*
X81923190Y-23973380D01*
X82161285Y-23973380D01*
X82304142Y-24021000D01*
X82732714Y-24449571D02*
X83066047Y-24449571D01*
X83208904Y-24973380D02*
X82732714Y-24973380D01*
X82732714Y-23973380D01*
X83208904Y-23973380D01*
X83637476Y-24973380D02*
X83637476Y-23973380D01*
X84208904Y-24973380D01*
X84208904Y-23973380D01*
X84637476Y-24925761D02*
X84780333Y-24973380D01*
X85018428Y-24973380D01*
X85113666Y-24925761D01*
X85161285Y-24878142D01*
X85208904Y-24782904D01*
X85208904Y-24687666D01*
X85161285Y-24592428D01*
X85113666Y-24544809D01*
X85018428Y-24497190D01*
X84827952Y-24449571D01*
X84732714Y-24401952D01*
X84685095Y-24354333D01*
X84637476Y-24259095D01*
X84637476Y-24163857D01*
X84685095Y-24068619D01*
X84732714Y-24021000D01*
X84827952Y-23973380D01*
X85066047Y-23973380D01*
X85208904Y-24021000D01*
X86066047Y-24306714D02*
X86066047Y-24973380D01*
X85827952Y-23925761D02*
X85589857Y-24640047D01*
X86208904Y-24640047D01*
%TO.C,SENS5*%
X72207714Y-25005761D02*
X72350571Y-25053380D01*
X72588666Y-25053380D01*
X72683904Y-25005761D01*
X72731523Y-24958142D01*
X72779142Y-24862904D01*
X72779142Y-24767666D01*
X72731523Y-24672428D01*
X72683904Y-24624809D01*
X72588666Y-24577190D01*
X72398190Y-24529571D01*
X72302952Y-24481952D01*
X72255333Y-24434333D01*
X72207714Y-24339095D01*
X72207714Y-24243857D01*
X72255333Y-24148619D01*
X72302952Y-24101000D01*
X72398190Y-24053380D01*
X72636285Y-24053380D01*
X72779142Y-24101000D01*
X73207714Y-24529571D02*
X73541047Y-24529571D01*
X73683904Y-25053380D02*
X73207714Y-25053380D01*
X73207714Y-24053380D01*
X73683904Y-24053380D01*
X74112476Y-25053380D02*
X74112476Y-24053380D01*
X74683904Y-25053380D01*
X74683904Y-24053380D01*
X75112476Y-25005761D02*
X75255333Y-25053380D01*
X75493428Y-25053380D01*
X75588666Y-25005761D01*
X75636285Y-24958142D01*
X75683904Y-24862904D01*
X75683904Y-24767666D01*
X75636285Y-24672428D01*
X75588666Y-24624809D01*
X75493428Y-24577190D01*
X75302952Y-24529571D01*
X75207714Y-24481952D01*
X75160095Y-24434333D01*
X75112476Y-24339095D01*
X75112476Y-24243857D01*
X75160095Y-24148619D01*
X75207714Y-24101000D01*
X75302952Y-24053380D01*
X75541047Y-24053380D01*
X75683904Y-24101000D01*
X76588666Y-24053380D02*
X76112476Y-24053380D01*
X76064857Y-24529571D01*
X76112476Y-24481952D01*
X76207714Y-24434333D01*
X76445809Y-24434333D01*
X76541047Y-24481952D01*
X76588666Y-24529571D01*
X76636285Y-24624809D01*
X76636285Y-24862904D01*
X76588666Y-24958142D01*
X76541047Y-25005761D01*
X76445809Y-25053380D01*
X76207714Y-25053380D01*
X76112476Y-25005761D01*
X76064857Y-24958142D01*
%TO.C,S4*%
X123799695Y-81087861D02*
X123942552Y-81135480D01*
X124180647Y-81135480D01*
X124275885Y-81087861D01*
X124323504Y-81040242D01*
X124371123Y-80945004D01*
X124371123Y-80849766D01*
X124323504Y-80754528D01*
X124275885Y-80706909D01*
X124180647Y-80659290D01*
X123990171Y-80611671D01*
X123894933Y-80564052D01*
X123847314Y-80516433D01*
X123799695Y-80421195D01*
X123799695Y-80325957D01*
X123847314Y-80230719D01*
X123894933Y-80183100D01*
X123990171Y-80135480D01*
X124228266Y-80135480D01*
X124371123Y-80183100D01*
X125228266Y-80468814D02*
X125228266Y-81135480D01*
X124990171Y-80087861D02*
X124752076Y-80802147D01*
X125371123Y-80802147D01*
%TO.C,SENS6*%
X62682714Y-25005761D02*
X62825571Y-25053380D01*
X63063666Y-25053380D01*
X63158904Y-25005761D01*
X63206523Y-24958142D01*
X63254142Y-24862904D01*
X63254142Y-24767666D01*
X63206523Y-24672428D01*
X63158904Y-24624809D01*
X63063666Y-24577190D01*
X62873190Y-24529571D01*
X62777952Y-24481952D01*
X62730333Y-24434333D01*
X62682714Y-24339095D01*
X62682714Y-24243857D01*
X62730333Y-24148619D01*
X62777952Y-24101000D01*
X62873190Y-24053380D01*
X63111285Y-24053380D01*
X63254142Y-24101000D01*
X63682714Y-24529571D02*
X64016047Y-24529571D01*
X64158904Y-25053380D02*
X63682714Y-25053380D01*
X63682714Y-24053380D01*
X64158904Y-24053380D01*
X64587476Y-25053380D02*
X64587476Y-24053380D01*
X65158904Y-25053380D01*
X65158904Y-24053380D01*
X65587476Y-25005761D02*
X65730333Y-25053380D01*
X65968428Y-25053380D01*
X66063666Y-25005761D01*
X66111285Y-24958142D01*
X66158904Y-24862904D01*
X66158904Y-24767666D01*
X66111285Y-24672428D01*
X66063666Y-24624809D01*
X65968428Y-24577190D01*
X65777952Y-24529571D01*
X65682714Y-24481952D01*
X65635095Y-24434333D01*
X65587476Y-24339095D01*
X65587476Y-24243857D01*
X65635095Y-24148619D01*
X65682714Y-24101000D01*
X65777952Y-24053380D01*
X66016047Y-24053380D01*
X66158904Y-24101000D01*
X67016047Y-24053380D02*
X66825571Y-24053380D01*
X66730333Y-24101000D01*
X66682714Y-24148619D01*
X66587476Y-24291476D01*
X66539857Y-24481952D01*
X66539857Y-24862904D01*
X66587476Y-24958142D01*
X66635095Y-25005761D01*
X66730333Y-25053380D01*
X66920809Y-25053380D01*
X67016047Y-25005761D01*
X67063666Y-24958142D01*
X67111285Y-24862904D01*
X67111285Y-24624809D01*
X67063666Y-24529571D01*
X67016047Y-24481952D01*
X66920809Y-24434333D01*
X66730333Y-24434333D01*
X66635095Y-24481952D01*
X66587476Y-24529571D01*
X66539857Y-24624809D01*
%TO.C,U3*%
X110909595Y-40854380D02*
X110909595Y-41663904D01*
X110957214Y-41759142D01*
X111004833Y-41806761D01*
X111100071Y-41854380D01*
X111290547Y-41854380D01*
X111385785Y-41806761D01*
X111433404Y-41759142D01*
X111481023Y-41663904D01*
X111481023Y-40854380D01*
X111861976Y-40854380D02*
X112481023Y-40854380D01*
X112147690Y-41235333D01*
X112290547Y-41235333D01*
X112385785Y-41282952D01*
X112433404Y-41330571D01*
X112481023Y-41425809D01*
X112481023Y-41663904D01*
X112433404Y-41759142D01*
X112385785Y-41806761D01*
X112290547Y-41854380D01*
X112004833Y-41854380D01*
X111909595Y-41806761D01*
X111861976Y-41759142D01*
%TO.C,RE1*%
X111140952Y-93162380D02*
X110807619Y-92686190D01*
X110569523Y-93162380D02*
X110569523Y-92162380D01*
X110950476Y-92162380D01*
X111045714Y-92210000D01*
X111093333Y-92257619D01*
X111140952Y-92352857D01*
X111140952Y-92495714D01*
X111093333Y-92590952D01*
X111045714Y-92638571D01*
X110950476Y-92686190D01*
X110569523Y-92686190D01*
X111569523Y-92638571D02*
X111902857Y-92638571D01*
X112045714Y-93162380D02*
X111569523Y-93162380D01*
X111569523Y-92162380D01*
X112045714Y-92162380D01*
X112998095Y-93162380D02*
X112426666Y-93162380D01*
X112712380Y-93162380D02*
X112712380Y-92162380D01*
X112617142Y-92305238D01*
X112521904Y-92400476D01*
X112426666Y-92448095D01*
%TO.C,RE2*%
X93360952Y-93162380D02*
X93027619Y-92686190D01*
X92789523Y-93162380D02*
X92789523Y-92162380D01*
X93170476Y-92162380D01*
X93265714Y-92210000D01*
X93313333Y-92257619D01*
X93360952Y-92352857D01*
X93360952Y-92495714D01*
X93313333Y-92590952D01*
X93265714Y-92638571D01*
X93170476Y-92686190D01*
X92789523Y-92686190D01*
X93789523Y-92638571D02*
X94122857Y-92638571D01*
X94265714Y-93162380D02*
X93789523Y-93162380D01*
X93789523Y-92162380D01*
X94265714Y-92162380D01*
X94646666Y-92257619D02*
X94694285Y-92210000D01*
X94789523Y-92162380D01*
X95027619Y-92162380D01*
X95122857Y-92210000D01*
X95170476Y-92257619D01*
X95218095Y-92352857D01*
X95218095Y-92448095D01*
X95170476Y-92590952D01*
X94599047Y-93162380D01*
X95218095Y-93162380D01*
%TO.C,RE3*%
X75580952Y-93162380D02*
X75247619Y-92686190D01*
X75009523Y-93162380D02*
X75009523Y-92162380D01*
X75390476Y-92162380D01*
X75485714Y-92210000D01*
X75533333Y-92257619D01*
X75580952Y-92352857D01*
X75580952Y-92495714D01*
X75533333Y-92590952D01*
X75485714Y-92638571D01*
X75390476Y-92686190D01*
X75009523Y-92686190D01*
X76009523Y-92638571D02*
X76342857Y-92638571D01*
X76485714Y-93162380D02*
X76009523Y-93162380D01*
X76009523Y-92162380D01*
X76485714Y-92162380D01*
X76819047Y-92162380D02*
X77438095Y-92162380D01*
X77104761Y-92543333D01*
X77247619Y-92543333D01*
X77342857Y-92590952D01*
X77390476Y-92638571D01*
X77438095Y-92733809D01*
X77438095Y-92971904D01*
X77390476Y-93067142D01*
X77342857Y-93114761D01*
X77247619Y-93162380D01*
X76961904Y-93162380D01*
X76866666Y-93114761D01*
X76819047Y-93067142D01*
%TO.C,Q2*%
X94786461Y-73915519D02*
X94691223Y-73867900D01*
X94595985Y-73772661D01*
X94453128Y-73629804D01*
X94357890Y-73582185D01*
X94262652Y-73582185D01*
X94310271Y-73820280D02*
X94215033Y-73772661D01*
X94119795Y-73677423D01*
X94072176Y-73486947D01*
X94072176Y-73153614D01*
X94119795Y-72963138D01*
X94215033Y-72867900D01*
X94310271Y-72820280D01*
X94500747Y-72820280D01*
X94595985Y-72867900D01*
X94691223Y-72963138D01*
X94738842Y-73153614D01*
X94738842Y-73486947D01*
X94691223Y-73677423D01*
X94595985Y-73772661D01*
X94500747Y-73820280D01*
X94310271Y-73820280D01*
X95119795Y-72915519D02*
X95167414Y-72867900D01*
X95262652Y-72820280D01*
X95500747Y-72820280D01*
X95595985Y-72867900D01*
X95643604Y-72915519D01*
X95691223Y-73010757D01*
X95691223Y-73105995D01*
X95643604Y-73248852D01*
X95072176Y-73820280D01*
X95691223Y-73820280D01*
%TO.C,Q1*%
X112693461Y-73940919D02*
X112598223Y-73893300D01*
X112502985Y-73798061D01*
X112360128Y-73655204D01*
X112264890Y-73607585D01*
X112169652Y-73607585D01*
X112217271Y-73845680D02*
X112122033Y-73798061D01*
X112026795Y-73702823D01*
X111979176Y-73512347D01*
X111979176Y-73179014D01*
X112026795Y-72988538D01*
X112122033Y-72893300D01*
X112217271Y-72845680D01*
X112407747Y-72845680D01*
X112502985Y-72893300D01*
X112598223Y-72988538D01*
X112645842Y-73179014D01*
X112645842Y-73512347D01*
X112598223Y-73702823D01*
X112502985Y-73798061D01*
X112407747Y-73845680D01*
X112217271Y-73845680D01*
X113598223Y-73845680D02*
X113026795Y-73845680D01*
X113312509Y-73845680D02*
X113312509Y-72845680D01*
X113217271Y-72988538D01*
X113122033Y-73083776D01*
X113026795Y-73131395D01*
%TO.C,Q3*%
X76612761Y-73826619D02*
X76517523Y-73779000D01*
X76422285Y-73683761D01*
X76279428Y-73540904D01*
X76184190Y-73493285D01*
X76088952Y-73493285D01*
X76136571Y-73731380D02*
X76041333Y-73683761D01*
X75946095Y-73588523D01*
X75898476Y-73398047D01*
X75898476Y-73064714D01*
X75946095Y-72874238D01*
X76041333Y-72779000D01*
X76136571Y-72731380D01*
X76327047Y-72731380D01*
X76422285Y-72779000D01*
X76517523Y-72874238D01*
X76565142Y-73064714D01*
X76565142Y-73398047D01*
X76517523Y-73588523D01*
X76422285Y-73683761D01*
X76327047Y-73731380D01*
X76136571Y-73731380D01*
X76898476Y-72731380D02*
X77517523Y-72731380D01*
X77184190Y-73112333D01*
X77327047Y-73112333D01*
X77422285Y-73159952D01*
X77469904Y-73207571D01*
X77517523Y-73302809D01*
X77517523Y-73540904D01*
X77469904Y-73636142D01*
X77422285Y-73683761D01*
X77327047Y-73731380D01*
X77041333Y-73731380D01*
X76946095Y-73683761D01*
X76898476Y-73636142D01*
%TO.C,U1*%
X109347095Y-54697380D02*
X109347095Y-55506904D01*
X109394714Y-55602142D01*
X109442333Y-55649761D01*
X109537571Y-55697380D01*
X109728047Y-55697380D01*
X109823285Y-55649761D01*
X109870904Y-55602142D01*
X109918523Y-55506904D01*
X109918523Y-54697380D01*
X110918523Y-55697380D02*
X110347095Y-55697380D01*
X110632809Y-55697380D02*
X110632809Y-54697380D01*
X110537571Y-54840238D01*
X110442333Y-54935476D01*
X110347095Y-54983095D01*
%TO.C,LED3*%
X80745152Y-74252080D02*
X80268961Y-74252080D01*
X80268961Y-73252080D01*
X81078485Y-73728271D02*
X81411819Y-73728271D01*
X81554676Y-74252080D02*
X81078485Y-74252080D01*
X81078485Y-73252080D01*
X81554676Y-73252080D01*
X81983247Y-74252080D02*
X81983247Y-73252080D01*
X82221342Y-73252080D01*
X82364200Y-73299700D01*
X82459438Y-73394938D01*
X82507057Y-73490176D01*
X82554676Y-73680652D01*
X82554676Y-73823509D01*
X82507057Y-74013985D01*
X82459438Y-74109223D01*
X82364200Y-74204461D01*
X82221342Y-74252080D01*
X81983247Y-74252080D01*
X82888009Y-73252080D02*
X83507057Y-73252080D01*
X83173723Y-73633033D01*
X83316580Y-73633033D01*
X83411819Y-73680652D01*
X83459438Y-73728271D01*
X83507057Y-73823509D01*
X83507057Y-74061604D01*
X83459438Y-74156842D01*
X83411819Y-74204461D01*
X83316580Y-74252080D01*
X83030866Y-74252080D01*
X82935628Y-74204461D01*
X82888009Y-74156842D01*
%TO.C,R11*%
X101617542Y-49169580D02*
X101284209Y-48693390D01*
X101046114Y-49169580D02*
X101046114Y-48169580D01*
X101427066Y-48169580D01*
X101522304Y-48217200D01*
X101569923Y-48264819D01*
X101617542Y-48360057D01*
X101617542Y-48502914D01*
X101569923Y-48598152D01*
X101522304Y-48645771D01*
X101427066Y-48693390D01*
X101046114Y-48693390D01*
X102569923Y-49169580D02*
X101998495Y-49169580D01*
X102284209Y-49169580D02*
X102284209Y-48169580D01*
X102188971Y-48312438D01*
X102093733Y-48407676D01*
X101998495Y-48455295D01*
X103522304Y-49169580D02*
X102950876Y-49169580D01*
X103236590Y-49169580D02*
X103236590Y-48169580D01*
X103141352Y-48312438D01*
X103046114Y-48407676D01*
X102950876Y-48455295D01*
%TO.C,LED1*%
X116490152Y-74424780D02*
X116013961Y-74424780D01*
X116013961Y-73424780D01*
X116823485Y-73900971D02*
X117156819Y-73900971D01*
X117299676Y-74424780D02*
X116823485Y-74424780D01*
X116823485Y-73424780D01*
X117299676Y-73424780D01*
X117728247Y-74424780D02*
X117728247Y-73424780D01*
X117966342Y-73424780D01*
X118109200Y-73472400D01*
X118204438Y-73567638D01*
X118252057Y-73662876D01*
X118299676Y-73853352D01*
X118299676Y-73996209D01*
X118252057Y-74186685D01*
X118204438Y-74281923D01*
X118109200Y-74377161D01*
X117966342Y-74424780D01*
X117728247Y-74424780D01*
X119252057Y-74424780D02*
X118680628Y-74424780D01*
X118966342Y-74424780D02*
X118966342Y-73424780D01*
X118871104Y-73567638D01*
X118775866Y-73662876D01*
X118680628Y-73710495D01*
%TO.C,LED2*%
X98498352Y-74475580D02*
X98022161Y-74475580D01*
X98022161Y-73475580D01*
X98831685Y-73951771D02*
X99165019Y-73951771D01*
X99307876Y-74475580D02*
X98831685Y-74475580D01*
X98831685Y-73475580D01*
X99307876Y-73475580D01*
X99736447Y-74475580D02*
X99736447Y-73475580D01*
X99974542Y-73475580D01*
X100117400Y-73523200D01*
X100212638Y-73618438D01*
X100260257Y-73713676D01*
X100307876Y-73904152D01*
X100307876Y-74047009D01*
X100260257Y-74237485D01*
X100212638Y-74332723D01*
X100117400Y-74427961D01*
X99974542Y-74475580D01*
X99736447Y-74475580D01*
X100688828Y-73570819D02*
X100736447Y-73523200D01*
X100831685Y-73475580D01*
X101069780Y-73475580D01*
X101165019Y-73523200D01*
X101212638Y-73570819D01*
X101260257Y-73666057D01*
X101260257Y-73761295D01*
X101212638Y-73904152D01*
X100641209Y-74475580D01*
X101260257Y-74475580D01*
%TO.C,LED4*%
X123928476Y-35948880D02*
X123928476Y-34948880D01*
X124309428Y-34948880D01*
X124404666Y-34996500D01*
X124452285Y-35044119D01*
X124499904Y-35139357D01*
X124499904Y-35282214D01*
X124452285Y-35377452D01*
X124404666Y-35425071D01*
X124309428Y-35472690D01*
X123928476Y-35472690D01*
X125118952Y-34948880D02*
X125309428Y-34948880D01*
X125404666Y-34996500D01*
X125499904Y-35091738D01*
X125547523Y-35282214D01*
X125547523Y-35615547D01*
X125499904Y-35806023D01*
X125404666Y-35901261D01*
X125309428Y-35948880D01*
X125118952Y-35948880D01*
X125023714Y-35901261D01*
X124928476Y-35806023D01*
X124880857Y-35615547D01*
X124880857Y-35282214D01*
X124928476Y-35091738D01*
X125023714Y-34996500D01*
X125118952Y-34948880D01*
X125880857Y-34948880D02*
X126118952Y-35948880D01*
X126309428Y-35234595D01*
X126499904Y-35948880D01*
X126738000Y-34948880D01*
X127118952Y-35425071D02*
X127452285Y-35425071D01*
X127595142Y-35948880D02*
X127118952Y-35948880D01*
X127118952Y-34948880D01*
X127595142Y-34948880D01*
X128595142Y-35948880D02*
X128261809Y-35472690D01*
X128023714Y-35948880D02*
X128023714Y-34948880D01*
X128404666Y-34948880D01*
X128499904Y-34996500D01*
X128547523Y-35044119D01*
X128595142Y-35139357D01*
X128595142Y-35282214D01*
X128547523Y-35377452D01*
X128499904Y-35425071D01*
X128404666Y-35472690D01*
X128023714Y-35472690D01*
%TO.C,R12*%
X118777242Y-35919580D02*
X118443909Y-35443390D01*
X118205814Y-35919580D02*
X118205814Y-34919580D01*
X118586766Y-34919580D01*
X118682004Y-34967200D01*
X118729623Y-35014819D01*
X118777242Y-35110057D01*
X118777242Y-35252914D01*
X118729623Y-35348152D01*
X118682004Y-35395771D01*
X118586766Y-35443390D01*
X118205814Y-35443390D01*
X119729623Y-35919580D02*
X119158195Y-35919580D01*
X119443909Y-35919580D02*
X119443909Y-34919580D01*
X119348671Y-35062438D01*
X119253433Y-35157676D01*
X119158195Y-35205295D01*
X120110576Y-35014819D02*
X120158195Y-34967200D01*
X120253433Y-34919580D01*
X120491528Y-34919580D01*
X120586766Y-34967200D01*
X120634385Y-35014819D01*
X120682004Y-35110057D01*
X120682004Y-35205295D01*
X120634385Y-35348152D01*
X120062957Y-35919580D01*
X120682004Y-35919580D01*
%TO.C,C2*%
X120185733Y-39409642D02*
X120138114Y-39457261D01*
X119995257Y-39504880D01*
X119900019Y-39504880D01*
X119757161Y-39457261D01*
X119661923Y-39362023D01*
X119614304Y-39266785D01*
X119566685Y-39076309D01*
X119566685Y-38933452D01*
X119614304Y-38742976D01*
X119661923Y-38647738D01*
X119757161Y-38552500D01*
X119900019Y-38504880D01*
X119995257Y-38504880D01*
X120138114Y-38552500D01*
X120185733Y-38600119D01*
X120566685Y-38600119D02*
X120614304Y-38552500D01*
X120709542Y-38504880D01*
X120947638Y-38504880D01*
X121042876Y-38552500D01*
X121090495Y-38600119D01*
X121138114Y-38695357D01*
X121138114Y-38790595D01*
X121090495Y-38933452D01*
X120519066Y-39504880D01*
X121138114Y-39504880D01*
%TO.C,C3*%
X120153133Y-43308542D02*
X120105514Y-43356161D01*
X119962657Y-43403780D01*
X119867419Y-43403780D01*
X119724561Y-43356161D01*
X119629323Y-43260923D01*
X119581704Y-43165685D01*
X119534085Y-42975209D01*
X119534085Y-42832352D01*
X119581704Y-42641876D01*
X119629323Y-42546638D01*
X119724561Y-42451400D01*
X119867419Y-42403780D01*
X119962657Y-42403780D01*
X120105514Y-42451400D01*
X120153133Y-42499019D01*
X120486466Y-42403780D02*
X121105514Y-42403780D01*
X120772180Y-42784733D01*
X120915038Y-42784733D01*
X121010276Y-42832352D01*
X121057895Y-42879971D01*
X121105514Y-42975209D01*
X121105514Y-43213304D01*
X121057895Y-43308542D01*
X121010276Y-43356161D01*
X120915038Y-43403780D01*
X120629323Y-43403780D01*
X120534085Y-43356161D01*
X120486466Y-43308542D01*
%TO.C,C1*%
X57872333Y-30710142D02*
X57824714Y-30757761D01*
X57681857Y-30805380D01*
X57586619Y-30805380D01*
X57443761Y-30757761D01*
X57348523Y-30662523D01*
X57300904Y-30567285D01*
X57253285Y-30376809D01*
X57253285Y-30233952D01*
X57300904Y-30043476D01*
X57348523Y-29948238D01*
X57443761Y-29853000D01*
X57586619Y-29805380D01*
X57681857Y-29805380D01*
X57824714Y-29853000D01*
X57872333Y-29900619D01*
X58824714Y-30805380D02*
X58253285Y-30805380D01*
X58539000Y-30805380D02*
X58539000Y-29805380D01*
X58443761Y-29948238D01*
X58348523Y-30043476D01*
X58253285Y-30091095D01*
%TO.C,R9*%
X84237533Y-44686480D02*
X83904200Y-44210290D01*
X83666104Y-44686480D02*
X83666104Y-43686480D01*
X84047057Y-43686480D01*
X84142295Y-43734100D01*
X84189914Y-43781719D01*
X84237533Y-43876957D01*
X84237533Y-44019814D01*
X84189914Y-44115052D01*
X84142295Y-44162671D01*
X84047057Y-44210290D01*
X83666104Y-44210290D01*
X84713723Y-44686480D02*
X84904200Y-44686480D01*
X84999438Y-44638861D01*
X85047057Y-44591242D01*
X85142295Y-44448385D01*
X85189914Y-44257909D01*
X85189914Y-43876957D01*
X85142295Y-43781719D01*
X85094676Y-43734100D01*
X84999438Y-43686480D01*
X84808961Y-43686480D01*
X84713723Y-43734100D01*
X84666104Y-43781719D01*
X84618485Y-43876957D01*
X84618485Y-44115052D01*
X84666104Y-44210290D01*
X84713723Y-44257909D01*
X84808961Y-44305528D01*
X84999438Y-44305528D01*
X85094676Y-44257909D01*
X85142295Y-44210290D01*
X85189914Y-44115052D01*
%TO.C,R8*%
X84262933Y-58707280D02*
X83929600Y-58231090D01*
X83691504Y-58707280D02*
X83691504Y-57707280D01*
X84072457Y-57707280D01*
X84167695Y-57754900D01*
X84215314Y-57802519D01*
X84262933Y-57897757D01*
X84262933Y-58040614D01*
X84215314Y-58135852D01*
X84167695Y-58183471D01*
X84072457Y-58231090D01*
X83691504Y-58231090D01*
X84834361Y-58135852D02*
X84739123Y-58088233D01*
X84691504Y-58040614D01*
X84643885Y-57945376D01*
X84643885Y-57897757D01*
X84691504Y-57802519D01*
X84739123Y-57754900D01*
X84834361Y-57707280D01*
X85024838Y-57707280D01*
X85120076Y-57754900D01*
X85167695Y-57802519D01*
X85215314Y-57897757D01*
X85215314Y-57945376D01*
X85167695Y-58040614D01*
X85120076Y-58088233D01*
X85024838Y-58135852D01*
X84834361Y-58135852D01*
X84739123Y-58183471D01*
X84691504Y-58231090D01*
X84643885Y-58326328D01*
X84643885Y-58516804D01*
X84691504Y-58612042D01*
X84739123Y-58659661D01*
X84834361Y-58707280D01*
X85024838Y-58707280D01*
X85120076Y-58659661D01*
X85167695Y-58612042D01*
X85215314Y-58516804D01*
X85215314Y-58326328D01*
X85167695Y-58231090D01*
X85120076Y-58183471D01*
X85024838Y-58135852D01*
%TO.C,R7*%
X70165933Y-74569580D02*
X69832600Y-74093390D01*
X69594504Y-74569580D02*
X69594504Y-73569580D01*
X69975457Y-73569580D01*
X70070695Y-73617200D01*
X70118314Y-73664819D01*
X70165933Y-73760057D01*
X70165933Y-73902914D01*
X70118314Y-73998152D01*
X70070695Y-74045771D01*
X69975457Y-74093390D01*
X69594504Y-74093390D01*
X70499266Y-73569580D02*
X71165933Y-73569580D01*
X70737361Y-74569580D01*
%TO.C,R6*%
X70115133Y-78277980D02*
X69781800Y-77801790D01*
X69543704Y-78277980D02*
X69543704Y-77277980D01*
X69924657Y-77277980D01*
X70019895Y-77325600D01*
X70067514Y-77373219D01*
X70115133Y-77468457D01*
X70115133Y-77611314D01*
X70067514Y-77706552D01*
X70019895Y-77754171D01*
X69924657Y-77801790D01*
X69543704Y-77801790D01*
X70972276Y-77277980D02*
X70781800Y-77277980D01*
X70686561Y-77325600D01*
X70638942Y-77373219D01*
X70543704Y-77516076D01*
X70496085Y-77706552D01*
X70496085Y-78087504D01*
X70543704Y-78182742D01*
X70591323Y-78230361D01*
X70686561Y-78277980D01*
X70877038Y-78277980D01*
X70972276Y-78230361D01*
X71019895Y-78182742D01*
X71067514Y-78087504D01*
X71067514Y-77849409D01*
X71019895Y-77754171D01*
X70972276Y-77706552D01*
X70877038Y-77658933D01*
X70686561Y-77658933D01*
X70591323Y-77706552D01*
X70543704Y-77754171D01*
X70496085Y-77849409D01*
%TO.C,R4*%
X88123733Y-78493880D02*
X87790400Y-78017690D01*
X87552304Y-78493880D02*
X87552304Y-77493880D01*
X87933257Y-77493880D01*
X88028495Y-77541500D01*
X88076114Y-77589119D01*
X88123733Y-77684357D01*
X88123733Y-77827214D01*
X88076114Y-77922452D01*
X88028495Y-77970071D01*
X87933257Y-78017690D01*
X87552304Y-78017690D01*
X88980876Y-77827214D02*
X88980876Y-78493880D01*
X88742780Y-77446261D02*
X88504685Y-78160547D01*
X89123733Y-78160547D01*
%TO.C,R3*%
X88060233Y-74531480D02*
X87726900Y-74055290D01*
X87488804Y-74531480D02*
X87488804Y-73531480D01*
X87869757Y-73531480D01*
X87964995Y-73579100D01*
X88012614Y-73626719D01*
X88060233Y-73721957D01*
X88060233Y-73864814D01*
X88012614Y-73960052D01*
X87964995Y-74007671D01*
X87869757Y-74055290D01*
X87488804Y-74055290D01*
X88393566Y-73531480D02*
X89012614Y-73531480D01*
X88679280Y-73912433D01*
X88822138Y-73912433D01*
X88917376Y-73960052D01*
X88964995Y-74007671D01*
X89012614Y-74102909D01*
X89012614Y-74341004D01*
X88964995Y-74436242D01*
X88917376Y-74483861D01*
X88822138Y-74531480D01*
X88536423Y-74531480D01*
X88441185Y-74483861D01*
X88393566Y-74436242D01*
%TO.C,R2*%
X106106933Y-78354180D02*
X105773600Y-77877990D01*
X105535504Y-78354180D02*
X105535504Y-77354180D01*
X105916457Y-77354180D01*
X106011695Y-77401800D01*
X106059314Y-77449419D01*
X106106933Y-77544657D01*
X106106933Y-77687514D01*
X106059314Y-77782752D01*
X106011695Y-77830371D01*
X105916457Y-77877990D01*
X105535504Y-77877990D01*
X106487885Y-77449419D02*
X106535504Y-77401800D01*
X106630742Y-77354180D01*
X106868838Y-77354180D01*
X106964076Y-77401800D01*
X107011695Y-77449419D01*
X107059314Y-77544657D01*
X107059314Y-77639895D01*
X107011695Y-77782752D01*
X106440266Y-78354180D01*
X107059314Y-78354180D01*
%TO.C,R1*%
X106157733Y-74594980D02*
X105824400Y-74118790D01*
X105586304Y-74594980D02*
X105586304Y-73594980D01*
X105967257Y-73594980D01*
X106062495Y-73642600D01*
X106110114Y-73690219D01*
X106157733Y-73785457D01*
X106157733Y-73928314D01*
X106110114Y-74023552D01*
X106062495Y-74071171D01*
X105967257Y-74118790D01*
X105586304Y-74118790D01*
X107110114Y-74594980D02*
X106538685Y-74594980D01*
X106824400Y-74594980D02*
X106824400Y-73594980D01*
X106729161Y-73737838D01*
X106633923Y-73833076D01*
X106538685Y-73880695D01*
%TO.C,R5*%
X49109333Y-34424880D02*
X48776000Y-33948690D01*
X48537904Y-34424880D02*
X48537904Y-33424880D01*
X48918857Y-33424880D01*
X49014095Y-33472500D01*
X49061714Y-33520119D01*
X49109333Y-33615357D01*
X49109333Y-33758214D01*
X49061714Y-33853452D01*
X49014095Y-33901071D01*
X48918857Y-33948690D01*
X48537904Y-33948690D01*
X50014095Y-33424880D02*
X49537904Y-33424880D01*
X49490285Y-33901071D01*
X49537904Y-33853452D01*
X49633142Y-33805833D01*
X49871238Y-33805833D01*
X49966476Y-33853452D01*
X50014095Y-33901071D01*
X50061714Y-33996309D01*
X50061714Y-34234404D01*
X50014095Y-34329642D01*
X49966476Y-34377261D01*
X49871238Y-34424880D01*
X49633142Y-34424880D01*
X49537904Y-34377261D01*
X49490285Y-34329642D01*
%TO.C,SW1*%
X99131619Y-41182780D02*
X98798285Y-40706590D01*
X98560190Y-41182780D02*
X98560190Y-40182780D01*
X98941142Y-40182780D01*
X99036380Y-40230400D01*
X99084000Y-40278019D01*
X99131619Y-40373257D01*
X99131619Y-40516114D01*
X99084000Y-40611352D01*
X99036380Y-40658971D01*
X98941142Y-40706590D01*
X98560190Y-40706590D01*
X99560190Y-40658971D02*
X99893523Y-40658971D01*
X100036380Y-41182780D02*
X99560190Y-41182780D01*
X99560190Y-40182780D01*
X100036380Y-40182780D01*
X100417333Y-41135161D02*
X100560190Y-41182780D01*
X100798285Y-41182780D01*
X100893523Y-41135161D01*
X100941142Y-41087542D01*
X100988761Y-40992304D01*
X100988761Y-40897066D01*
X100941142Y-40801828D01*
X100893523Y-40754209D01*
X100798285Y-40706590D01*
X100607809Y-40658971D01*
X100512571Y-40611352D01*
X100464952Y-40563733D01*
X100417333Y-40468495D01*
X100417333Y-40373257D01*
X100464952Y-40278019D01*
X100512571Y-40230400D01*
X100607809Y-40182780D01*
X100845904Y-40182780D01*
X100988761Y-40230400D01*
X101417333Y-40658971D02*
X101750666Y-40658971D01*
X101893523Y-41182780D02*
X101417333Y-41182780D01*
X101417333Y-40182780D01*
X101893523Y-40182780D01*
X102179238Y-40182780D02*
X102750666Y-40182780D01*
X102464952Y-41182780D02*
X102464952Y-40182780D01*
%TO.C,U2*%
X86243995Y-50823880D02*
X86243995Y-51633404D01*
X86291614Y-51728642D01*
X86339233Y-51776261D01*
X86434471Y-51823880D01*
X86624947Y-51823880D01*
X86720185Y-51776261D01*
X86767804Y-51728642D01*
X86815423Y-51633404D01*
X86815423Y-50823880D01*
X87243995Y-50919119D02*
X87291614Y-50871500D01*
X87386852Y-50823880D01*
X87624947Y-50823880D01*
X87720185Y-50871500D01*
X87767804Y-50919119D01*
X87815423Y-51014357D01*
X87815423Y-51109595D01*
X87767804Y-51252452D01*
X87196376Y-51823880D01*
X87815423Y-51823880D01*
%TO.C,S3*%
X75278095Y-106576761D02*
X75420952Y-106624380D01*
X75659047Y-106624380D01*
X75754285Y-106576761D01*
X75801904Y-106529142D01*
X75849523Y-106433904D01*
X75849523Y-106338666D01*
X75801904Y-106243428D01*
X75754285Y-106195809D01*
X75659047Y-106148190D01*
X75468571Y-106100571D01*
X75373333Y-106052952D01*
X75325714Y-106005333D01*
X75278095Y-105910095D01*
X75278095Y-105814857D01*
X75325714Y-105719619D01*
X75373333Y-105672000D01*
X75468571Y-105624380D01*
X75706666Y-105624380D01*
X75849523Y-105672000D01*
X76182857Y-105624380D02*
X76801904Y-105624380D01*
X76468571Y-106005333D01*
X76611428Y-106005333D01*
X76706666Y-106052952D01*
X76754285Y-106100571D01*
X76801904Y-106195809D01*
X76801904Y-106433904D01*
X76754285Y-106529142D01*
X76706666Y-106576761D01*
X76611428Y-106624380D01*
X76325714Y-106624380D01*
X76230476Y-106576761D01*
X76182857Y-106529142D01*
%TO.C,S2*%
X93405095Y-106576761D02*
X93547952Y-106624380D01*
X93786047Y-106624380D01*
X93881285Y-106576761D01*
X93928904Y-106529142D01*
X93976523Y-106433904D01*
X93976523Y-106338666D01*
X93928904Y-106243428D01*
X93881285Y-106195809D01*
X93786047Y-106148190D01*
X93595571Y-106100571D01*
X93500333Y-106052952D01*
X93452714Y-106005333D01*
X93405095Y-105910095D01*
X93405095Y-105814857D01*
X93452714Y-105719619D01*
X93500333Y-105672000D01*
X93595571Y-105624380D01*
X93833666Y-105624380D01*
X93976523Y-105672000D01*
X94357476Y-105719619D02*
X94405095Y-105672000D01*
X94500333Y-105624380D01*
X94738428Y-105624380D01*
X94833666Y-105672000D01*
X94881285Y-105719619D01*
X94928904Y-105814857D01*
X94928904Y-105910095D01*
X94881285Y-106052952D01*
X94309857Y-106624380D01*
X94928904Y-106624380D01*
%TO.C,S1*%
X111278095Y-106449761D02*
X111420952Y-106497380D01*
X111659047Y-106497380D01*
X111754285Y-106449761D01*
X111801904Y-106402142D01*
X111849523Y-106306904D01*
X111849523Y-106211666D01*
X111801904Y-106116428D01*
X111754285Y-106068809D01*
X111659047Y-106021190D01*
X111468571Y-105973571D01*
X111373333Y-105925952D01*
X111325714Y-105878333D01*
X111278095Y-105783095D01*
X111278095Y-105687857D01*
X111325714Y-105592619D01*
X111373333Y-105545000D01*
X111468571Y-105497380D01*
X111706666Y-105497380D01*
X111849523Y-105545000D01*
X112801904Y-106497380D02*
X112230476Y-106497380D01*
X112516190Y-106497380D02*
X112516190Y-105497380D01*
X112420952Y-105640238D01*
X112325714Y-105735476D01*
X112230476Y-105783095D01*
%TO.C,S0*%
X123825095Y-95654761D02*
X123967952Y-95702380D01*
X124206047Y-95702380D01*
X124301285Y-95654761D01*
X124348904Y-95607142D01*
X124396523Y-95511904D01*
X124396523Y-95416666D01*
X124348904Y-95321428D01*
X124301285Y-95273809D01*
X124206047Y-95226190D01*
X124015571Y-95178571D01*
X123920333Y-95130952D01*
X123872714Y-95083333D01*
X123825095Y-94988095D01*
X123825095Y-94892857D01*
X123872714Y-94797619D01*
X123920333Y-94750000D01*
X124015571Y-94702380D01*
X124253666Y-94702380D01*
X124396523Y-94750000D01*
X125015571Y-94702380D02*
X125110809Y-94702380D01*
X125206047Y-94750000D01*
X125253666Y-94797619D01*
X125301285Y-94892857D01*
X125348904Y-95083333D01*
X125348904Y-95321428D01*
X125301285Y-95511904D01*
X125253666Y-95607142D01*
X125206047Y-95654761D01*
X125110809Y-95702380D01*
X125015571Y-95702380D01*
X124920333Y-95654761D01*
X124872714Y-95607142D01*
X124825095Y-95511904D01*
X124777476Y-95321428D01*
X124777476Y-95083333D01*
X124825095Y-94892857D01*
X124872714Y-94797619D01*
X124920333Y-94750000D01*
X125015571Y-94702380D01*
%TO.C,ALED1*%
X49544266Y-30671828D02*
X49544266Y-30195638D01*
X49829980Y-30767066D02*
X48829980Y-30433733D01*
X49829980Y-30100400D01*
X49829980Y-29290876D02*
X49829980Y-29767066D01*
X48829980Y-29767066D01*
X49306171Y-28957542D02*
X49306171Y-28624209D01*
X49829980Y-28481352D02*
X49829980Y-28957542D01*
X48829980Y-28957542D01*
X48829980Y-28481352D01*
X49829980Y-28052780D02*
X48829980Y-28052780D01*
X48829980Y-27814685D01*
X48877600Y-27671828D01*
X48972838Y-27576590D01*
X49068076Y-27528971D01*
X49258552Y-27481352D01*
X49401409Y-27481352D01*
X49591885Y-27528971D01*
X49687123Y-27576590D01*
X49782361Y-27671828D01*
X49829980Y-27814685D01*
X49829980Y-28052780D01*
X49829980Y-26528971D02*
X49829980Y-27100400D01*
X49829980Y-26814685D02*
X48829980Y-26814685D01*
X48972838Y-26909923D01*
X49068076Y-27005161D01*
X49115695Y-27100400D01*
%TD*%
M02*
