%TF.GenerationSoftware,KiCad,Pcbnew,5.99.0+really5.1.10+dfsg1-1*%
%TF.CreationDate,2022-06-20T23:21:50+02:00*%
%TF.ProjectId,terrarium,74657272-6172-4697-956d-2e6b69636164,rev?*%
%TF.SameCoordinates,Original*%
%TF.FileFunction,Legend,Top*%
%TF.FilePolarity,Positive*%
%FSLAX46Y46*%
G04 Gerber Fmt 4.6, Leading zero omitted, Abs format (unit mm)*
G04 Created by KiCad (PCBNEW 5.99.0+really5.1.10+dfsg1-1) date 2022-06-20 23:21:50*
%MOMM*%
%LPD*%
G01*
G04 APERTURE LIST*
%ADD10C,0.150000*%
%ADD11C,0.250000*%
%ADD12C,0.500000*%
%TA.AperFunction,Profile*%
%ADD13C,0.050000*%
%TD*%
%ADD14C,0.120000*%
%ADD15C,0.300000*%
G04 APERTURE END LIST*
D10*
X50665623Y-70988180D02*
X50332290Y-70511990D01*
X50094195Y-70988180D02*
X50094195Y-69988180D01*
X50475147Y-69988180D01*
X50570385Y-70035800D01*
X50618004Y-70083419D01*
X50665623Y-70178657D01*
X50665623Y-70321514D01*
X50618004Y-70416752D01*
X50570385Y-70464371D01*
X50475147Y-70511990D01*
X50094195Y-70511990D01*
X50998957Y-69988180D02*
X51665623Y-70988180D01*
X51665623Y-69988180D02*
X50998957Y-70988180D01*
X50103738Y-67498980D02*
X50675166Y-67498980D01*
X50389452Y-68498980D02*
X50389452Y-67498980D01*
X50913261Y-67498980D02*
X51579928Y-68498980D01*
X51579928Y-67498980D02*
X50913261Y-68498980D01*
X50621185Y-65035180D02*
X50144995Y-65035180D01*
X50097376Y-65511371D01*
X50144995Y-65463752D01*
X50240233Y-65416133D01*
X50478328Y-65416133D01*
X50573566Y-65463752D01*
X50621185Y-65511371D01*
X50668804Y-65606609D01*
X50668804Y-65844704D01*
X50621185Y-65939942D01*
X50573566Y-65987561D01*
X50478328Y-66035180D01*
X50240233Y-66035180D01*
X50144995Y-65987561D01*
X50097376Y-65939942D01*
X50954519Y-65035180D02*
X51287852Y-66035180D01*
X51621185Y-65035180D01*
X50694204Y-72550400D02*
X50598966Y-72502780D01*
X50456109Y-72502780D01*
X50313252Y-72550400D01*
X50218014Y-72645638D01*
X50170395Y-72740876D01*
X50122776Y-72931352D01*
X50122776Y-73074209D01*
X50170395Y-73264685D01*
X50218014Y-73359923D01*
X50313252Y-73455161D01*
X50456109Y-73502780D01*
X50551347Y-73502780D01*
X50694204Y-73455161D01*
X50741823Y-73407542D01*
X50741823Y-73074209D01*
X50551347Y-73074209D01*
X51170395Y-73502780D02*
X51170395Y-72502780D01*
X51741823Y-73502780D01*
X51741823Y-72502780D01*
X52218014Y-73502780D02*
X52218014Y-72502780D01*
X52456109Y-72502780D01*
X52598966Y-72550400D01*
X52694204Y-72645638D01*
X52741823Y-72740876D01*
X52789442Y-72931352D01*
X52789442Y-73074209D01*
X52741823Y-73264685D01*
X52694204Y-73359923D01*
X52598966Y-73455161D01*
X52456109Y-73502780D01*
X52218014Y-73502780D01*
X50592604Y-50147600D02*
X50497366Y-50099980D01*
X50354509Y-50099980D01*
X50211652Y-50147600D01*
X50116414Y-50242838D01*
X50068795Y-50338076D01*
X50021176Y-50528552D01*
X50021176Y-50671409D01*
X50068795Y-50861885D01*
X50116414Y-50957123D01*
X50211652Y-51052361D01*
X50354509Y-51099980D01*
X50449747Y-51099980D01*
X50592604Y-51052361D01*
X50640223Y-51004742D01*
X50640223Y-50671409D01*
X50449747Y-50671409D01*
X51068795Y-51099980D02*
X51068795Y-50099980D01*
X51640223Y-51099980D01*
X51640223Y-50099980D01*
X52116414Y-51099980D02*
X52116414Y-50099980D01*
X52354509Y-50099980D01*
X52497366Y-50147600D01*
X52592604Y-50242838D01*
X52640223Y-50338076D01*
X52687842Y-50528552D01*
X52687842Y-50671409D01*
X52640223Y-50861885D01*
X52592604Y-50957123D01*
X52497366Y-51052361D01*
X52354509Y-51099980D01*
X52116414Y-51099980D01*
X50570385Y-52538380D02*
X50094195Y-52538380D01*
X50046576Y-53014571D01*
X50094195Y-52966952D01*
X50189433Y-52919333D01*
X50427528Y-52919333D01*
X50522766Y-52966952D01*
X50570385Y-53014571D01*
X50618004Y-53109809D01*
X50618004Y-53347904D01*
X50570385Y-53443142D01*
X50522766Y-53490761D01*
X50427528Y-53538380D01*
X50189433Y-53538380D01*
X50094195Y-53490761D01*
X50046576Y-53443142D01*
X50903719Y-52538380D02*
X51237052Y-53538380D01*
X51570385Y-52538380D01*
X50046576Y-58443761D02*
X50189433Y-58491380D01*
X50427528Y-58491380D01*
X50522766Y-58443761D01*
X50570385Y-58396142D01*
X50618004Y-58300904D01*
X50618004Y-58205666D01*
X50570385Y-58110428D01*
X50522766Y-58062809D01*
X50427528Y-58015190D01*
X50237052Y-57967571D01*
X50141814Y-57919952D01*
X50094195Y-57872333D01*
X50046576Y-57777095D01*
X50046576Y-57681857D01*
X50094195Y-57586619D01*
X50141814Y-57539000D01*
X50237052Y-57491380D01*
X50475147Y-57491380D01*
X50618004Y-57539000D01*
X51618004Y-58396142D02*
X51570385Y-58443761D01*
X51427528Y-58491380D01*
X51332290Y-58491380D01*
X51189433Y-58443761D01*
X51094195Y-58348523D01*
X51046576Y-58253285D01*
X50998957Y-58062809D01*
X50998957Y-57919952D01*
X51046576Y-57729476D01*
X51094195Y-57634238D01*
X51189433Y-57539000D01*
X51332290Y-57491380D01*
X51427528Y-57491380D01*
X51570385Y-57539000D01*
X51618004Y-57586619D01*
X52522766Y-58491380D02*
X52046576Y-58491380D01*
X52046576Y-57491380D01*
X50046576Y-55954561D02*
X50189433Y-56002180D01*
X50427528Y-56002180D01*
X50522766Y-55954561D01*
X50570385Y-55906942D01*
X50618004Y-55811704D01*
X50618004Y-55716466D01*
X50570385Y-55621228D01*
X50522766Y-55573609D01*
X50427528Y-55525990D01*
X50237052Y-55478371D01*
X50141814Y-55430752D01*
X50094195Y-55383133D01*
X50046576Y-55287895D01*
X50046576Y-55192657D01*
X50094195Y-55097419D01*
X50141814Y-55049800D01*
X50237052Y-55002180D01*
X50475147Y-55002180D01*
X50618004Y-55049800D01*
X51046576Y-56002180D02*
X51046576Y-55002180D01*
X51284671Y-55002180D01*
X51427528Y-55049800D01*
X51522766Y-55145038D01*
X51570385Y-55240276D01*
X51618004Y-55430752D01*
X51618004Y-55573609D01*
X51570385Y-55764085D01*
X51522766Y-55859323D01*
X51427528Y-55954561D01*
X51284671Y-56002180D01*
X51046576Y-56002180D01*
X51998957Y-55716466D02*
X52475147Y-55716466D01*
X51903719Y-56002180D02*
X52237052Y-55002180D01*
X52570385Y-56002180D01*
X109926380Y-94511690D02*
X109402571Y-94511690D01*
X109307333Y-94559309D01*
X109259714Y-94654547D01*
X109259714Y-94845023D01*
X109307333Y-94940261D01*
X109878761Y-94511690D02*
X109926380Y-94606928D01*
X109926380Y-94845023D01*
X109878761Y-94940261D01*
X109783523Y-94987880D01*
X109688285Y-94987880D01*
X109593047Y-94940261D01*
X109545428Y-94845023D01*
X109545428Y-94606928D01*
X109497809Y-94511690D01*
X109259714Y-93606928D02*
X109926380Y-93606928D01*
X109259714Y-94035500D02*
X109783523Y-94035500D01*
X109878761Y-93987880D01*
X109926380Y-93892642D01*
X109926380Y-93749785D01*
X109878761Y-93654547D01*
X109831142Y-93606928D01*
X109259714Y-93273595D02*
X109259714Y-92892642D01*
X108926380Y-93130738D02*
X109783523Y-93130738D01*
X109878761Y-93083119D01*
X109926380Y-92987880D01*
X109926380Y-92892642D01*
X109926380Y-92416452D02*
X109878761Y-92511690D01*
X109831142Y-92559309D01*
X109735904Y-92606928D01*
X109450190Y-92606928D01*
X109354952Y-92559309D01*
X109307333Y-92511690D01*
X109259714Y-92416452D01*
X109259714Y-92273595D01*
X109307333Y-92178357D01*
X109354952Y-92130738D01*
X109450190Y-92083119D01*
X109735904Y-92083119D01*
X109831142Y-92130738D01*
X109878761Y-92178357D01*
X109926380Y-92273595D01*
X109926380Y-92416452D01*
X60783404Y-38504761D02*
X60926261Y-38552380D01*
X61164357Y-38552380D01*
X61259595Y-38504761D01*
X61307214Y-38457142D01*
X61354833Y-38361904D01*
X61354833Y-38266666D01*
X61307214Y-38171428D01*
X61259595Y-38123809D01*
X61164357Y-38076190D01*
X60973880Y-38028571D01*
X60878642Y-37980952D01*
X60831023Y-37933333D01*
X60783404Y-37838095D01*
X60783404Y-37742857D01*
X60831023Y-37647619D01*
X60878642Y-37600000D01*
X60973880Y-37552380D01*
X61211976Y-37552380D01*
X61354833Y-37600000D01*
X61783404Y-38552380D02*
X61783404Y-37552380D01*
X62783404Y-37600000D02*
X62688166Y-37552380D01*
X62545309Y-37552380D01*
X62402452Y-37600000D01*
X62307214Y-37695238D01*
X62259595Y-37790476D01*
X62211976Y-37980952D01*
X62211976Y-38123809D01*
X62259595Y-38314285D01*
X62307214Y-38409523D01*
X62402452Y-38504761D01*
X62545309Y-38552380D01*
X62640547Y-38552380D01*
X62783404Y-38504761D01*
X62831023Y-38457142D01*
X62831023Y-38123809D01*
X62640547Y-38123809D01*
X60735785Y-35060000D02*
X60640547Y-35012380D01*
X60497690Y-35012380D01*
X60354833Y-35060000D01*
X60259595Y-35155238D01*
X60211976Y-35250476D01*
X60164357Y-35440952D01*
X60164357Y-35583809D01*
X60211976Y-35774285D01*
X60259595Y-35869523D01*
X60354833Y-35964761D01*
X60497690Y-36012380D01*
X60592928Y-36012380D01*
X60735785Y-35964761D01*
X60783404Y-35917142D01*
X60783404Y-35583809D01*
X60592928Y-35583809D01*
X61211976Y-36012380D02*
X61211976Y-35012380D01*
X61783404Y-36012380D01*
X61783404Y-35012380D01*
X62259595Y-36012380D02*
X62259595Y-35012380D01*
X62497690Y-35012380D01*
X62640547Y-35060000D01*
X62735785Y-35155238D01*
X62783404Y-35250476D01*
X62831023Y-35440952D01*
X62831023Y-35583809D01*
X62783404Y-35774285D01*
X62735785Y-35869523D01*
X62640547Y-35964761D01*
X62497690Y-36012380D01*
X62259595Y-36012380D01*
X61799261Y-32472380D02*
X61323071Y-32472380D01*
X61275452Y-32948571D01*
X61323071Y-32900952D01*
X61418309Y-32853333D01*
X61656404Y-32853333D01*
X61751642Y-32900952D01*
X61799261Y-32948571D01*
X61846880Y-33043809D01*
X61846880Y-33281904D01*
X61799261Y-33377142D01*
X61751642Y-33424761D01*
X61656404Y-33472380D01*
X61418309Y-33472380D01*
X61323071Y-33424761D01*
X61275452Y-33377142D01*
X62132595Y-32472380D02*
X62465928Y-33472380D01*
X62799261Y-32472380D01*
X60323071Y-30884761D02*
X60465928Y-30932380D01*
X60704023Y-30932380D01*
X60799261Y-30884761D01*
X60846880Y-30837142D01*
X60894500Y-30741904D01*
X60894500Y-30646666D01*
X60846880Y-30551428D01*
X60799261Y-30503809D01*
X60704023Y-30456190D01*
X60513547Y-30408571D01*
X60418309Y-30360952D01*
X60370690Y-30313333D01*
X60323071Y-30218095D01*
X60323071Y-30122857D01*
X60370690Y-30027619D01*
X60418309Y-29980000D01*
X60513547Y-29932380D01*
X60751642Y-29932380D01*
X60894500Y-29980000D01*
X61894500Y-30837142D02*
X61846880Y-30884761D01*
X61704023Y-30932380D01*
X61608785Y-30932380D01*
X61465928Y-30884761D01*
X61370690Y-30789523D01*
X61323071Y-30694285D01*
X61275452Y-30503809D01*
X61275452Y-30360952D01*
X61323071Y-30170476D01*
X61370690Y-30075238D01*
X61465928Y-29980000D01*
X61608785Y-29932380D01*
X61704023Y-29932380D01*
X61846880Y-29980000D01*
X61894500Y-30027619D01*
X62799261Y-30932380D02*
X62323071Y-30932380D01*
X62323071Y-29932380D01*
X60275452Y-28471761D02*
X60418309Y-28519380D01*
X60656404Y-28519380D01*
X60751642Y-28471761D01*
X60799261Y-28424142D01*
X60846880Y-28328904D01*
X60846880Y-28233666D01*
X60799261Y-28138428D01*
X60751642Y-28090809D01*
X60656404Y-28043190D01*
X60465928Y-27995571D01*
X60370690Y-27947952D01*
X60323071Y-27900333D01*
X60275452Y-27805095D01*
X60275452Y-27709857D01*
X60323071Y-27614619D01*
X60370690Y-27567000D01*
X60465928Y-27519380D01*
X60704023Y-27519380D01*
X60846880Y-27567000D01*
X61275452Y-28519380D02*
X61275452Y-27519380D01*
X61513547Y-27519380D01*
X61656404Y-27567000D01*
X61751642Y-27662238D01*
X61799261Y-27757476D01*
X61846880Y-27947952D01*
X61846880Y-28090809D01*
X61799261Y-28281285D01*
X61751642Y-28376523D01*
X61656404Y-28471761D01*
X61513547Y-28519380D01*
X61275452Y-28519380D01*
X62227833Y-28233666D02*
X62704023Y-28233666D01*
X62132595Y-28519380D02*
X62465928Y-27519380D01*
X62799261Y-28519380D01*
X118070380Y-68026500D02*
X118070380Y-68502690D01*
X118546571Y-68550309D01*
X118498952Y-68502690D01*
X118451333Y-68407452D01*
X118451333Y-68169357D01*
X118498952Y-68074119D01*
X118546571Y-68026500D01*
X118641809Y-67978880D01*
X118879904Y-67978880D01*
X118975142Y-68026500D01*
X119022761Y-68074119D01*
X119070380Y-68169357D01*
X119070380Y-68407452D01*
X119022761Y-68502690D01*
X118975142Y-68550309D01*
X118403714Y-67645547D02*
X119070380Y-67407452D01*
X118403714Y-67169357D01*
X108656380Y-79345023D02*
X107656380Y-79345023D01*
X107656380Y-78964071D01*
X107704000Y-78868833D01*
X107751619Y-78821214D01*
X107846857Y-78773595D01*
X107989714Y-78773595D01*
X108084952Y-78821214D01*
X108132571Y-78868833D01*
X108180190Y-78964071D01*
X108180190Y-79345023D01*
X108656380Y-77773595D02*
X108180190Y-78106928D01*
X108656380Y-78345023D02*
X107656380Y-78345023D01*
X107656380Y-77964071D01*
X107704000Y-77868833D01*
X107751619Y-77821214D01*
X107846857Y-77773595D01*
X107989714Y-77773595D01*
X108084952Y-77821214D01*
X108132571Y-77868833D01*
X108180190Y-77964071D01*
X108180190Y-78345023D01*
X107656380Y-77154547D02*
X107656380Y-76964071D01*
X107704000Y-76868833D01*
X107799238Y-76773595D01*
X107989714Y-76725976D01*
X108323047Y-76725976D01*
X108513523Y-76773595D01*
X108608761Y-76868833D01*
X108656380Y-76964071D01*
X108656380Y-77154547D01*
X108608761Y-77249785D01*
X108513523Y-77345023D01*
X108323047Y-77392642D01*
X107989714Y-77392642D01*
X107799238Y-77345023D01*
X107704000Y-77249785D01*
X107656380Y-77154547D01*
X107704000Y-75773595D02*
X107656380Y-75868833D01*
X107656380Y-76011690D01*
X107704000Y-76154547D01*
X107799238Y-76249785D01*
X107894476Y-76297404D01*
X108084952Y-76345023D01*
X108227809Y-76345023D01*
X108418285Y-76297404D01*
X108513523Y-76249785D01*
X108608761Y-76154547D01*
X108656380Y-76011690D01*
X108656380Y-75916452D01*
X108608761Y-75773595D01*
X108561142Y-75725976D01*
X108227809Y-75725976D01*
X108227809Y-75916452D01*
D11*
X120904000Y-75692000D02*
X108839000Y-75692000D01*
X120904000Y-96266000D02*
X120904000Y-75692000D01*
X108839000Y-96266000D02*
X120904000Y-96266000D01*
X108839000Y-75692000D02*
X108839000Y-96266000D01*
D12*
X122428000Y-112776000D02*
X50546000Y-112776000D01*
D13*
X51054000Y-97536000D02*
G75*
G02*
X51054000Y-96520000I0J508000D01*
G01*
X122047000Y-96520000D02*
G75*
G02*
X122047000Y-97536000I0J-508000D01*
G01*
D12*
X122428000Y-112776000D02*
X122428000Y-98044000D01*
D13*
X122047000Y-97536000D02*
X51054000Y-97536000D01*
X51054000Y-96520000D02*
X122047000Y-96520000D01*
D10*
X105846571Y-71153785D02*
X105846571Y-70820452D01*
X106370380Y-70677595D02*
X106370380Y-71153785D01*
X105370380Y-71153785D01*
X105370380Y-70677595D01*
X106370380Y-70249023D02*
X105370380Y-70249023D01*
X106370380Y-69677595D01*
X105370380Y-69677595D01*
X108910380Y-71169595D02*
X107910380Y-71169595D01*
X107910380Y-70502928D02*
X107910380Y-70312452D01*
X107958000Y-70217214D01*
X108053238Y-70121976D01*
X108243714Y-70074357D01*
X108577047Y-70074357D01*
X108767523Y-70121976D01*
X108862761Y-70217214D01*
X108910380Y-70312452D01*
X108910380Y-70502928D01*
X108862761Y-70598166D01*
X108767523Y-70693404D01*
X108577047Y-70741023D01*
X108243714Y-70741023D01*
X108053238Y-70693404D01*
X107958000Y-70598166D01*
X107910380Y-70502928D01*
X107910380Y-69455309D02*
X107910380Y-69360071D01*
X107958000Y-69264833D01*
X108005619Y-69217214D01*
X108100857Y-69169595D01*
X108291333Y-69121976D01*
X108529428Y-69121976D01*
X108719904Y-69169595D01*
X108815142Y-69217214D01*
X108862761Y-69264833D01*
X108910380Y-69360071D01*
X108910380Y-69455309D01*
X108862761Y-69550547D01*
X108815142Y-69598166D01*
X108719904Y-69645785D01*
X108529428Y-69693404D01*
X108291333Y-69693404D01*
X108100857Y-69645785D01*
X108005619Y-69598166D01*
X107958000Y-69550547D01*
X107910380Y-69455309D01*
D12*
X50546000Y-98044000D02*
X122428000Y-98044000D01*
X50546000Y-112776000D02*
X50546000Y-98044000D01*
D10*
X115403380Y-71201309D02*
X115403380Y-70582261D01*
X115784333Y-70915595D01*
X115784333Y-70772738D01*
X115831952Y-70677500D01*
X115879571Y-70629880D01*
X115974809Y-70582261D01*
X116212904Y-70582261D01*
X116308142Y-70629880D01*
X116355761Y-70677500D01*
X116403380Y-70772738D01*
X116403380Y-71058452D01*
X116355761Y-71153690D01*
X116308142Y-71201309D01*
X115736714Y-70248928D02*
X116403380Y-70010833D01*
X115736714Y-69772738D01*
X115403380Y-69487023D02*
X115403380Y-68867976D01*
X115784333Y-69201309D01*
X115784333Y-69058452D01*
X115831952Y-68963214D01*
X115879571Y-68915595D01*
X115974809Y-68867976D01*
X116212904Y-68867976D01*
X116308142Y-68915595D01*
X116355761Y-68963214D01*
X116403380Y-69058452D01*
X116403380Y-69344166D01*
X116355761Y-69439404D01*
X116308142Y-69487023D01*
X112863380Y-71185547D02*
X112863380Y-70614119D01*
X113863380Y-70899833D02*
X112863380Y-70899833D01*
X112863380Y-70376023D02*
X113863380Y-69709357D01*
X112863380Y-69709357D02*
X113863380Y-70376023D01*
X111501180Y-70582357D02*
X111024990Y-70915690D01*
X111501180Y-71153785D02*
X110501180Y-71153785D01*
X110501180Y-70772833D01*
X110548800Y-70677595D01*
X110596419Y-70629976D01*
X110691657Y-70582357D01*
X110834514Y-70582357D01*
X110929752Y-70629976D01*
X110977371Y-70677595D01*
X111024990Y-70772833D01*
X111024990Y-71153785D01*
X110501180Y-70249023D02*
X111501180Y-69582357D01*
X110501180Y-69582357D02*
X111501180Y-70249023D01*
X120150000Y-73503214D02*
X120102380Y-73598452D01*
X120102380Y-73741309D01*
X120150000Y-73884166D01*
X120245238Y-73979404D01*
X120340476Y-74027023D01*
X120530952Y-74074642D01*
X120673809Y-74074642D01*
X120864285Y-74027023D01*
X120959523Y-73979404D01*
X121054761Y-73884166D01*
X121102380Y-73741309D01*
X121102380Y-73646071D01*
X121054761Y-73503214D01*
X121007142Y-73455595D01*
X120673809Y-73455595D01*
X120673809Y-73646071D01*
X121102380Y-73027023D02*
X120102380Y-73027023D01*
X121102380Y-72455595D01*
X120102380Y-72455595D01*
X121102380Y-71979404D02*
X120102380Y-71979404D01*
X120102380Y-71741309D01*
X120150000Y-71598452D01*
X120245238Y-71503214D01*
X120340476Y-71455595D01*
X120530952Y-71407976D01*
X120673809Y-71407976D01*
X120864285Y-71455595D01*
X120959523Y-71503214D01*
X121054761Y-71598452D01*
X121102380Y-71741309D01*
X121102380Y-71979404D01*
D12*
X130750000Y-42000000D02*
X130750000Y-70500000D01*
X124500000Y-42000000D02*
X130750000Y-42000000D01*
X124500000Y-70500000D02*
X124500000Y-42000000D01*
X130750000Y-70500000D02*
X124500000Y-70500000D01*
D14*
X53708300Y-35267900D02*
X54851500Y-36352500D01*
D15*
X58952571Y-101429428D02*
X59024000Y-101358000D01*
X59166857Y-101286571D01*
X59524000Y-101286571D01*
X59666857Y-101358000D01*
X59738285Y-101429428D01*
X59809714Y-101572285D01*
X59809714Y-101715142D01*
X59738285Y-101929428D01*
X58881142Y-102786571D01*
X59809714Y-102786571D01*
X60381142Y-101429428D02*
X60452571Y-101358000D01*
X60595428Y-101286571D01*
X60952571Y-101286571D01*
X61095428Y-101358000D01*
X61166857Y-101429428D01*
X61238285Y-101572285D01*
X61238285Y-101715142D01*
X61166857Y-101929428D01*
X60309714Y-102786571D01*
X61238285Y-102786571D01*
X62166857Y-101286571D02*
X62309714Y-101286571D01*
X62452571Y-101358000D01*
X62524000Y-101429428D01*
X62595428Y-101572285D01*
X62666857Y-101858000D01*
X62666857Y-102215142D01*
X62595428Y-102500857D01*
X62524000Y-102643714D01*
X62452571Y-102715142D01*
X62309714Y-102786571D01*
X62166857Y-102786571D01*
X62024000Y-102715142D01*
X61952571Y-102643714D01*
X61881142Y-102500857D01*
X61809714Y-102215142D01*
X61809714Y-101858000D01*
X61881142Y-101572285D01*
X61952571Y-101429428D01*
X62024000Y-101358000D01*
X62166857Y-101286571D01*
X63166857Y-101786571D02*
X63524000Y-102786571D01*
X63881142Y-101786571D01*
X65809714Y-102786571D02*
X65666857Y-102715142D01*
X65595428Y-102643714D01*
X65524000Y-102500857D01*
X65524000Y-102072285D01*
X65595428Y-101929428D01*
X65666857Y-101858000D01*
X65809714Y-101786571D01*
X66024000Y-101786571D01*
X66166857Y-101858000D01*
X66238285Y-101929428D01*
X66309714Y-102072285D01*
X66309714Y-102500857D01*
X66238285Y-102643714D01*
X66166857Y-102715142D01*
X66024000Y-102786571D01*
X65809714Y-102786571D01*
X67595428Y-101786571D02*
X67595428Y-102786571D01*
X66952571Y-101786571D02*
X66952571Y-102572285D01*
X67024000Y-102715142D01*
X67166857Y-102786571D01*
X67381142Y-102786571D01*
X67524000Y-102715142D01*
X67595428Y-102643714D01*
X68095428Y-101786571D02*
X68666857Y-101786571D01*
X68309714Y-101286571D02*
X68309714Y-102572285D01*
X68381142Y-102715142D01*
X68524000Y-102786571D01*
X68666857Y-102786571D01*
X70166857Y-101286571D02*
X71095428Y-101286571D01*
X70595428Y-101858000D01*
X70809714Y-101858000D01*
X70952571Y-101929428D01*
X71024000Y-102000857D01*
X71095428Y-102143714D01*
X71095428Y-102500857D01*
X71024000Y-102643714D01*
X70952571Y-102715142D01*
X70809714Y-102786571D01*
X70381142Y-102786571D01*
X70238285Y-102715142D01*
X70166857Y-102643714D01*
X112296285Y-101429428D02*
X112367714Y-101358000D01*
X112510571Y-101286571D01*
X112867714Y-101286571D01*
X113010571Y-101358000D01*
X113082000Y-101429428D01*
X113153428Y-101572285D01*
X113153428Y-101715142D01*
X113082000Y-101929428D01*
X112224857Y-102786571D01*
X113153428Y-102786571D01*
X113724857Y-101429428D02*
X113796285Y-101358000D01*
X113939142Y-101286571D01*
X114296285Y-101286571D01*
X114439142Y-101358000D01*
X114510571Y-101429428D01*
X114582000Y-101572285D01*
X114582000Y-101715142D01*
X114510571Y-101929428D01*
X113653428Y-102786571D01*
X114582000Y-102786571D01*
X115510571Y-101286571D02*
X115653428Y-101286571D01*
X115796285Y-101358000D01*
X115867714Y-101429428D01*
X115939142Y-101572285D01*
X116010571Y-101858000D01*
X116010571Y-102215142D01*
X115939142Y-102500857D01*
X115867714Y-102643714D01*
X115796285Y-102715142D01*
X115653428Y-102786571D01*
X115510571Y-102786571D01*
X115367714Y-102715142D01*
X115296285Y-102643714D01*
X115224857Y-102500857D01*
X115153428Y-102215142D01*
X115153428Y-101858000D01*
X115224857Y-101572285D01*
X115296285Y-101429428D01*
X115367714Y-101358000D01*
X115510571Y-101286571D01*
X116510571Y-101786571D02*
X116867714Y-102786571D01*
X117224857Y-101786571D01*
X118939142Y-102786571D02*
X118939142Y-101786571D01*
X118939142Y-101286571D02*
X118867714Y-101358000D01*
X118939142Y-101429428D01*
X119010571Y-101358000D01*
X118939142Y-101286571D01*
X118939142Y-101429428D01*
X119653428Y-101786571D02*
X119653428Y-102786571D01*
X119653428Y-101929428D02*
X119724857Y-101858000D01*
X119867714Y-101786571D01*
X120082000Y-101786571D01*
X120224857Y-101858000D01*
X120296285Y-102000857D01*
X120296285Y-102786571D01*
X78256571Y-101429428D02*
X78328000Y-101358000D01*
X78470857Y-101286571D01*
X78828000Y-101286571D01*
X78970857Y-101358000D01*
X79042285Y-101429428D01*
X79113714Y-101572285D01*
X79113714Y-101715142D01*
X79042285Y-101929428D01*
X78185142Y-102786571D01*
X79113714Y-102786571D01*
X79685142Y-101429428D02*
X79756571Y-101358000D01*
X79899428Y-101286571D01*
X80256571Y-101286571D01*
X80399428Y-101358000D01*
X80470857Y-101429428D01*
X80542285Y-101572285D01*
X80542285Y-101715142D01*
X80470857Y-101929428D01*
X79613714Y-102786571D01*
X80542285Y-102786571D01*
X81470857Y-101286571D02*
X81613714Y-101286571D01*
X81756571Y-101358000D01*
X81828000Y-101429428D01*
X81899428Y-101572285D01*
X81970857Y-101858000D01*
X81970857Y-102215142D01*
X81899428Y-102500857D01*
X81828000Y-102643714D01*
X81756571Y-102715142D01*
X81613714Y-102786571D01*
X81470857Y-102786571D01*
X81328000Y-102715142D01*
X81256571Y-102643714D01*
X81185142Y-102500857D01*
X81113714Y-102215142D01*
X81113714Y-101858000D01*
X81185142Y-101572285D01*
X81256571Y-101429428D01*
X81328000Y-101358000D01*
X81470857Y-101286571D01*
X82470857Y-101786571D02*
X82828000Y-102786571D01*
X83185142Y-101786571D01*
X85113714Y-102786571D02*
X84970857Y-102715142D01*
X84899428Y-102643714D01*
X84828000Y-102500857D01*
X84828000Y-102072285D01*
X84899428Y-101929428D01*
X84970857Y-101858000D01*
X85113714Y-101786571D01*
X85328000Y-101786571D01*
X85470857Y-101858000D01*
X85542285Y-101929428D01*
X85613714Y-102072285D01*
X85613714Y-102500857D01*
X85542285Y-102643714D01*
X85470857Y-102715142D01*
X85328000Y-102786571D01*
X85113714Y-102786571D01*
X86899428Y-101786571D02*
X86899428Y-102786571D01*
X86256571Y-101786571D02*
X86256571Y-102572285D01*
X86328000Y-102715142D01*
X86470857Y-102786571D01*
X86685142Y-102786571D01*
X86828000Y-102715142D01*
X86899428Y-102643714D01*
X87399428Y-101786571D02*
X87970857Y-101786571D01*
X87613714Y-101286571D02*
X87613714Y-102572285D01*
X87685142Y-102715142D01*
X87828000Y-102786571D01*
X87970857Y-102786571D01*
X89542285Y-101429428D02*
X89613714Y-101358000D01*
X89756571Y-101286571D01*
X90113714Y-101286571D01*
X90256571Y-101358000D01*
X90328000Y-101429428D01*
X90399428Y-101572285D01*
X90399428Y-101715142D01*
X90328000Y-101929428D01*
X89470857Y-102786571D01*
X90399428Y-102786571D01*
X97560571Y-101429428D02*
X97632000Y-101358000D01*
X97774857Y-101286571D01*
X98132000Y-101286571D01*
X98274857Y-101358000D01*
X98346285Y-101429428D01*
X98417714Y-101572285D01*
X98417714Y-101715142D01*
X98346285Y-101929428D01*
X97489142Y-102786571D01*
X98417714Y-102786571D01*
X98989142Y-101429428D02*
X99060571Y-101358000D01*
X99203428Y-101286571D01*
X99560571Y-101286571D01*
X99703428Y-101358000D01*
X99774857Y-101429428D01*
X99846285Y-101572285D01*
X99846285Y-101715142D01*
X99774857Y-101929428D01*
X98917714Y-102786571D01*
X99846285Y-102786571D01*
X100774857Y-101286571D02*
X100917714Y-101286571D01*
X101060571Y-101358000D01*
X101132000Y-101429428D01*
X101203428Y-101572285D01*
X101274857Y-101858000D01*
X101274857Y-102215142D01*
X101203428Y-102500857D01*
X101132000Y-102643714D01*
X101060571Y-102715142D01*
X100917714Y-102786571D01*
X100774857Y-102786571D01*
X100632000Y-102715142D01*
X100560571Y-102643714D01*
X100489142Y-102500857D01*
X100417714Y-102215142D01*
X100417714Y-101858000D01*
X100489142Y-101572285D01*
X100560571Y-101429428D01*
X100632000Y-101358000D01*
X100774857Y-101286571D01*
X101774857Y-101786571D02*
X102132000Y-102786571D01*
X102489142Y-101786571D01*
X104417714Y-102786571D02*
X104274857Y-102715142D01*
X104203428Y-102643714D01*
X104132000Y-102500857D01*
X104132000Y-102072285D01*
X104203428Y-101929428D01*
X104274857Y-101858000D01*
X104417714Y-101786571D01*
X104632000Y-101786571D01*
X104774857Y-101858000D01*
X104846285Y-101929428D01*
X104917714Y-102072285D01*
X104917714Y-102500857D01*
X104846285Y-102643714D01*
X104774857Y-102715142D01*
X104632000Y-102786571D01*
X104417714Y-102786571D01*
X106203428Y-101786571D02*
X106203428Y-102786571D01*
X105560571Y-101786571D02*
X105560571Y-102572285D01*
X105632000Y-102715142D01*
X105774857Y-102786571D01*
X105989142Y-102786571D01*
X106132000Y-102715142D01*
X106203428Y-102643714D01*
X106703428Y-101786571D02*
X107274857Y-101786571D01*
X106917714Y-101286571D02*
X106917714Y-102572285D01*
X106989142Y-102715142D01*
X107132000Y-102786571D01*
X107274857Y-102786571D01*
X109703428Y-102786571D02*
X108846285Y-102786571D01*
X109274857Y-102786571D02*
X109274857Y-101286571D01*
X109132000Y-101500857D01*
X108989142Y-101643714D01*
X108846285Y-101715142D01*
D13*
X45000000Y-113000000D02*
G75*
G02*
X41000000Y-109000000I0J4000000D01*
G01*
X131000000Y-109000000D02*
G75*
G02*
X127000000Y-113000000I-4000000J0D01*
G01*
X127000000Y-23000000D02*
G75*
G02*
X131000000Y-27000000I0J-4000000D01*
G01*
X41000000Y-27000000D02*
G75*
G02*
X45000000Y-23000000I4000000J0D01*
G01*
D10*
X128373119Y-51768952D02*
X127658833Y-51768952D01*
X127515976Y-51721333D01*
X127420738Y-51626095D01*
X127373119Y-51483238D01*
X127373119Y-51388000D01*
X127373119Y-52721333D02*
X127373119Y-52245142D01*
X128373119Y-52245142D01*
X127468357Y-53626095D02*
X127420738Y-53578476D01*
X127373119Y-53435619D01*
X127373119Y-53340380D01*
X127420738Y-53197523D01*
X127515976Y-53102285D01*
X127611214Y-53054666D01*
X127801690Y-53007047D01*
X127944547Y-53007047D01*
X128135023Y-53054666D01*
X128230261Y-53102285D01*
X128325500Y-53197523D01*
X128373119Y-53340380D01*
X128373119Y-53435619D01*
X128325500Y-53578476D01*
X128277880Y-53626095D01*
X128373119Y-54340380D02*
X127658833Y-54340380D01*
X127515976Y-54292761D01*
X127420738Y-54197523D01*
X127373119Y-54054666D01*
X127373119Y-53959428D01*
X127373119Y-55292761D02*
X127373119Y-54816571D01*
X128373119Y-54816571D01*
X127468357Y-56197523D02*
X127420738Y-56149904D01*
X127373119Y-56007047D01*
X127373119Y-55911809D01*
X127420738Y-55768952D01*
X127515976Y-55673714D01*
X127611214Y-55626095D01*
X127801690Y-55578476D01*
X127944547Y-55578476D01*
X128135023Y-55626095D01*
X128230261Y-55673714D01*
X128325500Y-55768952D01*
X128373119Y-55911809D01*
X128373119Y-56007047D01*
X128325500Y-56149904D01*
X128277880Y-56197523D01*
X128373119Y-56911809D02*
X127658833Y-56911809D01*
X127515976Y-56864190D01*
X127420738Y-56768952D01*
X127373119Y-56626095D01*
X127373119Y-56530857D01*
X127373119Y-57864190D02*
X127373119Y-57388000D01*
X128373119Y-57388000D01*
X127468357Y-58768952D02*
X127420738Y-58721333D01*
X127373119Y-58578476D01*
X127373119Y-58483238D01*
X127420738Y-58340380D01*
X127515976Y-58245142D01*
X127611214Y-58197523D01*
X127801690Y-58149904D01*
X127944547Y-58149904D01*
X128135023Y-58197523D01*
X128230261Y-58245142D01*
X128325500Y-58340380D01*
X128373119Y-58483238D01*
X128373119Y-58578476D01*
X128325500Y-58721333D01*
X128277880Y-58768952D01*
X128373119Y-59483238D02*
X127658833Y-59483238D01*
X127515976Y-59435619D01*
X127420738Y-59340380D01*
X127373119Y-59197523D01*
X127373119Y-59102285D01*
X127373119Y-60435619D02*
X127373119Y-59959428D01*
X128373119Y-59959428D01*
X127468357Y-61340380D02*
X127420738Y-61292761D01*
X127373119Y-61149904D01*
X127373119Y-61054666D01*
X127420738Y-60911809D01*
X127515976Y-60816571D01*
X127611214Y-60768952D01*
X127801690Y-60721333D01*
X127944547Y-60721333D01*
X128135023Y-60768952D01*
X128230261Y-60816571D01*
X128325500Y-60911809D01*
X128373119Y-61054666D01*
X128373119Y-61149904D01*
X128325500Y-61292761D01*
X128277880Y-61340380D01*
D13*
X127000000Y-23000000D02*
X45000000Y-23000000D01*
X131000000Y-109000000D02*
X131000000Y-27000000D01*
X45000000Y-113000000D02*
X127000000Y-113000000D01*
X41000000Y-27000000D02*
X41000000Y-109000000D01*
D14*
%TO.C,U6*%
X60740800Y-45660000D02*
G75*
G02*
X58740800Y-45660000I-1000000J0D01*
G01*
X58740800Y-45660000D02*
X60740800Y-45660000D01*
%TO.C,LED8*%
X49450000Y-35540000D02*
X43480000Y-35540000D01*
X43480000Y-35540000D02*
X43480000Y-45660000D01*
X43480000Y-45660000D02*
X49450000Y-45660000D01*
X49450000Y-45660000D02*
X49450000Y-35540000D01*
X49440000Y-38850000D02*
X48690000Y-38850000D01*
X48690000Y-38850000D02*
X48690000Y-42350000D01*
X48690000Y-42350000D02*
X49440000Y-42350000D01*
X49440000Y-42350000D02*
X49440000Y-38850000D01*
X49440000Y-35550000D02*
X48690000Y-35550000D01*
X48690000Y-35550000D02*
X48690000Y-37350000D01*
X48690000Y-37350000D02*
X49440000Y-37350000D01*
X49440000Y-37350000D02*
X49440000Y-35550000D01*
X49440000Y-43850000D02*
X48690000Y-43850000D01*
X48690000Y-43850000D02*
X48690000Y-45650000D01*
X48690000Y-45650000D02*
X49440000Y-45650000D01*
X49440000Y-45650000D02*
X49440000Y-43850000D01*
X47190000Y-35550000D02*
X47190000Y-36300000D01*
X47190000Y-36300000D02*
X44240000Y-36300000D01*
X44240000Y-36300000D02*
X44240000Y-40600000D01*
X47190000Y-45650000D02*
X47190000Y-44900000D01*
X47190000Y-44900000D02*
X44240000Y-44900000D01*
X44240000Y-44900000D02*
X44240000Y-40600000D01*
X49740000Y-36500000D02*
X49740000Y-35250000D01*
X49740000Y-35250000D02*
X48490000Y-35250000D01*
%TO.C,BT1*%
X42500000Y-86750000D02*
X48500000Y-86750000D01*
X42500000Y-99750000D02*
X42500000Y-86750000D01*
X48500000Y-99750000D02*
X42500000Y-99750000D01*
X48500000Y-86750000D02*
X48500000Y-99750000D01*
%TO.C,R24*%
X119603436Y-40597500D02*
X121057564Y-40597500D01*
X119603436Y-38777500D02*
X121057564Y-38777500D01*
%TO.C,C10*%
X110151500Y-92887748D02*
X110151500Y-94310252D01*
X111971500Y-92887748D02*
X111971500Y-94310252D01*
%TO.C,S3*%
X59960000Y-112560000D02*
X70120000Y-112560000D01*
X59960000Y-104940000D02*
X59960000Y-112560000D01*
X70120000Y-104940000D02*
X59960000Y-104940000D01*
X70120000Y-112560000D02*
X70120000Y-104940000D01*
X70120000Y-111290000D02*
X59960000Y-111290000D01*
X70120000Y-104940000D02*
X71120000Y-104940000D01*
X70120000Y-112560000D02*
X71120000Y-112560000D01*
X58960000Y-104940000D02*
X59960000Y-104940000D01*
X58960000Y-112560000D02*
X59960000Y-112560000D01*
X58960000Y-104940000D02*
X58960000Y-112560000D01*
X71120000Y-104940000D02*
X71120000Y-112560000D01*
%TO.C,S2*%
X79210000Y-112560000D02*
X89370000Y-112560000D01*
X79210000Y-104940000D02*
X79210000Y-112560000D01*
X89370000Y-104940000D02*
X79210000Y-104940000D01*
X89370000Y-112560000D02*
X89370000Y-104940000D01*
X89370000Y-111290000D02*
X79210000Y-111290000D01*
X89370000Y-104940000D02*
X90370000Y-104940000D01*
X90370000Y-104940000D02*
X90370000Y-112560000D01*
X90370000Y-112560000D02*
X89370000Y-112560000D01*
X78210000Y-104940000D02*
X78210000Y-112560000D01*
X78210000Y-104940000D02*
X79210000Y-104940000D01*
X78210000Y-112560000D02*
X79210000Y-112560000D01*
%TO.C,SENS5*%
X114460000Y-25440000D02*
X108490000Y-25440000D01*
X108490000Y-25440000D02*
X108490000Y-40560000D01*
X108490000Y-40560000D02*
X114460000Y-40560000D01*
X114460000Y-40560000D02*
X114460000Y-25440000D01*
X114450000Y-28750000D02*
X113700000Y-28750000D01*
X113700000Y-28750000D02*
X113700000Y-37250000D01*
X113700000Y-37250000D02*
X114450000Y-37250000D01*
X114450000Y-37250000D02*
X114450000Y-28750000D01*
X114450000Y-25450000D02*
X113700000Y-25450000D01*
X113700000Y-25450000D02*
X113700000Y-27250000D01*
X113700000Y-27250000D02*
X114450000Y-27250000D01*
X114450000Y-27250000D02*
X114450000Y-25450000D01*
X114450000Y-38750000D02*
X113700000Y-38750000D01*
X113700000Y-38750000D02*
X113700000Y-40550000D01*
X113700000Y-40550000D02*
X114450000Y-40550000D01*
X114450000Y-40550000D02*
X114450000Y-38750000D01*
X112200000Y-25450000D02*
X112200000Y-26200000D01*
X109250000Y-33000000D02*
X109250000Y-26200000D01*
X112200000Y-40550000D02*
X112200000Y-39800000D01*
X112200000Y-39800000D02*
X109250000Y-39800000D01*
X109250000Y-39800000D02*
X109250000Y-33000000D01*
X114750000Y-26400000D02*
X114750000Y-25150000D01*
X114750000Y-25150000D02*
X113500000Y-25150000D01*
X112200000Y-26200000D02*
X109250000Y-26200000D01*
%TO.C,SENS4*%
X105460000Y-25440000D02*
X99490000Y-25440000D01*
X99490000Y-25440000D02*
X99490000Y-40560000D01*
X99490000Y-40560000D02*
X105460000Y-40560000D01*
X105460000Y-40560000D02*
X105460000Y-25440000D01*
X105450000Y-28750000D02*
X104700000Y-28750000D01*
X104700000Y-28750000D02*
X104700000Y-37250000D01*
X104700000Y-37250000D02*
X105450000Y-37250000D01*
X105450000Y-37250000D02*
X105450000Y-28750000D01*
X105450000Y-25450000D02*
X104700000Y-25450000D01*
X104700000Y-25450000D02*
X104700000Y-27250000D01*
X104700000Y-27250000D02*
X105450000Y-27250000D01*
X105450000Y-27250000D02*
X105450000Y-25450000D01*
X105450000Y-38750000D02*
X104700000Y-38750000D01*
X104700000Y-38750000D02*
X104700000Y-40550000D01*
X104700000Y-40550000D02*
X105450000Y-40550000D01*
X105450000Y-40550000D02*
X105450000Y-38750000D01*
X103200000Y-25450000D02*
X103200000Y-26200000D01*
X100250000Y-33000000D02*
X100250000Y-26200000D01*
X103200000Y-40550000D02*
X103200000Y-39800000D01*
X103200000Y-39800000D02*
X100250000Y-39800000D01*
X100250000Y-39800000D02*
X100250000Y-33000000D01*
X105750000Y-26400000D02*
X105750000Y-25150000D01*
X105750000Y-25150000D02*
X104500000Y-25150000D01*
X103200000Y-26200000D02*
X100250000Y-26200000D01*
%TO.C,SENS3*%
X96460000Y-25440000D02*
X90490000Y-25440000D01*
X90490000Y-25440000D02*
X90490000Y-40560000D01*
X90490000Y-40560000D02*
X96460000Y-40560000D01*
X96460000Y-40560000D02*
X96460000Y-25440000D01*
X96450000Y-28750000D02*
X95700000Y-28750000D01*
X95700000Y-28750000D02*
X95700000Y-37250000D01*
X95700000Y-37250000D02*
X96450000Y-37250000D01*
X96450000Y-37250000D02*
X96450000Y-28750000D01*
X96450000Y-25450000D02*
X95700000Y-25450000D01*
X95700000Y-25450000D02*
X95700000Y-27250000D01*
X95700000Y-27250000D02*
X96450000Y-27250000D01*
X96450000Y-27250000D02*
X96450000Y-25450000D01*
X96450000Y-38750000D02*
X95700000Y-38750000D01*
X95700000Y-38750000D02*
X95700000Y-40550000D01*
X95700000Y-40550000D02*
X96450000Y-40550000D01*
X96450000Y-40550000D02*
X96450000Y-38750000D01*
X94200000Y-25450000D02*
X94200000Y-26200000D01*
X91250000Y-33000000D02*
X91250000Y-26200000D01*
X94200000Y-40550000D02*
X94200000Y-39800000D01*
X94200000Y-39800000D02*
X91250000Y-39800000D01*
X91250000Y-39800000D02*
X91250000Y-33000000D01*
X96750000Y-26400000D02*
X96750000Y-25150000D01*
X96750000Y-25150000D02*
X95500000Y-25150000D01*
X94200000Y-26200000D02*
X91250000Y-26200000D01*
%TO.C,SENS2*%
X87460000Y-25440000D02*
X81490000Y-25440000D01*
X81490000Y-25440000D02*
X81490000Y-40560000D01*
X81490000Y-40560000D02*
X87460000Y-40560000D01*
X87460000Y-40560000D02*
X87460000Y-25440000D01*
X87450000Y-28750000D02*
X86700000Y-28750000D01*
X86700000Y-28750000D02*
X86700000Y-37250000D01*
X86700000Y-37250000D02*
X87450000Y-37250000D01*
X87450000Y-37250000D02*
X87450000Y-28750000D01*
X87450000Y-25450000D02*
X86700000Y-25450000D01*
X86700000Y-25450000D02*
X86700000Y-27250000D01*
X86700000Y-27250000D02*
X87450000Y-27250000D01*
X87450000Y-27250000D02*
X87450000Y-25450000D01*
X87450000Y-38750000D02*
X86700000Y-38750000D01*
X86700000Y-38750000D02*
X86700000Y-40550000D01*
X86700000Y-40550000D02*
X87450000Y-40550000D01*
X87450000Y-40550000D02*
X87450000Y-38750000D01*
X85200000Y-25450000D02*
X85200000Y-26200000D01*
X82250000Y-33000000D02*
X82250000Y-26200000D01*
X85200000Y-40550000D02*
X85200000Y-39800000D01*
X85200000Y-39800000D02*
X82250000Y-39800000D01*
X82250000Y-39800000D02*
X82250000Y-33000000D01*
X87750000Y-26400000D02*
X87750000Y-25150000D01*
X87750000Y-25150000D02*
X86500000Y-25150000D01*
X85200000Y-26200000D02*
X82250000Y-26200000D01*
%TO.C,SENS1*%
X78460000Y-25440000D02*
X72490000Y-25440000D01*
X72490000Y-25440000D02*
X72490000Y-40560000D01*
X72490000Y-40560000D02*
X78460000Y-40560000D01*
X78460000Y-40560000D02*
X78460000Y-25440000D01*
X78450000Y-28750000D02*
X77700000Y-28750000D01*
X77700000Y-28750000D02*
X77700000Y-37250000D01*
X77700000Y-37250000D02*
X78450000Y-37250000D01*
X78450000Y-37250000D02*
X78450000Y-28750000D01*
X78450000Y-25450000D02*
X77700000Y-25450000D01*
X77700000Y-25450000D02*
X77700000Y-27250000D01*
X77700000Y-27250000D02*
X78450000Y-27250000D01*
X78450000Y-27250000D02*
X78450000Y-25450000D01*
X78450000Y-38750000D02*
X77700000Y-38750000D01*
X77700000Y-38750000D02*
X77700000Y-40550000D01*
X77700000Y-40550000D02*
X78450000Y-40550000D01*
X78450000Y-40550000D02*
X78450000Y-38750000D01*
X76200000Y-25450000D02*
X76200000Y-26200000D01*
X73250000Y-33000000D02*
X73250000Y-26200000D01*
X76200000Y-40550000D02*
X76200000Y-39800000D01*
X76200000Y-39800000D02*
X73250000Y-39800000D01*
X73250000Y-39800000D02*
X73250000Y-33000000D01*
X78750000Y-26400000D02*
X78750000Y-25150000D01*
X78750000Y-25150000D02*
X77500000Y-25150000D01*
X76200000Y-26200000D02*
X73250000Y-26200000D01*
%TO.C,SENS0*%
X69460000Y-25440000D02*
X63490000Y-25440000D01*
X63490000Y-25440000D02*
X63490000Y-40560000D01*
X63490000Y-40560000D02*
X69460000Y-40560000D01*
X69460000Y-40560000D02*
X69460000Y-25440000D01*
X69450000Y-28750000D02*
X68700000Y-28750000D01*
X68700000Y-28750000D02*
X68700000Y-37250000D01*
X68700000Y-37250000D02*
X69450000Y-37250000D01*
X69450000Y-37250000D02*
X69450000Y-28750000D01*
X69450000Y-25450000D02*
X68700000Y-25450000D01*
X68700000Y-25450000D02*
X68700000Y-27250000D01*
X68700000Y-27250000D02*
X69450000Y-27250000D01*
X69450000Y-27250000D02*
X69450000Y-25450000D01*
X69450000Y-38750000D02*
X68700000Y-38750000D01*
X68700000Y-38750000D02*
X68700000Y-40550000D01*
X68700000Y-40550000D02*
X69450000Y-40550000D01*
X69450000Y-40550000D02*
X69450000Y-38750000D01*
X67200000Y-25450000D02*
X67200000Y-26200000D01*
X64250000Y-33000000D02*
X64250000Y-26200000D01*
X67200000Y-40550000D02*
X67200000Y-39800000D01*
X67200000Y-39800000D02*
X64250000Y-39800000D01*
X64250000Y-39800000D02*
X64250000Y-33000000D01*
X69750000Y-26400000D02*
X69750000Y-25150000D01*
X69750000Y-25150000D02*
X68500000Y-25150000D01*
X67200000Y-26200000D02*
X64250000Y-26200000D01*
%TO.C,UART2*%
X49460000Y-62996000D02*
X43490000Y-62996000D01*
X43490000Y-62996000D02*
X43490000Y-75616000D01*
X43490000Y-75616000D02*
X49460000Y-75616000D01*
X49460000Y-75616000D02*
X49460000Y-62996000D01*
X49450000Y-66306000D02*
X48700000Y-66306000D01*
X48700000Y-66306000D02*
X48700000Y-72306000D01*
X48700000Y-72306000D02*
X49450000Y-72306000D01*
X49450000Y-72306000D02*
X49450000Y-66306000D01*
X49450000Y-63006000D02*
X48700000Y-63006000D01*
X48700000Y-63006000D02*
X48700000Y-64806000D01*
X48700000Y-64806000D02*
X49450000Y-64806000D01*
X49450000Y-64806000D02*
X49450000Y-63006000D01*
X49450000Y-73806000D02*
X48700000Y-73806000D01*
X48700000Y-73806000D02*
X48700000Y-75606000D01*
X48700000Y-75606000D02*
X49450000Y-75606000D01*
X49450000Y-75606000D02*
X49450000Y-73806000D01*
X47200000Y-63006000D02*
X47200000Y-63756000D01*
X44250000Y-69306000D02*
X44250000Y-63756000D01*
X47200000Y-75606000D02*
X47200000Y-74856000D01*
X47200000Y-74856000D02*
X44250000Y-74856000D01*
X44250000Y-74856000D02*
X44250000Y-69306000D01*
X49750000Y-63956000D02*
X49750000Y-62706000D01*
X49750000Y-62706000D02*
X48500000Y-62706000D01*
X47200000Y-63756000D02*
X44250000Y-63756000D01*
%TO.C,I2C1*%
X49460000Y-47996000D02*
X43490000Y-47996000D01*
X43490000Y-47996000D02*
X43490000Y-60616000D01*
X43490000Y-60616000D02*
X49460000Y-60616000D01*
X49460000Y-60616000D02*
X49460000Y-47996000D01*
X49450000Y-51306000D02*
X48700000Y-51306000D01*
X48700000Y-51306000D02*
X48700000Y-57306000D01*
X48700000Y-57306000D02*
X49450000Y-57306000D01*
X49450000Y-57306000D02*
X49450000Y-51306000D01*
X49450000Y-48006000D02*
X48700000Y-48006000D01*
X48700000Y-48006000D02*
X48700000Y-49806000D01*
X48700000Y-49806000D02*
X49450000Y-49806000D01*
X49450000Y-49806000D02*
X49450000Y-48006000D01*
X49450000Y-58806000D02*
X48700000Y-58806000D01*
X48700000Y-58806000D02*
X48700000Y-60606000D01*
X48700000Y-60606000D02*
X49450000Y-60606000D01*
X49450000Y-60606000D02*
X49450000Y-58806000D01*
X47200000Y-48006000D02*
X47200000Y-48756000D01*
X44250000Y-54306000D02*
X44250000Y-48756000D01*
X47200000Y-60606000D02*
X47200000Y-59856000D01*
X47200000Y-59856000D02*
X44250000Y-59856000D01*
X44250000Y-59856000D02*
X44250000Y-54306000D01*
X49750000Y-48956000D02*
X49750000Y-47706000D01*
X49750000Y-47706000D02*
X48500000Y-47706000D01*
X47200000Y-48756000D02*
X44250000Y-48756000D01*
%TO.C,R23*%
X59643600Y-86282636D02*
X59643600Y-87736764D01*
X61463600Y-86282636D02*
X61463600Y-87736764D01*
%TO.C,R22*%
X78840000Y-86272936D02*
X78840000Y-87727064D01*
X80660000Y-86272936D02*
X80660000Y-87727064D01*
%TO.C,R21*%
X62590000Y-86272936D02*
X62590000Y-87727064D01*
X64410000Y-86272936D02*
X64410000Y-87727064D01*
%TO.C,R16*%
X81840000Y-86272936D02*
X81840000Y-87727064D01*
X83660000Y-86272936D02*
X83660000Y-87727064D01*
%TO.C,R15*%
X100840000Y-86272936D02*
X100840000Y-87727064D01*
X102660000Y-86272936D02*
X102660000Y-87727064D01*
%TO.C,R7*%
X68590000Y-91272936D02*
X68590000Y-92727064D01*
X70410000Y-91272936D02*
X70410000Y-92727064D01*
%TO.C,R6*%
X87840000Y-91272936D02*
X87840000Y-92727064D01*
X89660000Y-91272936D02*
X89660000Y-92727064D01*
%TO.C,R4*%
X65590000Y-86272936D02*
X65590000Y-87727064D01*
X67410000Y-86272936D02*
X67410000Y-87727064D01*
%TO.C,R3*%
X84840000Y-86272936D02*
X84840000Y-87727064D01*
X86660000Y-86272936D02*
X86660000Y-87727064D01*
%TO.C,Q3*%
X64740000Y-91420000D02*
X66200000Y-91420000D01*
X64740000Y-94580000D02*
X66900000Y-94580000D01*
X64740000Y-94580000D02*
X64740000Y-93650000D01*
X64740000Y-91420000D02*
X64740000Y-92350000D01*
%TO.C,Q2*%
X83990000Y-91420000D02*
X85450000Y-91420000D01*
X83990000Y-94580000D02*
X86150000Y-94580000D01*
X83990000Y-94580000D02*
X83990000Y-93650000D01*
X83990000Y-91420000D02*
X83990000Y-92350000D01*
%TO.C,LED3*%
X70635000Y-89285000D02*
X70635000Y-85400000D01*
X68365000Y-89285000D02*
X70635000Y-89285000D01*
X68365000Y-85400000D02*
X68365000Y-89285000D01*
%TO.C,LED2*%
X89885000Y-89285000D02*
X89885000Y-85400000D01*
X87615000Y-89285000D02*
X89885000Y-89285000D01*
X87615000Y-85400000D02*
X87615000Y-89285000D01*
%TO.C,D3*%
X58685000Y-82915000D02*
X53000000Y-82915000D01*
X58685000Y-86085000D02*
X58685000Y-82915000D01*
X53000000Y-86085000D02*
X58685000Y-86085000D01*
%TO.C,D2*%
X77935000Y-82915000D02*
X72250000Y-82915000D01*
X77935000Y-86085000D02*
X77935000Y-82915000D01*
X72250000Y-86085000D02*
X77935000Y-86085000D01*
%TO.C,C9*%
X61410000Y-92711252D02*
X61410000Y-91288748D01*
X59590000Y-92711252D02*
X59590000Y-91288748D01*
%TO.C,C8*%
X80660000Y-92711252D02*
X80660000Y-91288748D01*
X78840000Y-92711252D02*
X78840000Y-91288748D01*
%TO.C,C7*%
X99910000Y-92711252D02*
X99910000Y-91288748D01*
X98090000Y-92711252D02*
X98090000Y-91288748D01*
%TO.C,SW1*%
X130144500Y-96878500D02*
X130144500Y-104598500D01*
X130144500Y-104598500D02*
X126479300Y-104598500D01*
X130144500Y-96878500D02*
X126479300Y-96878500D01*
X126474500Y-102438500D02*
X126474500Y-104584500D01*
X126479300Y-96888300D02*
X126474500Y-99038500D01*
X126474500Y-99038500D02*
X126474500Y-102438500D01*
%TO.C,PWR1*%
X119799100Y-71412100D02*
X119799100Y-68812100D01*
X117199100Y-68812100D02*
X119799100Y-68812100D01*
X117199100Y-71412100D02*
X117199100Y-68812100D01*
X117199100Y-71412100D02*
X119799100Y-71412100D01*
%TO.C,UART1*%
X104435600Y-71415600D02*
X104435600Y-74075600D01*
X118465600Y-71415600D02*
X104435600Y-71415600D01*
X119799100Y-74079100D02*
X104435600Y-74075600D01*
X119799100Y-71419100D02*
X119799100Y-74079100D01*
X118465600Y-71415600D02*
X119795600Y-71415600D01*
X119795600Y-71415600D02*
X119795600Y-72745600D01*
D10*
%TO.C,U4*%
X117062000Y-89177500D02*
X117562000Y-89177500D01*
X117562000Y-89177500D02*
X117562000Y-88677500D01*
X117062000Y-84177500D02*
X117562000Y-84177500D01*
X117562000Y-84177500D02*
X117562000Y-84677500D01*
X113062000Y-89177500D02*
X112562000Y-89177500D01*
X112562000Y-89177500D02*
X112562000Y-88677500D01*
D11*
X112903000Y-84137500D02*
G75*
G03*
X112903000Y-84137500I-381000J0D01*
G01*
D14*
%TO.C,S0*%
X121370000Y-111290000D02*
X111210000Y-111290000D01*
X121370000Y-112560000D02*
X121370000Y-104940000D01*
X121370000Y-104940000D02*
X111210000Y-104940000D01*
X111210000Y-104940000D02*
X111210000Y-112560000D01*
X111210000Y-112560000D02*
X121370000Y-112560000D01*
X121370000Y-112560000D02*
X122370000Y-112560000D01*
X122370000Y-112560000D02*
X122370000Y-104940000D01*
X122370000Y-104940000D02*
X121370000Y-104940000D01*
X111210000Y-112560000D02*
X110210000Y-112560000D01*
X110210000Y-112560000D02*
X110210000Y-104940000D01*
X111210000Y-104940000D02*
X110210000Y-104940000D01*
%TO.C,S1*%
X108620000Y-111290000D02*
X98460000Y-111290000D01*
X108620000Y-112560000D02*
X108620000Y-104940000D01*
X108620000Y-104940000D02*
X98460000Y-104940000D01*
X98460000Y-104940000D02*
X98460000Y-112560000D01*
X98460000Y-112560000D02*
X108620000Y-112560000D01*
X108620000Y-112560000D02*
X109620000Y-112560000D01*
X109620000Y-112560000D02*
X109620000Y-104940000D01*
X109620000Y-104940000D02*
X108620000Y-104940000D01*
X98460000Y-112560000D02*
X97460000Y-112560000D01*
X97460000Y-112560000D02*
X97460000Y-104940000D01*
X97460000Y-104940000D02*
X98460000Y-104940000D01*
%TO.C,R9*%
X96104064Y-53551500D02*
X94649936Y-53551500D01*
X96104064Y-51731500D02*
X94649936Y-51731500D01*
%TO.C,U2*%
X91727309Y-55689500D02*
G75*
G03*
X91727309Y-55689500I-401609J0D01*
G01*
X89929500Y-54621500D02*
X88114500Y-54621500D01*
X89929500Y-54366500D02*
X89929500Y-54621500D01*
X93789500Y-54366500D02*
X89929500Y-54366500D01*
X97649500Y-54366500D02*
X97649500Y-54621500D01*
X93789500Y-54366500D02*
X97649500Y-54366500D01*
X89929500Y-64886500D02*
X89929500Y-64631500D01*
X93789500Y-64886500D02*
X89929500Y-64886500D01*
X97649500Y-64886500D02*
X97649500Y-64631500D01*
X93789500Y-64886500D02*
X97649500Y-64886500D01*
%TO.C,U5*%
X92446361Y-44805600D02*
G75*
G03*
X92446361Y-44805600I-396761J0D01*
G01*
X84915800Y-46126400D02*
X84915800Y-48326400D01*
X84915800Y-46126400D02*
X84915800Y-43926400D01*
X92985800Y-46126400D02*
X92985800Y-48326400D01*
X92985800Y-46126400D02*
X92985800Y-42526400D01*
%TO.C,R17*%
X119605436Y-35581000D02*
X121059564Y-35581000D01*
X119605436Y-33761000D02*
X121059564Y-33761000D01*
%TO.C,R10*%
X121057564Y-31348000D02*
X119603436Y-31348000D01*
X121057564Y-33168000D02*
X119603436Y-33168000D01*
%TO.C,U3*%
X129893500Y-78467000D02*
X123883500Y-78467000D01*
X127643500Y-71647000D02*
X123883500Y-71647000D01*
X123883500Y-78467000D02*
X123883500Y-77207000D01*
X123883500Y-71647000D02*
X123883500Y-72907000D01*
%TO.C,R20*%
X117509936Y-80370000D02*
X118964064Y-80370000D01*
X117509936Y-82190000D02*
X118964064Y-82190000D01*
%TO.C,R19*%
X112614064Y-80433500D02*
X111159936Y-80433500D01*
X112614064Y-82253500D02*
X111159936Y-82253500D01*
%TO.C,R18*%
X128986364Y-81995600D02*
X127532236Y-81995600D01*
X128986364Y-83815600D02*
X127532236Y-83815600D01*
%TO.C,Q6*%
X116392800Y-78652400D02*
X116392800Y-77192400D01*
X119552800Y-78652400D02*
X119552800Y-76492400D01*
X119552800Y-78652400D02*
X118622800Y-78652400D01*
X116392800Y-78652400D02*
X117322800Y-78652400D01*
%TO.C,Q5*%
X113070800Y-77116400D02*
X113070800Y-78576400D01*
X109910800Y-77116400D02*
X109910800Y-79276400D01*
X109910800Y-77116400D02*
X110840800Y-77116400D01*
X113070800Y-77116400D02*
X112140800Y-77116400D01*
%TO.C,Q4*%
X117080000Y-27071200D02*
X118540000Y-27071200D01*
X117080000Y-30231200D02*
X119240000Y-30231200D01*
X117080000Y-30231200D02*
X117080000Y-29301200D01*
X117080000Y-27071200D02*
X117080000Y-28001200D01*
%TO.C,P1*%
X126025200Y-95071800D02*
X127825200Y-95071800D01*
X131535200Y-95071800D02*
X130075200Y-95071800D01*
X131535200Y-86131800D02*
X130075200Y-86131800D01*
X126025200Y-86131800D02*
X127825200Y-86131800D01*
X131535200Y-86131800D02*
X131535200Y-95071800D01*
%TO.C,LED5*%
X126058200Y-33342200D02*
X129943200Y-33342200D01*
X126058200Y-31072200D02*
X126058200Y-33342200D01*
X129943200Y-31072200D02*
X126058200Y-31072200D01*
%TO.C,C6*%
X115472800Y-92902248D02*
X115472800Y-94324752D01*
X117292800Y-92902248D02*
X117292800Y-94324752D01*
%TO.C,C5*%
X112805800Y-92902248D02*
X112805800Y-94324752D01*
X114625800Y-92902248D02*
X114625800Y-94324752D01*
%TO.C,C4*%
X118089000Y-92902248D02*
X118089000Y-94324752D01*
X119909000Y-92902248D02*
X119909000Y-94324752D01*
%TO.C,C3*%
X121056452Y-42663700D02*
X119633948Y-42663700D01*
X121056452Y-44483700D02*
X119633948Y-44483700D01*
%TO.C,C2*%
X128995752Y-79354000D02*
X127573248Y-79354000D01*
X128995752Y-81174000D02*
X127573248Y-81174000D01*
%TO.C,R12*%
X119603436Y-36237500D02*
X121057564Y-36237500D01*
X119603436Y-38057500D02*
X121057564Y-38057500D01*
%TO.C,LED7*%
X126767000Y-38282500D02*
X130652000Y-38282500D01*
X130652000Y-38282500D02*
X130652000Y-36012500D01*
X130652000Y-36012500D02*
X126767000Y-36012500D01*
%TO.C,LED6*%
X130652000Y-33472500D02*
X126767000Y-33472500D01*
X130652000Y-35742500D02*
X130652000Y-33472500D01*
X126767000Y-35742500D02*
X130652000Y-35742500D01*
%TO.C,R11*%
X124283364Y-83815600D02*
X122829236Y-83815600D01*
X124283364Y-81995600D02*
X122829236Y-81995600D01*
%TO.C,ALED1*%
X59201500Y-29052500D02*
X59201500Y-36352500D01*
X53701500Y-29052500D02*
X53701500Y-36352500D01*
X53701500Y-36352500D02*
X54851500Y-36352500D01*
%TO.C,R5*%
X57203964Y-38692500D02*
X55749836Y-38692500D01*
X57203964Y-36872500D02*
X55749836Y-36872500D01*
%TO.C,R1*%
X105410000Y-86272936D02*
X105410000Y-87727064D01*
X103590000Y-86272936D02*
X103590000Y-87727064D01*
%TO.C,R2*%
X99910000Y-86272936D02*
X99910000Y-87727064D01*
X98090000Y-86272936D02*
X98090000Y-87727064D01*
%TO.C,R8*%
X94649936Y-65765000D02*
X96104064Y-65765000D01*
X94649936Y-67585000D02*
X96104064Y-67585000D01*
%TO.C,C1*%
X57213552Y-28710300D02*
X55791048Y-28710300D01*
X57213552Y-26890300D02*
X55791048Y-26890300D01*
%TO.C,LED4*%
X126767000Y-40822500D02*
X130652000Y-40822500D01*
X130652000Y-40822500D02*
X130652000Y-38552500D01*
X130652000Y-38552500D02*
X126767000Y-38552500D01*
%TO.C,LED1*%
X106115000Y-85400000D02*
X106115000Y-89285000D01*
X106115000Y-89285000D02*
X108385000Y-89285000D01*
X108385000Y-89285000D02*
X108385000Y-85400000D01*
%TO.C,U1*%
X105715000Y-47125000D02*
X104935000Y-47125000D01*
X104935000Y-47125000D02*
X104935000Y-48125000D01*
X105715000Y-65365000D02*
X104935000Y-65365000D01*
X104935000Y-65365000D02*
X104935000Y-64365000D01*
%TO.C,Q1*%
X102740000Y-91420000D02*
X102740000Y-92350000D01*
X102740000Y-94580000D02*
X102740000Y-93650000D01*
X102740000Y-94580000D02*
X104900000Y-94580000D01*
X102740000Y-91420000D02*
X104200000Y-91420000D01*
%TO.C,D1*%
X91500000Y-86085000D02*
X97185000Y-86085000D01*
X97185000Y-86085000D02*
X97185000Y-82915000D01*
X97185000Y-82915000D02*
X91500000Y-82915000D01*
%TO.C,D4*%
X48687000Y-78044000D02*
X43002000Y-78044000D01*
X48687000Y-81214000D02*
X48687000Y-78044000D01*
X43002000Y-81214000D02*
X48687000Y-81214000D01*
%TO.C,R13*%
X112167564Y-42714500D02*
X110713436Y-42714500D01*
X112167564Y-44534500D02*
X110713436Y-44534500D01*
%TO.C,R14*%
X108160000Y-91272936D02*
X108160000Y-92727064D01*
X106340000Y-91272936D02*
X106340000Y-92727064D01*
%TD*%
%TO.C,U6*%
D10*
X59004295Y-50226980D02*
X59004295Y-51036504D01*
X59051914Y-51131742D01*
X59099533Y-51179361D01*
X59194771Y-51226980D01*
X59385247Y-51226980D01*
X59480485Y-51179361D01*
X59528104Y-51131742D01*
X59575723Y-51036504D01*
X59575723Y-50226980D01*
X60480485Y-50226980D02*
X60290009Y-50226980D01*
X60194771Y-50274600D01*
X60147152Y-50322219D01*
X60051914Y-50465076D01*
X60004295Y-50655552D01*
X60004295Y-51036504D01*
X60051914Y-51131742D01*
X60099533Y-51179361D01*
X60194771Y-51226980D01*
X60385247Y-51226980D01*
X60480485Y-51179361D01*
X60528104Y-51131742D01*
X60575723Y-51036504D01*
X60575723Y-50798409D01*
X60528104Y-50703171D01*
X60480485Y-50655552D01*
X60385247Y-50607933D01*
X60194771Y-50607933D01*
X60099533Y-50655552D01*
X60051914Y-50703171D01*
X60004295Y-50798409D01*
%TO.C,LED8*%
X42870380Y-41632047D02*
X42870380Y-42108238D01*
X41870380Y-42108238D01*
X42346571Y-41298714D02*
X42346571Y-40965380D01*
X42870380Y-40822523D02*
X42870380Y-41298714D01*
X41870380Y-41298714D01*
X41870380Y-40822523D01*
X42870380Y-40393952D02*
X41870380Y-40393952D01*
X41870380Y-40155857D01*
X41918000Y-40013000D01*
X42013238Y-39917761D01*
X42108476Y-39870142D01*
X42298952Y-39822523D01*
X42441809Y-39822523D01*
X42632285Y-39870142D01*
X42727523Y-39917761D01*
X42822761Y-40013000D01*
X42870380Y-40155857D01*
X42870380Y-40393952D01*
X42298952Y-39251095D02*
X42251333Y-39346333D01*
X42203714Y-39393952D01*
X42108476Y-39441571D01*
X42060857Y-39441571D01*
X41965619Y-39393952D01*
X41918000Y-39346333D01*
X41870380Y-39251095D01*
X41870380Y-39060619D01*
X41918000Y-38965380D01*
X41965619Y-38917761D01*
X42060857Y-38870142D01*
X42108476Y-38870142D01*
X42203714Y-38917761D01*
X42251333Y-38965380D01*
X42298952Y-39060619D01*
X42298952Y-39251095D01*
X42346571Y-39346333D01*
X42394190Y-39393952D01*
X42489428Y-39441571D01*
X42679904Y-39441571D01*
X42775142Y-39393952D01*
X42822761Y-39346333D01*
X42870380Y-39251095D01*
X42870380Y-39060619D01*
X42822761Y-38965380D01*
X42775142Y-38917761D01*
X42679904Y-38870142D01*
X42489428Y-38870142D01*
X42394190Y-38917761D01*
X42346571Y-38965380D01*
X42298952Y-39060619D01*
%TO.C,BT1*%
X45873071Y-94035714D02*
X45920690Y-93892857D01*
X45968309Y-93845238D01*
X46063547Y-93797619D01*
X46206404Y-93797619D01*
X46301642Y-93845238D01*
X46349261Y-93892857D01*
X46396880Y-93988095D01*
X46396880Y-94369047D01*
X45396880Y-94369047D01*
X45396880Y-94035714D01*
X45444500Y-93940476D01*
X45492119Y-93892857D01*
X45587357Y-93845238D01*
X45682595Y-93845238D01*
X45777833Y-93892857D01*
X45825452Y-93940476D01*
X45873071Y-94035714D01*
X45873071Y-94369047D01*
X45396880Y-93511904D02*
X45396880Y-92940476D01*
X46396880Y-93226190D02*
X45396880Y-93226190D01*
X46396880Y-92083333D02*
X46396880Y-92654761D01*
X46396880Y-92369047D02*
X45396880Y-92369047D01*
X45539738Y-92464285D01*
X45634976Y-92559523D01*
X45682595Y-92654761D01*
%TO.C,R24*%
X115752642Y-40139880D02*
X115419309Y-39663690D01*
X115181214Y-40139880D02*
X115181214Y-39139880D01*
X115562166Y-39139880D01*
X115657404Y-39187500D01*
X115705023Y-39235119D01*
X115752642Y-39330357D01*
X115752642Y-39473214D01*
X115705023Y-39568452D01*
X115657404Y-39616071D01*
X115562166Y-39663690D01*
X115181214Y-39663690D01*
X116133595Y-39235119D02*
X116181214Y-39187500D01*
X116276452Y-39139880D01*
X116514547Y-39139880D01*
X116609785Y-39187500D01*
X116657404Y-39235119D01*
X116705023Y-39330357D01*
X116705023Y-39425595D01*
X116657404Y-39568452D01*
X116085976Y-40139880D01*
X116705023Y-40139880D01*
X117562166Y-39473214D02*
X117562166Y-40139880D01*
X117324071Y-39092261D02*
X117085976Y-39806547D01*
X117705023Y-39806547D01*
%TO.C,*%
%TO.C,S3*%
X64312895Y-106627561D02*
X64455752Y-106675180D01*
X64693847Y-106675180D01*
X64789085Y-106627561D01*
X64836704Y-106579942D01*
X64884323Y-106484704D01*
X64884323Y-106389466D01*
X64836704Y-106294228D01*
X64789085Y-106246609D01*
X64693847Y-106198990D01*
X64503371Y-106151371D01*
X64408133Y-106103752D01*
X64360514Y-106056133D01*
X64312895Y-105960895D01*
X64312895Y-105865657D01*
X64360514Y-105770419D01*
X64408133Y-105722800D01*
X64503371Y-105675180D01*
X64741466Y-105675180D01*
X64884323Y-105722800D01*
X65217657Y-105675180D02*
X65836704Y-105675180D01*
X65503371Y-106056133D01*
X65646228Y-106056133D01*
X65741466Y-106103752D01*
X65789085Y-106151371D01*
X65836704Y-106246609D01*
X65836704Y-106484704D01*
X65789085Y-106579942D01*
X65741466Y-106627561D01*
X65646228Y-106675180D01*
X65360514Y-106675180D01*
X65265276Y-106627561D01*
X65217657Y-106579942D01*
%TO.C,S2*%
X83566095Y-106627561D02*
X83708952Y-106675180D01*
X83947047Y-106675180D01*
X84042285Y-106627561D01*
X84089904Y-106579942D01*
X84137523Y-106484704D01*
X84137523Y-106389466D01*
X84089904Y-106294228D01*
X84042285Y-106246609D01*
X83947047Y-106198990D01*
X83756571Y-106151371D01*
X83661333Y-106103752D01*
X83613714Y-106056133D01*
X83566095Y-105960895D01*
X83566095Y-105865657D01*
X83613714Y-105770419D01*
X83661333Y-105722800D01*
X83756571Y-105675180D01*
X83994666Y-105675180D01*
X84137523Y-105722800D01*
X84518476Y-105770419D02*
X84566095Y-105722800D01*
X84661333Y-105675180D01*
X84899428Y-105675180D01*
X84994666Y-105722800D01*
X85042285Y-105770419D01*
X85089904Y-105865657D01*
X85089904Y-105960895D01*
X85042285Y-106103752D01*
X84470857Y-106675180D01*
X85089904Y-106675180D01*
%TO.C,SENS5*%
X108535714Y-24904761D02*
X108678571Y-24952380D01*
X108916666Y-24952380D01*
X109011904Y-24904761D01*
X109059523Y-24857142D01*
X109107142Y-24761904D01*
X109107142Y-24666666D01*
X109059523Y-24571428D01*
X109011904Y-24523809D01*
X108916666Y-24476190D01*
X108726190Y-24428571D01*
X108630952Y-24380952D01*
X108583333Y-24333333D01*
X108535714Y-24238095D01*
X108535714Y-24142857D01*
X108583333Y-24047619D01*
X108630952Y-24000000D01*
X108726190Y-23952380D01*
X108964285Y-23952380D01*
X109107142Y-24000000D01*
X109535714Y-24428571D02*
X109869047Y-24428571D01*
X110011904Y-24952380D02*
X109535714Y-24952380D01*
X109535714Y-23952380D01*
X110011904Y-23952380D01*
X110440476Y-24952380D02*
X110440476Y-23952380D01*
X111011904Y-24952380D01*
X111011904Y-23952380D01*
X111440476Y-24904761D02*
X111583333Y-24952380D01*
X111821428Y-24952380D01*
X111916666Y-24904761D01*
X111964285Y-24857142D01*
X112011904Y-24761904D01*
X112011904Y-24666666D01*
X111964285Y-24571428D01*
X111916666Y-24523809D01*
X111821428Y-24476190D01*
X111630952Y-24428571D01*
X111535714Y-24380952D01*
X111488095Y-24333333D01*
X111440476Y-24238095D01*
X111440476Y-24142857D01*
X111488095Y-24047619D01*
X111535714Y-24000000D01*
X111630952Y-23952380D01*
X111869047Y-23952380D01*
X112011904Y-24000000D01*
X112916666Y-23952380D02*
X112440476Y-23952380D01*
X112392857Y-24428571D01*
X112440476Y-24380952D01*
X112535714Y-24333333D01*
X112773809Y-24333333D01*
X112869047Y-24380952D01*
X112916666Y-24428571D01*
X112964285Y-24523809D01*
X112964285Y-24761904D01*
X112916666Y-24857142D01*
X112869047Y-24904761D01*
X112773809Y-24952380D01*
X112535714Y-24952380D01*
X112440476Y-24904761D01*
X112392857Y-24857142D01*
%TO.C,SENS4*%
X99535714Y-24904761D02*
X99678571Y-24952380D01*
X99916666Y-24952380D01*
X100011904Y-24904761D01*
X100059523Y-24857142D01*
X100107142Y-24761904D01*
X100107142Y-24666666D01*
X100059523Y-24571428D01*
X100011904Y-24523809D01*
X99916666Y-24476190D01*
X99726190Y-24428571D01*
X99630952Y-24380952D01*
X99583333Y-24333333D01*
X99535714Y-24238095D01*
X99535714Y-24142857D01*
X99583333Y-24047619D01*
X99630952Y-24000000D01*
X99726190Y-23952380D01*
X99964285Y-23952380D01*
X100107142Y-24000000D01*
X100535714Y-24428571D02*
X100869047Y-24428571D01*
X101011904Y-24952380D02*
X100535714Y-24952380D01*
X100535714Y-23952380D01*
X101011904Y-23952380D01*
X101440476Y-24952380D02*
X101440476Y-23952380D01*
X102011904Y-24952380D01*
X102011904Y-23952380D01*
X102440476Y-24904761D02*
X102583333Y-24952380D01*
X102821428Y-24952380D01*
X102916666Y-24904761D01*
X102964285Y-24857142D01*
X103011904Y-24761904D01*
X103011904Y-24666666D01*
X102964285Y-24571428D01*
X102916666Y-24523809D01*
X102821428Y-24476190D01*
X102630952Y-24428571D01*
X102535714Y-24380952D01*
X102488095Y-24333333D01*
X102440476Y-24238095D01*
X102440476Y-24142857D01*
X102488095Y-24047619D01*
X102535714Y-24000000D01*
X102630952Y-23952380D01*
X102869047Y-23952380D01*
X103011904Y-24000000D01*
X103869047Y-24285714D02*
X103869047Y-24952380D01*
X103630952Y-23904761D02*
X103392857Y-24619047D01*
X104011904Y-24619047D01*
%TO.C,SENS3*%
X90535714Y-24904761D02*
X90678571Y-24952380D01*
X90916666Y-24952380D01*
X91011904Y-24904761D01*
X91059523Y-24857142D01*
X91107142Y-24761904D01*
X91107142Y-24666666D01*
X91059523Y-24571428D01*
X91011904Y-24523809D01*
X90916666Y-24476190D01*
X90726190Y-24428571D01*
X90630952Y-24380952D01*
X90583333Y-24333333D01*
X90535714Y-24238095D01*
X90535714Y-24142857D01*
X90583333Y-24047619D01*
X90630952Y-24000000D01*
X90726190Y-23952380D01*
X90964285Y-23952380D01*
X91107142Y-24000000D01*
X91535714Y-24428571D02*
X91869047Y-24428571D01*
X92011904Y-24952380D02*
X91535714Y-24952380D01*
X91535714Y-23952380D01*
X92011904Y-23952380D01*
X92440476Y-24952380D02*
X92440476Y-23952380D01*
X93011904Y-24952380D01*
X93011904Y-23952380D01*
X93440476Y-24904761D02*
X93583333Y-24952380D01*
X93821428Y-24952380D01*
X93916666Y-24904761D01*
X93964285Y-24857142D01*
X94011904Y-24761904D01*
X94011904Y-24666666D01*
X93964285Y-24571428D01*
X93916666Y-24523809D01*
X93821428Y-24476190D01*
X93630952Y-24428571D01*
X93535714Y-24380952D01*
X93488095Y-24333333D01*
X93440476Y-24238095D01*
X93440476Y-24142857D01*
X93488095Y-24047619D01*
X93535714Y-24000000D01*
X93630952Y-23952380D01*
X93869047Y-23952380D01*
X94011904Y-24000000D01*
X94345238Y-23952380D02*
X94964285Y-23952380D01*
X94630952Y-24333333D01*
X94773809Y-24333333D01*
X94869047Y-24380952D01*
X94916666Y-24428571D01*
X94964285Y-24523809D01*
X94964285Y-24761904D01*
X94916666Y-24857142D01*
X94869047Y-24904761D01*
X94773809Y-24952380D01*
X94488095Y-24952380D01*
X94392857Y-24904761D01*
X94345238Y-24857142D01*
%TO.C,SENS2*%
X81535714Y-24904761D02*
X81678571Y-24952380D01*
X81916666Y-24952380D01*
X82011904Y-24904761D01*
X82059523Y-24857142D01*
X82107142Y-24761904D01*
X82107142Y-24666666D01*
X82059523Y-24571428D01*
X82011904Y-24523809D01*
X81916666Y-24476190D01*
X81726190Y-24428571D01*
X81630952Y-24380952D01*
X81583333Y-24333333D01*
X81535714Y-24238095D01*
X81535714Y-24142857D01*
X81583333Y-24047619D01*
X81630952Y-24000000D01*
X81726190Y-23952380D01*
X81964285Y-23952380D01*
X82107142Y-24000000D01*
X82535714Y-24428571D02*
X82869047Y-24428571D01*
X83011904Y-24952380D02*
X82535714Y-24952380D01*
X82535714Y-23952380D01*
X83011904Y-23952380D01*
X83440476Y-24952380D02*
X83440476Y-23952380D01*
X84011904Y-24952380D01*
X84011904Y-23952380D01*
X84440476Y-24904761D02*
X84583333Y-24952380D01*
X84821428Y-24952380D01*
X84916666Y-24904761D01*
X84964285Y-24857142D01*
X85011904Y-24761904D01*
X85011904Y-24666666D01*
X84964285Y-24571428D01*
X84916666Y-24523809D01*
X84821428Y-24476190D01*
X84630952Y-24428571D01*
X84535714Y-24380952D01*
X84488095Y-24333333D01*
X84440476Y-24238095D01*
X84440476Y-24142857D01*
X84488095Y-24047619D01*
X84535714Y-24000000D01*
X84630952Y-23952380D01*
X84869047Y-23952380D01*
X85011904Y-24000000D01*
X85392857Y-24047619D02*
X85440476Y-24000000D01*
X85535714Y-23952380D01*
X85773809Y-23952380D01*
X85869047Y-24000000D01*
X85916666Y-24047619D01*
X85964285Y-24142857D01*
X85964285Y-24238095D01*
X85916666Y-24380952D01*
X85345238Y-24952380D01*
X85964285Y-24952380D01*
%TO.C,SENS1*%
X72535714Y-24904761D02*
X72678571Y-24952380D01*
X72916666Y-24952380D01*
X73011904Y-24904761D01*
X73059523Y-24857142D01*
X73107142Y-24761904D01*
X73107142Y-24666666D01*
X73059523Y-24571428D01*
X73011904Y-24523809D01*
X72916666Y-24476190D01*
X72726190Y-24428571D01*
X72630952Y-24380952D01*
X72583333Y-24333333D01*
X72535714Y-24238095D01*
X72535714Y-24142857D01*
X72583333Y-24047619D01*
X72630952Y-24000000D01*
X72726190Y-23952380D01*
X72964285Y-23952380D01*
X73107142Y-24000000D01*
X73535714Y-24428571D02*
X73869047Y-24428571D01*
X74011904Y-24952380D02*
X73535714Y-24952380D01*
X73535714Y-23952380D01*
X74011904Y-23952380D01*
X74440476Y-24952380D02*
X74440476Y-23952380D01*
X75011904Y-24952380D01*
X75011904Y-23952380D01*
X75440476Y-24904761D02*
X75583333Y-24952380D01*
X75821428Y-24952380D01*
X75916666Y-24904761D01*
X75964285Y-24857142D01*
X76011904Y-24761904D01*
X76011904Y-24666666D01*
X75964285Y-24571428D01*
X75916666Y-24523809D01*
X75821428Y-24476190D01*
X75630952Y-24428571D01*
X75535714Y-24380952D01*
X75488095Y-24333333D01*
X75440476Y-24238095D01*
X75440476Y-24142857D01*
X75488095Y-24047619D01*
X75535714Y-24000000D01*
X75630952Y-23952380D01*
X75869047Y-23952380D01*
X76011904Y-24000000D01*
X76964285Y-24952380D02*
X76392857Y-24952380D01*
X76678571Y-24952380D02*
X76678571Y-23952380D01*
X76583333Y-24095238D01*
X76488095Y-24190476D01*
X76392857Y-24238095D01*
%TO.C,SENS0*%
X63535714Y-24904761D02*
X63678571Y-24952380D01*
X63916666Y-24952380D01*
X64011904Y-24904761D01*
X64059523Y-24857142D01*
X64107142Y-24761904D01*
X64107142Y-24666666D01*
X64059523Y-24571428D01*
X64011904Y-24523809D01*
X63916666Y-24476190D01*
X63726190Y-24428571D01*
X63630952Y-24380952D01*
X63583333Y-24333333D01*
X63535714Y-24238095D01*
X63535714Y-24142857D01*
X63583333Y-24047619D01*
X63630952Y-24000000D01*
X63726190Y-23952380D01*
X63964285Y-23952380D01*
X64107142Y-24000000D01*
X64535714Y-24428571D02*
X64869047Y-24428571D01*
X65011904Y-24952380D02*
X64535714Y-24952380D01*
X64535714Y-23952380D01*
X65011904Y-23952380D01*
X65440476Y-24952380D02*
X65440476Y-23952380D01*
X66011904Y-24952380D01*
X66011904Y-23952380D01*
X66440476Y-24904761D02*
X66583333Y-24952380D01*
X66821428Y-24952380D01*
X66916666Y-24904761D01*
X66964285Y-24857142D01*
X67011904Y-24761904D01*
X67011904Y-24666666D01*
X66964285Y-24571428D01*
X66916666Y-24523809D01*
X66821428Y-24476190D01*
X66630952Y-24428571D01*
X66535714Y-24380952D01*
X66488095Y-24333333D01*
X66440476Y-24238095D01*
X66440476Y-24142857D01*
X66488095Y-24047619D01*
X66535714Y-24000000D01*
X66630952Y-23952380D01*
X66869047Y-23952380D01*
X67011904Y-24000000D01*
X67630952Y-23952380D02*
X67726190Y-23952380D01*
X67821428Y-24000000D01*
X67869047Y-24047619D01*
X67916666Y-24142857D01*
X67964285Y-24333333D01*
X67964285Y-24571428D01*
X67916666Y-24761904D01*
X67869047Y-24857142D01*
X67821428Y-24904761D01*
X67726190Y-24952380D01*
X67630952Y-24952380D01*
X67535714Y-24904761D01*
X67488095Y-24857142D01*
X67440476Y-24761904D01*
X67392857Y-24571428D01*
X67392857Y-24333333D01*
X67440476Y-24142857D01*
X67488095Y-24047619D01*
X67535714Y-24000000D01*
X67630952Y-23952380D01*
%TO.C,UART2*%
X42794180Y-73163428D02*
X41794180Y-73163428D01*
X42794180Y-72306285D01*
X41794180Y-72306285D01*
X42746561Y-71020571D02*
X42794180Y-71163428D01*
X42794180Y-71449142D01*
X42746561Y-71592000D01*
X42651323Y-71663428D01*
X42270371Y-71663428D01*
X42175133Y-71592000D01*
X42127514Y-71449142D01*
X42127514Y-71163428D01*
X42175133Y-71020571D01*
X42270371Y-70949142D01*
X42365609Y-70949142D01*
X42460847Y-71663428D01*
X42794180Y-70449142D02*
X42127514Y-69663428D01*
X42127514Y-70449142D02*
X42794180Y-69663428D01*
X42127514Y-69306285D02*
X42127514Y-68734857D01*
X41794180Y-69092000D02*
X42651323Y-69092000D01*
X42746561Y-69020571D01*
X42794180Y-68877714D01*
X42794180Y-68734857D01*
X42794180Y-68234857D02*
X42127514Y-68234857D01*
X41794180Y-68234857D02*
X41841800Y-68306285D01*
X41889419Y-68234857D01*
X41841800Y-68163428D01*
X41794180Y-68234857D01*
X41889419Y-68234857D01*
X42794180Y-67306285D02*
X42746561Y-67449142D01*
X42698942Y-67520571D01*
X42603704Y-67592000D01*
X42317990Y-67592000D01*
X42222752Y-67520571D01*
X42175133Y-67449142D01*
X42127514Y-67306285D01*
X42127514Y-67092000D01*
X42175133Y-66949142D01*
X42222752Y-66877714D01*
X42317990Y-66806285D01*
X42603704Y-66806285D01*
X42698942Y-66877714D01*
X42746561Y-66949142D01*
X42794180Y-67092000D01*
X42794180Y-67306285D01*
X42127514Y-66163428D02*
X42794180Y-66163428D01*
X42222752Y-66163428D02*
X42175133Y-66092000D01*
X42127514Y-65949142D01*
X42127514Y-65734857D01*
X42175133Y-65592000D01*
X42270371Y-65520571D01*
X42794180Y-65520571D01*
%TO.C,I2C1*%
X42819580Y-55264714D02*
X42819580Y-55979000D01*
X41819580Y-55979000D01*
X42724342Y-53907571D02*
X42771961Y-53979000D01*
X42819580Y-54193285D01*
X42819580Y-54336142D01*
X42771961Y-54550428D01*
X42676723Y-54693285D01*
X42581485Y-54764714D01*
X42391009Y-54836142D01*
X42248152Y-54836142D01*
X42057676Y-54764714D01*
X41962438Y-54693285D01*
X41867200Y-54550428D01*
X41819580Y-54336142D01*
X41819580Y-54193285D01*
X41867200Y-53979000D01*
X41914819Y-53907571D01*
X42819580Y-53264714D02*
X41819580Y-53264714D01*
X41819580Y-52907571D01*
X41867200Y-52693285D01*
X41962438Y-52550428D01*
X42057676Y-52479000D01*
X42248152Y-52407571D01*
X42391009Y-52407571D01*
X42581485Y-52479000D01*
X42676723Y-52550428D01*
X42771961Y-52693285D01*
X42819580Y-52907571D01*
X42819580Y-53264714D01*
%TO.C,K2*%
X76297190Y-91823163D02*
X75296284Y-91823163D01*
X76297190Y-91251217D02*
X75725244Y-91680177D01*
X75296284Y-91251217D02*
X75868231Y-91823163D01*
X75391609Y-90869920D02*
X75343947Y-90822257D01*
X75296284Y-90726933D01*
X75296284Y-90488622D01*
X75343947Y-90393298D01*
X75391609Y-90345636D01*
X75486933Y-90297973D01*
X75582257Y-90297973D01*
X75725244Y-90345636D01*
X76297190Y-90917582D01*
X76297190Y-90297973D01*
%TO.C,K3*%
X57094790Y-91873963D02*
X56093884Y-91873963D01*
X57094790Y-91302017D02*
X56522844Y-91730977D01*
X56093884Y-91302017D02*
X56665831Y-91873963D01*
X56093884Y-90968382D02*
X56093884Y-90348773D01*
X56475182Y-90682409D01*
X56475182Y-90539422D01*
X56522844Y-90444098D01*
X56570506Y-90396436D01*
X56665831Y-90348773D01*
X56904142Y-90348773D01*
X56999466Y-90396436D01*
X57047128Y-90444098D01*
X57094790Y-90539422D01*
X57094790Y-90825395D01*
X57047128Y-90920720D01*
X56999466Y-90968382D01*
%TO.C,R23*%
X61005980Y-83650057D02*
X60529790Y-83983390D01*
X61005980Y-84221485D02*
X60005980Y-84221485D01*
X60005980Y-83840533D01*
X60053600Y-83745295D01*
X60101219Y-83697676D01*
X60196457Y-83650057D01*
X60339314Y-83650057D01*
X60434552Y-83697676D01*
X60482171Y-83745295D01*
X60529790Y-83840533D01*
X60529790Y-84221485D01*
X60101219Y-83269104D02*
X60053600Y-83221485D01*
X60005980Y-83126247D01*
X60005980Y-82888152D01*
X60053600Y-82792914D01*
X60101219Y-82745295D01*
X60196457Y-82697676D01*
X60291695Y-82697676D01*
X60434552Y-82745295D01*
X61005980Y-83316723D01*
X61005980Y-82697676D01*
X60005980Y-82364342D02*
X60005980Y-81745295D01*
X60386933Y-82078628D01*
X60386933Y-81935771D01*
X60434552Y-81840533D01*
X60482171Y-81792914D01*
X60577409Y-81745295D01*
X60815504Y-81745295D01*
X60910742Y-81792914D01*
X60958361Y-81840533D01*
X61005980Y-81935771D01*
X61005980Y-82221485D01*
X60958361Y-82316723D01*
X60910742Y-82364342D01*
%TO.C,R22*%
X80208380Y-83599257D02*
X79732190Y-83932590D01*
X80208380Y-84170685D02*
X79208380Y-84170685D01*
X79208380Y-83789733D01*
X79256000Y-83694495D01*
X79303619Y-83646876D01*
X79398857Y-83599257D01*
X79541714Y-83599257D01*
X79636952Y-83646876D01*
X79684571Y-83694495D01*
X79732190Y-83789733D01*
X79732190Y-84170685D01*
X79303619Y-83218304D02*
X79256000Y-83170685D01*
X79208380Y-83075447D01*
X79208380Y-82837352D01*
X79256000Y-82742114D01*
X79303619Y-82694495D01*
X79398857Y-82646876D01*
X79494095Y-82646876D01*
X79636952Y-82694495D01*
X80208380Y-83265923D01*
X80208380Y-82646876D01*
X79303619Y-82265923D02*
X79256000Y-82218304D01*
X79208380Y-82123066D01*
X79208380Y-81884971D01*
X79256000Y-81789733D01*
X79303619Y-81742114D01*
X79398857Y-81694495D01*
X79494095Y-81694495D01*
X79636952Y-81742114D01*
X80208380Y-82313542D01*
X80208380Y-81694495D01*
%TO.C,R21*%
X63952380Y-83669757D02*
X63476190Y-84003090D01*
X63952380Y-84241185D02*
X62952380Y-84241185D01*
X62952380Y-83860233D01*
X63000000Y-83764995D01*
X63047619Y-83717376D01*
X63142857Y-83669757D01*
X63285714Y-83669757D01*
X63380952Y-83717376D01*
X63428571Y-83764995D01*
X63476190Y-83860233D01*
X63476190Y-84241185D01*
X63047619Y-83288804D02*
X63000000Y-83241185D01*
X62952380Y-83145947D01*
X62952380Y-82907852D01*
X63000000Y-82812614D01*
X63047619Y-82764995D01*
X63142857Y-82717376D01*
X63238095Y-82717376D01*
X63380952Y-82764995D01*
X63952380Y-83336423D01*
X63952380Y-82717376D01*
X63952380Y-81764995D02*
X63952380Y-82336423D01*
X63952380Y-82050709D02*
X62952380Y-82050709D01*
X63095238Y-82145947D01*
X63190476Y-82241185D01*
X63238095Y-82336423D01*
%TO.C,R16*%
X83205580Y-83599257D02*
X82729390Y-83932590D01*
X83205580Y-84170685D02*
X82205580Y-84170685D01*
X82205580Y-83789733D01*
X82253200Y-83694495D01*
X82300819Y-83646876D01*
X82396057Y-83599257D01*
X82538914Y-83599257D01*
X82634152Y-83646876D01*
X82681771Y-83694495D01*
X82729390Y-83789733D01*
X82729390Y-84170685D01*
X83205580Y-82646876D02*
X83205580Y-83218304D01*
X83205580Y-82932590D02*
X82205580Y-82932590D01*
X82348438Y-83027828D01*
X82443676Y-83123066D01*
X82491295Y-83218304D01*
X82205580Y-81789733D02*
X82205580Y-81980209D01*
X82253200Y-82075447D01*
X82300819Y-82123066D01*
X82443676Y-82218304D01*
X82634152Y-82265923D01*
X83015104Y-82265923D01*
X83110342Y-82218304D01*
X83157961Y-82170685D01*
X83205580Y-82075447D01*
X83205580Y-81884971D01*
X83157961Y-81789733D01*
X83110342Y-81742114D01*
X83015104Y-81694495D01*
X82777009Y-81694495D01*
X82681771Y-81742114D01*
X82634152Y-81789733D01*
X82586533Y-81884971D01*
X82586533Y-82075447D01*
X82634152Y-82170685D01*
X82681771Y-82218304D01*
X82777009Y-82265923D01*
%TO.C,R15*%
X102153980Y-83802457D02*
X101677790Y-84135790D01*
X102153980Y-84373885D02*
X101153980Y-84373885D01*
X101153980Y-83992933D01*
X101201600Y-83897695D01*
X101249219Y-83850076D01*
X101344457Y-83802457D01*
X101487314Y-83802457D01*
X101582552Y-83850076D01*
X101630171Y-83897695D01*
X101677790Y-83992933D01*
X101677790Y-84373885D01*
X102153980Y-82850076D02*
X102153980Y-83421504D01*
X102153980Y-83135790D02*
X101153980Y-83135790D01*
X101296838Y-83231028D01*
X101392076Y-83326266D01*
X101439695Y-83421504D01*
X101153980Y-81945314D02*
X101153980Y-82421504D01*
X101630171Y-82469123D01*
X101582552Y-82421504D01*
X101534933Y-82326266D01*
X101534933Y-82088171D01*
X101582552Y-81992933D01*
X101630171Y-81945314D01*
X101725409Y-81897695D01*
X101963504Y-81897695D01*
X102058742Y-81945314D01*
X102106361Y-81992933D01*
X102153980Y-82088171D01*
X102153980Y-82326266D01*
X102106361Y-82421504D01*
X102058742Y-82469123D01*
%TO.C,R7*%
X69378533Y-95905580D02*
X69045200Y-95429390D01*
X68807104Y-95905580D02*
X68807104Y-94905580D01*
X69188057Y-94905580D01*
X69283295Y-94953200D01*
X69330914Y-95000819D01*
X69378533Y-95096057D01*
X69378533Y-95238914D01*
X69330914Y-95334152D01*
X69283295Y-95381771D01*
X69188057Y-95429390D01*
X68807104Y-95429390D01*
X69711866Y-94905580D02*
X70378533Y-94905580D01*
X69949961Y-95905580D01*
%TO.C,R6*%
X88580933Y-95981780D02*
X88247600Y-95505590D01*
X88009504Y-95981780D02*
X88009504Y-94981780D01*
X88390457Y-94981780D01*
X88485695Y-95029400D01*
X88533314Y-95077019D01*
X88580933Y-95172257D01*
X88580933Y-95315114D01*
X88533314Y-95410352D01*
X88485695Y-95457971D01*
X88390457Y-95505590D01*
X88009504Y-95505590D01*
X89438076Y-94981780D02*
X89247600Y-94981780D01*
X89152361Y-95029400D01*
X89104742Y-95077019D01*
X89009504Y-95219876D01*
X88961885Y-95410352D01*
X88961885Y-95791304D01*
X89009504Y-95886542D01*
X89057123Y-95934161D01*
X89152361Y-95981780D01*
X89342838Y-95981780D01*
X89438076Y-95934161D01*
X89485695Y-95886542D01*
X89533314Y-95791304D01*
X89533314Y-95553209D01*
X89485695Y-95457971D01*
X89438076Y-95410352D01*
X89342838Y-95362733D01*
X89152361Y-95362733D01*
X89057123Y-95410352D01*
X89009504Y-95457971D01*
X88961885Y-95553209D01*
%TO.C,R4*%
X67003180Y-83672166D02*
X66526990Y-84005500D01*
X67003180Y-84243595D02*
X66003180Y-84243595D01*
X66003180Y-83862642D01*
X66050800Y-83767404D01*
X66098419Y-83719785D01*
X66193657Y-83672166D01*
X66336514Y-83672166D01*
X66431752Y-83719785D01*
X66479371Y-83767404D01*
X66526990Y-83862642D01*
X66526990Y-84243595D01*
X66336514Y-82815023D02*
X67003180Y-82815023D01*
X65955561Y-83053119D02*
X66669847Y-83291214D01*
X66669847Y-82672166D01*
%TO.C,R3*%
X86253580Y-83631066D02*
X85777390Y-83964400D01*
X86253580Y-84202495D02*
X85253580Y-84202495D01*
X85253580Y-83821542D01*
X85301200Y-83726304D01*
X85348819Y-83678685D01*
X85444057Y-83631066D01*
X85586914Y-83631066D01*
X85682152Y-83678685D01*
X85729771Y-83726304D01*
X85777390Y-83821542D01*
X85777390Y-84202495D01*
X85253580Y-83297733D02*
X85253580Y-82678685D01*
X85634533Y-83012019D01*
X85634533Y-82869161D01*
X85682152Y-82773923D01*
X85729771Y-82726304D01*
X85825009Y-82678685D01*
X86063104Y-82678685D01*
X86158342Y-82726304D01*
X86205961Y-82773923D01*
X86253580Y-82869161D01*
X86253580Y-83154876D01*
X86205961Y-83250114D01*
X86158342Y-83297733D01*
%TO.C,Q3*%
X65404761Y-96047619D02*
X65309523Y-96000000D01*
X65214285Y-95904761D01*
X65071428Y-95761904D01*
X64976190Y-95714285D01*
X64880952Y-95714285D01*
X64928571Y-95952380D02*
X64833333Y-95904761D01*
X64738095Y-95809523D01*
X64690476Y-95619047D01*
X64690476Y-95285714D01*
X64738095Y-95095238D01*
X64833333Y-95000000D01*
X64928571Y-94952380D01*
X65119047Y-94952380D01*
X65214285Y-95000000D01*
X65309523Y-95095238D01*
X65357142Y-95285714D01*
X65357142Y-95619047D01*
X65309523Y-95809523D01*
X65214285Y-95904761D01*
X65119047Y-95952380D01*
X64928571Y-95952380D01*
X65690476Y-94952380D02*
X66309523Y-94952380D01*
X65976190Y-95333333D01*
X66119047Y-95333333D01*
X66214285Y-95380952D01*
X66261904Y-95428571D01*
X66309523Y-95523809D01*
X66309523Y-95761904D01*
X66261904Y-95857142D01*
X66214285Y-95904761D01*
X66119047Y-95952380D01*
X65833333Y-95952380D01*
X65738095Y-95904761D01*
X65690476Y-95857142D01*
%TO.C,Q2*%
X84654761Y-96047619D02*
X84559523Y-96000000D01*
X84464285Y-95904761D01*
X84321428Y-95761904D01*
X84226190Y-95714285D01*
X84130952Y-95714285D01*
X84178571Y-95952380D02*
X84083333Y-95904761D01*
X83988095Y-95809523D01*
X83940476Y-95619047D01*
X83940476Y-95285714D01*
X83988095Y-95095238D01*
X84083333Y-95000000D01*
X84178571Y-94952380D01*
X84369047Y-94952380D01*
X84464285Y-95000000D01*
X84559523Y-95095238D01*
X84607142Y-95285714D01*
X84607142Y-95619047D01*
X84559523Y-95809523D01*
X84464285Y-95904761D01*
X84369047Y-95952380D01*
X84178571Y-95952380D01*
X84988095Y-95047619D02*
X85035714Y-95000000D01*
X85130952Y-94952380D01*
X85369047Y-94952380D01*
X85464285Y-95000000D01*
X85511904Y-95047619D01*
X85559523Y-95142857D01*
X85559523Y-95238095D01*
X85511904Y-95380952D01*
X84940476Y-95952380D01*
X85559523Y-95952380D01*
%TO.C,LED3*%
X69946780Y-83770647D02*
X69946780Y-84246838D01*
X68946780Y-84246838D01*
X69422971Y-83437314D02*
X69422971Y-83103980D01*
X69946780Y-82961123D02*
X69946780Y-83437314D01*
X68946780Y-83437314D01*
X68946780Y-82961123D01*
X69946780Y-82532552D02*
X68946780Y-82532552D01*
X68946780Y-82294457D01*
X68994400Y-82151600D01*
X69089638Y-82056361D01*
X69184876Y-82008742D01*
X69375352Y-81961123D01*
X69518209Y-81961123D01*
X69708685Y-82008742D01*
X69803923Y-82056361D01*
X69899161Y-82151600D01*
X69946780Y-82294457D01*
X69946780Y-82532552D01*
X68946780Y-81627790D02*
X68946780Y-81008742D01*
X69327733Y-81342076D01*
X69327733Y-81199219D01*
X69375352Y-81103980D01*
X69422971Y-81056361D01*
X69518209Y-81008742D01*
X69756304Y-81008742D01*
X69851542Y-81056361D01*
X69899161Y-81103980D01*
X69946780Y-81199219D01*
X69946780Y-81484933D01*
X69899161Y-81580171D01*
X69851542Y-81627790D01*
%TO.C,LED2*%
X89199980Y-83719847D02*
X89199980Y-84196038D01*
X88199980Y-84196038D01*
X88676171Y-83386514D02*
X88676171Y-83053180D01*
X89199980Y-82910323D02*
X89199980Y-83386514D01*
X88199980Y-83386514D01*
X88199980Y-82910323D01*
X89199980Y-82481752D02*
X88199980Y-82481752D01*
X88199980Y-82243657D01*
X88247600Y-82100800D01*
X88342838Y-82005561D01*
X88438076Y-81957942D01*
X88628552Y-81910323D01*
X88771409Y-81910323D01*
X88961885Y-81957942D01*
X89057123Y-82005561D01*
X89152361Y-82100800D01*
X89199980Y-82243657D01*
X89199980Y-82481752D01*
X88295219Y-81529371D02*
X88247600Y-81481752D01*
X88199980Y-81386514D01*
X88199980Y-81148419D01*
X88247600Y-81053180D01*
X88295219Y-81005561D01*
X88390457Y-80957942D01*
X88485695Y-80957942D01*
X88628552Y-81005561D01*
X89199980Y-81576990D01*
X89199980Y-80957942D01*
%TO.C,D3*%
X54761904Y-84952380D02*
X54761904Y-83952380D01*
X55000000Y-83952380D01*
X55142857Y-84000000D01*
X55238095Y-84095238D01*
X55285714Y-84190476D01*
X55333333Y-84380952D01*
X55333333Y-84523809D01*
X55285714Y-84714285D01*
X55238095Y-84809523D01*
X55142857Y-84904761D01*
X55000000Y-84952380D01*
X54761904Y-84952380D01*
X55666666Y-83952380D02*
X56285714Y-83952380D01*
X55952380Y-84333333D01*
X56095238Y-84333333D01*
X56190476Y-84380952D01*
X56238095Y-84428571D01*
X56285714Y-84523809D01*
X56285714Y-84761904D01*
X56238095Y-84857142D01*
X56190476Y-84904761D01*
X56095238Y-84952380D01*
X55809523Y-84952380D01*
X55714285Y-84904761D01*
X55666666Y-84857142D01*
%TO.C,D2*%
X74039504Y-84932780D02*
X74039504Y-83932780D01*
X74277600Y-83932780D01*
X74420457Y-83980400D01*
X74515695Y-84075638D01*
X74563314Y-84170876D01*
X74610933Y-84361352D01*
X74610933Y-84504209D01*
X74563314Y-84694685D01*
X74515695Y-84789923D01*
X74420457Y-84885161D01*
X74277600Y-84932780D01*
X74039504Y-84932780D01*
X74991885Y-84028019D02*
X75039504Y-83980400D01*
X75134742Y-83932780D01*
X75372838Y-83932780D01*
X75468076Y-83980400D01*
X75515695Y-84028019D01*
X75563314Y-84123257D01*
X75563314Y-84218495D01*
X75515695Y-84361352D01*
X74944266Y-84932780D01*
X75563314Y-84932780D01*
%TO.C,C9*%
X60361533Y-95861142D02*
X60313914Y-95908761D01*
X60171057Y-95956380D01*
X60075819Y-95956380D01*
X59932961Y-95908761D01*
X59837723Y-95813523D01*
X59790104Y-95718285D01*
X59742485Y-95527809D01*
X59742485Y-95384952D01*
X59790104Y-95194476D01*
X59837723Y-95099238D01*
X59932961Y-95004000D01*
X60075819Y-94956380D01*
X60171057Y-94956380D01*
X60313914Y-95004000D01*
X60361533Y-95051619D01*
X60837723Y-95956380D02*
X61028200Y-95956380D01*
X61123438Y-95908761D01*
X61171057Y-95861142D01*
X61266295Y-95718285D01*
X61313914Y-95527809D01*
X61313914Y-95146857D01*
X61266295Y-95051619D01*
X61218676Y-95004000D01*
X61123438Y-94956380D01*
X60932961Y-94956380D01*
X60837723Y-95004000D01*
X60790104Y-95051619D01*
X60742485Y-95146857D01*
X60742485Y-95384952D01*
X60790104Y-95480190D01*
X60837723Y-95527809D01*
X60932961Y-95575428D01*
X61123438Y-95575428D01*
X61218676Y-95527809D01*
X61266295Y-95480190D01*
X61313914Y-95384952D01*
%TO.C,C8*%
X79614733Y-95835742D02*
X79567114Y-95883361D01*
X79424257Y-95930980D01*
X79329019Y-95930980D01*
X79186161Y-95883361D01*
X79090923Y-95788123D01*
X79043304Y-95692885D01*
X78995685Y-95502409D01*
X78995685Y-95359552D01*
X79043304Y-95169076D01*
X79090923Y-95073838D01*
X79186161Y-94978600D01*
X79329019Y-94930980D01*
X79424257Y-94930980D01*
X79567114Y-94978600D01*
X79614733Y-95026219D01*
X80186161Y-95359552D02*
X80090923Y-95311933D01*
X80043304Y-95264314D01*
X79995685Y-95169076D01*
X79995685Y-95121457D01*
X80043304Y-95026219D01*
X80090923Y-94978600D01*
X80186161Y-94930980D01*
X80376638Y-94930980D01*
X80471876Y-94978600D01*
X80519495Y-95026219D01*
X80567114Y-95121457D01*
X80567114Y-95169076D01*
X80519495Y-95264314D01*
X80471876Y-95311933D01*
X80376638Y-95359552D01*
X80186161Y-95359552D01*
X80090923Y-95407171D01*
X80043304Y-95454790D01*
X79995685Y-95550028D01*
X79995685Y-95740504D01*
X80043304Y-95835742D01*
X80090923Y-95883361D01*
X80186161Y-95930980D01*
X80376638Y-95930980D01*
X80471876Y-95883361D01*
X80519495Y-95835742D01*
X80567114Y-95740504D01*
X80567114Y-95550028D01*
X80519495Y-95454790D01*
X80471876Y-95407171D01*
X80376638Y-95359552D01*
%TO.C,C7*%
X98817133Y-95937342D02*
X98769514Y-95984961D01*
X98626657Y-96032580D01*
X98531419Y-96032580D01*
X98388561Y-95984961D01*
X98293323Y-95889723D01*
X98245704Y-95794485D01*
X98198085Y-95604009D01*
X98198085Y-95461152D01*
X98245704Y-95270676D01*
X98293323Y-95175438D01*
X98388561Y-95080200D01*
X98531419Y-95032580D01*
X98626657Y-95032580D01*
X98769514Y-95080200D01*
X98817133Y-95127819D01*
X99150466Y-95032580D02*
X99817133Y-95032580D01*
X99388561Y-96032580D01*
%TO.C,SW1*%
X126207780Y-101286119D02*
X125731590Y-101619452D01*
X126207780Y-101857547D02*
X125207780Y-101857547D01*
X125207780Y-101476595D01*
X125255400Y-101381357D01*
X125303019Y-101333738D01*
X125398257Y-101286119D01*
X125541114Y-101286119D01*
X125636352Y-101333738D01*
X125683971Y-101381357D01*
X125731590Y-101476595D01*
X125731590Y-101857547D01*
X126160161Y-100905166D02*
X126207780Y-100762309D01*
X126207780Y-100524214D01*
X126160161Y-100428976D01*
X126112542Y-100381357D01*
X126017304Y-100333738D01*
X125922066Y-100333738D01*
X125826828Y-100381357D01*
X125779209Y-100428976D01*
X125731590Y-100524214D01*
X125683971Y-100714690D01*
X125636352Y-100809928D01*
X125588733Y-100857547D01*
X125493495Y-100905166D01*
X125398257Y-100905166D01*
X125303019Y-100857547D01*
X125255400Y-100809928D01*
X125207780Y-100714690D01*
X125207780Y-100476595D01*
X125255400Y-100333738D01*
X125207780Y-100048023D02*
X125207780Y-99476595D01*
X126207780Y-99762309D02*
X125207780Y-99762309D01*
%TO.C,S0*%
X115655095Y-106487761D02*
X115797952Y-106535380D01*
X116036047Y-106535380D01*
X116131285Y-106487761D01*
X116178904Y-106440142D01*
X116226523Y-106344904D01*
X116226523Y-106249666D01*
X116178904Y-106154428D01*
X116131285Y-106106809D01*
X116036047Y-106059190D01*
X115845571Y-106011571D01*
X115750333Y-105963952D01*
X115702714Y-105916333D01*
X115655095Y-105821095D01*
X115655095Y-105725857D01*
X115702714Y-105630619D01*
X115750333Y-105583000D01*
X115845571Y-105535380D01*
X116083666Y-105535380D01*
X116226523Y-105583000D01*
X116845571Y-105535380D02*
X116940809Y-105535380D01*
X117036047Y-105583000D01*
X117083666Y-105630619D01*
X117131285Y-105725857D01*
X117178904Y-105916333D01*
X117178904Y-106154428D01*
X117131285Y-106344904D01*
X117083666Y-106440142D01*
X117036047Y-106487761D01*
X116940809Y-106535380D01*
X116845571Y-106535380D01*
X116750333Y-106487761D01*
X116702714Y-106440142D01*
X116655095Y-106344904D01*
X116607476Y-106154428D01*
X116607476Y-105916333D01*
X116655095Y-105725857D01*
X116702714Y-105630619D01*
X116750333Y-105583000D01*
X116845571Y-105535380D01*
%TO.C,S1*%
X102778095Y-106487761D02*
X102920952Y-106535380D01*
X103159047Y-106535380D01*
X103254285Y-106487761D01*
X103301904Y-106440142D01*
X103349523Y-106344904D01*
X103349523Y-106249666D01*
X103301904Y-106154428D01*
X103254285Y-106106809D01*
X103159047Y-106059190D01*
X102968571Y-106011571D01*
X102873333Y-105963952D01*
X102825714Y-105916333D01*
X102778095Y-105821095D01*
X102778095Y-105725857D01*
X102825714Y-105630619D01*
X102873333Y-105583000D01*
X102968571Y-105535380D01*
X103206666Y-105535380D01*
X103349523Y-105583000D01*
X104301904Y-106535380D02*
X103730476Y-106535380D01*
X104016190Y-106535380D02*
X104016190Y-105535380D01*
X103920952Y-105678238D01*
X103825714Y-105773476D01*
X103730476Y-105821095D01*
%TO.C,R9*%
X98688880Y-52808166D02*
X98212690Y-53141500D01*
X98688880Y-53379595D02*
X97688880Y-53379595D01*
X97688880Y-52998642D01*
X97736500Y-52903404D01*
X97784119Y-52855785D01*
X97879357Y-52808166D01*
X98022214Y-52808166D01*
X98117452Y-52855785D01*
X98165071Y-52903404D01*
X98212690Y-52998642D01*
X98212690Y-53379595D01*
X98688880Y-52331976D02*
X98688880Y-52141500D01*
X98641261Y-52046261D01*
X98593642Y-51998642D01*
X98450785Y-51903404D01*
X98260309Y-51855785D01*
X97879357Y-51855785D01*
X97784119Y-51903404D01*
X97736500Y-51951023D01*
X97688880Y-52046261D01*
X97688880Y-52236738D01*
X97736500Y-52331976D01*
X97784119Y-52379595D01*
X97879357Y-52427214D01*
X98117452Y-52427214D01*
X98212690Y-52379595D01*
X98260309Y-52331976D01*
X98307928Y-52236738D01*
X98307928Y-52046261D01*
X98260309Y-51951023D01*
X98212690Y-51903404D01*
X98117452Y-51855785D01*
%TO.C,U2*%
X93013095Y-59078880D02*
X93013095Y-59888404D01*
X93060714Y-59983642D01*
X93108333Y-60031261D01*
X93203571Y-60078880D01*
X93394047Y-60078880D01*
X93489285Y-60031261D01*
X93536904Y-59983642D01*
X93584523Y-59888404D01*
X93584523Y-59078880D01*
X94013095Y-59174119D02*
X94060714Y-59126500D01*
X94155952Y-59078880D01*
X94394047Y-59078880D01*
X94489285Y-59126500D01*
X94536904Y-59174119D01*
X94584523Y-59269357D01*
X94584523Y-59364595D01*
X94536904Y-59507452D01*
X93965476Y-60078880D01*
X94584523Y-60078880D01*
%TO.C,U5*%
X88188895Y-45680380D02*
X88188895Y-46489904D01*
X88236514Y-46585142D01*
X88284133Y-46632761D01*
X88379371Y-46680380D01*
X88569847Y-46680380D01*
X88665085Y-46632761D01*
X88712704Y-46585142D01*
X88760323Y-46489904D01*
X88760323Y-45680380D01*
X89712704Y-45680380D02*
X89236514Y-45680380D01*
X89188895Y-46156571D01*
X89236514Y-46108952D01*
X89331752Y-46061333D01*
X89569847Y-46061333D01*
X89665085Y-46108952D01*
X89712704Y-46156571D01*
X89760323Y-46251809D01*
X89760323Y-46489904D01*
X89712704Y-46585142D01*
X89665085Y-46632761D01*
X89569847Y-46680380D01*
X89331752Y-46680380D01*
X89236514Y-46632761D01*
X89188895Y-46585142D01*
%TO.C,R17*%
X115752642Y-35123380D02*
X115419309Y-34647190D01*
X115181214Y-35123380D02*
X115181214Y-34123380D01*
X115562166Y-34123380D01*
X115657404Y-34171000D01*
X115705023Y-34218619D01*
X115752642Y-34313857D01*
X115752642Y-34456714D01*
X115705023Y-34551952D01*
X115657404Y-34599571D01*
X115562166Y-34647190D01*
X115181214Y-34647190D01*
X116705023Y-35123380D02*
X116133595Y-35123380D01*
X116419309Y-35123380D02*
X116419309Y-34123380D01*
X116324071Y-34266238D01*
X116228833Y-34361476D01*
X116133595Y-34409095D01*
X117038357Y-34123380D02*
X117705023Y-34123380D01*
X117276452Y-35123380D01*
%TO.C,R10*%
X115752642Y-32646880D02*
X115419309Y-32170690D01*
X115181214Y-32646880D02*
X115181214Y-31646880D01*
X115562166Y-31646880D01*
X115657404Y-31694500D01*
X115705023Y-31742119D01*
X115752642Y-31837357D01*
X115752642Y-31980214D01*
X115705023Y-32075452D01*
X115657404Y-32123071D01*
X115562166Y-32170690D01*
X115181214Y-32170690D01*
X116705023Y-32646880D02*
X116133595Y-32646880D01*
X116419309Y-32646880D02*
X116419309Y-31646880D01*
X116324071Y-31789738D01*
X116228833Y-31884976D01*
X116133595Y-31932595D01*
X117324071Y-31646880D02*
X117419309Y-31646880D01*
X117514547Y-31694500D01*
X117562166Y-31742119D01*
X117609785Y-31837357D01*
X117657404Y-32027833D01*
X117657404Y-32265928D01*
X117609785Y-32456404D01*
X117562166Y-32551642D01*
X117514547Y-32599261D01*
X117419309Y-32646880D01*
X117324071Y-32646880D01*
X117228833Y-32599261D01*
X117181214Y-32551642D01*
X117133595Y-32456404D01*
X117085976Y-32265928D01*
X117085976Y-32027833D01*
X117133595Y-31837357D01*
X117181214Y-31742119D01*
X117228833Y-31694500D01*
X117324071Y-31646880D01*
%TO.C,U3*%
X124866095Y-74509380D02*
X124866095Y-75318904D01*
X124913714Y-75414142D01*
X124961333Y-75461761D01*
X125056571Y-75509380D01*
X125247047Y-75509380D01*
X125342285Y-75461761D01*
X125389904Y-75414142D01*
X125437523Y-75318904D01*
X125437523Y-74509380D01*
X125818476Y-74509380D02*
X126437523Y-74509380D01*
X126104190Y-74890333D01*
X126247047Y-74890333D01*
X126342285Y-74937952D01*
X126389904Y-74985571D01*
X126437523Y-75080809D01*
X126437523Y-75318904D01*
X126389904Y-75414142D01*
X126342285Y-75461761D01*
X126247047Y-75509380D01*
X125961333Y-75509380D01*
X125866095Y-75461761D01*
X125818476Y-75414142D01*
%TO.C,R18*%
X127616442Y-85177980D02*
X127283109Y-84701790D01*
X127045014Y-85177980D02*
X127045014Y-84177980D01*
X127425966Y-84177980D01*
X127521204Y-84225600D01*
X127568823Y-84273219D01*
X127616442Y-84368457D01*
X127616442Y-84511314D01*
X127568823Y-84606552D01*
X127521204Y-84654171D01*
X127425966Y-84701790D01*
X127045014Y-84701790D01*
X128568823Y-85177980D02*
X127997395Y-85177980D01*
X128283109Y-85177980D02*
X128283109Y-84177980D01*
X128187871Y-84320838D01*
X128092633Y-84416076D01*
X127997395Y-84463695D01*
X129140252Y-84606552D02*
X129045014Y-84558933D01*
X128997395Y-84511314D01*
X128949776Y-84416076D01*
X128949776Y-84368457D01*
X128997395Y-84273219D01*
X129045014Y-84225600D01*
X129140252Y-84177980D01*
X129330728Y-84177980D01*
X129425966Y-84225600D01*
X129473585Y-84273219D01*
X129521204Y-84368457D01*
X129521204Y-84416076D01*
X129473585Y-84511314D01*
X129425966Y-84558933D01*
X129330728Y-84606552D01*
X129140252Y-84606552D01*
X129045014Y-84654171D01*
X128997395Y-84701790D01*
X128949776Y-84797028D01*
X128949776Y-84987504D01*
X128997395Y-85082742D01*
X129045014Y-85130361D01*
X129140252Y-85177980D01*
X129330728Y-85177980D01*
X129425966Y-85130361D01*
X129473585Y-85082742D01*
X129521204Y-84987504D01*
X129521204Y-84797028D01*
X129473585Y-84701790D01*
X129425966Y-84654171D01*
X129330728Y-84606552D01*
%TO.C,Q4*%
X115919261Y-27852619D02*
X115824023Y-27805000D01*
X115728785Y-27709761D01*
X115585928Y-27566904D01*
X115490690Y-27519285D01*
X115395452Y-27519285D01*
X115443071Y-27757380D02*
X115347833Y-27709761D01*
X115252595Y-27614523D01*
X115204976Y-27424047D01*
X115204976Y-27090714D01*
X115252595Y-26900238D01*
X115347833Y-26805000D01*
X115443071Y-26757380D01*
X115633547Y-26757380D01*
X115728785Y-26805000D01*
X115824023Y-26900238D01*
X115871642Y-27090714D01*
X115871642Y-27424047D01*
X115824023Y-27614523D01*
X115728785Y-27709761D01*
X115633547Y-27757380D01*
X115443071Y-27757380D01*
X116728785Y-27090714D02*
X116728785Y-27757380D01*
X116490690Y-26709761D02*
X116252595Y-27424047D01*
X116871642Y-27424047D01*
%TO.C,P1*%
X128468380Y-91339895D02*
X127468380Y-91339895D01*
X127468380Y-90958942D01*
X127516000Y-90863704D01*
X127563619Y-90816085D01*
X127658857Y-90768466D01*
X127801714Y-90768466D01*
X127896952Y-90816085D01*
X127944571Y-90863704D01*
X127992190Y-90958942D01*
X127992190Y-91339895D01*
X128468380Y-89816085D02*
X128468380Y-90387514D01*
X128468380Y-90101800D02*
X127468380Y-90101800D01*
X127611238Y-90197038D01*
X127706476Y-90292276D01*
X127754095Y-90387514D01*
%TO.C,LED5*%
X123225085Y-32611961D02*
X123367942Y-32659580D01*
X123606038Y-32659580D01*
X123701276Y-32611961D01*
X123748895Y-32564342D01*
X123796514Y-32469104D01*
X123796514Y-32373866D01*
X123748895Y-32278628D01*
X123701276Y-32231009D01*
X123606038Y-32183390D01*
X123415561Y-32135771D01*
X123320323Y-32088152D01*
X123272704Y-32040533D01*
X123225085Y-31945295D01*
X123225085Y-31850057D01*
X123272704Y-31754819D01*
X123320323Y-31707200D01*
X123415561Y-31659580D01*
X123653657Y-31659580D01*
X123796514Y-31707200D01*
X124225085Y-32659580D02*
X124225085Y-31659580D01*
X124796514Y-32659580D01*
X124796514Y-31659580D01*
X125225085Y-32611961D02*
X125367942Y-32659580D01*
X125606038Y-32659580D01*
X125701276Y-32611961D01*
X125748895Y-32564342D01*
X125796514Y-32469104D01*
X125796514Y-32373866D01*
X125748895Y-32278628D01*
X125701276Y-32231009D01*
X125606038Y-32183390D01*
X125415561Y-32135771D01*
X125320323Y-32088152D01*
X125272704Y-32040533D01*
X125225085Y-31945295D01*
X125225085Y-31850057D01*
X125272704Y-31754819D01*
X125320323Y-31707200D01*
X125415561Y-31659580D01*
X125653657Y-31659580D01*
X125796514Y-31707200D01*
%TO.C,C3*%
X116482833Y-43918142D02*
X116435214Y-43965761D01*
X116292357Y-44013380D01*
X116197119Y-44013380D01*
X116054261Y-43965761D01*
X115959023Y-43870523D01*
X115911404Y-43775285D01*
X115863785Y-43584809D01*
X115863785Y-43441952D01*
X115911404Y-43251476D01*
X115959023Y-43156238D01*
X116054261Y-43061000D01*
X116197119Y-43013380D01*
X116292357Y-43013380D01*
X116435214Y-43061000D01*
X116482833Y-43108619D01*
X116816166Y-43013380D02*
X117435214Y-43013380D01*
X117101880Y-43394333D01*
X117244738Y-43394333D01*
X117339976Y-43441952D01*
X117387595Y-43489571D01*
X117435214Y-43584809D01*
X117435214Y-43822904D01*
X117387595Y-43918142D01*
X117339976Y-43965761D01*
X117244738Y-44013380D01*
X116959023Y-44013380D01*
X116863785Y-43965761D01*
X116816166Y-43918142D01*
%TO.C,C2*%
X124586252Y-80621142D02*
X124532681Y-80668761D01*
X124383872Y-80716380D01*
X124288633Y-80716380D01*
X124151729Y-80668761D01*
X124068395Y-80573523D01*
X124032681Y-80478285D01*
X124008872Y-80287809D01*
X124026729Y-80144952D01*
X124098157Y-79954476D01*
X124157681Y-79859238D01*
X124264824Y-79764000D01*
X124413633Y-79716380D01*
X124508872Y-79716380D01*
X124645776Y-79764000D01*
X124687443Y-79811619D01*
X125068395Y-79811619D02*
X125121967Y-79764000D01*
X125223157Y-79716380D01*
X125461252Y-79716380D01*
X125550538Y-79764000D01*
X125592205Y-79811619D01*
X125627919Y-79906857D01*
X125616014Y-80002095D01*
X125550538Y-80144952D01*
X124907681Y-80716380D01*
X125526729Y-80716380D01*
%TO.C,R12*%
X115689142Y-37599880D02*
X115355809Y-37123690D01*
X115117714Y-37599880D02*
X115117714Y-36599880D01*
X115498666Y-36599880D01*
X115593904Y-36647500D01*
X115641523Y-36695119D01*
X115689142Y-36790357D01*
X115689142Y-36933214D01*
X115641523Y-37028452D01*
X115593904Y-37076071D01*
X115498666Y-37123690D01*
X115117714Y-37123690D01*
X116641523Y-37599880D02*
X116070095Y-37599880D01*
X116355809Y-37599880D02*
X116355809Y-36599880D01*
X116260571Y-36742738D01*
X116165333Y-36837976D01*
X116070095Y-36885595D01*
X117022476Y-36695119D02*
X117070095Y-36647500D01*
X117165333Y-36599880D01*
X117403428Y-36599880D01*
X117498666Y-36647500D01*
X117546285Y-36695119D01*
X117593904Y-36790357D01*
X117593904Y-36885595D01*
X117546285Y-37028452D01*
X116974857Y-37599880D01*
X117593904Y-37599880D01*
%TO.C,K1*%
X93324736Y-95499790D02*
X93324736Y-94498884D01*
X93896682Y-95499790D02*
X93467722Y-94927844D01*
X93896682Y-94498884D02*
X93324736Y-95070831D01*
X94849926Y-95499790D02*
X94277979Y-95499790D01*
X94563953Y-95499790D02*
X94563953Y-94498884D01*
X94468628Y-94641871D01*
X94373304Y-94737195D01*
X94277979Y-94784857D01*
%TO.C,LED7*%
X124333095Y-36599880D02*
X124904523Y-36599880D01*
X124618809Y-37599880D02*
X124618809Y-36599880D01*
X125142619Y-36599880D02*
X125809285Y-37599880D01*
X125809285Y-36599880D02*
X125142619Y-37599880D01*
%TO.C,LED6*%
X124801333Y-35059880D02*
X124468000Y-34583690D01*
X124229904Y-35059880D02*
X124229904Y-34059880D01*
X124610857Y-34059880D01*
X124706095Y-34107500D01*
X124753714Y-34155119D01*
X124801333Y-34250357D01*
X124801333Y-34393214D01*
X124753714Y-34488452D01*
X124706095Y-34536071D01*
X124610857Y-34583690D01*
X124229904Y-34583690D01*
X125134666Y-34059880D02*
X125801333Y-35059880D01*
X125801333Y-34059880D02*
X125134666Y-35059880D01*
%TO.C,R11*%
X122928142Y-85161380D02*
X122594809Y-84685190D01*
X122356714Y-85161380D02*
X122356714Y-84161380D01*
X122737666Y-84161380D01*
X122832904Y-84209000D01*
X122880523Y-84256619D01*
X122928142Y-84351857D01*
X122928142Y-84494714D01*
X122880523Y-84589952D01*
X122832904Y-84637571D01*
X122737666Y-84685190D01*
X122356714Y-84685190D01*
X123880523Y-85161380D02*
X123309095Y-85161380D01*
X123594809Y-85161380D02*
X123594809Y-84161380D01*
X123499571Y-84304238D01*
X123404333Y-84399476D01*
X123309095Y-84447095D01*
X124832904Y-85161380D02*
X124261476Y-85161380D01*
X124547190Y-85161380D02*
X124547190Y-84161380D01*
X124451952Y-84304238D01*
X124356714Y-84399476D01*
X124261476Y-84447095D01*
%TO.C,ALED1*%
X53062166Y-34735828D02*
X53062166Y-34259638D01*
X53347880Y-34831066D02*
X52347880Y-34497733D01*
X53347880Y-34164400D01*
X53347880Y-33354876D02*
X53347880Y-33831066D01*
X52347880Y-33831066D01*
X52824071Y-33021542D02*
X52824071Y-32688209D01*
X53347880Y-32545352D02*
X53347880Y-33021542D01*
X52347880Y-33021542D01*
X52347880Y-32545352D01*
X53347880Y-32116780D02*
X52347880Y-32116780D01*
X52347880Y-31878685D01*
X52395500Y-31735828D01*
X52490738Y-31640590D01*
X52585976Y-31592971D01*
X52776452Y-31545352D01*
X52919309Y-31545352D01*
X53109785Y-31592971D01*
X53205023Y-31640590D01*
X53300261Y-31735828D01*
X53347880Y-31878685D01*
X53347880Y-32116780D01*
X53347880Y-30592971D02*
X53347880Y-31164400D01*
X53347880Y-30878685D02*
X52347880Y-30878685D01*
X52490738Y-30973923D01*
X52585976Y-31069161D01*
X52633595Y-31164400D01*
%TO.C,R5*%
X53347880Y-37936466D02*
X52871690Y-38269800D01*
X53347880Y-38507895D02*
X52347880Y-38507895D01*
X52347880Y-38126942D01*
X52395500Y-38031704D01*
X52443119Y-37984085D01*
X52538357Y-37936466D01*
X52681214Y-37936466D01*
X52776452Y-37984085D01*
X52824071Y-38031704D01*
X52871690Y-38126942D01*
X52871690Y-38507895D01*
X52347880Y-37031704D02*
X52347880Y-37507895D01*
X52824071Y-37555514D01*
X52776452Y-37507895D01*
X52728833Y-37412657D01*
X52728833Y-37174561D01*
X52776452Y-37079323D01*
X52824071Y-37031704D01*
X52919309Y-36984085D01*
X53157404Y-36984085D01*
X53252642Y-37031704D01*
X53300261Y-37079323D01*
X53347880Y-37174561D01*
X53347880Y-37412657D01*
X53300261Y-37507895D01*
X53252642Y-37555514D01*
%TO.C,R1*%
X104952380Y-83803166D02*
X104476190Y-84136500D01*
X104952380Y-84374595D02*
X103952380Y-84374595D01*
X103952380Y-83993642D01*
X104000000Y-83898404D01*
X104047619Y-83850785D01*
X104142857Y-83803166D01*
X104285714Y-83803166D01*
X104380952Y-83850785D01*
X104428571Y-83898404D01*
X104476190Y-83993642D01*
X104476190Y-84374595D01*
X104952380Y-82850785D02*
X104952380Y-83422214D01*
X104952380Y-83136500D02*
X103952380Y-83136500D01*
X104095238Y-83231738D01*
X104190476Y-83326976D01*
X104238095Y-83422214D01*
%TO.C,R2*%
X99461580Y-83783466D02*
X98985390Y-84116800D01*
X99461580Y-84354895D02*
X98461580Y-84354895D01*
X98461580Y-83973942D01*
X98509200Y-83878704D01*
X98556819Y-83831085D01*
X98652057Y-83783466D01*
X98794914Y-83783466D01*
X98890152Y-83831085D01*
X98937771Y-83878704D01*
X98985390Y-83973942D01*
X98985390Y-84354895D01*
X98556819Y-83402514D02*
X98509200Y-83354895D01*
X98461580Y-83259657D01*
X98461580Y-83021561D01*
X98509200Y-82926323D01*
X98556819Y-82878704D01*
X98652057Y-82831085D01*
X98747295Y-82831085D01*
X98890152Y-82878704D01*
X99461580Y-83450133D01*
X99461580Y-82831085D01*
%TO.C,R8*%
X98688880Y-66892466D02*
X98212690Y-67225800D01*
X98688880Y-67463895D02*
X97688880Y-67463895D01*
X97688880Y-67082942D01*
X97736500Y-66987704D01*
X97784119Y-66940085D01*
X97879357Y-66892466D01*
X98022214Y-66892466D01*
X98117452Y-66940085D01*
X98165071Y-66987704D01*
X98212690Y-67082942D01*
X98212690Y-67463895D01*
X98117452Y-66321038D02*
X98069833Y-66416276D01*
X98022214Y-66463895D01*
X97926976Y-66511514D01*
X97879357Y-66511514D01*
X97784119Y-66463895D01*
X97736500Y-66416276D01*
X97688880Y-66321038D01*
X97688880Y-66130561D01*
X97736500Y-66035323D01*
X97784119Y-65987704D01*
X97879357Y-65940085D01*
X97926976Y-65940085D01*
X98022214Y-65987704D01*
X98069833Y-66035323D01*
X98117452Y-66130561D01*
X98117452Y-66321038D01*
X98165071Y-66416276D01*
X98212690Y-66463895D01*
X98307928Y-66511514D01*
X98498404Y-66511514D01*
X98593642Y-66463895D01*
X98641261Y-66416276D01*
X98688880Y-66321038D01*
X98688880Y-66130561D01*
X98641261Y-66035323D01*
X98593642Y-65987704D01*
X98498404Y-65940085D01*
X98307928Y-65940085D01*
X98212690Y-65987704D01*
X98165071Y-66035323D01*
X98117452Y-66130561D01*
%TO.C,C1*%
X53201842Y-27903466D02*
X53249461Y-27951085D01*
X53297080Y-28093942D01*
X53297080Y-28189180D01*
X53249461Y-28332038D01*
X53154223Y-28427276D01*
X53058985Y-28474895D01*
X52868509Y-28522514D01*
X52725652Y-28522514D01*
X52535176Y-28474895D01*
X52439938Y-28427276D01*
X52344700Y-28332038D01*
X52297080Y-28189180D01*
X52297080Y-28093942D01*
X52344700Y-27951085D01*
X52392319Y-27903466D01*
X53297080Y-26951085D02*
X53297080Y-27522514D01*
X53297080Y-27236800D02*
X52297080Y-27236800D01*
X52439938Y-27332038D01*
X52535176Y-27427276D01*
X52582795Y-27522514D01*
%TO.C,LED4*%
X123126666Y-40139880D02*
X123126666Y-39139880D01*
X123507619Y-39139880D01*
X123602857Y-39187500D01*
X123650476Y-39235119D01*
X123698095Y-39330357D01*
X123698095Y-39473214D01*
X123650476Y-39568452D01*
X123602857Y-39616071D01*
X123507619Y-39663690D01*
X123126666Y-39663690D01*
X124031428Y-39139880D02*
X124269523Y-40139880D01*
X124460000Y-39425595D01*
X124650476Y-40139880D01*
X124888571Y-39139880D01*
X125840952Y-40139880D02*
X125507619Y-39663690D01*
X125269523Y-40139880D02*
X125269523Y-39139880D01*
X125650476Y-39139880D01*
X125745714Y-39187500D01*
X125793333Y-39235119D01*
X125840952Y-39330357D01*
X125840952Y-39473214D01*
X125793333Y-39568452D01*
X125745714Y-39616071D01*
X125650476Y-39663690D01*
X125269523Y-39663690D01*
%TO.C,LED1*%
X107702380Y-83925047D02*
X107702380Y-84401238D01*
X106702380Y-84401238D01*
X107178571Y-83591714D02*
X107178571Y-83258380D01*
X107702380Y-83115523D02*
X107702380Y-83591714D01*
X106702380Y-83591714D01*
X106702380Y-83115523D01*
X107702380Y-82686952D02*
X106702380Y-82686952D01*
X106702380Y-82448857D01*
X106750000Y-82306000D01*
X106845238Y-82210761D01*
X106940476Y-82163142D01*
X107130952Y-82115523D01*
X107273809Y-82115523D01*
X107464285Y-82163142D01*
X107559523Y-82210761D01*
X107654761Y-82306000D01*
X107702380Y-82448857D01*
X107702380Y-82686952D01*
X107702380Y-81163142D02*
X107702380Y-81734571D01*
X107702380Y-81448857D02*
X106702380Y-81448857D01*
X106845238Y-81544095D01*
X106940476Y-81639333D01*
X106988095Y-81734571D01*
%TO.C,U1*%
X109347095Y-54697380D02*
X109347095Y-55506904D01*
X109394714Y-55602142D01*
X109442333Y-55649761D01*
X109537571Y-55697380D01*
X109728047Y-55697380D01*
X109823285Y-55649761D01*
X109870904Y-55602142D01*
X109918523Y-55506904D01*
X109918523Y-54697380D01*
X110918523Y-55697380D02*
X110347095Y-55697380D01*
X110632809Y-55697380D02*
X110632809Y-54697380D01*
X110537571Y-54840238D01*
X110442333Y-54935476D01*
X110347095Y-54983095D01*
%TO.C,Q1*%
X103435161Y-96127819D02*
X103339923Y-96080200D01*
X103244685Y-95984961D01*
X103101828Y-95842104D01*
X103006590Y-95794485D01*
X102911352Y-95794485D01*
X102958971Y-96032580D02*
X102863733Y-95984961D01*
X102768495Y-95889723D01*
X102720876Y-95699247D01*
X102720876Y-95365914D01*
X102768495Y-95175438D01*
X102863733Y-95080200D01*
X102958971Y-95032580D01*
X103149447Y-95032580D01*
X103244685Y-95080200D01*
X103339923Y-95175438D01*
X103387542Y-95365914D01*
X103387542Y-95699247D01*
X103339923Y-95889723D01*
X103244685Y-95984961D01*
X103149447Y-96032580D01*
X102958971Y-96032580D01*
X104339923Y-96032580D02*
X103768495Y-96032580D01*
X104054209Y-96032580D02*
X104054209Y-95032580D01*
X103958971Y-95175438D01*
X103863733Y-95270676D01*
X103768495Y-95318295D01*
%TO.C,D1*%
X93289404Y-84952380D02*
X93289404Y-83952380D01*
X93527500Y-83952380D01*
X93670357Y-84000000D01*
X93765595Y-84095238D01*
X93813214Y-84190476D01*
X93860833Y-84380952D01*
X93860833Y-84523809D01*
X93813214Y-84714285D01*
X93765595Y-84809523D01*
X93670357Y-84904761D01*
X93527500Y-84952380D01*
X93289404Y-84952380D01*
X94813214Y-84952380D02*
X94241785Y-84952380D01*
X94527500Y-84952380D02*
X94527500Y-83952380D01*
X94432261Y-84095238D01*
X94337023Y-84190476D01*
X94241785Y-84238095D01*
%TO.C,D4*%
X44763904Y-80081380D02*
X44763904Y-79081380D01*
X45002000Y-79081380D01*
X45144857Y-79129000D01*
X45240095Y-79224238D01*
X45287714Y-79319476D01*
X45335333Y-79509952D01*
X45335333Y-79652809D01*
X45287714Y-79843285D01*
X45240095Y-79938523D01*
X45144857Y-80033761D01*
X45002000Y-80081380D01*
X44763904Y-80081380D01*
X46192476Y-79414714D02*
X46192476Y-80081380D01*
X45954380Y-79033761D02*
X45716285Y-79748047D01*
X46335333Y-79748047D01*
%TO.C,R13*%
X106989642Y-44076880D02*
X106656309Y-43600690D01*
X106418214Y-44076880D02*
X106418214Y-43076880D01*
X106799166Y-43076880D01*
X106894404Y-43124500D01*
X106942023Y-43172119D01*
X106989642Y-43267357D01*
X106989642Y-43410214D01*
X106942023Y-43505452D01*
X106894404Y-43553071D01*
X106799166Y-43600690D01*
X106418214Y-43600690D01*
X107942023Y-44076880D02*
X107370595Y-44076880D01*
X107656309Y-44076880D02*
X107656309Y-43076880D01*
X107561071Y-43219738D01*
X107465833Y-43314976D01*
X107370595Y-43362595D01*
X108275357Y-43076880D02*
X108894404Y-43076880D01*
X108561071Y-43457833D01*
X108703928Y-43457833D01*
X108799166Y-43505452D01*
X108846785Y-43553071D01*
X108894404Y-43648309D01*
X108894404Y-43886404D01*
X108846785Y-43981642D01*
X108799166Y-44029261D01*
X108703928Y-44076880D01*
X108418214Y-44076880D01*
X108322976Y-44029261D01*
X108275357Y-43981642D01*
%TO.C,R14*%
X106697542Y-96083380D02*
X106364209Y-95607190D01*
X106126114Y-96083380D02*
X106126114Y-95083380D01*
X106507066Y-95083380D01*
X106602304Y-95131000D01*
X106649923Y-95178619D01*
X106697542Y-95273857D01*
X106697542Y-95416714D01*
X106649923Y-95511952D01*
X106602304Y-95559571D01*
X106507066Y-95607190D01*
X106126114Y-95607190D01*
X107649923Y-96083380D02*
X107078495Y-96083380D01*
X107364209Y-96083380D02*
X107364209Y-95083380D01*
X107268971Y-95226238D01*
X107173733Y-95321476D01*
X107078495Y-95369095D01*
X108507066Y-95416714D02*
X108507066Y-96083380D01*
X108268971Y-95035761D02*
X108030876Y-95750047D01*
X108649923Y-95750047D01*
%TD*%
M02*
