M48
; DRILL file {KiCad 5.99.0+really5.1.10+dfsg1-1} date Tue Jan 11 00:42:58 2022
; FORMAT={-:-/ absolute / inch / decimal}
; #@! TF.CreationDate,2022-01-11T00:42:58+01:00
; #@! TF.GenerationSoftware,Kicad,Pcbnew,5.99.0+really5.1.10+dfsg1-1
FMAT,2
INCH
T1C0.0157
T2C0.0197
T3C0.0374
T4C0.0394
T5C0.0512
T6C0.0598
T7C0.1260
%
G90
G05
T1
X1.85Y-2.704
X1.995Y-1.3375
X2.1375Y-4.2375
X2.212Y-2.608
X2.275Y-1.6
X2.2825Y-1.0925
X2.9245Y-2.94
X3.227Y-3.076
X3.3Y-2.1975
X3.349Y-1.6
X3.4155Y-2.9415
X3.464Y-1.6
X3.555Y-2.1975
X3.6445Y-2.942
X3.665Y-1.9475
X3.668Y-2.608
X3.822Y-2.0275
X3.8505Y-2.597
X3.8505Y-2.6755
X3.874Y-2.79
X3.934Y-3.075
X3.965Y-1.505
X4.005Y-1.505
X4.012Y-1.79
X4.0275Y-2.7245
X4.045Y-1.505
X4.085Y-1.505
X4.102Y-1.99
X4.1275Y-2.9425
X4.1955Y-2.601
X4.23Y-2.274
X4.238Y-2.448
X4.2455Y-2.602
X4.2953Y-2.496
X4.324Y-1.63
X4.3453Y-2.496
X4.347Y-2.944
X4.395Y-1.934
X4.3955Y-2.602
X4.427Y-2.031
X4.4276Y-1.0144
X4.4453Y-2.496
X4.468Y-1.63
X4.4953Y-2.496
X4.521Y-1.762
X4.5855Y-1.4005
X4.5855Y-1.7995
X4.6404Y-3.075
X4.6455Y-2.602
X4.647Y-1.764
X4.6525Y-1.09
X4.663Y-2.174
X4.675Y-1.4675
X4.6955Y-2.602
X4.7453Y-2.3972
X4.83Y-1.6165
X4.8375Y-1.815
X4.8375Y-2.4875
X4.8854Y-1.594
X5.098Y-1.298
T2
X1.6772Y-1.063
X1.6772Y-4.2913
X1.7048Y-0.9962
X1.7048Y-1.1298
X1.7048Y-4.2245
X1.7048Y-4.3582
X1.7717Y-0.9685
X1.7717Y-1.1575
X1.7717Y-4.1969
X1.7717Y-4.3858
X1.8385Y-0.9962
X1.8385Y-1.1298
X1.8385Y-4.2245
X1.8385Y-4.3582
X1.8661Y-1.063
X1.8661Y-4.2913
X4.9055Y-1.063
X4.9055Y-4.2913
X4.9332Y-0.9962
X4.9332Y-1.1298
X4.9332Y-4.2245
X4.9332Y-4.3582
X5.0Y-0.9685
X5.0Y-1.1575
X5.0Y-4.1969
X5.0Y-4.3858
X5.0668Y-0.9962
X5.0668Y-1.1298
X5.0668Y-4.2245
X5.0668Y-4.3582
X5.0945Y-1.063
X5.0945Y-4.2913
T3
X1.8975Y-1.6481
X1.8975Y-1.7466
X1.8975Y-1.845
X1.8975Y-1.9434
X2.555Y-1.1285
X2.555Y-1.227
X2.555Y-1.3254
X2.93Y-1.1285
X2.93Y-1.227
X2.93Y-1.3254
X3.305Y-1.1285
X3.305Y-1.227
X3.305Y-1.3254
X3.68Y-1.1285
X3.68Y-1.227
X3.68Y-1.3254
X4.055Y-1.1285
X4.055Y-1.227
X4.055Y-1.3254
X4.43Y-1.1285
X4.43Y-1.227
X4.43Y-1.3254
T4
X1.82Y-2.265
X1.82Y-2.365
X1.82Y-2.465
X1.82Y-2.565
X1.97Y-2.265
X1.97Y-2.365
X1.97Y-2.465
X1.97Y-2.565
X2.7539Y-3.3839
X3.2264Y-3.3839
X3.4626Y-3.3839
X3.884Y-2.272
X3.935Y-3.3839
X3.984Y-2.272
X4.1713Y-3.3839
X4.2975Y-2.78
X4.3975Y-2.78
X4.4975Y-2.78
X4.5975Y-2.78
X4.6437Y-3.3839
X4.6975Y-2.78
X4.7975Y-2.78
T5
X2.7539Y-3.8642
X2.9921Y-3.3071
X3.2283Y-3.8661
X3.4626Y-3.8642
X3.7008Y-3.3071
X3.937Y-3.8661
X4.1713Y-3.8642
X4.4094Y-3.3071
X4.6457Y-3.8661
T6
X2.8937Y-4.28
X3.0937Y-4.28
X3.6024Y-4.28
X3.8024Y-4.28
X4.311Y-4.28
X4.511Y-4.28
X4.995Y-3.655
X4.995Y-3.855
X5.0Y-3.075
X5.0Y-3.275
T7
X1.7717Y-1.063
X1.7717Y-4.2913
X5.0Y-1.063
X5.0Y-4.2913
T0
M30
