%TF.GenerationSoftware,KiCad,Pcbnew,5.99.0+really5.1.10+dfsg1-1*%
%TF.CreationDate,2022-01-11T00:43:00+01:00*%
%TF.ProjectId,terrarium,74657272-6172-4697-956d-2e6b69636164,rev?*%
%TF.SameCoordinates,Original*%
%TF.FileFunction,Soldermask,Bot*%
%TF.FilePolarity,Negative*%
%FSLAX46Y46*%
G04 Gerber Fmt 4.6, Leading zero omitted, Abs format (unit mm)*
G04 Created by KiCad (PCBNEW 5.99.0+really5.1.10+dfsg1-1) date 2022-01-11 00:43:00*
%MOMM*%
%LPD*%
G01*
G04 APERTURE LIST*
%TA.AperFunction,Profile*%
%ADD10C,0.050000*%
%TD*%
%ADD11O,1.700000X1.700000*%
%ADD12R,1.700000X1.700000*%
%ADD13O,1.950000X1.700000*%
%ADD14C,3.000000*%
%ADD15R,3.000000X3.000000*%
%ADD16C,2.500000*%
%ADD17C,6.400000*%
%ADD18C,0.800000*%
G04 APERTURE END LIST*
D10*
X45000000Y-113000000D02*
G75*
G02*
X41000000Y-109000000I0J4000000D01*
G01*
X131000000Y-109000000D02*
G75*
G02*
X127000000Y-113000000I-4000000J0D01*
G01*
X127000000Y-23000000D02*
G75*
G02*
X131000000Y-27000000I0J-4000000D01*
G01*
X41000000Y-27000000D02*
G75*
G02*
X45000000Y-23000000I4000000J0D01*
G01*
X127000000Y-23000000D02*
X45000000Y-23000000D01*
X131000000Y-109000000D02*
X131000000Y-27000000D01*
X45000000Y-113000000D02*
X127000000Y-113000000D01*
X41000000Y-27000000D02*
X41000000Y-109000000D01*
D11*
%TO.C,RESET_j1*%
X101193600Y-57708800D03*
D12*
X98653600Y-57708800D03*
%TD*%
D11*
%TO.C,UART*%
X109156500Y-70612000D03*
X111696500Y-70612000D03*
X114236500Y-70612000D03*
X116776500Y-70612000D03*
X119316500Y-70612000D03*
D12*
X121856500Y-70612000D03*
%TD*%
D13*
%TO.C,i2c2*%
X48196500Y-49363000D03*
X48196500Y-46863000D03*
X48196500Y-44363000D03*
G36*
G01*
X47471500Y-41013000D02*
X48921500Y-41013000D01*
G75*
G02*
X49171500Y-41263000I0J-250000D01*
G01*
X49171500Y-42463000D01*
G75*
G02*
X48921500Y-42713000I-250000J0D01*
G01*
X47471500Y-42713000D01*
G75*
G02*
X47221500Y-42463000I0J250000D01*
G01*
X47221500Y-41263000D01*
G75*
G02*
X47471500Y-41013000I250000J0D01*
G01*
G37*
%TD*%
%TO.C,SENS1*%
X112522000Y-33665000D03*
X112522000Y-31165000D03*
G36*
G01*
X111797000Y-27815000D02*
X113247000Y-27815000D01*
G75*
G02*
X113497000Y-28065000I0J-250000D01*
G01*
X113497000Y-29265000D01*
G75*
G02*
X113247000Y-29515000I-250000J0D01*
G01*
X111797000Y-29515000D01*
G75*
G02*
X111547000Y-29265000I0J250000D01*
G01*
X111547000Y-28065000D01*
G75*
G02*
X111797000Y-27815000I250000J0D01*
G01*
G37*
%TD*%
%TO.C,SENS3*%
X93472000Y-33665000D03*
X93472000Y-31165000D03*
G36*
G01*
X92747000Y-27815000D02*
X94197000Y-27815000D01*
G75*
G02*
X94447000Y-28065000I0J-250000D01*
G01*
X94447000Y-29265000D01*
G75*
G02*
X94197000Y-29515000I-250000J0D01*
G01*
X92747000Y-29515000D01*
G75*
G02*
X92497000Y-29265000I0J250000D01*
G01*
X92497000Y-28065000D01*
G75*
G02*
X92747000Y-27815000I250000J0D01*
G01*
G37*
%TD*%
%TO.C,SENS2*%
X102997000Y-33665000D03*
X102997000Y-31165000D03*
G36*
G01*
X102272000Y-27815000D02*
X103722000Y-27815000D01*
G75*
G02*
X103972000Y-28065000I0J-250000D01*
G01*
X103972000Y-29265000D01*
G75*
G02*
X103722000Y-29515000I-250000J0D01*
G01*
X102272000Y-29515000D01*
G75*
G02*
X102022000Y-29265000I0J250000D01*
G01*
X102022000Y-28065000D01*
G75*
G02*
X102272000Y-27815000I250000J0D01*
G01*
G37*
%TD*%
%TO.C,SENS4*%
X83947000Y-33665000D03*
X83947000Y-31165000D03*
G36*
G01*
X83222000Y-27815000D02*
X84672000Y-27815000D01*
G75*
G02*
X84922000Y-28065000I0J-250000D01*
G01*
X84922000Y-29265000D01*
G75*
G02*
X84672000Y-29515000I-250000J0D01*
G01*
X83222000Y-29515000D01*
G75*
G02*
X82972000Y-29265000I0J250000D01*
G01*
X82972000Y-28065000D01*
G75*
G02*
X83222000Y-27815000I250000J0D01*
G01*
G37*
%TD*%
%TO.C,SENS5*%
X74422000Y-33665000D03*
X74422000Y-31165000D03*
G36*
G01*
X73697000Y-27815000D02*
X75147000Y-27815000D01*
G75*
G02*
X75397000Y-28065000I0J-250000D01*
G01*
X75397000Y-29265000D01*
G75*
G02*
X75147000Y-29515000I-250000J0D01*
G01*
X73697000Y-29515000D01*
G75*
G02*
X73447000Y-29265000I0J250000D01*
G01*
X73447000Y-28065000D01*
G75*
G02*
X73697000Y-27815000I250000J0D01*
G01*
G37*
%TD*%
D14*
%TO.C,S4*%
X127000000Y-78105000D03*
D15*
X127000000Y-83185000D03*
%TD*%
D13*
%TO.C,SENS6*%
X64897000Y-33665000D03*
X64897000Y-31165000D03*
G36*
G01*
X64172000Y-27815000D02*
X65622000Y-27815000D01*
G75*
G02*
X65872000Y-28065000I0J-250000D01*
G01*
X65872000Y-29265000D01*
G75*
G02*
X65622000Y-29515000I-250000J0D01*
G01*
X64172000Y-29515000D01*
G75*
G02*
X63922000Y-29265000I0J250000D01*
G01*
X63922000Y-28065000D01*
G75*
G02*
X64172000Y-27815000I250000J0D01*
G01*
G37*
%TD*%
D14*
%TO.C,RE1*%
X112000000Y-84000000D03*
D16*
X117950000Y-85950000D03*
D14*
X118000000Y-98200000D03*
X105950000Y-98150000D03*
D16*
X105950000Y-85950000D03*
%TD*%
D14*
%TO.C,RE2*%
X94000000Y-84000000D03*
D16*
X99950000Y-85950000D03*
D14*
X100000000Y-98200000D03*
X87950000Y-98150000D03*
D16*
X87950000Y-85950000D03*
%TD*%
%TO.C,RE3*%
X69950000Y-85950000D03*
D14*
X69950000Y-98150000D03*
X82000000Y-98200000D03*
D16*
X81950000Y-85950000D03*
D14*
X76000000Y-84000000D03*
%TD*%
D17*
%TO.C,H3*%
X45000000Y-109000000D03*
D18*
X47400000Y-109000000D03*
X46697056Y-110697056D03*
X45000000Y-111400000D03*
X43302944Y-110697056D03*
X42600000Y-109000000D03*
X43302944Y-107302944D03*
X45000000Y-106600000D03*
X46697056Y-107302944D03*
%TD*%
D17*
%TO.C,H4*%
X127000000Y-109000000D03*
D18*
X129400000Y-109000000D03*
X128697056Y-110697056D03*
X127000000Y-111400000D03*
X125302944Y-110697056D03*
X124600000Y-109000000D03*
X125302944Y-107302944D03*
X127000000Y-106600000D03*
X128697056Y-107302944D03*
%TD*%
D17*
%TO.C,H1*%
X127000000Y-27000000D03*
D18*
X129400000Y-27000000D03*
X128697056Y-28697056D03*
X127000000Y-29400000D03*
X125302944Y-28697056D03*
X124600000Y-27000000D03*
X125302944Y-25302944D03*
X127000000Y-24600000D03*
X128697056Y-25302944D03*
%TD*%
D17*
%TO.C,H2*%
X45000000Y-27000000D03*
D18*
X47400000Y-27000000D03*
X46697056Y-28697056D03*
X45000000Y-29400000D03*
X43302944Y-28697056D03*
X42600000Y-27000000D03*
X43302944Y-25302944D03*
X45000000Y-24600000D03*
X46697056Y-25302944D03*
%TD*%
D14*
%TO.C,S3*%
X78580000Y-108712000D03*
D15*
X73500000Y-108712000D03*
%TD*%
D14*
%TO.C,S2*%
X96580000Y-108712000D03*
D15*
X91500000Y-108712000D03*
%TD*%
D14*
%TO.C,S1*%
X114580000Y-108712000D03*
D15*
X109500000Y-108712000D03*
%TD*%
D14*
%TO.C,S0*%
X126873000Y-92837000D03*
D15*
X126873000Y-97917000D03*
%TD*%
D11*
%TO.C,i2c4*%
X50038000Y-65151000D03*
X50038000Y-62611000D03*
X50038000Y-60071000D03*
D12*
X50038000Y-57531000D03*
%TD*%
D11*
%TO.C,i2c3*%
X46228000Y-65151000D03*
X46228000Y-62611000D03*
X46228000Y-60071000D03*
D12*
X46228000Y-57531000D03*
%TD*%
M02*
