%TF.GenerationSoftware,KiCad,Pcbnew,5.99.0+really5.1.10+dfsg1-1*%
%TF.CreationDate,2022-06-20T23:21:50+02:00*%
%TF.ProjectId,terrarium,74657272-6172-4697-956d-2e6b69636164,rev?*%
%TF.SameCoordinates,Original*%
%TF.FileFunction,Copper,L1,Top*%
%TF.FilePolarity,Positive*%
%FSLAX46Y46*%
G04 Gerber Fmt 4.6, Leading zero omitted, Abs format (unit mm)*
G04 Created by KiCad (PCBNEW 5.99.0+really5.1.10+dfsg1-1) date 2022-06-20 23:21:50*
%MOMM*%
%LPD*%
G01*
G04 APERTURE LIST*
%TA.AperFunction,NonConductor*%
%ADD10C,0.300000*%
%TD*%
%TA.AperFunction,Profile*%
%ADD11C,0.050000*%
%TD*%
%TA.AperFunction,EtchedComponent*%
%ADD12C,0.010000*%
%TD*%
%TA.AperFunction,ComponentPad*%
%ADD13C,1.700000*%
%TD*%
%TA.AperFunction,ComponentPad*%
%ADD14O,1.600000X1.600000*%
%TD*%
%TA.AperFunction,ComponentPad*%
%ADD15R,1.600000X1.600000*%
%TD*%
%TA.AperFunction,ComponentPad*%
%ADD16O,1.950000X1.700000*%
%TD*%
%TA.AperFunction,ComponentPad*%
%ADD17C,1.524000*%
%TD*%
%TA.AperFunction,ComponentPad*%
%ADD18C,3.000000*%
%TD*%
%TA.AperFunction,ComponentPad*%
%ADD19R,3.000000X3.000000*%
%TD*%
%TA.AperFunction,ComponentPad*%
%ADD20R,1.508000X1.508000*%
%TD*%
%TA.AperFunction,ComponentPad*%
%ADD21C,1.508000*%
%TD*%
%TA.AperFunction,SMDPad,CuDef*%
%ADD22R,0.900000X0.800000*%
%TD*%
%TA.AperFunction,ComponentPad*%
%ADD23C,1.750000*%
%TD*%
%TA.AperFunction,ComponentPad*%
%ADD24R,1.700000X1.700000*%
%TD*%
%TA.AperFunction,ComponentPad*%
%ADD25O,1.700000X1.700000*%
%TD*%
%TA.AperFunction,SMDPad,CuDef*%
%ADD26R,1.131066X0.242474*%
%TD*%
%TA.AperFunction,SMDPad,CuDef*%
%ADD27R,3.350000X3.350000*%
%TD*%
%TA.AperFunction,SMDPad,CuDef*%
%ADD28R,2.000000X1.500000*%
%TD*%
%TA.AperFunction,SMDPad,CuDef*%
%ADD29R,2.000000X3.800000*%
%TD*%
%TA.AperFunction,SMDPad,CuDef*%
%ADD30R,0.800000X0.900000*%
%TD*%
%TA.AperFunction,SMDPad,CuDef*%
%ADD31R,1.160000X0.600000*%
%TD*%
%TA.AperFunction,SMDPad,CuDef*%
%ADD32R,1.160000X0.300000*%
%TD*%
%TA.AperFunction,ComponentPad*%
%ADD33O,1.700000X0.900000*%
%TD*%
%TA.AperFunction,ComponentPad*%
%ADD34O,2.000000X0.900000*%
%TD*%
%TA.AperFunction,SMDPad,CuDef*%
%ADD35R,1.000000X1.500000*%
%TD*%
%TA.AperFunction,ComponentPad*%
%ADD36C,6.400000*%
%TD*%
%TA.AperFunction,ComponentPad*%
%ADD37C,0.800000*%
%TD*%
%TA.AperFunction,SMDPad,CuDef*%
%ADD38R,0.900000X2.000000*%
%TD*%
%TA.AperFunction,SMDPad,CuDef*%
%ADD39R,2.000000X0.900000*%
%TD*%
%TA.AperFunction,SMDPad,CuDef*%
%ADD40R,5.000000X5.000000*%
%TD*%
%TA.AperFunction,ViaPad*%
%ADD41C,0.800000*%
%TD*%
%TA.AperFunction,Conductor*%
%ADD42C,0.250000*%
%TD*%
%TA.AperFunction,Conductor*%
%ADD43C,0.800000*%
%TD*%
%TA.AperFunction,Conductor*%
%ADD44C,0.600000*%
%TD*%
%TA.AperFunction,Conductor*%
%ADD45C,0.400000*%
%TD*%
%TA.AperFunction,Conductor*%
%ADD46C,0.200000*%
%TD*%
%TA.AperFunction,Conductor*%
%ADD47C,3.000000*%
%TD*%
G04 APERTURE END LIST*
D10*
X79289542Y-71230371D02*
X79646685Y-72230371D01*
X80003828Y-71230371D01*
X81360971Y-72230371D02*
X80503828Y-72230371D01*
X80932400Y-72230371D02*
X80932400Y-70730371D01*
X80789542Y-70944657D01*
X80646685Y-71087514D01*
X80503828Y-71158942D01*
X82003828Y-72087514D02*
X82075257Y-72158942D01*
X82003828Y-72230371D01*
X81932400Y-72158942D01*
X82003828Y-72087514D01*
X82003828Y-72230371D01*
X82575257Y-70730371D02*
X83575257Y-70730371D01*
X82932400Y-72230371D01*
X62783757Y-73770371D02*
X63355185Y-73770371D01*
X62998042Y-73270371D02*
X62998042Y-74556085D01*
X63069471Y-74698942D01*
X63212328Y-74770371D01*
X63355185Y-74770371D01*
X64426614Y-74698942D02*
X64283757Y-74770371D01*
X63998042Y-74770371D01*
X63855185Y-74698942D01*
X63783757Y-74556085D01*
X63783757Y-73984657D01*
X63855185Y-73841800D01*
X63998042Y-73770371D01*
X64283757Y-73770371D01*
X64426614Y-73841800D01*
X64498042Y-73984657D01*
X64498042Y-74127514D01*
X63783757Y-74270371D01*
X65140900Y-74770371D02*
X65140900Y-73770371D01*
X65140900Y-74056085D02*
X65212328Y-73913228D01*
X65283757Y-73841800D01*
X65426614Y-73770371D01*
X65569471Y-73770371D01*
X66069471Y-74770371D02*
X66069471Y-73770371D01*
X66069471Y-74056085D02*
X66140900Y-73913228D01*
X66212328Y-73841800D01*
X66355185Y-73770371D01*
X66498042Y-73770371D01*
X67640900Y-74770371D02*
X67640900Y-73984657D01*
X67569471Y-73841800D01*
X67426614Y-73770371D01*
X67140900Y-73770371D01*
X66998042Y-73841800D01*
X67640900Y-74698942D02*
X67498042Y-74770371D01*
X67140900Y-74770371D01*
X66998042Y-74698942D01*
X66926614Y-74556085D01*
X66926614Y-74413228D01*
X66998042Y-74270371D01*
X67140900Y-74198942D01*
X67498042Y-74198942D01*
X67640900Y-74127514D01*
X68355185Y-74770371D02*
X68355185Y-73770371D01*
X68355185Y-74056085D02*
X68426614Y-73913228D01*
X68498042Y-73841800D01*
X68640900Y-73770371D01*
X68783757Y-73770371D01*
X69283757Y-74770371D02*
X69283757Y-73770371D01*
X69283757Y-73270371D02*
X69212328Y-73341800D01*
X69283757Y-73413228D01*
X69355185Y-73341800D01*
X69283757Y-73270371D01*
X69283757Y-73413228D01*
X70640900Y-73770371D02*
X70640900Y-74770371D01*
X69998042Y-73770371D02*
X69998042Y-74556085D01*
X70069471Y-74698942D01*
X70212328Y-74770371D01*
X70426614Y-74770371D01*
X70569471Y-74698942D01*
X70640900Y-74627514D01*
X71355185Y-74770371D02*
X71355185Y-73770371D01*
X71355185Y-73913228D02*
X71426614Y-73841800D01*
X71569471Y-73770371D01*
X71783757Y-73770371D01*
X71926614Y-73841800D01*
X71998042Y-73984657D01*
X71998042Y-74770371D01*
X71998042Y-73984657D02*
X72069471Y-73841800D01*
X72212328Y-73770371D01*
X72426614Y-73770371D01*
X72569471Y-73841800D01*
X72640900Y-73984657D01*
X72640900Y-74770371D01*
X75140900Y-74698942D02*
X74998042Y-74770371D01*
X74712328Y-74770371D01*
X74569471Y-74698942D01*
X74498042Y-74627514D01*
X74426614Y-74484657D01*
X74426614Y-74056085D01*
X74498042Y-73913228D01*
X74569471Y-73841800D01*
X74712328Y-73770371D01*
X74998042Y-73770371D01*
X75140900Y-73841800D01*
X75998042Y-74770371D02*
X75855185Y-74698942D01*
X75783757Y-74627514D01*
X75712328Y-74484657D01*
X75712328Y-74056085D01*
X75783757Y-73913228D01*
X75855185Y-73841800D01*
X75998042Y-73770371D01*
X76212328Y-73770371D01*
X76355185Y-73841800D01*
X76426614Y-73913228D01*
X76498042Y-74056085D01*
X76498042Y-74484657D01*
X76426614Y-74627514D01*
X76355185Y-74698942D01*
X76212328Y-74770371D01*
X75998042Y-74770371D01*
X77140900Y-73770371D02*
X77140900Y-74770371D01*
X77140900Y-73913228D02*
X77212328Y-73841800D01*
X77355185Y-73770371D01*
X77569471Y-73770371D01*
X77712328Y-73841800D01*
X77783757Y-73984657D01*
X77783757Y-74770371D01*
X78283757Y-73770371D02*
X78855185Y-73770371D01*
X78498042Y-73270371D02*
X78498042Y-74556085D01*
X78569471Y-74698942D01*
X78712328Y-74770371D01*
X78855185Y-74770371D01*
X79355185Y-74770371D02*
X79355185Y-73770371D01*
X79355185Y-74056085D02*
X79426614Y-73913228D01*
X79498042Y-73841800D01*
X79640900Y-73770371D01*
X79783757Y-73770371D01*
X80498042Y-74770371D02*
X80355185Y-74698942D01*
X80283757Y-74627514D01*
X80212328Y-74484657D01*
X80212328Y-74056085D01*
X80283757Y-73913228D01*
X80355185Y-73841800D01*
X80498042Y-73770371D01*
X80712328Y-73770371D01*
X80855185Y-73841800D01*
X80926614Y-73913228D01*
X80998042Y-74056085D01*
X80998042Y-74484657D01*
X80926614Y-74627514D01*
X80855185Y-74698942D01*
X80712328Y-74770371D01*
X80498042Y-74770371D01*
X81855185Y-74770371D02*
X81712328Y-74698942D01*
X81640900Y-74556085D01*
X81640900Y-73270371D01*
X82640900Y-74770371D02*
X82498042Y-74698942D01*
X82426614Y-74556085D01*
X82426614Y-73270371D01*
X83783757Y-74698942D02*
X83640900Y-74770371D01*
X83355185Y-74770371D01*
X83212328Y-74698942D01*
X83140900Y-74556085D01*
X83140900Y-73984657D01*
X83212328Y-73841800D01*
X83355185Y-73770371D01*
X83640900Y-73770371D01*
X83783757Y-73841800D01*
X83855185Y-73984657D01*
X83855185Y-74127514D01*
X83140900Y-74270371D01*
X84498042Y-74770371D02*
X84498042Y-73770371D01*
X84498042Y-74056085D02*
X84569471Y-73913228D01*
X84640900Y-73841800D01*
X84783757Y-73770371D01*
X84926614Y-73770371D01*
D11*
X51054000Y-97536000D02*
G75*
G02*
X51054000Y-96520000I0J508000D01*
G01*
X122047000Y-96520000D02*
G75*
G02*
X122047000Y-97536000I0J-508000D01*
G01*
X122047000Y-97536000D02*
X51054000Y-97536000D01*
X51054000Y-96520000D02*
X122047000Y-96520000D01*
X45000000Y-113000000D02*
G75*
G02*
X41000000Y-109000000I0J4000000D01*
G01*
X131000000Y-109000000D02*
G75*
G02*
X127000000Y-113000000I-4000000J0D01*
G01*
X127000000Y-23000000D02*
G75*
G02*
X131000000Y-27000000I0J-4000000D01*
G01*
X41000000Y-27000000D02*
G75*
G02*
X45000000Y-23000000I4000000J0D01*
G01*
X127000000Y-23000000D02*
X45000000Y-23000000D01*
X131000000Y-109000000D02*
X131000000Y-27000000D01*
X45000000Y-113000000D02*
X127000000Y-113000000D01*
X41000000Y-27000000D02*
X41000000Y-109000000D01*
D12*
%TO.C,G\u002A\u002A\u002A*%
G36*
X74658726Y-54801179D02*
G01*
X76136500Y-54801859D01*
X76551845Y-54946441D01*
X77037531Y-55166728D01*
X77471482Y-55466522D01*
X77843738Y-55834971D01*
X78144340Y-56261225D01*
X78363329Y-56734433D01*
X78444974Y-57009105D01*
X78478985Y-57224777D01*
X78497491Y-57500408D01*
X78500295Y-57797516D01*
X78487202Y-58077616D01*
X78458018Y-58302226D01*
X78451687Y-58331100D01*
X78425649Y-58452310D01*
X78429037Y-58488370D01*
X78464253Y-58452071D01*
X78472365Y-58441262D01*
X78514451Y-58364018D01*
X78557965Y-58237328D01*
X78607428Y-58045266D01*
X78667363Y-57771904D01*
X78680744Y-57707342D01*
X78749143Y-57596707D01*
X78882318Y-57507668D01*
X79043510Y-57458200D01*
X79181820Y-57462288D01*
X79304422Y-57532920D01*
X79414625Y-57662029D01*
X79419125Y-57669505D01*
X79567322Y-57833098D01*
X79699049Y-57901461D01*
X79872971Y-58004097D01*
X79977879Y-58160416D01*
X80001398Y-58345313D01*
X79972604Y-58456398D01*
X79903881Y-58581768D01*
X79806413Y-58660990D01*
X79650885Y-58713166D01*
X79545842Y-58734420D01*
X79430629Y-58769076D01*
X79314122Y-58839427D01*
X79175197Y-58961000D01*
X79017729Y-59122573D01*
X78664778Y-59440835D01*
X78292666Y-59665679D01*
X77907702Y-59793498D01*
X77816743Y-59808969D01*
X77534032Y-59895559D01*
X77340077Y-60016790D01*
X76894037Y-60295989D01*
X76408691Y-60481907D01*
X75898416Y-60574121D01*
X75552300Y-60606289D01*
X75552300Y-63530000D01*
X77851000Y-63550294D01*
X78418387Y-63555422D01*
X78894716Y-63560710D01*
X79290524Y-63567346D01*
X79616348Y-63576516D01*
X79882724Y-63589406D01*
X80100189Y-63607202D01*
X80279280Y-63631091D01*
X80430533Y-63662259D01*
X80564486Y-63701892D01*
X80691675Y-63751176D01*
X80822637Y-63811298D01*
X80967908Y-63883444D01*
X81013300Y-63906322D01*
X81278079Y-64073215D01*
X81558802Y-64306167D01*
X81829439Y-64578710D01*
X82063963Y-64864379D01*
X82236343Y-65136707D01*
X82249900Y-65163700D01*
X82433316Y-65640259D01*
X82534479Y-66137830D01*
X82550528Y-66633484D01*
X82487516Y-67068700D01*
X82448441Y-67235154D01*
X82421063Y-67360576D01*
X82412109Y-67411600D01*
X82459097Y-67425697D01*
X82589064Y-67437553D01*
X82783392Y-67446091D01*
X83023468Y-67450233D01*
X83083400Y-67450450D01*
X83459410Y-67458947D01*
X83786211Y-67482348D01*
X84040316Y-67518833D01*
X84081461Y-67527801D01*
X84557098Y-67690381D01*
X85001781Y-67940059D01*
X85401777Y-68263803D01*
X85743352Y-68648582D01*
X86012771Y-69081364D01*
X86190524Y-69529020D01*
X86246295Y-69813631D01*
X86272325Y-70157655D01*
X86269364Y-70524645D01*
X86238160Y-70878153D01*
X86179462Y-71181729D01*
X86154906Y-71262637D01*
X85939748Y-71746946D01*
X85646493Y-72181535D01*
X85286347Y-72555768D01*
X84870518Y-72859006D01*
X84410213Y-73080611D01*
X84155567Y-73160422D01*
X84111645Y-73169874D01*
X84053486Y-73178558D01*
X83976929Y-73186502D01*
X83877817Y-73193736D01*
X83751990Y-73200290D01*
X83595290Y-73206194D01*
X83403557Y-73211477D01*
X83172634Y-73216169D01*
X82898361Y-73220300D01*
X82576579Y-73223898D01*
X82203130Y-73226994D01*
X81773855Y-73229618D01*
X81284595Y-73231798D01*
X80731191Y-73233564D01*
X80109484Y-73234947D01*
X79415316Y-73235975D01*
X78644528Y-73236679D01*
X77792960Y-73237087D01*
X76856455Y-73237230D01*
X75830853Y-73237137D01*
X74711996Y-73236837D01*
X73495724Y-73236361D01*
X73487567Y-73236357D01*
X72230064Y-73235688D01*
X71070590Y-73234812D01*
X70005575Y-73233706D01*
X69031447Y-73232347D01*
X68144636Y-73230712D01*
X67341570Y-73228777D01*
X66618680Y-73226519D01*
X65972394Y-73223915D01*
X65399141Y-73220941D01*
X64895351Y-73217575D01*
X64457453Y-73213793D01*
X64081876Y-73209572D01*
X63765049Y-73204889D01*
X63503402Y-73199720D01*
X63293364Y-73194042D01*
X63131363Y-73187832D01*
X63013829Y-73181067D01*
X62937192Y-73173723D01*
X62903100Y-73167464D01*
X62415350Y-72980624D01*
X61966337Y-72711260D01*
X61569312Y-72371575D01*
X61237526Y-71973775D01*
X60984232Y-71530065D01*
X60901136Y-71323641D01*
X60826342Y-71041713D01*
X60774760Y-70707745D01*
X60759256Y-70481014D01*
X61606408Y-70481014D01*
X61675655Y-70893080D01*
X61830220Y-71281657D01*
X62061988Y-71633301D01*
X62362848Y-71934568D01*
X62724685Y-72172016D01*
X62970605Y-72279317D01*
X63003803Y-72290368D01*
X63042419Y-72300516D01*
X63090661Y-72309797D01*
X63152738Y-72318242D01*
X63232857Y-72325886D01*
X63335229Y-72332760D01*
X63464060Y-72338899D01*
X63623560Y-72344336D01*
X63817937Y-72349103D01*
X64051399Y-72353233D01*
X64328154Y-72356761D01*
X64652412Y-72359719D01*
X65028381Y-72362140D01*
X65460268Y-72364057D01*
X65952284Y-72365504D01*
X66508635Y-72366513D01*
X67133530Y-72367118D01*
X67831179Y-72367353D01*
X68605788Y-72367249D01*
X69461568Y-72366841D01*
X70402725Y-72366161D01*
X71433470Y-72365242D01*
X72558009Y-72364119D01*
X73596500Y-72363021D01*
X83959700Y-72351900D01*
X84250177Y-72215753D01*
X84625678Y-71987158D01*
X84939763Y-71689422D01*
X85184667Y-71337082D01*
X85352623Y-70944680D01*
X85435868Y-70526753D01*
X85426634Y-70097841D01*
X85416537Y-70031962D01*
X85292479Y-69584530D01*
X85084886Y-69194077D01*
X84796414Y-68864178D01*
X84429717Y-68598409D01*
X84302055Y-68530335D01*
X84136892Y-68450685D01*
X84003929Y-68396231D01*
X83876114Y-68361483D01*
X83726390Y-68340952D01*
X83527705Y-68329150D01*
X83270552Y-68321067D01*
X82626657Y-68303435D01*
X82594681Y-68473467D01*
X82495476Y-68785208D01*
X82321497Y-69113002D01*
X82091357Y-69432883D01*
X81823668Y-69720884D01*
X81537043Y-69953040D01*
X81367470Y-70053667D01*
X80893100Y-70240847D01*
X80403959Y-70333938D01*
X79913392Y-70332952D01*
X79434745Y-70237902D01*
X78986420Y-70051528D01*
X78661827Y-69828670D01*
X78357365Y-69530342D01*
X78093564Y-69182675D01*
X77890959Y-68811798D01*
X77790197Y-68529200D01*
X77757637Y-68406758D01*
X78656896Y-68406758D01*
X78707557Y-68527517D01*
X78794973Y-68680430D01*
X78904825Y-68842697D01*
X79022792Y-68991516D01*
X79134557Y-69104086D01*
X79138737Y-69107546D01*
X79421618Y-69303110D01*
X79708904Y-69419252D01*
X80032441Y-69466226D01*
X80251300Y-69465731D01*
X80532396Y-69441287D01*
X80746291Y-69391134D01*
X80875889Y-69335870D01*
X81203871Y-69117865D01*
X81471508Y-68840331D01*
X81621372Y-68602115D01*
X81752658Y-68338700D01*
X80219568Y-68325243D01*
X79834918Y-68322806D01*
X79483693Y-68322382D01*
X79178588Y-68323842D01*
X78932297Y-68327059D01*
X78757515Y-68331906D01*
X78666938Y-68338254D01*
X78657310Y-68340956D01*
X78656896Y-68406758D01*
X77757637Y-68406758D01*
X77732783Y-68313300D01*
X75970761Y-68313300D01*
X75911631Y-68548125D01*
X75755715Y-68966408D01*
X75513155Y-69353337D01*
X75197348Y-69695297D01*
X74821691Y-69978675D01*
X74399579Y-70189855D01*
X74242513Y-70244449D01*
X73802813Y-70331340D01*
X73338081Y-70336105D01*
X72877678Y-70261642D01*
X72450969Y-70110852D01*
X72344686Y-70057071D01*
X71978370Y-69805099D01*
X71650899Y-69477946D01*
X71381431Y-69099345D01*
X71189124Y-68693033D01*
X71152432Y-68580000D01*
X71082752Y-68340956D01*
X72002510Y-68340956D01*
X72002937Y-68405763D01*
X72053228Y-68526269D01*
X72139180Y-68679317D01*
X72246592Y-68841752D01*
X72361258Y-68990419D01*
X72468978Y-69102161D01*
X72469885Y-69102939D01*
X72758015Y-69303475D01*
X73068240Y-69422312D01*
X73424218Y-69467062D01*
X73596500Y-69465453D01*
X73876664Y-69441365D01*
X74089770Y-69391742D01*
X74221089Y-69335870D01*
X74549071Y-69117865D01*
X74816708Y-68840331D01*
X74966572Y-68602115D01*
X75097858Y-68338700D01*
X73564768Y-68325243D01*
X73180118Y-68322806D01*
X72828893Y-68322382D01*
X72523788Y-68323842D01*
X72277497Y-68327059D01*
X72102715Y-68331906D01*
X72012138Y-68338254D01*
X72002510Y-68340956D01*
X71082752Y-68340956D01*
X71074690Y-68313300D01*
X69324808Y-68313300D01*
X69235629Y-68602910D01*
X69047040Y-69051244D01*
X68779545Y-69447047D01*
X68444806Y-69781635D01*
X68054482Y-70046323D01*
X67620231Y-70232429D01*
X67153715Y-70331267D01*
X66896221Y-70345300D01*
X66385913Y-70297930D01*
X65914914Y-70159551D01*
X65491061Y-69935754D01*
X65122190Y-69632131D01*
X64816138Y-69254276D01*
X64580741Y-68807779D01*
X64521350Y-68650543D01*
X64413965Y-68338700D01*
X65296470Y-68338700D01*
X65421798Y-68592700D01*
X65610028Y-68878020D01*
X65866333Y-69132584D01*
X66158589Y-69326674D01*
X66270289Y-69377562D01*
X66545503Y-69449002D01*
X66861482Y-69472544D01*
X67179783Y-69449425D01*
X67461962Y-69380881D01*
X67566289Y-69335870D01*
X67894302Y-69117838D01*
X68161981Y-68840252D01*
X68311814Y-68602115D01*
X68443143Y-68338700D01*
X67654321Y-68324710D01*
X67290292Y-68320411D01*
X66875612Y-68318939D01*
X66460321Y-68320293D01*
X66094460Y-68324473D01*
X66080985Y-68324710D01*
X65296470Y-68338700D01*
X64413965Y-68338700D01*
X64401700Y-68303083D01*
X63762363Y-68322500D01*
X63490074Y-68332368D01*
X63292803Y-68345992D01*
X63143974Y-68368434D01*
X63017015Y-68404756D01*
X62885350Y-68460020D01*
X62783841Y-68508898D01*
X62389927Y-68756506D01*
X62069383Y-69072619D01*
X61827045Y-69450738D01*
X61667747Y-69884366D01*
X61630590Y-70058902D01*
X61606408Y-70481014D01*
X60759256Y-70481014D01*
X60751644Y-70369699D01*
X60762246Y-70075533D01*
X60763380Y-70065900D01*
X60779166Y-69880805D01*
X60766307Y-69740199D01*
X60716065Y-69594267D01*
X60659436Y-69473398D01*
X60576504Y-69280518D01*
X60487871Y-69037298D01*
X60411070Y-68792306D01*
X60402688Y-68762198D01*
X60369938Y-68637137D01*
X60344004Y-68519288D01*
X60324096Y-68395001D01*
X60309423Y-68250626D01*
X60299194Y-68072512D01*
X60292618Y-67847010D01*
X60288904Y-67560468D01*
X60287262Y-67199237D01*
X60286900Y-66763900D01*
X60286900Y-66038890D01*
X61133079Y-66038890D01*
X61133773Y-66461039D01*
X61140355Y-66944002D01*
X61150456Y-67427549D01*
X61161938Y-67817041D01*
X61175355Y-68120020D01*
X61191261Y-68344027D01*
X61210212Y-68496605D01*
X61232762Y-68585295D01*
X61259467Y-68617638D01*
X61263523Y-68618100D01*
X61308544Y-68584510D01*
X61404799Y-68495686D01*
X61533013Y-68369547D01*
X61557329Y-68344943D01*
X61745922Y-68172009D01*
X61965169Y-67997830D01*
X62136028Y-67880522D01*
X62445899Y-67689258D01*
X62445710Y-66540779D01*
X62445002Y-66165799D01*
X62442306Y-65878239D01*
X62436547Y-65663922D01*
X62426654Y-65508674D01*
X62411554Y-65398319D01*
X62390175Y-65318679D01*
X62361443Y-65255580D01*
X62346535Y-65229960D01*
X62194628Y-65039609D01*
X62015326Y-64939261D01*
X61785738Y-64917420D01*
X61732216Y-64921418D01*
X61480260Y-64984530D01*
X61297826Y-65120816D01*
X61180488Y-65333778D01*
X61170119Y-65366160D01*
X61151272Y-65490405D01*
X61138919Y-65714997D01*
X61133079Y-66038890D01*
X60286900Y-66038890D01*
X60286900Y-65189100D01*
X60429452Y-64898806D01*
X60644802Y-64566799D01*
X60922770Y-64311184D01*
X61253601Y-64138096D01*
X61627538Y-64053671D01*
X61785499Y-64046100D01*
X62171554Y-64094513D01*
X62523954Y-64234649D01*
X62830179Y-64458853D01*
X63077704Y-64759470D01*
X63146426Y-64878033D01*
X63190469Y-64964389D01*
X63224108Y-65044235D01*
X63248989Y-65132700D01*
X63266760Y-65244911D01*
X63279068Y-65395996D01*
X63287559Y-65601083D01*
X63293880Y-65875298D01*
X63299679Y-66233771D01*
X63300580Y-66294000D01*
X63317815Y-67449700D01*
X64642144Y-67449700D01*
X64612357Y-67310000D01*
X64588822Y-67188002D01*
X64556598Y-67006528D01*
X64525167Y-66819953D01*
X64504832Y-66477876D01*
X65358045Y-66477876D01*
X65394221Y-66842284D01*
X65488360Y-67190715D01*
X65515675Y-67259200D01*
X65596863Y-67449700D01*
X81442490Y-67449700D01*
X81513178Y-67310000D01*
X81634754Y-66967409D01*
X81684707Y-66578640D01*
X81662522Y-66170082D01*
X81567684Y-65768124D01*
X81544560Y-65703042D01*
X81393286Y-65411506D01*
X81170030Y-65124280D01*
X80901553Y-64869599D01*
X80614615Y-64675700D01*
X80532494Y-64635194D01*
X80199248Y-64515845D01*
X79833745Y-64434073D01*
X79491078Y-64402067D01*
X79478558Y-64401994D01*
X79373774Y-64411536D01*
X79313785Y-64458829D01*
X79270697Y-64571134D01*
X79257953Y-64617600D01*
X79125019Y-64974053D01*
X78924189Y-65333577D01*
X78679648Y-65656303D01*
X78542653Y-65796885D01*
X78151409Y-66095329D01*
X77727852Y-66304937D01*
X77283937Y-66427855D01*
X76831622Y-66466225D01*
X76382861Y-66422192D01*
X75949609Y-66297900D01*
X75543824Y-66095493D01*
X75177460Y-65817115D01*
X74862472Y-65464911D01*
X74637779Y-65096609D01*
X74551537Y-64903963D01*
X74483346Y-64715373D01*
X74452399Y-64593589D01*
X74421715Y-64401700D01*
X75291453Y-64401700D01*
X75325551Y-64516000D01*
X75473183Y-64842717D01*
X75697039Y-65120347D01*
X75980790Y-65341707D01*
X76308105Y-65499615D01*
X76662654Y-65586889D01*
X77028107Y-65596346D01*
X77388133Y-65520806D01*
X77505658Y-65474813D01*
X77755430Y-65328028D01*
X77995659Y-65123876D01*
X78193701Y-64893308D01*
X78290994Y-64730136D01*
X78353115Y-64588193D01*
X78391310Y-64482063D01*
X78397100Y-64453053D01*
X78346698Y-64436753D01*
X78197006Y-64423464D01*
X77950288Y-64413259D01*
X77608811Y-64406215D01*
X77174841Y-64402405D01*
X76844276Y-64401700D01*
X75291453Y-64401700D01*
X74421715Y-64401700D01*
X74421348Y-64399410D01*
X73528554Y-64413255D01*
X72635761Y-64427100D01*
X72596181Y-64617807D01*
X72470524Y-64992539D01*
X72259399Y-65357288D01*
X71978691Y-65694991D01*
X71644286Y-65988587D01*
X71272069Y-66221014D01*
X70993068Y-66339712D01*
X70644950Y-66422952D01*
X70255409Y-66457061D01*
X69863137Y-66441989D01*
X69506826Y-66377688D01*
X69392864Y-66341776D01*
X68939331Y-66125922D01*
X68542909Y-65831900D01*
X68213260Y-65469762D01*
X67960049Y-65049557D01*
X67830517Y-64716777D01*
X67775710Y-64562257D01*
X67711974Y-64464071D01*
X67694160Y-64454523D01*
X68643500Y-64454523D01*
X68665080Y-64528974D01*
X68719403Y-64654180D01*
X68747300Y-64710812D01*
X68970887Y-65045431D01*
X69256256Y-65307820D01*
X69589506Y-65491678D01*
X69956737Y-65590703D01*
X70344047Y-65598594D01*
X70601643Y-65551427D01*
X70835057Y-65479453D01*
X71014566Y-65393588D01*
X71186841Y-65268470D01*
X71293540Y-65175430D01*
X71414959Y-65044033D01*
X71538710Y-64875689D01*
X71646538Y-64699732D01*
X71720193Y-64545500D01*
X71742300Y-64454188D01*
X71691540Y-64436923D01*
X71539305Y-64423086D01*
X71285663Y-64412682D01*
X70930682Y-64405712D01*
X70474428Y-64402178D01*
X70192900Y-64401700D01*
X69685654Y-64403378D01*
X69279363Y-64408426D01*
X68973438Y-64416864D01*
X68767288Y-64428711D01*
X68660325Y-64443989D01*
X68643500Y-64454523D01*
X67694160Y-64454523D01*
X67618935Y-64414206D01*
X67476219Y-64404647D01*
X67263450Y-64427382D01*
X67141339Y-64445715D01*
X66690478Y-64564151D01*
X66290918Y-64766811D01*
X65950568Y-65046054D01*
X65677333Y-65394240D01*
X65479121Y-65803725D01*
X65385148Y-66142954D01*
X65358045Y-66477876D01*
X64504832Y-66477876D01*
X64496782Y-66342470D01*
X64561121Y-65862139D01*
X64710766Y-65393267D01*
X64938299Y-64950163D01*
X65236302Y-64547133D01*
X65597359Y-64198484D01*
X66014051Y-63918524D01*
X66035380Y-63907030D01*
X66212886Y-63816237D01*
X66377861Y-63743402D01*
X66544710Y-63686309D01*
X66727837Y-63642744D01*
X66941646Y-63610492D01*
X67200543Y-63587340D01*
X67518933Y-63571073D01*
X67911219Y-63559477D01*
X68351400Y-63551003D01*
X69761100Y-63527561D01*
X69761100Y-63463041D01*
X70624700Y-63463041D01*
X70638130Y-63485555D01*
X70685455Y-63503486D01*
X70777231Y-63517510D01*
X70924009Y-63528303D01*
X71136344Y-63536538D01*
X71424790Y-63542892D01*
X71799900Y-63548040D01*
X71983600Y-63549983D01*
X72647019Y-63554858D01*
X73220597Y-63555433D01*
X73702526Y-63551751D01*
X74091001Y-63543857D01*
X74384217Y-63531793D01*
X74580367Y-63515604D01*
X74677646Y-63495334D01*
X74688700Y-63484475D01*
X74640892Y-63464803D01*
X74509368Y-63449287D01*
X74311974Y-63439394D01*
X74104500Y-63436500D01*
X73520300Y-63436500D01*
X73520300Y-62572900D01*
X74688700Y-62572900D01*
X74688700Y-62268100D01*
X73520300Y-62268100D01*
X73520300Y-61404500D01*
X74688700Y-61404500D01*
X74688700Y-61099700D01*
X73520300Y-61099700D01*
X73520300Y-60236100D01*
X74680627Y-60236100D01*
X74712943Y-60088967D01*
X74755390Y-59957349D01*
X74826485Y-59863373D01*
X74942601Y-59799652D01*
X75120115Y-59758797D01*
X75375402Y-59733420D01*
X75519395Y-59725113D01*
X75879165Y-59695196D01*
X76172872Y-59646271D01*
X76391554Y-59580954D01*
X76526252Y-59501862D01*
X76568300Y-59418788D01*
X76612504Y-59220010D01*
X76741762Y-59072583D01*
X76951043Y-58980877D01*
X77101700Y-58955453D01*
X77188572Y-58935548D01*
X77259638Y-58881709D01*
X77333849Y-58773393D01*
X77419923Y-58610500D01*
X77585728Y-58186634D01*
X77653025Y-57766493D01*
X77630516Y-57379092D01*
X77513523Y-56951433D01*
X77308246Y-56559261D01*
X77025971Y-56217845D01*
X76677982Y-55942454D01*
X76492100Y-55838779D01*
X76187300Y-55689500D01*
X74720064Y-55673897D01*
X74290771Y-55669743D01*
X73949208Y-55667915D01*
X73681517Y-55669121D01*
X73473843Y-55674069D01*
X73312328Y-55683469D01*
X73183114Y-55698028D01*
X73072345Y-55718456D01*
X72966164Y-55745461D01*
X72891264Y-55767414D01*
X72446309Y-55930745D01*
X72063487Y-56140397D01*
X71707589Y-56417470D01*
X71538594Y-56577994D01*
X71222333Y-56933003D01*
X70985559Y-57294793D01*
X70809357Y-57695442D01*
X70729897Y-57949440D01*
X70666778Y-58186304D01*
X70635186Y-58344192D01*
X70636980Y-58441304D01*
X70674020Y-58495836D01*
X70748165Y-58525986D01*
X70789800Y-58535542D01*
X71123757Y-58647775D01*
X71467651Y-58837023D01*
X71797393Y-59084566D01*
X72088893Y-59371687D01*
X72318063Y-59679665D01*
X72362928Y-59757974D01*
X72550459Y-60210205D01*
X72644053Y-60681325D01*
X72645727Y-61157274D01*
X72557497Y-61623993D01*
X72381382Y-62067420D01*
X72119397Y-62473497D01*
X71945167Y-62670037D01*
X71646711Y-62925430D01*
X71304058Y-63142013D01*
X70954825Y-63297234D01*
X70840600Y-63332202D01*
X70699678Y-63385482D01*
X70628741Y-63446296D01*
X70624700Y-63463041D01*
X69761100Y-63463041D01*
X69761100Y-60921218D01*
X70624700Y-60921218D01*
X70626377Y-61428579D01*
X70631422Y-61834986D01*
X70639856Y-62141031D01*
X70651698Y-62347303D01*
X70666968Y-62454396D01*
X70677523Y-62471300D01*
X70751986Y-62449719D01*
X70877176Y-62395403D01*
X70933631Y-62367592D01*
X71247789Y-62155989D01*
X71488858Y-61888771D01*
X71657436Y-61580274D01*
X71754117Y-61244835D01*
X71779495Y-60896792D01*
X71734168Y-60550481D01*
X71618730Y-60220240D01*
X71433775Y-59920404D01*
X71179901Y-59665312D01*
X70857701Y-59469301D01*
X70812465Y-59449590D01*
X70624700Y-59371136D01*
X70624700Y-60921218D01*
X69761100Y-60921218D01*
X69761100Y-60919951D01*
X69761478Y-60293319D01*
X69763100Y-59758691D01*
X69766692Y-59306469D01*
X69772980Y-58927059D01*
X69782694Y-58610864D01*
X69796559Y-58348288D01*
X69815303Y-58129737D01*
X69839653Y-57945614D01*
X69870337Y-57786323D01*
X69908082Y-57642268D01*
X69953615Y-57503855D01*
X70007663Y-57361486D01*
X70036173Y-57290578D01*
X70320221Y-56722813D01*
X70683644Y-56214100D01*
X71118743Y-55771139D01*
X71617819Y-55400631D01*
X72173174Y-55109277D01*
X72777108Y-54903779D01*
X72779126Y-54903262D01*
X72906896Y-54872923D01*
X73034740Y-54849155D01*
X73176918Y-54831184D01*
X73347696Y-54818234D01*
X73561335Y-54809532D01*
X73832100Y-54804302D01*
X74174254Y-54801769D01*
X74602059Y-54801160D01*
X74658726Y-54801179D01*
G37*
X74658726Y-54801179D02*
X76136500Y-54801859D01*
X76551845Y-54946441D01*
X77037531Y-55166728D01*
X77471482Y-55466522D01*
X77843738Y-55834971D01*
X78144340Y-56261225D01*
X78363329Y-56734433D01*
X78444974Y-57009105D01*
X78478985Y-57224777D01*
X78497491Y-57500408D01*
X78500295Y-57797516D01*
X78487202Y-58077616D01*
X78458018Y-58302226D01*
X78451687Y-58331100D01*
X78425649Y-58452310D01*
X78429037Y-58488370D01*
X78464253Y-58452071D01*
X78472365Y-58441262D01*
X78514451Y-58364018D01*
X78557965Y-58237328D01*
X78607428Y-58045266D01*
X78667363Y-57771904D01*
X78680744Y-57707342D01*
X78749143Y-57596707D01*
X78882318Y-57507668D01*
X79043510Y-57458200D01*
X79181820Y-57462288D01*
X79304422Y-57532920D01*
X79414625Y-57662029D01*
X79419125Y-57669505D01*
X79567322Y-57833098D01*
X79699049Y-57901461D01*
X79872971Y-58004097D01*
X79977879Y-58160416D01*
X80001398Y-58345313D01*
X79972604Y-58456398D01*
X79903881Y-58581768D01*
X79806413Y-58660990D01*
X79650885Y-58713166D01*
X79545842Y-58734420D01*
X79430629Y-58769076D01*
X79314122Y-58839427D01*
X79175197Y-58961000D01*
X79017729Y-59122573D01*
X78664778Y-59440835D01*
X78292666Y-59665679D01*
X77907702Y-59793498D01*
X77816743Y-59808969D01*
X77534032Y-59895559D01*
X77340077Y-60016790D01*
X76894037Y-60295989D01*
X76408691Y-60481907D01*
X75898416Y-60574121D01*
X75552300Y-60606289D01*
X75552300Y-63530000D01*
X77851000Y-63550294D01*
X78418387Y-63555422D01*
X78894716Y-63560710D01*
X79290524Y-63567346D01*
X79616348Y-63576516D01*
X79882724Y-63589406D01*
X80100189Y-63607202D01*
X80279280Y-63631091D01*
X80430533Y-63662259D01*
X80564486Y-63701892D01*
X80691675Y-63751176D01*
X80822637Y-63811298D01*
X80967908Y-63883444D01*
X81013300Y-63906322D01*
X81278079Y-64073215D01*
X81558802Y-64306167D01*
X81829439Y-64578710D01*
X82063963Y-64864379D01*
X82236343Y-65136707D01*
X82249900Y-65163700D01*
X82433316Y-65640259D01*
X82534479Y-66137830D01*
X82550528Y-66633484D01*
X82487516Y-67068700D01*
X82448441Y-67235154D01*
X82421063Y-67360576D01*
X82412109Y-67411600D01*
X82459097Y-67425697D01*
X82589064Y-67437553D01*
X82783392Y-67446091D01*
X83023468Y-67450233D01*
X83083400Y-67450450D01*
X83459410Y-67458947D01*
X83786211Y-67482348D01*
X84040316Y-67518833D01*
X84081461Y-67527801D01*
X84557098Y-67690381D01*
X85001781Y-67940059D01*
X85401777Y-68263803D01*
X85743352Y-68648582D01*
X86012771Y-69081364D01*
X86190524Y-69529020D01*
X86246295Y-69813631D01*
X86272325Y-70157655D01*
X86269364Y-70524645D01*
X86238160Y-70878153D01*
X86179462Y-71181729D01*
X86154906Y-71262637D01*
X85939748Y-71746946D01*
X85646493Y-72181535D01*
X85286347Y-72555768D01*
X84870518Y-72859006D01*
X84410213Y-73080611D01*
X84155567Y-73160422D01*
X84111645Y-73169874D01*
X84053486Y-73178558D01*
X83976929Y-73186502D01*
X83877817Y-73193736D01*
X83751990Y-73200290D01*
X83595290Y-73206194D01*
X83403557Y-73211477D01*
X83172634Y-73216169D01*
X82898361Y-73220300D01*
X82576579Y-73223898D01*
X82203130Y-73226994D01*
X81773855Y-73229618D01*
X81284595Y-73231798D01*
X80731191Y-73233564D01*
X80109484Y-73234947D01*
X79415316Y-73235975D01*
X78644528Y-73236679D01*
X77792960Y-73237087D01*
X76856455Y-73237230D01*
X75830853Y-73237137D01*
X74711996Y-73236837D01*
X73495724Y-73236361D01*
X73487567Y-73236357D01*
X72230064Y-73235688D01*
X71070590Y-73234812D01*
X70005575Y-73233706D01*
X69031447Y-73232347D01*
X68144636Y-73230712D01*
X67341570Y-73228777D01*
X66618680Y-73226519D01*
X65972394Y-73223915D01*
X65399141Y-73220941D01*
X64895351Y-73217575D01*
X64457453Y-73213793D01*
X64081876Y-73209572D01*
X63765049Y-73204889D01*
X63503402Y-73199720D01*
X63293364Y-73194042D01*
X63131363Y-73187832D01*
X63013829Y-73181067D01*
X62937192Y-73173723D01*
X62903100Y-73167464D01*
X62415350Y-72980624D01*
X61966337Y-72711260D01*
X61569312Y-72371575D01*
X61237526Y-71973775D01*
X60984232Y-71530065D01*
X60901136Y-71323641D01*
X60826342Y-71041713D01*
X60774760Y-70707745D01*
X60759256Y-70481014D01*
X61606408Y-70481014D01*
X61675655Y-70893080D01*
X61830220Y-71281657D01*
X62061988Y-71633301D01*
X62362848Y-71934568D01*
X62724685Y-72172016D01*
X62970605Y-72279317D01*
X63003803Y-72290368D01*
X63042419Y-72300516D01*
X63090661Y-72309797D01*
X63152738Y-72318242D01*
X63232857Y-72325886D01*
X63335229Y-72332760D01*
X63464060Y-72338899D01*
X63623560Y-72344336D01*
X63817937Y-72349103D01*
X64051399Y-72353233D01*
X64328154Y-72356761D01*
X64652412Y-72359719D01*
X65028381Y-72362140D01*
X65460268Y-72364057D01*
X65952284Y-72365504D01*
X66508635Y-72366513D01*
X67133530Y-72367118D01*
X67831179Y-72367353D01*
X68605788Y-72367249D01*
X69461568Y-72366841D01*
X70402725Y-72366161D01*
X71433470Y-72365242D01*
X72558009Y-72364119D01*
X73596500Y-72363021D01*
X83959700Y-72351900D01*
X84250177Y-72215753D01*
X84625678Y-71987158D01*
X84939763Y-71689422D01*
X85184667Y-71337082D01*
X85352623Y-70944680D01*
X85435868Y-70526753D01*
X85426634Y-70097841D01*
X85416537Y-70031962D01*
X85292479Y-69584530D01*
X85084886Y-69194077D01*
X84796414Y-68864178D01*
X84429717Y-68598409D01*
X84302055Y-68530335D01*
X84136892Y-68450685D01*
X84003929Y-68396231D01*
X83876114Y-68361483D01*
X83726390Y-68340952D01*
X83527705Y-68329150D01*
X83270552Y-68321067D01*
X82626657Y-68303435D01*
X82594681Y-68473467D01*
X82495476Y-68785208D01*
X82321497Y-69113002D01*
X82091357Y-69432883D01*
X81823668Y-69720884D01*
X81537043Y-69953040D01*
X81367470Y-70053667D01*
X80893100Y-70240847D01*
X80403959Y-70333938D01*
X79913392Y-70332952D01*
X79434745Y-70237902D01*
X78986420Y-70051528D01*
X78661827Y-69828670D01*
X78357365Y-69530342D01*
X78093564Y-69182675D01*
X77890959Y-68811798D01*
X77790197Y-68529200D01*
X77757637Y-68406758D01*
X78656896Y-68406758D01*
X78707557Y-68527517D01*
X78794973Y-68680430D01*
X78904825Y-68842697D01*
X79022792Y-68991516D01*
X79134557Y-69104086D01*
X79138737Y-69107546D01*
X79421618Y-69303110D01*
X79708904Y-69419252D01*
X80032441Y-69466226D01*
X80251300Y-69465731D01*
X80532396Y-69441287D01*
X80746291Y-69391134D01*
X80875889Y-69335870D01*
X81203871Y-69117865D01*
X81471508Y-68840331D01*
X81621372Y-68602115D01*
X81752658Y-68338700D01*
X80219568Y-68325243D01*
X79834918Y-68322806D01*
X79483693Y-68322382D01*
X79178588Y-68323842D01*
X78932297Y-68327059D01*
X78757515Y-68331906D01*
X78666938Y-68338254D01*
X78657310Y-68340956D01*
X78656896Y-68406758D01*
X77757637Y-68406758D01*
X77732783Y-68313300D01*
X75970761Y-68313300D01*
X75911631Y-68548125D01*
X75755715Y-68966408D01*
X75513155Y-69353337D01*
X75197348Y-69695297D01*
X74821691Y-69978675D01*
X74399579Y-70189855D01*
X74242513Y-70244449D01*
X73802813Y-70331340D01*
X73338081Y-70336105D01*
X72877678Y-70261642D01*
X72450969Y-70110852D01*
X72344686Y-70057071D01*
X71978370Y-69805099D01*
X71650899Y-69477946D01*
X71381431Y-69099345D01*
X71189124Y-68693033D01*
X71152432Y-68580000D01*
X71082752Y-68340956D01*
X72002510Y-68340956D01*
X72002937Y-68405763D01*
X72053228Y-68526269D01*
X72139180Y-68679317D01*
X72246592Y-68841752D01*
X72361258Y-68990419D01*
X72468978Y-69102161D01*
X72469885Y-69102939D01*
X72758015Y-69303475D01*
X73068240Y-69422312D01*
X73424218Y-69467062D01*
X73596500Y-69465453D01*
X73876664Y-69441365D01*
X74089770Y-69391742D01*
X74221089Y-69335870D01*
X74549071Y-69117865D01*
X74816708Y-68840331D01*
X74966572Y-68602115D01*
X75097858Y-68338700D01*
X73564768Y-68325243D01*
X73180118Y-68322806D01*
X72828893Y-68322382D01*
X72523788Y-68323842D01*
X72277497Y-68327059D01*
X72102715Y-68331906D01*
X72012138Y-68338254D01*
X72002510Y-68340956D01*
X71082752Y-68340956D01*
X71074690Y-68313300D01*
X69324808Y-68313300D01*
X69235629Y-68602910D01*
X69047040Y-69051244D01*
X68779545Y-69447047D01*
X68444806Y-69781635D01*
X68054482Y-70046323D01*
X67620231Y-70232429D01*
X67153715Y-70331267D01*
X66896221Y-70345300D01*
X66385913Y-70297930D01*
X65914914Y-70159551D01*
X65491061Y-69935754D01*
X65122190Y-69632131D01*
X64816138Y-69254276D01*
X64580741Y-68807779D01*
X64521350Y-68650543D01*
X64413965Y-68338700D01*
X65296470Y-68338700D01*
X65421798Y-68592700D01*
X65610028Y-68878020D01*
X65866333Y-69132584D01*
X66158589Y-69326674D01*
X66270289Y-69377562D01*
X66545503Y-69449002D01*
X66861482Y-69472544D01*
X67179783Y-69449425D01*
X67461962Y-69380881D01*
X67566289Y-69335870D01*
X67894302Y-69117838D01*
X68161981Y-68840252D01*
X68311814Y-68602115D01*
X68443143Y-68338700D01*
X67654321Y-68324710D01*
X67290292Y-68320411D01*
X66875612Y-68318939D01*
X66460321Y-68320293D01*
X66094460Y-68324473D01*
X66080985Y-68324710D01*
X65296470Y-68338700D01*
X64413965Y-68338700D01*
X64401700Y-68303083D01*
X63762363Y-68322500D01*
X63490074Y-68332368D01*
X63292803Y-68345992D01*
X63143974Y-68368434D01*
X63017015Y-68404756D01*
X62885350Y-68460020D01*
X62783841Y-68508898D01*
X62389927Y-68756506D01*
X62069383Y-69072619D01*
X61827045Y-69450738D01*
X61667747Y-69884366D01*
X61630590Y-70058902D01*
X61606408Y-70481014D01*
X60759256Y-70481014D01*
X60751644Y-70369699D01*
X60762246Y-70075533D01*
X60763380Y-70065900D01*
X60779166Y-69880805D01*
X60766307Y-69740199D01*
X60716065Y-69594267D01*
X60659436Y-69473398D01*
X60576504Y-69280518D01*
X60487871Y-69037298D01*
X60411070Y-68792306D01*
X60402688Y-68762198D01*
X60369938Y-68637137D01*
X60344004Y-68519288D01*
X60324096Y-68395001D01*
X60309423Y-68250626D01*
X60299194Y-68072512D01*
X60292618Y-67847010D01*
X60288904Y-67560468D01*
X60287262Y-67199237D01*
X60286900Y-66763900D01*
X60286900Y-66038890D01*
X61133079Y-66038890D01*
X61133773Y-66461039D01*
X61140355Y-66944002D01*
X61150456Y-67427549D01*
X61161938Y-67817041D01*
X61175355Y-68120020D01*
X61191261Y-68344027D01*
X61210212Y-68496605D01*
X61232762Y-68585295D01*
X61259467Y-68617638D01*
X61263523Y-68618100D01*
X61308544Y-68584510D01*
X61404799Y-68495686D01*
X61533013Y-68369547D01*
X61557329Y-68344943D01*
X61745922Y-68172009D01*
X61965169Y-67997830D01*
X62136028Y-67880522D01*
X62445899Y-67689258D01*
X62445710Y-66540779D01*
X62445002Y-66165799D01*
X62442306Y-65878239D01*
X62436547Y-65663922D01*
X62426654Y-65508674D01*
X62411554Y-65398319D01*
X62390175Y-65318679D01*
X62361443Y-65255580D01*
X62346535Y-65229960D01*
X62194628Y-65039609D01*
X62015326Y-64939261D01*
X61785738Y-64917420D01*
X61732216Y-64921418D01*
X61480260Y-64984530D01*
X61297826Y-65120816D01*
X61180488Y-65333778D01*
X61170119Y-65366160D01*
X61151272Y-65490405D01*
X61138919Y-65714997D01*
X61133079Y-66038890D01*
X60286900Y-66038890D01*
X60286900Y-65189100D01*
X60429452Y-64898806D01*
X60644802Y-64566799D01*
X60922770Y-64311184D01*
X61253601Y-64138096D01*
X61627538Y-64053671D01*
X61785499Y-64046100D01*
X62171554Y-64094513D01*
X62523954Y-64234649D01*
X62830179Y-64458853D01*
X63077704Y-64759470D01*
X63146426Y-64878033D01*
X63190469Y-64964389D01*
X63224108Y-65044235D01*
X63248989Y-65132700D01*
X63266760Y-65244911D01*
X63279068Y-65395996D01*
X63287559Y-65601083D01*
X63293880Y-65875298D01*
X63299679Y-66233771D01*
X63300580Y-66294000D01*
X63317815Y-67449700D01*
X64642144Y-67449700D01*
X64612357Y-67310000D01*
X64588822Y-67188002D01*
X64556598Y-67006528D01*
X64525167Y-66819953D01*
X64504832Y-66477876D01*
X65358045Y-66477876D01*
X65394221Y-66842284D01*
X65488360Y-67190715D01*
X65515675Y-67259200D01*
X65596863Y-67449700D01*
X81442490Y-67449700D01*
X81513178Y-67310000D01*
X81634754Y-66967409D01*
X81684707Y-66578640D01*
X81662522Y-66170082D01*
X81567684Y-65768124D01*
X81544560Y-65703042D01*
X81393286Y-65411506D01*
X81170030Y-65124280D01*
X80901553Y-64869599D01*
X80614615Y-64675700D01*
X80532494Y-64635194D01*
X80199248Y-64515845D01*
X79833745Y-64434073D01*
X79491078Y-64402067D01*
X79478558Y-64401994D01*
X79373774Y-64411536D01*
X79313785Y-64458829D01*
X79270697Y-64571134D01*
X79257953Y-64617600D01*
X79125019Y-64974053D01*
X78924189Y-65333577D01*
X78679648Y-65656303D01*
X78542653Y-65796885D01*
X78151409Y-66095329D01*
X77727852Y-66304937D01*
X77283937Y-66427855D01*
X76831622Y-66466225D01*
X76382861Y-66422192D01*
X75949609Y-66297900D01*
X75543824Y-66095493D01*
X75177460Y-65817115D01*
X74862472Y-65464911D01*
X74637779Y-65096609D01*
X74551537Y-64903963D01*
X74483346Y-64715373D01*
X74452399Y-64593589D01*
X74421715Y-64401700D01*
X75291453Y-64401700D01*
X75325551Y-64516000D01*
X75473183Y-64842717D01*
X75697039Y-65120347D01*
X75980790Y-65341707D01*
X76308105Y-65499615D01*
X76662654Y-65586889D01*
X77028107Y-65596346D01*
X77388133Y-65520806D01*
X77505658Y-65474813D01*
X77755430Y-65328028D01*
X77995659Y-65123876D01*
X78193701Y-64893308D01*
X78290994Y-64730136D01*
X78353115Y-64588193D01*
X78391310Y-64482063D01*
X78397100Y-64453053D01*
X78346698Y-64436753D01*
X78197006Y-64423464D01*
X77950288Y-64413259D01*
X77608811Y-64406215D01*
X77174841Y-64402405D01*
X76844276Y-64401700D01*
X75291453Y-64401700D01*
X74421715Y-64401700D01*
X74421348Y-64399410D01*
X73528554Y-64413255D01*
X72635761Y-64427100D01*
X72596181Y-64617807D01*
X72470524Y-64992539D01*
X72259399Y-65357288D01*
X71978691Y-65694991D01*
X71644286Y-65988587D01*
X71272069Y-66221014D01*
X70993068Y-66339712D01*
X70644950Y-66422952D01*
X70255409Y-66457061D01*
X69863137Y-66441989D01*
X69506826Y-66377688D01*
X69392864Y-66341776D01*
X68939331Y-66125922D01*
X68542909Y-65831900D01*
X68213260Y-65469762D01*
X67960049Y-65049557D01*
X67830517Y-64716777D01*
X67775710Y-64562257D01*
X67711974Y-64464071D01*
X67694160Y-64454523D01*
X68643500Y-64454523D01*
X68665080Y-64528974D01*
X68719403Y-64654180D01*
X68747300Y-64710812D01*
X68970887Y-65045431D01*
X69256256Y-65307820D01*
X69589506Y-65491678D01*
X69956737Y-65590703D01*
X70344047Y-65598594D01*
X70601643Y-65551427D01*
X70835057Y-65479453D01*
X71014566Y-65393588D01*
X71186841Y-65268470D01*
X71293540Y-65175430D01*
X71414959Y-65044033D01*
X71538710Y-64875689D01*
X71646538Y-64699732D01*
X71720193Y-64545500D01*
X71742300Y-64454188D01*
X71691540Y-64436923D01*
X71539305Y-64423086D01*
X71285663Y-64412682D01*
X70930682Y-64405712D01*
X70474428Y-64402178D01*
X70192900Y-64401700D01*
X69685654Y-64403378D01*
X69279363Y-64408426D01*
X68973438Y-64416864D01*
X68767288Y-64428711D01*
X68660325Y-64443989D01*
X68643500Y-64454523D01*
X67694160Y-64454523D01*
X67618935Y-64414206D01*
X67476219Y-64404647D01*
X67263450Y-64427382D01*
X67141339Y-64445715D01*
X66690478Y-64564151D01*
X66290918Y-64766811D01*
X65950568Y-65046054D01*
X65677333Y-65394240D01*
X65479121Y-65803725D01*
X65385148Y-66142954D01*
X65358045Y-66477876D01*
X64504832Y-66477876D01*
X64496782Y-66342470D01*
X64561121Y-65862139D01*
X64710766Y-65393267D01*
X64938299Y-64950163D01*
X65236302Y-64547133D01*
X65597359Y-64198484D01*
X66014051Y-63918524D01*
X66035380Y-63907030D01*
X66212886Y-63816237D01*
X66377861Y-63743402D01*
X66544710Y-63686309D01*
X66727837Y-63642744D01*
X66941646Y-63610492D01*
X67200543Y-63587340D01*
X67518933Y-63571073D01*
X67911219Y-63559477D01*
X68351400Y-63551003D01*
X69761100Y-63527561D01*
X69761100Y-63463041D01*
X70624700Y-63463041D01*
X70638130Y-63485555D01*
X70685455Y-63503486D01*
X70777231Y-63517510D01*
X70924009Y-63528303D01*
X71136344Y-63536538D01*
X71424790Y-63542892D01*
X71799900Y-63548040D01*
X71983600Y-63549983D01*
X72647019Y-63554858D01*
X73220597Y-63555433D01*
X73702526Y-63551751D01*
X74091001Y-63543857D01*
X74384217Y-63531793D01*
X74580367Y-63515604D01*
X74677646Y-63495334D01*
X74688700Y-63484475D01*
X74640892Y-63464803D01*
X74509368Y-63449287D01*
X74311974Y-63439394D01*
X74104500Y-63436500D01*
X73520300Y-63436500D01*
X73520300Y-62572900D01*
X74688700Y-62572900D01*
X74688700Y-62268100D01*
X73520300Y-62268100D01*
X73520300Y-61404500D01*
X74688700Y-61404500D01*
X74688700Y-61099700D01*
X73520300Y-61099700D01*
X73520300Y-60236100D01*
X74680627Y-60236100D01*
X74712943Y-60088967D01*
X74755390Y-59957349D01*
X74826485Y-59863373D01*
X74942601Y-59799652D01*
X75120115Y-59758797D01*
X75375402Y-59733420D01*
X75519395Y-59725113D01*
X75879165Y-59695196D01*
X76172872Y-59646271D01*
X76391554Y-59580954D01*
X76526252Y-59501862D01*
X76568300Y-59418788D01*
X76612504Y-59220010D01*
X76741762Y-59072583D01*
X76951043Y-58980877D01*
X77101700Y-58955453D01*
X77188572Y-58935548D01*
X77259638Y-58881709D01*
X77333849Y-58773393D01*
X77419923Y-58610500D01*
X77585728Y-58186634D01*
X77653025Y-57766493D01*
X77630516Y-57379092D01*
X77513523Y-56951433D01*
X77308246Y-56559261D01*
X77025971Y-56217845D01*
X76677982Y-55942454D01*
X76492100Y-55838779D01*
X76187300Y-55689500D01*
X74720064Y-55673897D01*
X74290771Y-55669743D01*
X73949208Y-55667915D01*
X73681517Y-55669121D01*
X73473843Y-55674069D01*
X73312328Y-55683469D01*
X73183114Y-55698028D01*
X73072345Y-55718456D01*
X72966164Y-55745461D01*
X72891264Y-55767414D01*
X72446309Y-55930745D01*
X72063487Y-56140397D01*
X71707589Y-56417470D01*
X71538594Y-56577994D01*
X71222333Y-56933003D01*
X70985559Y-57294793D01*
X70809357Y-57695442D01*
X70729897Y-57949440D01*
X70666778Y-58186304D01*
X70635186Y-58344192D01*
X70636980Y-58441304D01*
X70674020Y-58495836D01*
X70748165Y-58525986D01*
X70789800Y-58535542D01*
X71123757Y-58647775D01*
X71467651Y-58837023D01*
X71797393Y-59084566D01*
X72088893Y-59371687D01*
X72318063Y-59679665D01*
X72362928Y-59757974D01*
X72550459Y-60210205D01*
X72644053Y-60681325D01*
X72645727Y-61157274D01*
X72557497Y-61623993D01*
X72381382Y-62067420D01*
X72119397Y-62473497D01*
X71945167Y-62670037D01*
X71646711Y-62925430D01*
X71304058Y-63142013D01*
X70954825Y-63297234D01*
X70840600Y-63332202D01*
X70699678Y-63385482D01*
X70628741Y-63446296D01*
X70624700Y-63463041D01*
X69761100Y-63463041D01*
X69761100Y-60921218D01*
X70624700Y-60921218D01*
X70626377Y-61428579D01*
X70631422Y-61834986D01*
X70639856Y-62141031D01*
X70651698Y-62347303D01*
X70666968Y-62454396D01*
X70677523Y-62471300D01*
X70751986Y-62449719D01*
X70877176Y-62395403D01*
X70933631Y-62367592D01*
X71247789Y-62155989D01*
X71488858Y-61888771D01*
X71657436Y-61580274D01*
X71754117Y-61244835D01*
X71779495Y-60896792D01*
X71734168Y-60550481D01*
X71618730Y-60220240D01*
X71433775Y-59920404D01*
X71179901Y-59665312D01*
X70857701Y-59469301D01*
X70812465Y-59449590D01*
X70624700Y-59371136D01*
X70624700Y-60921218D01*
X69761100Y-60921218D01*
X69761100Y-60919951D01*
X69761478Y-60293319D01*
X69763100Y-59758691D01*
X69766692Y-59306469D01*
X69772980Y-58927059D01*
X69782694Y-58610864D01*
X69796559Y-58348288D01*
X69815303Y-58129737D01*
X69839653Y-57945614D01*
X69870337Y-57786323D01*
X69908082Y-57642268D01*
X69953615Y-57503855D01*
X70007663Y-57361486D01*
X70036173Y-57290578D01*
X70320221Y-56722813D01*
X70683644Y-56214100D01*
X71118743Y-55771139D01*
X71617819Y-55400631D01*
X72173174Y-55109277D01*
X72777108Y-54903779D01*
X72779126Y-54903262D01*
X72906896Y-54872923D01*
X73034740Y-54849155D01*
X73176918Y-54831184D01*
X73347696Y-54818234D01*
X73561335Y-54809532D01*
X73832100Y-54804302D01*
X74174254Y-54801769D01*
X74602059Y-54801160D01*
X74658726Y-54801179D01*
G36*
X74314082Y-57232596D02*
G01*
X74436533Y-57344136D01*
X74518547Y-57489797D01*
X74536300Y-57588036D01*
X74516988Y-57773696D01*
X74447516Y-57895786D01*
X74329466Y-57977378D01*
X74176774Y-58039500D01*
X74054705Y-58037376D01*
X73952100Y-57993039D01*
X73795605Y-57855911D01*
X73722894Y-57672109D01*
X73740661Y-57461139D01*
X73755056Y-57418975D01*
X73831261Y-57329007D01*
X73965488Y-57246735D01*
X74115319Y-57195178D01*
X74180486Y-57188100D01*
X74314082Y-57232596D01*
G37*
X74314082Y-57232596D02*
X74436533Y-57344136D01*
X74518547Y-57489797D01*
X74536300Y-57588036D01*
X74516988Y-57773696D01*
X74447516Y-57895786D01*
X74329466Y-57977378D01*
X74176774Y-58039500D01*
X74054705Y-58037376D01*
X73952100Y-57993039D01*
X73795605Y-57855911D01*
X73722894Y-57672109D01*
X73740661Y-57461139D01*
X73755056Y-57418975D01*
X73831261Y-57329007D01*
X73965488Y-57246735D01*
X74115319Y-57195178D01*
X74180486Y-57188100D01*
X74314082Y-57232596D01*
%TD*%
D13*
%TO.P,RESET_EEPROM1,1*%
%TO.N,G2*%
X96456500Y-75374500D03*
%TD*%
D14*
%TO.P,U6,8*%
%TO.N,+3V3*%
X63550800Y-46990000D03*
%TO.P,U6,4*%
%TO.N,GND*%
X55930800Y-54610000D03*
%TO.P,U6,7*%
%TO.N,Net-(U6-Pad7)*%
X63550800Y-49530000D03*
%TO.P,U6,3*%
%TO.N,GND*%
X55930800Y-52070000D03*
%TO.P,U6,6*%
%TO.N,SCL*%
X63550800Y-52070000D03*
%TO.P,U6,2*%
%TO.N,GND*%
X55930800Y-49530000D03*
%TO.P,U6,5*%
%TO.N,SDA*%
X63550800Y-54610000D03*
D15*
%TO.P,U6,1*%
%TO.N,GND*%
X55930800Y-46990000D03*
%TD*%
D16*
%TO.P,LED8,3*%
%TO.N,Net-(ALED1-Pad2)*%
X46990000Y-43100000D03*
%TO.P,LED8,2*%
%TO.N,+5V*%
X46990000Y-40600000D03*
%TO.P,LED8,1*%
%TO.N,GND*%
%TA.AperFunction,ComponentPad*%
G36*
G01*
X46265000Y-37250000D02*
X47715000Y-37250000D01*
G75*
G02*
X47965000Y-37500000I0J-250000D01*
G01*
X47965000Y-38700000D01*
G75*
G02*
X47715000Y-38950000I-250000J0D01*
G01*
X46265000Y-38950000D01*
G75*
G02*
X46015000Y-38700000I0J250000D01*
G01*
X46015000Y-37500000D01*
G75*
G02*
X46265000Y-37250000I250000J0D01*
G01*
G37*
%TD.AperFunction*%
%TD*%
D17*
%TO.P,BT1,3*%
%TO.N,N/C*%
X47400000Y-98250000D03*
%TO.P,BT1,2*%
%TO.N,GND*%
X43600000Y-93250000D03*
%TO.P,BT1,1*%
%TO.N,Net-(BT1-Pad1)*%
X47400000Y-88250000D03*
%TD*%
%TO.P,R24,2*%
%TO.N,Net-(LED4-Pad2)*%
%TA.AperFunction,SMDPad,CuDef*%
G36*
G01*
X121230500Y-40312501D02*
X121230500Y-39062499D01*
G75*
G02*
X121480499Y-38812500I249999J0D01*
G01*
X122105501Y-38812500D01*
G75*
G02*
X122355500Y-39062499I0J-249999D01*
G01*
X122355500Y-40312501D01*
G75*
G02*
X122105501Y-40562500I-249999J0D01*
G01*
X121480499Y-40562500D01*
G75*
G02*
X121230500Y-40312501I0J249999D01*
G01*
G37*
%TD.AperFunction*%
%TO.P,R24,1*%
%TO.N,+3V3*%
%TA.AperFunction,SMDPad,CuDef*%
G36*
G01*
X118305500Y-40312501D02*
X118305500Y-39062499D01*
G75*
G02*
X118555499Y-38812500I249999J0D01*
G01*
X119180501Y-38812500D01*
G75*
G02*
X119430500Y-39062499I0J-249999D01*
G01*
X119430500Y-40312501D01*
G75*
G02*
X119180501Y-40562500I-249999J0D01*
G01*
X118555499Y-40562500D01*
G75*
G02*
X118305500Y-40312501I0J249999D01*
G01*
G37*
%TD.AperFunction*%
%TD*%
%TO.P,C10,2*%
%TO.N,GND*%
%TA.AperFunction,SMDPad,CuDef*%
G36*
G01*
X110411499Y-94499000D02*
X111711501Y-94499000D01*
G75*
G02*
X111961500Y-94748999I0J-249999D01*
G01*
X111961500Y-95399001D01*
G75*
G02*
X111711501Y-95649000I-249999J0D01*
G01*
X110411499Y-95649000D01*
G75*
G02*
X110161500Y-95399001I0J249999D01*
G01*
X110161500Y-94748999D01*
G75*
G02*
X110411499Y-94499000I249999J0D01*
G01*
G37*
%TD.AperFunction*%
%TO.P,C10,1*%
%TO.N,EN*%
%TA.AperFunction,SMDPad,CuDef*%
G36*
G01*
X110411499Y-91549000D02*
X111711501Y-91549000D01*
G75*
G02*
X111961500Y-91798999I0J-249999D01*
G01*
X111961500Y-92449001D01*
G75*
G02*
X111711501Y-92699000I-249999J0D01*
G01*
X110411499Y-92699000D01*
G75*
G02*
X110161500Y-92449001I0J249999D01*
G01*
X110161500Y-91798999D01*
G75*
G02*
X110411499Y-91549000I249999J0D01*
G01*
G37*
%TD.AperFunction*%
%TD*%
D18*
%TO.P,S3,2*%
%TO.N,220N*%
X67580000Y-108750000D03*
D19*
%TO.P,S3,1*%
%TO.N,Net-(K3-Pad1)*%
X62500000Y-108750000D03*
%TD*%
D18*
%TO.P,S2,2*%
%TO.N,220N*%
X86830000Y-108750000D03*
D19*
%TO.P,S2,1*%
%TO.N,Net-(K2-Pad1)*%
X81750000Y-108750000D03*
%TD*%
D16*
%TO.P,SENS5,5*%
%TO.N,G26*%
X112000000Y-38000000D03*
%TO.P,SENS5,4*%
%TO.N,Net-(Q4-Pad3)*%
X112000000Y-35500000D03*
%TO.P,SENS5,3*%
%TO.N,+5V*%
X112000000Y-33000000D03*
%TO.P,SENS5,2*%
%TO.N,SCL_5*%
X112000000Y-30500000D03*
%TO.P,SENS5,1*%
%TO.N,SDA_5*%
%TA.AperFunction,ComponentPad*%
G36*
G01*
X111275000Y-27150000D02*
X112725000Y-27150000D01*
G75*
G02*
X112975000Y-27400000I0J-250000D01*
G01*
X112975000Y-28600000D01*
G75*
G02*
X112725000Y-28850000I-250000J0D01*
G01*
X111275000Y-28850000D01*
G75*
G02*
X111025000Y-28600000I0J250000D01*
G01*
X111025000Y-27400000D01*
G75*
G02*
X111275000Y-27150000I250000J0D01*
G01*
G37*
%TD.AperFunction*%
%TD*%
%TO.P,SENS4,5*%
%TO.N,G27*%
X103000000Y-38000000D03*
%TO.P,SENS4,4*%
%TO.N,Net-(Q4-Pad3)*%
X103000000Y-35500000D03*
%TO.P,SENS4,3*%
%TO.N,+5V*%
X103000000Y-33000000D03*
%TO.P,SENS4,2*%
%TO.N,SCL_4*%
X103000000Y-30500000D03*
%TO.P,SENS4,1*%
%TO.N,SDA_4*%
%TA.AperFunction,ComponentPad*%
G36*
G01*
X102275000Y-27150000D02*
X103725000Y-27150000D01*
G75*
G02*
X103975000Y-27400000I0J-250000D01*
G01*
X103975000Y-28600000D01*
G75*
G02*
X103725000Y-28850000I-250000J0D01*
G01*
X102275000Y-28850000D01*
G75*
G02*
X102025000Y-28600000I0J250000D01*
G01*
X102025000Y-27400000D01*
G75*
G02*
X102275000Y-27150000I250000J0D01*
G01*
G37*
%TD.AperFunction*%
%TD*%
%TO.P,SENS3,5*%
%TO.N,G19*%
X94000000Y-38000000D03*
%TO.P,SENS3,4*%
%TO.N,Net-(Q4-Pad3)*%
X94000000Y-35500000D03*
%TO.P,SENS3,3*%
%TO.N,+5V*%
X94000000Y-33000000D03*
%TO.P,SENS3,2*%
%TO.N,SCL_3*%
X94000000Y-30500000D03*
%TO.P,SENS3,1*%
%TO.N,SDA_3*%
%TA.AperFunction,ComponentPad*%
G36*
G01*
X93275000Y-27150000D02*
X94725000Y-27150000D01*
G75*
G02*
X94975000Y-27400000I0J-250000D01*
G01*
X94975000Y-28600000D01*
G75*
G02*
X94725000Y-28850000I-250000J0D01*
G01*
X93275000Y-28850000D01*
G75*
G02*
X93025000Y-28600000I0J250000D01*
G01*
X93025000Y-27400000D01*
G75*
G02*
X93275000Y-27150000I250000J0D01*
G01*
G37*
%TD.AperFunction*%
%TD*%
%TO.P,SENS2,5*%
%TO.N,G18*%
X85000000Y-38000000D03*
%TO.P,SENS2,4*%
%TO.N,Net-(Q4-Pad3)*%
X85000000Y-35500000D03*
%TO.P,SENS2,3*%
%TO.N,+5V*%
X85000000Y-33000000D03*
%TO.P,SENS2,2*%
%TO.N,SCL_2*%
X85000000Y-30500000D03*
%TO.P,SENS2,1*%
%TO.N,SDA_2*%
%TA.AperFunction,ComponentPad*%
G36*
G01*
X84275000Y-27150000D02*
X85725000Y-27150000D01*
G75*
G02*
X85975000Y-27400000I0J-250000D01*
G01*
X85975000Y-28600000D01*
G75*
G02*
X85725000Y-28850000I-250000J0D01*
G01*
X84275000Y-28850000D01*
G75*
G02*
X84025000Y-28600000I0J250000D01*
G01*
X84025000Y-27400000D01*
G75*
G02*
X84275000Y-27150000I250000J0D01*
G01*
G37*
%TD.AperFunction*%
%TD*%
%TO.P,SENS1,5*%
%TO.N,G17*%
X76000000Y-38000000D03*
%TO.P,SENS1,4*%
%TO.N,Net-(Q4-Pad3)*%
X76000000Y-35500000D03*
%TO.P,SENS1,3*%
%TO.N,+5V*%
X76000000Y-33000000D03*
%TO.P,SENS1,2*%
%TO.N,SCL_1*%
X76000000Y-30500000D03*
%TO.P,SENS1,1*%
%TO.N,SDA_1*%
%TA.AperFunction,ComponentPad*%
G36*
G01*
X75275000Y-27150000D02*
X76725000Y-27150000D01*
G75*
G02*
X76975000Y-27400000I0J-250000D01*
G01*
X76975000Y-28600000D01*
G75*
G02*
X76725000Y-28850000I-250000J0D01*
G01*
X75275000Y-28850000D01*
G75*
G02*
X75025000Y-28600000I0J250000D01*
G01*
X75025000Y-27400000D01*
G75*
G02*
X75275000Y-27150000I250000J0D01*
G01*
G37*
%TD.AperFunction*%
%TD*%
%TO.P,SENS0,5*%
%TO.N,G16*%
X67000000Y-38000000D03*
%TO.P,SENS0,4*%
%TO.N,Net-(Q4-Pad3)*%
X67000000Y-35500000D03*
%TO.P,SENS0,3*%
%TO.N,+5V*%
X67000000Y-33000000D03*
%TO.P,SENS0,2*%
%TO.N,SCL_0*%
X67000000Y-30500000D03*
%TO.P,SENS0,1*%
%TO.N,SDA_0*%
%TA.AperFunction,ComponentPad*%
G36*
G01*
X66275000Y-27150000D02*
X67725000Y-27150000D01*
G75*
G02*
X67975000Y-27400000I0J-250000D01*
G01*
X67975000Y-28600000D01*
G75*
G02*
X67725000Y-28850000I-250000J0D01*
G01*
X66275000Y-28850000D01*
G75*
G02*
X66025000Y-28600000I0J250000D01*
G01*
X66025000Y-27400000D01*
G75*
G02*
X66275000Y-27150000I250000J0D01*
G01*
G37*
%TD.AperFunction*%
%TD*%
%TO.P,UART2,4*%
%TO.N,GND*%
X47000000Y-73056000D03*
%TO.P,UART2,3*%
%TO.N,RX*%
X47000000Y-70556000D03*
%TO.P,UART2,2*%
%TO.N,TX*%
X47000000Y-68056000D03*
%TO.P,UART2,1*%
%TO.N,+5V*%
%TA.AperFunction,ComponentPad*%
G36*
G01*
X46275000Y-64706000D02*
X47725000Y-64706000D01*
G75*
G02*
X47975000Y-64956000I0J-250000D01*
G01*
X47975000Y-66156000D01*
G75*
G02*
X47725000Y-66406000I-250000J0D01*
G01*
X46275000Y-66406000D01*
G75*
G02*
X46025000Y-66156000I0J250000D01*
G01*
X46025000Y-64956000D01*
G75*
G02*
X46275000Y-64706000I250000J0D01*
G01*
G37*
%TD.AperFunction*%
%TD*%
%TO.P,I2C1,4*%
%TO.N,SCL*%
X47000000Y-58056000D03*
%TO.P,I2C1,3*%
%TO.N,SDA*%
X47000000Y-55556000D03*
%TO.P,I2C1,2*%
%TO.N,+5V*%
X47000000Y-53056000D03*
%TO.P,I2C1,1*%
%TO.N,GND*%
%TA.AperFunction,ComponentPad*%
G36*
G01*
X46275000Y-49706000D02*
X47725000Y-49706000D01*
G75*
G02*
X47975000Y-49956000I0J-250000D01*
G01*
X47975000Y-51156000D01*
G75*
G02*
X47725000Y-51406000I-250000J0D01*
G01*
X46275000Y-51406000D01*
G75*
G02*
X46025000Y-51156000I0J250000D01*
G01*
X46025000Y-49956000D01*
G75*
G02*
X46275000Y-49706000I250000J0D01*
G01*
G37*
%TD.AperFunction*%
%TD*%
D20*
%TO.P,K2,1*%
%TO.N,Net-(K2-Pad1)*%
X73350000Y-110160000D03*
D21*
%TO.P,K2,2*%
%TO.N,220L*%
X73350000Y-102540000D03*
%TO.P,K2,3*%
%TO.N,Net-(C8-Pad1)*%
X73350000Y-92380000D03*
%TO.P,K2,4*%
%TO.N,Net-(C8-Pad2)*%
X73350000Y-89840000D03*
%TD*%
D20*
%TO.P,K3,1*%
%TO.N,Net-(K3-Pad1)*%
X54100000Y-110160000D03*
D21*
%TO.P,K3,2*%
%TO.N,220L*%
X54100000Y-102540000D03*
%TO.P,K3,3*%
%TO.N,Net-(C9-Pad1)*%
X54100000Y-92380000D03*
%TO.P,K3,4*%
%TO.N,Net-(C9-Pad2)*%
X54100000Y-89840000D03*
%TD*%
%TO.P,R23,2*%
%TO.N,Net-(C9-Pad1)*%
%TA.AperFunction,SMDPad,CuDef*%
G36*
G01*
X59928598Y-87909700D02*
X61178602Y-87909700D01*
G75*
G02*
X61428600Y-88159698I0J-249998D01*
G01*
X61428600Y-88784702D01*
G75*
G02*
X61178602Y-89034700I-249998J0D01*
G01*
X59928598Y-89034700D01*
G75*
G02*
X59678600Y-88784702I0J249998D01*
G01*
X59678600Y-88159698D01*
G75*
G02*
X59928598Y-87909700I249998J0D01*
G01*
G37*
%TD.AperFunction*%
%TO.P,R23,1*%
%TO.N,Net-(D3-Pad1)*%
%TA.AperFunction,SMDPad,CuDef*%
G36*
G01*
X59928598Y-84984700D02*
X61178602Y-84984700D01*
G75*
G02*
X61428600Y-85234698I0J-249998D01*
G01*
X61428600Y-85859702D01*
G75*
G02*
X61178602Y-86109700I-249998J0D01*
G01*
X59928598Y-86109700D01*
G75*
G02*
X59678600Y-85859702I0J249998D01*
G01*
X59678600Y-85234698D01*
G75*
G02*
X59928598Y-84984700I249998J0D01*
G01*
G37*
%TD.AperFunction*%
%TD*%
%TO.P,R22,2*%
%TO.N,Net-(C8-Pad1)*%
%TA.AperFunction,SMDPad,CuDef*%
G36*
G01*
X79124998Y-87900000D02*
X80375002Y-87900000D01*
G75*
G02*
X80625000Y-88149998I0J-249998D01*
G01*
X80625000Y-88775002D01*
G75*
G02*
X80375002Y-89025000I-249998J0D01*
G01*
X79124998Y-89025000D01*
G75*
G02*
X78875000Y-88775002I0J249998D01*
G01*
X78875000Y-88149998D01*
G75*
G02*
X79124998Y-87900000I249998J0D01*
G01*
G37*
%TD.AperFunction*%
%TO.P,R22,1*%
%TO.N,Net-(D2-Pad1)*%
%TA.AperFunction,SMDPad,CuDef*%
G36*
G01*
X79124998Y-84975000D02*
X80375002Y-84975000D01*
G75*
G02*
X80625000Y-85224998I0J-249998D01*
G01*
X80625000Y-85850002D01*
G75*
G02*
X80375002Y-86100000I-249998J0D01*
G01*
X79124998Y-86100000D01*
G75*
G02*
X78875000Y-85850002I0J249998D01*
G01*
X78875000Y-85224998D01*
G75*
G02*
X79124998Y-84975000I249998J0D01*
G01*
G37*
%TD.AperFunction*%
%TD*%
%TO.P,R21,2*%
%TO.N,Net-(Q3-Pad1)*%
%TA.AperFunction,SMDPad,CuDef*%
G36*
G01*
X62874998Y-87900000D02*
X64125002Y-87900000D01*
G75*
G02*
X64375000Y-88149998I0J-249998D01*
G01*
X64375000Y-88775002D01*
G75*
G02*
X64125002Y-89025000I-249998J0D01*
G01*
X62874998Y-89025000D01*
G75*
G02*
X62625000Y-88775002I0J249998D01*
G01*
X62625000Y-88149998D01*
G75*
G02*
X62874998Y-87900000I249998J0D01*
G01*
G37*
%TD.AperFunction*%
%TO.P,R21,1*%
%TO.N,GND*%
%TA.AperFunction,SMDPad,CuDef*%
G36*
G01*
X62874998Y-84975000D02*
X64125002Y-84975000D01*
G75*
G02*
X64375000Y-85224998I0J-249998D01*
G01*
X64375000Y-85850002D01*
G75*
G02*
X64125002Y-86100000I-249998J0D01*
G01*
X62874998Y-86100000D01*
G75*
G02*
X62625000Y-85850002I0J249998D01*
G01*
X62625000Y-85224998D01*
G75*
G02*
X62874998Y-84975000I249998J0D01*
G01*
G37*
%TD.AperFunction*%
%TD*%
%TO.P,R16,2*%
%TO.N,Net-(Q2-Pad1)*%
%TA.AperFunction,SMDPad,CuDef*%
G36*
G01*
X82124998Y-87900000D02*
X83375002Y-87900000D01*
G75*
G02*
X83625000Y-88149998I0J-249998D01*
G01*
X83625000Y-88775002D01*
G75*
G02*
X83375002Y-89025000I-249998J0D01*
G01*
X82124998Y-89025000D01*
G75*
G02*
X81875000Y-88775002I0J249998D01*
G01*
X81875000Y-88149998D01*
G75*
G02*
X82124998Y-87900000I249998J0D01*
G01*
G37*
%TD.AperFunction*%
%TO.P,R16,1*%
%TO.N,GND*%
%TA.AperFunction,SMDPad,CuDef*%
G36*
G01*
X82124998Y-84975000D02*
X83375002Y-84975000D01*
G75*
G02*
X83625000Y-85224998I0J-249998D01*
G01*
X83625000Y-85850002D01*
G75*
G02*
X83375002Y-86100000I-249998J0D01*
G01*
X82124998Y-86100000D01*
G75*
G02*
X81875000Y-85850002I0J249998D01*
G01*
X81875000Y-85224998D01*
G75*
G02*
X82124998Y-84975000I249998J0D01*
G01*
G37*
%TD.AperFunction*%
%TD*%
%TO.P,R15,2*%
%TO.N,Net-(Q1-Pad1)*%
%TA.AperFunction,SMDPad,CuDef*%
G36*
G01*
X101124998Y-87900000D02*
X102375002Y-87900000D01*
G75*
G02*
X102625000Y-88149998I0J-249998D01*
G01*
X102625000Y-88775002D01*
G75*
G02*
X102375002Y-89025000I-249998J0D01*
G01*
X101124998Y-89025000D01*
G75*
G02*
X100875000Y-88775002I0J249998D01*
G01*
X100875000Y-88149998D01*
G75*
G02*
X101124998Y-87900000I249998J0D01*
G01*
G37*
%TD.AperFunction*%
%TO.P,R15,1*%
%TO.N,GND*%
%TA.AperFunction,SMDPad,CuDef*%
G36*
G01*
X101124998Y-84975000D02*
X102375002Y-84975000D01*
G75*
G02*
X102625000Y-85224998I0J-249998D01*
G01*
X102625000Y-85850002D01*
G75*
G02*
X102375002Y-86100000I-249998J0D01*
G01*
X101124998Y-86100000D01*
G75*
G02*
X100875000Y-85850002I0J249998D01*
G01*
X100875000Y-85224998D01*
G75*
G02*
X101124998Y-84975000I249998J0D01*
G01*
G37*
%TD.AperFunction*%
%TD*%
%TO.P,R7,2*%
%TO.N,Net-(C9-Pad2)*%
%TA.AperFunction,SMDPad,CuDef*%
G36*
G01*
X68874998Y-92900000D02*
X70125002Y-92900000D01*
G75*
G02*
X70375000Y-93149998I0J-249998D01*
G01*
X70375000Y-93775002D01*
G75*
G02*
X70125002Y-94025000I-249998J0D01*
G01*
X68874998Y-94025000D01*
G75*
G02*
X68625000Y-93775002I0J249998D01*
G01*
X68625000Y-93149998D01*
G75*
G02*
X68874998Y-92900000I249998J0D01*
G01*
G37*
%TD.AperFunction*%
%TO.P,R7,1*%
%TO.N,Net-(LED3-Pad1)*%
%TA.AperFunction,SMDPad,CuDef*%
G36*
G01*
X68874998Y-89975000D02*
X70125002Y-89975000D01*
G75*
G02*
X70375000Y-90224998I0J-249998D01*
G01*
X70375000Y-90850002D01*
G75*
G02*
X70125002Y-91100000I-249998J0D01*
G01*
X68874998Y-91100000D01*
G75*
G02*
X68625000Y-90850002I0J249998D01*
G01*
X68625000Y-90224998D01*
G75*
G02*
X68874998Y-89975000I249998J0D01*
G01*
G37*
%TD.AperFunction*%
%TD*%
%TO.P,R6,2*%
%TO.N,Net-(C8-Pad2)*%
%TA.AperFunction,SMDPad,CuDef*%
G36*
G01*
X88124998Y-92900000D02*
X89375002Y-92900000D01*
G75*
G02*
X89625000Y-93149998I0J-249998D01*
G01*
X89625000Y-93775002D01*
G75*
G02*
X89375002Y-94025000I-249998J0D01*
G01*
X88124998Y-94025000D01*
G75*
G02*
X87875000Y-93775002I0J249998D01*
G01*
X87875000Y-93149998D01*
G75*
G02*
X88124998Y-92900000I249998J0D01*
G01*
G37*
%TD.AperFunction*%
%TO.P,R6,1*%
%TO.N,Net-(LED2-Pad1)*%
%TA.AperFunction,SMDPad,CuDef*%
G36*
G01*
X88124998Y-89975000D02*
X89375002Y-89975000D01*
G75*
G02*
X89625000Y-90224998I0J-249998D01*
G01*
X89625000Y-90850002D01*
G75*
G02*
X89375002Y-91100000I-249998J0D01*
G01*
X88124998Y-91100000D01*
G75*
G02*
X87875000Y-90850002I0J249998D01*
G01*
X87875000Y-90224998D01*
G75*
G02*
X88124998Y-89975000I249998J0D01*
G01*
G37*
%TD.AperFunction*%
%TD*%
%TO.P,R4,2*%
%TO.N,Net-(Q3-Pad1)*%
%TA.AperFunction,SMDPad,CuDef*%
G36*
G01*
X65874998Y-87900000D02*
X67125002Y-87900000D01*
G75*
G02*
X67375000Y-88149998I0J-249998D01*
G01*
X67375000Y-88775002D01*
G75*
G02*
X67125002Y-89025000I-249998J0D01*
G01*
X65874998Y-89025000D01*
G75*
G02*
X65625000Y-88775002I0J249998D01*
G01*
X65625000Y-88149998D01*
G75*
G02*
X65874998Y-87900000I249998J0D01*
G01*
G37*
%TD.AperFunction*%
%TO.P,R4,1*%
%TO.N,G25*%
%TA.AperFunction,SMDPad,CuDef*%
G36*
G01*
X65874998Y-84975000D02*
X67125002Y-84975000D01*
G75*
G02*
X67375000Y-85224998I0J-249998D01*
G01*
X67375000Y-85850002D01*
G75*
G02*
X67125002Y-86100000I-249998J0D01*
G01*
X65874998Y-86100000D01*
G75*
G02*
X65625000Y-85850002I0J249998D01*
G01*
X65625000Y-85224998D01*
G75*
G02*
X65874998Y-84975000I249998J0D01*
G01*
G37*
%TD.AperFunction*%
%TD*%
%TO.P,R3,2*%
%TO.N,Net-(Q2-Pad1)*%
%TA.AperFunction,SMDPad,CuDef*%
G36*
G01*
X85124998Y-87900000D02*
X86375002Y-87900000D01*
G75*
G02*
X86625000Y-88149998I0J-249998D01*
G01*
X86625000Y-88775002D01*
G75*
G02*
X86375002Y-89025000I-249998J0D01*
G01*
X85124998Y-89025000D01*
G75*
G02*
X84875000Y-88775002I0J249998D01*
G01*
X84875000Y-88149998D01*
G75*
G02*
X85124998Y-87900000I249998J0D01*
G01*
G37*
%TD.AperFunction*%
%TO.P,R3,1*%
%TO.N,G4*%
%TA.AperFunction,SMDPad,CuDef*%
G36*
G01*
X85124998Y-84975000D02*
X86375002Y-84975000D01*
G75*
G02*
X86625000Y-85224998I0J-249998D01*
G01*
X86625000Y-85850002D01*
G75*
G02*
X86375002Y-86100000I-249998J0D01*
G01*
X85124998Y-86100000D01*
G75*
G02*
X84875000Y-85850002I0J249998D01*
G01*
X84875000Y-85224998D01*
G75*
G02*
X85124998Y-84975000I249998J0D01*
G01*
G37*
%TD.AperFunction*%
%TD*%
D22*
%TO.P,Q3,3*%
%TO.N,Net-(C9-Pad2)*%
X64500000Y-93000000D03*
%TO.P,Q3,2*%
%TO.N,GND*%
X66500000Y-92050000D03*
%TO.P,Q3,1*%
%TO.N,Net-(Q3-Pad1)*%
X66500000Y-93950000D03*
%TD*%
%TO.P,Q2,3*%
%TO.N,Net-(C8-Pad2)*%
X83750000Y-93000000D03*
%TO.P,Q2,2*%
%TO.N,GND*%
X85750000Y-92050000D03*
%TO.P,Q2,1*%
%TO.N,Net-(Q2-Pad1)*%
X85750000Y-93950000D03*
%TD*%
%TO.P,LED3,2*%
%TO.N,+5V*%
%TA.AperFunction,SMDPad,CuDef*%
G36*
G01*
X70125000Y-86225000D02*
X68875000Y-86225000D01*
G75*
G02*
X68625000Y-85975000I0J250000D01*
G01*
X68625000Y-85225000D01*
G75*
G02*
X68875000Y-84975000I250000J0D01*
G01*
X70125000Y-84975000D01*
G75*
G02*
X70375000Y-85225000I0J-250000D01*
G01*
X70375000Y-85975000D01*
G75*
G02*
X70125000Y-86225000I-250000J0D01*
G01*
G37*
%TD.AperFunction*%
%TO.P,LED3,1*%
%TO.N,Net-(LED3-Pad1)*%
%TA.AperFunction,SMDPad,CuDef*%
G36*
G01*
X70125000Y-89025000D02*
X68875000Y-89025000D01*
G75*
G02*
X68625000Y-88775000I0J250000D01*
G01*
X68625000Y-88025000D01*
G75*
G02*
X68875000Y-87775000I250000J0D01*
G01*
X70125000Y-87775000D01*
G75*
G02*
X70375000Y-88025000I0J-250000D01*
G01*
X70375000Y-88775000D01*
G75*
G02*
X70125000Y-89025000I-250000J0D01*
G01*
G37*
%TD.AperFunction*%
%TD*%
%TO.P,LED2,2*%
%TO.N,+5V*%
%TA.AperFunction,SMDPad,CuDef*%
G36*
G01*
X89375000Y-86225000D02*
X88125000Y-86225000D01*
G75*
G02*
X87875000Y-85975000I0J250000D01*
G01*
X87875000Y-85225000D01*
G75*
G02*
X88125000Y-84975000I250000J0D01*
G01*
X89375000Y-84975000D01*
G75*
G02*
X89625000Y-85225000I0J-250000D01*
G01*
X89625000Y-85975000D01*
G75*
G02*
X89375000Y-86225000I-250000J0D01*
G01*
G37*
%TD.AperFunction*%
%TO.P,LED2,1*%
%TO.N,Net-(LED2-Pad1)*%
%TA.AperFunction,SMDPad,CuDef*%
G36*
G01*
X89375000Y-89025000D02*
X88125000Y-89025000D01*
G75*
G02*
X87875000Y-88775000I0J250000D01*
G01*
X87875000Y-88025000D01*
G75*
G02*
X88125000Y-87775000I250000J0D01*
G01*
X89375000Y-87775000D01*
G75*
G02*
X89625000Y-88025000I0J-250000D01*
G01*
X89625000Y-88775000D01*
G75*
G02*
X89375000Y-89025000I-250000J0D01*
G01*
G37*
%TD.AperFunction*%
%TD*%
%TO.P,D3,2*%
%TO.N,+5V*%
%TA.AperFunction,SMDPad,CuDef*%
G36*
G01*
X53925000Y-83424999D02*
X53925000Y-85575001D01*
G75*
G02*
X53675001Y-85825000I-249999J0D01*
G01*
X52824999Y-85825000D01*
G75*
G02*
X52575000Y-85575001I0J249999D01*
G01*
X52575000Y-83424999D01*
G75*
G02*
X52824999Y-83175000I249999J0D01*
G01*
X53675001Y-83175000D01*
G75*
G02*
X53925000Y-83424999I0J-249999D01*
G01*
G37*
%TD.AperFunction*%
%TO.P,D3,1*%
%TO.N,Net-(D3-Pad1)*%
%TA.AperFunction,SMDPad,CuDef*%
G36*
G01*
X58425000Y-83424999D02*
X58425000Y-85575001D01*
G75*
G02*
X58175001Y-85825000I-249999J0D01*
G01*
X57324999Y-85825000D01*
G75*
G02*
X57075000Y-85575001I0J249999D01*
G01*
X57075000Y-83424999D01*
G75*
G02*
X57324999Y-83175000I249999J0D01*
G01*
X58175001Y-83175000D01*
G75*
G02*
X58425000Y-83424999I0J-249999D01*
G01*
G37*
%TD.AperFunction*%
%TD*%
%TO.P,D2,2*%
%TO.N,+5V*%
%TA.AperFunction,SMDPad,CuDef*%
G36*
G01*
X73175000Y-83424999D02*
X73175000Y-85575001D01*
G75*
G02*
X72925001Y-85825000I-249999J0D01*
G01*
X72074999Y-85825000D01*
G75*
G02*
X71825000Y-85575001I0J249999D01*
G01*
X71825000Y-83424999D01*
G75*
G02*
X72074999Y-83175000I249999J0D01*
G01*
X72925001Y-83175000D01*
G75*
G02*
X73175000Y-83424999I0J-249999D01*
G01*
G37*
%TD.AperFunction*%
%TO.P,D2,1*%
%TO.N,Net-(D2-Pad1)*%
%TA.AperFunction,SMDPad,CuDef*%
G36*
G01*
X77675000Y-83424999D02*
X77675000Y-85575001D01*
G75*
G02*
X77425001Y-85825000I-249999J0D01*
G01*
X76574999Y-85825000D01*
G75*
G02*
X76325000Y-85575001I0J249999D01*
G01*
X76325000Y-83424999D01*
G75*
G02*
X76574999Y-83175000I249999J0D01*
G01*
X77425001Y-83175000D01*
G75*
G02*
X77675000Y-83424999I0J-249999D01*
G01*
G37*
%TD.AperFunction*%
%TD*%
%TO.P,C9,2*%
%TO.N,Net-(C9-Pad2)*%
%TA.AperFunction,SMDPad,CuDef*%
G36*
G01*
X61150001Y-91100000D02*
X59849999Y-91100000D01*
G75*
G02*
X59600000Y-90850001I0J249999D01*
G01*
X59600000Y-90199999D01*
G75*
G02*
X59849999Y-89950000I249999J0D01*
G01*
X61150001Y-89950000D01*
G75*
G02*
X61400000Y-90199999I0J-249999D01*
G01*
X61400000Y-90850001D01*
G75*
G02*
X61150001Y-91100000I-249999J0D01*
G01*
G37*
%TD.AperFunction*%
%TO.P,C9,1*%
%TO.N,Net-(C9-Pad1)*%
%TA.AperFunction,SMDPad,CuDef*%
G36*
G01*
X61150001Y-94050000D02*
X59849999Y-94050000D01*
G75*
G02*
X59600000Y-93800001I0J249999D01*
G01*
X59600000Y-93149999D01*
G75*
G02*
X59849999Y-92900000I249999J0D01*
G01*
X61150001Y-92900000D01*
G75*
G02*
X61400000Y-93149999I0J-249999D01*
G01*
X61400000Y-93800001D01*
G75*
G02*
X61150001Y-94050000I-249999J0D01*
G01*
G37*
%TD.AperFunction*%
%TD*%
%TO.P,C8,2*%
%TO.N,Net-(C8-Pad2)*%
%TA.AperFunction,SMDPad,CuDef*%
G36*
G01*
X80400001Y-91100000D02*
X79099999Y-91100000D01*
G75*
G02*
X78850000Y-90850001I0J249999D01*
G01*
X78850000Y-90199999D01*
G75*
G02*
X79099999Y-89950000I249999J0D01*
G01*
X80400001Y-89950000D01*
G75*
G02*
X80650000Y-90199999I0J-249999D01*
G01*
X80650000Y-90850001D01*
G75*
G02*
X80400001Y-91100000I-249999J0D01*
G01*
G37*
%TD.AperFunction*%
%TO.P,C8,1*%
%TO.N,Net-(C8-Pad1)*%
%TA.AperFunction,SMDPad,CuDef*%
G36*
G01*
X80400001Y-94050000D02*
X79099999Y-94050000D01*
G75*
G02*
X78850000Y-93800001I0J249999D01*
G01*
X78850000Y-93149999D01*
G75*
G02*
X79099999Y-92900000I249999J0D01*
G01*
X80400001Y-92900000D01*
G75*
G02*
X80650000Y-93149999I0J-249999D01*
G01*
X80650000Y-93800001D01*
G75*
G02*
X80400001Y-94050000I-249999J0D01*
G01*
G37*
%TD.AperFunction*%
%TD*%
%TO.P,C7,2*%
%TO.N,Net-(C7-Pad2)*%
%TA.AperFunction,SMDPad,CuDef*%
G36*
G01*
X99650001Y-91100000D02*
X98349999Y-91100000D01*
G75*
G02*
X98100000Y-90850001I0J249999D01*
G01*
X98100000Y-90199999D01*
G75*
G02*
X98349999Y-89950000I249999J0D01*
G01*
X99650001Y-89950000D01*
G75*
G02*
X99900000Y-90199999I0J-249999D01*
G01*
X99900000Y-90850001D01*
G75*
G02*
X99650001Y-91100000I-249999J0D01*
G01*
G37*
%TD.AperFunction*%
%TO.P,C7,1*%
%TO.N,Net-(C7-Pad1)*%
%TA.AperFunction,SMDPad,CuDef*%
G36*
G01*
X99650001Y-94050000D02*
X98349999Y-94050000D01*
G75*
G02*
X98100000Y-93800001I0J249999D01*
G01*
X98100000Y-93149999D01*
G75*
G02*
X98349999Y-92900000I249999J0D01*
G01*
X99650001Y-92900000D01*
G75*
G02*
X99900000Y-93149999I0J-249999D01*
G01*
X99900000Y-93800001D01*
G75*
G02*
X99650001Y-94050000I-249999J0D01*
G01*
G37*
%TD.AperFunction*%
%TD*%
D23*
%TO.P,SW1,1*%
%TO.N,GND*%
X127444500Y-98488500D03*
%TO.P,SW1,2*%
%TO.N,EN*%
X127444500Y-102988500D03*
%TD*%
D24*
%TO.P,PWR1,1*%
%TO.N,+5V*%
X118529100Y-70142100D03*
%TD*%
D25*
%TO.P,UART1,6*%
%TO.N,EN*%
X105765600Y-72745600D03*
%TO.P,UART1,5*%
%TO.N,IO0*%
X108305600Y-72745600D03*
%TO.P,UART1,4*%
%TO.N,RX*%
X110845600Y-72745600D03*
%TO.P,UART1,3*%
%TO.N,TX*%
X113385600Y-72745600D03*
%TO.P,UART1,2*%
%TO.N,+3V3*%
X115925600Y-72745600D03*
D24*
%TO.P,UART1,1*%
%TO.N,GND*%
X118465600Y-72745600D03*
%TD*%
%TO.P,U4,28*%
%TO.N,Net-(Q6-Pad2)*%
%TA.AperFunction,SMDPad,CuDef*%
G36*
G01*
X113440763Y-84731263D02*
X113440763Y-83842671D01*
G75*
G02*
X113562000Y-83721434I121237J0D01*
G01*
X113562000Y-83721434D01*
G75*
G02*
X113683237Y-83842671I0J-121237D01*
G01*
X113683237Y-84731263D01*
G75*
G02*
X113562000Y-84852500I-121237J0D01*
G01*
X113562000Y-84852500D01*
G75*
G02*
X113440763Y-84731263I0J121237D01*
G01*
G37*
%TD.AperFunction*%
%TO.P,U4,27*%
%TO.N,Net-(U4-Pad27)*%
%TA.AperFunction,SMDPad,CuDef*%
G36*
G01*
X113940763Y-84731263D02*
X113940763Y-83842671D01*
G75*
G02*
X114062000Y-83721434I121237J0D01*
G01*
X114062000Y-83721434D01*
G75*
G02*
X114183237Y-83842671I0J-121237D01*
G01*
X114183237Y-84731263D01*
G75*
G02*
X114062000Y-84852500I-121237J0D01*
G01*
X114062000Y-84852500D01*
G75*
G02*
X113940763Y-84731263I0J121237D01*
G01*
G37*
%TD.AperFunction*%
%TO.P,U4,26*%
%TO.N,RX*%
%TA.AperFunction,SMDPad,CuDef*%
G36*
G01*
X114440763Y-84731263D02*
X114440763Y-83842671D01*
G75*
G02*
X114562000Y-83721434I121237J0D01*
G01*
X114562000Y-83721434D01*
G75*
G02*
X114683237Y-83842671I0J-121237D01*
G01*
X114683237Y-84731263D01*
G75*
G02*
X114562000Y-84852500I-121237J0D01*
G01*
X114562000Y-84852500D01*
G75*
G02*
X114440763Y-84731263I0J121237D01*
G01*
G37*
%TD.AperFunction*%
%TO.P,U4,25*%
%TO.N,TX*%
%TA.AperFunction,SMDPad,CuDef*%
G36*
G01*
X114940763Y-84731263D02*
X114940763Y-83842671D01*
G75*
G02*
X115062000Y-83721434I121237J0D01*
G01*
X115062000Y-83721434D01*
G75*
G02*
X115183237Y-83842671I0J-121237D01*
G01*
X115183237Y-84731263D01*
G75*
G02*
X115062000Y-84852500I-121237J0D01*
G01*
X115062000Y-84852500D01*
G75*
G02*
X114940763Y-84731263I0J121237D01*
G01*
G37*
%TD.AperFunction*%
%TO.P,U4,24*%
%TO.N,Net-(Q5-Pad2)*%
%TA.AperFunction,SMDPad,CuDef*%
G36*
G01*
X115440763Y-84731263D02*
X115440763Y-83842671D01*
G75*
G02*
X115562000Y-83721434I121237J0D01*
G01*
X115562000Y-83721434D01*
G75*
G02*
X115683237Y-83842671I0J-121237D01*
G01*
X115683237Y-84731263D01*
G75*
G02*
X115562000Y-84852500I-121237J0D01*
G01*
X115562000Y-84852500D01*
G75*
G02*
X115440763Y-84731263I0J121237D01*
G01*
G37*
%TD.AperFunction*%
%TO.P,U4,23*%
%TO.N,Net-(U4-Pad23)*%
%TA.AperFunction,SMDPad,CuDef*%
G36*
G01*
X115940763Y-84731263D02*
X115940763Y-83842671D01*
G75*
G02*
X116062000Y-83721434I121237J0D01*
G01*
X116062000Y-83721434D01*
G75*
G02*
X116183237Y-83842671I0J-121237D01*
G01*
X116183237Y-84731263D01*
G75*
G02*
X116062000Y-84852500I-121237J0D01*
G01*
X116062000Y-84852500D01*
G75*
G02*
X115940763Y-84731263I0J121237D01*
G01*
G37*
%TD.AperFunction*%
%TO.P,U4,22*%
%TO.N,Net-(U4-Pad22)*%
%TA.AperFunction,SMDPad,CuDef*%
G36*
G01*
X116440763Y-84731263D02*
X116440763Y-83842671D01*
G75*
G02*
X116562000Y-83721434I121237J0D01*
G01*
X116562000Y-83721434D01*
G75*
G02*
X116683237Y-83842671I0J-121237D01*
G01*
X116683237Y-84731263D01*
G75*
G02*
X116562000Y-84852500I-121237J0D01*
G01*
X116562000Y-84852500D01*
G75*
G02*
X116440763Y-84731263I0J121237D01*
G01*
G37*
%TD.AperFunction*%
%TO.P,U4,14*%
%TO.N,Net-(U4-Pad14)*%
%TA.AperFunction,SMDPad,CuDef*%
G36*
G01*
X116440763Y-89512329D02*
X116440763Y-88623737D01*
G75*
G02*
X116562000Y-88502500I121237J0D01*
G01*
X116562000Y-88502500D01*
G75*
G02*
X116683237Y-88623737I0J-121237D01*
G01*
X116683237Y-89512329D01*
G75*
G02*
X116562000Y-89633566I-121237J0D01*
G01*
X116562000Y-89633566D01*
G75*
G02*
X116440763Y-89512329I0J121237D01*
G01*
G37*
%TD.AperFunction*%
%TO.P,U4,13*%
%TO.N,Net-(U4-Pad13)*%
%TA.AperFunction,SMDPad,CuDef*%
G36*
G01*
X115940763Y-89512329D02*
X115940763Y-88623737D01*
G75*
G02*
X116062000Y-88502500I121237J0D01*
G01*
X116062000Y-88502500D01*
G75*
G02*
X116183237Y-88623737I0J-121237D01*
G01*
X116183237Y-89512329D01*
G75*
G02*
X116062000Y-89633566I-121237J0D01*
G01*
X116062000Y-89633566D01*
G75*
G02*
X115940763Y-89512329I0J121237D01*
G01*
G37*
%TD.AperFunction*%
%TO.P,U4,12*%
%TO.N,Net-(U4-Pad12)*%
%TA.AperFunction,SMDPad,CuDef*%
G36*
G01*
X115440763Y-89512329D02*
X115440763Y-88623737D01*
G75*
G02*
X115562000Y-88502500I121237J0D01*
G01*
X115562000Y-88502500D01*
G75*
G02*
X115683237Y-88623737I0J-121237D01*
G01*
X115683237Y-89512329D01*
G75*
G02*
X115562000Y-89633566I-121237J0D01*
G01*
X115562000Y-89633566D01*
G75*
G02*
X115440763Y-89512329I0J121237D01*
G01*
G37*
%TD.AperFunction*%
%TO.P,U4,11*%
%TO.N,Net-(U4-Pad11)*%
%TA.AperFunction,SMDPad,CuDef*%
G36*
G01*
X114940763Y-89512329D02*
X114940763Y-88623737D01*
G75*
G02*
X115062000Y-88502500I121237J0D01*
G01*
X115062000Y-88502500D01*
G75*
G02*
X115183237Y-88623737I0J-121237D01*
G01*
X115183237Y-89512329D01*
G75*
G02*
X115062000Y-89633566I-121237J0D01*
G01*
X115062000Y-89633566D01*
G75*
G02*
X114940763Y-89512329I0J121237D01*
G01*
G37*
%TD.AperFunction*%
%TO.P,U4,10*%
%TO.N,Net-(U4-Pad10)*%
%TA.AperFunction,SMDPad,CuDef*%
G36*
G01*
X114440763Y-89512329D02*
X114440763Y-88623737D01*
G75*
G02*
X114562000Y-88502500I121237J0D01*
G01*
X114562000Y-88502500D01*
G75*
G02*
X114683237Y-88623737I0J-121237D01*
G01*
X114683237Y-89512329D01*
G75*
G02*
X114562000Y-89633566I-121237J0D01*
G01*
X114562000Y-89633566D01*
G75*
G02*
X114440763Y-89512329I0J121237D01*
G01*
G37*
%TD.AperFunction*%
%TO.P,U4,9*%
%TO.N,Net-(U4-Pad9)*%
%TA.AperFunction,SMDPad,CuDef*%
G36*
G01*
X113940763Y-89512329D02*
X113940763Y-88623737D01*
G75*
G02*
X114062000Y-88502500I121237J0D01*
G01*
X114062000Y-88502500D01*
G75*
G02*
X114183237Y-88623737I0J-121237D01*
G01*
X114183237Y-89512329D01*
G75*
G02*
X114062000Y-89633566I-121237J0D01*
G01*
X114062000Y-89633566D01*
G75*
G02*
X113940763Y-89512329I0J121237D01*
G01*
G37*
%TD.AperFunction*%
%TO.P,U4,8*%
%TO.N,+5V*%
%TA.AperFunction,SMDPad,CuDef*%
G36*
G01*
X113440763Y-89512329D02*
X113440763Y-88623737D01*
G75*
G02*
X113562000Y-88502500I121237J0D01*
G01*
X113562000Y-88502500D01*
G75*
G02*
X113683237Y-88623737I0J-121237D01*
G01*
X113683237Y-89512329D01*
G75*
G02*
X113562000Y-89633566I-121237J0D01*
G01*
X113562000Y-89633566D01*
G75*
G02*
X113440763Y-89512329I0J121237D01*
G01*
G37*
%TD.AperFunction*%
%TO.P,U4,21*%
%TO.N,Net-(U4-Pad21)*%
%TA.AperFunction,SMDPad,CuDef*%
G36*
G01*
X116887000Y-85177500D02*
X116887000Y-85177500D01*
G75*
G02*
X117008237Y-85056263I121237J0D01*
G01*
X117896829Y-85056263D01*
G75*
G02*
X118018066Y-85177500I0J-121237D01*
G01*
X118018066Y-85177500D01*
G75*
G02*
X117896829Y-85298737I-121237J0D01*
G01*
X117008237Y-85298737D01*
G75*
G02*
X116887000Y-85177500I0J121237D01*
G01*
G37*
%TD.AperFunction*%
%TO.P,U4,20*%
%TO.N,Net-(U4-Pad20)*%
%TA.AperFunction,SMDPad,CuDef*%
G36*
G01*
X116887000Y-85677500D02*
X116887000Y-85677500D01*
G75*
G02*
X117008237Y-85556263I121237J0D01*
G01*
X117896829Y-85556263D01*
G75*
G02*
X118018066Y-85677500I0J-121237D01*
G01*
X118018066Y-85677500D01*
G75*
G02*
X117896829Y-85798737I-121237J0D01*
G01*
X117008237Y-85798737D01*
G75*
G02*
X116887000Y-85677500I0J121237D01*
G01*
G37*
%TD.AperFunction*%
%TO.P,U4,19*%
%TO.N,Net-(U4-Pad19)*%
%TA.AperFunction,SMDPad,CuDef*%
G36*
G01*
X116887000Y-86177500D02*
X116887000Y-86177500D01*
G75*
G02*
X117008237Y-86056263I121237J0D01*
G01*
X117896829Y-86056263D01*
G75*
G02*
X118018066Y-86177500I0J-121237D01*
G01*
X118018066Y-86177500D01*
G75*
G02*
X117896829Y-86298737I-121237J0D01*
G01*
X117008237Y-86298737D01*
G75*
G02*
X116887000Y-86177500I0J121237D01*
G01*
G37*
%TD.AperFunction*%
%TO.P,U4,18*%
%TO.N,Net-(U4-Pad18)*%
%TA.AperFunction,SMDPad,CuDef*%
G36*
G01*
X116887000Y-86677500D02*
X116887000Y-86677500D01*
G75*
G02*
X117008237Y-86556263I121237J0D01*
G01*
X117896829Y-86556263D01*
G75*
G02*
X118018066Y-86677500I0J-121237D01*
G01*
X118018066Y-86677500D01*
G75*
G02*
X117896829Y-86798737I-121237J0D01*
G01*
X117008237Y-86798737D01*
G75*
G02*
X116887000Y-86677500I0J121237D01*
G01*
G37*
%TD.AperFunction*%
%TO.P,U4,17*%
%TO.N,Net-(U4-Pad17)*%
%TA.AperFunction,SMDPad,CuDef*%
G36*
G01*
X116887000Y-87177500D02*
X116887000Y-87177500D01*
G75*
G02*
X117008237Y-87056263I121237J0D01*
G01*
X117896829Y-87056263D01*
G75*
G02*
X118018066Y-87177500I0J-121237D01*
G01*
X118018066Y-87177500D01*
G75*
G02*
X117896829Y-87298737I-121237J0D01*
G01*
X117008237Y-87298737D01*
G75*
G02*
X116887000Y-87177500I0J121237D01*
G01*
G37*
%TD.AperFunction*%
%TO.P,U4,16*%
%TO.N,Net-(U4-Pad16)*%
%TA.AperFunction,SMDPad,CuDef*%
G36*
G01*
X116887000Y-87677500D02*
X116887000Y-87677500D01*
G75*
G02*
X117008237Y-87556263I121237J0D01*
G01*
X117896829Y-87556263D01*
G75*
G02*
X118018066Y-87677500I0J-121237D01*
G01*
X118018066Y-87677500D01*
G75*
G02*
X117896829Y-87798737I-121237J0D01*
G01*
X117008237Y-87798737D01*
G75*
G02*
X116887000Y-87677500I0J121237D01*
G01*
G37*
%TD.AperFunction*%
%TO.P,U4,15*%
%TO.N,Net-(U4-Pad15)*%
%TA.AperFunction,SMDPad,CuDef*%
G36*
G01*
X116887000Y-88177500D02*
X116887000Y-88177500D01*
G75*
G02*
X117008237Y-88056263I121237J0D01*
G01*
X117896829Y-88056263D01*
G75*
G02*
X118018066Y-88177500I0J-121237D01*
G01*
X118018066Y-88177500D01*
G75*
G02*
X117896829Y-88298737I-121237J0D01*
G01*
X117008237Y-88298737D01*
G75*
G02*
X116887000Y-88177500I0J121237D01*
G01*
G37*
%TD.AperFunction*%
%TO.P,U4,7*%
%TO.N,+5V*%
%TA.AperFunction,SMDPad,CuDef*%
G36*
G01*
X112105934Y-88177500D02*
X112105934Y-88177500D01*
G75*
G02*
X112227171Y-88056263I121237J0D01*
G01*
X113115763Y-88056263D01*
G75*
G02*
X113237000Y-88177500I0J-121237D01*
G01*
X113237000Y-88177500D01*
G75*
G02*
X113115763Y-88298737I-121237J0D01*
G01*
X112227171Y-88298737D01*
G75*
G02*
X112105934Y-88177500I0J121237D01*
G01*
G37*
%TD.AperFunction*%
%TO.P,U4,6*%
%TO.N,Net-(C5-Pad1)*%
%TA.AperFunction,SMDPad,CuDef*%
G36*
G01*
X112105934Y-87677500D02*
X112105934Y-87677500D01*
G75*
G02*
X112227171Y-87556263I121237J0D01*
G01*
X113115763Y-87556263D01*
G75*
G02*
X113237000Y-87677500I0J-121237D01*
G01*
X113237000Y-87677500D01*
G75*
G02*
X113115763Y-87798737I-121237J0D01*
G01*
X112227171Y-87798737D01*
G75*
G02*
X112105934Y-87677500I0J121237D01*
G01*
G37*
%TD.AperFunction*%
%TO.P,U4,5*%
%TO.N,Net-(P1-PadA7)*%
%TA.AperFunction,SMDPad,CuDef*%
G36*
G01*
X112105934Y-87177500D02*
X112105934Y-87177500D01*
G75*
G02*
X112227171Y-87056263I121237J0D01*
G01*
X113115763Y-87056263D01*
G75*
G02*
X113237000Y-87177500I0J-121237D01*
G01*
X113237000Y-87177500D01*
G75*
G02*
X113115763Y-87298737I-121237J0D01*
G01*
X112227171Y-87298737D01*
G75*
G02*
X112105934Y-87177500I0J121237D01*
G01*
G37*
%TD.AperFunction*%
%TO.P,U4,4*%
%TO.N,Net-(P1-PadA6)*%
%TA.AperFunction,SMDPad,CuDef*%
G36*
G01*
X112105934Y-86677500D02*
X112105934Y-86677500D01*
G75*
G02*
X112227171Y-86556263I121237J0D01*
G01*
X113115763Y-86556263D01*
G75*
G02*
X113237000Y-86677500I0J-121237D01*
G01*
X113237000Y-86677500D01*
G75*
G02*
X113115763Y-86798737I-121237J0D01*
G01*
X112227171Y-86798737D01*
G75*
G02*
X112105934Y-86677500I0J121237D01*
G01*
G37*
%TD.AperFunction*%
%TO.P,U4,3*%
%TO.N,GND*%
%TA.AperFunction,SMDPad,CuDef*%
G36*
G01*
X112105934Y-86177500D02*
X112105934Y-86177500D01*
G75*
G02*
X112227171Y-86056263I121237J0D01*
G01*
X113115763Y-86056263D01*
G75*
G02*
X113237000Y-86177500I0J-121237D01*
G01*
X113237000Y-86177500D01*
G75*
G02*
X113115763Y-86298737I-121237J0D01*
G01*
X112227171Y-86298737D01*
G75*
G02*
X112105934Y-86177500I0J121237D01*
G01*
G37*
%TD.AperFunction*%
%TO.P,U4,2*%
%TO.N,Net-(U4-Pad2)*%
%TA.AperFunction,SMDPad,CuDef*%
G36*
G01*
X112105934Y-85677500D02*
X112105934Y-85677500D01*
G75*
G02*
X112227171Y-85556263I121237J0D01*
G01*
X113115763Y-85556263D01*
G75*
G02*
X113237000Y-85677500I0J-121237D01*
G01*
X113237000Y-85677500D01*
G75*
G02*
X113115763Y-85798737I-121237J0D01*
G01*
X112227171Y-85798737D01*
G75*
G02*
X112105934Y-85677500I0J121237D01*
G01*
G37*
%TD.AperFunction*%
D26*
%TO.P,U4,1*%
%TO.N,Net-(U4-Pad1)*%
X112671467Y-85177500D03*
D27*
%TO.P,U4,29*%
%TO.N,GND*%
X115062000Y-86677500D03*
%TD*%
D18*
%TO.P,S0,2*%
%TO.N,220N*%
X118830000Y-108750000D03*
D19*
%TO.P,S0,1*%
%TO.N,220L*%
X113750000Y-108750000D03*
%TD*%
D18*
%TO.P,S1,2*%
%TO.N,220N*%
X106080000Y-108750000D03*
D19*
%TO.P,S1,1*%
%TO.N,Net-(K1-Pad1)*%
X101000000Y-108750000D03*
%TD*%
%TO.P,R9,2*%
%TO.N,+3V3*%
%TA.AperFunction,SMDPad,CuDef*%
G36*
G01*
X94477000Y-52016497D02*
X94477000Y-53266503D01*
G75*
G02*
X94227003Y-53516500I-249997J0D01*
G01*
X93601997Y-53516500D01*
G75*
G02*
X93352000Y-53266503I0J249997D01*
G01*
X93352000Y-52016497D01*
G75*
G02*
X93601997Y-51766500I249997J0D01*
G01*
X94227003Y-51766500D01*
G75*
G02*
X94477000Y-52016497I0J-249997D01*
G01*
G37*
%TD.AperFunction*%
%TO.P,R9,1*%
%TO.N,SCL*%
%TA.AperFunction,SMDPad,CuDef*%
G36*
G01*
X97402000Y-52016497D02*
X97402000Y-53266503D01*
G75*
G02*
X97152003Y-53516500I-249997J0D01*
G01*
X96526997Y-53516500D01*
G75*
G02*
X96277000Y-53266503I0J249997D01*
G01*
X96277000Y-52016497D01*
G75*
G02*
X96526997Y-51766500I249997J0D01*
G01*
X97152003Y-51766500D01*
G75*
G02*
X97402000Y-52016497I0J-249997D01*
G01*
G37*
%TD.AperFunction*%
%TD*%
%TO.P,U2,16*%
%TO.N,SCL*%
%TA.AperFunction,SMDPad,CuDef*%
G36*
G01*
X97414500Y-55331500D02*
X97414500Y-55031500D01*
G75*
G02*
X97564500Y-54881500I150000J0D01*
G01*
X99314500Y-54881500D01*
G75*
G02*
X99464500Y-55031500I0J-150000D01*
G01*
X99464500Y-55331500D01*
G75*
G02*
X99314500Y-55481500I-150000J0D01*
G01*
X97564500Y-55481500D01*
G75*
G02*
X97414500Y-55331500I0J150000D01*
G01*
G37*
%TD.AperFunction*%
%TO.P,U2,15*%
%TO.N,SDA*%
%TA.AperFunction,SMDPad,CuDef*%
G36*
G01*
X97414500Y-56601500D02*
X97414500Y-56301500D01*
G75*
G02*
X97564500Y-56151500I150000J0D01*
G01*
X99314500Y-56151500D01*
G75*
G02*
X99464500Y-56301500I0J-150000D01*
G01*
X99464500Y-56601500D01*
G75*
G02*
X99314500Y-56751500I-150000J0D01*
G01*
X97564500Y-56751500D01*
G75*
G02*
X97414500Y-56601500I0J150000D01*
G01*
G37*
%TD.AperFunction*%
%TO.P,U2,14*%
%TO.N,Net-(D4-Pad1)*%
%TA.AperFunction,SMDPad,CuDef*%
G36*
G01*
X97414500Y-57871500D02*
X97414500Y-57571500D01*
G75*
G02*
X97564500Y-57421500I150000J0D01*
G01*
X99314500Y-57421500D01*
G75*
G02*
X99464500Y-57571500I0J-150000D01*
G01*
X99464500Y-57871500D01*
G75*
G02*
X99314500Y-58021500I-150000J0D01*
G01*
X97564500Y-58021500D01*
G75*
G02*
X97414500Y-57871500I0J150000D01*
G01*
G37*
%TD.AperFunction*%
%TO.P,U2,13*%
%TO.N,GND*%
%TA.AperFunction,SMDPad,CuDef*%
G36*
G01*
X97414500Y-59141500D02*
X97414500Y-58841500D01*
G75*
G02*
X97564500Y-58691500I150000J0D01*
G01*
X99314500Y-58691500D01*
G75*
G02*
X99464500Y-58841500I0J-150000D01*
G01*
X99464500Y-59141500D01*
G75*
G02*
X99314500Y-59291500I-150000J0D01*
G01*
X97564500Y-59291500D01*
G75*
G02*
X97414500Y-59141500I0J150000D01*
G01*
G37*
%TD.AperFunction*%
%TO.P,U2,12*%
%TA.AperFunction,SMDPad,CuDef*%
G36*
G01*
X97414500Y-60411500D02*
X97414500Y-60111500D01*
G75*
G02*
X97564500Y-59961500I150000J0D01*
G01*
X99314500Y-59961500D01*
G75*
G02*
X99464500Y-60111500I0J-150000D01*
G01*
X99464500Y-60411500D01*
G75*
G02*
X99314500Y-60561500I-150000J0D01*
G01*
X97564500Y-60561500D01*
G75*
G02*
X97414500Y-60411500I0J150000D01*
G01*
G37*
%TD.AperFunction*%
%TO.P,U2,11*%
%TA.AperFunction,SMDPad,CuDef*%
G36*
G01*
X97414500Y-61681500D02*
X97414500Y-61381500D01*
G75*
G02*
X97564500Y-61231500I150000J0D01*
G01*
X99314500Y-61231500D01*
G75*
G02*
X99464500Y-61381500I0J-150000D01*
G01*
X99464500Y-61681500D01*
G75*
G02*
X99314500Y-61831500I-150000J0D01*
G01*
X97564500Y-61831500D01*
G75*
G02*
X97414500Y-61681500I0J150000D01*
G01*
G37*
%TD.AperFunction*%
%TO.P,U2,10*%
%TA.AperFunction,SMDPad,CuDef*%
G36*
G01*
X97414500Y-62951500D02*
X97414500Y-62651500D01*
G75*
G02*
X97564500Y-62501500I150000J0D01*
G01*
X99314500Y-62501500D01*
G75*
G02*
X99464500Y-62651500I0J-150000D01*
G01*
X99464500Y-62951500D01*
G75*
G02*
X99314500Y-63101500I-150000J0D01*
G01*
X97564500Y-63101500D01*
G75*
G02*
X97414500Y-62951500I0J150000D01*
G01*
G37*
%TD.AperFunction*%
%TO.P,U2,9*%
%TA.AperFunction,SMDPad,CuDef*%
G36*
G01*
X97414500Y-64221500D02*
X97414500Y-63921500D01*
G75*
G02*
X97564500Y-63771500I150000J0D01*
G01*
X99314500Y-63771500D01*
G75*
G02*
X99464500Y-63921500I0J-150000D01*
G01*
X99464500Y-64221500D01*
G75*
G02*
X99314500Y-64371500I-150000J0D01*
G01*
X97564500Y-64371500D01*
G75*
G02*
X97414500Y-64221500I0J150000D01*
G01*
G37*
%TD.AperFunction*%
%TO.P,U2,8*%
%TA.AperFunction,SMDPad,CuDef*%
G36*
G01*
X88114500Y-64221500D02*
X88114500Y-63921500D01*
G75*
G02*
X88264500Y-63771500I150000J0D01*
G01*
X90014500Y-63771500D01*
G75*
G02*
X90164500Y-63921500I0J-150000D01*
G01*
X90164500Y-64221500D01*
G75*
G02*
X90014500Y-64371500I-150000J0D01*
G01*
X88264500Y-64371500D01*
G75*
G02*
X88114500Y-64221500I0J150000D01*
G01*
G37*
%TD.AperFunction*%
%TO.P,U2,7*%
%TA.AperFunction,SMDPad,CuDef*%
G36*
G01*
X88114500Y-62951500D02*
X88114500Y-62651500D01*
G75*
G02*
X88264500Y-62501500I150000J0D01*
G01*
X90014500Y-62501500D01*
G75*
G02*
X90164500Y-62651500I0J-150000D01*
G01*
X90164500Y-62951500D01*
G75*
G02*
X90014500Y-63101500I-150000J0D01*
G01*
X88264500Y-63101500D01*
G75*
G02*
X88114500Y-62951500I0J150000D01*
G01*
G37*
%TD.AperFunction*%
%TO.P,U2,6*%
%TA.AperFunction,SMDPad,CuDef*%
G36*
G01*
X88114500Y-61681500D02*
X88114500Y-61381500D01*
G75*
G02*
X88264500Y-61231500I150000J0D01*
G01*
X90014500Y-61231500D01*
G75*
G02*
X90164500Y-61381500I0J-150000D01*
G01*
X90164500Y-61681500D01*
G75*
G02*
X90014500Y-61831500I-150000J0D01*
G01*
X88264500Y-61831500D01*
G75*
G02*
X88114500Y-61681500I0J150000D01*
G01*
G37*
%TD.AperFunction*%
%TO.P,U2,5*%
%TA.AperFunction,SMDPad,CuDef*%
G36*
G01*
X88114500Y-60411500D02*
X88114500Y-60111500D01*
G75*
G02*
X88264500Y-59961500I150000J0D01*
G01*
X90014500Y-59961500D01*
G75*
G02*
X90164500Y-60111500I0J-150000D01*
G01*
X90164500Y-60411500D01*
G75*
G02*
X90014500Y-60561500I-150000J0D01*
G01*
X88264500Y-60561500D01*
G75*
G02*
X88114500Y-60411500I0J150000D01*
G01*
G37*
%TD.AperFunction*%
%TO.P,U2,4*%
%TO.N,Net-(U2-Pad4)*%
%TA.AperFunction,SMDPad,CuDef*%
G36*
G01*
X88114500Y-59141500D02*
X88114500Y-58841500D01*
G75*
G02*
X88264500Y-58691500I150000J0D01*
G01*
X90014500Y-58691500D01*
G75*
G02*
X90164500Y-58841500I0J-150000D01*
G01*
X90164500Y-59141500D01*
G75*
G02*
X90014500Y-59291500I-150000J0D01*
G01*
X88264500Y-59291500D01*
G75*
G02*
X88114500Y-59141500I0J150000D01*
G01*
G37*
%TD.AperFunction*%
%TO.P,U2,3*%
%TO.N,Net-(U2-Pad3)*%
%TA.AperFunction,SMDPad,CuDef*%
G36*
G01*
X88114500Y-57871500D02*
X88114500Y-57571500D01*
G75*
G02*
X88264500Y-57421500I150000J0D01*
G01*
X90014500Y-57421500D01*
G75*
G02*
X90164500Y-57571500I0J-150000D01*
G01*
X90164500Y-57871500D01*
G75*
G02*
X90014500Y-58021500I-150000J0D01*
G01*
X88264500Y-58021500D01*
G75*
G02*
X88114500Y-57871500I0J150000D01*
G01*
G37*
%TD.AperFunction*%
%TO.P,U2,2*%
%TO.N,+3V3*%
%TA.AperFunction,SMDPad,CuDef*%
G36*
G01*
X88114500Y-56601500D02*
X88114500Y-56301500D01*
G75*
G02*
X88264500Y-56151500I150000J0D01*
G01*
X90014500Y-56151500D01*
G75*
G02*
X90164500Y-56301500I0J-150000D01*
G01*
X90164500Y-56601500D01*
G75*
G02*
X90014500Y-56751500I-150000J0D01*
G01*
X88264500Y-56751500D01*
G75*
G02*
X88114500Y-56601500I0J150000D01*
G01*
G37*
%TD.AperFunction*%
%TO.P,U2,1*%
%TO.N,Net-(U2-Pad1)*%
%TA.AperFunction,SMDPad,CuDef*%
G36*
G01*
X88114500Y-55331500D02*
X88114500Y-55031500D01*
G75*
G02*
X88264500Y-54881500I150000J0D01*
G01*
X90014500Y-54881500D01*
G75*
G02*
X90164500Y-55031500I0J-150000D01*
G01*
X90164500Y-55331500D01*
G75*
G02*
X90014500Y-55481500I-150000J0D01*
G01*
X88264500Y-55481500D01*
G75*
G02*
X88114500Y-55331500I0J150000D01*
G01*
G37*
%TD.AperFunction*%
%TD*%
%TO.P,U5,24*%
%TO.N,+3V3*%
%TA.AperFunction,SMDPad,CuDef*%
G36*
G01*
X92425800Y-48251400D02*
X92625800Y-48251400D01*
G75*
G02*
X92725800Y-48351400I0J-100000D01*
G01*
X92725800Y-49626400D01*
G75*
G02*
X92625800Y-49726400I-100000J0D01*
G01*
X92425800Y-49726400D01*
G75*
G02*
X92325800Y-49626400I0J100000D01*
G01*
X92325800Y-48351400D01*
G75*
G02*
X92425800Y-48251400I100000J0D01*
G01*
G37*
%TD.AperFunction*%
%TO.P,U5,23*%
%TO.N,SDA*%
%TA.AperFunction,SMDPad,CuDef*%
G36*
G01*
X91775800Y-48251400D02*
X91975800Y-48251400D01*
G75*
G02*
X92075800Y-48351400I0J-100000D01*
G01*
X92075800Y-49626400D01*
G75*
G02*
X91975800Y-49726400I-100000J0D01*
G01*
X91775800Y-49726400D01*
G75*
G02*
X91675800Y-49626400I0J100000D01*
G01*
X91675800Y-48351400D01*
G75*
G02*
X91775800Y-48251400I100000J0D01*
G01*
G37*
%TD.AperFunction*%
%TO.P,U5,22*%
%TO.N,SCL*%
%TA.AperFunction,SMDPad,CuDef*%
G36*
G01*
X91125800Y-48251400D02*
X91325800Y-48251400D01*
G75*
G02*
X91425800Y-48351400I0J-100000D01*
G01*
X91425800Y-49626400D01*
G75*
G02*
X91325800Y-49726400I-100000J0D01*
G01*
X91125800Y-49726400D01*
G75*
G02*
X91025800Y-49626400I0J100000D01*
G01*
X91025800Y-48351400D01*
G75*
G02*
X91125800Y-48251400I100000J0D01*
G01*
G37*
%TD.AperFunction*%
%TO.P,U5,21*%
%TO.N,GND*%
%TA.AperFunction,SMDPad,CuDef*%
G36*
G01*
X90475800Y-48251400D02*
X90675800Y-48251400D01*
G75*
G02*
X90775800Y-48351400I0J-100000D01*
G01*
X90775800Y-49626400D01*
G75*
G02*
X90675800Y-49726400I-100000J0D01*
G01*
X90475800Y-49726400D01*
G75*
G02*
X90375800Y-49626400I0J100000D01*
G01*
X90375800Y-48351400D01*
G75*
G02*
X90475800Y-48251400I100000J0D01*
G01*
G37*
%TD.AperFunction*%
%TO.P,U5,20*%
%TO.N,Net-(U5-Pad20)*%
%TA.AperFunction,SMDPad,CuDef*%
G36*
G01*
X89825800Y-48251400D02*
X90025800Y-48251400D01*
G75*
G02*
X90125800Y-48351400I0J-100000D01*
G01*
X90125800Y-49626400D01*
G75*
G02*
X90025800Y-49726400I-100000J0D01*
G01*
X89825800Y-49726400D01*
G75*
G02*
X89725800Y-49626400I0J100000D01*
G01*
X89725800Y-48351400D01*
G75*
G02*
X89825800Y-48251400I100000J0D01*
G01*
G37*
%TD.AperFunction*%
%TO.P,U5,19*%
%TO.N,Net-(U5-Pad19)*%
%TA.AperFunction,SMDPad,CuDef*%
G36*
G01*
X89175800Y-48251400D02*
X89375800Y-48251400D01*
G75*
G02*
X89475800Y-48351400I0J-100000D01*
G01*
X89475800Y-49626400D01*
G75*
G02*
X89375800Y-49726400I-100000J0D01*
G01*
X89175800Y-49726400D01*
G75*
G02*
X89075800Y-49626400I0J100000D01*
G01*
X89075800Y-48351400D01*
G75*
G02*
X89175800Y-48251400I100000J0D01*
G01*
G37*
%TD.AperFunction*%
%TO.P,U5,18*%
%TO.N,Net-(U5-Pad18)*%
%TA.AperFunction,SMDPad,CuDef*%
G36*
G01*
X88525800Y-48251400D02*
X88725800Y-48251400D01*
G75*
G02*
X88825800Y-48351400I0J-100000D01*
G01*
X88825800Y-49626400D01*
G75*
G02*
X88725800Y-49726400I-100000J0D01*
G01*
X88525800Y-49726400D01*
G75*
G02*
X88425800Y-49626400I0J100000D01*
G01*
X88425800Y-48351400D01*
G75*
G02*
X88525800Y-48251400I100000J0D01*
G01*
G37*
%TD.AperFunction*%
%TO.P,U5,17*%
%TO.N,Net-(U5-Pad17)*%
%TA.AperFunction,SMDPad,CuDef*%
G36*
G01*
X87875800Y-48251400D02*
X88075800Y-48251400D01*
G75*
G02*
X88175800Y-48351400I0J-100000D01*
G01*
X88175800Y-49626400D01*
G75*
G02*
X88075800Y-49726400I-100000J0D01*
G01*
X87875800Y-49726400D01*
G75*
G02*
X87775800Y-49626400I0J100000D01*
G01*
X87775800Y-48351400D01*
G75*
G02*
X87875800Y-48251400I100000J0D01*
G01*
G37*
%TD.AperFunction*%
%TO.P,U5,16*%
%TO.N,SCL_5*%
%TA.AperFunction,SMDPad,CuDef*%
G36*
G01*
X87225800Y-48251400D02*
X87425800Y-48251400D01*
G75*
G02*
X87525800Y-48351400I0J-100000D01*
G01*
X87525800Y-49626400D01*
G75*
G02*
X87425800Y-49726400I-100000J0D01*
G01*
X87225800Y-49726400D01*
G75*
G02*
X87125800Y-49626400I0J100000D01*
G01*
X87125800Y-48351400D01*
G75*
G02*
X87225800Y-48251400I100000J0D01*
G01*
G37*
%TD.AperFunction*%
%TO.P,U5,15*%
%TO.N,SDA_5*%
%TA.AperFunction,SMDPad,CuDef*%
G36*
G01*
X86575800Y-48251400D02*
X86775800Y-48251400D01*
G75*
G02*
X86875800Y-48351400I0J-100000D01*
G01*
X86875800Y-49626400D01*
G75*
G02*
X86775800Y-49726400I-100000J0D01*
G01*
X86575800Y-49726400D01*
G75*
G02*
X86475800Y-49626400I0J100000D01*
G01*
X86475800Y-48351400D01*
G75*
G02*
X86575800Y-48251400I100000J0D01*
G01*
G37*
%TD.AperFunction*%
%TO.P,U5,14*%
%TO.N,SCL_4*%
%TA.AperFunction,SMDPad,CuDef*%
G36*
G01*
X85925800Y-48251400D02*
X86125800Y-48251400D01*
G75*
G02*
X86225800Y-48351400I0J-100000D01*
G01*
X86225800Y-49626400D01*
G75*
G02*
X86125800Y-49726400I-100000J0D01*
G01*
X85925800Y-49726400D01*
G75*
G02*
X85825800Y-49626400I0J100000D01*
G01*
X85825800Y-48351400D01*
G75*
G02*
X85925800Y-48251400I100000J0D01*
G01*
G37*
%TD.AperFunction*%
%TO.P,U5,13*%
%TO.N,SDA_4*%
%TA.AperFunction,SMDPad,CuDef*%
G36*
G01*
X85275800Y-48251400D02*
X85475800Y-48251400D01*
G75*
G02*
X85575800Y-48351400I0J-100000D01*
G01*
X85575800Y-49626400D01*
G75*
G02*
X85475800Y-49726400I-100000J0D01*
G01*
X85275800Y-49726400D01*
G75*
G02*
X85175800Y-49626400I0J100000D01*
G01*
X85175800Y-48351400D01*
G75*
G02*
X85275800Y-48251400I100000J0D01*
G01*
G37*
%TD.AperFunction*%
%TO.P,U5,12*%
%TO.N,GND*%
%TA.AperFunction,SMDPad,CuDef*%
G36*
G01*
X85275800Y-42526400D02*
X85475800Y-42526400D01*
G75*
G02*
X85575800Y-42626400I0J-100000D01*
G01*
X85575800Y-43901400D01*
G75*
G02*
X85475800Y-44001400I-100000J0D01*
G01*
X85275800Y-44001400D01*
G75*
G02*
X85175800Y-43901400I0J100000D01*
G01*
X85175800Y-42626400D01*
G75*
G02*
X85275800Y-42526400I100000J0D01*
G01*
G37*
%TD.AperFunction*%
%TO.P,U5,11*%
%TO.N,SCL_0*%
%TA.AperFunction,SMDPad,CuDef*%
G36*
G01*
X85925800Y-42526400D02*
X86125800Y-42526400D01*
G75*
G02*
X86225800Y-42626400I0J-100000D01*
G01*
X86225800Y-43901400D01*
G75*
G02*
X86125800Y-44001400I-100000J0D01*
G01*
X85925800Y-44001400D01*
G75*
G02*
X85825800Y-43901400I0J100000D01*
G01*
X85825800Y-42626400D01*
G75*
G02*
X85925800Y-42526400I100000J0D01*
G01*
G37*
%TD.AperFunction*%
%TO.P,U5,10*%
%TO.N,SDA_0*%
%TA.AperFunction,SMDPad,CuDef*%
G36*
G01*
X86575800Y-42526400D02*
X86775800Y-42526400D01*
G75*
G02*
X86875800Y-42626400I0J-100000D01*
G01*
X86875800Y-43901400D01*
G75*
G02*
X86775800Y-44001400I-100000J0D01*
G01*
X86575800Y-44001400D01*
G75*
G02*
X86475800Y-43901400I0J100000D01*
G01*
X86475800Y-42626400D01*
G75*
G02*
X86575800Y-42526400I100000J0D01*
G01*
G37*
%TD.AperFunction*%
%TO.P,U5,9*%
%TO.N,SCL_3*%
%TA.AperFunction,SMDPad,CuDef*%
G36*
G01*
X87225800Y-42526400D02*
X87425800Y-42526400D01*
G75*
G02*
X87525800Y-42626400I0J-100000D01*
G01*
X87525800Y-43901400D01*
G75*
G02*
X87425800Y-44001400I-100000J0D01*
G01*
X87225800Y-44001400D01*
G75*
G02*
X87125800Y-43901400I0J100000D01*
G01*
X87125800Y-42626400D01*
G75*
G02*
X87225800Y-42526400I100000J0D01*
G01*
G37*
%TD.AperFunction*%
%TO.P,U5,8*%
%TO.N,SDA_3*%
%TA.AperFunction,SMDPad,CuDef*%
G36*
G01*
X87875800Y-42526400D02*
X88075800Y-42526400D01*
G75*
G02*
X88175800Y-42626400I0J-100000D01*
G01*
X88175800Y-43901400D01*
G75*
G02*
X88075800Y-44001400I-100000J0D01*
G01*
X87875800Y-44001400D01*
G75*
G02*
X87775800Y-43901400I0J100000D01*
G01*
X87775800Y-42626400D01*
G75*
G02*
X87875800Y-42526400I100000J0D01*
G01*
G37*
%TD.AperFunction*%
%TO.P,U5,7*%
%TO.N,SCL_2*%
%TA.AperFunction,SMDPad,CuDef*%
G36*
G01*
X88525800Y-42526400D02*
X88725800Y-42526400D01*
G75*
G02*
X88825800Y-42626400I0J-100000D01*
G01*
X88825800Y-43901400D01*
G75*
G02*
X88725800Y-44001400I-100000J0D01*
G01*
X88525800Y-44001400D01*
G75*
G02*
X88425800Y-43901400I0J100000D01*
G01*
X88425800Y-42626400D01*
G75*
G02*
X88525800Y-42526400I100000J0D01*
G01*
G37*
%TD.AperFunction*%
%TO.P,U5,6*%
%TO.N,SDA_2*%
%TA.AperFunction,SMDPad,CuDef*%
G36*
G01*
X89175800Y-42526400D02*
X89375800Y-42526400D01*
G75*
G02*
X89475800Y-42626400I0J-100000D01*
G01*
X89475800Y-43901400D01*
G75*
G02*
X89375800Y-44001400I-100000J0D01*
G01*
X89175800Y-44001400D01*
G75*
G02*
X89075800Y-43901400I0J100000D01*
G01*
X89075800Y-42626400D01*
G75*
G02*
X89175800Y-42526400I100000J0D01*
G01*
G37*
%TD.AperFunction*%
%TO.P,U5,5*%
%TO.N,SCL_1*%
%TA.AperFunction,SMDPad,CuDef*%
G36*
G01*
X89825800Y-42526400D02*
X90025800Y-42526400D01*
G75*
G02*
X90125800Y-42626400I0J-100000D01*
G01*
X90125800Y-43901400D01*
G75*
G02*
X90025800Y-44001400I-100000J0D01*
G01*
X89825800Y-44001400D01*
G75*
G02*
X89725800Y-43901400I0J100000D01*
G01*
X89725800Y-42626400D01*
G75*
G02*
X89825800Y-42526400I100000J0D01*
G01*
G37*
%TD.AperFunction*%
%TO.P,U5,4*%
%TO.N,SDA_1*%
%TA.AperFunction,SMDPad,CuDef*%
G36*
G01*
X90475800Y-42526400D02*
X90675800Y-42526400D01*
G75*
G02*
X90775800Y-42626400I0J-100000D01*
G01*
X90775800Y-43901400D01*
G75*
G02*
X90675800Y-44001400I-100000J0D01*
G01*
X90475800Y-44001400D01*
G75*
G02*
X90375800Y-43901400I0J100000D01*
G01*
X90375800Y-42626400D01*
G75*
G02*
X90475800Y-42526400I100000J0D01*
G01*
G37*
%TD.AperFunction*%
%TO.P,U5,3*%
%TO.N,Net-(U5-Pad3)*%
%TA.AperFunction,SMDPad,CuDef*%
G36*
G01*
X91125800Y-42526400D02*
X91325800Y-42526400D01*
G75*
G02*
X91425800Y-42626400I0J-100000D01*
G01*
X91425800Y-43901400D01*
G75*
G02*
X91325800Y-44001400I-100000J0D01*
G01*
X91125800Y-44001400D01*
G75*
G02*
X91025800Y-43901400I0J100000D01*
G01*
X91025800Y-42626400D01*
G75*
G02*
X91125800Y-42526400I100000J0D01*
G01*
G37*
%TD.AperFunction*%
%TO.P,U5,2*%
%TO.N,GND*%
%TA.AperFunction,SMDPad,CuDef*%
G36*
G01*
X91775800Y-42526400D02*
X91975800Y-42526400D01*
G75*
G02*
X92075800Y-42626400I0J-100000D01*
G01*
X92075800Y-43901400D01*
G75*
G02*
X91975800Y-44001400I-100000J0D01*
G01*
X91775800Y-44001400D01*
G75*
G02*
X91675800Y-43901400I0J100000D01*
G01*
X91675800Y-42626400D01*
G75*
G02*
X91775800Y-42526400I100000J0D01*
G01*
G37*
%TD.AperFunction*%
%TO.P,U5,1*%
%TA.AperFunction,SMDPad,CuDef*%
G36*
G01*
X92425800Y-42526400D02*
X92625800Y-42526400D01*
G75*
G02*
X92725800Y-42626400I0J-100000D01*
G01*
X92725800Y-43901400D01*
G75*
G02*
X92625800Y-44001400I-100000J0D01*
G01*
X92425800Y-44001400D01*
G75*
G02*
X92325800Y-43901400I0J100000D01*
G01*
X92325800Y-42626400D01*
G75*
G02*
X92425800Y-42526400I100000J0D01*
G01*
G37*
%TD.AperFunction*%
%TD*%
%TO.P,R17,2*%
%TO.N,Net-(Q4-Pad1)*%
%TA.AperFunction,SMDPad,CuDef*%
G36*
G01*
X121232500Y-35296002D02*
X121232500Y-34045998D01*
G75*
G02*
X121482498Y-33796000I249998J0D01*
G01*
X122107502Y-33796000D01*
G75*
G02*
X122357500Y-34045998I0J-249998D01*
G01*
X122357500Y-35296002D01*
G75*
G02*
X122107502Y-35546000I-249998J0D01*
G01*
X121482498Y-35546000D01*
G75*
G02*
X121232500Y-35296002I0J249998D01*
G01*
G37*
%TD.AperFunction*%
%TO.P,R17,1*%
%TO.N,G32*%
%TA.AperFunction,SMDPad,CuDef*%
G36*
G01*
X118307500Y-35296002D02*
X118307500Y-34045998D01*
G75*
G02*
X118557498Y-33796000I249998J0D01*
G01*
X119182502Y-33796000D01*
G75*
G02*
X119432500Y-34045998I0J-249998D01*
G01*
X119432500Y-35296002D01*
G75*
G02*
X119182502Y-35546000I-249998J0D01*
G01*
X118557498Y-35546000D01*
G75*
G02*
X118307500Y-35296002I0J249998D01*
G01*
G37*
%TD.AperFunction*%
%TD*%
%TO.P,R10,2*%
%TO.N,Net-(Q4-Pad3)*%
%TA.AperFunction,SMDPad,CuDef*%
G36*
G01*
X119430500Y-31632998D02*
X119430500Y-32883002D01*
G75*
G02*
X119180502Y-33133000I-249998J0D01*
G01*
X118555498Y-33133000D01*
G75*
G02*
X118305500Y-32883002I0J249998D01*
G01*
X118305500Y-31632998D01*
G75*
G02*
X118555498Y-31383000I249998J0D01*
G01*
X119180502Y-31383000D01*
G75*
G02*
X119430500Y-31632998I0J-249998D01*
G01*
G37*
%TD.AperFunction*%
%TO.P,R10,1*%
%TO.N,Net-(LED5-Pad1)*%
%TA.AperFunction,SMDPad,CuDef*%
G36*
G01*
X122355500Y-31632998D02*
X122355500Y-32883002D01*
G75*
G02*
X122105502Y-33133000I-249998J0D01*
G01*
X121480498Y-33133000D01*
G75*
G02*
X121230500Y-32883002I0J249998D01*
G01*
X121230500Y-31632998D01*
G75*
G02*
X121480498Y-31383000I249998J0D01*
G01*
X122105502Y-31383000D01*
G75*
G02*
X122355500Y-31632998I0J-249998D01*
G01*
G37*
%TD.AperFunction*%
%TD*%
D28*
%TO.P,U3,1*%
%TO.N,GND*%
X128943500Y-77357000D03*
%TO.P,U3,3*%
%TO.N,+5V*%
X128943500Y-72757000D03*
%TO.P,U3,2*%
%TO.N,+3V3*%
X128943500Y-75057000D03*
D29*
X122643500Y-75057000D03*
%TD*%
%TO.P,R20,1*%
%TO.N,Net-(Q5-Pad2)*%
%TA.AperFunction,SMDPad,CuDef*%
G36*
G01*
X116212000Y-81905002D02*
X116212000Y-80654998D01*
G75*
G02*
X116461998Y-80405000I249998J0D01*
G01*
X117087002Y-80405000D01*
G75*
G02*
X117337000Y-80654998I0J-249998D01*
G01*
X117337000Y-81905002D01*
G75*
G02*
X117087002Y-82155000I-249998J0D01*
G01*
X116461998Y-82155000D01*
G75*
G02*
X116212000Y-81905002I0J249998D01*
G01*
G37*
%TD.AperFunction*%
%TO.P,R20,2*%
%TO.N,Net-(Q6-Pad1)*%
%TA.AperFunction,SMDPad,CuDef*%
G36*
G01*
X119137000Y-81905002D02*
X119137000Y-80654998D01*
G75*
G02*
X119386998Y-80405000I249998J0D01*
G01*
X120012002Y-80405000D01*
G75*
G02*
X120262000Y-80654998I0J-249998D01*
G01*
X120262000Y-81905002D01*
G75*
G02*
X120012002Y-82155000I-249998J0D01*
G01*
X119386998Y-82155000D01*
G75*
G02*
X119137000Y-81905002I0J249998D01*
G01*
G37*
%TD.AperFunction*%
%TD*%
%TO.P,R19,2*%
%TO.N,Net-(Q5-Pad1)*%
%TA.AperFunction,SMDPad,CuDef*%
G36*
G01*
X110987000Y-80718498D02*
X110987000Y-81968502D01*
G75*
G02*
X110737002Y-82218500I-249998J0D01*
G01*
X110111998Y-82218500D01*
G75*
G02*
X109862000Y-81968502I0J249998D01*
G01*
X109862000Y-80718498D01*
G75*
G02*
X110111998Y-80468500I249998J0D01*
G01*
X110737002Y-80468500D01*
G75*
G02*
X110987000Y-80718498I0J-249998D01*
G01*
G37*
%TD.AperFunction*%
%TO.P,R19,1*%
%TO.N,Net-(Q6-Pad2)*%
%TA.AperFunction,SMDPad,CuDef*%
G36*
G01*
X113912000Y-80718498D02*
X113912000Y-81968502D01*
G75*
G02*
X113662002Y-82218500I-249998J0D01*
G01*
X113036998Y-82218500D01*
G75*
G02*
X112787000Y-81968502I0J249998D01*
G01*
X112787000Y-80718498D01*
G75*
G02*
X113036998Y-80468500I249998J0D01*
G01*
X113662002Y-80468500D01*
G75*
G02*
X113912000Y-80718498I0J-249998D01*
G01*
G37*
%TD.AperFunction*%
%TD*%
%TO.P,R18,2*%
%TO.N,GND*%
%TA.AperFunction,SMDPad,CuDef*%
G36*
G01*
X127359300Y-82280598D02*
X127359300Y-83530602D01*
G75*
G02*
X127109302Y-83780600I-249998J0D01*
G01*
X126484298Y-83780600D01*
G75*
G02*
X126234300Y-83530602I0J249998D01*
G01*
X126234300Y-82280598D01*
G75*
G02*
X126484298Y-82030600I249998J0D01*
G01*
X127109302Y-82030600D01*
G75*
G02*
X127359300Y-82280598I0J-249998D01*
G01*
G37*
%TD.AperFunction*%
%TO.P,R18,1*%
%TO.N,Net-(P1-PadS1)*%
%TA.AperFunction,SMDPad,CuDef*%
G36*
G01*
X130284300Y-82280598D02*
X130284300Y-83530602D01*
G75*
G02*
X130034302Y-83780600I-249998J0D01*
G01*
X129409298Y-83780600D01*
G75*
G02*
X129159300Y-83530602I0J249998D01*
G01*
X129159300Y-82280598D01*
G75*
G02*
X129409298Y-82030600I249998J0D01*
G01*
X130034302Y-82030600D01*
G75*
G02*
X130284300Y-82280598I0J-249998D01*
G01*
G37*
%TD.AperFunction*%
%TD*%
D30*
%TO.P,Q6,3*%
%TO.N,IO0*%
X117972800Y-78892400D03*
%TO.P,Q6,2*%
%TO.N,Net-(Q6-Pad2)*%
X117022800Y-76892400D03*
%TO.P,Q6,1*%
%TO.N,Net-(Q6-Pad1)*%
X118922800Y-76892400D03*
%TD*%
%TO.P,Q5,3*%
%TO.N,EN*%
X111490800Y-76876400D03*
%TO.P,Q5,2*%
%TO.N,Net-(Q5-Pad2)*%
X112440800Y-78876400D03*
%TO.P,Q5,1*%
%TO.N,Net-(Q5-Pad1)*%
X110540800Y-78876400D03*
%TD*%
D22*
%TO.P,Q4,3*%
%TO.N,Net-(Q4-Pad3)*%
X116840000Y-28651200D03*
%TO.P,Q4,2*%
%TO.N,GND*%
X118840000Y-27701200D03*
%TO.P,Q4,1*%
%TO.N,Net-(Q4-Pad1)*%
X118840000Y-29601200D03*
%TD*%
D31*
%TO.P,P1,A12*%
%TO.N,GND*%
X124185200Y-87401800D03*
%TO.P,P1,A9*%
%TO.N,+5V*%
X124185200Y-88201800D03*
%TO.P,P1,B1*%
%TO.N,GND*%
X124185200Y-87401800D03*
%TO.P,P1,B4*%
%TO.N,+5V*%
X124185200Y-88201800D03*
%TO.P,P1,B12*%
%TO.N,GND*%
X124185200Y-93801800D03*
%TO.P,P1,A1*%
X124185200Y-93801800D03*
%TO.P,P1,B9*%
%TO.N,+5V*%
X124185200Y-93001800D03*
%TO.P,P1,A4*%
X124185200Y-93001800D03*
D32*
%TO.P,P1,B5*%
%TO.N,Net-(P1-PadB5)*%
X124185200Y-88851800D03*
%TO.P,P1,B6*%
%TO.N,N/C*%
X124185200Y-89851800D03*
%TO.P,P1,A8*%
X124185200Y-89351800D03*
%TO.P,P1,A5*%
%TO.N,Net-(P1-PadA5)*%
X124185200Y-91851800D03*
%TO.P,P1,B8*%
%TO.N,N/C*%
X124185200Y-92351800D03*
%TO.P,P1,A7*%
%TO.N,Net-(P1-PadA7)*%
X124185200Y-90351800D03*
%TO.P,P1,A6*%
%TO.N,Net-(P1-PadA6)*%
X124185200Y-90851800D03*
%TO.P,P1,B7*%
%TO.N,N/C*%
X124185200Y-91351800D03*
D33*
%TO.P,P1,S1*%
%TO.N,Net-(P1-PadS1)*%
X128935200Y-86281800D03*
X128935200Y-94921800D03*
D34*
X124765200Y-86281800D03*
X124765200Y-94921800D03*
%TD*%
%TO.P,LED5,2*%
%TO.N,+5V*%
%TA.AperFunction,SMDPad,CuDef*%
G36*
G01*
X129118200Y-32832200D02*
X129118200Y-31582200D01*
G75*
G02*
X129368200Y-31332200I250000J0D01*
G01*
X130118200Y-31332200D01*
G75*
G02*
X130368200Y-31582200I0J-250000D01*
G01*
X130368200Y-32832200D01*
G75*
G02*
X130118200Y-33082200I-250000J0D01*
G01*
X129368200Y-33082200D01*
G75*
G02*
X129118200Y-32832200I0J250000D01*
G01*
G37*
%TD.AperFunction*%
%TO.P,LED5,1*%
%TO.N,Net-(LED5-Pad1)*%
%TA.AperFunction,SMDPad,CuDef*%
G36*
G01*
X126318200Y-32832200D02*
X126318200Y-31582200D01*
G75*
G02*
X126568200Y-31332200I250000J0D01*
G01*
X127318200Y-31332200D01*
G75*
G02*
X127568200Y-31582200I0J-250000D01*
G01*
X127568200Y-32832200D01*
G75*
G02*
X127318200Y-33082200I-250000J0D01*
G01*
X126568200Y-33082200D01*
G75*
G02*
X126318200Y-32832200I0J250000D01*
G01*
G37*
%TD.AperFunction*%
%TD*%
%TO.P,C6,2*%
%TO.N,GND*%
%TA.AperFunction,SMDPad,CuDef*%
G36*
G01*
X115732799Y-94513500D02*
X117032801Y-94513500D01*
G75*
G02*
X117282800Y-94763499I0J-249999D01*
G01*
X117282800Y-95413501D01*
G75*
G02*
X117032801Y-95663500I-249999J0D01*
G01*
X115732799Y-95663500D01*
G75*
G02*
X115482800Y-95413501I0J249999D01*
G01*
X115482800Y-94763499D01*
G75*
G02*
X115732799Y-94513500I249999J0D01*
G01*
G37*
%TD.AperFunction*%
%TO.P,C6,1*%
%TO.N,+5V*%
%TA.AperFunction,SMDPad,CuDef*%
G36*
G01*
X115732799Y-91563500D02*
X117032801Y-91563500D01*
G75*
G02*
X117282800Y-91813499I0J-249999D01*
G01*
X117282800Y-92463501D01*
G75*
G02*
X117032801Y-92713500I-249999J0D01*
G01*
X115732799Y-92713500D01*
G75*
G02*
X115482800Y-92463501I0J249999D01*
G01*
X115482800Y-91813499D01*
G75*
G02*
X115732799Y-91563500I249999J0D01*
G01*
G37*
%TD.AperFunction*%
%TD*%
%TO.P,C5,2*%
%TO.N,GND*%
%TA.AperFunction,SMDPad,CuDef*%
G36*
G01*
X113065799Y-94513500D02*
X114365801Y-94513500D01*
G75*
G02*
X114615800Y-94763499I0J-249999D01*
G01*
X114615800Y-95413501D01*
G75*
G02*
X114365801Y-95663500I-249999J0D01*
G01*
X113065799Y-95663500D01*
G75*
G02*
X112815800Y-95413501I0J249999D01*
G01*
X112815800Y-94763499D01*
G75*
G02*
X113065799Y-94513500I249999J0D01*
G01*
G37*
%TD.AperFunction*%
%TO.P,C5,1*%
%TO.N,Net-(C5-Pad1)*%
%TA.AperFunction,SMDPad,CuDef*%
G36*
G01*
X113065799Y-91563500D02*
X114365801Y-91563500D01*
G75*
G02*
X114615800Y-91813499I0J-249999D01*
G01*
X114615800Y-92463501D01*
G75*
G02*
X114365801Y-92713500I-249999J0D01*
G01*
X113065799Y-92713500D01*
G75*
G02*
X112815800Y-92463501I0J249999D01*
G01*
X112815800Y-91813499D01*
G75*
G02*
X113065799Y-91563500I249999J0D01*
G01*
G37*
%TD.AperFunction*%
%TD*%
%TO.P,C4,2*%
%TO.N,GND*%
%TA.AperFunction,SMDPad,CuDef*%
G36*
G01*
X118348999Y-94513500D02*
X119649001Y-94513500D01*
G75*
G02*
X119899000Y-94763499I0J-249999D01*
G01*
X119899000Y-95413501D01*
G75*
G02*
X119649001Y-95663500I-249999J0D01*
G01*
X118348999Y-95663500D01*
G75*
G02*
X118099000Y-95413501I0J249999D01*
G01*
X118099000Y-94763499D01*
G75*
G02*
X118348999Y-94513500I249999J0D01*
G01*
G37*
%TD.AperFunction*%
%TO.P,C4,1*%
%TO.N,+5V*%
%TA.AperFunction,SMDPad,CuDef*%
G36*
G01*
X118348999Y-91563500D02*
X119649001Y-91563500D01*
G75*
G02*
X119899000Y-91813499I0J-249999D01*
G01*
X119899000Y-92463501D01*
G75*
G02*
X119649001Y-92713500I-249999J0D01*
G01*
X118348999Y-92713500D01*
G75*
G02*
X118099000Y-92463501I0J249999D01*
G01*
X118099000Y-91813499D01*
G75*
G02*
X118348999Y-91563500I249999J0D01*
G01*
G37*
%TD.AperFunction*%
%TD*%
%TO.P,C3,2*%
%TO.N,GND*%
%TA.AperFunction,SMDPad,CuDef*%
G36*
G01*
X119445200Y-42923699D02*
X119445200Y-44223701D01*
G75*
G02*
X119195201Y-44473700I-249999J0D01*
G01*
X118545199Y-44473700D01*
G75*
G02*
X118295200Y-44223701I0J249999D01*
G01*
X118295200Y-42923699D01*
G75*
G02*
X118545199Y-42673700I249999J0D01*
G01*
X119195201Y-42673700D01*
G75*
G02*
X119445200Y-42923699I0J-249999D01*
G01*
G37*
%TD.AperFunction*%
%TO.P,C3,1*%
%TO.N,+3V3*%
%TA.AperFunction,SMDPad,CuDef*%
G36*
G01*
X122395200Y-42923699D02*
X122395200Y-44223701D01*
G75*
G02*
X122145201Y-44473700I-249999J0D01*
G01*
X121495199Y-44473700D01*
G75*
G02*
X121245200Y-44223701I0J249999D01*
G01*
X121245200Y-42923699D01*
G75*
G02*
X121495199Y-42673700I249999J0D01*
G01*
X122145201Y-42673700D01*
G75*
G02*
X122395200Y-42923699I0J-249999D01*
G01*
G37*
%TD.AperFunction*%
%TD*%
%TO.P,C2,2*%
%TO.N,GND*%
%TA.AperFunction,SMDPad,CuDef*%
G36*
G01*
X127384500Y-79613999D02*
X127384500Y-80914001D01*
G75*
G02*
X127134501Y-81164000I-249999J0D01*
G01*
X126484499Y-81164000D01*
G75*
G02*
X126234500Y-80914001I0J249999D01*
G01*
X126234500Y-79613999D01*
G75*
G02*
X126484499Y-79364000I249999J0D01*
G01*
X127134501Y-79364000D01*
G75*
G02*
X127384500Y-79613999I0J-249999D01*
G01*
G37*
%TD.AperFunction*%
%TO.P,C2,1*%
%TO.N,+5V*%
%TA.AperFunction,SMDPad,CuDef*%
G36*
G01*
X130334500Y-79613999D02*
X130334500Y-80914001D01*
G75*
G02*
X130084501Y-81164000I-249999J0D01*
G01*
X129434499Y-81164000D01*
G75*
G02*
X129184500Y-80914001I0J249999D01*
G01*
X129184500Y-79613999D01*
G75*
G02*
X129434499Y-79364000I249999J0D01*
G01*
X130084501Y-79364000D01*
G75*
G02*
X130334500Y-79613999I0J-249999D01*
G01*
G37*
%TD.AperFunction*%
%TD*%
%TO.P,R12,2*%
%TO.N,Net-(LED6-Pad2)*%
%TA.AperFunction,SMDPad,CuDef*%
G36*
G01*
X121230500Y-37772502D02*
X121230500Y-36522498D01*
G75*
G02*
X121480498Y-36272500I249998J0D01*
G01*
X122105502Y-36272500D01*
G75*
G02*
X122355500Y-36522498I0J-249998D01*
G01*
X122355500Y-37772502D01*
G75*
G02*
X122105502Y-38022500I-249998J0D01*
G01*
X121480498Y-38022500D01*
G75*
G02*
X121230500Y-37772502I0J249998D01*
G01*
G37*
%TD.AperFunction*%
%TO.P,R12,1*%
%TO.N,+3V3*%
%TA.AperFunction,SMDPad,CuDef*%
G36*
G01*
X118305500Y-37772502D02*
X118305500Y-36522498D01*
G75*
G02*
X118555498Y-36272500I249998J0D01*
G01*
X119180502Y-36272500D01*
G75*
G02*
X119430500Y-36522498I0J-249998D01*
G01*
X119430500Y-37772502D01*
G75*
G02*
X119180502Y-38022500I-249998J0D01*
G01*
X118555498Y-38022500D01*
G75*
G02*
X118305500Y-37772502I0J249998D01*
G01*
G37*
%TD.AperFunction*%
%TD*%
D20*
%TO.P,K1,1*%
%TO.N,Net-(K1-Pad1)*%
X92600000Y-110160000D03*
D21*
%TO.P,K1,2*%
%TO.N,220L*%
X92600000Y-102540000D03*
%TO.P,K1,3*%
%TO.N,Net-(C7-Pad1)*%
X92600000Y-92380000D03*
%TO.P,K1,4*%
%TO.N,Net-(C7-Pad2)*%
X92600000Y-89840000D03*
%TD*%
%TO.P,LED7,1*%
%TO.N,TX*%
%TA.AperFunction,SMDPad,CuDef*%
G36*
G01*
X130392000Y-36522500D02*
X130392000Y-37772500D01*
G75*
G02*
X130142000Y-38022500I-250000J0D01*
G01*
X129392000Y-38022500D01*
G75*
G02*
X129142000Y-37772500I0J250000D01*
G01*
X129142000Y-36522500D01*
G75*
G02*
X129392000Y-36272500I250000J0D01*
G01*
X130142000Y-36272500D01*
G75*
G02*
X130392000Y-36522500I0J-250000D01*
G01*
G37*
%TD.AperFunction*%
%TO.P,LED7,2*%
%TO.N,Net-(LED6-Pad2)*%
%TA.AperFunction,SMDPad,CuDef*%
G36*
G01*
X127592000Y-36522500D02*
X127592000Y-37772500D01*
G75*
G02*
X127342000Y-38022500I-250000J0D01*
G01*
X126592000Y-38022500D01*
G75*
G02*
X126342000Y-37772500I0J250000D01*
G01*
X126342000Y-36522500D01*
G75*
G02*
X126592000Y-36272500I250000J0D01*
G01*
X127342000Y-36272500D01*
G75*
G02*
X127592000Y-36522500I0J-250000D01*
G01*
G37*
%TD.AperFunction*%
%TD*%
%TO.P,LED6,2*%
%TO.N,Net-(LED6-Pad2)*%
%TA.AperFunction,SMDPad,CuDef*%
G36*
G01*
X127592000Y-33982500D02*
X127592000Y-35232500D01*
G75*
G02*
X127342000Y-35482500I-250000J0D01*
G01*
X126592000Y-35482500D01*
G75*
G02*
X126342000Y-35232500I0J250000D01*
G01*
X126342000Y-33982500D01*
G75*
G02*
X126592000Y-33732500I250000J0D01*
G01*
X127342000Y-33732500D01*
G75*
G02*
X127592000Y-33982500I0J-250000D01*
G01*
G37*
%TD.AperFunction*%
%TO.P,LED6,1*%
%TO.N,RX*%
%TA.AperFunction,SMDPad,CuDef*%
G36*
G01*
X130392000Y-33982500D02*
X130392000Y-35232500D01*
G75*
G02*
X130142000Y-35482500I-250000J0D01*
G01*
X129392000Y-35482500D01*
G75*
G02*
X129142000Y-35232500I0J250000D01*
G01*
X129142000Y-33982500D01*
G75*
G02*
X129392000Y-33732500I250000J0D01*
G01*
X130142000Y-33732500D01*
G75*
G02*
X130392000Y-33982500I0J-250000D01*
G01*
G37*
%TD.AperFunction*%
%TD*%
%TO.P,R11,2*%
%TO.N,EN*%
%TA.AperFunction,SMDPad,CuDef*%
G36*
G01*
X122656300Y-82280597D02*
X122656300Y-83530603D01*
G75*
G02*
X122406303Y-83780600I-249997J0D01*
G01*
X121781297Y-83780600D01*
G75*
G02*
X121531300Y-83530603I0J249997D01*
G01*
X121531300Y-82280597D01*
G75*
G02*
X121781297Y-82030600I249997J0D01*
G01*
X122406303Y-82030600D01*
G75*
G02*
X122656300Y-82280597I0J-249997D01*
G01*
G37*
%TD.AperFunction*%
%TO.P,R11,1*%
%TO.N,+3V3*%
%TA.AperFunction,SMDPad,CuDef*%
G36*
G01*
X125581300Y-82280597D02*
X125581300Y-83530603D01*
G75*
G02*
X125331303Y-83780600I-249997J0D01*
G01*
X124706297Y-83780600D01*
G75*
G02*
X124456300Y-83530603I0J249997D01*
G01*
X124456300Y-82280597D01*
G75*
G02*
X124706297Y-82030600I249997J0D01*
G01*
X125331303Y-82030600D01*
G75*
G02*
X125581300Y-82280597I0J-249997D01*
G01*
G37*
%TD.AperFunction*%
%TD*%
D35*
%TO.P,ALED1,1*%
%TO.N,+5V*%
X58051500Y-30252500D03*
%TO.P,ALED1,2*%
%TO.N,Net-(ALED1-Pad2)*%
X54851500Y-30252500D03*
%TO.P,ALED1,4*%
%TO.N,Net-(ALED1-Pad4)*%
X58051500Y-35152500D03*
%TO.P,ALED1,3*%
%TO.N,GND*%
X54851500Y-35152500D03*
%TD*%
%TO.P,R5,2*%
%TO.N,Net-(ALED1-Pad4)*%
%TA.AperFunction,SMDPad,CuDef*%
G36*
G01*
X55576900Y-37157497D02*
X55576900Y-38407503D01*
G75*
G02*
X55326903Y-38657500I-249997J0D01*
G01*
X54701897Y-38657500D01*
G75*
G02*
X54451900Y-38407503I0J249997D01*
G01*
X54451900Y-37157497D01*
G75*
G02*
X54701897Y-36907500I249997J0D01*
G01*
X55326903Y-36907500D01*
G75*
G02*
X55576900Y-37157497I0J-249997D01*
G01*
G37*
%TD.AperFunction*%
%TO.P,R5,1*%
%TO.N,G23*%
%TA.AperFunction,SMDPad,CuDef*%
G36*
G01*
X58501900Y-37157497D02*
X58501900Y-38407503D01*
G75*
G02*
X58251903Y-38657500I-249997J0D01*
G01*
X57626897Y-38657500D01*
G75*
G02*
X57376900Y-38407503I0J249997D01*
G01*
X57376900Y-37157497D01*
G75*
G02*
X57626897Y-36907500I249997J0D01*
G01*
X58251903Y-36907500D01*
G75*
G02*
X58501900Y-37157497I0J-249997D01*
G01*
G37*
%TD.AperFunction*%
%TD*%
%TO.P,R1,2*%
%TO.N,Net-(Q1-Pad1)*%
%TA.AperFunction,SMDPad,CuDef*%
G36*
G01*
X103874997Y-87900000D02*
X105125003Y-87900000D01*
G75*
G02*
X105375000Y-88149997I0J-249997D01*
G01*
X105375000Y-88775003D01*
G75*
G02*
X105125003Y-89025000I-249997J0D01*
G01*
X103874997Y-89025000D01*
G75*
G02*
X103625000Y-88775003I0J249997D01*
G01*
X103625000Y-88149997D01*
G75*
G02*
X103874997Y-87900000I249997J0D01*
G01*
G37*
%TD.AperFunction*%
%TO.P,R1,1*%
%TO.N,G5*%
%TA.AperFunction,SMDPad,CuDef*%
G36*
G01*
X103874997Y-84975000D02*
X105125003Y-84975000D01*
G75*
G02*
X105375000Y-85224997I0J-249997D01*
G01*
X105375000Y-85850003D01*
G75*
G02*
X105125003Y-86100000I-249997J0D01*
G01*
X103874997Y-86100000D01*
G75*
G02*
X103625000Y-85850003I0J249997D01*
G01*
X103625000Y-85224997D01*
G75*
G02*
X103874997Y-84975000I249997J0D01*
G01*
G37*
%TD.AperFunction*%
%TD*%
%TO.P,R2,2*%
%TO.N,Net-(C7-Pad1)*%
%TA.AperFunction,SMDPad,CuDef*%
G36*
G01*
X98374997Y-87900000D02*
X99625003Y-87900000D01*
G75*
G02*
X99875000Y-88149997I0J-249997D01*
G01*
X99875000Y-88775003D01*
G75*
G02*
X99625003Y-89025000I-249997J0D01*
G01*
X98374997Y-89025000D01*
G75*
G02*
X98125000Y-88775003I0J249997D01*
G01*
X98125000Y-88149997D01*
G75*
G02*
X98374997Y-87900000I249997J0D01*
G01*
G37*
%TD.AperFunction*%
%TO.P,R2,1*%
%TO.N,Net-(D1-Pad1)*%
%TA.AperFunction,SMDPad,CuDef*%
G36*
G01*
X98374997Y-84975000D02*
X99625003Y-84975000D01*
G75*
G02*
X99875000Y-85224997I0J-249997D01*
G01*
X99875000Y-85850003D01*
G75*
G02*
X99625003Y-86100000I-249997J0D01*
G01*
X98374997Y-86100000D01*
G75*
G02*
X98125000Y-85850003I0J249997D01*
G01*
X98125000Y-85224997D01*
G75*
G02*
X98374997Y-84975000I249997J0D01*
G01*
G37*
%TD.AperFunction*%
%TD*%
%TO.P,R8,2*%
%TO.N,SDA*%
%TA.AperFunction,SMDPad,CuDef*%
G36*
G01*
X96277000Y-67300003D02*
X96277000Y-66049997D01*
G75*
G02*
X96526997Y-65800000I249997J0D01*
G01*
X97152003Y-65800000D01*
G75*
G02*
X97402000Y-66049997I0J-249997D01*
G01*
X97402000Y-67300003D01*
G75*
G02*
X97152003Y-67550000I-249997J0D01*
G01*
X96526997Y-67550000D01*
G75*
G02*
X96277000Y-67300003I0J249997D01*
G01*
G37*
%TD.AperFunction*%
%TO.P,R8,1*%
%TO.N,+3V3*%
%TA.AperFunction,SMDPad,CuDef*%
G36*
G01*
X93352000Y-67300003D02*
X93352000Y-66049997D01*
G75*
G02*
X93601997Y-65800000I249997J0D01*
G01*
X94227003Y-65800000D01*
G75*
G02*
X94477000Y-66049997I0J-249997D01*
G01*
X94477000Y-67300003D01*
G75*
G02*
X94227003Y-67550000I-249997J0D01*
G01*
X93601997Y-67550000D01*
G75*
G02*
X93352000Y-67300003I0J249997D01*
G01*
G37*
%TD.AperFunction*%
%TD*%
%TO.P,C1,2*%
%TO.N,GND*%
%TA.AperFunction,SMDPad,CuDef*%
G36*
G01*
X55602300Y-27150299D02*
X55602300Y-28450301D01*
G75*
G02*
X55352301Y-28700300I-249999J0D01*
G01*
X54702299Y-28700300D01*
G75*
G02*
X54452300Y-28450301I0J249999D01*
G01*
X54452300Y-27150299D01*
G75*
G02*
X54702299Y-26900300I249999J0D01*
G01*
X55352301Y-26900300D01*
G75*
G02*
X55602300Y-27150299I0J-249999D01*
G01*
G37*
%TD.AperFunction*%
%TO.P,C1,1*%
%TO.N,+5V*%
%TA.AperFunction,SMDPad,CuDef*%
G36*
G01*
X58552300Y-27150299D02*
X58552300Y-28450301D01*
G75*
G02*
X58302301Y-28700300I-249999J0D01*
G01*
X57652299Y-28700300D01*
G75*
G02*
X57402300Y-28450301I0J249999D01*
G01*
X57402300Y-27150299D01*
G75*
G02*
X57652299Y-26900300I249999J0D01*
G01*
X58302301Y-26900300D01*
G75*
G02*
X58552300Y-27150299I0J-249999D01*
G01*
G37*
%TD.AperFunction*%
%TD*%
%TO.P,LED4,2*%
%TO.N,Net-(LED4-Pad2)*%
%TA.AperFunction,SMDPad,CuDef*%
G36*
G01*
X127592000Y-39062500D02*
X127592000Y-40312500D01*
G75*
G02*
X127342000Y-40562500I-250000J0D01*
G01*
X126592000Y-40562500D01*
G75*
G02*
X126342000Y-40312500I0J250000D01*
G01*
X126342000Y-39062500D01*
G75*
G02*
X126592000Y-38812500I250000J0D01*
G01*
X127342000Y-38812500D01*
G75*
G02*
X127592000Y-39062500I0J-250000D01*
G01*
G37*
%TD.AperFunction*%
%TO.P,LED4,1*%
%TO.N,GND*%
%TA.AperFunction,SMDPad,CuDef*%
G36*
G01*
X130392000Y-39062500D02*
X130392000Y-40312500D01*
G75*
G02*
X130142000Y-40562500I-250000J0D01*
G01*
X129392000Y-40562500D01*
G75*
G02*
X129142000Y-40312500I0J250000D01*
G01*
X129142000Y-39062500D01*
G75*
G02*
X129392000Y-38812500I250000J0D01*
G01*
X130142000Y-38812500D01*
G75*
G02*
X130392000Y-39062500I0J-250000D01*
G01*
G37*
%TD.AperFunction*%
%TD*%
%TO.P,LED1,2*%
%TO.N,+5V*%
%TA.AperFunction,SMDPad,CuDef*%
G36*
G01*
X107875000Y-86225000D02*
X106625000Y-86225000D01*
G75*
G02*
X106375000Y-85975000I0J250000D01*
G01*
X106375000Y-85225000D01*
G75*
G02*
X106625000Y-84975000I250000J0D01*
G01*
X107875000Y-84975000D01*
G75*
G02*
X108125000Y-85225000I0J-250000D01*
G01*
X108125000Y-85975000D01*
G75*
G02*
X107875000Y-86225000I-250000J0D01*
G01*
G37*
%TD.AperFunction*%
%TO.P,LED1,1*%
%TO.N,Net-(LED1-Pad1)*%
%TA.AperFunction,SMDPad,CuDef*%
G36*
G01*
X107875000Y-89025000D02*
X106625000Y-89025000D01*
G75*
G02*
X106375000Y-88775000I0J250000D01*
G01*
X106375000Y-88025000D01*
G75*
G02*
X106625000Y-87775000I250000J0D01*
G01*
X107875000Y-87775000D01*
G75*
G02*
X108125000Y-88025000I0J-250000D01*
G01*
X108125000Y-88775000D01*
G75*
G02*
X107875000Y-89025000I-250000J0D01*
G01*
G37*
%TD.AperFunction*%
%TD*%
D36*
%TO.P,H2,1*%
%TO.N,N/C*%
X45000000Y-27000000D03*
D37*
X47400000Y-27000000D03*
X46697056Y-28697056D03*
X45000000Y-29400000D03*
X43302944Y-28697056D03*
X42600000Y-27000000D03*
X43302944Y-25302944D03*
X45000000Y-24600000D03*
X46697056Y-25302944D03*
%TD*%
D36*
%TO.P,H1,1*%
%TO.N,N/C*%
X127000000Y-27000000D03*
D37*
X129400000Y-27000000D03*
X128697056Y-28697056D03*
X127000000Y-29400000D03*
X125302944Y-28697056D03*
X124600000Y-27000000D03*
X125302944Y-25302944D03*
X127000000Y-24600000D03*
X128697056Y-25302944D03*
%TD*%
D36*
%TO.P,H4,1*%
%TO.N,N/C*%
X127000000Y-109000000D03*
D37*
X129400000Y-109000000D03*
X128697056Y-110697056D03*
X127000000Y-111400000D03*
X125302944Y-110697056D03*
X124600000Y-109000000D03*
X125302944Y-107302944D03*
X127000000Y-106600000D03*
X128697056Y-107302944D03*
%TD*%
D36*
%TO.P,H3,1*%
%TO.N,N/C*%
X45000000Y-109000000D03*
D37*
X47400000Y-109000000D03*
X46697056Y-110697056D03*
X45000000Y-111400000D03*
X43302944Y-110697056D03*
X42600000Y-109000000D03*
X43302944Y-107302944D03*
X45000000Y-106600000D03*
X46697056Y-107302944D03*
%TD*%
D38*
%TO.P,U1,38*%
%TO.N,GND*%
X123070000Y-64745000D03*
%TO.P,U1,37*%
%TO.N,G23*%
X121800000Y-64745000D03*
%TO.P,U1,36*%
%TO.N,SCL*%
X120530000Y-64745000D03*
%TO.P,U1,35*%
%TO.N,TX*%
X119260000Y-64745000D03*
%TO.P,U1,34*%
%TO.N,RX*%
X117990000Y-64745000D03*
%TO.P,U1,33*%
%TO.N,SDA*%
X116720000Y-64745000D03*
%TO.P,U1,32*%
%TO.N,Net-(U1-Pad32)*%
X115450000Y-64745000D03*
%TO.P,U1,31*%
%TO.N,G19*%
X114180000Y-64745000D03*
%TO.P,U1,30*%
%TO.N,G18*%
X112910000Y-64745000D03*
%TO.P,U1,29*%
%TO.N,G5*%
X111640000Y-64745000D03*
%TO.P,U1,28*%
%TO.N,G17*%
X110370000Y-64745000D03*
%TO.P,U1,27*%
%TO.N,G16*%
X109100000Y-64745000D03*
%TO.P,U1,26*%
%TO.N,G4*%
X107830000Y-64745000D03*
%TO.P,U1,25*%
%TO.N,IO0*%
X106560000Y-64745000D03*
D39*
%TO.P,U1,24*%
%TO.N,Net-(U1-Pad24)*%
X105560000Y-61960000D03*
%TO.P,U1,23*%
%TO.N,G2*%
X105560000Y-60690000D03*
%TO.P,U1,22*%
%TO.N,Net-(U1-Pad22)*%
X105560000Y-59420000D03*
%TO.P,U1,21*%
%TO.N,Net-(U1-Pad21)*%
X105560000Y-58150000D03*
%TO.P,U1,20*%
%TO.N,Net-(U1-Pad20)*%
X105560000Y-56880000D03*
%TO.P,U1,19*%
%TO.N,Net-(U1-Pad19)*%
X105560000Y-55610000D03*
%TO.P,U1,18*%
%TO.N,Net-(U1-Pad18)*%
X105560000Y-54340000D03*
%TO.P,U1,17*%
%TO.N,Net-(U1-Pad17)*%
X105560000Y-53070000D03*
%TO.P,U1,16*%
%TO.N,G13*%
X105560000Y-51800000D03*
%TO.P,U1,15*%
%TO.N,GND*%
X105560000Y-50530000D03*
D38*
%TO.P,U1,14*%
%TO.N,Net-(U1-Pad14)*%
X106560000Y-47745000D03*
%TO.P,U1,13*%
%TO.N,Net-(U1-Pad13)*%
X107830000Y-47745000D03*
%TO.P,U1,12*%
%TO.N,G27*%
X109100000Y-47745000D03*
%TO.P,U1,11*%
%TO.N,G26*%
X110370000Y-47745000D03*
%TO.P,U1,10*%
%TO.N,G25*%
X111640000Y-47745000D03*
%TO.P,U1,9*%
%TO.N,G33*%
X112910000Y-47745000D03*
%TO.P,U1,8*%
%TO.N,G32*%
X114180000Y-47745000D03*
%TO.P,U1,7*%
%TO.N,Net-(U1-Pad7)*%
X115450000Y-47745000D03*
%TO.P,U1,6*%
%TO.N,Net-(U1-Pad6)*%
X116720000Y-47745000D03*
%TO.P,U1,5*%
%TO.N,Net-(U1-Pad5)*%
X117990000Y-47745000D03*
%TO.P,U1,4*%
%TO.N,Net-(U1-Pad4)*%
X119260000Y-47745000D03*
%TO.P,U1,3*%
%TO.N,EN*%
X120530000Y-47745000D03*
%TO.P,U1,2*%
%TO.N,+3V3*%
X121800000Y-47745000D03*
%TO.P,U1,1*%
%TO.N,GND*%
X123070000Y-47745000D03*
D40*
%TO.P,U1,39*%
X115570000Y-55245000D03*
%TD*%
D22*
%TO.P,Q1,3*%
%TO.N,Net-(C7-Pad2)*%
X102500000Y-93000000D03*
%TO.P,Q1,2*%
%TO.N,GND*%
X104500000Y-92050000D03*
%TO.P,Q1,1*%
%TO.N,Net-(Q1-Pad1)*%
X104500000Y-93950000D03*
%TD*%
%TO.P,D1,2*%
%TO.N,+5V*%
%TA.AperFunction,SMDPad,CuDef*%
G36*
G01*
X92425000Y-83424999D02*
X92425000Y-85575001D01*
G75*
G02*
X92175001Y-85825000I-249999J0D01*
G01*
X91324999Y-85825000D01*
G75*
G02*
X91075000Y-85575001I0J249999D01*
G01*
X91075000Y-83424999D01*
G75*
G02*
X91324999Y-83175000I249999J0D01*
G01*
X92175001Y-83175000D01*
G75*
G02*
X92425000Y-83424999I0J-249999D01*
G01*
G37*
%TD.AperFunction*%
%TO.P,D1,1*%
%TO.N,Net-(D1-Pad1)*%
%TA.AperFunction,SMDPad,CuDef*%
G36*
G01*
X96925000Y-83424999D02*
X96925000Y-85575001D01*
G75*
G02*
X96675001Y-85825000I-249999J0D01*
G01*
X95824999Y-85825000D01*
G75*
G02*
X95575000Y-85575001I0J249999D01*
G01*
X95575000Y-83424999D01*
G75*
G02*
X95824999Y-83175000I249999J0D01*
G01*
X96675001Y-83175000D01*
G75*
G02*
X96925000Y-83424999I0J-249999D01*
G01*
G37*
%TD.AperFunction*%
%TD*%
%TO.P,D4,2*%
%TO.N,Net-(BT1-Pad1)*%
%TA.AperFunction,SMDPad,CuDef*%
G36*
G01*
X43927000Y-78553999D02*
X43927000Y-80704001D01*
G75*
G02*
X43677001Y-80954000I-249999J0D01*
G01*
X42826999Y-80954000D01*
G75*
G02*
X42577000Y-80704001I0J249999D01*
G01*
X42577000Y-78553999D01*
G75*
G02*
X42826999Y-78304000I249999J0D01*
G01*
X43677001Y-78304000D01*
G75*
G02*
X43927000Y-78553999I0J-249999D01*
G01*
G37*
%TD.AperFunction*%
%TO.P,D4,1*%
%TO.N,Net-(D4-Pad1)*%
%TA.AperFunction,SMDPad,CuDef*%
G36*
G01*
X48427000Y-78553999D02*
X48427000Y-80704001D01*
G75*
G02*
X48177001Y-80954000I-249999J0D01*
G01*
X47326999Y-80954000D01*
G75*
G02*
X47077000Y-80704001I0J249999D01*
G01*
X47077000Y-78553999D01*
G75*
G02*
X47326999Y-78304000I249999J0D01*
G01*
X48177001Y-78304000D01*
G75*
G02*
X48427000Y-78553999I0J-249999D01*
G01*
G37*
%TD.AperFunction*%
%TD*%
%TO.P,R13,2*%
%TO.N,Net-(D4-Pad1)*%
%TA.AperFunction,SMDPad,CuDef*%
G36*
G01*
X110540500Y-42999497D02*
X110540500Y-44249503D01*
G75*
G02*
X110290503Y-44499500I-249997J0D01*
G01*
X109665497Y-44499500D01*
G75*
G02*
X109415500Y-44249503I0J249997D01*
G01*
X109415500Y-42999497D01*
G75*
G02*
X109665497Y-42749500I249997J0D01*
G01*
X110290503Y-42749500D01*
G75*
G02*
X110540500Y-42999497I0J-249997D01*
G01*
G37*
%TD.AperFunction*%
%TO.P,R13,1*%
%TO.N,G33*%
%TA.AperFunction,SMDPad,CuDef*%
G36*
G01*
X113465500Y-42999497D02*
X113465500Y-44249503D01*
G75*
G02*
X113215503Y-44499500I-249997J0D01*
G01*
X112590497Y-44499500D01*
G75*
G02*
X112340500Y-44249503I0J249997D01*
G01*
X112340500Y-42999497D01*
G75*
G02*
X112590497Y-42749500I249997J0D01*
G01*
X113215503Y-42749500D01*
G75*
G02*
X113465500Y-42999497I0J-249997D01*
G01*
G37*
%TD.AperFunction*%
%TD*%
%TO.P,R14,2*%
%TO.N,Net-(C7-Pad2)*%
%TA.AperFunction,SMDPad,CuDef*%
G36*
G01*
X106624997Y-92900000D02*
X107875003Y-92900000D01*
G75*
G02*
X108125000Y-93149997I0J-249997D01*
G01*
X108125000Y-93775003D01*
G75*
G02*
X107875003Y-94025000I-249997J0D01*
G01*
X106624997Y-94025000D01*
G75*
G02*
X106375000Y-93775003I0J249997D01*
G01*
X106375000Y-93149997D01*
G75*
G02*
X106624997Y-92900000I249997J0D01*
G01*
G37*
%TD.AperFunction*%
%TO.P,R14,1*%
%TO.N,Net-(LED1-Pad1)*%
%TA.AperFunction,SMDPad,CuDef*%
G36*
G01*
X106624997Y-89975000D02*
X107875003Y-89975000D01*
G75*
G02*
X108125000Y-90224997I0J-249997D01*
G01*
X108125000Y-90850003D01*
G75*
G02*
X107875003Y-91100000I-249997J0D01*
G01*
X106624997Y-91100000D01*
G75*
G02*
X106375000Y-90850003I0J249997D01*
G01*
X106375000Y-90224997D01*
G75*
G02*
X106624997Y-89975000I249997J0D01*
G01*
G37*
%TD.AperFunction*%
%TD*%
D41*
%TO.N,G2*%
X104203500Y-60706000D03*
%TO.N,GND*%
X104495600Y-91313000D03*
X85750400Y-91338400D03*
X66497200Y-91287600D03*
X127571500Y-77343000D03*
X118440200Y-55219600D03*
X104190800Y-50546000D03*
X55892700Y-27800300D03*
X118033800Y-43599100D03*
X122110500Y-49657000D03*
X122237500Y-66738500D03*
X122631200Y-86918800D03*
X122631200Y-94538800D03*
X118110000Y-27686000D03*
X128905000Y-39687500D03*
X113728500Y-94297500D03*
X127685800Y-82905600D03*
X90551000Y-50419000D03*
X85471000Y-44704000D03*
X93535500Y-43243500D03*
X99885500Y-64071500D03*
X90551000Y-64071500D03*
X111061500Y-85280500D03*
X63500000Y-84734400D03*
X82753200Y-84734400D03*
X101752400Y-86410800D03*
%TO.N,SDA*%
X102679500Y-50863500D03*
X101536500Y-52070000D03*
X84455000Y-46863000D03*
X94742000Y-49022000D03*
%TO.N,G19*%
X114180000Y-63398400D03*
%TO.N,G18*%
X112910000Y-63398400D03*
%TO.N,G5*%
X106489500Y-69151500D03*
X111645700Y-66090800D03*
%TO.N,G17*%
X110370000Y-63398400D03*
%TO.N,G16*%
X109100000Y-63398400D03*
%TO.N,G4*%
X107835700Y-66090800D03*
X104775000Y-69151500D03*
%TO.N,TX*%
X119278400Y-63449200D03*
X128270000Y-37147500D03*
X115316000Y-82931000D03*
X119253000Y-66040000D03*
%TO.N,RX*%
X118008400Y-63500000D03*
X128270000Y-34607500D03*
X117983000Y-66040000D03*
X114300000Y-82931000D03*
%TO.N,+3V3*%
X118046500Y-37147500D03*
X123952000Y-82931000D03*
X123952000Y-75057000D03*
X93154500Y-49022000D03*
X122809000Y-43561000D03*
X93914500Y-56449500D03*
%TO.N,Net-(ALED1-Pad2)*%
X54864000Y-31305500D03*
%TO.N,+5V*%
X107264200Y-86537800D03*
X88798400Y-86512400D03*
X92633800Y-84505800D03*
X73456800Y-84531200D03*
X54203600Y-84531200D03*
X69494400Y-84734400D03*
X127571500Y-72771000D03*
X128778000Y-80264000D03*
X57061100Y-27800300D03*
X122313700Y-88188800D03*
X122313700Y-93014800D03*
X128841500Y-32194500D03*
X116395500Y-93408500D03*
%TO.N,G23*%
X82359500Y-43434000D03*
X97510600Y-49517300D03*
%TO.N,G27*%
X109118400Y-46329600D03*
%TO.N,G25*%
X112445800Y-51587400D03*
X107823000Y-60706000D03*
X111633000Y-49123600D03*
X103187500Y-69151500D03*
%TO.N,Net-(D4-Pad1)*%
X100393500Y-57721500D03*
X101409500Y-48387000D03*
X99263200Y-79629000D03*
%TO.N,IO0*%
X106565700Y-66065400D03*
X108966000Y-75031600D03*
%TO.N,EN*%
X109423200Y-76898500D03*
X121920000Y-60960000D03*
X121475500Y-69977000D03*
%TO.N,Net-(P1-PadA7)*%
X111061500Y-87693500D03*
X122783600Y-90068400D03*
%TO.N,Net-(P1-PadA6)*%
X111061500Y-86487000D03*
X122783600Y-91084400D03*
%TO.N,SDA_2*%
X88900000Y-31750000D03*
X88900000Y-29464000D03*
%TO.N,SDA_3*%
X97536000Y-29337000D03*
X97536000Y-32004000D03*
%TO.N,Net-(C7-Pad2)*%
X97790000Y-90525600D03*
%TO.N,Net-(C8-Pad2)*%
X78689200Y-90525600D03*
%TO.N,Net-(C9-Pad2)*%
X59436000Y-90525600D03*
%TO.N,G2*%
X102997000Y-64071500D03*
%TD*%
D42*
%TO.N,GND*%
X117475000Y-57150000D02*
X115570000Y-55245000D01*
D43*
X105576000Y-50546000D02*
X105560000Y-50530000D01*
X105544000Y-50546000D02*
X105560000Y-50530000D01*
X104190800Y-50546000D02*
X105544000Y-50546000D01*
X118033800Y-43599100D02*
X118844800Y-43599100D01*
X123088400Y-47726600D02*
X123070000Y-47745000D01*
X123063000Y-64738000D02*
X123070000Y-64745000D01*
X115595400Y-55219600D02*
X115570000Y-55245000D01*
X118440200Y-55219600D02*
X115595400Y-55219600D01*
D44*
X122656200Y-86893800D02*
X122631200Y-86918800D01*
X123114200Y-87401800D02*
X122631200Y-86918800D01*
X124185200Y-87401800D02*
X123114200Y-87401800D01*
X123368200Y-93801800D02*
X122631200Y-94538800D01*
X124185200Y-93801800D02*
X123368200Y-93801800D01*
D43*
X113715800Y-95088500D02*
X116382800Y-95088500D01*
X116382800Y-95088500D02*
X118999000Y-95088500D01*
X113728500Y-95075800D02*
X113715800Y-95088500D01*
X113728500Y-94297500D02*
X113728500Y-95075800D01*
X127685800Y-82905600D02*
X126796800Y-82905600D01*
X123070000Y-49263185D02*
X123070000Y-47745000D01*
X122676185Y-49657000D02*
X123070000Y-49263185D01*
X122110500Y-49657000D02*
X122676185Y-49657000D01*
X123070000Y-65906000D02*
X123070000Y-64745000D01*
X122237500Y-66738500D02*
X123070000Y-65906000D01*
X118824800Y-27686000D02*
X118840000Y-27701200D01*
X118110000Y-27686000D02*
X118824800Y-27686000D01*
X126796800Y-80276700D02*
X126809500Y-80264000D01*
X126796800Y-82905600D02*
X126796800Y-80276700D01*
X128929500Y-77343000D02*
X128943500Y-77357000D01*
X127571500Y-77343000D02*
X128929500Y-77343000D01*
D45*
X90575800Y-50394200D02*
X90551000Y-50419000D01*
X90575800Y-48988900D02*
X90575800Y-50394200D01*
X85375800Y-44608800D02*
X85471000Y-44704000D01*
X85375800Y-43263900D02*
X85375800Y-44608800D01*
X91875800Y-43263900D02*
X92525800Y-43263900D01*
X93515100Y-43263900D02*
X93535500Y-43243500D01*
X92525800Y-43263900D02*
X93515100Y-43263900D01*
D44*
X89139500Y-61531500D02*
X89139500Y-64071500D01*
X98439500Y-64071500D02*
X98439500Y-58991500D01*
X89139500Y-61531500D02*
X89139500Y-60261500D01*
X99885500Y-64071500D02*
X98439500Y-64071500D01*
X90551000Y-64071500D02*
X89139500Y-64071500D01*
D42*
X112671467Y-86177500D02*
X111958500Y-86177500D01*
X114562000Y-86177500D02*
X115062000Y-86677500D01*
X112671467Y-86177500D02*
X114562000Y-86177500D01*
X111958500Y-86177500D02*
X111061500Y-85280500D01*
D43*
X66497200Y-92047200D02*
X66500000Y-92050000D01*
X66497200Y-91287600D02*
X66497200Y-92047200D01*
X63500000Y-84734400D02*
X63500000Y-85537500D01*
X85750400Y-92049600D02*
X85750000Y-92050000D01*
X85750400Y-91338400D02*
X85750400Y-92049600D01*
X82753200Y-85534300D02*
X82750000Y-85537500D01*
X82753200Y-84734400D02*
X82753200Y-85534300D01*
X104495600Y-92045600D02*
X104500000Y-92050000D01*
X104495600Y-91313000D02*
X104495600Y-92045600D01*
D45*
X101752400Y-85539900D02*
X101750000Y-85537500D01*
X101752400Y-86410800D02*
X101752400Y-85539900D01*
D42*
X128905000Y-39687500D02*
X129767000Y-39687500D01*
D43*
X113701300Y-95074000D02*
X113715800Y-95088500D01*
X111061500Y-95074000D02*
X113701300Y-95074000D01*
D45*
X54304100Y-35152500D02*
X54851500Y-35152500D01*
X53403500Y-34251900D02*
X54304100Y-35152500D01*
X53403500Y-28689300D02*
X53403500Y-34251900D01*
X55892700Y-27800300D02*
X55027300Y-27800300D01*
X54292500Y-27800300D02*
X53403500Y-28689300D01*
X55027300Y-27800300D02*
X54292500Y-27800300D01*
D42*
%TO.N,SCL*%
X120523000Y-64738000D02*
X120530000Y-64745000D01*
X120530000Y-64745000D02*
X120523000Y-64752000D01*
X102675401Y-52129401D02*
X101600000Y-51054000D01*
X102675401Y-61525991D02*
X102675401Y-52129401D01*
X104119399Y-62969989D02*
X102675401Y-61525991D01*
X119258389Y-62223389D02*
X108145701Y-62223389D01*
X108145701Y-62223389D02*
X107399101Y-62969989D01*
X120530000Y-63495000D02*
X119258389Y-62223389D01*
X107399101Y-62969989D02*
X104119399Y-62969989D01*
X120530000Y-64745000D02*
X120530000Y-63495000D01*
X101600000Y-51054000D02*
X98488500Y-51054000D01*
X98439500Y-55181500D02*
X97345500Y-55181500D01*
X96839500Y-54675500D02*
X96839500Y-52641500D01*
X97345500Y-55181500D02*
X96839500Y-54675500D01*
X96839500Y-51115500D02*
X96901000Y-51054000D01*
X96839500Y-52641500D02*
X96839500Y-51115500D01*
X98488500Y-51054000D02*
X96901000Y-51054000D01*
X91225800Y-50079210D02*
X92200590Y-51054000D01*
X92200590Y-51054000D02*
X92519500Y-51054000D01*
X91225800Y-48988900D02*
X91225800Y-50079210D01*
X96901000Y-51054000D02*
X92519500Y-51054000D01*
X91694000Y-51562000D02*
X92200590Y-51055410D01*
X84836000Y-51562000D02*
X91694000Y-51562000D01*
X84074000Y-47752000D02*
X84074000Y-50800000D01*
X92200590Y-51055410D02*
X92200590Y-51054000D01*
X80137000Y-43815000D02*
X84074000Y-47752000D01*
X50419000Y-45085000D02*
X51689000Y-43815000D01*
X84074000Y-50800000D02*
X84836000Y-51562000D01*
X50419000Y-54637000D02*
X50419000Y-45085000D01*
X47000000Y-58056000D02*
X50419000Y-54637000D01*
X60960000Y-43815000D02*
X80137000Y-43815000D01*
X51689000Y-43815000D02*
X60960000Y-43815000D01*
X57564800Y-58056000D02*
X47000000Y-58056000D01*
X63550800Y-52070000D02*
X57564800Y-58056000D01*
%TO.N,SDA*%
X116713000Y-64738000D02*
X116720000Y-64745000D01*
X116713000Y-64752000D02*
X116720000Y-64745000D01*
X108332101Y-62673399D02*
X107585501Y-63419999D01*
X115898399Y-62673399D02*
X108332101Y-62673399D01*
X107585501Y-63419999D02*
X103932999Y-63419999D01*
X103932999Y-63419999D02*
X102489000Y-61976000D01*
X116720000Y-63495000D02*
X115898399Y-62673399D01*
X116720000Y-64745000D02*
X116720000Y-63495000D01*
X102298500Y-50482500D02*
X102679500Y-50863500D01*
X91875800Y-50092800D02*
X92265500Y-50482500D01*
X91875800Y-48988900D02*
X91875800Y-50092800D01*
X102489000Y-61976000D02*
X102225391Y-61712391D01*
X102225391Y-52758891D02*
X101536500Y-52070000D01*
X102225391Y-53012891D02*
X102225391Y-52758891D01*
X102225391Y-61712391D02*
X102225391Y-53012891D01*
X96839500Y-57026500D02*
X96839500Y-66675000D01*
X97414500Y-56451500D02*
X96839500Y-57026500D01*
X98439500Y-56451500D02*
X97414500Y-56451500D01*
X101536500Y-54379500D02*
X101536500Y-52070000D01*
X99464500Y-56451500D02*
X101536500Y-54379500D01*
X98439500Y-56451500D02*
X99464500Y-56451500D01*
X84455000Y-46863000D02*
X84455000Y-46863000D01*
X92265500Y-50482500D02*
X93789500Y-50482500D01*
X94361000Y-50038000D02*
X93916500Y-50482500D01*
X93916500Y-50482500D02*
X102298500Y-50482500D01*
X93789500Y-50482500D02*
X93916500Y-50482500D01*
X94742000Y-49657000D02*
X94361000Y-50038000D01*
X94742000Y-49022000D02*
X94742000Y-49657000D01*
X83821410Y-46863000D02*
X84455000Y-46863000D01*
X51502600Y-43364990D02*
X80323401Y-43364991D01*
X80323401Y-43364991D02*
X83821410Y-46863000D01*
X49968991Y-44898599D02*
X51502600Y-43364990D01*
X49968990Y-52587010D02*
X49968991Y-44898599D01*
X47000000Y-55556000D02*
X49968990Y-52587010D01*
%TO.N,G19*%
X114180000Y-63398400D02*
X114180000Y-64745000D01*
%TO.N,G18*%
X112910000Y-63398400D02*
X112910000Y-64745000D01*
D45*
%TO.N,G5*%
X111645700Y-64750700D02*
X111640000Y-64745000D01*
X111645700Y-66090800D02*
X111645700Y-64750700D01*
X106489500Y-69151500D02*
X104190800Y-71450200D01*
X104500000Y-85537500D02*
X104485900Y-85537500D01*
X104485900Y-85537500D02*
X104190800Y-85242400D01*
X104190800Y-85242400D02*
X104190800Y-71450200D01*
D42*
%TO.N,G17*%
X110370000Y-63398400D02*
X110370000Y-64745000D01*
%TO.N,G16*%
X109100000Y-63398400D02*
X109100000Y-64745000D01*
D45*
%TO.N,G4*%
X107835700Y-64750700D02*
X107830000Y-64745000D01*
X107835700Y-66090800D02*
X107835700Y-64750700D01*
X104775000Y-69151500D02*
X103187500Y-70739000D01*
X85750000Y-85537500D02*
X85750000Y-83668000D01*
X85750000Y-83668000D02*
X87147400Y-82270600D01*
X101955600Y-82270600D02*
X103187500Y-81038700D01*
X87147400Y-82270600D02*
X101955600Y-82270600D01*
X103187500Y-70739000D02*
X103187500Y-81038700D01*
D42*
%TO.N,TX*%
X119265700Y-64750700D02*
X119260000Y-64745000D01*
X119278400Y-64726600D02*
X119260000Y-64745000D01*
X119278400Y-63449200D02*
X119278400Y-64726600D01*
X119253000Y-64752000D02*
X119260000Y-64745000D01*
X119253000Y-66040000D02*
X119253000Y-64752000D01*
X115062000Y-83185000D02*
X115062000Y-84286967D01*
X115316000Y-82931000D02*
X115062000Y-83185000D01*
X110109000Y-67183000D02*
X113385600Y-70459600D01*
X102489000Y-67183000D02*
X110109000Y-67183000D01*
X113385600Y-70459600D02*
X113385600Y-72745600D01*
X99568000Y-70104000D02*
X102489000Y-67183000D01*
X99568000Y-76733400D02*
X99568000Y-70104000D01*
X51435000Y-77724000D02*
X98577400Y-77724000D01*
X50419000Y-76708000D02*
X51435000Y-77724000D01*
X98577400Y-77724000D02*
X99568000Y-76733400D01*
X128270000Y-37147500D02*
X129767000Y-37147500D01*
X47000000Y-68056000D02*
X48244000Y-68056000D01*
X50419000Y-70231000D02*
X50419000Y-76708000D01*
X48244000Y-68056000D02*
X50419000Y-70231000D01*
%TO.N,RX*%
X117995700Y-64750700D02*
X117990000Y-64745000D01*
X118008400Y-64726600D02*
X117990000Y-64745000D01*
X118008400Y-63500000D02*
X118008400Y-64726600D01*
X117983000Y-64752000D02*
X117990000Y-64745000D01*
X117983000Y-66040000D02*
X117983000Y-64752000D01*
X114562000Y-83193000D02*
X114300000Y-82931000D01*
X114562000Y-84286967D02*
X114562000Y-83193000D01*
X98983800Y-78460600D02*
X51028600Y-78460600D01*
X100330000Y-77114400D02*
X98983800Y-78460600D01*
X100330000Y-70358000D02*
X100330000Y-77114400D01*
X102743000Y-67945000D02*
X100330000Y-70358000D01*
X108331000Y-67945000D02*
X102743000Y-67945000D01*
X110845600Y-70459600D02*
X108331000Y-67945000D01*
X51028600Y-78460600D02*
X49784000Y-77216000D01*
X110845600Y-72745600D02*
X110845600Y-70459600D01*
X128270000Y-34607500D02*
X129767000Y-34607500D01*
X48204000Y-70556000D02*
X49784000Y-72136000D01*
X47000000Y-70556000D02*
X48204000Y-70556000D01*
X49784000Y-77216000D02*
X49784000Y-72136000D01*
D43*
%TO.N,+3V3*%
X121820200Y-47724800D02*
X121800000Y-47745000D01*
X115925600Y-72745600D02*
X115925600Y-72985602D01*
D46*
X124993400Y-82931000D02*
X125018800Y-82905600D01*
X123952000Y-82931000D02*
X124993400Y-82931000D01*
D43*
X122643500Y-75057000D02*
X123952000Y-75057000D01*
X123952000Y-75057000D02*
X128943500Y-75057000D01*
D45*
X93121400Y-48988900D02*
X93154500Y-49022000D01*
X92525800Y-48988900D02*
X93121400Y-48988900D01*
D44*
X93912500Y-56451500D02*
X93914500Y-56449500D01*
X93914500Y-56449500D02*
X93914500Y-66675000D01*
X89139500Y-56451500D02*
X93912500Y-56451500D01*
X93914500Y-52641500D02*
X93914500Y-56449500D01*
D43*
X122809000Y-43561000D02*
X121832900Y-43561000D01*
D44*
X93914500Y-56449500D02*
X93914500Y-56449500D01*
D43*
X121800000Y-43593900D02*
X121820200Y-43573700D01*
X121800000Y-47745000D02*
X121800000Y-43593900D01*
D45*
X118046500Y-37147500D02*
X118868000Y-37147500D01*
D42*
X118868000Y-37147500D02*
X118868000Y-39687500D01*
%TO.N,+5V*%
X129794000Y-32191500D02*
X129797000Y-32194500D01*
D44*
X122326700Y-93001800D02*
X122313700Y-93014800D01*
X124185200Y-93001800D02*
X122326700Y-93001800D01*
X122326700Y-88201800D02*
X122313700Y-88188800D01*
X124185200Y-88201800D02*
X122326700Y-88201800D01*
D43*
X128778000Y-80264000D02*
X129759500Y-80264000D01*
X128929500Y-72771000D02*
X128943500Y-72757000D01*
X127571500Y-72771000D02*
X128929500Y-72771000D01*
D42*
X113562000Y-89068033D02*
X112671467Y-88177500D01*
D43*
X116395500Y-93408500D02*
X116395500Y-92151200D01*
X69494400Y-85594400D02*
X69500000Y-85600000D01*
X69494400Y-84734400D02*
X69494400Y-85594400D01*
X53281200Y-84531200D02*
X53250000Y-84500000D01*
X54203600Y-84531200D02*
X53281200Y-84531200D01*
X72531200Y-84531200D02*
X72500000Y-84500000D01*
X73456800Y-84531200D02*
X72531200Y-84531200D01*
D45*
X88798400Y-85648400D02*
X88750000Y-85600000D01*
X88798400Y-86512400D02*
X88798400Y-85648400D01*
X107264200Y-85614200D02*
X107250000Y-85600000D01*
X107264200Y-86537800D02*
X107264200Y-85614200D01*
D43*
X91755800Y-84505800D02*
X91750000Y-84500000D01*
X92633800Y-84505800D02*
X91755800Y-84505800D01*
X116382800Y-92138500D02*
X118999000Y-92138500D01*
D42*
X129730500Y-32194500D02*
X129743200Y-32207200D01*
X128841500Y-32194500D02*
X129730500Y-32194500D01*
X113562000Y-89643422D02*
X114215578Y-90297000D01*
X113562000Y-89068033D02*
X113562000Y-89643422D01*
X114215578Y-90297000D02*
X116141500Y-90297000D01*
X116382800Y-90538300D02*
X116382800Y-92138500D01*
X116141500Y-90297000D02*
X116382800Y-90538300D01*
D45*
X57977300Y-30178300D02*
X58051500Y-30252500D01*
X57977300Y-27800300D02*
X57977300Y-30178300D01*
X57061100Y-27800300D02*
X57977300Y-27800300D01*
%TO.N,Net-(LED1-Pad1)*%
X107250000Y-88400000D02*
X107250000Y-90537500D01*
%TO.N,Net-(LED2-Pad1)*%
X88750000Y-88400000D02*
X88750000Y-90537500D01*
D42*
%TO.N,G23*%
X97462510Y-49520010D02*
X97459800Y-49517300D01*
X116208613Y-50298611D02*
X111130201Y-50298611D01*
X119165201Y-53255199D02*
X116208613Y-50298611D01*
X119165201Y-60597703D02*
X119165201Y-53255199D01*
X110351601Y-49520011D02*
X97462510Y-49520010D01*
X111130201Y-50298611D02*
X110351601Y-49520011D01*
X121800000Y-63232502D02*
X119165201Y-60597703D01*
X121800000Y-64745000D02*
X121800000Y-63232502D01*
X82359500Y-43434000D02*
X81661000Y-42735500D01*
X58383900Y-38227000D02*
X57939400Y-37782500D01*
X57939400Y-41302400D02*
X59372500Y-42735500D01*
X57939400Y-37782500D02*
X57939400Y-41302400D01*
X81661000Y-42735500D02*
X59372500Y-42735500D01*
D47*
%TO.N,220N*%
X67580000Y-108750000D02*
X67580000Y-102600000D01*
X86830000Y-108750000D02*
X86830000Y-102654000D01*
X118830000Y-108750000D02*
X118830000Y-102701000D01*
X106080000Y-108750000D02*
X106080000Y-102708000D01*
X86830000Y-102654000D02*
X89662000Y-99822000D01*
X67580000Y-102600000D02*
X70358000Y-99822000D01*
X70358000Y-99822000D02*
X89662000Y-99822000D01*
X106080000Y-102708000D02*
X108966000Y-99822000D01*
X89662000Y-99822000D02*
X108966000Y-99822000D01*
X118830000Y-102701000D02*
X115951000Y-99822000D01*
X115951000Y-99822000D02*
X108966000Y-99822000D01*
D45*
%TO.N,Net-(LED3-Pad1)*%
X69500000Y-88400000D02*
X69500000Y-90537500D01*
D42*
%TO.N,Net-(ALED1-Pad2)*%
X54864000Y-30265000D02*
X54851500Y-30252500D01*
X54864000Y-31305500D02*
X54864000Y-30265000D01*
%TO.N,Net-(ALED1-Pad4)*%
X57644400Y-35152500D02*
X58051500Y-35152500D01*
X55014400Y-37782500D02*
X57644400Y-35152500D01*
%TO.N,G26*%
X110370000Y-46979998D02*
X110370000Y-47745000D01*
X110370000Y-47745000D02*
X110370000Y-46729000D01*
X110370000Y-46729000D02*
X111506000Y-45593000D01*
X111506000Y-38494000D02*
X112000000Y-38000000D01*
X111506000Y-45593000D02*
X111506000Y-38494000D01*
%TO.N,G27*%
X109100000Y-46979998D02*
X109100000Y-47745000D01*
X109118400Y-47726600D02*
X109100000Y-47745000D01*
X109118400Y-46329600D02*
X109118400Y-47726600D01*
D45*
%TO.N,G25*%
X112445800Y-51587400D02*
X112445800Y-57378600D01*
X111633000Y-47752000D02*
X111640000Y-47745000D01*
X111633000Y-49123600D02*
X111633000Y-47752000D01*
X109118400Y-60706000D02*
X112445800Y-57378600D01*
X107823000Y-60706000D02*
X109118400Y-60706000D01*
X101600000Y-70739000D02*
X103187500Y-69151500D01*
X101600000Y-70739000D02*
X101600000Y-80365600D01*
X101600000Y-80365600D02*
X100787200Y-81178400D01*
X100787200Y-81178400D02*
X67437000Y-81178400D01*
X66500000Y-82115400D02*
X66500000Y-85537500D01*
X67437000Y-81178400D02*
X66500000Y-82115400D01*
D44*
%TO.N,Net-(BT1-Pad1)*%
X47400000Y-83777000D02*
X43252000Y-79629000D01*
X47400000Y-88250000D02*
X47400000Y-83777000D01*
%TO.N,Net-(D4-Pad1)*%
X100393500Y-57721500D02*
X98439500Y-57721500D01*
D42*
X106172000Y-43624500D02*
X101409500Y-48387000D01*
X106172000Y-43624500D02*
X109978000Y-43624500D01*
D44*
X47752000Y-79629000D02*
X99263200Y-79629000D01*
X99263200Y-79629000D02*
X99263200Y-79629000D01*
D45*
%TO.N,Net-(Q3-Pad1)*%
X66500000Y-93950000D02*
X66984400Y-93950000D01*
X66984400Y-93950000D02*
X67767200Y-93167200D01*
X67767200Y-89729700D02*
X66500000Y-88462500D01*
X67767200Y-90170000D02*
X67767200Y-89729700D01*
X67767200Y-93167200D02*
X67767200Y-90170000D01*
X66500000Y-88462500D02*
X63500000Y-88462500D01*
%TO.N,Net-(Q1-Pad1)*%
X104500000Y-88462500D02*
X105562400Y-89524900D01*
X105562400Y-92887600D02*
X104500000Y-93950000D01*
X105562400Y-89524900D02*
X105562400Y-92887600D01*
X104500000Y-88462500D02*
X101750000Y-88462500D01*
%TO.N,Net-(Q2-Pad1)*%
X85750000Y-88462500D02*
X82750000Y-88462500D01*
X85750000Y-93950000D02*
X85750000Y-93929600D01*
X85750000Y-93929600D02*
X86969600Y-92710000D01*
X86969600Y-89682100D02*
X85750000Y-88462500D01*
X86969600Y-92710000D02*
X86969600Y-89682100D01*
D42*
%TO.N,G33*%
X112905000Y-47740000D02*
X112910000Y-47745000D01*
X112910000Y-43631500D02*
X112903000Y-43624500D01*
X112910000Y-47745000D02*
X112910000Y-43631500D01*
%TO.N,IO0*%
X106534200Y-64719200D02*
X106560000Y-64745000D01*
X106565700Y-64750700D02*
X106560000Y-64745000D01*
X106565700Y-66065400D02*
X106565700Y-64750700D01*
X117972800Y-76407398D02*
X116597002Y-75031600D01*
X117972800Y-78892400D02*
X117972800Y-76407398D01*
X116597002Y-75031600D02*
X108966000Y-75031600D01*
X108966000Y-75031600D02*
X108966000Y-75031600D01*
%TO.N,EN*%
X120530000Y-48995000D02*
X120530000Y-47745000D01*
X120530000Y-59570000D02*
X121920000Y-60960000D01*
X120530000Y-47745000D02*
X120530000Y-59570000D01*
X111468700Y-76898500D02*
X111490800Y-76876400D01*
X109445300Y-76876400D02*
X109423200Y-76898500D01*
X111490800Y-76876400D02*
X109445300Y-76876400D01*
X120650000Y-74168000D02*
X120713500Y-74104500D01*
X107188000Y-74168000D02*
X120650000Y-74168000D01*
X105765600Y-72745600D02*
X107188000Y-74168000D01*
X120713500Y-74104500D02*
X120713500Y-77470000D01*
X122093800Y-78850300D02*
X122093800Y-82905600D01*
X120713500Y-77470000D02*
X122093800Y-78850300D01*
X126365000Y-84582000D02*
X123770200Y-84582000D01*
X127000000Y-85217000D02*
X126365000Y-84582000D01*
X123770200Y-84582000D02*
X122093800Y-82905600D01*
X127000000Y-95250000D02*
X127000000Y-85217000D01*
X125095000Y-97155000D02*
X127000000Y-95250000D01*
X125095000Y-102345000D02*
X125095000Y-97155000D01*
X125738500Y-102988500D02*
X125095000Y-102345000D01*
X127444500Y-102988500D02*
X125738500Y-102988500D01*
X120713500Y-70739000D02*
X120713500Y-70929500D01*
X121475500Y-69977000D02*
X120713500Y-70739000D01*
X120713500Y-74104500D02*
X120713500Y-70929500D01*
X105765600Y-72745600D02*
X105765600Y-79349600D01*
X105765600Y-79349600D02*
X109601000Y-83185000D01*
X109601000Y-90663500D02*
X111061500Y-92124000D01*
X109601000Y-83185000D02*
X109601000Y-90663500D01*
%TO.N,G32*%
X118870000Y-34671000D02*
X116776500Y-34671000D01*
X116776500Y-34671000D02*
X114180000Y-37267500D01*
X114180000Y-47745000D02*
X114180000Y-37267500D01*
%TO.N,Net-(LED5-Pad1)*%
X126892400Y-32258000D02*
X126943200Y-32207200D01*
X121793000Y-32258000D02*
X126892400Y-32258000D01*
%TO.N,Net-(Q4-Pad1)*%
X119065500Y-29586000D02*
X118872000Y-29586000D01*
X121795000Y-34671000D02*
X120777000Y-34671000D01*
X120777000Y-34671000D02*
X120332500Y-34226500D01*
X120332500Y-34226500D02*
X120332500Y-30162500D01*
X119771200Y-29601200D02*
X118840000Y-29601200D01*
X120332500Y-30162500D02*
X119771200Y-29601200D01*
D43*
%TO.N,Net-(Q4-Pad3)*%
X116872000Y-32442400D02*
X116872000Y-28636000D01*
X113814400Y-35500000D02*
X116872000Y-32442400D01*
X112000000Y-35500000D02*
X113814400Y-35500000D01*
D45*
X116872000Y-32548000D02*
X116872000Y-32442400D01*
X117162000Y-32258000D02*
X116872000Y-32548000D01*
X118868000Y-32258000D02*
X117162000Y-32258000D01*
D42*
%TO.N,Net-(P1-PadA7)*%
X123067000Y-90351800D02*
X124185200Y-90351800D01*
X122783600Y-90068400D02*
X123067000Y-90351800D01*
X111577500Y-87177500D02*
X112671467Y-87177500D01*
X111061500Y-87693500D02*
X111577500Y-87177500D01*
%TO.N,Net-(P1-PadA6)*%
X123016200Y-90851800D02*
X124185200Y-90851800D01*
X122783600Y-91084400D02*
X123016200Y-90851800D01*
X112671467Y-86677500D02*
X112014000Y-86677500D01*
X111252000Y-86677500D02*
X111061500Y-86487000D01*
X112671467Y-86677500D02*
X111252000Y-86677500D01*
D43*
%TO.N,Net-(P1-PadS1)*%
X129721800Y-85495200D02*
X128935200Y-86281800D01*
X129721800Y-82905600D02*
X129721800Y-85495200D01*
D42*
%TO.N,Net-(LED4-Pad2)*%
X126967000Y-39687500D02*
X121793000Y-39687500D01*
%TO.N,Net-(C5-Pad1)*%
X112096078Y-87677500D02*
X111696500Y-88077078D01*
X112671467Y-87677500D02*
X112096078Y-87677500D01*
X111696500Y-88077078D02*
X111696500Y-88900000D01*
X113715800Y-90919300D02*
X113715800Y-92138500D01*
X111696500Y-88900000D02*
X113715800Y-90919300D01*
%TO.N,Net-(Q5-Pad2)*%
X115562000Y-83711578D02*
X115961578Y-83312000D01*
X115562000Y-83711578D02*
X115562000Y-84286967D01*
X116774500Y-82499078D02*
X115562000Y-83711578D01*
X116774500Y-81280000D02*
X116774500Y-82499078D01*
X114370900Y-78876400D02*
X116774500Y-81280000D01*
X112440800Y-78876400D02*
X114370900Y-78876400D01*
%TO.N,Net-(Q5-Pad1)*%
X110540800Y-81227200D02*
X110424500Y-81343500D01*
X110540800Y-78876400D02*
X110540800Y-81227200D01*
%TO.N,Net-(Q6-Pad2)*%
X112989798Y-76892400D02*
X111506000Y-78376198D01*
X117022800Y-76892400D02*
X112989798Y-76892400D01*
X111506000Y-78376198D02*
X111506000Y-79502000D01*
X111506000Y-79502000D02*
X112014000Y-80010000D01*
X113562000Y-81556000D02*
X113349500Y-81343500D01*
X113562000Y-84286967D02*
X113562000Y-81556000D01*
X112016000Y-80010000D02*
X112014000Y-80010000D01*
X113349500Y-81343500D02*
X112016000Y-80010000D01*
%TO.N,Net-(Q6-Pad1)*%
X119062500Y-77032100D02*
X118922800Y-76892400D01*
X119699500Y-77669100D02*
X118922800Y-76892400D01*
X119699500Y-81280000D02*
X119699500Y-77669100D01*
%TO.N,SCL_0*%
X86025800Y-42575342D02*
X86025800Y-43263900D01*
X85614458Y-42164000D02*
X86025800Y-42575342D01*
X67000000Y-30500000D02*
X69108000Y-30500000D01*
X72771000Y-42164000D02*
X85614458Y-42164000D01*
X70993000Y-40386000D02*
X72771000Y-42164000D01*
X70993000Y-32385000D02*
X70993000Y-40386000D01*
X69108000Y-30500000D02*
X70993000Y-32385000D01*
%TO.N,SDA_0*%
X85814448Y-41713990D02*
X72957400Y-41713990D01*
X71443009Y-31468009D02*
X67975000Y-28000000D01*
X71443010Y-40199600D02*
X71443009Y-31468009D01*
X72957400Y-41713990D02*
X71443010Y-40199600D01*
X86675800Y-42575342D02*
X85814448Y-41713990D01*
X67975000Y-28000000D02*
X67000000Y-28000000D01*
X86675800Y-43263900D02*
X86675800Y-42575342D01*
%TO.N,SCL_2*%
X88625800Y-44302800D02*
X89120942Y-44797942D01*
X88625800Y-43263900D02*
X88625800Y-44302800D01*
X94902058Y-44797942D02*
X95307990Y-44392010D01*
X89120942Y-44797942D02*
X94902058Y-44797942D01*
X95307990Y-43112400D02*
X89789000Y-37593410D01*
X95307990Y-44392010D02*
X95307990Y-43112400D01*
X89789000Y-37593410D02*
X89789000Y-31242000D01*
X89047000Y-30500000D02*
X85000000Y-30500000D01*
X89789000Y-31242000D02*
X89047000Y-30500000D01*
%TO.N,SDA_2*%
X88900000Y-31750000D02*
X88900000Y-31623000D01*
X87436000Y-28000000D02*
X88900000Y-29464000D01*
X85000000Y-28000000D02*
X87436000Y-28000000D01*
X94737180Y-44326410D02*
X89649752Y-44326410D01*
X88900000Y-31750000D02*
X89338990Y-32188990D01*
X94857980Y-44205610D02*
X94737180Y-44326410D01*
X89649752Y-44326410D02*
X89275800Y-43952458D01*
X94857980Y-43298800D02*
X94857980Y-44205610D01*
X89275800Y-43952458D02*
X89275800Y-43263900D01*
X89338990Y-37779810D02*
X94857980Y-43298800D01*
X89338990Y-32188990D02*
X89338990Y-37779810D01*
%TO.N,SCL_1*%
X89925800Y-42526400D02*
X88420400Y-41021000D01*
X89925800Y-43263900D02*
X89925800Y-42526400D01*
X88420400Y-41021000D02*
X80518000Y-41021000D01*
X80518000Y-41021000D02*
X79375000Y-39878000D01*
X79375000Y-39878000D02*
X79375000Y-31623000D01*
X78252000Y-30500000D02*
X76000000Y-30500000D01*
X79375000Y-31623000D02*
X78252000Y-30500000D01*
%TO.N,SDA_1*%
X76975000Y-28000000D02*
X79825010Y-30850010D01*
X76000000Y-28000000D02*
X76975000Y-28000000D01*
X79825010Y-30850010D02*
X79825010Y-39691600D01*
X90575800Y-42325362D02*
X90575800Y-43263900D01*
X88821428Y-40570990D02*
X90575800Y-42325362D01*
X80704400Y-40570990D02*
X88821428Y-40570990D01*
X79825010Y-39691600D02*
X80704400Y-40570990D01*
%TO.N,SDA_3*%
X96199000Y-28000000D02*
X97536000Y-29337000D01*
X94000000Y-28000000D02*
X96199000Y-28000000D01*
X88046952Y-45247952D02*
X87975800Y-45176800D01*
X87975800Y-45176800D02*
X87975800Y-43263900D01*
X97246048Y-45247952D02*
X88046952Y-45247952D01*
X97810991Y-44683009D02*
X97246048Y-45247952D01*
X97810991Y-32278991D02*
X97810991Y-44683009D01*
X97536000Y-32004000D02*
X97810991Y-32278991D01*
%TO.N,SCL_3*%
X87325800Y-43263900D02*
X87325800Y-45415800D01*
X87325800Y-45415800D02*
X87607962Y-45697962D01*
X87607962Y-45697962D02*
X97558038Y-45697962D01*
X98261001Y-44994999D02*
X97558038Y-45697962D01*
X98261001Y-31655999D02*
X98261001Y-44994999D01*
X97105002Y-30500000D02*
X98261001Y-31655999D01*
X94000000Y-30500000D02*
X97105002Y-30500000D01*
%TO.N,SDA_4*%
X85375800Y-47463380D02*
X86691210Y-46147972D01*
X85375800Y-48988900D02*
X85375800Y-47463380D01*
X99140028Y-46147972D02*
X99371990Y-45916010D01*
X86691210Y-46147972D02*
X99140028Y-46147972D01*
X99371990Y-31628010D02*
X103000000Y-28000000D01*
X99371990Y-45916010D02*
X99371990Y-31628010D01*
%TO.N,SCL_4*%
X86025800Y-47449790D02*
X86025800Y-48988900D01*
X99822000Y-33678000D02*
X99822000Y-46482000D01*
X86877609Y-46597981D02*
X86025800Y-47449790D01*
X99822000Y-46482000D02*
X99706020Y-46597980D01*
X99706020Y-46597980D02*
X86877609Y-46597981D01*
X103000000Y-30500000D02*
X99822000Y-33678000D01*
%TO.N,SDA_5*%
X106483990Y-41723600D02*
X106483990Y-29533010D01*
X108017000Y-28000000D02*
X112000000Y-28000000D01*
X101159600Y-47047990D02*
X106483990Y-41723600D01*
X87064010Y-47047990D02*
X101159600Y-47047990D01*
X106483990Y-29533010D02*
X108017000Y-28000000D01*
X86675800Y-47436200D02*
X87064010Y-47047990D01*
X86675800Y-48988900D02*
X86675800Y-47436200D01*
%TO.N,SCL_5*%
X87325800Y-47802200D02*
X87325800Y-48988900D01*
X101346000Y-47498000D02*
X87630000Y-47498000D01*
X106934000Y-41910000D02*
X101346000Y-47498000D01*
X106934000Y-31623000D02*
X106934000Y-41910000D01*
X108057000Y-30500000D02*
X106934000Y-31623000D01*
X87630000Y-47498000D02*
X87325800Y-47802200D01*
X112000000Y-30500000D02*
X108057000Y-30500000D01*
D43*
%TO.N,Net-(C7-Pad2)*%
X98999400Y-90525600D02*
X99000000Y-90525000D01*
X97790000Y-90525600D02*
X98999400Y-90525600D01*
X100025000Y-90525000D02*
X102500000Y-93000000D01*
X99000000Y-90525000D02*
X100025000Y-90525000D01*
D45*
X107250000Y-93462500D02*
X107250000Y-94273600D01*
X107250000Y-94273600D02*
X106146600Y-95377000D01*
X106146600Y-95377000D02*
X103606600Y-95377000D01*
X102500000Y-94270400D02*
X102500000Y-93000000D01*
X103606600Y-95377000D02*
X102500000Y-94270400D01*
D43*
%TO.N,Net-(C7-Pad1)*%
X93695000Y-93475000D02*
X92600000Y-92380000D01*
X99000000Y-88462500D02*
X97313100Y-88462500D01*
X97313100Y-88462500D02*
X96520000Y-89255600D01*
X96520000Y-92532200D02*
X97462800Y-93475000D01*
X96520000Y-89255600D02*
X96520000Y-92532200D01*
X97462800Y-93475000D02*
X93695000Y-93475000D01*
X99000000Y-93475000D02*
X97462800Y-93475000D01*
%TO.N,Net-(C8-Pad2)*%
X81275000Y-90525000D02*
X83750000Y-93000000D01*
X79750000Y-90525000D02*
X81275000Y-90525000D01*
X79749400Y-90525600D02*
X79750000Y-90525000D01*
X78689200Y-90525600D02*
X79749400Y-90525600D01*
D45*
X88750000Y-93462500D02*
X88750000Y-94384000D01*
X88750000Y-94384000D02*
X87680800Y-95453200D01*
X87680800Y-95453200D02*
X84836000Y-95453200D01*
X83750000Y-94367200D02*
X83750000Y-93000000D01*
X84836000Y-95453200D02*
X83750000Y-94367200D01*
D43*
%TO.N,Net-(C8-Pad1)*%
X74445000Y-93475000D02*
X73350000Y-92380000D01*
X79750000Y-93475000D02*
X74445000Y-93475000D01*
X79750000Y-93475000D02*
X78539800Y-93475000D01*
X78539800Y-93475000D02*
X77266800Y-92202000D01*
X77266800Y-92202000D02*
X77266800Y-89306400D01*
X78110700Y-88462500D02*
X79750000Y-88462500D01*
X77266800Y-89306400D02*
X78110700Y-88462500D01*
D45*
%TO.N,Net-(C9-Pad2)*%
X64500000Y-93000000D02*
X64500000Y-94599000D01*
X64500000Y-94599000D02*
X65214500Y-95313500D01*
X65214500Y-95313500D02*
X68770500Y-95313500D01*
X69500000Y-94584000D02*
X69500000Y-93462500D01*
X68770500Y-95313500D02*
X69500000Y-94584000D01*
D43*
X62025000Y-90525000D02*
X64500000Y-93000000D01*
X60500000Y-90525000D02*
X62025000Y-90525000D01*
X60499400Y-90525600D02*
X60500000Y-90525000D01*
X59436000Y-90525600D02*
X60499400Y-90525600D01*
%TO.N,Net-(C9-Pad1)*%
X55195000Y-93475000D02*
X54100000Y-92380000D01*
X60553600Y-88472200D02*
X58746200Y-88472200D01*
X58746200Y-88472200D02*
X58064400Y-89154000D01*
X58064400Y-89154000D02*
X58064400Y-92614400D01*
X58925000Y-93475000D02*
X55195000Y-93475000D01*
X58064400Y-92614400D02*
X58925000Y-93475000D01*
X60500000Y-93475000D02*
X58925000Y-93475000D01*
%TO.N,Net-(D1-Pad1)*%
X97962500Y-84500000D02*
X99000000Y-85537500D01*
X96250000Y-84500000D02*
X97962500Y-84500000D01*
%TO.N,Net-(D2-Pad1)*%
X78712500Y-84500000D02*
X79750000Y-85537500D01*
X77000000Y-84500000D02*
X78712500Y-84500000D01*
%TO.N,Net-(D3-Pad1)*%
X59506400Y-84500000D02*
X60553600Y-85547200D01*
X57750000Y-84500000D02*
X59506400Y-84500000D01*
D42*
%TO.N,Net-(LED6-Pad2)*%
X126967000Y-34607500D02*
X126967000Y-37147500D01*
X126967000Y-37147500D02*
X121793000Y-37147500D01*
%TO.N,G2*%
X105544000Y-60706000D02*
X105560000Y-60690000D01*
X104203500Y-60706000D02*
X105544000Y-60706000D01*
X96456500Y-70612000D02*
X96456500Y-75374500D01*
X102997000Y-64071500D02*
X96456500Y-70612000D01*
%TD*%
M02*
