%TF.GenerationSoftware,KiCad,Pcbnew,5.99.0+really5.1.10+dfsg1-1*%
%TF.CreationDate,2022-01-11T00:43:00+01:00*%
%TF.ProjectId,terrarium,74657272-6172-4697-956d-2e6b69636164,rev?*%
%TF.SameCoordinates,Original*%
%TF.FileFunction,Copper,L1,Top*%
%TF.FilePolarity,Positive*%
%FSLAX46Y46*%
G04 Gerber Fmt 4.6, Leading zero omitted, Abs format (unit mm)*
G04 Created by KiCad (PCBNEW 5.99.0+really5.1.10+dfsg1-1) date 2022-01-11 00:43:00*
%MOMM*%
%LPD*%
G01*
G04 APERTURE LIST*
%TA.AperFunction,NonConductor*%
%ADD10C,0.300000*%
%TD*%
%TA.AperFunction,Profile*%
%ADD11C,0.050000*%
%TD*%
%TA.AperFunction,EtchedComponent*%
%ADD12C,0.010000*%
%TD*%
%TA.AperFunction,ComponentPad*%
%ADD13O,1.700000X1.700000*%
%TD*%
%TA.AperFunction,ComponentPad*%
%ADD14R,1.700000X1.700000*%
%TD*%
%TA.AperFunction,SMDPad,CuDef*%
%ADD15R,0.900000X0.800000*%
%TD*%
%TA.AperFunction,SMDPad,CuDef*%
%ADD16R,1.500000X1.500000*%
%TD*%
%TA.AperFunction,SMDPad,CuDef*%
%ADD17R,1.120000X2.160000*%
%TD*%
%TA.AperFunction,SMDPad,CuDef*%
%ADD18R,3.510000X2.540000*%
%TD*%
%TA.AperFunction,ComponentPad*%
%ADD19O,1.950000X1.700000*%
%TD*%
%TA.AperFunction,ComponentPad*%
%ADD20C,3.000000*%
%TD*%
%TA.AperFunction,ComponentPad*%
%ADD21R,3.000000X3.000000*%
%TD*%
%TA.AperFunction,SMDPad,CuDef*%
%ADD22R,2.000000X1.500000*%
%TD*%
%TA.AperFunction,SMDPad,CuDef*%
%ADD23R,2.000000X3.800000*%
%TD*%
%TA.AperFunction,ComponentPad*%
%ADD24C,2.500000*%
%TD*%
%TA.AperFunction,SMDPad,CuDef*%
%ADD25R,0.800000X0.900000*%
%TD*%
%TA.AperFunction,SMDPad,CuDef*%
%ADD26R,0.900000X2.000000*%
%TD*%
%TA.AperFunction,SMDPad,CuDef*%
%ADD27R,2.000000X0.900000*%
%TD*%
%TA.AperFunction,SMDPad,CuDef*%
%ADD28R,5.000000X5.000000*%
%TD*%
%TA.AperFunction,ComponentPad*%
%ADD29C,6.400000*%
%TD*%
%TA.AperFunction,ComponentPad*%
%ADD30C,0.800000*%
%TD*%
%TA.AperFunction,SMDPad,CuDef*%
%ADD31R,2.160000X1.120000*%
%TD*%
%TA.AperFunction,SMDPad,CuDef*%
%ADD32R,1.000000X1.500000*%
%TD*%
%TA.AperFunction,ViaPad*%
%ADD33C,0.800000*%
%TD*%
%TA.AperFunction,Conductor*%
%ADD34C,0.250000*%
%TD*%
%TA.AperFunction,Conductor*%
%ADD35C,0.800000*%
%TD*%
%TA.AperFunction,Conductor*%
%ADD36C,0.400000*%
%TD*%
%TA.AperFunction,Conductor*%
%ADD37C,3.000000*%
%TD*%
G04 APERTURE END LIST*
D10*
X74247642Y-60892571D02*
X74604785Y-61892571D01*
X74961928Y-60892571D01*
X76319071Y-61892571D02*
X75461928Y-61892571D01*
X75890500Y-61892571D02*
X75890500Y-60392571D01*
X75747642Y-60606857D01*
X75604785Y-60749714D01*
X75461928Y-60821142D01*
X76961928Y-61749714D02*
X77033357Y-61821142D01*
X76961928Y-61892571D01*
X76890500Y-61821142D01*
X76961928Y-61749714D01*
X76961928Y-61892571D01*
X78319071Y-60892571D02*
X78319071Y-61892571D01*
X77961928Y-60321142D02*
X77604785Y-61392571D01*
X78533357Y-61392571D01*
X57741857Y-63432571D02*
X58313285Y-63432571D01*
X57956142Y-62932571D02*
X57956142Y-64218285D01*
X58027571Y-64361142D01*
X58170428Y-64432571D01*
X58313285Y-64432571D01*
X59384714Y-64361142D02*
X59241857Y-64432571D01*
X58956142Y-64432571D01*
X58813285Y-64361142D01*
X58741857Y-64218285D01*
X58741857Y-63646857D01*
X58813285Y-63504000D01*
X58956142Y-63432571D01*
X59241857Y-63432571D01*
X59384714Y-63504000D01*
X59456142Y-63646857D01*
X59456142Y-63789714D01*
X58741857Y-63932571D01*
X60099000Y-64432571D02*
X60099000Y-63432571D01*
X60099000Y-63718285D02*
X60170428Y-63575428D01*
X60241857Y-63504000D01*
X60384714Y-63432571D01*
X60527571Y-63432571D01*
X61027571Y-64432571D02*
X61027571Y-63432571D01*
X61027571Y-63718285D02*
X61099000Y-63575428D01*
X61170428Y-63504000D01*
X61313285Y-63432571D01*
X61456142Y-63432571D01*
X62599000Y-64432571D02*
X62599000Y-63646857D01*
X62527571Y-63504000D01*
X62384714Y-63432571D01*
X62099000Y-63432571D01*
X61956142Y-63504000D01*
X62599000Y-64361142D02*
X62456142Y-64432571D01*
X62099000Y-64432571D01*
X61956142Y-64361142D01*
X61884714Y-64218285D01*
X61884714Y-64075428D01*
X61956142Y-63932571D01*
X62099000Y-63861142D01*
X62456142Y-63861142D01*
X62599000Y-63789714D01*
X63313285Y-64432571D02*
X63313285Y-63432571D01*
X63313285Y-63718285D02*
X63384714Y-63575428D01*
X63456142Y-63504000D01*
X63599000Y-63432571D01*
X63741857Y-63432571D01*
X64241857Y-64432571D02*
X64241857Y-63432571D01*
X64241857Y-62932571D02*
X64170428Y-63004000D01*
X64241857Y-63075428D01*
X64313285Y-63004000D01*
X64241857Y-62932571D01*
X64241857Y-63075428D01*
X65599000Y-63432571D02*
X65599000Y-64432571D01*
X64956142Y-63432571D02*
X64956142Y-64218285D01*
X65027571Y-64361142D01*
X65170428Y-64432571D01*
X65384714Y-64432571D01*
X65527571Y-64361142D01*
X65599000Y-64289714D01*
X66313285Y-64432571D02*
X66313285Y-63432571D01*
X66313285Y-63575428D02*
X66384714Y-63504000D01*
X66527571Y-63432571D01*
X66741857Y-63432571D01*
X66884714Y-63504000D01*
X66956142Y-63646857D01*
X66956142Y-64432571D01*
X66956142Y-63646857D02*
X67027571Y-63504000D01*
X67170428Y-63432571D01*
X67384714Y-63432571D01*
X67527571Y-63504000D01*
X67599000Y-63646857D01*
X67599000Y-64432571D01*
X70099000Y-64361142D02*
X69956142Y-64432571D01*
X69670428Y-64432571D01*
X69527571Y-64361142D01*
X69456142Y-64289714D01*
X69384714Y-64146857D01*
X69384714Y-63718285D01*
X69456142Y-63575428D01*
X69527571Y-63504000D01*
X69670428Y-63432571D01*
X69956142Y-63432571D01*
X70099000Y-63504000D01*
X70956142Y-64432571D02*
X70813285Y-64361142D01*
X70741857Y-64289714D01*
X70670428Y-64146857D01*
X70670428Y-63718285D01*
X70741857Y-63575428D01*
X70813285Y-63504000D01*
X70956142Y-63432571D01*
X71170428Y-63432571D01*
X71313285Y-63504000D01*
X71384714Y-63575428D01*
X71456142Y-63718285D01*
X71456142Y-64146857D01*
X71384714Y-64289714D01*
X71313285Y-64361142D01*
X71170428Y-64432571D01*
X70956142Y-64432571D01*
X72099000Y-63432571D02*
X72099000Y-64432571D01*
X72099000Y-63575428D02*
X72170428Y-63504000D01*
X72313285Y-63432571D01*
X72527571Y-63432571D01*
X72670428Y-63504000D01*
X72741857Y-63646857D01*
X72741857Y-64432571D01*
X73241857Y-63432571D02*
X73813285Y-63432571D01*
X73456142Y-62932571D02*
X73456142Y-64218285D01*
X73527571Y-64361142D01*
X73670428Y-64432571D01*
X73813285Y-64432571D01*
X74313285Y-64432571D02*
X74313285Y-63432571D01*
X74313285Y-63718285D02*
X74384714Y-63575428D01*
X74456142Y-63504000D01*
X74599000Y-63432571D01*
X74741857Y-63432571D01*
X75456142Y-64432571D02*
X75313285Y-64361142D01*
X75241857Y-64289714D01*
X75170428Y-64146857D01*
X75170428Y-63718285D01*
X75241857Y-63575428D01*
X75313285Y-63504000D01*
X75456142Y-63432571D01*
X75670428Y-63432571D01*
X75813285Y-63504000D01*
X75884714Y-63575428D01*
X75956142Y-63718285D01*
X75956142Y-64146857D01*
X75884714Y-64289714D01*
X75813285Y-64361142D01*
X75670428Y-64432571D01*
X75456142Y-64432571D01*
X76813285Y-64432571D02*
X76670428Y-64361142D01*
X76599000Y-64218285D01*
X76599000Y-62932571D01*
X77599000Y-64432571D02*
X77456142Y-64361142D01*
X77384714Y-64218285D01*
X77384714Y-62932571D01*
X78741857Y-64361142D02*
X78599000Y-64432571D01*
X78313285Y-64432571D01*
X78170428Y-64361142D01*
X78099000Y-64218285D01*
X78099000Y-63646857D01*
X78170428Y-63504000D01*
X78313285Y-63432571D01*
X78599000Y-63432571D01*
X78741857Y-63504000D01*
X78813285Y-63646857D01*
X78813285Y-63789714D01*
X78099000Y-63932571D01*
X79456142Y-64432571D02*
X79456142Y-63432571D01*
X79456142Y-63718285D02*
X79527571Y-63575428D01*
X79599000Y-63504000D01*
X79741857Y-63432571D01*
X79884714Y-63432571D01*
D11*
X45000000Y-113000000D02*
G75*
G02*
X41000000Y-109000000I0J4000000D01*
G01*
X131000000Y-109000000D02*
G75*
G02*
X127000000Y-113000000I-4000000J0D01*
G01*
X127000000Y-23000000D02*
G75*
G02*
X131000000Y-27000000I0J-4000000D01*
G01*
X41000000Y-27000000D02*
G75*
G02*
X45000000Y-23000000I4000000J0D01*
G01*
X127000000Y-23000000D02*
X45000000Y-23000000D01*
X131000000Y-109000000D02*
X131000000Y-27000000D01*
X45000000Y-113000000D02*
X127000000Y-113000000D01*
X41000000Y-27000000D02*
X41000000Y-109000000D01*
D12*
%TO.C,G\u002A\u002A\u002A*%
G36*
X69272182Y-46894796D02*
G01*
X69394633Y-47006336D01*
X69476647Y-47151997D01*
X69494400Y-47250236D01*
X69475088Y-47435896D01*
X69405616Y-47557986D01*
X69287566Y-47639578D01*
X69134874Y-47701700D01*
X69012805Y-47699576D01*
X68910200Y-47655239D01*
X68753705Y-47518111D01*
X68680994Y-47334309D01*
X68698761Y-47123339D01*
X68713156Y-47081175D01*
X68789361Y-46991207D01*
X68923588Y-46908935D01*
X69073419Y-46857378D01*
X69138586Y-46850300D01*
X69272182Y-46894796D01*
G37*
X69272182Y-46894796D02*
X69394633Y-47006336D01*
X69476647Y-47151997D01*
X69494400Y-47250236D01*
X69475088Y-47435896D01*
X69405616Y-47557986D01*
X69287566Y-47639578D01*
X69134874Y-47701700D01*
X69012805Y-47699576D01*
X68910200Y-47655239D01*
X68753705Y-47518111D01*
X68680994Y-47334309D01*
X68698761Y-47123339D01*
X68713156Y-47081175D01*
X68789361Y-46991207D01*
X68923588Y-46908935D01*
X69073419Y-46857378D01*
X69138586Y-46850300D01*
X69272182Y-46894796D01*
G36*
X69616826Y-44463379D02*
G01*
X71094600Y-44464059D01*
X71509945Y-44608641D01*
X71995631Y-44828928D01*
X72429582Y-45128722D01*
X72801838Y-45497171D01*
X73102440Y-45923425D01*
X73321429Y-46396633D01*
X73403074Y-46671305D01*
X73437085Y-46886977D01*
X73455591Y-47162608D01*
X73458395Y-47459716D01*
X73445302Y-47739816D01*
X73416118Y-47964426D01*
X73409787Y-47993300D01*
X73383749Y-48114510D01*
X73387137Y-48150570D01*
X73422353Y-48114271D01*
X73430465Y-48103462D01*
X73472551Y-48026218D01*
X73516065Y-47899528D01*
X73565528Y-47707466D01*
X73625463Y-47434104D01*
X73638844Y-47369542D01*
X73707243Y-47258907D01*
X73840418Y-47169868D01*
X74001610Y-47120400D01*
X74139920Y-47124488D01*
X74262522Y-47195120D01*
X74372725Y-47324229D01*
X74377225Y-47331705D01*
X74525422Y-47495298D01*
X74657149Y-47563661D01*
X74831071Y-47666297D01*
X74935979Y-47822616D01*
X74959498Y-48007513D01*
X74930704Y-48118598D01*
X74861981Y-48243968D01*
X74764513Y-48323190D01*
X74608985Y-48375366D01*
X74503942Y-48396620D01*
X74388729Y-48431276D01*
X74272222Y-48501627D01*
X74133297Y-48623200D01*
X73975829Y-48784773D01*
X73622878Y-49103035D01*
X73250766Y-49327879D01*
X72865802Y-49455698D01*
X72774843Y-49471169D01*
X72492132Y-49557759D01*
X72298177Y-49678990D01*
X71852137Y-49958189D01*
X71366791Y-50144107D01*
X70856516Y-50236321D01*
X70510400Y-50268489D01*
X70510400Y-53192200D01*
X72809100Y-53212494D01*
X73376487Y-53217622D01*
X73852816Y-53222910D01*
X74248624Y-53229546D01*
X74574448Y-53238716D01*
X74840824Y-53251606D01*
X75058289Y-53269402D01*
X75237380Y-53293291D01*
X75388633Y-53324459D01*
X75522586Y-53364092D01*
X75649775Y-53413376D01*
X75780737Y-53473498D01*
X75926008Y-53545644D01*
X75971400Y-53568522D01*
X76236179Y-53735415D01*
X76516902Y-53968367D01*
X76787539Y-54240910D01*
X77022063Y-54526579D01*
X77194443Y-54798907D01*
X77208000Y-54825900D01*
X77391416Y-55302459D01*
X77492579Y-55800030D01*
X77508628Y-56295684D01*
X77445616Y-56730900D01*
X77406541Y-56897354D01*
X77379163Y-57022776D01*
X77370209Y-57073800D01*
X77417197Y-57087897D01*
X77547164Y-57099753D01*
X77741492Y-57108291D01*
X77981568Y-57112433D01*
X78041500Y-57112650D01*
X78417510Y-57121147D01*
X78744311Y-57144548D01*
X78998416Y-57181033D01*
X79039561Y-57190001D01*
X79515198Y-57352581D01*
X79959881Y-57602259D01*
X80359877Y-57926003D01*
X80701452Y-58310782D01*
X80970871Y-58743564D01*
X81148624Y-59191220D01*
X81204395Y-59475831D01*
X81230425Y-59819855D01*
X81227464Y-60186845D01*
X81196260Y-60540353D01*
X81137562Y-60843929D01*
X81113006Y-60924837D01*
X80897848Y-61409146D01*
X80604593Y-61843735D01*
X80244447Y-62217968D01*
X79828618Y-62521206D01*
X79368313Y-62742811D01*
X79113667Y-62822622D01*
X79069745Y-62832074D01*
X79011586Y-62840758D01*
X78935029Y-62848702D01*
X78835917Y-62855936D01*
X78710090Y-62862490D01*
X78553390Y-62868394D01*
X78361657Y-62873677D01*
X78130734Y-62878369D01*
X77856461Y-62882500D01*
X77534679Y-62886098D01*
X77161230Y-62889194D01*
X76731955Y-62891818D01*
X76242695Y-62893998D01*
X75689291Y-62895764D01*
X75067584Y-62897147D01*
X74373416Y-62898175D01*
X73602628Y-62898879D01*
X72751060Y-62899287D01*
X71814555Y-62899430D01*
X70788953Y-62899337D01*
X69670096Y-62899037D01*
X68453824Y-62898561D01*
X68445667Y-62898557D01*
X67188164Y-62897888D01*
X66028690Y-62897012D01*
X64963675Y-62895906D01*
X63989547Y-62894547D01*
X63102736Y-62892912D01*
X62299670Y-62890977D01*
X61576780Y-62888719D01*
X60930494Y-62886115D01*
X60357241Y-62883141D01*
X59853451Y-62879775D01*
X59415553Y-62875993D01*
X59039976Y-62871772D01*
X58723149Y-62867089D01*
X58461502Y-62861920D01*
X58251464Y-62856242D01*
X58089463Y-62850032D01*
X57971929Y-62843267D01*
X57895292Y-62835923D01*
X57861200Y-62829664D01*
X57373450Y-62642824D01*
X56924437Y-62373460D01*
X56527412Y-62033775D01*
X56195626Y-61635975D01*
X55942332Y-61192265D01*
X55859236Y-60985841D01*
X55784442Y-60703913D01*
X55732860Y-60369945D01*
X55717356Y-60143214D01*
X56564508Y-60143214D01*
X56633755Y-60555280D01*
X56788320Y-60943857D01*
X57020088Y-61295501D01*
X57320948Y-61596768D01*
X57682785Y-61834216D01*
X57928705Y-61941517D01*
X57961903Y-61952568D01*
X58000519Y-61962716D01*
X58048761Y-61971997D01*
X58110838Y-61980442D01*
X58190957Y-61988086D01*
X58293329Y-61994960D01*
X58422160Y-62001099D01*
X58581660Y-62006536D01*
X58776037Y-62011303D01*
X59009499Y-62015433D01*
X59286254Y-62018961D01*
X59610512Y-62021919D01*
X59986481Y-62024340D01*
X60418368Y-62026257D01*
X60910384Y-62027704D01*
X61466735Y-62028713D01*
X62091630Y-62029318D01*
X62789279Y-62029553D01*
X63563888Y-62029449D01*
X64419668Y-62029041D01*
X65360825Y-62028361D01*
X66391570Y-62027442D01*
X67516109Y-62026319D01*
X68554600Y-62025221D01*
X78917800Y-62014100D01*
X79208277Y-61877953D01*
X79583778Y-61649358D01*
X79897863Y-61351622D01*
X80142767Y-60999282D01*
X80310723Y-60606880D01*
X80393968Y-60188953D01*
X80384734Y-59760041D01*
X80374637Y-59694162D01*
X80250579Y-59246730D01*
X80042986Y-58856277D01*
X79754514Y-58526378D01*
X79387817Y-58260609D01*
X79260155Y-58192535D01*
X79094992Y-58112885D01*
X78962029Y-58058431D01*
X78834214Y-58023683D01*
X78684490Y-58003152D01*
X78485805Y-57991350D01*
X78228652Y-57983267D01*
X77584757Y-57965635D01*
X77552781Y-58135667D01*
X77453576Y-58447408D01*
X77279597Y-58775202D01*
X77049457Y-59095083D01*
X76781768Y-59383084D01*
X76495143Y-59615240D01*
X76325570Y-59715867D01*
X75851200Y-59903047D01*
X75362059Y-59996138D01*
X74871492Y-59995152D01*
X74392845Y-59900102D01*
X73944520Y-59713728D01*
X73619927Y-59490870D01*
X73315465Y-59192542D01*
X73051664Y-58844875D01*
X72849059Y-58473998D01*
X72748297Y-58191400D01*
X72715737Y-58068958D01*
X73614996Y-58068958D01*
X73665657Y-58189717D01*
X73753073Y-58342630D01*
X73862925Y-58504897D01*
X73980892Y-58653716D01*
X74092657Y-58766286D01*
X74096837Y-58769746D01*
X74379718Y-58965310D01*
X74667004Y-59081452D01*
X74990541Y-59128426D01*
X75209400Y-59127931D01*
X75490496Y-59103487D01*
X75704391Y-59053334D01*
X75833989Y-58998070D01*
X76161971Y-58780065D01*
X76429608Y-58502531D01*
X76579472Y-58264315D01*
X76710758Y-58000900D01*
X75177668Y-57987443D01*
X74793018Y-57985006D01*
X74441793Y-57984582D01*
X74136688Y-57986042D01*
X73890397Y-57989259D01*
X73715615Y-57994106D01*
X73625038Y-58000454D01*
X73615410Y-58003156D01*
X73614996Y-58068958D01*
X72715737Y-58068958D01*
X72690883Y-57975500D01*
X70928861Y-57975500D01*
X70869731Y-58210325D01*
X70713815Y-58628608D01*
X70471255Y-59015537D01*
X70155448Y-59357497D01*
X69779791Y-59640875D01*
X69357679Y-59852055D01*
X69200613Y-59906649D01*
X68760913Y-59993540D01*
X68296181Y-59998305D01*
X67835778Y-59923842D01*
X67409069Y-59773052D01*
X67302786Y-59719271D01*
X66936470Y-59467299D01*
X66608999Y-59140146D01*
X66339531Y-58761545D01*
X66147224Y-58355233D01*
X66110532Y-58242200D01*
X66040852Y-58003156D01*
X66960610Y-58003156D01*
X66961037Y-58067963D01*
X67011328Y-58188469D01*
X67097280Y-58341517D01*
X67204692Y-58503952D01*
X67319358Y-58652619D01*
X67427078Y-58764361D01*
X67427985Y-58765139D01*
X67716115Y-58965675D01*
X68026340Y-59084512D01*
X68382318Y-59129262D01*
X68554600Y-59127653D01*
X68834764Y-59103565D01*
X69047870Y-59053942D01*
X69179189Y-58998070D01*
X69507171Y-58780065D01*
X69774808Y-58502531D01*
X69924672Y-58264315D01*
X70055958Y-58000900D01*
X68522868Y-57987443D01*
X68138218Y-57985006D01*
X67786993Y-57984582D01*
X67481888Y-57986042D01*
X67235597Y-57989259D01*
X67060815Y-57994106D01*
X66970238Y-58000454D01*
X66960610Y-58003156D01*
X66040852Y-58003156D01*
X66032790Y-57975500D01*
X64282908Y-57975500D01*
X64193729Y-58265110D01*
X64005140Y-58713444D01*
X63737645Y-59109247D01*
X63402906Y-59443835D01*
X63012582Y-59708523D01*
X62578331Y-59894629D01*
X62111815Y-59993467D01*
X61854321Y-60007500D01*
X61344013Y-59960130D01*
X60873014Y-59821751D01*
X60449161Y-59597954D01*
X60080290Y-59294331D01*
X59774238Y-58916476D01*
X59538841Y-58469979D01*
X59479450Y-58312743D01*
X59372065Y-58000900D01*
X60254570Y-58000900D01*
X60379898Y-58254900D01*
X60568128Y-58540220D01*
X60824433Y-58794784D01*
X61116689Y-58988874D01*
X61228389Y-59039762D01*
X61503603Y-59111202D01*
X61819582Y-59134744D01*
X62137883Y-59111625D01*
X62420062Y-59043081D01*
X62524389Y-58998070D01*
X62852402Y-58780038D01*
X63120081Y-58502452D01*
X63269914Y-58264315D01*
X63401243Y-58000900D01*
X62612421Y-57986910D01*
X62248392Y-57982611D01*
X61833712Y-57981139D01*
X61418421Y-57982493D01*
X61052560Y-57986673D01*
X61039085Y-57986910D01*
X60254570Y-58000900D01*
X59372065Y-58000900D01*
X59359800Y-57965283D01*
X58720463Y-57984700D01*
X58448174Y-57994568D01*
X58250903Y-58008192D01*
X58102074Y-58030634D01*
X57975115Y-58066956D01*
X57843450Y-58122220D01*
X57741941Y-58171098D01*
X57348027Y-58418706D01*
X57027483Y-58734819D01*
X56785145Y-59112938D01*
X56625847Y-59546566D01*
X56588690Y-59721102D01*
X56564508Y-60143214D01*
X55717356Y-60143214D01*
X55709744Y-60031899D01*
X55720346Y-59737733D01*
X55721480Y-59728100D01*
X55737266Y-59543005D01*
X55724407Y-59402399D01*
X55674165Y-59256467D01*
X55617536Y-59135598D01*
X55534604Y-58942718D01*
X55445971Y-58699498D01*
X55369170Y-58454506D01*
X55360788Y-58424398D01*
X55328038Y-58299337D01*
X55302104Y-58181488D01*
X55282196Y-58057201D01*
X55267523Y-57912826D01*
X55257294Y-57734712D01*
X55250718Y-57509210D01*
X55247004Y-57222668D01*
X55245362Y-56861437D01*
X55245000Y-56426100D01*
X55245000Y-55701090D01*
X56091179Y-55701090D01*
X56091873Y-56123239D01*
X56098455Y-56606202D01*
X56108556Y-57089749D01*
X56120038Y-57479241D01*
X56133455Y-57782220D01*
X56149361Y-58006227D01*
X56168312Y-58158805D01*
X56190862Y-58247495D01*
X56217567Y-58279838D01*
X56221623Y-58280300D01*
X56266644Y-58246710D01*
X56362899Y-58157886D01*
X56491113Y-58031747D01*
X56515429Y-58007143D01*
X56704022Y-57834209D01*
X56923269Y-57660030D01*
X57094128Y-57542722D01*
X57403999Y-57351458D01*
X57403810Y-56202979D01*
X57403102Y-55827999D01*
X57400406Y-55540439D01*
X57394647Y-55326122D01*
X57384754Y-55170874D01*
X57369654Y-55060519D01*
X57348275Y-54980879D01*
X57319543Y-54917780D01*
X57304635Y-54892160D01*
X57152728Y-54701809D01*
X56973426Y-54601461D01*
X56743838Y-54579620D01*
X56690316Y-54583618D01*
X56438360Y-54646730D01*
X56255926Y-54783016D01*
X56138588Y-54995978D01*
X56128219Y-55028360D01*
X56109372Y-55152605D01*
X56097019Y-55377197D01*
X56091179Y-55701090D01*
X55245000Y-55701090D01*
X55245000Y-54851300D01*
X55387552Y-54561006D01*
X55602902Y-54228999D01*
X55880870Y-53973384D01*
X56211701Y-53800296D01*
X56585638Y-53715871D01*
X56743599Y-53708300D01*
X57129654Y-53756713D01*
X57482054Y-53896849D01*
X57788279Y-54121053D01*
X58035804Y-54421670D01*
X58104526Y-54540233D01*
X58148569Y-54626589D01*
X58182208Y-54706435D01*
X58207089Y-54794900D01*
X58224860Y-54907111D01*
X58237168Y-55058196D01*
X58245659Y-55263283D01*
X58251980Y-55537498D01*
X58257779Y-55895971D01*
X58258680Y-55956200D01*
X58275915Y-57111900D01*
X59600244Y-57111900D01*
X59570457Y-56972200D01*
X59546922Y-56850202D01*
X59514698Y-56668728D01*
X59483267Y-56482153D01*
X59462932Y-56140076D01*
X60316145Y-56140076D01*
X60352321Y-56504484D01*
X60446460Y-56852915D01*
X60473775Y-56921400D01*
X60554963Y-57111900D01*
X76400590Y-57111900D01*
X76471278Y-56972200D01*
X76592854Y-56629609D01*
X76642807Y-56240840D01*
X76620622Y-55832282D01*
X76525784Y-55430324D01*
X76502660Y-55365242D01*
X76351386Y-55073706D01*
X76128130Y-54786480D01*
X75859653Y-54531799D01*
X75572715Y-54337900D01*
X75490594Y-54297394D01*
X75157348Y-54178045D01*
X74791845Y-54096273D01*
X74449178Y-54064267D01*
X74436658Y-54064194D01*
X74331874Y-54073736D01*
X74271885Y-54121029D01*
X74228797Y-54233334D01*
X74216053Y-54279800D01*
X74083119Y-54636253D01*
X73882289Y-54995777D01*
X73637748Y-55318503D01*
X73500753Y-55459085D01*
X73109509Y-55757529D01*
X72685952Y-55967137D01*
X72242037Y-56090055D01*
X71789722Y-56128425D01*
X71340961Y-56084392D01*
X70907709Y-55960100D01*
X70501924Y-55757693D01*
X70135560Y-55479315D01*
X69820572Y-55127111D01*
X69595879Y-54758809D01*
X69509637Y-54566163D01*
X69441446Y-54377573D01*
X69410499Y-54255789D01*
X69379815Y-54063900D01*
X70249553Y-54063900D01*
X70283651Y-54178200D01*
X70431283Y-54504917D01*
X70655139Y-54782547D01*
X70938890Y-55003907D01*
X71266205Y-55161815D01*
X71620754Y-55249089D01*
X71986207Y-55258546D01*
X72346233Y-55183006D01*
X72463758Y-55137013D01*
X72713530Y-54990228D01*
X72953759Y-54786076D01*
X73151801Y-54555508D01*
X73249094Y-54392336D01*
X73311215Y-54250393D01*
X73349410Y-54144263D01*
X73355200Y-54115253D01*
X73304798Y-54098953D01*
X73155106Y-54085664D01*
X72908388Y-54075459D01*
X72566911Y-54068415D01*
X72132941Y-54064605D01*
X71802376Y-54063900D01*
X70249553Y-54063900D01*
X69379815Y-54063900D01*
X69379448Y-54061610D01*
X68486654Y-54075455D01*
X67593861Y-54089300D01*
X67554281Y-54280007D01*
X67428624Y-54654739D01*
X67217499Y-55019488D01*
X66936791Y-55357191D01*
X66602386Y-55650787D01*
X66230169Y-55883214D01*
X65951168Y-56001912D01*
X65603050Y-56085152D01*
X65213509Y-56119261D01*
X64821237Y-56104189D01*
X64464926Y-56039888D01*
X64350964Y-56003976D01*
X63897431Y-55788122D01*
X63501009Y-55494100D01*
X63171360Y-55131962D01*
X62918149Y-54711757D01*
X62788617Y-54378977D01*
X62733810Y-54224457D01*
X62670074Y-54126271D01*
X62652260Y-54116723D01*
X63601600Y-54116723D01*
X63623180Y-54191174D01*
X63677503Y-54316380D01*
X63705400Y-54373012D01*
X63928987Y-54707631D01*
X64214356Y-54970020D01*
X64547606Y-55153878D01*
X64914837Y-55252903D01*
X65302147Y-55260794D01*
X65559743Y-55213627D01*
X65793157Y-55141653D01*
X65972666Y-55055788D01*
X66144941Y-54930670D01*
X66251640Y-54837630D01*
X66373059Y-54706233D01*
X66496810Y-54537889D01*
X66604638Y-54361932D01*
X66678293Y-54207700D01*
X66700400Y-54116388D01*
X66649640Y-54099123D01*
X66497405Y-54085286D01*
X66243763Y-54074882D01*
X65888782Y-54067912D01*
X65432528Y-54064378D01*
X65151000Y-54063900D01*
X64643754Y-54065578D01*
X64237463Y-54070626D01*
X63931538Y-54079064D01*
X63725388Y-54090911D01*
X63618425Y-54106189D01*
X63601600Y-54116723D01*
X62652260Y-54116723D01*
X62577035Y-54076406D01*
X62434319Y-54066847D01*
X62221550Y-54089582D01*
X62099439Y-54107915D01*
X61648578Y-54226351D01*
X61249018Y-54429011D01*
X60908668Y-54708254D01*
X60635433Y-55056440D01*
X60437221Y-55465925D01*
X60343248Y-55805154D01*
X60316145Y-56140076D01*
X59462932Y-56140076D01*
X59454882Y-56004670D01*
X59519221Y-55524339D01*
X59668866Y-55055467D01*
X59896399Y-54612363D01*
X60194402Y-54209333D01*
X60555459Y-53860684D01*
X60972151Y-53580724D01*
X60993480Y-53569230D01*
X61170986Y-53478437D01*
X61335961Y-53405602D01*
X61502810Y-53348509D01*
X61685937Y-53304944D01*
X61899746Y-53272692D01*
X62158643Y-53249540D01*
X62477033Y-53233273D01*
X62869319Y-53221677D01*
X63309500Y-53213203D01*
X64719200Y-53189761D01*
X64719200Y-53125241D01*
X65582800Y-53125241D01*
X65596230Y-53147755D01*
X65643555Y-53165686D01*
X65735331Y-53179710D01*
X65882109Y-53190503D01*
X66094444Y-53198738D01*
X66382890Y-53205092D01*
X66758000Y-53210240D01*
X66941700Y-53212183D01*
X67605119Y-53217058D01*
X68178697Y-53217633D01*
X68660626Y-53213951D01*
X69049101Y-53206057D01*
X69342317Y-53193993D01*
X69538467Y-53177804D01*
X69635746Y-53157534D01*
X69646800Y-53146675D01*
X69598992Y-53127003D01*
X69467468Y-53111487D01*
X69270074Y-53101594D01*
X69062600Y-53098700D01*
X68478400Y-53098700D01*
X68478400Y-52235100D01*
X69646800Y-52235100D01*
X69646800Y-51930300D01*
X68478400Y-51930300D01*
X68478400Y-51066700D01*
X69646800Y-51066700D01*
X69646800Y-50761900D01*
X68478400Y-50761900D01*
X68478400Y-49898300D01*
X69638727Y-49898300D01*
X69671043Y-49751167D01*
X69713490Y-49619549D01*
X69784585Y-49525573D01*
X69900701Y-49461852D01*
X70078215Y-49420997D01*
X70333502Y-49395620D01*
X70477495Y-49387313D01*
X70837265Y-49357396D01*
X71130972Y-49308471D01*
X71349654Y-49243154D01*
X71484352Y-49164062D01*
X71526400Y-49080988D01*
X71570604Y-48882210D01*
X71699862Y-48734783D01*
X71909143Y-48643077D01*
X72059800Y-48617653D01*
X72146672Y-48597748D01*
X72217738Y-48543909D01*
X72291949Y-48435593D01*
X72378023Y-48272700D01*
X72543828Y-47848834D01*
X72611125Y-47428693D01*
X72588616Y-47041292D01*
X72471623Y-46613633D01*
X72266346Y-46221461D01*
X71984071Y-45880045D01*
X71636082Y-45604654D01*
X71450200Y-45500979D01*
X71145400Y-45351700D01*
X69678164Y-45336097D01*
X69248871Y-45331943D01*
X68907308Y-45330115D01*
X68639617Y-45331321D01*
X68431943Y-45336269D01*
X68270428Y-45345669D01*
X68141214Y-45360228D01*
X68030445Y-45380656D01*
X67924264Y-45407661D01*
X67849364Y-45429614D01*
X67404409Y-45592945D01*
X67021587Y-45802597D01*
X66665689Y-46079670D01*
X66496694Y-46240194D01*
X66180433Y-46595203D01*
X65943659Y-46956993D01*
X65767457Y-47357642D01*
X65687997Y-47611640D01*
X65624878Y-47848504D01*
X65593286Y-48006392D01*
X65595080Y-48103504D01*
X65632120Y-48158036D01*
X65706265Y-48188186D01*
X65747900Y-48197742D01*
X66081857Y-48309975D01*
X66425751Y-48499223D01*
X66755493Y-48746766D01*
X67046993Y-49033887D01*
X67276163Y-49341865D01*
X67321028Y-49420174D01*
X67508559Y-49872405D01*
X67602153Y-50343525D01*
X67603827Y-50819474D01*
X67515597Y-51286193D01*
X67339482Y-51729620D01*
X67077497Y-52135697D01*
X66903267Y-52332237D01*
X66604811Y-52587630D01*
X66262158Y-52804213D01*
X65912925Y-52959434D01*
X65798700Y-52994402D01*
X65657778Y-53047682D01*
X65586841Y-53108496D01*
X65582800Y-53125241D01*
X64719200Y-53125241D01*
X64719200Y-50583418D01*
X65582800Y-50583418D01*
X65584477Y-51090779D01*
X65589522Y-51497186D01*
X65597956Y-51803231D01*
X65609798Y-52009503D01*
X65625068Y-52116596D01*
X65635623Y-52133500D01*
X65710086Y-52111919D01*
X65835276Y-52057603D01*
X65891731Y-52029792D01*
X66205889Y-51818189D01*
X66446958Y-51550971D01*
X66615536Y-51242474D01*
X66712217Y-50907035D01*
X66737595Y-50558992D01*
X66692268Y-50212681D01*
X66576830Y-49882440D01*
X66391875Y-49582604D01*
X66138001Y-49327512D01*
X65815801Y-49131501D01*
X65770565Y-49111790D01*
X65582800Y-49033336D01*
X65582800Y-50583418D01*
X64719200Y-50583418D01*
X64719200Y-50582151D01*
X64719578Y-49955519D01*
X64721200Y-49420891D01*
X64724792Y-48968669D01*
X64731080Y-48589259D01*
X64740794Y-48273064D01*
X64754659Y-48010488D01*
X64773403Y-47791937D01*
X64797753Y-47607814D01*
X64828437Y-47448523D01*
X64866182Y-47304468D01*
X64911715Y-47166055D01*
X64965763Y-47023686D01*
X64994273Y-46952778D01*
X65278321Y-46385013D01*
X65641744Y-45876300D01*
X66076843Y-45433339D01*
X66575919Y-45062831D01*
X67131274Y-44771477D01*
X67735208Y-44565979D01*
X67737226Y-44565462D01*
X67864996Y-44535123D01*
X67992840Y-44511355D01*
X68135018Y-44493384D01*
X68305796Y-44480434D01*
X68519435Y-44471732D01*
X68790200Y-44466502D01*
X69132354Y-44463969D01*
X69560159Y-44463360D01*
X69616826Y-44463379D01*
G37*
X69616826Y-44463379D02*
X71094600Y-44464059D01*
X71509945Y-44608641D01*
X71995631Y-44828928D01*
X72429582Y-45128722D01*
X72801838Y-45497171D01*
X73102440Y-45923425D01*
X73321429Y-46396633D01*
X73403074Y-46671305D01*
X73437085Y-46886977D01*
X73455591Y-47162608D01*
X73458395Y-47459716D01*
X73445302Y-47739816D01*
X73416118Y-47964426D01*
X73409787Y-47993300D01*
X73383749Y-48114510D01*
X73387137Y-48150570D01*
X73422353Y-48114271D01*
X73430465Y-48103462D01*
X73472551Y-48026218D01*
X73516065Y-47899528D01*
X73565528Y-47707466D01*
X73625463Y-47434104D01*
X73638844Y-47369542D01*
X73707243Y-47258907D01*
X73840418Y-47169868D01*
X74001610Y-47120400D01*
X74139920Y-47124488D01*
X74262522Y-47195120D01*
X74372725Y-47324229D01*
X74377225Y-47331705D01*
X74525422Y-47495298D01*
X74657149Y-47563661D01*
X74831071Y-47666297D01*
X74935979Y-47822616D01*
X74959498Y-48007513D01*
X74930704Y-48118598D01*
X74861981Y-48243968D01*
X74764513Y-48323190D01*
X74608985Y-48375366D01*
X74503942Y-48396620D01*
X74388729Y-48431276D01*
X74272222Y-48501627D01*
X74133297Y-48623200D01*
X73975829Y-48784773D01*
X73622878Y-49103035D01*
X73250766Y-49327879D01*
X72865802Y-49455698D01*
X72774843Y-49471169D01*
X72492132Y-49557759D01*
X72298177Y-49678990D01*
X71852137Y-49958189D01*
X71366791Y-50144107D01*
X70856516Y-50236321D01*
X70510400Y-50268489D01*
X70510400Y-53192200D01*
X72809100Y-53212494D01*
X73376487Y-53217622D01*
X73852816Y-53222910D01*
X74248624Y-53229546D01*
X74574448Y-53238716D01*
X74840824Y-53251606D01*
X75058289Y-53269402D01*
X75237380Y-53293291D01*
X75388633Y-53324459D01*
X75522586Y-53364092D01*
X75649775Y-53413376D01*
X75780737Y-53473498D01*
X75926008Y-53545644D01*
X75971400Y-53568522D01*
X76236179Y-53735415D01*
X76516902Y-53968367D01*
X76787539Y-54240910D01*
X77022063Y-54526579D01*
X77194443Y-54798907D01*
X77208000Y-54825900D01*
X77391416Y-55302459D01*
X77492579Y-55800030D01*
X77508628Y-56295684D01*
X77445616Y-56730900D01*
X77406541Y-56897354D01*
X77379163Y-57022776D01*
X77370209Y-57073800D01*
X77417197Y-57087897D01*
X77547164Y-57099753D01*
X77741492Y-57108291D01*
X77981568Y-57112433D01*
X78041500Y-57112650D01*
X78417510Y-57121147D01*
X78744311Y-57144548D01*
X78998416Y-57181033D01*
X79039561Y-57190001D01*
X79515198Y-57352581D01*
X79959881Y-57602259D01*
X80359877Y-57926003D01*
X80701452Y-58310782D01*
X80970871Y-58743564D01*
X81148624Y-59191220D01*
X81204395Y-59475831D01*
X81230425Y-59819855D01*
X81227464Y-60186845D01*
X81196260Y-60540353D01*
X81137562Y-60843929D01*
X81113006Y-60924837D01*
X80897848Y-61409146D01*
X80604593Y-61843735D01*
X80244447Y-62217968D01*
X79828618Y-62521206D01*
X79368313Y-62742811D01*
X79113667Y-62822622D01*
X79069745Y-62832074D01*
X79011586Y-62840758D01*
X78935029Y-62848702D01*
X78835917Y-62855936D01*
X78710090Y-62862490D01*
X78553390Y-62868394D01*
X78361657Y-62873677D01*
X78130734Y-62878369D01*
X77856461Y-62882500D01*
X77534679Y-62886098D01*
X77161230Y-62889194D01*
X76731955Y-62891818D01*
X76242695Y-62893998D01*
X75689291Y-62895764D01*
X75067584Y-62897147D01*
X74373416Y-62898175D01*
X73602628Y-62898879D01*
X72751060Y-62899287D01*
X71814555Y-62899430D01*
X70788953Y-62899337D01*
X69670096Y-62899037D01*
X68453824Y-62898561D01*
X68445667Y-62898557D01*
X67188164Y-62897888D01*
X66028690Y-62897012D01*
X64963675Y-62895906D01*
X63989547Y-62894547D01*
X63102736Y-62892912D01*
X62299670Y-62890977D01*
X61576780Y-62888719D01*
X60930494Y-62886115D01*
X60357241Y-62883141D01*
X59853451Y-62879775D01*
X59415553Y-62875993D01*
X59039976Y-62871772D01*
X58723149Y-62867089D01*
X58461502Y-62861920D01*
X58251464Y-62856242D01*
X58089463Y-62850032D01*
X57971929Y-62843267D01*
X57895292Y-62835923D01*
X57861200Y-62829664D01*
X57373450Y-62642824D01*
X56924437Y-62373460D01*
X56527412Y-62033775D01*
X56195626Y-61635975D01*
X55942332Y-61192265D01*
X55859236Y-60985841D01*
X55784442Y-60703913D01*
X55732860Y-60369945D01*
X55717356Y-60143214D01*
X56564508Y-60143214D01*
X56633755Y-60555280D01*
X56788320Y-60943857D01*
X57020088Y-61295501D01*
X57320948Y-61596768D01*
X57682785Y-61834216D01*
X57928705Y-61941517D01*
X57961903Y-61952568D01*
X58000519Y-61962716D01*
X58048761Y-61971997D01*
X58110838Y-61980442D01*
X58190957Y-61988086D01*
X58293329Y-61994960D01*
X58422160Y-62001099D01*
X58581660Y-62006536D01*
X58776037Y-62011303D01*
X59009499Y-62015433D01*
X59286254Y-62018961D01*
X59610512Y-62021919D01*
X59986481Y-62024340D01*
X60418368Y-62026257D01*
X60910384Y-62027704D01*
X61466735Y-62028713D01*
X62091630Y-62029318D01*
X62789279Y-62029553D01*
X63563888Y-62029449D01*
X64419668Y-62029041D01*
X65360825Y-62028361D01*
X66391570Y-62027442D01*
X67516109Y-62026319D01*
X68554600Y-62025221D01*
X78917800Y-62014100D01*
X79208277Y-61877953D01*
X79583778Y-61649358D01*
X79897863Y-61351622D01*
X80142767Y-60999282D01*
X80310723Y-60606880D01*
X80393968Y-60188953D01*
X80384734Y-59760041D01*
X80374637Y-59694162D01*
X80250579Y-59246730D01*
X80042986Y-58856277D01*
X79754514Y-58526378D01*
X79387817Y-58260609D01*
X79260155Y-58192535D01*
X79094992Y-58112885D01*
X78962029Y-58058431D01*
X78834214Y-58023683D01*
X78684490Y-58003152D01*
X78485805Y-57991350D01*
X78228652Y-57983267D01*
X77584757Y-57965635D01*
X77552781Y-58135667D01*
X77453576Y-58447408D01*
X77279597Y-58775202D01*
X77049457Y-59095083D01*
X76781768Y-59383084D01*
X76495143Y-59615240D01*
X76325570Y-59715867D01*
X75851200Y-59903047D01*
X75362059Y-59996138D01*
X74871492Y-59995152D01*
X74392845Y-59900102D01*
X73944520Y-59713728D01*
X73619927Y-59490870D01*
X73315465Y-59192542D01*
X73051664Y-58844875D01*
X72849059Y-58473998D01*
X72748297Y-58191400D01*
X72715737Y-58068958D01*
X73614996Y-58068958D01*
X73665657Y-58189717D01*
X73753073Y-58342630D01*
X73862925Y-58504897D01*
X73980892Y-58653716D01*
X74092657Y-58766286D01*
X74096837Y-58769746D01*
X74379718Y-58965310D01*
X74667004Y-59081452D01*
X74990541Y-59128426D01*
X75209400Y-59127931D01*
X75490496Y-59103487D01*
X75704391Y-59053334D01*
X75833989Y-58998070D01*
X76161971Y-58780065D01*
X76429608Y-58502531D01*
X76579472Y-58264315D01*
X76710758Y-58000900D01*
X75177668Y-57987443D01*
X74793018Y-57985006D01*
X74441793Y-57984582D01*
X74136688Y-57986042D01*
X73890397Y-57989259D01*
X73715615Y-57994106D01*
X73625038Y-58000454D01*
X73615410Y-58003156D01*
X73614996Y-58068958D01*
X72715737Y-58068958D01*
X72690883Y-57975500D01*
X70928861Y-57975500D01*
X70869731Y-58210325D01*
X70713815Y-58628608D01*
X70471255Y-59015537D01*
X70155448Y-59357497D01*
X69779791Y-59640875D01*
X69357679Y-59852055D01*
X69200613Y-59906649D01*
X68760913Y-59993540D01*
X68296181Y-59998305D01*
X67835778Y-59923842D01*
X67409069Y-59773052D01*
X67302786Y-59719271D01*
X66936470Y-59467299D01*
X66608999Y-59140146D01*
X66339531Y-58761545D01*
X66147224Y-58355233D01*
X66110532Y-58242200D01*
X66040852Y-58003156D01*
X66960610Y-58003156D01*
X66961037Y-58067963D01*
X67011328Y-58188469D01*
X67097280Y-58341517D01*
X67204692Y-58503952D01*
X67319358Y-58652619D01*
X67427078Y-58764361D01*
X67427985Y-58765139D01*
X67716115Y-58965675D01*
X68026340Y-59084512D01*
X68382318Y-59129262D01*
X68554600Y-59127653D01*
X68834764Y-59103565D01*
X69047870Y-59053942D01*
X69179189Y-58998070D01*
X69507171Y-58780065D01*
X69774808Y-58502531D01*
X69924672Y-58264315D01*
X70055958Y-58000900D01*
X68522868Y-57987443D01*
X68138218Y-57985006D01*
X67786993Y-57984582D01*
X67481888Y-57986042D01*
X67235597Y-57989259D01*
X67060815Y-57994106D01*
X66970238Y-58000454D01*
X66960610Y-58003156D01*
X66040852Y-58003156D01*
X66032790Y-57975500D01*
X64282908Y-57975500D01*
X64193729Y-58265110D01*
X64005140Y-58713444D01*
X63737645Y-59109247D01*
X63402906Y-59443835D01*
X63012582Y-59708523D01*
X62578331Y-59894629D01*
X62111815Y-59993467D01*
X61854321Y-60007500D01*
X61344013Y-59960130D01*
X60873014Y-59821751D01*
X60449161Y-59597954D01*
X60080290Y-59294331D01*
X59774238Y-58916476D01*
X59538841Y-58469979D01*
X59479450Y-58312743D01*
X59372065Y-58000900D01*
X60254570Y-58000900D01*
X60379898Y-58254900D01*
X60568128Y-58540220D01*
X60824433Y-58794784D01*
X61116689Y-58988874D01*
X61228389Y-59039762D01*
X61503603Y-59111202D01*
X61819582Y-59134744D01*
X62137883Y-59111625D01*
X62420062Y-59043081D01*
X62524389Y-58998070D01*
X62852402Y-58780038D01*
X63120081Y-58502452D01*
X63269914Y-58264315D01*
X63401243Y-58000900D01*
X62612421Y-57986910D01*
X62248392Y-57982611D01*
X61833712Y-57981139D01*
X61418421Y-57982493D01*
X61052560Y-57986673D01*
X61039085Y-57986910D01*
X60254570Y-58000900D01*
X59372065Y-58000900D01*
X59359800Y-57965283D01*
X58720463Y-57984700D01*
X58448174Y-57994568D01*
X58250903Y-58008192D01*
X58102074Y-58030634D01*
X57975115Y-58066956D01*
X57843450Y-58122220D01*
X57741941Y-58171098D01*
X57348027Y-58418706D01*
X57027483Y-58734819D01*
X56785145Y-59112938D01*
X56625847Y-59546566D01*
X56588690Y-59721102D01*
X56564508Y-60143214D01*
X55717356Y-60143214D01*
X55709744Y-60031899D01*
X55720346Y-59737733D01*
X55721480Y-59728100D01*
X55737266Y-59543005D01*
X55724407Y-59402399D01*
X55674165Y-59256467D01*
X55617536Y-59135598D01*
X55534604Y-58942718D01*
X55445971Y-58699498D01*
X55369170Y-58454506D01*
X55360788Y-58424398D01*
X55328038Y-58299337D01*
X55302104Y-58181488D01*
X55282196Y-58057201D01*
X55267523Y-57912826D01*
X55257294Y-57734712D01*
X55250718Y-57509210D01*
X55247004Y-57222668D01*
X55245362Y-56861437D01*
X55245000Y-56426100D01*
X55245000Y-55701090D01*
X56091179Y-55701090D01*
X56091873Y-56123239D01*
X56098455Y-56606202D01*
X56108556Y-57089749D01*
X56120038Y-57479241D01*
X56133455Y-57782220D01*
X56149361Y-58006227D01*
X56168312Y-58158805D01*
X56190862Y-58247495D01*
X56217567Y-58279838D01*
X56221623Y-58280300D01*
X56266644Y-58246710D01*
X56362899Y-58157886D01*
X56491113Y-58031747D01*
X56515429Y-58007143D01*
X56704022Y-57834209D01*
X56923269Y-57660030D01*
X57094128Y-57542722D01*
X57403999Y-57351458D01*
X57403810Y-56202979D01*
X57403102Y-55827999D01*
X57400406Y-55540439D01*
X57394647Y-55326122D01*
X57384754Y-55170874D01*
X57369654Y-55060519D01*
X57348275Y-54980879D01*
X57319543Y-54917780D01*
X57304635Y-54892160D01*
X57152728Y-54701809D01*
X56973426Y-54601461D01*
X56743838Y-54579620D01*
X56690316Y-54583618D01*
X56438360Y-54646730D01*
X56255926Y-54783016D01*
X56138588Y-54995978D01*
X56128219Y-55028360D01*
X56109372Y-55152605D01*
X56097019Y-55377197D01*
X56091179Y-55701090D01*
X55245000Y-55701090D01*
X55245000Y-54851300D01*
X55387552Y-54561006D01*
X55602902Y-54228999D01*
X55880870Y-53973384D01*
X56211701Y-53800296D01*
X56585638Y-53715871D01*
X56743599Y-53708300D01*
X57129654Y-53756713D01*
X57482054Y-53896849D01*
X57788279Y-54121053D01*
X58035804Y-54421670D01*
X58104526Y-54540233D01*
X58148569Y-54626589D01*
X58182208Y-54706435D01*
X58207089Y-54794900D01*
X58224860Y-54907111D01*
X58237168Y-55058196D01*
X58245659Y-55263283D01*
X58251980Y-55537498D01*
X58257779Y-55895971D01*
X58258680Y-55956200D01*
X58275915Y-57111900D01*
X59600244Y-57111900D01*
X59570457Y-56972200D01*
X59546922Y-56850202D01*
X59514698Y-56668728D01*
X59483267Y-56482153D01*
X59462932Y-56140076D01*
X60316145Y-56140076D01*
X60352321Y-56504484D01*
X60446460Y-56852915D01*
X60473775Y-56921400D01*
X60554963Y-57111900D01*
X76400590Y-57111900D01*
X76471278Y-56972200D01*
X76592854Y-56629609D01*
X76642807Y-56240840D01*
X76620622Y-55832282D01*
X76525784Y-55430324D01*
X76502660Y-55365242D01*
X76351386Y-55073706D01*
X76128130Y-54786480D01*
X75859653Y-54531799D01*
X75572715Y-54337900D01*
X75490594Y-54297394D01*
X75157348Y-54178045D01*
X74791845Y-54096273D01*
X74449178Y-54064267D01*
X74436658Y-54064194D01*
X74331874Y-54073736D01*
X74271885Y-54121029D01*
X74228797Y-54233334D01*
X74216053Y-54279800D01*
X74083119Y-54636253D01*
X73882289Y-54995777D01*
X73637748Y-55318503D01*
X73500753Y-55459085D01*
X73109509Y-55757529D01*
X72685952Y-55967137D01*
X72242037Y-56090055D01*
X71789722Y-56128425D01*
X71340961Y-56084392D01*
X70907709Y-55960100D01*
X70501924Y-55757693D01*
X70135560Y-55479315D01*
X69820572Y-55127111D01*
X69595879Y-54758809D01*
X69509637Y-54566163D01*
X69441446Y-54377573D01*
X69410499Y-54255789D01*
X69379815Y-54063900D01*
X70249553Y-54063900D01*
X70283651Y-54178200D01*
X70431283Y-54504917D01*
X70655139Y-54782547D01*
X70938890Y-55003907D01*
X71266205Y-55161815D01*
X71620754Y-55249089D01*
X71986207Y-55258546D01*
X72346233Y-55183006D01*
X72463758Y-55137013D01*
X72713530Y-54990228D01*
X72953759Y-54786076D01*
X73151801Y-54555508D01*
X73249094Y-54392336D01*
X73311215Y-54250393D01*
X73349410Y-54144263D01*
X73355200Y-54115253D01*
X73304798Y-54098953D01*
X73155106Y-54085664D01*
X72908388Y-54075459D01*
X72566911Y-54068415D01*
X72132941Y-54064605D01*
X71802376Y-54063900D01*
X70249553Y-54063900D01*
X69379815Y-54063900D01*
X69379448Y-54061610D01*
X68486654Y-54075455D01*
X67593861Y-54089300D01*
X67554281Y-54280007D01*
X67428624Y-54654739D01*
X67217499Y-55019488D01*
X66936791Y-55357191D01*
X66602386Y-55650787D01*
X66230169Y-55883214D01*
X65951168Y-56001912D01*
X65603050Y-56085152D01*
X65213509Y-56119261D01*
X64821237Y-56104189D01*
X64464926Y-56039888D01*
X64350964Y-56003976D01*
X63897431Y-55788122D01*
X63501009Y-55494100D01*
X63171360Y-55131962D01*
X62918149Y-54711757D01*
X62788617Y-54378977D01*
X62733810Y-54224457D01*
X62670074Y-54126271D01*
X62652260Y-54116723D01*
X63601600Y-54116723D01*
X63623180Y-54191174D01*
X63677503Y-54316380D01*
X63705400Y-54373012D01*
X63928987Y-54707631D01*
X64214356Y-54970020D01*
X64547606Y-55153878D01*
X64914837Y-55252903D01*
X65302147Y-55260794D01*
X65559743Y-55213627D01*
X65793157Y-55141653D01*
X65972666Y-55055788D01*
X66144941Y-54930670D01*
X66251640Y-54837630D01*
X66373059Y-54706233D01*
X66496810Y-54537889D01*
X66604638Y-54361932D01*
X66678293Y-54207700D01*
X66700400Y-54116388D01*
X66649640Y-54099123D01*
X66497405Y-54085286D01*
X66243763Y-54074882D01*
X65888782Y-54067912D01*
X65432528Y-54064378D01*
X65151000Y-54063900D01*
X64643754Y-54065578D01*
X64237463Y-54070626D01*
X63931538Y-54079064D01*
X63725388Y-54090911D01*
X63618425Y-54106189D01*
X63601600Y-54116723D01*
X62652260Y-54116723D01*
X62577035Y-54076406D01*
X62434319Y-54066847D01*
X62221550Y-54089582D01*
X62099439Y-54107915D01*
X61648578Y-54226351D01*
X61249018Y-54429011D01*
X60908668Y-54708254D01*
X60635433Y-55056440D01*
X60437221Y-55465925D01*
X60343248Y-55805154D01*
X60316145Y-56140076D01*
X59462932Y-56140076D01*
X59454882Y-56004670D01*
X59519221Y-55524339D01*
X59668866Y-55055467D01*
X59896399Y-54612363D01*
X60194402Y-54209333D01*
X60555459Y-53860684D01*
X60972151Y-53580724D01*
X60993480Y-53569230D01*
X61170986Y-53478437D01*
X61335961Y-53405602D01*
X61502810Y-53348509D01*
X61685937Y-53304944D01*
X61899746Y-53272692D01*
X62158643Y-53249540D01*
X62477033Y-53233273D01*
X62869319Y-53221677D01*
X63309500Y-53213203D01*
X64719200Y-53189761D01*
X64719200Y-53125241D01*
X65582800Y-53125241D01*
X65596230Y-53147755D01*
X65643555Y-53165686D01*
X65735331Y-53179710D01*
X65882109Y-53190503D01*
X66094444Y-53198738D01*
X66382890Y-53205092D01*
X66758000Y-53210240D01*
X66941700Y-53212183D01*
X67605119Y-53217058D01*
X68178697Y-53217633D01*
X68660626Y-53213951D01*
X69049101Y-53206057D01*
X69342317Y-53193993D01*
X69538467Y-53177804D01*
X69635746Y-53157534D01*
X69646800Y-53146675D01*
X69598992Y-53127003D01*
X69467468Y-53111487D01*
X69270074Y-53101594D01*
X69062600Y-53098700D01*
X68478400Y-53098700D01*
X68478400Y-52235100D01*
X69646800Y-52235100D01*
X69646800Y-51930300D01*
X68478400Y-51930300D01*
X68478400Y-51066700D01*
X69646800Y-51066700D01*
X69646800Y-50761900D01*
X68478400Y-50761900D01*
X68478400Y-49898300D01*
X69638727Y-49898300D01*
X69671043Y-49751167D01*
X69713490Y-49619549D01*
X69784585Y-49525573D01*
X69900701Y-49461852D01*
X70078215Y-49420997D01*
X70333502Y-49395620D01*
X70477495Y-49387313D01*
X70837265Y-49357396D01*
X71130972Y-49308471D01*
X71349654Y-49243154D01*
X71484352Y-49164062D01*
X71526400Y-49080988D01*
X71570604Y-48882210D01*
X71699862Y-48734783D01*
X71909143Y-48643077D01*
X72059800Y-48617653D01*
X72146672Y-48597748D01*
X72217738Y-48543909D01*
X72291949Y-48435593D01*
X72378023Y-48272700D01*
X72543828Y-47848834D01*
X72611125Y-47428693D01*
X72588616Y-47041292D01*
X72471623Y-46613633D01*
X72266346Y-46221461D01*
X71984071Y-45880045D01*
X71636082Y-45604654D01*
X71450200Y-45500979D01*
X71145400Y-45351700D01*
X69678164Y-45336097D01*
X69248871Y-45331943D01*
X68907308Y-45330115D01*
X68639617Y-45331321D01*
X68431943Y-45336269D01*
X68270428Y-45345669D01*
X68141214Y-45360228D01*
X68030445Y-45380656D01*
X67924264Y-45407661D01*
X67849364Y-45429614D01*
X67404409Y-45592945D01*
X67021587Y-45802597D01*
X66665689Y-46079670D01*
X66496694Y-46240194D01*
X66180433Y-46595203D01*
X65943659Y-46956993D01*
X65767457Y-47357642D01*
X65687997Y-47611640D01*
X65624878Y-47848504D01*
X65593286Y-48006392D01*
X65595080Y-48103504D01*
X65632120Y-48158036D01*
X65706265Y-48188186D01*
X65747900Y-48197742D01*
X66081857Y-48309975D01*
X66425751Y-48499223D01*
X66755493Y-48746766D01*
X67046993Y-49033887D01*
X67276163Y-49341865D01*
X67321028Y-49420174D01*
X67508559Y-49872405D01*
X67602153Y-50343525D01*
X67603827Y-50819474D01*
X67515597Y-51286193D01*
X67339482Y-51729620D01*
X67077497Y-52135697D01*
X66903267Y-52332237D01*
X66604811Y-52587630D01*
X66262158Y-52804213D01*
X65912925Y-52959434D01*
X65798700Y-52994402D01*
X65657778Y-53047682D01*
X65586841Y-53108496D01*
X65582800Y-53125241D01*
X64719200Y-53125241D01*
X64719200Y-50583418D01*
X65582800Y-50583418D01*
X65584477Y-51090779D01*
X65589522Y-51497186D01*
X65597956Y-51803231D01*
X65609798Y-52009503D01*
X65625068Y-52116596D01*
X65635623Y-52133500D01*
X65710086Y-52111919D01*
X65835276Y-52057603D01*
X65891731Y-52029792D01*
X66205889Y-51818189D01*
X66446958Y-51550971D01*
X66615536Y-51242474D01*
X66712217Y-50907035D01*
X66737595Y-50558992D01*
X66692268Y-50212681D01*
X66576830Y-49882440D01*
X66391875Y-49582604D01*
X66138001Y-49327512D01*
X65815801Y-49131501D01*
X65770565Y-49111790D01*
X65582800Y-49033336D01*
X65582800Y-50583418D01*
X64719200Y-50583418D01*
X64719200Y-50582151D01*
X64719578Y-49955519D01*
X64721200Y-49420891D01*
X64724792Y-48968669D01*
X64731080Y-48589259D01*
X64740794Y-48273064D01*
X64754659Y-48010488D01*
X64773403Y-47791937D01*
X64797753Y-47607814D01*
X64828437Y-47448523D01*
X64866182Y-47304468D01*
X64911715Y-47166055D01*
X64965763Y-47023686D01*
X64994273Y-46952778D01*
X65278321Y-46385013D01*
X65641744Y-45876300D01*
X66076843Y-45433339D01*
X66575919Y-45062831D01*
X67131274Y-44771477D01*
X67735208Y-44565979D01*
X67737226Y-44565462D01*
X67864996Y-44535123D01*
X67992840Y-44511355D01*
X68135018Y-44493384D01*
X68305796Y-44480434D01*
X68519435Y-44471732D01*
X68790200Y-44466502D01*
X69132354Y-44463969D01*
X69560159Y-44463360D01*
X69616826Y-44463379D01*
%TD*%
%TO.P,R17,2*%
%TO.N,Net-(Q4-Pad3)*%
%TA.AperFunction,SMDPad,CuDef*%
G36*
G01*
X118469300Y-32852198D02*
X118469300Y-34102202D01*
G75*
G02*
X118219302Y-34352200I-249998J0D01*
G01*
X117594298Y-34352200D01*
G75*
G02*
X117344300Y-34102202I0J249998D01*
G01*
X117344300Y-32852198D01*
G75*
G02*
X117594298Y-32602200I249998J0D01*
G01*
X118219302Y-32602200D01*
G75*
G02*
X118469300Y-32852198I0J-249998D01*
G01*
G37*
%TD.AperFunction*%
%TO.P,R17,1*%
%TO.N,Net-(LED5-Pad1)*%
%TA.AperFunction,SMDPad,CuDef*%
G36*
G01*
X121394300Y-32852198D02*
X121394300Y-34102202D01*
G75*
G02*
X121144302Y-34352200I-249998J0D01*
G01*
X120519298Y-34352200D01*
G75*
G02*
X120269300Y-34102202I0J249998D01*
G01*
X120269300Y-32852198D01*
G75*
G02*
X120519298Y-32602200I249998J0D01*
G01*
X121144302Y-32602200D01*
G75*
G02*
X121394300Y-32852198I0J-249998D01*
G01*
G37*
%TD.AperFunction*%
%TD*%
%TO.P,R16,2*%
%TO.N,Net-(Q3-Pad3)*%
%TA.AperFunction,SMDPad,CuDef*%
G36*
G01*
X80775700Y-79029398D02*
X80775700Y-80279402D01*
G75*
G02*
X80525702Y-80529400I-249998J0D01*
G01*
X79900698Y-80529400D01*
G75*
G02*
X79650700Y-80279402I0J249998D01*
G01*
X79650700Y-79029398D01*
G75*
G02*
X79900698Y-78779400I249998J0D01*
G01*
X80525702Y-78779400D01*
G75*
G02*
X80775700Y-79029398I0J-249998D01*
G01*
G37*
%TD.AperFunction*%
%TO.P,R16,1*%
%TO.N,Net-(LED3-Pad1)*%
%TA.AperFunction,SMDPad,CuDef*%
G36*
G01*
X83700700Y-79029398D02*
X83700700Y-80279402D01*
G75*
G02*
X83450702Y-80529400I-249998J0D01*
G01*
X82825698Y-80529400D01*
G75*
G02*
X82575700Y-80279402I0J249998D01*
G01*
X82575700Y-79029398D01*
G75*
G02*
X82825698Y-78779400I249998J0D01*
G01*
X83450702Y-78779400D01*
G75*
G02*
X83700700Y-79029398I0J-249998D01*
G01*
G37*
%TD.AperFunction*%
%TD*%
%TO.P,R15,2*%
%TO.N,Net-(Q2-Pad3)*%
%TA.AperFunction,SMDPad,CuDef*%
G36*
G01*
X98744200Y-79130998D02*
X98744200Y-80381002D01*
G75*
G02*
X98494202Y-80631000I-249998J0D01*
G01*
X97869198Y-80631000D01*
G75*
G02*
X97619200Y-80381002I0J249998D01*
G01*
X97619200Y-79130998D01*
G75*
G02*
X97869198Y-78881000I249998J0D01*
G01*
X98494202Y-78881000D01*
G75*
G02*
X98744200Y-79130998I0J-249998D01*
G01*
G37*
%TD.AperFunction*%
%TO.P,R15,1*%
%TO.N,Net-(LED2-Pad1)*%
%TA.AperFunction,SMDPad,CuDef*%
G36*
G01*
X101669200Y-79130998D02*
X101669200Y-80381002D01*
G75*
G02*
X101419202Y-80631000I-249998J0D01*
G01*
X100794198Y-80631000D01*
G75*
G02*
X100544200Y-80381002I0J249998D01*
G01*
X100544200Y-79130998D01*
G75*
G02*
X100794198Y-78881000I249998J0D01*
G01*
X101419202Y-78881000D01*
G75*
G02*
X101669200Y-79130998I0J-249998D01*
G01*
G37*
%TD.AperFunction*%
%TD*%
%TO.P,R14,2*%
%TO.N,Net-(Q1-Pad3)*%
%TA.AperFunction,SMDPad,CuDef*%
G36*
G01*
X116752800Y-79029398D02*
X116752800Y-80279402D01*
G75*
G02*
X116502802Y-80529400I-249998J0D01*
G01*
X115877798Y-80529400D01*
G75*
G02*
X115627800Y-80279402I0J249998D01*
G01*
X115627800Y-79029398D01*
G75*
G02*
X115877798Y-78779400I249998J0D01*
G01*
X116502802Y-78779400D01*
G75*
G02*
X116752800Y-79029398I0J-249998D01*
G01*
G37*
%TD.AperFunction*%
%TO.P,R14,1*%
%TO.N,Net-(LED1-Pad1)*%
%TA.AperFunction,SMDPad,CuDef*%
G36*
G01*
X119677800Y-79029398D02*
X119677800Y-80279402D01*
G75*
G02*
X119427802Y-80529400I-249998J0D01*
G01*
X118802798Y-80529400D01*
G75*
G02*
X118552800Y-80279402I0J249998D01*
G01*
X118552800Y-79029398D01*
G75*
G02*
X118802798Y-78779400I249998J0D01*
G01*
X119427802Y-78779400D01*
G75*
G02*
X119677800Y-79029398I0J-249998D01*
G01*
G37*
%TD.AperFunction*%
%TD*%
%TO.P,LED5,2*%
%TO.N,+5V*%
%TA.AperFunction,SMDPad,CuDef*%
G36*
G01*
X126962200Y-34102200D02*
X126962200Y-32852200D01*
G75*
G02*
X127212200Y-32602200I250000J0D01*
G01*
X127962200Y-32602200D01*
G75*
G02*
X128212200Y-32852200I0J-250000D01*
G01*
X128212200Y-34102200D01*
G75*
G02*
X127962200Y-34352200I-250000J0D01*
G01*
X127212200Y-34352200D01*
G75*
G02*
X126962200Y-34102200I0J250000D01*
G01*
G37*
%TD.AperFunction*%
%TO.P,LED5,1*%
%TO.N,Net-(LED5-Pad1)*%
%TA.AperFunction,SMDPad,CuDef*%
G36*
G01*
X124162200Y-34102200D02*
X124162200Y-32852200D01*
G75*
G02*
X124412200Y-32602200I250000J0D01*
G01*
X125162200Y-32602200D01*
G75*
G02*
X125412200Y-32852200I0J-250000D01*
G01*
X125412200Y-34102200D01*
G75*
G02*
X125162200Y-34352200I-250000J0D01*
G01*
X124412200Y-34352200D01*
G75*
G02*
X124162200Y-34102200I0J250000D01*
G01*
G37*
%TD.AperFunction*%
%TD*%
D13*
%TO.P,RESET_j1,2*%
%TO.N,EN*%
X101193600Y-57708800D03*
D14*
%TO.P,RESET_j1,1*%
%TO.N,Net-(R11-Pad2)*%
X98653600Y-57708800D03*
%TD*%
%TO.P,R13,2*%
%TO.N,Net-(R13-Pad2)*%
%TA.AperFunction,SMDPad,CuDef*%
G36*
G01*
X97652000Y-52105398D02*
X97652000Y-53355402D01*
G75*
G02*
X97402002Y-53605400I-249998J0D01*
G01*
X96776998Y-53605400D01*
G75*
G02*
X96527000Y-53355402I0J249998D01*
G01*
X96527000Y-52105398D01*
G75*
G02*
X96776998Y-51855400I249998J0D01*
G01*
X97402002Y-51855400D01*
G75*
G02*
X97652000Y-52105398I0J-249998D01*
G01*
G37*
%TD.AperFunction*%
%TO.P,R13,1*%
%TO.N,G33*%
%TA.AperFunction,SMDPad,CuDef*%
G36*
G01*
X100577000Y-52105398D02*
X100577000Y-53355402D01*
G75*
G02*
X100327002Y-53605400I-249998J0D01*
G01*
X99701998Y-53605400D01*
G75*
G02*
X99452000Y-53355402I0J249998D01*
G01*
X99452000Y-52105398D01*
G75*
G02*
X99701998Y-51855400I249998J0D01*
G01*
X100327002Y-51855400D01*
G75*
G02*
X100577000Y-52105398I0J-249998D01*
G01*
G37*
%TD.AperFunction*%
%TD*%
%TO.P,R10,2*%
%TO.N,Net-(Q4-Pad1)*%
%TA.AperFunction,SMDPad,CuDef*%
G36*
G01*
X122037002Y-27802000D02*
X120786998Y-27802000D01*
G75*
G02*
X120537000Y-27552002I0J249998D01*
G01*
X120537000Y-26926998D01*
G75*
G02*
X120786998Y-26677000I249998J0D01*
G01*
X122037002Y-26677000D01*
G75*
G02*
X122287000Y-26926998I0J-249998D01*
G01*
X122287000Y-27552002D01*
G75*
G02*
X122037002Y-27802000I-249998J0D01*
G01*
G37*
%TD.AperFunction*%
%TO.P,R10,1*%
%TO.N,G32*%
%TA.AperFunction,SMDPad,CuDef*%
G36*
G01*
X122037002Y-30727000D02*
X120786998Y-30727000D01*
G75*
G02*
X120537000Y-30477002I0J249998D01*
G01*
X120537000Y-29851998D01*
G75*
G02*
X120786998Y-29602000I249998J0D01*
G01*
X122037002Y-29602000D01*
G75*
G02*
X122287000Y-29851998I0J-249998D01*
G01*
X122287000Y-30477002D01*
G75*
G02*
X122037002Y-30727000I-249998J0D01*
G01*
G37*
%TD.AperFunction*%
%TD*%
D15*
%TO.P,Q4,3*%
%TO.N,Net-(Q4-Pad3)*%
X116872000Y-28636000D03*
%TO.P,Q4,2*%
%TO.N,GND*%
X118872000Y-27686000D03*
%TO.P,Q4,1*%
%TO.N,Net-(Q4-Pad1)*%
X118872000Y-29586000D03*
%TD*%
D16*
%TO.P,TP1,1*%
%TO.N,EN*%
X101193600Y-61061600D03*
%TD*%
%TO.P,TP2,1*%
%TO.N,Net-(R11-Pad2)*%
X98653600Y-61061600D03*
%TD*%
D13*
%TO.P,UART,6*%
%TO.N,EN*%
X109156500Y-70612000D03*
%TO.P,UART,5*%
%TO.N,IO0*%
X111696500Y-70612000D03*
%TO.P,UART,4*%
%TO.N,RX*%
X114236500Y-70612000D03*
%TO.P,UART,3*%
%TO.N,TX*%
X116776500Y-70612000D03*
%TO.P,UART,2*%
%TO.N,+3V3*%
X119316500Y-70612000D03*
D14*
%TO.P,UART,1*%
%TO.N,GND*%
X121856500Y-70612000D03*
%TD*%
D17*
%TO.P,SW3,2*%
%TO.N,Net-(D4-Pad1)*%
X46164500Y-76072500D03*
%TO.P,SW3,1*%
%TO.N,Net-(R13-Pad2)*%
X46164500Y-69342500D03*
%TD*%
D18*
%TO.P,BT1,2*%
%TO.N,GND*%
X54292500Y-105993000D03*
%TO.P,BT1,1*%
%TO.N,Net-(BT1-Pad1)*%
X54292500Y-76633000D03*
%TD*%
%TO.P,D4,2*%
%TO.N,Net-(BT1-Pad1)*%
%TA.AperFunction,SMDPad,CuDef*%
G36*
G01*
X55804000Y-73592001D02*
X55804000Y-71441999D01*
G75*
G02*
X56053999Y-71192000I249999J0D01*
G01*
X56904001Y-71192000D01*
G75*
G02*
X57154000Y-71441999I0J-249999D01*
G01*
X57154000Y-73592001D01*
G75*
G02*
X56904001Y-73842000I-249999J0D01*
G01*
X56053999Y-73842000D01*
G75*
G02*
X55804000Y-73592001I0J249999D01*
G01*
G37*
%TD.AperFunction*%
%TO.P,D4,1*%
%TO.N,Net-(D4-Pad1)*%
%TA.AperFunction,SMDPad,CuDef*%
G36*
G01*
X51304000Y-73592001D02*
X51304000Y-71441999D01*
G75*
G02*
X51553999Y-71192000I249999J0D01*
G01*
X52404001Y-71192000D01*
G75*
G02*
X52654000Y-71441999I0J-249999D01*
G01*
X52654000Y-73592001D01*
G75*
G02*
X52404001Y-73842000I-249999J0D01*
G01*
X51553999Y-73842000D01*
G75*
G02*
X51304000Y-73592001I0J249999D01*
G01*
G37*
%TD.AperFunction*%
%TD*%
%TO.P,D3,2*%
%TO.N,Net-(D3-Pad2)*%
%TA.AperFunction,SMDPad,CuDef*%
G36*
G01*
X74371000Y-78553999D02*
X74371000Y-80704001D01*
G75*
G02*
X74121001Y-80954000I-249999J0D01*
G01*
X73270999Y-80954000D01*
G75*
G02*
X73021000Y-80704001I0J249999D01*
G01*
X73021000Y-78553999D01*
G75*
G02*
X73270999Y-78304000I249999J0D01*
G01*
X74121001Y-78304000D01*
G75*
G02*
X74371000Y-78553999I0J-249999D01*
G01*
G37*
%TD.AperFunction*%
%TO.P,D3,1*%
%TO.N,+5V*%
%TA.AperFunction,SMDPad,CuDef*%
G36*
G01*
X78871000Y-78553999D02*
X78871000Y-80704001D01*
G75*
G02*
X78621001Y-80954000I-249999J0D01*
G01*
X77770999Y-80954000D01*
G75*
G02*
X77521000Y-80704001I0J249999D01*
G01*
X77521000Y-78553999D01*
G75*
G02*
X77770999Y-78304000I249999J0D01*
G01*
X78621001Y-78304000D01*
G75*
G02*
X78871000Y-78553999I0J-249999D01*
G01*
G37*
%TD.AperFunction*%
%TD*%
%TO.P,D2,2*%
%TO.N,Net-(D2-Pad2)*%
%TA.AperFunction,SMDPad,CuDef*%
G36*
G01*
X92354200Y-78553999D02*
X92354200Y-80704001D01*
G75*
G02*
X92104201Y-80954000I-249999J0D01*
G01*
X91254199Y-80954000D01*
G75*
G02*
X91004200Y-80704001I0J249999D01*
G01*
X91004200Y-78553999D01*
G75*
G02*
X91254199Y-78304000I249999J0D01*
G01*
X92104201Y-78304000D01*
G75*
G02*
X92354200Y-78553999I0J-249999D01*
G01*
G37*
%TD.AperFunction*%
%TO.P,D2,1*%
%TO.N,+5V*%
%TA.AperFunction,SMDPad,CuDef*%
G36*
G01*
X96854200Y-78553999D02*
X96854200Y-80704001D01*
G75*
G02*
X96604201Y-80954000I-249999J0D01*
G01*
X95754199Y-80954000D01*
G75*
G02*
X95504200Y-80704001I0J249999D01*
G01*
X95504200Y-78553999D01*
G75*
G02*
X95754199Y-78304000I249999J0D01*
G01*
X96604201Y-78304000D01*
G75*
G02*
X96854200Y-78553999I0J-249999D01*
G01*
G37*
%TD.AperFunction*%
%TD*%
%TO.P,D1,2*%
%TO.N,Net-(D1-Pad2)*%
%TA.AperFunction,SMDPad,CuDef*%
G36*
G01*
X110348000Y-78553999D02*
X110348000Y-80704001D01*
G75*
G02*
X110098001Y-80954000I-249999J0D01*
G01*
X109247999Y-80954000D01*
G75*
G02*
X108998000Y-80704001I0J249999D01*
G01*
X108998000Y-78553999D01*
G75*
G02*
X109247999Y-78304000I249999J0D01*
G01*
X110098001Y-78304000D01*
G75*
G02*
X110348000Y-78553999I0J-249999D01*
G01*
G37*
%TD.AperFunction*%
%TO.P,D1,1*%
%TO.N,+5V*%
%TA.AperFunction,SMDPad,CuDef*%
G36*
G01*
X114848000Y-78553999D02*
X114848000Y-80704001D01*
G75*
G02*
X114598001Y-80954000I-249999J0D01*
G01*
X113747999Y-80954000D01*
G75*
G02*
X113498000Y-80704001I0J249999D01*
G01*
X113498000Y-78553999D01*
G75*
G02*
X113747999Y-78304000I249999J0D01*
G01*
X114598001Y-78304000D01*
G75*
G02*
X114848000Y-78553999I0J-249999D01*
G01*
G37*
%TD.AperFunction*%
%TD*%
D19*
%TO.P,i2c2,4*%
%TO.N,GND*%
X48196500Y-49363000D03*
%TO.P,i2c2,3*%
%TO.N,+5V*%
X48196500Y-46863000D03*
%TO.P,i2c2,2*%
%TO.N,SDA*%
X48196500Y-44363000D03*
%TO.P,i2c2,1*%
%TO.N,SCL*%
%TA.AperFunction,ComponentPad*%
G36*
G01*
X47471500Y-41013000D02*
X48921500Y-41013000D01*
G75*
G02*
X49171500Y-41263000I0J-250000D01*
G01*
X49171500Y-42463000D01*
G75*
G02*
X48921500Y-42713000I-250000J0D01*
G01*
X47471500Y-42713000D01*
G75*
G02*
X47221500Y-42463000I0J250000D01*
G01*
X47221500Y-41263000D01*
G75*
G02*
X47471500Y-41013000I250000J0D01*
G01*
G37*
%TD.AperFunction*%
%TD*%
%TO.P,SENS1,3*%
%TO.N,Net-(Q4-Pad3)*%
X112522000Y-33665000D03*
%TO.P,SENS1,2*%
%TO.N,G26*%
X112522000Y-31165000D03*
%TO.P,SENS1,1*%
%TO.N,+5V*%
%TA.AperFunction,ComponentPad*%
G36*
G01*
X111797000Y-27815000D02*
X113247000Y-27815000D01*
G75*
G02*
X113497000Y-28065000I0J-250000D01*
G01*
X113497000Y-29265000D01*
G75*
G02*
X113247000Y-29515000I-250000J0D01*
G01*
X111797000Y-29515000D01*
G75*
G02*
X111547000Y-29265000I0J250000D01*
G01*
X111547000Y-28065000D01*
G75*
G02*
X111797000Y-27815000I250000J0D01*
G01*
G37*
%TD.AperFunction*%
%TD*%
%TO.P,SENS3,3*%
%TO.N,Net-(Q4-Pad3)*%
X93472000Y-33665000D03*
%TO.P,SENS3,2*%
%TO.N,G19*%
X93472000Y-31165000D03*
%TO.P,SENS3,1*%
%TO.N,+5V*%
%TA.AperFunction,ComponentPad*%
G36*
G01*
X92747000Y-27815000D02*
X94197000Y-27815000D01*
G75*
G02*
X94447000Y-28065000I0J-250000D01*
G01*
X94447000Y-29265000D01*
G75*
G02*
X94197000Y-29515000I-250000J0D01*
G01*
X92747000Y-29515000D01*
G75*
G02*
X92497000Y-29265000I0J250000D01*
G01*
X92497000Y-28065000D01*
G75*
G02*
X92747000Y-27815000I250000J0D01*
G01*
G37*
%TD.AperFunction*%
%TD*%
%TO.P,SENS2,3*%
%TO.N,Net-(Q4-Pad3)*%
X102997000Y-33665000D03*
%TO.P,SENS2,2*%
%TO.N,G27*%
X102997000Y-31165000D03*
%TO.P,SENS2,1*%
%TO.N,+5V*%
%TA.AperFunction,ComponentPad*%
G36*
G01*
X102272000Y-27815000D02*
X103722000Y-27815000D01*
G75*
G02*
X103972000Y-28065000I0J-250000D01*
G01*
X103972000Y-29265000D01*
G75*
G02*
X103722000Y-29515000I-250000J0D01*
G01*
X102272000Y-29515000D01*
G75*
G02*
X102022000Y-29265000I0J250000D01*
G01*
X102022000Y-28065000D01*
G75*
G02*
X102272000Y-27815000I250000J0D01*
G01*
G37*
%TD.AperFunction*%
%TD*%
%TO.P,SENS4,3*%
%TO.N,Net-(Q4-Pad3)*%
X83947000Y-33665000D03*
%TO.P,SENS4,2*%
%TO.N,G18*%
X83947000Y-31165000D03*
%TO.P,SENS4,1*%
%TO.N,+5V*%
%TA.AperFunction,ComponentPad*%
G36*
G01*
X83222000Y-27815000D02*
X84672000Y-27815000D01*
G75*
G02*
X84922000Y-28065000I0J-250000D01*
G01*
X84922000Y-29265000D01*
G75*
G02*
X84672000Y-29515000I-250000J0D01*
G01*
X83222000Y-29515000D01*
G75*
G02*
X82972000Y-29265000I0J250000D01*
G01*
X82972000Y-28065000D01*
G75*
G02*
X83222000Y-27815000I250000J0D01*
G01*
G37*
%TD.AperFunction*%
%TD*%
%TO.P,SENS5,3*%
%TO.N,Net-(Q4-Pad3)*%
X74422000Y-33665000D03*
%TO.P,SENS5,2*%
%TO.N,G17*%
X74422000Y-31165000D03*
%TO.P,SENS5,1*%
%TO.N,+5V*%
%TA.AperFunction,ComponentPad*%
G36*
G01*
X73697000Y-27815000D02*
X75147000Y-27815000D01*
G75*
G02*
X75397000Y-28065000I0J-250000D01*
G01*
X75397000Y-29265000D01*
G75*
G02*
X75147000Y-29515000I-250000J0D01*
G01*
X73697000Y-29515000D01*
G75*
G02*
X73447000Y-29265000I0J250000D01*
G01*
X73447000Y-28065000D01*
G75*
G02*
X73697000Y-27815000I250000J0D01*
G01*
G37*
%TD.AperFunction*%
%TD*%
D20*
%TO.P,S4,2*%
%TO.N,+5V*%
X127000000Y-78105000D03*
D21*
%TO.P,S4,1*%
%TO.N,GND*%
X127000000Y-83185000D03*
%TD*%
D19*
%TO.P,SENS6,3*%
%TO.N,Net-(Q4-Pad3)*%
X64897000Y-33665000D03*
%TO.P,SENS6,2*%
%TO.N,G16*%
X64897000Y-31165000D03*
%TO.P,SENS6,1*%
%TO.N,+5V*%
%TA.AperFunction,ComponentPad*%
G36*
G01*
X64172000Y-27815000D02*
X65622000Y-27815000D01*
G75*
G02*
X65872000Y-28065000I0J-250000D01*
G01*
X65872000Y-29265000D01*
G75*
G02*
X65622000Y-29515000I-250000J0D01*
G01*
X64172000Y-29515000D01*
G75*
G02*
X63922000Y-29265000I0J250000D01*
G01*
X63922000Y-28065000D01*
G75*
G02*
X64172000Y-27815000I250000J0D01*
G01*
G37*
%TD.AperFunction*%
%TD*%
D22*
%TO.P,U3,1*%
%TO.N,GND*%
X114821500Y-43702000D03*
%TO.P,U3,3*%
%TO.N,+5V*%
X114821500Y-39102000D03*
%TO.P,U3,2*%
%TO.N,+3V3*%
X114821500Y-41402000D03*
D23*
X108521500Y-41402000D03*
%TD*%
D20*
%TO.P,RE1,1*%
%TO.N,220L*%
X112000000Y-84000000D03*
D24*
%TO.P,RE1,5*%
%TO.N,+5V*%
X117950000Y-85950000D03*
D20*
%TO.P,RE1,4*%
%TO.N,Net-(RE1-Pad4)*%
X118000000Y-98200000D03*
%TO.P,RE1,3*%
%TO.N,Net-(RE1-Pad3)*%
X105950000Y-98150000D03*
D24*
%TO.P,RE1,2*%
%TO.N,Net-(D1-Pad2)*%
X105950000Y-85950000D03*
%TD*%
D20*
%TO.P,RE2,1*%
%TO.N,220L*%
X94000000Y-84000000D03*
D24*
%TO.P,RE2,5*%
%TO.N,+5V*%
X99950000Y-85950000D03*
D20*
%TO.P,RE2,4*%
%TO.N,Net-(RE2-Pad4)*%
X100000000Y-98200000D03*
%TO.P,RE2,3*%
%TO.N,Net-(RE2-Pad3)*%
X87950000Y-98150000D03*
D24*
%TO.P,RE2,2*%
%TO.N,Net-(D2-Pad2)*%
X87950000Y-85950000D03*
%TD*%
%TO.P,RE3,2*%
%TO.N,Net-(D3-Pad2)*%
X69950000Y-85950000D03*
D20*
%TO.P,RE3,3*%
%TO.N,Net-(RE3-Pad3)*%
X69950000Y-98150000D03*
%TO.P,RE3,4*%
%TO.N,Net-(RE3-Pad4)*%
X82000000Y-98200000D03*
D24*
%TO.P,RE3,5*%
%TO.N,+5V*%
X81950000Y-85950000D03*
D20*
%TO.P,RE3,1*%
%TO.N,220L*%
X76000000Y-84000000D03*
%TD*%
D25*
%TO.P,Q2,3*%
%TO.N,Net-(Q2-Pad3)*%
X94234000Y-76717400D03*
%TO.P,Q2,2*%
%TO.N,GND*%
X93284000Y-74717400D03*
%TO.P,Q2,1*%
%TO.N,Net-(Q2-Pad1)*%
X95184000Y-74717400D03*
%TD*%
%TO.P,Q1,3*%
%TO.N,Net-(Q1-Pad3)*%
X112077500Y-76755500D03*
%TO.P,Q1,2*%
%TO.N,GND*%
X111127500Y-74755500D03*
%TO.P,Q1,1*%
%TO.N,Net-(Q1-Pad1)*%
X113027500Y-74755500D03*
%TD*%
%TO.P,Q3,3*%
%TO.N,Net-(Q3-Pad3)*%
X75996800Y-76676000D03*
%TO.P,Q3,2*%
%TO.N,GND*%
X75046800Y-74676000D03*
%TO.P,Q3,1*%
%TO.N,Net-(Q3-Pad1)*%
X76946800Y-74676000D03*
%TD*%
D26*
%TO.P,U1,38*%
%TO.N,GND*%
X123070000Y-64745000D03*
%TO.P,U1,37*%
%TO.N,G23*%
X121800000Y-64745000D03*
%TO.P,U1,36*%
%TO.N,SCL*%
X120530000Y-64745000D03*
%TO.P,U1,35*%
%TO.N,TX*%
X119260000Y-64745000D03*
%TO.P,U1,34*%
%TO.N,RX*%
X117990000Y-64745000D03*
%TO.P,U1,33*%
%TO.N,SDA*%
X116720000Y-64745000D03*
%TO.P,U1,32*%
%TO.N,Net-(U1-Pad32)*%
X115450000Y-64745000D03*
%TO.P,U1,31*%
%TO.N,G19*%
X114180000Y-64745000D03*
%TO.P,U1,30*%
%TO.N,G18*%
X112910000Y-64745000D03*
%TO.P,U1,29*%
%TO.N,G5*%
X111640000Y-64745000D03*
%TO.P,U1,28*%
%TO.N,G17*%
X110370000Y-64745000D03*
%TO.P,U1,27*%
%TO.N,G16*%
X109100000Y-64745000D03*
%TO.P,U1,26*%
%TO.N,G4*%
X107830000Y-64745000D03*
%TO.P,U1,25*%
%TO.N,IO0*%
X106560000Y-64745000D03*
D27*
%TO.P,U1,24*%
%TO.N,Net-(U1-Pad24)*%
X105560000Y-61960000D03*
%TO.P,U1,23*%
%TO.N,Net-(U1-Pad23)*%
X105560000Y-60690000D03*
%TO.P,U1,22*%
%TO.N,Net-(U1-Pad22)*%
X105560000Y-59420000D03*
%TO.P,U1,21*%
%TO.N,Net-(U1-Pad21)*%
X105560000Y-58150000D03*
%TO.P,U1,20*%
%TO.N,Net-(U1-Pad20)*%
X105560000Y-56880000D03*
%TO.P,U1,19*%
%TO.N,Net-(U1-Pad19)*%
X105560000Y-55610000D03*
%TO.P,U1,18*%
%TO.N,Net-(U1-Pad18)*%
X105560000Y-54340000D03*
%TO.P,U1,17*%
%TO.N,Net-(U1-Pad17)*%
X105560000Y-53070000D03*
%TO.P,U1,16*%
%TO.N,Net-(U1-Pad16)*%
X105560000Y-51800000D03*
%TO.P,U1,15*%
%TO.N,GND*%
X105560000Y-50530000D03*
D26*
%TO.P,U1,14*%
%TO.N,Net-(U1-Pad14)*%
X106560000Y-47745000D03*
%TO.P,U1,13*%
%TO.N,Net-(U1-Pad13)*%
X107830000Y-47745000D03*
%TO.P,U1,12*%
%TO.N,G27*%
X109100000Y-47745000D03*
%TO.P,U1,11*%
%TO.N,G26*%
X110370000Y-47745000D03*
%TO.P,U1,10*%
%TO.N,G25*%
X111640000Y-47745000D03*
%TO.P,U1,9*%
%TO.N,G33*%
X112910000Y-47745000D03*
%TO.P,U1,8*%
%TO.N,G32*%
X114180000Y-47745000D03*
%TO.P,U1,7*%
%TO.N,Net-(U1-Pad7)*%
X115450000Y-47745000D03*
%TO.P,U1,6*%
%TO.N,Net-(U1-Pad6)*%
X116720000Y-47745000D03*
%TO.P,U1,5*%
%TO.N,Net-(U1-Pad5)*%
X117990000Y-47745000D03*
%TO.P,U1,4*%
%TO.N,Net-(U1-Pad4)*%
X119260000Y-47745000D03*
%TO.P,U1,3*%
%TO.N,EN*%
X120530000Y-47745000D03*
%TO.P,U1,2*%
%TO.N,+3V3*%
X121800000Y-47745000D03*
%TO.P,U1,1*%
%TO.N,GND*%
X123070000Y-47745000D03*
D28*
%TO.P,U1,39*%
X115570000Y-55245000D03*
%TD*%
D29*
%TO.P,H3,1*%
%TO.N,N/C*%
X45000000Y-109000000D03*
D30*
X47400000Y-109000000D03*
X46697056Y-110697056D03*
X45000000Y-111400000D03*
X43302944Y-110697056D03*
X42600000Y-109000000D03*
X43302944Y-107302944D03*
X45000000Y-106600000D03*
X46697056Y-107302944D03*
%TD*%
D29*
%TO.P,H4,1*%
%TO.N,N/C*%
X127000000Y-109000000D03*
D30*
X129400000Y-109000000D03*
X128697056Y-110697056D03*
X127000000Y-111400000D03*
X125302944Y-110697056D03*
X124600000Y-109000000D03*
X125302944Y-107302944D03*
X127000000Y-106600000D03*
X128697056Y-107302944D03*
%TD*%
D29*
%TO.P,H1,1*%
%TO.N,N/C*%
X127000000Y-27000000D03*
D30*
X129400000Y-27000000D03*
X128697056Y-28697056D03*
X127000000Y-29400000D03*
X125302944Y-28697056D03*
X124600000Y-27000000D03*
X125302944Y-25302944D03*
X127000000Y-24600000D03*
X128697056Y-25302944D03*
%TD*%
D29*
%TO.P,H2,1*%
%TO.N,N/C*%
X45000000Y-27000000D03*
D30*
X47400000Y-27000000D03*
X46697056Y-28697056D03*
X45000000Y-29400000D03*
X43302944Y-28697056D03*
X42600000Y-27000000D03*
X43302944Y-25302944D03*
X45000000Y-24600000D03*
X46697056Y-25302944D03*
%TD*%
%TO.P,LED3,2*%
%TO.N,+5V*%
%TA.AperFunction,SMDPad,CuDef*%
G36*
G01*
X80959200Y-75270200D02*
X80959200Y-76520200D01*
G75*
G02*
X80709200Y-76770200I-250000J0D01*
G01*
X79959200Y-76770200D01*
G75*
G02*
X79709200Y-76520200I0J250000D01*
G01*
X79709200Y-75270200D01*
G75*
G02*
X79959200Y-75020200I250000J0D01*
G01*
X80709200Y-75020200D01*
G75*
G02*
X80959200Y-75270200I0J-250000D01*
G01*
G37*
%TD.AperFunction*%
%TO.P,LED3,1*%
%TO.N,Net-(LED3-Pad1)*%
%TA.AperFunction,SMDPad,CuDef*%
G36*
G01*
X83759200Y-75270200D02*
X83759200Y-76520200D01*
G75*
G02*
X83509200Y-76770200I-250000J0D01*
G01*
X82759200Y-76770200D01*
G75*
G02*
X82509200Y-76520200I0J250000D01*
G01*
X82509200Y-75270200D01*
G75*
G02*
X82759200Y-75020200I250000J0D01*
G01*
X83509200Y-75020200D01*
G75*
G02*
X83759200Y-75270200I0J-250000D01*
G01*
G37*
%TD.AperFunction*%
%TD*%
%TO.P,R11,2*%
%TO.N,Net-(R11-Pad2)*%
%TA.AperFunction,SMDPad,CuDef*%
G36*
G01*
X97713500Y-48092197D02*
X97713500Y-49342203D01*
G75*
G02*
X97463503Y-49592200I-249997J0D01*
G01*
X96838497Y-49592200D01*
G75*
G02*
X96588500Y-49342203I0J249997D01*
G01*
X96588500Y-48092197D01*
G75*
G02*
X96838497Y-47842200I249997J0D01*
G01*
X97463503Y-47842200D01*
G75*
G02*
X97713500Y-48092197I0J-249997D01*
G01*
G37*
%TD.AperFunction*%
%TO.P,R11,1*%
%TO.N,+3V3*%
%TA.AperFunction,SMDPad,CuDef*%
G36*
G01*
X100638500Y-48092197D02*
X100638500Y-49342203D01*
G75*
G02*
X100388503Y-49592200I-249997J0D01*
G01*
X99763497Y-49592200D01*
G75*
G02*
X99513500Y-49342203I0J249997D01*
G01*
X99513500Y-48092197D01*
G75*
G02*
X99763497Y-47842200I249997J0D01*
G01*
X100388503Y-47842200D01*
G75*
G02*
X100638500Y-48092197I0J-249997D01*
G01*
G37*
%TD.AperFunction*%
%TD*%
%TO.P,LED1,2*%
%TO.N,+5V*%
%TA.AperFunction,SMDPad,CuDef*%
G36*
G01*
X116951000Y-75270200D02*
X116951000Y-76520200D01*
G75*
G02*
X116701000Y-76770200I-250000J0D01*
G01*
X115951000Y-76770200D01*
G75*
G02*
X115701000Y-76520200I0J250000D01*
G01*
X115701000Y-75270200D01*
G75*
G02*
X115951000Y-75020200I250000J0D01*
G01*
X116701000Y-75020200D01*
G75*
G02*
X116951000Y-75270200I0J-250000D01*
G01*
G37*
%TD.AperFunction*%
%TO.P,LED1,1*%
%TO.N,Net-(LED1-Pad1)*%
%TA.AperFunction,SMDPad,CuDef*%
G36*
G01*
X119751000Y-75270200D02*
X119751000Y-76520200D01*
G75*
G02*
X119501000Y-76770200I-250000J0D01*
G01*
X118751000Y-76770200D01*
G75*
G02*
X118501000Y-76520200I0J250000D01*
G01*
X118501000Y-75270200D01*
G75*
G02*
X118751000Y-75020200I250000J0D01*
G01*
X119501000Y-75020200D01*
G75*
G02*
X119751000Y-75270200I0J-250000D01*
G01*
G37*
%TD.AperFunction*%
%TD*%
%TO.P,LED2,2*%
%TO.N,+5V*%
%TA.AperFunction,SMDPad,CuDef*%
G36*
G01*
X98942400Y-75270200D02*
X98942400Y-76520200D01*
G75*
G02*
X98692400Y-76770200I-250000J0D01*
G01*
X97942400Y-76770200D01*
G75*
G02*
X97692400Y-76520200I0J250000D01*
G01*
X97692400Y-75270200D01*
G75*
G02*
X97942400Y-75020200I250000J0D01*
G01*
X98692400Y-75020200D01*
G75*
G02*
X98942400Y-75270200I0J-250000D01*
G01*
G37*
%TD.AperFunction*%
%TO.P,LED2,1*%
%TO.N,Net-(LED2-Pad1)*%
%TA.AperFunction,SMDPad,CuDef*%
G36*
G01*
X101742400Y-75270200D02*
X101742400Y-76520200D01*
G75*
G02*
X101492400Y-76770200I-250000J0D01*
G01*
X100742400Y-76770200D01*
G75*
G02*
X100492400Y-76520200I0J250000D01*
G01*
X100492400Y-75270200D01*
G75*
G02*
X100742400Y-75020200I250000J0D01*
G01*
X101492400Y-75020200D01*
G75*
G02*
X101742400Y-75270200I0J-250000D01*
G01*
G37*
%TD.AperFunction*%
%TD*%
%TO.P,LED4,2*%
%TO.N,+3V3*%
%TA.AperFunction,SMDPad,CuDef*%
G36*
G01*
X126962200Y-37912200D02*
X126962200Y-36662200D01*
G75*
G02*
X127212200Y-36412200I250000J0D01*
G01*
X127962200Y-36412200D01*
G75*
G02*
X128212200Y-36662200I0J-250000D01*
G01*
X128212200Y-37912200D01*
G75*
G02*
X127962200Y-38162200I-250000J0D01*
G01*
X127212200Y-38162200D01*
G75*
G02*
X126962200Y-37912200I0J250000D01*
G01*
G37*
%TD.AperFunction*%
%TO.P,LED4,1*%
%TO.N,Net-(LED4-Pad1)*%
%TA.AperFunction,SMDPad,CuDef*%
G36*
G01*
X124162200Y-37912200D02*
X124162200Y-36662200D01*
G75*
G02*
X124412200Y-36412200I250000J0D01*
G01*
X125162200Y-36412200D01*
G75*
G02*
X125412200Y-36662200I0J-250000D01*
G01*
X125412200Y-37912200D01*
G75*
G02*
X125162200Y-38162200I-250000J0D01*
G01*
X124412200Y-38162200D01*
G75*
G02*
X124162200Y-37912200I0J250000D01*
G01*
G37*
%TD.AperFunction*%
%TD*%
%TO.P,R12,2*%
%TO.N,Net-(LED4-Pad1)*%
%TA.AperFunction,SMDPad,CuDef*%
G36*
G01*
X120320100Y-37912203D02*
X120320100Y-36662197D01*
G75*
G02*
X120570097Y-36412200I249997J0D01*
G01*
X121195103Y-36412200D01*
G75*
G02*
X121445100Y-36662197I0J-249997D01*
G01*
X121445100Y-37912203D01*
G75*
G02*
X121195103Y-38162200I-249997J0D01*
G01*
X120570097Y-38162200D01*
G75*
G02*
X120320100Y-37912203I0J249997D01*
G01*
G37*
%TD.AperFunction*%
%TO.P,R12,1*%
%TO.N,GND*%
%TA.AperFunction,SMDPad,CuDef*%
G36*
G01*
X117395100Y-37912203D02*
X117395100Y-36662197D01*
G75*
G02*
X117645097Y-36412200I249997J0D01*
G01*
X118270103Y-36412200D01*
G75*
G02*
X118520100Y-36662197I0J-249997D01*
G01*
X118520100Y-37912203D01*
G75*
G02*
X118270103Y-38162200I-249997J0D01*
G01*
X117645097Y-38162200D01*
G75*
G02*
X117395100Y-37912203I0J249997D01*
G01*
G37*
%TD.AperFunction*%
%TD*%
%TO.P,C2,2*%
%TO.N,GND*%
%TA.AperFunction,SMDPad,CuDef*%
G36*
G01*
X121248800Y-41709101D02*
X121248800Y-40409099D01*
G75*
G02*
X121498799Y-40159100I249999J0D01*
G01*
X122148801Y-40159100D01*
G75*
G02*
X122398800Y-40409099I0J-249999D01*
G01*
X122398800Y-41709101D01*
G75*
G02*
X122148801Y-41959100I-249999J0D01*
G01*
X121498799Y-41959100D01*
G75*
G02*
X121248800Y-41709101I0J249999D01*
G01*
G37*
%TD.AperFunction*%
%TO.P,C2,1*%
%TO.N,+5V*%
%TA.AperFunction,SMDPad,CuDef*%
G36*
G01*
X118298800Y-41709101D02*
X118298800Y-40409099D01*
G75*
G02*
X118548799Y-40159100I249999J0D01*
G01*
X119198801Y-40159100D01*
G75*
G02*
X119448800Y-40409099I0J-249999D01*
G01*
X119448800Y-41709101D01*
G75*
G02*
X119198801Y-41959100I-249999J0D01*
G01*
X118548799Y-41959100D01*
G75*
G02*
X118298800Y-41709101I0J249999D01*
G01*
G37*
%TD.AperFunction*%
%TD*%
%TO.P,C3,2*%
%TO.N,GND*%
%TA.AperFunction,SMDPad,CuDef*%
G36*
G01*
X119445200Y-44130199D02*
X119445200Y-45430201D01*
G75*
G02*
X119195201Y-45680200I-249999J0D01*
G01*
X118545199Y-45680200D01*
G75*
G02*
X118295200Y-45430201I0J249999D01*
G01*
X118295200Y-44130199D01*
G75*
G02*
X118545199Y-43880200I249999J0D01*
G01*
X119195201Y-43880200D01*
G75*
G02*
X119445200Y-44130199I0J-249999D01*
G01*
G37*
%TD.AperFunction*%
%TO.P,C3,1*%
%TO.N,+3V3*%
%TA.AperFunction,SMDPad,CuDef*%
G36*
G01*
X122395200Y-44130199D02*
X122395200Y-45430201D01*
G75*
G02*
X122145201Y-45680200I-249999J0D01*
G01*
X121495199Y-45680200D01*
G75*
G02*
X121245200Y-45430201I0J249999D01*
G01*
X121245200Y-44130199D01*
G75*
G02*
X121495199Y-43880200I249999J0D01*
G01*
X122145201Y-43880200D01*
G75*
G02*
X122395200Y-44130199I0J-249999D01*
G01*
G37*
%TD.AperFunction*%
%TD*%
%TO.P,C1,2*%
%TO.N,GND*%
%TA.AperFunction,SMDPad,CuDef*%
G36*
G01*
X57325499Y-28141500D02*
X58625501Y-28141500D01*
G75*
G02*
X58875500Y-28391499I0J-249999D01*
G01*
X58875500Y-29041501D01*
G75*
G02*
X58625501Y-29291500I-249999J0D01*
G01*
X57325499Y-29291500D01*
G75*
G02*
X57075500Y-29041501I0J249999D01*
G01*
X57075500Y-28391499D01*
G75*
G02*
X57325499Y-28141500I249999J0D01*
G01*
G37*
%TD.AperFunction*%
%TO.P,C1,1*%
%TO.N,+5V*%
%TA.AperFunction,SMDPad,CuDef*%
G36*
G01*
X57325499Y-25191500D02*
X58625501Y-25191500D01*
G75*
G02*
X58875500Y-25441499I0J-249999D01*
G01*
X58875500Y-26091501D01*
G75*
G02*
X58625501Y-26341500I-249999J0D01*
G01*
X57325499Y-26341500D01*
G75*
G02*
X57075500Y-26091501I0J249999D01*
G01*
X57075500Y-25441499D01*
G75*
G02*
X57325499Y-25191500I249999J0D01*
G01*
G37*
%TD.AperFunction*%
%TD*%
%TO.P,R9,2*%
%TO.N,+3V3*%
%TA.AperFunction,SMDPad,CuDef*%
G36*
G01*
X87024100Y-43609097D02*
X87024100Y-44859103D01*
G75*
G02*
X86774103Y-45109100I-249997J0D01*
G01*
X86149097Y-45109100D01*
G75*
G02*
X85899100Y-44859103I0J249997D01*
G01*
X85899100Y-43609097D01*
G75*
G02*
X86149097Y-43359100I249997J0D01*
G01*
X86774103Y-43359100D01*
G75*
G02*
X87024100Y-43609097I0J-249997D01*
G01*
G37*
%TD.AperFunction*%
%TO.P,R9,1*%
%TO.N,SCL*%
%TA.AperFunction,SMDPad,CuDef*%
G36*
G01*
X89949100Y-43609097D02*
X89949100Y-44859103D01*
G75*
G02*
X89699103Y-45109100I-249997J0D01*
G01*
X89074097Y-45109100D01*
G75*
G02*
X88824100Y-44859103I0J249997D01*
G01*
X88824100Y-43609097D01*
G75*
G02*
X89074097Y-43359100I249997J0D01*
G01*
X89699103Y-43359100D01*
G75*
G02*
X89949100Y-43609097I0J-249997D01*
G01*
G37*
%TD.AperFunction*%
%TD*%
%TO.P,R8,2*%
%TO.N,SDA*%
%TA.AperFunction,SMDPad,CuDef*%
G36*
G01*
X88798700Y-58829103D02*
X88798700Y-57579097D01*
G75*
G02*
X89048697Y-57329100I249997J0D01*
G01*
X89673703Y-57329100D01*
G75*
G02*
X89923700Y-57579097I0J-249997D01*
G01*
X89923700Y-58829103D01*
G75*
G02*
X89673703Y-59079100I-249997J0D01*
G01*
X89048697Y-59079100D01*
G75*
G02*
X88798700Y-58829103I0J249997D01*
G01*
G37*
%TD.AperFunction*%
%TO.P,R8,1*%
%TO.N,+3V3*%
%TA.AperFunction,SMDPad,CuDef*%
G36*
G01*
X85873700Y-58829103D02*
X85873700Y-57579097D01*
G75*
G02*
X86123697Y-57329100I249997J0D01*
G01*
X86748703Y-57329100D01*
G75*
G02*
X86998700Y-57579097I0J-249997D01*
G01*
X86998700Y-58829103D01*
G75*
G02*
X86748703Y-59079100I-249997J0D01*
G01*
X86123697Y-59079100D01*
G75*
G02*
X85873700Y-58829103I0J249997D01*
G01*
G37*
%TD.AperFunction*%
%TD*%
%TO.P,R7,2*%
%TO.N,Net-(Q3-Pad1)*%
%TA.AperFunction,SMDPad,CuDef*%
G36*
G01*
X71243300Y-76520203D02*
X71243300Y-75270197D01*
G75*
G02*
X71493297Y-75020200I249997J0D01*
G01*
X72118303Y-75020200D01*
G75*
G02*
X72368300Y-75270197I0J-249997D01*
G01*
X72368300Y-76520203D01*
G75*
G02*
X72118303Y-76770200I-249997J0D01*
G01*
X71493297Y-76770200D01*
G75*
G02*
X71243300Y-76520203I0J249997D01*
G01*
G37*
%TD.AperFunction*%
%TO.P,R7,1*%
%TO.N,G25*%
%TA.AperFunction,SMDPad,CuDef*%
G36*
G01*
X68318300Y-76520203D02*
X68318300Y-75270197D01*
G75*
G02*
X68568297Y-75020200I249997J0D01*
G01*
X69193303Y-75020200D01*
G75*
G02*
X69443300Y-75270197I0J-249997D01*
G01*
X69443300Y-76520203D01*
G75*
G02*
X69193303Y-76770200I-249997J0D01*
G01*
X68568297Y-76770200D01*
G75*
G02*
X68318300Y-76520203I0J249997D01*
G01*
G37*
%TD.AperFunction*%
%TD*%
%TO.P,R6,2*%
%TO.N,Net-(D3-Pad2)*%
%TA.AperFunction,SMDPad,CuDef*%
G36*
G01*
X71192500Y-80254003D02*
X71192500Y-79003997D01*
G75*
G02*
X71442497Y-78754000I249997J0D01*
G01*
X72067503Y-78754000D01*
G75*
G02*
X72317500Y-79003997I0J-249997D01*
G01*
X72317500Y-80254003D01*
G75*
G02*
X72067503Y-80504000I-249997J0D01*
G01*
X71442497Y-80504000D01*
G75*
G02*
X71192500Y-80254003I0J249997D01*
G01*
G37*
%TD.AperFunction*%
%TO.P,R6,1*%
%TO.N,Net-(Q3-Pad3)*%
%TA.AperFunction,SMDPad,CuDef*%
G36*
G01*
X68267500Y-80254003D02*
X68267500Y-79003997D01*
G75*
G02*
X68517497Y-78754000I249997J0D01*
G01*
X69142503Y-78754000D01*
G75*
G02*
X69392500Y-79003997I0J-249997D01*
G01*
X69392500Y-80254003D01*
G75*
G02*
X69142503Y-80504000I-249997J0D01*
G01*
X68517497Y-80504000D01*
G75*
G02*
X68267500Y-80254003I0J249997D01*
G01*
G37*
%TD.AperFunction*%
%TD*%
%TO.P,R4,2*%
%TO.N,Net-(D2-Pad2)*%
%TA.AperFunction,SMDPad,CuDef*%
G36*
G01*
X89175700Y-80279403D02*
X89175700Y-79029397D01*
G75*
G02*
X89425697Y-78779400I249997J0D01*
G01*
X90050703Y-78779400D01*
G75*
G02*
X90300700Y-79029397I0J-249997D01*
G01*
X90300700Y-80279403D01*
G75*
G02*
X90050703Y-80529400I-249997J0D01*
G01*
X89425697Y-80529400D01*
G75*
G02*
X89175700Y-80279403I0J249997D01*
G01*
G37*
%TD.AperFunction*%
%TO.P,R4,1*%
%TO.N,Net-(Q2-Pad3)*%
%TA.AperFunction,SMDPad,CuDef*%
G36*
G01*
X86250700Y-80279403D02*
X86250700Y-79029397D01*
G75*
G02*
X86500697Y-78779400I249997J0D01*
G01*
X87125703Y-78779400D01*
G75*
G02*
X87375700Y-79029397I0J-249997D01*
G01*
X87375700Y-80279403D01*
G75*
G02*
X87125703Y-80529400I-249997J0D01*
G01*
X86500697Y-80529400D01*
G75*
G02*
X86250700Y-80279403I0J249997D01*
G01*
G37*
%TD.AperFunction*%
%TD*%
%TO.P,R3,2*%
%TO.N,Net-(Q2-Pad1)*%
%TA.AperFunction,SMDPad,CuDef*%
G36*
G01*
X89128900Y-76520203D02*
X89128900Y-75270197D01*
G75*
G02*
X89378897Y-75020200I249997J0D01*
G01*
X90003903Y-75020200D01*
G75*
G02*
X90253900Y-75270197I0J-249997D01*
G01*
X90253900Y-76520203D01*
G75*
G02*
X90003903Y-76770200I-249997J0D01*
G01*
X89378897Y-76770200D01*
G75*
G02*
X89128900Y-76520203I0J249997D01*
G01*
G37*
%TD.AperFunction*%
%TO.P,R3,1*%
%TO.N,G4*%
%TA.AperFunction,SMDPad,CuDef*%
G36*
G01*
X86203900Y-76520203D02*
X86203900Y-75270197D01*
G75*
G02*
X86453897Y-75020200I249997J0D01*
G01*
X87078903Y-75020200D01*
G75*
G02*
X87328900Y-75270197I0J-249997D01*
G01*
X87328900Y-76520203D01*
G75*
G02*
X87078903Y-76770200I-249997J0D01*
G01*
X86453897Y-76770200D01*
G75*
G02*
X86203900Y-76520203I0J249997D01*
G01*
G37*
%TD.AperFunction*%
%TD*%
%TO.P,R2,2*%
%TO.N,Net-(D1-Pad2)*%
%TA.AperFunction,SMDPad,CuDef*%
G36*
G01*
X107197000Y-80254003D02*
X107197000Y-79003997D01*
G75*
G02*
X107446997Y-78754000I249997J0D01*
G01*
X108072003Y-78754000D01*
G75*
G02*
X108322000Y-79003997I0J-249997D01*
G01*
X108322000Y-80254003D01*
G75*
G02*
X108072003Y-80504000I-249997J0D01*
G01*
X107446997Y-80504000D01*
G75*
G02*
X107197000Y-80254003I0J249997D01*
G01*
G37*
%TD.AperFunction*%
%TO.P,R2,1*%
%TO.N,Net-(Q1-Pad3)*%
%TA.AperFunction,SMDPad,CuDef*%
G36*
G01*
X104272000Y-80254003D02*
X104272000Y-79003997D01*
G75*
G02*
X104521997Y-78754000I249997J0D01*
G01*
X105147003Y-78754000D01*
G75*
G02*
X105397000Y-79003997I0J-249997D01*
G01*
X105397000Y-80254003D01*
G75*
G02*
X105147003Y-80504000I-249997J0D01*
G01*
X104521997Y-80504000D01*
G75*
G02*
X104272000Y-80254003I0J249997D01*
G01*
G37*
%TD.AperFunction*%
%TD*%
%TO.P,R1,2*%
%TO.N,Net-(Q1-Pad1)*%
%TA.AperFunction,SMDPad,CuDef*%
G36*
G01*
X107197000Y-76507503D02*
X107197000Y-75257497D01*
G75*
G02*
X107446997Y-75007500I249997J0D01*
G01*
X108072003Y-75007500D01*
G75*
G02*
X108322000Y-75257497I0J-249997D01*
G01*
X108322000Y-76507503D01*
G75*
G02*
X108072003Y-76757500I-249997J0D01*
G01*
X107446997Y-76757500D01*
G75*
G02*
X107197000Y-76507503I0J249997D01*
G01*
G37*
%TD.AperFunction*%
%TO.P,R1,1*%
%TO.N,G5*%
%TA.AperFunction,SMDPad,CuDef*%
G36*
G01*
X104272000Y-76507503D02*
X104272000Y-75257497D01*
G75*
G02*
X104521997Y-75007500I249997J0D01*
G01*
X105147003Y-75007500D01*
G75*
G02*
X105397000Y-75257497I0J-249997D01*
G01*
X105397000Y-76507503D01*
G75*
G02*
X105147003Y-76757500I-249997J0D01*
G01*
X104521997Y-76757500D01*
G75*
G02*
X104272000Y-76507503I0J249997D01*
G01*
G37*
%TD.AperFunction*%
%TD*%
%TO.P,R5,2*%
%TO.N,Net-(ALED1-Pad4)*%
%TA.AperFunction,SMDPad,CuDef*%
G36*
G01*
X53920500Y-34597503D02*
X53920500Y-33347497D01*
G75*
G02*
X54170497Y-33097500I249997J0D01*
G01*
X54795503Y-33097500D01*
G75*
G02*
X55045500Y-33347497I0J-249997D01*
G01*
X55045500Y-34597503D01*
G75*
G02*
X54795503Y-34847500I-249997J0D01*
G01*
X54170497Y-34847500D01*
G75*
G02*
X53920500Y-34597503I0J249997D01*
G01*
G37*
%TD.AperFunction*%
%TO.P,R5,1*%
%TO.N,G23*%
%TA.AperFunction,SMDPad,CuDef*%
G36*
G01*
X50995500Y-34597503D02*
X50995500Y-33347497D01*
G75*
G02*
X51245497Y-33097500I249997J0D01*
G01*
X51870503Y-33097500D01*
G75*
G02*
X52120500Y-33347497I0J-249997D01*
G01*
X52120500Y-34597503D01*
G75*
G02*
X51870503Y-34847500I-249997J0D01*
G01*
X51245497Y-34847500D01*
G75*
G02*
X50995500Y-34597503I0J249997D01*
G01*
G37*
%TD.AperFunction*%
%TD*%
D31*
%TO.P,SW1,2*%
%TO.N,Net-(R11-Pad2)*%
X97219000Y-43840400D03*
%TO.P,SW1,1*%
%TO.N,GND*%
X103949000Y-43840400D03*
%TD*%
%TO.P,U2,16*%
%TO.N,SCL*%
%TA.AperFunction,SMDPad,CuDef*%
G36*
G01*
X90645400Y-47076500D02*
X90645400Y-46776500D01*
G75*
G02*
X90795400Y-46626500I150000J0D01*
G01*
X92545400Y-46626500D01*
G75*
G02*
X92695400Y-46776500I0J-150000D01*
G01*
X92695400Y-47076500D01*
G75*
G02*
X92545400Y-47226500I-150000J0D01*
G01*
X90795400Y-47226500D01*
G75*
G02*
X90645400Y-47076500I0J150000D01*
G01*
G37*
%TD.AperFunction*%
%TO.P,U2,15*%
%TO.N,SDA*%
%TA.AperFunction,SMDPad,CuDef*%
G36*
G01*
X90645400Y-48346500D02*
X90645400Y-48046500D01*
G75*
G02*
X90795400Y-47896500I150000J0D01*
G01*
X92545400Y-47896500D01*
G75*
G02*
X92695400Y-48046500I0J-150000D01*
G01*
X92695400Y-48346500D01*
G75*
G02*
X92545400Y-48496500I-150000J0D01*
G01*
X90795400Y-48496500D01*
G75*
G02*
X90645400Y-48346500I0J150000D01*
G01*
G37*
%TD.AperFunction*%
%TO.P,U2,14*%
%TO.N,Net-(R13-Pad2)*%
%TA.AperFunction,SMDPad,CuDef*%
G36*
G01*
X90645400Y-49616500D02*
X90645400Y-49316500D01*
G75*
G02*
X90795400Y-49166500I150000J0D01*
G01*
X92545400Y-49166500D01*
G75*
G02*
X92695400Y-49316500I0J-150000D01*
G01*
X92695400Y-49616500D01*
G75*
G02*
X92545400Y-49766500I-150000J0D01*
G01*
X90795400Y-49766500D01*
G75*
G02*
X90645400Y-49616500I0J150000D01*
G01*
G37*
%TD.AperFunction*%
%TO.P,U2,13*%
%TO.N,GND*%
%TA.AperFunction,SMDPad,CuDef*%
G36*
G01*
X90645400Y-50886500D02*
X90645400Y-50586500D01*
G75*
G02*
X90795400Y-50436500I150000J0D01*
G01*
X92545400Y-50436500D01*
G75*
G02*
X92695400Y-50586500I0J-150000D01*
G01*
X92695400Y-50886500D01*
G75*
G02*
X92545400Y-51036500I-150000J0D01*
G01*
X90795400Y-51036500D01*
G75*
G02*
X90645400Y-50886500I0J150000D01*
G01*
G37*
%TD.AperFunction*%
%TO.P,U2,12*%
%TA.AperFunction,SMDPad,CuDef*%
G36*
G01*
X90645400Y-52156500D02*
X90645400Y-51856500D01*
G75*
G02*
X90795400Y-51706500I150000J0D01*
G01*
X92545400Y-51706500D01*
G75*
G02*
X92695400Y-51856500I0J-150000D01*
G01*
X92695400Y-52156500D01*
G75*
G02*
X92545400Y-52306500I-150000J0D01*
G01*
X90795400Y-52306500D01*
G75*
G02*
X90645400Y-52156500I0J150000D01*
G01*
G37*
%TD.AperFunction*%
%TO.P,U2,11*%
%TA.AperFunction,SMDPad,CuDef*%
G36*
G01*
X90645400Y-53426500D02*
X90645400Y-53126500D01*
G75*
G02*
X90795400Y-52976500I150000J0D01*
G01*
X92545400Y-52976500D01*
G75*
G02*
X92695400Y-53126500I0J-150000D01*
G01*
X92695400Y-53426500D01*
G75*
G02*
X92545400Y-53576500I-150000J0D01*
G01*
X90795400Y-53576500D01*
G75*
G02*
X90645400Y-53426500I0J150000D01*
G01*
G37*
%TD.AperFunction*%
%TO.P,U2,10*%
%TA.AperFunction,SMDPad,CuDef*%
G36*
G01*
X90645400Y-54696500D02*
X90645400Y-54396500D01*
G75*
G02*
X90795400Y-54246500I150000J0D01*
G01*
X92545400Y-54246500D01*
G75*
G02*
X92695400Y-54396500I0J-150000D01*
G01*
X92695400Y-54696500D01*
G75*
G02*
X92545400Y-54846500I-150000J0D01*
G01*
X90795400Y-54846500D01*
G75*
G02*
X90645400Y-54696500I0J150000D01*
G01*
G37*
%TD.AperFunction*%
%TO.P,U2,9*%
%TA.AperFunction,SMDPad,CuDef*%
G36*
G01*
X90645400Y-55966500D02*
X90645400Y-55666500D01*
G75*
G02*
X90795400Y-55516500I150000J0D01*
G01*
X92545400Y-55516500D01*
G75*
G02*
X92695400Y-55666500I0J-150000D01*
G01*
X92695400Y-55966500D01*
G75*
G02*
X92545400Y-56116500I-150000J0D01*
G01*
X90795400Y-56116500D01*
G75*
G02*
X90645400Y-55966500I0J150000D01*
G01*
G37*
%TD.AperFunction*%
%TO.P,U2,8*%
%TA.AperFunction,SMDPad,CuDef*%
G36*
G01*
X81345400Y-55966500D02*
X81345400Y-55666500D01*
G75*
G02*
X81495400Y-55516500I150000J0D01*
G01*
X83245400Y-55516500D01*
G75*
G02*
X83395400Y-55666500I0J-150000D01*
G01*
X83395400Y-55966500D01*
G75*
G02*
X83245400Y-56116500I-150000J0D01*
G01*
X81495400Y-56116500D01*
G75*
G02*
X81345400Y-55966500I0J150000D01*
G01*
G37*
%TD.AperFunction*%
%TO.P,U2,7*%
%TA.AperFunction,SMDPad,CuDef*%
G36*
G01*
X81345400Y-54696500D02*
X81345400Y-54396500D01*
G75*
G02*
X81495400Y-54246500I150000J0D01*
G01*
X83245400Y-54246500D01*
G75*
G02*
X83395400Y-54396500I0J-150000D01*
G01*
X83395400Y-54696500D01*
G75*
G02*
X83245400Y-54846500I-150000J0D01*
G01*
X81495400Y-54846500D01*
G75*
G02*
X81345400Y-54696500I0J150000D01*
G01*
G37*
%TD.AperFunction*%
%TO.P,U2,6*%
%TA.AperFunction,SMDPad,CuDef*%
G36*
G01*
X81345400Y-53426500D02*
X81345400Y-53126500D01*
G75*
G02*
X81495400Y-52976500I150000J0D01*
G01*
X83245400Y-52976500D01*
G75*
G02*
X83395400Y-53126500I0J-150000D01*
G01*
X83395400Y-53426500D01*
G75*
G02*
X83245400Y-53576500I-150000J0D01*
G01*
X81495400Y-53576500D01*
G75*
G02*
X81345400Y-53426500I0J150000D01*
G01*
G37*
%TD.AperFunction*%
%TO.P,U2,5*%
%TA.AperFunction,SMDPad,CuDef*%
G36*
G01*
X81345400Y-52156500D02*
X81345400Y-51856500D01*
G75*
G02*
X81495400Y-51706500I150000J0D01*
G01*
X83245400Y-51706500D01*
G75*
G02*
X83395400Y-51856500I0J-150000D01*
G01*
X83395400Y-52156500D01*
G75*
G02*
X83245400Y-52306500I-150000J0D01*
G01*
X81495400Y-52306500D01*
G75*
G02*
X81345400Y-52156500I0J150000D01*
G01*
G37*
%TD.AperFunction*%
%TO.P,U2,4*%
%TO.N,Net-(U2-Pad4)*%
%TA.AperFunction,SMDPad,CuDef*%
G36*
G01*
X81345400Y-50886500D02*
X81345400Y-50586500D01*
G75*
G02*
X81495400Y-50436500I150000J0D01*
G01*
X83245400Y-50436500D01*
G75*
G02*
X83395400Y-50586500I0J-150000D01*
G01*
X83395400Y-50886500D01*
G75*
G02*
X83245400Y-51036500I-150000J0D01*
G01*
X81495400Y-51036500D01*
G75*
G02*
X81345400Y-50886500I0J150000D01*
G01*
G37*
%TD.AperFunction*%
%TO.P,U2,3*%
%TO.N,Net-(U2-Pad3)*%
%TA.AperFunction,SMDPad,CuDef*%
G36*
G01*
X81345400Y-49616500D02*
X81345400Y-49316500D01*
G75*
G02*
X81495400Y-49166500I150000J0D01*
G01*
X83245400Y-49166500D01*
G75*
G02*
X83395400Y-49316500I0J-150000D01*
G01*
X83395400Y-49616500D01*
G75*
G02*
X83245400Y-49766500I-150000J0D01*
G01*
X81495400Y-49766500D01*
G75*
G02*
X81345400Y-49616500I0J150000D01*
G01*
G37*
%TD.AperFunction*%
%TO.P,U2,2*%
%TO.N,+3V3*%
%TA.AperFunction,SMDPad,CuDef*%
G36*
G01*
X81345400Y-48346500D02*
X81345400Y-48046500D01*
G75*
G02*
X81495400Y-47896500I150000J0D01*
G01*
X83245400Y-47896500D01*
G75*
G02*
X83395400Y-48046500I0J-150000D01*
G01*
X83395400Y-48346500D01*
G75*
G02*
X83245400Y-48496500I-150000J0D01*
G01*
X81495400Y-48496500D01*
G75*
G02*
X81345400Y-48346500I0J150000D01*
G01*
G37*
%TD.AperFunction*%
%TO.P,U2,1*%
%TO.N,Net-(U2-Pad1)*%
%TA.AperFunction,SMDPad,CuDef*%
G36*
G01*
X81345400Y-47076500D02*
X81345400Y-46776500D01*
G75*
G02*
X81495400Y-46626500I150000J0D01*
G01*
X83245400Y-46626500D01*
G75*
G02*
X83395400Y-46776500I0J-150000D01*
G01*
X83395400Y-47076500D01*
G75*
G02*
X83245400Y-47226500I-150000J0D01*
G01*
X81495400Y-47226500D01*
G75*
G02*
X81345400Y-47076500I0J150000D01*
G01*
G37*
%TD.AperFunction*%
%TD*%
D20*
%TO.P,S3,2*%
%TO.N,220N*%
X78580000Y-108712000D03*
D21*
%TO.P,S3,1*%
%TO.N,Net-(RE3-Pad3)*%
X73500000Y-108712000D03*
%TD*%
D20*
%TO.P,S2,2*%
%TO.N,220N*%
X96580000Y-108712000D03*
D21*
%TO.P,S2,1*%
%TO.N,Net-(RE2-Pad3)*%
X91500000Y-108712000D03*
%TD*%
D20*
%TO.P,S1,2*%
%TO.N,220N*%
X114580000Y-108712000D03*
D21*
%TO.P,S1,1*%
%TO.N,Net-(RE1-Pad3)*%
X109500000Y-108712000D03*
%TD*%
D20*
%TO.P,S0,2*%
%TO.N,220L*%
X126873000Y-92837000D03*
D21*
%TO.P,S0,1*%
%TO.N,220N*%
X126873000Y-97917000D03*
%TD*%
D32*
%TO.P,ALED1,1*%
%TO.N,+5V*%
X54483000Y-25834000D03*
%TO.P,ALED1,2*%
%TO.N,Net-(ALED1-Pad2)*%
X51283000Y-25834000D03*
%TO.P,ALED1,4*%
%TO.N,Net-(ALED1-Pad4)*%
X54483000Y-30734000D03*
%TO.P,ALED1,3*%
%TO.N,GND*%
X51283000Y-30734000D03*
%TD*%
D13*
%TO.P,i2c4,4*%
%TO.N,SCL*%
X50038000Y-65151000D03*
%TO.P,i2c4,3*%
%TO.N,SDA*%
X50038000Y-62611000D03*
%TO.P,i2c4,2*%
%TO.N,+3V3*%
X50038000Y-60071000D03*
D14*
%TO.P,i2c4,1*%
%TO.N,GND*%
X50038000Y-57531000D03*
%TD*%
D13*
%TO.P,i2c3,4*%
%TO.N,SCL*%
X46228000Y-65151000D03*
%TO.P,i2c3,3*%
%TO.N,SDA*%
X46228000Y-62611000D03*
%TO.P,i2c3,2*%
%TO.N,+5V*%
X46228000Y-60071000D03*
D14*
%TO.P,i2c3,1*%
%TO.N,GND*%
X46228000Y-57531000D03*
%TD*%
D33*
%TO.N,GND*%
X54292500Y-107632500D03*
X118440200Y-55219600D03*
X104190800Y-50546000D03*
X57975500Y-27749500D03*
X74282300Y-74676000D03*
X118033800Y-44805600D03*
X92570300Y-74726800D03*
X110413800Y-74777600D03*
X90297000Y-55816500D03*
X83820000Y-55816500D03*
X122872500Y-46101000D03*
X122682000Y-41059100D03*
X122872500Y-63182500D03*
X101904800Y-45466000D03*
X114833400Y-44754800D03*
X118173500Y-27686000D03*
X118745000Y-37274500D03*
%TO.N,SCL*%
X97802700Y-65963800D03*
X97802700Y-67957700D03*
%TO.N,G19*%
X103759000Y-38227000D03*
X114180000Y-63398400D03*
%TO.N,G18*%
X102743000Y-38227000D03*
X112910000Y-63398400D03*
%TO.N,G5*%
X111645700Y-66090800D03*
X104838500Y-74739500D03*
%TO.N,G17*%
X101727000Y-38227000D03*
X110370000Y-63398400D03*
%TO.N,G16*%
X100711000Y-38227000D03*
X109100000Y-63398400D03*
%TO.N,G4*%
X107835700Y-66090800D03*
X86753700Y-74714100D03*
%TO.N,TX*%
X119265700Y-66090800D03*
%TO.N,RX*%
X117995700Y-66090800D03*
%TO.N,+3V3*%
X109829600Y-41402000D03*
X113487200Y-41402000D03*
%TO.N,+5V*%
X124088401Y-40487600D03*
X112460300Y-25766500D03*
X129489200Y-32969200D03*
X81965800Y-78130400D03*
X117866200Y-78105000D03*
X99923600Y-78105000D03*
%TO.N,G23*%
X50673000Y-33972500D03*
X57785000Y-40640000D03*
X85064600Y-40640000D03*
X87985600Y-40640000D03*
%TO.N,G25*%
X112445800Y-51587400D03*
X107645200Y-62179200D03*
X111633000Y-49123600D03*
X98399600Y-70866000D03*
%TO.N,IO0*%
X106565700Y-66065400D03*
X102298500Y-69202300D03*
%TO.N,EN*%
X107442000Y-57759600D03*
X120530000Y-60889500D03*
%TO.N,G32*%
X116471700Y-45707300D03*
X116471700Y-35572700D03*
%TO.N,Net-(R13-Pad2)*%
X97078800Y-51498500D03*
X56184800Y-66243200D03*
X46990000Y-68681600D03*
X93091000Y-49466500D03*
X93167200Y-66243200D03*
%TD*%
D34*
%TO.N,GND*%
X117475000Y-57150000D02*
X115570000Y-55245000D01*
D35*
X57863000Y-28829000D02*
X57975500Y-28716500D01*
X53188000Y-28829000D02*
X57863000Y-28829000D01*
X51283000Y-30734000D02*
X53188000Y-28829000D01*
X105576000Y-50546000D02*
X105560000Y-50530000D01*
X57988200Y-28729200D02*
X57975500Y-28716500D01*
D36*
X91670400Y-55816500D02*
X91670400Y-50736500D01*
X82370400Y-55816500D02*
X82370400Y-52006500D01*
X83820000Y-55816500D02*
X82370400Y-55816500D01*
D35*
X114835500Y-43688000D02*
X114821500Y-43702000D01*
X54292500Y-107632500D02*
X54292500Y-105993000D01*
X57990000Y-28702000D02*
X57975500Y-28716500D01*
X105544000Y-50546000D02*
X105560000Y-50530000D01*
X104190800Y-50546000D02*
X105544000Y-50546000D01*
X118844800Y-44805600D02*
X118870200Y-44780200D01*
X118033800Y-44805600D02*
X118844800Y-44805600D01*
X123088400Y-47726600D02*
X123070000Y-47745000D01*
X123063000Y-64738000D02*
X123070000Y-64745000D01*
X115595400Y-55219600D02*
X115570000Y-55245000D01*
X118440200Y-55219600D02*
X115595400Y-55219600D01*
D36*
X90297000Y-55816500D02*
X91670400Y-55816500D01*
D35*
X123070000Y-46298500D02*
X122872500Y-46101000D01*
X123070000Y-47745000D02*
X123070000Y-46298500D01*
X123070000Y-63380000D02*
X122872500Y-63182500D01*
X123070000Y-64745000D02*
X123070000Y-63380000D01*
X122682000Y-41059100D02*
X121823800Y-41059100D01*
X57975500Y-27749500D02*
X57975500Y-28716500D01*
D34*
X101904800Y-45466000D02*
X103530400Y-45466000D01*
X103949000Y-45047400D02*
X103949000Y-43840400D01*
X103530400Y-45466000D02*
X103949000Y-45047400D01*
D35*
X114833400Y-43713900D02*
X114821500Y-43702000D01*
X114833400Y-44754800D02*
X114833400Y-43713900D01*
X118173500Y-27686000D02*
X118872000Y-27686000D01*
X117970300Y-37274500D02*
X117957600Y-37287200D01*
X118745000Y-37274500D02*
X117970300Y-37274500D01*
X111125000Y-74753000D02*
X111127500Y-74755500D01*
X93294200Y-74707200D02*
X93284000Y-74717400D01*
X111105400Y-74777600D02*
X111127500Y-74755500D01*
X110413800Y-74777600D02*
X111105400Y-74777600D01*
X93274600Y-74726800D02*
X93284000Y-74717400D01*
X92570300Y-74726800D02*
X93274600Y-74726800D01*
X74282300Y-74676000D02*
X75046800Y-74676000D01*
D34*
%TO.N,SCL*%
X120523000Y-64738000D02*
X120530000Y-64745000D01*
X50038000Y-65151000D02*
X46228000Y-65151000D01*
X46228000Y-65151000D02*
X45528090Y-65151000D01*
X47416590Y-41863000D02*
X48196500Y-41863000D01*
X91668600Y-46924700D02*
X91670400Y-46926500D01*
X48196500Y-41863000D02*
X44941500Y-41863000D01*
X44941500Y-41863000D02*
X43053000Y-43751500D01*
X43053000Y-43751500D02*
X43053000Y-64008000D01*
X44196000Y-65151000D02*
X46228000Y-65151000D01*
X43053000Y-64008000D02*
X44196000Y-65151000D01*
X54127400Y-69240400D02*
X50038000Y-65151000D01*
X91670400Y-46926500D02*
X90220800Y-46926500D01*
X89386600Y-46092300D02*
X89386600Y-44234100D01*
X90220800Y-46926500D02*
X89386600Y-46092300D01*
X97828100Y-67932300D02*
X97802700Y-67957700D01*
X118592700Y-67932300D02*
X97828100Y-67932300D01*
X120530000Y-65995000D02*
X118592700Y-67932300D01*
X120530000Y-64745000D02*
X120530000Y-65995000D01*
X97802700Y-67957700D02*
X96532700Y-67957700D01*
X95250000Y-69240400D02*
X54127400Y-69240400D01*
X96532700Y-67957700D02*
X95250000Y-69240400D01*
X92695400Y-46926500D02*
X91670400Y-46926500D01*
X94310200Y-48541300D02*
X92695400Y-46926500D01*
X94310200Y-62471300D02*
X94310200Y-48541300D01*
X97802700Y-65963800D02*
X94310200Y-62471300D01*
%TO.N,SDA*%
X50038000Y-62611000D02*
X46228000Y-62611000D01*
X46228000Y-62611000D02*
X45021500Y-62611000D01*
X45021500Y-62611000D02*
X44259500Y-61849000D01*
X44259500Y-61849000D02*
X44259500Y-45656500D01*
X45553000Y-44363000D02*
X48196500Y-44363000D01*
X44259500Y-45656500D02*
X45553000Y-44363000D01*
X116713000Y-64738000D02*
X116720000Y-64745000D01*
X89361200Y-58204100D02*
X89361200Y-49056100D01*
X90220800Y-48196500D02*
X91670400Y-48196500D01*
X89361200Y-49056100D02*
X90220800Y-48196500D01*
X55302990Y-67875990D02*
X50038000Y-62611000D01*
X116720000Y-65995000D02*
X115735200Y-66979800D01*
X116720000Y-64745000D02*
X116720000Y-65995000D01*
X95480280Y-66979800D02*
X94584090Y-67875990D01*
X94584090Y-67875990D02*
X55302990Y-67875990D01*
X115735200Y-66979800D02*
X100406200Y-66979800D01*
X100406200Y-66979800D02*
X99961700Y-66979800D01*
X96989900Y-66979800D02*
X96901000Y-66979800D01*
X100406200Y-66979800D02*
X96989900Y-66979800D01*
X96989900Y-66979800D02*
X95480280Y-66979800D01*
X89361200Y-60860720D02*
X95480280Y-66979800D01*
X89361200Y-58204100D02*
X89361200Y-60860720D01*
%TO.N,G19*%
X103759000Y-38227000D02*
X103759000Y-38227000D01*
X114180000Y-63398400D02*
X114180000Y-64745000D01*
X103759000Y-36743000D02*
X103759000Y-38227000D01*
X103759000Y-36068000D02*
X103759000Y-36743000D01*
X102997000Y-35306000D02*
X103759000Y-36068000D01*
X98171000Y-34671000D02*
X98806000Y-35306000D01*
X98806000Y-35306000D02*
X102997000Y-35306000D01*
X97576000Y-31155000D02*
X98171000Y-31750000D01*
X98171000Y-31750000D02*
X98171000Y-34671000D01*
X93893000Y-31155000D02*
X97576000Y-31155000D01*
%TO.N,G18*%
X112910000Y-63398400D02*
X112910000Y-64745000D01*
X87934000Y-31165000D02*
X83947000Y-31165000D01*
X88582500Y-31813500D02*
X87934000Y-31165000D01*
X88582500Y-35306000D02*
X88582500Y-31813500D01*
X101854000Y-35966400D02*
X89242900Y-35966400D01*
X102743000Y-36855400D02*
X101854000Y-35966400D01*
X89242900Y-35966400D02*
X88582500Y-35306000D01*
X102743000Y-38227000D02*
X102743000Y-36855400D01*
D36*
%TO.N,G5*%
X111645700Y-64750700D02*
X111640000Y-64745000D01*
X111645700Y-66090800D02*
X111645700Y-64750700D01*
X104838500Y-75878500D02*
X104834500Y-75882500D01*
X104838500Y-74739500D02*
X104838500Y-75878500D01*
D34*
%TO.N,G17*%
X110370000Y-63398400D02*
X110370000Y-64745000D01*
X101727000Y-37592000D02*
X101727000Y-38227000D01*
X101346000Y-37211000D02*
X101727000Y-37592000D01*
X79375000Y-36131500D02*
X80454500Y-37211000D01*
X79375000Y-31750000D02*
X79375000Y-36131500D01*
X80454500Y-37211000D02*
X101346000Y-37211000D01*
X78780000Y-31155000D02*
X79375000Y-31750000D01*
X74422000Y-31155000D02*
X78780000Y-31155000D01*
%TO.N,G16*%
X69175000Y-31155000D02*
X69255000Y-31155000D01*
X64897000Y-31155000D02*
X69175000Y-31155000D01*
X109100000Y-63398400D02*
X109100000Y-64745000D01*
X71755000Y-38227000D02*
X77851000Y-38227000D01*
X77851000Y-38227000D02*
X100711000Y-38227000D01*
X70485000Y-36957000D02*
X71755000Y-38227000D01*
X70485000Y-31750000D02*
X70485000Y-36957000D01*
X69890000Y-31155000D02*
X70485000Y-31750000D01*
X69175000Y-31155000D02*
X69890000Y-31155000D01*
D36*
%TO.N,G4*%
X107835700Y-64750700D02*
X107830000Y-64745000D01*
X107835700Y-66090800D02*
X107835700Y-64750700D01*
X86753700Y-75882500D02*
X86766400Y-75895200D01*
X86753700Y-74714100D02*
X86753700Y-75882500D01*
D34*
%TO.N,TX*%
X119265700Y-64750700D02*
X119260000Y-64745000D01*
X119265700Y-66090800D02*
X119265700Y-64750700D01*
%TO.N,RX*%
X114236500Y-69970502D02*
X114236500Y-70612000D01*
X117995700Y-64750700D02*
X117990000Y-64745000D01*
X117995700Y-66090800D02*
X117995700Y-64750700D01*
D35*
%TO.N,+3V3*%
X106489500Y-39370000D02*
X108521500Y-41402000D01*
X114885000Y-41465500D02*
X114821500Y-41402000D01*
D34*
X96164400Y-39471600D02*
X96062800Y-39370000D01*
D35*
X96062800Y-39370000D02*
X89408000Y-39370000D01*
D36*
X86588600Y-39395400D02*
X86614000Y-39370000D01*
D35*
X89408000Y-39370000D02*
X86614000Y-39370000D01*
X121820200Y-47724800D02*
X121800000Y-47745000D01*
X121820200Y-44780200D02*
X121820200Y-47724800D01*
D34*
X101600000Y-39497000D02*
X101727000Y-39370000D01*
D35*
X106489500Y-39370000D02*
X101727000Y-39370000D01*
X121800000Y-60695774D02*
X124120001Y-63015775D01*
X121800000Y-47745000D02*
X121800000Y-60695774D01*
X51689000Y-60071000D02*
X50038000Y-60071000D01*
X52895500Y-58864500D02*
X51689000Y-60071000D01*
X56959500Y-39370000D02*
X52895500Y-43434000D01*
X52895500Y-43434000D02*
X52895500Y-58864500D01*
X86614000Y-39370000D02*
X56959500Y-39370000D01*
X121820200Y-44780200D02*
X119966000Y-42926000D01*
X119966000Y-42926000D02*
X117538500Y-42926000D01*
X116014500Y-41402000D02*
X114821500Y-41402000D01*
X117538500Y-42926000D02*
X116014500Y-41402000D01*
D34*
X100076000Y-48717200D02*
X100076000Y-39624000D01*
D35*
X99822000Y-39370000D02*
X96062800Y-39370000D01*
D34*
X100076000Y-39624000D02*
X99822000Y-39370000D01*
D35*
X101727000Y-39370000D02*
X99822000Y-39370000D01*
X109829600Y-41402000D02*
X108521500Y-41402000D01*
X113487200Y-41402000D02*
X114821500Y-41402000D01*
X123367800Y-44780200D02*
X121820200Y-44780200D01*
X124206000Y-43942000D02*
X123367800Y-44780200D01*
X124206000Y-41783000D02*
X124206000Y-43942000D01*
X127587200Y-40713200D02*
X126517400Y-41783000D01*
X126517400Y-41783000D02*
X124206000Y-41783000D01*
X127587200Y-37287200D02*
X127587200Y-40713200D01*
X124120001Y-63015775D02*
X124120001Y-67865899D01*
X124120001Y-67865899D02*
X123405900Y-68580000D01*
X123405900Y-68580000D02*
X120103900Y-68580000D01*
X119316500Y-69367400D02*
X119316500Y-70612000D01*
X120103900Y-68580000D02*
X119316500Y-69367400D01*
X86461600Y-58178700D02*
X86436200Y-58204100D01*
X86461600Y-48158400D02*
X82408500Y-48158400D01*
X86461600Y-44234100D02*
X86461600Y-48158400D01*
X82408500Y-48158400D02*
X82370400Y-48196500D01*
X86461600Y-48158400D02*
X86461600Y-58178700D01*
X86461600Y-39522400D02*
X86614000Y-39370000D01*
X86461600Y-44234100D02*
X86461600Y-39522400D01*
%TO.N,+5V*%
X54519500Y-25797500D02*
X54483000Y-25834000D01*
X54550500Y-25766500D02*
X54483000Y-25834000D01*
X57975500Y-25766500D02*
X54550500Y-25766500D01*
X115125000Y-38798500D02*
X114821500Y-39102000D01*
X114835500Y-39116000D02*
X114821500Y-39102000D01*
X125795000Y-78105000D02*
X127000000Y-78105000D01*
X117950000Y-85950000D02*
X125795000Y-78105000D01*
X114832900Y-39090600D02*
X114821500Y-39102000D01*
X50292000Y-46863000D02*
X48196500Y-46863000D01*
X50990500Y-46164500D02*
X50292000Y-46863000D01*
X50990500Y-41829274D02*
X50990500Y-46164500D01*
X60784000Y-25766500D02*
X60784000Y-32035774D01*
X57975500Y-25766500D02*
X60784000Y-25766500D01*
X60784000Y-32035774D02*
X50990500Y-41829274D01*
X112522000Y-25844500D02*
X112444000Y-25766500D01*
X112522000Y-28665000D02*
X112522000Y-25844500D01*
X64897000Y-26035000D02*
X64628500Y-25766500D01*
X64897000Y-28665000D02*
X64897000Y-26035000D01*
X64628500Y-25766500D02*
X67586500Y-25766500D01*
X60784000Y-25766500D02*
X64628500Y-25766500D01*
X74422000Y-25781000D02*
X74407500Y-25766500D01*
X74422000Y-28665000D02*
X74422000Y-25781000D01*
X74407500Y-25766500D02*
X67586500Y-25766500D01*
X83947000Y-25908000D02*
X83805500Y-25766500D01*
X83947000Y-28665000D02*
X83947000Y-25908000D01*
X83805500Y-25766500D02*
X74407500Y-25766500D01*
X93472000Y-25815500D02*
X93423000Y-25766500D01*
X93472000Y-28665000D02*
X93472000Y-25815500D01*
X93423000Y-25766500D02*
X83805500Y-25766500D01*
X102997000Y-25781000D02*
X102982500Y-25766500D01*
X102997000Y-28665000D02*
X102997000Y-25781000D01*
X102982500Y-25766500D02*
X93423000Y-25766500D01*
X112444000Y-25766500D02*
X102982500Y-25766500D01*
X116916700Y-39102000D02*
X114821500Y-39102000D01*
X118873800Y-41059100D02*
X116916700Y-39102000D01*
X120562900Y-39370000D02*
X118873800Y-41059100D01*
X122970801Y-39370000D02*
X120562900Y-39370000D01*
X124088401Y-40487600D02*
X122970801Y-39370000D01*
X128981200Y-33477200D02*
X129489200Y-32969200D01*
X127587200Y-33477200D02*
X128981200Y-33477200D01*
X78196000Y-82196000D02*
X81950000Y-85950000D01*
X78196000Y-79629000D02*
X78196000Y-82196000D01*
X114173000Y-82173000D02*
X117950000Y-85950000D01*
X114173000Y-79629000D02*
X114173000Y-82173000D01*
D36*
X117866200Y-77435400D02*
X116326000Y-75895200D01*
X117866200Y-78105000D02*
X117866200Y-77435400D01*
D35*
X96179200Y-82179200D02*
X99950000Y-85950000D01*
X96179200Y-79629000D02*
X96179200Y-82179200D01*
D36*
X99923600Y-77501400D02*
X98317400Y-75895200D01*
X99923600Y-78105000D02*
X99923600Y-77501400D01*
X81965800Y-77526800D02*
X80334200Y-75895200D01*
X81965800Y-78130400D02*
X81965800Y-77526800D01*
D35*
%TO.N,Net-(D1-Pad2)*%
X105918000Y-85918000D02*
X105950000Y-85950000D01*
X105613200Y-85613200D02*
X105950000Y-85950000D01*
X105609000Y-85609000D02*
X105950000Y-85950000D01*
X109673000Y-82227000D02*
X105950000Y-85950000D01*
X109673000Y-79629000D02*
X109673000Y-82227000D01*
X109673000Y-79629000D02*
X107759500Y-79629000D01*
%TO.N,Net-(D2-Pad2)*%
X87884000Y-85884000D02*
X87950000Y-85950000D01*
X87579200Y-85579200D02*
X87950000Y-85950000D01*
X87575000Y-85575000D02*
X87950000Y-85950000D01*
X91679200Y-82220800D02*
X87950000Y-85950000D01*
X91679200Y-79629000D02*
X91679200Y-82220800D01*
X91653800Y-79654400D02*
X91679200Y-79629000D01*
X89738200Y-79654400D02*
X91653800Y-79654400D01*
D37*
%TO.N,Net-(RE1-Pad3)*%
X105950000Y-105162000D02*
X109500000Y-108712000D01*
X105950000Y-98150000D02*
X105950000Y-105162000D01*
%TO.N,Net-(RE2-Pad3)*%
X87950000Y-105162000D02*
X91500000Y-108712000D01*
X87950000Y-98150000D02*
X87950000Y-105162000D01*
D36*
%TO.N,Net-(LED1-Pad1)*%
X119115300Y-75905900D02*
X119126000Y-75895200D01*
X119115300Y-79654400D02*
X119115300Y-75905900D01*
%TO.N,Net-(LED2-Pad1)*%
X101106700Y-75905900D02*
X101117400Y-75895200D01*
X101106700Y-79756000D02*
X101106700Y-75905900D01*
D34*
%TO.N,G23*%
X69850000Y-40640000D02*
X85064600Y-40640000D01*
X50673000Y-33972500D02*
X51558000Y-33972500D01*
X121800000Y-63495000D02*
X121800000Y-64745000D01*
X108885999Y-62139999D02*
X120444999Y-62139999D01*
X120444999Y-62139999D02*
X121800000Y-63495000D01*
X108885999Y-62157601D02*
X108885999Y-62139999D01*
X96977200Y-62992000D02*
X108051600Y-62992000D01*
X95415960Y-61430760D02*
X96977200Y-62992000D01*
X108051600Y-62992000D02*
X108885999Y-62157601D01*
X95415960Y-41504460D02*
X95415960Y-61430760D01*
X94551500Y-40640000D02*
X95415960Y-41504460D01*
X87985600Y-40640000D02*
X94551500Y-40640000D01*
X69850000Y-40640000D02*
X57785000Y-40640000D01*
D35*
%TO.N,Net-(D3-Pad2)*%
X69977000Y-85923000D02*
X69950000Y-85950000D01*
X69951600Y-85948400D02*
X69950000Y-85950000D01*
X69545200Y-85545200D02*
X69950000Y-85950000D01*
X69566400Y-85566400D02*
X69950000Y-85950000D01*
X73696000Y-82204000D02*
X69950000Y-85950000D01*
X73696000Y-79629000D02*
X73696000Y-82204000D01*
X71755000Y-79629000D02*
X73696000Y-79629000D01*
D36*
%TO.N,Net-(LED3-Pad1)*%
X83138200Y-75899200D02*
X83134200Y-75895200D01*
X83138200Y-79654400D02*
X83138200Y-75899200D01*
D37*
%TO.N,Net-(RE3-Pad3)*%
X69950000Y-105162000D02*
X73500000Y-108712000D01*
X69950000Y-98150000D02*
X69950000Y-105162000D01*
D34*
%TO.N,Net-(ALED1-Pad4)*%
X54483000Y-30734000D02*
X54483000Y-33972500D01*
%TO.N,G26*%
X112445000Y-31242000D02*
X112522000Y-31165000D01*
D36*
X112522000Y-31165000D02*
X112472000Y-31165000D01*
D34*
X110370000Y-46979998D02*
X110370000Y-47745000D01*
X110370000Y-46398800D02*
X110370000Y-47745000D01*
X112369600Y-37338000D02*
X112369600Y-44399200D01*
X110439200Y-35407600D02*
X112369600Y-37338000D01*
X110439200Y-32156400D02*
X110439200Y-35407600D01*
X111430600Y-31165000D02*
X110439200Y-32156400D01*
X112369600Y-44399200D02*
X110370000Y-46398800D01*
X112522000Y-31165000D02*
X111430600Y-31165000D01*
%TO.N,G27*%
X102997000Y-31165000D02*
X102312000Y-31165000D01*
X109100000Y-46979998D02*
X109100000Y-47745000D01*
X102997000Y-31165000D02*
X107568200Y-31165000D01*
X107568200Y-31165000D02*
X108458000Y-32054800D01*
X108458000Y-32054800D02*
X108458000Y-36169600D01*
X108458000Y-36169600D02*
X110845600Y-38557200D01*
X110845600Y-38557200D02*
X110845600Y-44551600D01*
X109100000Y-46297200D02*
X109100000Y-47745000D01*
X110845600Y-44551600D02*
X109100000Y-46297200D01*
D36*
%TO.N,G25*%
X107645200Y-62179200D02*
X108483400Y-61341000D01*
X112445800Y-57378600D02*
X108483400Y-61341000D01*
X112445800Y-51587400D02*
X112445800Y-57378600D01*
X111633000Y-47752000D02*
X111640000Y-47745000D01*
X111633000Y-49123600D02*
X111633000Y-47752000D01*
X68880800Y-72952800D02*
X68880800Y-75895200D01*
X70967600Y-70866000D02*
X68880800Y-72952800D01*
X98399600Y-70866000D02*
X70967600Y-70866000D01*
D35*
%TO.N,Net-(Q1-Pad3)*%
X106759510Y-77703990D02*
X111129010Y-77703990D01*
X111129010Y-77703990D02*
X112077500Y-76755500D01*
X104834500Y-79629000D02*
X106759510Y-77703990D01*
D36*
X116190300Y-78779400D02*
X114166400Y-76755500D01*
X114166400Y-76755500D02*
X112077500Y-76755500D01*
X116190300Y-79654400D02*
X116190300Y-78779400D01*
D35*
%TO.N,Net-(Q2-Pad3)*%
X93581190Y-77370210D02*
X89097390Y-77370210D01*
X89097390Y-77370210D02*
X86813200Y-79654400D01*
X94234000Y-76717400D02*
X93581190Y-77370210D01*
D36*
X96018100Y-76717400D02*
X94234000Y-76717400D01*
X98181700Y-78881000D02*
X96018100Y-76717400D01*
X98181700Y-79756000D02*
X98181700Y-78881000D01*
%TO.N,Net-(Q3-Pad3)*%
X78109800Y-76676000D02*
X75996800Y-76676000D01*
X80213200Y-78779400D02*
X78109800Y-76676000D01*
X80213200Y-79654400D02*
X80213200Y-78779400D01*
D35*
X74968810Y-77703990D02*
X75996800Y-76676000D01*
X70755010Y-77703990D02*
X74968810Y-77703990D01*
X68830000Y-79629000D02*
X70755010Y-77703990D01*
D36*
%TO.N,Net-(BT1-Pad1)*%
X56479000Y-74446500D02*
X54292500Y-76633000D01*
X56479000Y-72517000D02*
X56479000Y-74446500D01*
D35*
%TO.N,Net-(LED4-Pad1)*%
X124787200Y-37287200D02*
X120882600Y-37287200D01*
D34*
%TO.N,Net-(R11-Pad2)*%
X98653600Y-61061600D02*
X98653600Y-57708800D01*
X97151000Y-43908400D02*
X97219000Y-43840400D01*
X97151000Y-48717200D02*
X97151000Y-43908400D01*
X98653600Y-50219800D02*
X97151000Y-48717200D01*
X98653600Y-57708800D02*
X98653600Y-50219800D01*
D36*
%TO.N,Net-(D4-Pad1)*%
X48423500Y-76072500D02*
X51979000Y-72517000D01*
X46164500Y-76072500D02*
X48423500Y-76072500D01*
%TO.N,Net-(Q3-Pad1)*%
X71805800Y-75895200D02*
X71875001Y-75825999D01*
X71805800Y-75895200D02*
X71805800Y-73761600D01*
X71805800Y-73761600D02*
X72301100Y-73266300D01*
X72301100Y-73266300D02*
X76377800Y-73266300D01*
X76946800Y-73835300D02*
X76946800Y-74676000D01*
X76377800Y-73266300D02*
X76946800Y-73835300D01*
%TO.N,Net-(Q1-Pad1)*%
X107759500Y-75882500D02*
X107759500Y-73875900D01*
X107759500Y-73875900D02*
X108381800Y-73253600D01*
X108381800Y-73253600D02*
X112445800Y-73253600D01*
X113027500Y-73835300D02*
X113027500Y-74755500D01*
X112445800Y-73253600D02*
X113027500Y-73835300D01*
%TO.N,Net-(Q2-Pad1)*%
X89691400Y-75895200D02*
X89719201Y-75867399D01*
X89691400Y-73833800D02*
X89691400Y-74240200D01*
X90258900Y-73266300D02*
X89691400Y-73833800D01*
X94576900Y-73266300D02*
X90258900Y-73266300D01*
X95184000Y-73873400D02*
X94576900Y-73266300D01*
X89691400Y-74240200D02*
X89691400Y-75895200D01*
X95184000Y-74717400D02*
X95184000Y-73873400D01*
%TO.N,G33*%
X112910000Y-47745000D02*
X112910000Y-49345200D01*
X112255201Y-49999999D02*
X107454799Y-49999999D01*
X112910000Y-49345200D02*
X112255201Y-49999999D01*
X107454799Y-49999999D02*
X106667300Y-49212500D01*
X103532400Y-49212500D02*
X100014500Y-52730400D01*
X106667300Y-49212500D02*
X103532400Y-49212500D01*
D34*
%TO.N,IO0*%
X106534200Y-64719200D02*
X106560000Y-64745000D01*
X106565700Y-64750700D02*
X106560000Y-64745000D01*
X106565700Y-66065400D02*
X106565700Y-64750700D01*
X110286800Y-69202300D02*
X111696500Y-70612000D01*
X102298500Y-69202300D02*
X110286800Y-69202300D01*
%TO.N,EN*%
X120530000Y-60889500D02*
X120530000Y-60889500D01*
X120530000Y-50666000D02*
X120530000Y-60889500D01*
X120530000Y-47745000D02*
X120530000Y-50666000D01*
X101244400Y-57759600D02*
X101193600Y-57708800D01*
X101193600Y-61061600D02*
X101193600Y-57708800D01*
X120530000Y-48995000D02*
X120530000Y-47745000D01*
X118826600Y-50698400D02*
X120530000Y-48995000D01*
X109829600Y-50698400D02*
X118826600Y-50698400D01*
X107442000Y-53086000D02*
X109829600Y-50698400D01*
X107442000Y-57759600D02*
X107442000Y-53086000D01*
D36*
%TO.N,G32*%
X121412000Y-30164500D02*
X119329200Y-32247300D01*
X119329200Y-32247300D02*
X119329200Y-34747200D01*
X119329200Y-34747200D02*
X118516400Y-35560000D01*
X114817700Y-45707300D02*
X114180000Y-46345000D01*
X114180000Y-46345000D02*
X114180000Y-47745000D01*
X116471700Y-45707300D02*
X114817700Y-45707300D01*
X116484400Y-35560000D02*
X116471700Y-35572700D01*
X118516400Y-35560000D02*
X116484400Y-35560000D01*
D35*
%TO.N,Net-(LED5-Pad1)*%
X124787200Y-33477200D02*
X120831800Y-33477200D01*
D36*
%TO.N,Net-(Q4-Pad1)*%
X121218500Y-27239500D02*
X118872000Y-29586000D01*
X121412000Y-27239500D02*
X121218500Y-27239500D01*
D35*
%TO.N,Net-(R13-Pad2)*%
X46825400Y-68681600D02*
X46164500Y-69342500D01*
X46990000Y-68681600D02*
X46825400Y-68681600D01*
D36*
X88138000Y-66243200D02*
X56184800Y-66243200D01*
X88138000Y-66243200D02*
X93167200Y-66243200D01*
X97078800Y-52741100D02*
X97089500Y-52730400D01*
X93091000Y-49466500D02*
X91670400Y-49466500D01*
X97078800Y-52719700D02*
X97089500Y-52730400D01*
X97078800Y-51498500D02*
X97078800Y-52719700D01*
D35*
%TO.N,Net-(Q4-Pad3)*%
X112786000Y-33401000D02*
X112522000Y-33665000D01*
X116872000Y-32442400D02*
X116872000Y-28636000D01*
X117906800Y-33477200D02*
X116872000Y-32442400D01*
X115649400Y-33665000D02*
X116872000Y-32442400D01*
X112522000Y-33665000D02*
X115649400Y-33665000D01*
%TD*%
M02*
