%TF.GenerationSoftware,KiCad,Pcbnew,5.99.0+really5.1.10+dfsg1-1*%
%TF.CreationDate,2022-01-11T00:43:00+01:00*%
%TF.ProjectId,terrarium,74657272-6172-4697-956d-2e6b69636164,rev?*%
%TF.SameCoordinates,Original*%
%TF.FileFunction,Copper,L2,Bot*%
%TF.FilePolarity,Positive*%
%FSLAX46Y46*%
G04 Gerber Fmt 4.6, Leading zero omitted, Abs format (unit mm)*
G04 Created by KiCad (PCBNEW 5.99.0+really5.1.10+dfsg1-1) date 2022-01-11 00:43:00*
%MOMM*%
%LPD*%
G01*
G04 APERTURE LIST*
%TA.AperFunction,Profile*%
%ADD10C,0.050000*%
%TD*%
%TA.AperFunction,ComponentPad*%
%ADD11O,1.700000X1.700000*%
%TD*%
%TA.AperFunction,ComponentPad*%
%ADD12R,1.700000X1.700000*%
%TD*%
%TA.AperFunction,ComponentPad*%
%ADD13O,1.950000X1.700000*%
%TD*%
%TA.AperFunction,ComponentPad*%
%ADD14C,3.000000*%
%TD*%
%TA.AperFunction,ComponentPad*%
%ADD15R,3.000000X3.000000*%
%TD*%
%TA.AperFunction,ComponentPad*%
%ADD16C,2.500000*%
%TD*%
%TA.AperFunction,ComponentPad*%
%ADD17C,6.400000*%
%TD*%
%TA.AperFunction,ComponentPad*%
%ADD18C,0.800000*%
%TD*%
%TA.AperFunction,ViaPad*%
%ADD19C,0.800000*%
%TD*%
%TA.AperFunction,Conductor*%
%ADD20C,0.250000*%
%TD*%
%TA.AperFunction,Conductor*%
%ADD21C,0.400000*%
%TD*%
%TA.AperFunction,Conductor*%
%ADD22C,0.800000*%
%TD*%
%TA.AperFunction,Conductor*%
%ADD23C,3.000000*%
%TD*%
%TA.AperFunction,Conductor*%
%ADD24C,0.254000*%
%TD*%
%TA.AperFunction,Conductor*%
%ADD25C,0.100000*%
%TD*%
G04 APERTURE END LIST*
D10*
X45000000Y-113000000D02*
G75*
G02*
X41000000Y-109000000I0J4000000D01*
G01*
X131000000Y-109000000D02*
G75*
G02*
X127000000Y-113000000I-4000000J0D01*
G01*
X127000000Y-23000000D02*
G75*
G02*
X131000000Y-27000000I0J-4000000D01*
G01*
X41000000Y-27000000D02*
G75*
G02*
X45000000Y-23000000I4000000J0D01*
G01*
X127000000Y-23000000D02*
X45000000Y-23000000D01*
X131000000Y-109000000D02*
X131000000Y-27000000D01*
X45000000Y-113000000D02*
X127000000Y-113000000D01*
X41000000Y-27000000D02*
X41000000Y-109000000D01*
D11*
%TO.P,RESET_j1,2*%
%TO.N,EN*%
X101193600Y-57708800D03*
D12*
%TO.P,RESET_j1,1*%
%TO.N,Net-(R11-Pad2)*%
X98653600Y-57708800D03*
%TD*%
D11*
%TO.P,UART,6*%
%TO.N,EN*%
X109156500Y-70612000D03*
%TO.P,UART,5*%
%TO.N,IO0*%
X111696500Y-70612000D03*
%TO.P,UART,4*%
%TO.N,RX*%
X114236500Y-70612000D03*
%TO.P,UART,3*%
%TO.N,TX*%
X116776500Y-70612000D03*
%TO.P,UART,2*%
%TO.N,+3V3*%
X119316500Y-70612000D03*
D12*
%TO.P,UART,1*%
%TO.N,GND*%
X121856500Y-70612000D03*
%TD*%
D13*
%TO.P,i2c2,4*%
%TO.N,GND*%
X48196500Y-49363000D03*
%TO.P,i2c2,3*%
%TO.N,+5V*%
X48196500Y-46863000D03*
%TO.P,i2c2,2*%
%TO.N,SDA*%
X48196500Y-44363000D03*
%TO.P,i2c2,1*%
%TO.N,SCL*%
%TA.AperFunction,ComponentPad*%
G36*
G01*
X47471500Y-41013000D02*
X48921500Y-41013000D01*
G75*
G02*
X49171500Y-41263000I0J-250000D01*
G01*
X49171500Y-42463000D01*
G75*
G02*
X48921500Y-42713000I-250000J0D01*
G01*
X47471500Y-42713000D01*
G75*
G02*
X47221500Y-42463000I0J250000D01*
G01*
X47221500Y-41263000D01*
G75*
G02*
X47471500Y-41013000I250000J0D01*
G01*
G37*
%TD.AperFunction*%
%TD*%
%TO.P,SENS1,3*%
%TO.N,Net-(Q4-Pad3)*%
X112522000Y-33665000D03*
%TO.P,SENS1,2*%
%TO.N,G26*%
X112522000Y-31165000D03*
%TO.P,SENS1,1*%
%TO.N,+5V*%
%TA.AperFunction,ComponentPad*%
G36*
G01*
X111797000Y-27815000D02*
X113247000Y-27815000D01*
G75*
G02*
X113497000Y-28065000I0J-250000D01*
G01*
X113497000Y-29265000D01*
G75*
G02*
X113247000Y-29515000I-250000J0D01*
G01*
X111797000Y-29515000D01*
G75*
G02*
X111547000Y-29265000I0J250000D01*
G01*
X111547000Y-28065000D01*
G75*
G02*
X111797000Y-27815000I250000J0D01*
G01*
G37*
%TD.AperFunction*%
%TD*%
%TO.P,SENS3,3*%
%TO.N,Net-(Q4-Pad3)*%
X93472000Y-33665000D03*
%TO.P,SENS3,2*%
%TO.N,G19*%
X93472000Y-31165000D03*
%TO.P,SENS3,1*%
%TO.N,+5V*%
%TA.AperFunction,ComponentPad*%
G36*
G01*
X92747000Y-27815000D02*
X94197000Y-27815000D01*
G75*
G02*
X94447000Y-28065000I0J-250000D01*
G01*
X94447000Y-29265000D01*
G75*
G02*
X94197000Y-29515000I-250000J0D01*
G01*
X92747000Y-29515000D01*
G75*
G02*
X92497000Y-29265000I0J250000D01*
G01*
X92497000Y-28065000D01*
G75*
G02*
X92747000Y-27815000I250000J0D01*
G01*
G37*
%TD.AperFunction*%
%TD*%
%TO.P,SENS2,3*%
%TO.N,Net-(Q4-Pad3)*%
X102997000Y-33665000D03*
%TO.P,SENS2,2*%
%TO.N,G27*%
X102997000Y-31165000D03*
%TO.P,SENS2,1*%
%TO.N,+5V*%
%TA.AperFunction,ComponentPad*%
G36*
G01*
X102272000Y-27815000D02*
X103722000Y-27815000D01*
G75*
G02*
X103972000Y-28065000I0J-250000D01*
G01*
X103972000Y-29265000D01*
G75*
G02*
X103722000Y-29515000I-250000J0D01*
G01*
X102272000Y-29515000D01*
G75*
G02*
X102022000Y-29265000I0J250000D01*
G01*
X102022000Y-28065000D01*
G75*
G02*
X102272000Y-27815000I250000J0D01*
G01*
G37*
%TD.AperFunction*%
%TD*%
%TO.P,SENS4,3*%
%TO.N,Net-(Q4-Pad3)*%
X83947000Y-33665000D03*
%TO.P,SENS4,2*%
%TO.N,G18*%
X83947000Y-31165000D03*
%TO.P,SENS4,1*%
%TO.N,+5V*%
%TA.AperFunction,ComponentPad*%
G36*
G01*
X83222000Y-27815000D02*
X84672000Y-27815000D01*
G75*
G02*
X84922000Y-28065000I0J-250000D01*
G01*
X84922000Y-29265000D01*
G75*
G02*
X84672000Y-29515000I-250000J0D01*
G01*
X83222000Y-29515000D01*
G75*
G02*
X82972000Y-29265000I0J250000D01*
G01*
X82972000Y-28065000D01*
G75*
G02*
X83222000Y-27815000I250000J0D01*
G01*
G37*
%TD.AperFunction*%
%TD*%
%TO.P,SENS5,3*%
%TO.N,Net-(Q4-Pad3)*%
X74422000Y-33665000D03*
%TO.P,SENS5,2*%
%TO.N,G17*%
X74422000Y-31165000D03*
%TO.P,SENS5,1*%
%TO.N,+5V*%
%TA.AperFunction,ComponentPad*%
G36*
G01*
X73697000Y-27815000D02*
X75147000Y-27815000D01*
G75*
G02*
X75397000Y-28065000I0J-250000D01*
G01*
X75397000Y-29265000D01*
G75*
G02*
X75147000Y-29515000I-250000J0D01*
G01*
X73697000Y-29515000D01*
G75*
G02*
X73447000Y-29265000I0J250000D01*
G01*
X73447000Y-28065000D01*
G75*
G02*
X73697000Y-27815000I250000J0D01*
G01*
G37*
%TD.AperFunction*%
%TD*%
D14*
%TO.P,S4,2*%
%TO.N,+5V*%
X127000000Y-78105000D03*
D15*
%TO.P,S4,1*%
%TO.N,GND*%
X127000000Y-83185000D03*
%TD*%
D13*
%TO.P,SENS6,3*%
%TO.N,Net-(Q4-Pad3)*%
X64897000Y-33665000D03*
%TO.P,SENS6,2*%
%TO.N,G16*%
X64897000Y-31165000D03*
%TO.P,SENS6,1*%
%TO.N,+5V*%
%TA.AperFunction,ComponentPad*%
G36*
G01*
X64172000Y-27815000D02*
X65622000Y-27815000D01*
G75*
G02*
X65872000Y-28065000I0J-250000D01*
G01*
X65872000Y-29265000D01*
G75*
G02*
X65622000Y-29515000I-250000J0D01*
G01*
X64172000Y-29515000D01*
G75*
G02*
X63922000Y-29265000I0J250000D01*
G01*
X63922000Y-28065000D01*
G75*
G02*
X64172000Y-27815000I250000J0D01*
G01*
G37*
%TD.AperFunction*%
%TD*%
D14*
%TO.P,RE1,1*%
%TO.N,220L*%
X112000000Y-84000000D03*
D16*
%TO.P,RE1,5*%
%TO.N,+5V*%
X117950000Y-85950000D03*
D14*
%TO.P,RE1,4*%
%TO.N,Net-(RE1-Pad4)*%
X118000000Y-98200000D03*
%TO.P,RE1,3*%
%TO.N,Net-(RE1-Pad3)*%
X105950000Y-98150000D03*
D16*
%TO.P,RE1,2*%
%TO.N,Net-(D1-Pad2)*%
X105950000Y-85950000D03*
%TD*%
D14*
%TO.P,RE2,1*%
%TO.N,220L*%
X94000000Y-84000000D03*
D16*
%TO.P,RE2,5*%
%TO.N,+5V*%
X99950000Y-85950000D03*
D14*
%TO.P,RE2,4*%
%TO.N,Net-(RE2-Pad4)*%
X100000000Y-98200000D03*
%TO.P,RE2,3*%
%TO.N,Net-(RE2-Pad3)*%
X87950000Y-98150000D03*
D16*
%TO.P,RE2,2*%
%TO.N,Net-(D2-Pad2)*%
X87950000Y-85950000D03*
%TD*%
%TO.P,RE3,2*%
%TO.N,Net-(D3-Pad2)*%
X69950000Y-85950000D03*
D14*
%TO.P,RE3,3*%
%TO.N,Net-(RE3-Pad3)*%
X69950000Y-98150000D03*
%TO.P,RE3,4*%
%TO.N,Net-(RE3-Pad4)*%
X82000000Y-98200000D03*
D16*
%TO.P,RE3,5*%
%TO.N,+5V*%
X81950000Y-85950000D03*
D14*
%TO.P,RE3,1*%
%TO.N,220L*%
X76000000Y-84000000D03*
%TD*%
D17*
%TO.P,H3,1*%
%TO.N,N/C*%
X45000000Y-109000000D03*
D18*
X47400000Y-109000000D03*
X46697056Y-110697056D03*
X45000000Y-111400000D03*
X43302944Y-110697056D03*
X42600000Y-109000000D03*
X43302944Y-107302944D03*
X45000000Y-106600000D03*
X46697056Y-107302944D03*
%TD*%
D17*
%TO.P,H4,1*%
%TO.N,N/C*%
X127000000Y-109000000D03*
D18*
X129400000Y-109000000D03*
X128697056Y-110697056D03*
X127000000Y-111400000D03*
X125302944Y-110697056D03*
X124600000Y-109000000D03*
X125302944Y-107302944D03*
X127000000Y-106600000D03*
X128697056Y-107302944D03*
%TD*%
D17*
%TO.P,H1,1*%
%TO.N,N/C*%
X127000000Y-27000000D03*
D18*
X129400000Y-27000000D03*
X128697056Y-28697056D03*
X127000000Y-29400000D03*
X125302944Y-28697056D03*
X124600000Y-27000000D03*
X125302944Y-25302944D03*
X127000000Y-24600000D03*
X128697056Y-25302944D03*
%TD*%
D17*
%TO.P,H2,1*%
%TO.N,N/C*%
X45000000Y-27000000D03*
D18*
X47400000Y-27000000D03*
X46697056Y-28697056D03*
X45000000Y-29400000D03*
X43302944Y-28697056D03*
X42600000Y-27000000D03*
X43302944Y-25302944D03*
X45000000Y-24600000D03*
X46697056Y-25302944D03*
%TD*%
D14*
%TO.P,S3,2*%
%TO.N,220N*%
X78580000Y-108712000D03*
D15*
%TO.P,S3,1*%
%TO.N,Net-(RE3-Pad3)*%
X73500000Y-108712000D03*
%TD*%
D14*
%TO.P,S2,2*%
%TO.N,220N*%
X96580000Y-108712000D03*
D15*
%TO.P,S2,1*%
%TO.N,Net-(RE2-Pad3)*%
X91500000Y-108712000D03*
%TD*%
D14*
%TO.P,S1,2*%
%TO.N,220N*%
X114580000Y-108712000D03*
D15*
%TO.P,S1,1*%
%TO.N,Net-(RE1-Pad3)*%
X109500000Y-108712000D03*
%TD*%
D14*
%TO.P,S0,2*%
%TO.N,220L*%
X126873000Y-92837000D03*
D15*
%TO.P,S0,1*%
%TO.N,220N*%
X126873000Y-97917000D03*
%TD*%
D11*
%TO.P,i2c4,4*%
%TO.N,SCL*%
X50038000Y-65151000D03*
%TO.P,i2c4,3*%
%TO.N,SDA*%
X50038000Y-62611000D03*
%TO.P,i2c4,2*%
%TO.N,+3V3*%
X50038000Y-60071000D03*
D12*
%TO.P,i2c4,1*%
%TO.N,GND*%
X50038000Y-57531000D03*
%TD*%
D11*
%TO.P,i2c3,4*%
%TO.N,SCL*%
X46228000Y-65151000D03*
%TO.P,i2c3,3*%
%TO.N,SDA*%
X46228000Y-62611000D03*
%TO.P,i2c3,2*%
%TO.N,+5V*%
X46228000Y-60071000D03*
D12*
%TO.P,i2c3,1*%
%TO.N,GND*%
X46228000Y-57531000D03*
%TD*%
D19*
%TO.N,GND*%
X54292500Y-107632500D03*
X118440200Y-55219600D03*
X104190800Y-50546000D03*
X57975500Y-27749500D03*
X74282300Y-74676000D03*
X118033800Y-44805600D03*
X92570300Y-74726800D03*
X110413800Y-74777600D03*
X90297000Y-55816500D03*
X83820000Y-55816500D03*
X122872500Y-46101000D03*
X122682000Y-41059100D03*
X122872500Y-63182500D03*
X101904800Y-45466000D03*
X114833400Y-44754800D03*
X118173500Y-27686000D03*
X118745000Y-37274500D03*
%TO.N,SCL*%
X97802700Y-65963800D03*
X97802700Y-67957700D03*
%TO.N,G19*%
X103759000Y-38227000D03*
X114180000Y-63398400D03*
%TO.N,G18*%
X102743000Y-38227000D03*
X112910000Y-63398400D03*
%TO.N,G5*%
X111645700Y-66090800D03*
X104838500Y-74739500D03*
%TO.N,G17*%
X101727000Y-38227000D03*
X110370000Y-63398400D03*
%TO.N,G16*%
X100711000Y-38227000D03*
X109100000Y-63398400D03*
%TO.N,G4*%
X107835700Y-66090800D03*
X86753700Y-74714100D03*
%TO.N,TX*%
X119265700Y-66090800D03*
%TO.N,RX*%
X117995700Y-66090800D03*
%TO.N,+3V3*%
X109829600Y-41402000D03*
X113487200Y-41402000D03*
%TO.N,+5V*%
X124088401Y-40487600D03*
X112460300Y-25766500D03*
X129489200Y-32969200D03*
X81965800Y-78130400D03*
X117866200Y-78105000D03*
X99923600Y-78105000D03*
%TO.N,G23*%
X50673000Y-33972500D03*
X57785000Y-40640000D03*
X85064600Y-40640000D03*
X87985600Y-40640000D03*
%TO.N,G25*%
X112445800Y-51587400D03*
X107645200Y-62179200D03*
X111633000Y-49123600D03*
X98399600Y-70866000D03*
%TO.N,IO0*%
X106565700Y-66065400D03*
X102298500Y-69202300D03*
%TO.N,EN*%
X107442000Y-57759600D03*
X120530000Y-60889500D03*
%TO.N,G32*%
X116471700Y-45707300D03*
X116471700Y-35572700D03*
%TO.N,Net-(R13-Pad2)*%
X97078800Y-51498500D03*
X56184800Y-66243200D03*
X46990000Y-68681600D03*
X93091000Y-49466500D03*
X93167200Y-66243200D03*
%TD*%
D20*
%TO.N,SCL*%
X97802700Y-67957700D02*
X97802700Y-65963800D01*
%TO.N,G19*%
X114180000Y-63398400D02*
X114180000Y-50597598D01*
X103759000Y-40176598D02*
X103759000Y-39573200D01*
X114180000Y-50597598D02*
X103759000Y-40176598D01*
X103759000Y-38227000D02*
X103759000Y-39573200D01*
%TO.N,G18*%
X102743000Y-41306602D02*
X102743000Y-38227000D01*
X111420600Y-61909000D02*
X111420600Y-49984202D01*
X111420600Y-49984202D02*
X102743000Y-41306602D01*
X112910000Y-63398400D02*
X111420600Y-61909000D01*
D21*
%TO.N,G5*%
X111645700Y-66090800D02*
X110223300Y-66090800D01*
X104838500Y-71475600D02*
X104838500Y-74739500D01*
X110223300Y-66090800D02*
X104838500Y-71475600D01*
D20*
%TO.N,G17*%
X101727000Y-41719500D02*
X110370000Y-50362500D01*
X101727000Y-38227000D02*
X101727000Y-41719500D01*
X110370000Y-63398400D02*
X110370000Y-50362500D01*
%TO.N,G16*%
X100711000Y-42226200D02*
X100711000Y-38227000D01*
X109100000Y-50615200D02*
X100711000Y-42226200D01*
X109100000Y-63398400D02*
X109100000Y-50615200D01*
%TO.N,G4*%
X107835700Y-66090800D02*
X100457000Y-73469500D01*
X87998300Y-73469500D02*
X86753700Y-74714100D01*
X100457000Y-73469500D02*
X87998300Y-73469500D01*
%TO.N,TX*%
X119265700Y-68122800D02*
X119265700Y-66090800D01*
X116776500Y-70612000D02*
X119265700Y-68122800D01*
%TO.N,RX*%
X117995700Y-66852800D02*
X117995700Y-66090800D01*
X114236500Y-70612000D02*
X117995700Y-66852800D01*
D22*
%TO.N,+3V3*%
X113487200Y-41402000D02*
X109829600Y-41402000D01*
%TO.N,+5V*%
X81950000Y-78171600D02*
X82016600Y-78105000D01*
X81950000Y-85950000D02*
X81950000Y-78171600D01*
X99950000Y-78281800D02*
X100126800Y-78105000D01*
X99950000Y-85950000D02*
X99950000Y-78281800D01*
X100126800Y-78105000D02*
X99923600Y-78105000D01*
X117950000Y-85950000D02*
X117950000Y-78188800D01*
X117866200Y-78105000D02*
X117950000Y-78188800D01*
X100126800Y-78105000D02*
X117866200Y-78105000D01*
X124088401Y-75193401D02*
X127000000Y-78105000D01*
X48196500Y-46863000D02*
X44894500Y-46863000D01*
X44894500Y-46863000D02*
X42926000Y-48831500D01*
X42926000Y-48831500D02*
X42926000Y-58547000D01*
X44450000Y-60071000D02*
X46228000Y-60071000D01*
X42926000Y-58547000D02*
X44450000Y-60071000D01*
X124088401Y-75193401D02*
X124088401Y-39370000D01*
X112460300Y-25766500D02*
X112444000Y-25766500D01*
X124088401Y-39370000D02*
X128422400Y-39370000D01*
X128422400Y-39370000D02*
X129489200Y-38303200D01*
X129489200Y-38303200D02*
X129489200Y-32969200D01*
X129489200Y-32969200D02*
X129489200Y-32969200D01*
X124104400Y-31496000D02*
X118374900Y-25766500D01*
X128016000Y-31496000D02*
X124104400Y-31496000D01*
X118374900Y-25766500D02*
X112460300Y-25766500D01*
X129489200Y-32969200D02*
X128016000Y-31496000D01*
X83566000Y-78105000D02*
X82016600Y-78105000D01*
X117866200Y-78105000D02*
X117866200Y-78105000D01*
X99923600Y-78105000D02*
X83566000Y-78105000D01*
D20*
%TO.N,G23*%
X87985600Y-40640000D02*
X85064600Y-40640000D01*
X57785000Y-35496500D02*
X57785000Y-40640000D01*
X56261000Y-33972500D02*
X57785000Y-35496500D01*
X50673000Y-33972500D02*
X56261000Y-33972500D01*
D23*
%TO.N,220L*%
X76000000Y-86121320D02*
X76000000Y-84000000D01*
X82715680Y-92837000D02*
X76000000Y-86121320D01*
X94000000Y-84000000D02*
X94000000Y-85999000D01*
X100838000Y-92837000D02*
X82715680Y-92837000D01*
X94000000Y-85999000D02*
X100838000Y-92837000D01*
X112000000Y-84000000D02*
X112000000Y-86092000D01*
X112000000Y-86092000D02*
X118745000Y-92837000D01*
X118745000Y-92837000D02*
X100838000Y-92837000D01*
X126873000Y-92837000D02*
X118745000Y-92837000D01*
%TO.N,220N*%
X83787000Y-103505000D02*
X78580000Y-108712000D01*
X101787000Y-103505000D02*
X103378000Y-103505000D01*
X96580000Y-108712000D02*
X101787000Y-103505000D01*
X103378000Y-103505000D02*
X83787000Y-103505000D01*
X126873000Y-97917000D02*
X125375000Y-97917000D01*
X119405400Y-103505000D02*
X119596200Y-103695800D01*
X103378000Y-103505000D02*
X119405400Y-103505000D01*
X119596200Y-103695800D02*
X114580000Y-108712000D01*
X125375000Y-97917000D02*
X119596200Y-103695800D01*
D21*
%TO.N,G25*%
X112445800Y-49936400D02*
X112445800Y-51587400D01*
X111633000Y-49123600D02*
X112445800Y-49936400D01*
D20*
X98958400Y-70866000D02*
X98399600Y-70866000D01*
X107645200Y-62179200D02*
X98958400Y-70866000D01*
%TO.N,IO0*%
X106565700Y-66065400D02*
X105435400Y-66065400D01*
X105435400Y-66065400D02*
X102298500Y-69202300D01*
X102298500Y-69202300D02*
X102298500Y-69202300D01*
%TO.N,EN*%
X101244400Y-57759600D02*
X101193600Y-57708800D01*
X107442000Y-57759600D02*
X101244400Y-57759600D01*
X118879000Y-60889500D02*
X109156500Y-70612000D01*
X120530000Y-60889500D02*
X118879000Y-60889500D01*
D21*
%TO.N,G32*%
X116446300Y-45681900D02*
X116471700Y-45707300D01*
X116471700Y-35572700D02*
X116471700Y-45707300D01*
%TO.N,Net-(R13-Pad2)*%
X53746400Y-68681600D02*
X56184800Y-66243200D01*
X46990000Y-68681600D02*
X53746400Y-68681600D01*
X95046800Y-49466500D02*
X97078800Y-51498500D01*
X93091000Y-49466500D02*
X95046800Y-49466500D01*
X93091000Y-66167000D02*
X93167200Y-66243200D01*
X93091000Y-49466500D02*
X93091000Y-66167000D01*
D22*
%TO.N,Net-(Q4-Pad3)*%
X112522000Y-33665000D02*
X102997000Y-33665000D01*
X102997000Y-33665000D02*
X93472000Y-33665000D01*
X93472000Y-33665000D02*
X83947000Y-33665000D01*
X83947000Y-33665000D02*
X74422000Y-33665000D01*
X64897000Y-33665000D02*
X74422000Y-33665000D01*
%TD*%
D24*
%TO.N,GND*%
X124555330Y-24021161D02*
X124021161Y-24555330D01*
X123601467Y-25183446D01*
X123312377Y-25881372D01*
X123165000Y-26622285D01*
X123165000Y-27377715D01*
X123312377Y-28118628D01*
X123601467Y-28816554D01*
X124021161Y-29444670D01*
X124555330Y-29978839D01*
X125183446Y-30398533D01*
X125334255Y-30461000D01*
X124533111Y-30461000D01*
X119142707Y-25070597D01*
X119110296Y-25031104D01*
X118952697Y-24901766D01*
X118772893Y-24805659D01*
X118577795Y-24746476D01*
X118425738Y-24731500D01*
X118425728Y-24731500D01*
X118374900Y-24726494D01*
X118324072Y-24731500D01*
X112358361Y-24731500D01*
X112324230Y-24738289D01*
X112241105Y-24746476D01*
X112161178Y-24770722D01*
X112158402Y-24771274D01*
X112155787Y-24772357D01*
X112046007Y-24805659D01*
X111866203Y-24901766D01*
X111708604Y-25031104D01*
X111579266Y-25188703D01*
X111483159Y-25368507D01*
X111423976Y-25563605D01*
X111403993Y-25766500D01*
X111423976Y-25969395D01*
X111483159Y-26164493D01*
X111579266Y-26344297D01*
X111708604Y-26501896D01*
X111866203Y-26631234D01*
X112046007Y-26727341D01*
X112155787Y-26760643D01*
X112158402Y-26761726D01*
X112161178Y-26762278D01*
X112241105Y-26786524D01*
X112324230Y-26794711D01*
X112358361Y-26801500D01*
X117946190Y-26801500D01*
X123336596Y-32191907D01*
X123369004Y-32231396D01*
X123408492Y-32263803D01*
X123526602Y-32360734D01*
X123706406Y-32456841D01*
X123751815Y-32470615D01*
X123901505Y-32516024D01*
X124053562Y-32531000D01*
X124053565Y-32531000D01*
X124104400Y-32536007D01*
X124155235Y-32531000D01*
X127587290Y-32531000D01*
X128454201Y-33397912D01*
X128454200Y-37874489D01*
X127993690Y-38335000D01*
X124139239Y-38335000D01*
X124088401Y-38329993D01*
X124037563Y-38335000D01*
X123885506Y-38349976D01*
X123690408Y-38409159D01*
X123510604Y-38505266D01*
X123353005Y-38634604D01*
X123223667Y-38792203D01*
X123127560Y-38972007D01*
X123068377Y-39167105D01*
X123048394Y-39370000D01*
X123053402Y-39420848D01*
X123053402Y-40385656D01*
X123053401Y-40385661D01*
X123053401Y-40589539D01*
X123053402Y-40589544D01*
X123053401Y-69227404D01*
X122950680Y-69172498D01*
X122830982Y-69136188D01*
X122706500Y-69123928D01*
X122142250Y-69127000D01*
X121983500Y-69285750D01*
X121983500Y-70485000D01*
X122003500Y-70485000D01*
X122003500Y-70739000D01*
X121983500Y-70739000D01*
X121983500Y-71938250D01*
X122142250Y-72097000D01*
X122706500Y-72100072D01*
X122830982Y-72087812D01*
X122950680Y-72051502D01*
X123053401Y-71996596D01*
X123053401Y-75142573D01*
X123048395Y-75193401D01*
X123053401Y-75244229D01*
X123053401Y-75244238D01*
X123068377Y-75396295D01*
X123127560Y-75591393D01*
X123223667Y-75771198D01*
X123353005Y-75928797D01*
X123392498Y-75961208D01*
X124941487Y-77510197D01*
X124865000Y-77894721D01*
X124865000Y-78315279D01*
X124947047Y-78727756D01*
X125107988Y-79116302D01*
X125341637Y-79465983D01*
X125639017Y-79763363D01*
X125988698Y-79997012D01*
X126377244Y-80157953D01*
X126789721Y-80240000D01*
X127210279Y-80240000D01*
X127622756Y-80157953D01*
X128011302Y-79997012D01*
X128360983Y-79763363D01*
X128658363Y-79465983D01*
X128892012Y-79116302D01*
X129052953Y-78727756D01*
X129135000Y-78315279D01*
X129135000Y-77894721D01*
X129052953Y-77482244D01*
X128892012Y-77093698D01*
X128658363Y-76744017D01*
X128360983Y-76446637D01*
X128011302Y-76212988D01*
X127622756Y-76052047D01*
X127210279Y-75970000D01*
X126789721Y-75970000D01*
X126405197Y-76046487D01*
X125123401Y-74764691D01*
X125123401Y-70739000D01*
X130340001Y-70739000D01*
X130340000Y-86995000D01*
X121412000Y-86995000D01*
X121412000Y-84685000D01*
X124861928Y-84685000D01*
X124874188Y-84809482D01*
X124910498Y-84929180D01*
X124969463Y-85039494D01*
X125048815Y-85136185D01*
X125145506Y-85215537D01*
X125255820Y-85274502D01*
X125375518Y-85310812D01*
X125500000Y-85323072D01*
X126714250Y-85320000D01*
X126873000Y-85161250D01*
X126873000Y-83312000D01*
X127127000Y-83312000D01*
X127127000Y-85161250D01*
X127285750Y-85320000D01*
X128500000Y-85323072D01*
X128624482Y-85310812D01*
X128744180Y-85274502D01*
X128854494Y-85215537D01*
X128951185Y-85136185D01*
X129030537Y-85039494D01*
X129089502Y-84929180D01*
X129125812Y-84809482D01*
X129138072Y-84685000D01*
X129135000Y-83470750D01*
X128976250Y-83312000D01*
X127127000Y-83312000D01*
X126873000Y-83312000D01*
X125023750Y-83312000D01*
X124865000Y-83470750D01*
X124861928Y-84685000D01*
X121412000Y-84685000D01*
X121412000Y-82042000D01*
X121409560Y-82017224D01*
X121402333Y-81993399D01*
X121390597Y-81971443D01*
X121374803Y-81952197D01*
X121355557Y-81936403D01*
X121333601Y-81924667D01*
X121309776Y-81917440D01*
X121285000Y-81915000D01*
X118985000Y-81915000D01*
X118985000Y-81685000D01*
X124861928Y-81685000D01*
X124865000Y-82899250D01*
X125023750Y-83058000D01*
X126873000Y-83058000D01*
X126873000Y-81208750D01*
X127127000Y-81208750D01*
X127127000Y-83058000D01*
X128976250Y-83058000D01*
X129135000Y-82899250D01*
X129138072Y-81685000D01*
X129125812Y-81560518D01*
X129089502Y-81440820D01*
X129030537Y-81330506D01*
X128951185Y-81233815D01*
X128854494Y-81154463D01*
X128744180Y-81095498D01*
X128624482Y-81059188D01*
X128500000Y-81046928D01*
X127285750Y-81050000D01*
X127127000Y-81208750D01*
X126873000Y-81208750D01*
X126714250Y-81050000D01*
X125500000Y-81046928D01*
X125375518Y-81059188D01*
X125255820Y-81095498D01*
X125145506Y-81154463D01*
X125048815Y-81233815D01*
X124969463Y-81330506D01*
X124910498Y-81440820D01*
X124874188Y-81560518D01*
X124861928Y-81685000D01*
X118985000Y-81685000D01*
X118985000Y-78239627D01*
X118990006Y-78188799D01*
X118985000Y-78137971D01*
X118985000Y-78137962D01*
X118970024Y-77985905D01*
X118910841Y-77790807D01*
X118814734Y-77611003D01*
X118685396Y-77453404D01*
X118645908Y-77420997D01*
X118634003Y-77409092D01*
X118601596Y-77369604D01*
X118562108Y-77337197D01*
X118525974Y-77301063D01*
X118483484Y-77272672D01*
X118443997Y-77240266D01*
X118398946Y-77216186D01*
X118356456Y-77187795D01*
X118309242Y-77168238D01*
X118264193Y-77144159D01*
X118215313Y-77129331D01*
X118168098Y-77109774D01*
X118117977Y-77099804D01*
X118069095Y-77084976D01*
X118018257Y-77079969D01*
X117968139Y-77070000D01*
X117917028Y-77070000D01*
X117866200Y-77064994D01*
X117815372Y-77070000D01*
X100177635Y-77070000D01*
X100126800Y-77064993D01*
X100075965Y-77070000D01*
X82067435Y-77070000D01*
X82016600Y-77064993D01*
X81965765Y-77070000D01*
X81965762Y-77070000D01*
X81813705Y-77084976D01*
X81618607Y-77144159D01*
X81537331Y-77187602D01*
X81475544Y-77213195D01*
X81306026Y-77326463D01*
X81161863Y-77470626D01*
X81048595Y-77640144D01*
X81007611Y-77739086D01*
X80989160Y-77773607D01*
X80977798Y-77811061D01*
X80970574Y-77828502D01*
X80966891Y-77847016D01*
X80929977Y-77968705D01*
X80909994Y-78171600D01*
X80915001Y-78222438D01*
X80915000Y-81915000D01*
X76481523Y-81915000D01*
X76418533Y-81895892D01*
X76313651Y-81885562D01*
X76210279Y-81865000D01*
X76104882Y-81865000D01*
X76000000Y-81854670D01*
X75895118Y-81865000D01*
X75789721Y-81865000D01*
X75686349Y-81885562D01*
X75581468Y-81895892D01*
X75518476Y-81915000D01*
X66675000Y-81915000D01*
X66650224Y-81917440D01*
X66626399Y-81924667D01*
X66604443Y-81936403D01*
X66585197Y-81952197D01*
X66569403Y-81971443D01*
X66557667Y-81993399D01*
X66550440Y-82017224D01*
X66548000Y-82042000D01*
X66548000Y-112340000D01*
X46904155Y-112340000D01*
X47444670Y-111978839D01*
X47978839Y-111444670D01*
X48398533Y-110816554D01*
X48687623Y-110118628D01*
X48835000Y-109377715D01*
X48835000Y-108622285D01*
X48687623Y-107881372D01*
X48398533Y-107183446D01*
X47978839Y-106555330D01*
X47444670Y-106021161D01*
X46816554Y-105601467D01*
X46118628Y-105312377D01*
X45377715Y-105165000D01*
X44622285Y-105165000D01*
X43881372Y-105312377D01*
X43183446Y-105601467D01*
X42555330Y-106021161D01*
X42021161Y-106555330D01*
X41660000Y-107095845D01*
X41660000Y-74612161D01*
X85718700Y-74612161D01*
X85718700Y-74816039D01*
X85758474Y-75015998D01*
X85836495Y-75204356D01*
X85949763Y-75373874D01*
X86093926Y-75518037D01*
X86263444Y-75631305D01*
X86451802Y-75709326D01*
X86651761Y-75749100D01*
X86855639Y-75749100D01*
X87055598Y-75709326D01*
X87243956Y-75631305D01*
X87413474Y-75518037D01*
X87557637Y-75373874D01*
X87670905Y-75204356D01*
X87748926Y-75015998D01*
X87788700Y-74816039D01*
X87788700Y-74753901D01*
X88313102Y-74229500D01*
X100419678Y-74229500D01*
X100457000Y-74233176D01*
X100494322Y-74229500D01*
X100494333Y-74229500D01*
X100605986Y-74218503D01*
X100749247Y-74175046D01*
X100881276Y-74104474D01*
X100997001Y-74009501D01*
X101020804Y-73980497D01*
X107875502Y-67125800D01*
X107937639Y-67125800D01*
X108024762Y-67108470D01*
X104277079Y-70856154D01*
X104245209Y-70882309D01*
X104174935Y-70967939D01*
X104140864Y-71009455D01*
X104063328Y-71154514D01*
X104015582Y-71311912D01*
X103999460Y-71475600D01*
X104003500Y-71516619D01*
X104003501Y-74126214D01*
X103921295Y-74249244D01*
X103843274Y-74437602D01*
X103803500Y-74637561D01*
X103803500Y-74841439D01*
X103843274Y-75041398D01*
X103921295Y-75229756D01*
X104034563Y-75399274D01*
X104178726Y-75543437D01*
X104348244Y-75656705D01*
X104536602Y-75734726D01*
X104736561Y-75774500D01*
X104940439Y-75774500D01*
X105140398Y-75734726D01*
X105328756Y-75656705D01*
X105498274Y-75543437D01*
X105642437Y-75399274D01*
X105755705Y-75229756D01*
X105833726Y-75041398D01*
X105873500Y-74841439D01*
X105873500Y-74637561D01*
X105833726Y-74437602D01*
X105755705Y-74249244D01*
X105673500Y-74126215D01*
X105673500Y-71821467D01*
X110569168Y-66925800D01*
X111032415Y-66925800D01*
X111155444Y-67008005D01*
X111343802Y-67086026D01*
X111543761Y-67125800D01*
X111567899Y-67125800D01*
X109522908Y-69170791D01*
X109302760Y-69127000D01*
X109010240Y-69127000D01*
X108723342Y-69184068D01*
X108453089Y-69296010D01*
X108209868Y-69458525D01*
X108003025Y-69665368D01*
X107840510Y-69908589D01*
X107728568Y-70178842D01*
X107671500Y-70465740D01*
X107671500Y-70758260D01*
X107728568Y-71045158D01*
X107840510Y-71315411D01*
X108003025Y-71558632D01*
X108209868Y-71765475D01*
X108453089Y-71927990D01*
X108723342Y-72039932D01*
X109010240Y-72097000D01*
X109302760Y-72097000D01*
X109589658Y-72039932D01*
X109859911Y-71927990D01*
X110103132Y-71765475D01*
X110309975Y-71558632D01*
X110426500Y-71384240D01*
X110543025Y-71558632D01*
X110749868Y-71765475D01*
X110993089Y-71927990D01*
X111263342Y-72039932D01*
X111550240Y-72097000D01*
X111842760Y-72097000D01*
X112129658Y-72039932D01*
X112399911Y-71927990D01*
X112643132Y-71765475D01*
X112849975Y-71558632D01*
X112966500Y-71384240D01*
X113083025Y-71558632D01*
X113289868Y-71765475D01*
X113533089Y-71927990D01*
X113803342Y-72039932D01*
X114090240Y-72097000D01*
X114382760Y-72097000D01*
X114669658Y-72039932D01*
X114939911Y-71927990D01*
X115183132Y-71765475D01*
X115389975Y-71558632D01*
X115506500Y-71384240D01*
X115623025Y-71558632D01*
X115829868Y-71765475D01*
X116073089Y-71927990D01*
X116343342Y-72039932D01*
X116630240Y-72097000D01*
X116922760Y-72097000D01*
X117209658Y-72039932D01*
X117479911Y-71927990D01*
X117723132Y-71765475D01*
X117929975Y-71558632D01*
X118046500Y-71384240D01*
X118163025Y-71558632D01*
X118369868Y-71765475D01*
X118613089Y-71927990D01*
X118883342Y-72039932D01*
X119170240Y-72097000D01*
X119462760Y-72097000D01*
X119749658Y-72039932D01*
X120019911Y-71927990D01*
X120263132Y-71765475D01*
X120394987Y-71633620D01*
X120416998Y-71706180D01*
X120475963Y-71816494D01*
X120555315Y-71913185D01*
X120652006Y-71992537D01*
X120762320Y-72051502D01*
X120882018Y-72087812D01*
X121006500Y-72100072D01*
X121570750Y-72097000D01*
X121729500Y-71938250D01*
X121729500Y-70739000D01*
X121709500Y-70739000D01*
X121709500Y-70485000D01*
X121729500Y-70485000D01*
X121729500Y-69285750D01*
X121570750Y-69127000D01*
X121006500Y-69123928D01*
X120882018Y-69136188D01*
X120762320Y-69172498D01*
X120652006Y-69231463D01*
X120555315Y-69310815D01*
X120475963Y-69407506D01*
X120416998Y-69517820D01*
X120394987Y-69590380D01*
X120263132Y-69458525D01*
X120019911Y-69296010D01*
X119749658Y-69184068D01*
X119462760Y-69127000D01*
X119336303Y-69127000D01*
X119776709Y-68686594D01*
X119805701Y-68662801D01*
X119829495Y-68633808D01*
X119829499Y-68633804D01*
X119900673Y-68547077D01*
X119900674Y-68547076D01*
X119971246Y-68415047D01*
X120014703Y-68271786D01*
X120025700Y-68160133D01*
X120025700Y-68160124D01*
X120029376Y-68122801D01*
X120025700Y-68085478D01*
X120025700Y-66794511D01*
X120069637Y-66750574D01*
X120182905Y-66581056D01*
X120260926Y-66392698D01*
X120300700Y-66192739D01*
X120300700Y-65988861D01*
X120260926Y-65788902D01*
X120182905Y-65600544D01*
X120069637Y-65431026D01*
X119925474Y-65286863D01*
X119755956Y-65173595D01*
X119567598Y-65095574D01*
X119367639Y-65055800D01*
X119163761Y-65055800D01*
X118963802Y-65095574D01*
X118775444Y-65173595D01*
X118630700Y-65270310D01*
X118485956Y-65173595D01*
X118297598Y-65095574D01*
X118097639Y-65055800D01*
X117893761Y-65055800D01*
X117693802Y-65095574D01*
X117505444Y-65173595D01*
X117335926Y-65286863D01*
X117191763Y-65431026D01*
X117078495Y-65600544D01*
X117000474Y-65788902D01*
X116960700Y-65988861D01*
X116960700Y-66192739D01*
X117000474Y-66392698D01*
X117078495Y-66581056D01*
X117124216Y-66649482D01*
X114602908Y-69170791D01*
X114382760Y-69127000D01*
X114090240Y-69127000D01*
X113803342Y-69184068D01*
X113533089Y-69296010D01*
X113289868Y-69458525D01*
X113083025Y-69665368D01*
X112966500Y-69839760D01*
X112849975Y-69665368D01*
X112643132Y-69458525D01*
X112399911Y-69296010D01*
X112129658Y-69184068D01*
X111842760Y-69127000D01*
X111716301Y-69127000D01*
X119193802Y-61649500D01*
X119826289Y-61649500D01*
X119870226Y-61693437D01*
X120039744Y-61806705D01*
X120228102Y-61884726D01*
X120428061Y-61924500D01*
X120631939Y-61924500D01*
X120831898Y-61884726D01*
X121020256Y-61806705D01*
X121189774Y-61693437D01*
X121333937Y-61549274D01*
X121447205Y-61379756D01*
X121525226Y-61191398D01*
X121565000Y-60991439D01*
X121565000Y-60787561D01*
X121525226Y-60587602D01*
X121447205Y-60399244D01*
X121333937Y-60229726D01*
X121189774Y-60085563D01*
X121020256Y-59972295D01*
X120831898Y-59894274D01*
X120631939Y-59854500D01*
X120428061Y-59854500D01*
X120228102Y-59894274D01*
X120039744Y-59972295D01*
X119870226Y-60085563D01*
X119826289Y-60129500D01*
X118916322Y-60129500D01*
X118878999Y-60125824D01*
X118841676Y-60129500D01*
X118841667Y-60129500D01*
X118730014Y-60140497D01*
X118586753Y-60183954D01*
X118454724Y-60254526D01*
X118338999Y-60349499D01*
X118315201Y-60378497D01*
X115215000Y-63478698D01*
X115215000Y-63296461D01*
X115175226Y-63096502D01*
X115097205Y-62908144D01*
X114983937Y-62738626D01*
X114940000Y-62694689D01*
X114940000Y-50634931D01*
X114943677Y-50597598D01*
X114929003Y-50448612D01*
X114885546Y-50305351D01*
X114814974Y-50173322D01*
X114743799Y-50086595D01*
X114720001Y-50057597D01*
X114691003Y-50033799D01*
X106059204Y-41402000D01*
X108789593Y-41402000D01*
X108794600Y-41452838D01*
X108794600Y-41503939D01*
X108804569Y-41554057D01*
X108809576Y-41604895D01*
X108824404Y-41653777D01*
X108834374Y-41703898D01*
X108853931Y-41751113D01*
X108868759Y-41799993D01*
X108892838Y-41845042D01*
X108912395Y-41892256D01*
X108940786Y-41934746D01*
X108964866Y-41979797D01*
X108997272Y-42019284D01*
X109025663Y-42061774D01*
X109061797Y-42097908D01*
X109094204Y-42137396D01*
X109133692Y-42169803D01*
X109169826Y-42205937D01*
X109212316Y-42234328D01*
X109251803Y-42266734D01*
X109296854Y-42290814D01*
X109339344Y-42319205D01*
X109386558Y-42338762D01*
X109431607Y-42362841D01*
X109480487Y-42377669D01*
X109527702Y-42397226D01*
X109577823Y-42407196D01*
X109626705Y-42422024D01*
X109677543Y-42427031D01*
X109727661Y-42437000D01*
X113589139Y-42437000D01*
X113639257Y-42427031D01*
X113690095Y-42422024D01*
X113738977Y-42407196D01*
X113789098Y-42397226D01*
X113836313Y-42377669D01*
X113885193Y-42362841D01*
X113930242Y-42338762D01*
X113977456Y-42319205D01*
X114019946Y-42290814D01*
X114064997Y-42266734D01*
X114104484Y-42234328D01*
X114146974Y-42205937D01*
X114183108Y-42169803D01*
X114222596Y-42137396D01*
X114255003Y-42097908D01*
X114291137Y-42061774D01*
X114319528Y-42019284D01*
X114351934Y-41979797D01*
X114376014Y-41934746D01*
X114404405Y-41892256D01*
X114423962Y-41845042D01*
X114448041Y-41799993D01*
X114462869Y-41751113D01*
X114482426Y-41703898D01*
X114492396Y-41653777D01*
X114507224Y-41604895D01*
X114512231Y-41554057D01*
X114522200Y-41503939D01*
X114522200Y-41452838D01*
X114527207Y-41402000D01*
X114522200Y-41351162D01*
X114522200Y-41300061D01*
X114512231Y-41249943D01*
X114507224Y-41199105D01*
X114492396Y-41150223D01*
X114482426Y-41100102D01*
X114462869Y-41052887D01*
X114448041Y-41004007D01*
X114423962Y-40958958D01*
X114404405Y-40911744D01*
X114376014Y-40869254D01*
X114351934Y-40824203D01*
X114319528Y-40784716D01*
X114291137Y-40742226D01*
X114255003Y-40706092D01*
X114222596Y-40666604D01*
X114183108Y-40634197D01*
X114146974Y-40598063D01*
X114104484Y-40569672D01*
X114064997Y-40537266D01*
X114019946Y-40513186D01*
X113977456Y-40484795D01*
X113930242Y-40465238D01*
X113885193Y-40441159D01*
X113836313Y-40426331D01*
X113789098Y-40406774D01*
X113738977Y-40396804D01*
X113690095Y-40381976D01*
X113639257Y-40376969D01*
X113589139Y-40367000D01*
X109727661Y-40367000D01*
X109677543Y-40376969D01*
X109626705Y-40381976D01*
X109577823Y-40396804D01*
X109527702Y-40406774D01*
X109480487Y-40426331D01*
X109431607Y-40441159D01*
X109386558Y-40465238D01*
X109339344Y-40484795D01*
X109296854Y-40513186D01*
X109251803Y-40537266D01*
X109212316Y-40569672D01*
X109169826Y-40598063D01*
X109133692Y-40634197D01*
X109094204Y-40666604D01*
X109061797Y-40706092D01*
X109025663Y-40742226D01*
X108997272Y-40784716D01*
X108964866Y-40824203D01*
X108940786Y-40869254D01*
X108912395Y-40911744D01*
X108892838Y-40958958D01*
X108868759Y-41004007D01*
X108853931Y-41052887D01*
X108834374Y-41100102D01*
X108824404Y-41150223D01*
X108809576Y-41199105D01*
X108804569Y-41249943D01*
X108794600Y-41300061D01*
X108794600Y-41351162D01*
X108789593Y-41402000D01*
X106059204Y-41402000D01*
X104519000Y-39861797D01*
X104519000Y-38930711D01*
X104562937Y-38886774D01*
X104676205Y-38717256D01*
X104754226Y-38528898D01*
X104794000Y-38328939D01*
X104794000Y-38125061D01*
X104754226Y-37925102D01*
X104676205Y-37736744D01*
X104562937Y-37567226D01*
X104418774Y-37423063D01*
X104249256Y-37309795D01*
X104060898Y-37231774D01*
X103860939Y-37192000D01*
X103657061Y-37192000D01*
X103457102Y-37231774D01*
X103268744Y-37309795D01*
X103251000Y-37321651D01*
X103233256Y-37309795D01*
X103044898Y-37231774D01*
X102844939Y-37192000D01*
X102641061Y-37192000D01*
X102441102Y-37231774D01*
X102252744Y-37309795D01*
X102235000Y-37321651D01*
X102217256Y-37309795D01*
X102028898Y-37231774D01*
X101828939Y-37192000D01*
X101625061Y-37192000D01*
X101425102Y-37231774D01*
X101236744Y-37309795D01*
X101219000Y-37321651D01*
X101201256Y-37309795D01*
X101012898Y-37231774D01*
X100812939Y-37192000D01*
X100609061Y-37192000D01*
X100409102Y-37231774D01*
X100220744Y-37309795D01*
X100051226Y-37423063D01*
X99907063Y-37567226D01*
X99793795Y-37736744D01*
X99715774Y-37925102D01*
X99676000Y-38125061D01*
X99676000Y-38328939D01*
X99715774Y-38528898D01*
X99793795Y-38717256D01*
X99907063Y-38886774D01*
X99951001Y-38930712D01*
X99951000Y-42188877D01*
X99947324Y-42226200D01*
X99951000Y-42263522D01*
X99951000Y-42263532D01*
X99961997Y-42375185D01*
X100005454Y-42518446D01*
X100076026Y-42650476D01*
X100115871Y-42699026D01*
X100170999Y-42766201D01*
X100200003Y-42790004D01*
X108340001Y-50930003D01*
X108340000Y-57240602D01*
X108245937Y-57099826D01*
X108101774Y-56955663D01*
X107932256Y-56842395D01*
X107743898Y-56764374D01*
X107543939Y-56724600D01*
X107340061Y-56724600D01*
X107140102Y-56764374D01*
X106951744Y-56842395D01*
X106782226Y-56955663D01*
X106738289Y-56999600D01*
X102505722Y-56999600D01*
X102347075Y-56762168D01*
X102140232Y-56555325D01*
X101897011Y-56392810D01*
X101626758Y-56280868D01*
X101339860Y-56223800D01*
X101047340Y-56223800D01*
X100760442Y-56280868D01*
X100490189Y-56392810D01*
X100246968Y-56555325D01*
X100115113Y-56687180D01*
X100093102Y-56614620D01*
X100034137Y-56504306D01*
X99954785Y-56407615D01*
X99858094Y-56328263D01*
X99747780Y-56269298D01*
X99628082Y-56232988D01*
X99503600Y-56220728D01*
X97803600Y-56220728D01*
X97679118Y-56232988D01*
X97559420Y-56269298D01*
X97449106Y-56328263D01*
X97352415Y-56407615D01*
X97273063Y-56504306D01*
X97214098Y-56614620D01*
X97177788Y-56734318D01*
X97165528Y-56858800D01*
X97165528Y-58558800D01*
X97177788Y-58683282D01*
X97214098Y-58802980D01*
X97273063Y-58913294D01*
X97352415Y-59009985D01*
X97449106Y-59089337D01*
X97559420Y-59148302D01*
X97679118Y-59184612D01*
X97803600Y-59196872D01*
X99503600Y-59196872D01*
X99628082Y-59184612D01*
X99747780Y-59148302D01*
X99858094Y-59089337D01*
X99954785Y-59009985D01*
X100034137Y-58913294D01*
X100093102Y-58802980D01*
X100115113Y-58730420D01*
X100246968Y-58862275D01*
X100490189Y-59024790D01*
X100760442Y-59136732D01*
X101047340Y-59193800D01*
X101339860Y-59193800D01*
X101626758Y-59136732D01*
X101897011Y-59024790D01*
X102140232Y-58862275D01*
X102347075Y-58655432D01*
X102437835Y-58519600D01*
X106738289Y-58519600D01*
X106782226Y-58563537D01*
X106951744Y-58676805D01*
X107140102Y-58754826D01*
X107340061Y-58794600D01*
X107543939Y-58794600D01*
X107743898Y-58754826D01*
X107932256Y-58676805D01*
X108101774Y-58563537D01*
X108245937Y-58419374D01*
X108340000Y-58278598D01*
X108340000Y-61410289D01*
X108304974Y-61375263D01*
X108135456Y-61261995D01*
X107947098Y-61183974D01*
X107747139Y-61144200D01*
X107543261Y-61144200D01*
X107343302Y-61183974D01*
X107154944Y-61261995D01*
X106985426Y-61375263D01*
X106841263Y-61519426D01*
X106727995Y-61688944D01*
X106649974Y-61877302D01*
X106610200Y-62077261D01*
X106610200Y-62139397D01*
X98826887Y-69922712D01*
X98701498Y-69870774D01*
X98501539Y-69831000D01*
X98297661Y-69831000D01*
X98097702Y-69870774D01*
X97909344Y-69948795D01*
X97739826Y-70062063D01*
X97595663Y-70206226D01*
X97482395Y-70375744D01*
X97404374Y-70564102D01*
X97364600Y-70764061D01*
X97364600Y-70967939D01*
X97404374Y-71167898D01*
X97482395Y-71356256D01*
X97595663Y-71525774D01*
X97739826Y-71669937D01*
X97909344Y-71783205D01*
X98097702Y-71861226D01*
X98297661Y-71901000D01*
X98501539Y-71901000D01*
X98701498Y-71861226D01*
X98889856Y-71783205D01*
X99059374Y-71669937D01*
X99117322Y-71611989D01*
X99250647Y-71571546D01*
X99382676Y-71500974D01*
X99498401Y-71406001D01*
X99522204Y-71376997D01*
X101330141Y-69569060D01*
X101381295Y-69692556D01*
X101494563Y-69862074D01*
X101638726Y-70006237D01*
X101808244Y-70119505D01*
X101996602Y-70197526D01*
X102196561Y-70237300D01*
X102400439Y-70237300D01*
X102600398Y-70197526D01*
X102692197Y-70159501D01*
X100142199Y-72709500D01*
X88035622Y-72709500D01*
X87998299Y-72705824D01*
X87960976Y-72709500D01*
X87960967Y-72709500D01*
X87849314Y-72720497D01*
X87706053Y-72763954D01*
X87574024Y-72834526D01*
X87458299Y-72929499D01*
X87434501Y-72958497D01*
X86713899Y-73679100D01*
X86651761Y-73679100D01*
X86451802Y-73718874D01*
X86263444Y-73796895D01*
X86093926Y-73910163D01*
X85949763Y-74054326D01*
X85836495Y-74223844D01*
X85758474Y-74412202D01*
X85718700Y-74612161D01*
X41660000Y-74612161D01*
X41660000Y-68579661D01*
X45955000Y-68579661D01*
X45955000Y-68783539D01*
X45994774Y-68983498D01*
X46072795Y-69171856D01*
X46186063Y-69341374D01*
X46330226Y-69485537D01*
X46499744Y-69598805D01*
X46688102Y-69676826D01*
X46888061Y-69716600D01*
X47091939Y-69716600D01*
X47291898Y-69676826D01*
X47480256Y-69598805D01*
X47603285Y-69516600D01*
X53705382Y-69516600D01*
X53746400Y-69520640D01*
X53787418Y-69516600D01*
X53787419Y-69516600D01*
X53910089Y-69504518D01*
X54067487Y-69456772D01*
X54212546Y-69379236D01*
X54339691Y-69274891D01*
X54365846Y-69243021D01*
X56341575Y-67267292D01*
X56486698Y-67238426D01*
X56675056Y-67160405D01*
X56844574Y-67047137D01*
X56988737Y-66902974D01*
X57102005Y-66733456D01*
X57180026Y-66545098D01*
X57219800Y-66345139D01*
X57219800Y-66141261D01*
X57180026Y-65941302D01*
X57102005Y-65752944D01*
X56988737Y-65583426D01*
X56844574Y-65439263D01*
X56675056Y-65325995D01*
X56486698Y-65247974D01*
X56286739Y-65208200D01*
X56082861Y-65208200D01*
X55882902Y-65247974D01*
X55694544Y-65325995D01*
X55525026Y-65439263D01*
X55380863Y-65583426D01*
X55267595Y-65752944D01*
X55189574Y-65941302D01*
X55160708Y-66086425D01*
X53400533Y-67846600D01*
X47603285Y-67846600D01*
X47480256Y-67764395D01*
X47291898Y-67686374D01*
X47091939Y-67646600D01*
X46888061Y-67646600D01*
X46688102Y-67686374D01*
X46499744Y-67764395D01*
X46330226Y-67877663D01*
X46186063Y-68021826D01*
X46072795Y-68191344D01*
X45994774Y-68379702D01*
X45955000Y-68579661D01*
X41660000Y-68579661D01*
X41660000Y-48831500D01*
X41885994Y-48831500D01*
X41891000Y-48882328D01*
X41891001Y-58496162D01*
X41885994Y-58547000D01*
X41905977Y-58749895D01*
X41965160Y-58944993D01*
X42061266Y-59124797D01*
X42158197Y-59242907D01*
X42190605Y-59282396D01*
X42230092Y-59314802D01*
X43682197Y-60766908D01*
X43714604Y-60806396D01*
X43872203Y-60935734D01*
X44052007Y-61031841D01*
X44247105Y-61091024D01*
X44399162Y-61106000D01*
X44399171Y-61106000D01*
X44449999Y-61111006D01*
X44500827Y-61106000D01*
X45162893Y-61106000D01*
X45281368Y-61224475D01*
X45455760Y-61341000D01*
X45281368Y-61457525D01*
X45074525Y-61664368D01*
X44912010Y-61907589D01*
X44800068Y-62177842D01*
X44743000Y-62464740D01*
X44743000Y-62757260D01*
X44800068Y-63044158D01*
X44912010Y-63314411D01*
X45074525Y-63557632D01*
X45281368Y-63764475D01*
X45455760Y-63881000D01*
X45281368Y-63997525D01*
X45074525Y-64204368D01*
X44912010Y-64447589D01*
X44800068Y-64717842D01*
X44743000Y-65004740D01*
X44743000Y-65297260D01*
X44800068Y-65584158D01*
X44912010Y-65854411D01*
X45074525Y-66097632D01*
X45281368Y-66304475D01*
X45524589Y-66466990D01*
X45794842Y-66578932D01*
X46081740Y-66636000D01*
X46374260Y-66636000D01*
X46661158Y-66578932D01*
X46931411Y-66466990D01*
X47174632Y-66304475D01*
X47381475Y-66097632D01*
X47543990Y-65854411D01*
X47655932Y-65584158D01*
X47713000Y-65297260D01*
X47713000Y-65004740D01*
X47655932Y-64717842D01*
X47543990Y-64447589D01*
X47381475Y-64204368D01*
X47174632Y-63997525D01*
X47000240Y-63881000D01*
X47174632Y-63764475D01*
X47381475Y-63557632D01*
X47543990Y-63314411D01*
X47655932Y-63044158D01*
X47713000Y-62757260D01*
X47713000Y-62464740D01*
X47655932Y-62177842D01*
X47543990Y-61907589D01*
X47381475Y-61664368D01*
X47174632Y-61457525D01*
X47000240Y-61341000D01*
X47174632Y-61224475D01*
X47381475Y-61017632D01*
X47543990Y-60774411D01*
X47655932Y-60504158D01*
X47713000Y-60217260D01*
X47713000Y-59924740D01*
X47655932Y-59637842D01*
X47543990Y-59367589D01*
X47381475Y-59124368D01*
X47249620Y-58992513D01*
X47322180Y-58970502D01*
X47432494Y-58911537D01*
X47529185Y-58832185D01*
X47608537Y-58735494D01*
X47667502Y-58625180D01*
X47703812Y-58505482D01*
X47716072Y-58381000D01*
X48549928Y-58381000D01*
X48562188Y-58505482D01*
X48598498Y-58625180D01*
X48657463Y-58735494D01*
X48736815Y-58832185D01*
X48833506Y-58911537D01*
X48943820Y-58970502D01*
X49016380Y-58992513D01*
X48884525Y-59124368D01*
X48722010Y-59367589D01*
X48610068Y-59637842D01*
X48553000Y-59924740D01*
X48553000Y-60217260D01*
X48610068Y-60504158D01*
X48722010Y-60774411D01*
X48884525Y-61017632D01*
X49091368Y-61224475D01*
X49265760Y-61341000D01*
X49091368Y-61457525D01*
X48884525Y-61664368D01*
X48722010Y-61907589D01*
X48610068Y-62177842D01*
X48553000Y-62464740D01*
X48553000Y-62757260D01*
X48610068Y-63044158D01*
X48722010Y-63314411D01*
X48884525Y-63557632D01*
X49091368Y-63764475D01*
X49265760Y-63881000D01*
X49091368Y-63997525D01*
X48884525Y-64204368D01*
X48722010Y-64447589D01*
X48610068Y-64717842D01*
X48553000Y-65004740D01*
X48553000Y-65297260D01*
X48610068Y-65584158D01*
X48722010Y-65854411D01*
X48884525Y-66097632D01*
X49091368Y-66304475D01*
X49334589Y-66466990D01*
X49604842Y-66578932D01*
X49891740Y-66636000D01*
X50184260Y-66636000D01*
X50471158Y-66578932D01*
X50741411Y-66466990D01*
X50984632Y-66304475D01*
X51191475Y-66097632D01*
X51353990Y-65854411D01*
X51465932Y-65584158D01*
X51523000Y-65297260D01*
X51523000Y-65004740D01*
X51465932Y-64717842D01*
X51353990Y-64447589D01*
X51191475Y-64204368D01*
X50984632Y-63997525D01*
X50810240Y-63881000D01*
X50984632Y-63764475D01*
X51191475Y-63557632D01*
X51353990Y-63314411D01*
X51465932Y-63044158D01*
X51523000Y-62757260D01*
X51523000Y-62464740D01*
X51465932Y-62177842D01*
X51353990Y-61907589D01*
X51191475Y-61664368D01*
X50984632Y-61457525D01*
X50810240Y-61341000D01*
X50984632Y-61224475D01*
X51191475Y-61017632D01*
X51353990Y-60774411D01*
X51465932Y-60504158D01*
X51523000Y-60217260D01*
X51523000Y-59924740D01*
X51465932Y-59637842D01*
X51353990Y-59367589D01*
X51191475Y-59124368D01*
X51059620Y-58992513D01*
X51132180Y-58970502D01*
X51242494Y-58911537D01*
X51339185Y-58832185D01*
X51418537Y-58735494D01*
X51477502Y-58625180D01*
X51513812Y-58505482D01*
X51526072Y-58381000D01*
X51523000Y-57816750D01*
X51364250Y-57658000D01*
X50165000Y-57658000D01*
X50165000Y-57678000D01*
X49911000Y-57678000D01*
X49911000Y-57658000D01*
X48711750Y-57658000D01*
X48553000Y-57816750D01*
X48549928Y-58381000D01*
X47716072Y-58381000D01*
X47713000Y-57816750D01*
X47554250Y-57658000D01*
X46355000Y-57658000D01*
X46355000Y-57678000D01*
X46101000Y-57678000D01*
X46101000Y-57658000D01*
X44901750Y-57658000D01*
X44743000Y-57816750D01*
X44739928Y-58381000D01*
X44752188Y-58505482D01*
X44788498Y-58625180D01*
X44847463Y-58735494D01*
X44926815Y-58832185D01*
X45023506Y-58911537D01*
X45133820Y-58970502D01*
X45206380Y-58992513D01*
X45162893Y-59036000D01*
X44878711Y-59036000D01*
X43961000Y-58118290D01*
X43961000Y-56681000D01*
X44739928Y-56681000D01*
X44743000Y-57245250D01*
X44901750Y-57404000D01*
X46101000Y-57404000D01*
X46101000Y-56204750D01*
X46355000Y-56204750D01*
X46355000Y-57404000D01*
X47554250Y-57404000D01*
X47713000Y-57245250D01*
X47716072Y-56681000D01*
X48549928Y-56681000D01*
X48553000Y-57245250D01*
X48711750Y-57404000D01*
X49911000Y-57404000D01*
X49911000Y-56204750D01*
X50165000Y-56204750D01*
X50165000Y-57404000D01*
X51364250Y-57404000D01*
X51523000Y-57245250D01*
X51526072Y-56681000D01*
X51513812Y-56556518D01*
X51477502Y-56436820D01*
X51418537Y-56326506D01*
X51339185Y-56229815D01*
X51242494Y-56150463D01*
X51132180Y-56091498D01*
X51012482Y-56055188D01*
X50888000Y-56042928D01*
X50323750Y-56046000D01*
X50165000Y-56204750D01*
X49911000Y-56204750D01*
X49752250Y-56046000D01*
X49188000Y-56042928D01*
X49063518Y-56055188D01*
X48943820Y-56091498D01*
X48833506Y-56150463D01*
X48736815Y-56229815D01*
X48657463Y-56326506D01*
X48598498Y-56436820D01*
X48562188Y-56556518D01*
X48549928Y-56681000D01*
X47716072Y-56681000D01*
X47703812Y-56556518D01*
X47667502Y-56436820D01*
X47608537Y-56326506D01*
X47529185Y-56229815D01*
X47432494Y-56150463D01*
X47322180Y-56091498D01*
X47202482Y-56055188D01*
X47078000Y-56042928D01*
X46513750Y-56046000D01*
X46355000Y-56204750D01*
X46101000Y-56204750D01*
X45942250Y-56046000D01*
X45378000Y-56042928D01*
X45253518Y-56055188D01*
X45133820Y-56091498D01*
X45023506Y-56150463D01*
X44926815Y-56229815D01*
X44847463Y-56326506D01*
X44788498Y-56436820D01*
X44752188Y-56556518D01*
X44739928Y-56681000D01*
X43961000Y-56681000D01*
X43961000Y-49719890D01*
X46630024Y-49719890D01*
X46722148Y-49982858D01*
X46869004Y-50234193D01*
X47062071Y-50452049D01*
X47293930Y-50628053D01*
X47555670Y-50755442D01*
X47837233Y-50829320D01*
X48069500Y-50689165D01*
X48069500Y-49490000D01*
X48323500Y-49490000D01*
X48323500Y-50689165D01*
X48555767Y-50829320D01*
X48837330Y-50755442D01*
X49099070Y-50628053D01*
X49330929Y-50452049D01*
X49523996Y-50234193D01*
X49670852Y-49982858D01*
X49762976Y-49719890D01*
X49641655Y-49490000D01*
X48323500Y-49490000D01*
X48069500Y-49490000D01*
X46751345Y-49490000D01*
X46630024Y-49719890D01*
X43961000Y-49719890D01*
X43961000Y-49364561D01*
X92056000Y-49364561D01*
X92056000Y-49568439D01*
X92095774Y-49768398D01*
X92173795Y-49956756D01*
X92256000Y-50079785D01*
X92256001Y-65743955D01*
X92249995Y-65752944D01*
X92171974Y-65941302D01*
X92132200Y-66141261D01*
X92132200Y-66345139D01*
X92171974Y-66545098D01*
X92249995Y-66733456D01*
X92363263Y-66902974D01*
X92507426Y-67047137D01*
X92676944Y-67160405D01*
X92865302Y-67238426D01*
X93065261Y-67278200D01*
X93269139Y-67278200D01*
X93469098Y-67238426D01*
X93657456Y-67160405D01*
X93826974Y-67047137D01*
X93971137Y-66902974D01*
X94084405Y-66733456D01*
X94162426Y-66545098D01*
X94202200Y-66345139D01*
X94202200Y-66141261D01*
X94162426Y-65941302D01*
X94129521Y-65861861D01*
X96767700Y-65861861D01*
X96767700Y-66065739D01*
X96807474Y-66265698D01*
X96885495Y-66454056D01*
X96998763Y-66623574D01*
X97042701Y-66667512D01*
X97042700Y-67253989D01*
X96998763Y-67297926D01*
X96885495Y-67467444D01*
X96807474Y-67655802D01*
X96767700Y-67855761D01*
X96767700Y-68059639D01*
X96807474Y-68259598D01*
X96885495Y-68447956D01*
X96998763Y-68617474D01*
X97142926Y-68761637D01*
X97312444Y-68874905D01*
X97500802Y-68952926D01*
X97700761Y-68992700D01*
X97904639Y-68992700D01*
X98104598Y-68952926D01*
X98292956Y-68874905D01*
X98462474Y-68761637D01*
X98606637Y-68617474D01*
X98719905Y-68447956D01*
X98797926Y-68259598D01*
X98837700Y-68059639D01*
X98837700Y-67855761D01*
X98797926Y-67655802D01*
X98719905Y-67467444D01*
X98606637Y-67297926D01*
X98562700Y-67253989D01*
X98562700Y-66667511D01*
X98606637Y-66623574D01*
X98719905Y-66454056D01*
X98797926Y-66265698D01*
X98837700Y-66065739D01*
X98837700Y-65861861D01*
X98797926Y-65661902D01*
X98719905Y-65473544D01*
X98606637Y-65304026D01*
X98462474Y-65159863D01*
X98292956Y-65046595D01*
X98104598Y-64968574D01*
X97904639Y-64928800D01*
X97700761Y-64928800D01*
X97500802Y-64968574D01*
X97312444Y-65046595D01*
X97142926Y-65159863D01*
X96998763Y-65304026D01*
X96885495Y-65473544D01*
X96807474Y-65661902D01*
X96767700Y-65861861D01*
X94129521Y-65861861D01*
X94084405Y-65752944D01*
X93971137Y-65583426D01*
X93926000Y-65538289D01*
X93926000Y-50301500D01*
X94700933Y-50301500D01*
X96054708Y-51655276D01*
X96083574Y-51800398D01*
X96161595Y-51988756D01*
X96274863Y-52158274D01*
X96419026Y-52302437D01*
X96588544Y-52415705D01*
X96776902Y-52493726D01*
X96976861Y-52533500D01*
X97180739Y-52533500D01*
X97380698Y-52493726D01*
X97569056Y-52415705D01*
X97738574Y-52302437D01*
X97882737Y-52158274D01*
X97996005Y-51988756D01*
X98074026Y-51800398D01*
X98113800Y-51600439D01*
X98113800Y-51396561D01*
X98074026Y-51196602D01*
X97996005Y-51008244D01*
X97882737Y-50838726D01*
X97738574Y-50694563D01*
X97569056Y-50581295D01*
X97380698Y-50503274D01*
X97235576Y-50474408D01*
X95666246Y-48905079D01*
X95640091Y-48873209D01*
X95512946Y-48768864D01*
X95367887Y-48691328D01*
X95210489Y-48643582D01*
X95087819Y-48631500D01*
X95087818Y-48631500D01*
X95046800Y-48627460D01*
X95005782Y-48631500D01*
X93704285Y-48631500D01*
X93581256Y-48549295D01*
X93392898Y-48471274D01*
X93192939Y-48431500D01*
X92989061Y-48431500D01*
X92789102Y-48471274D01*
X92600744Y-48549295D01*
X92431226Y-48662563D01*
X92287063Y-48806726D01*
X92173795Y-48976244D01*
X92095774Y-49164602D01*
X92056000Y-49364561D01*
X43961000Y-49364561D01*
X43961000Y-49260210D01*
X45323211Y-47898000D01*
X46999842Y-47898000D01*
X47016366Y-47918134D01*
X47242486Y-48103706D01*
X47268222Y-48117462D01*
X47062071Y-48273951D01*
X46869004Y-48491807D01*
X46722148Y-48743142D01*
X46630024Y-49006110D01*
X46751345Y-49236000D01*
X48069500Y-49236000D01*
X48069500Y-49216000D01*
X48323500Y-49216000D01*
X48323500Y-49236000D01*
X49641655Y-49236000D01*
X49762976Y-49006110D01*
X49670852Y-48743142D01*
X49523996Y-48491807D01*
X49330929Y-48273951D01*
X49124778Y-48117462D01*
X49150514Y-48103706D01*
X49376634Y-47918134D01*
X49562206Y-47692014D01*
X49700099Y-47434034D01*
X49785013Y-47154111D01*
X49813685Y-46863000D01*
X49785013Y-46571889D01*
X49700099Y-46291966D01*
X49562206Y-46033986D01*
X49376634Y-45807866D01*
X49150514Y-45622294D01*
X49133126Y-45613000D01*
X49150514Y-45603706D01*
X49376634Y-45418134D01*
X49562206Y-45192014D01*
X49700099Y-44934034D01*
X49785013Y-44654111D01*
X49813685Y-44363000D01*
X49785013Y-44071889D01*
X49700099Y-43791966D01*
X49562206Y-43533986D01*
X49376634Y-43307866D01*
X49313163Y-43255777D01*
X49414886Y-43201405D01*
X49549462Y-43090962D01*
X49659905Y-42956386D01*
X49741972Y-42802850D01*
X49792508Y-42636254D01*
X49809572Y-42463000D01*
X49809572Y-41263000D01*
X49792508Y-41089746D01*
X49741972Y-40923150D01*
X49659905Y-40769614D01*
X49549462Y-40635038D01*
X49414886Y-40524595D01*
X49261350Y-40442528D01*
X49094754Y-40391992D01*
X48921500Y-40374928D01*
X47471500Y-40374928D01*
X47298246Y-40391992D01*
X47131650Y-40442528D01*
X46978114Y-40524595D01*
X46843538Y-40635038D01*
X46733095Y-40769614D01*
X46651028Y-40923150D01*
X46600492Y-41089746D01*
X46583428Y-41263000D01*
X46583428Y-42463000D01*
X46600492Y-42636254D01*
X46651028Y-42802850D01*
X46733095Y-42956386D01*
X46843538Y-43090962D01*
X46978114Y-43201405D01*
X47079837Y-43255777D01*
X47016366Y-43307866D01*
X46830794Y-43533986D01*
X46692901Y-43791966D01*
X46607987Y-44071889D01*
X46579315Y-44363000D01*
X46607987Y-44654111D01*
X46692901Y-44934034D01*
X46830794Y-45192014D01*
X47016366Y-45418134D01*
X47242486Y-45603706D01*
X47259874Y-45613000D01*
X47242486Y-45622294D01*
X47016366Y-45807866D01*
X46999842Y-45828000D01*
X44945327Y-45828000D01*
X44894499Y-45822994D01*
X44843671Y-45828000D01*
X44843662Y-45828000D01*
X44691605Y-45842976D01*
X44496507Y-45902159D01*
X44412809Y-45946896D01*
X44316702Y-45998266D01*
X44198592Y-46095197D01*
X44159104Y-46127604D01*
X44126697Y-46167092D01*
X42230097Y-48063693D01*
X42190604Y-48096104D01*
X42061266Y-48253703D01*
X41965159Y-48433508D01*
X41905976Y-48628606D01*
X41891000Y-48780663D01*
X41891000Y-48780672D01*
X41885994Y-48831500D01*
X41660000Y-48831500D01*
X41660000Y-33870561D01*
X49638000Y-33870561D01*
X49638000Y-34074439D01*
X49677774Y-34274398D01*
X49755795Y-34462756D01*
X49869063Y-34632274D01*
X50013226Y-34776437D01*
X50182744Y-34889705D01*
X50371102Y-34967726D01*
X50571061Y-35007500D01*
X50774939Y-35007500D01*
X50974898Y-34967726D01*
X51163256Y-34889705D01*
X51332774Y-34776437D01*
X51376711Y-34732500D01*
X55946199Y-34732500D01*
X57025000Y-35811303D01*
X57025001Y-39936288D01*
X56981063Y-39980226D01*
X56867795Y-40149744D01*
X56789774Y-40338102D01*
X56750000Y-40538061D01*
X56750000Y-40741939D01*
X56789774Y-40941898D01*
X56867795Y-41130256D01*
X56981063Y-41299774D01*
X57125226Y-41443937D01*
X57294744Y-41557205D01*
X57483102Y-41635226D01*
X57683061Y-41675000D01*
X57886939Y-41675000D01*
X58086898Y-41635226D01*
X58275256Y-41557205D01*
X58444774Y-41443937D01*
X58588937Y-41299774D01*
X58702205Y-41130256D01*
X58780226Y-40941898D01*
X58820000Y-40741939D01*
X58820000Y-40538061D01*
X84029600Y-40538061D01*
X84029600Y-40741939D01*
X84069374Y-40941898D01*
X84147395Y-41130256D01*
X84260663Y-41299774D01*
X84404826Y-41443937D01*
X84574344Y-41557205D01*
X84762702Y-41635226D01*
X84962661Y-41675000D01*
X85166539Y-41675000D01*
X85366498Y-41635226D01*
X85554856Y-41557205D01*
X85724374Y-41443937D01*
X85768311Y-41400000D01*
X87281889Y-41400000D01*
X87325826Y-41443937D01*
X87495344Y-41557205D01*
X87683702Y-41635226D01*
X87883661Y-41675000D01*
X88087539Y-41675000D01*
X88287498Y-41635226D01*
X88475856Y-41557205D01*
X88645374Y-41443937D01*
X88789537Y-41299774D01*
X88902805Y-41130256D01*
X88980826Y-40941898D01*
X89020600Y-40741939D01*
X89020600Y-40538061D01*
X88980826Y-40338102D01*
X88902805Y-40149744D01*
X88789537Y-39980226D01*
X88645374Y-39836063D01*
X88475856Y-39722795D01*
X88287498Y-39644774D01*
X88087539Y-39605000D01*
X87883661Y-39605000D01*
X87683702Y-39644774D01*
X87495344Y-39722795D01*
X87325826Y-39836063D01*
X87281889Y-39880000D01*
X85768311Y-39880000D01*
X85724374Y-39836063D01*
X85554856Y-39722795D01*
X85366498Y-39644774D01*
X85166539Y-39605000D01*
X84962661Y-39605000D01*
X84762702Y-39644774D01*
X84574344Y-39722795D01*
X84404826Y-39836063D01*
X84260663Y-39980226D01*
X84147395Y-40149744D01*
X84069374Y-40338102D01*
X84029600Y-40538061D01*
X58820000Y-40538061D01*
X58780226Y-40338102D01*
X58702205Y-40149744D01*
X58588937Y-39980226D01*
X58545000Y-39936289D01*
X58545000Y-35533822D01*
X58548676Y-35496499D01*
X58546142Y-35470761D01*
X115436700Y-35470761D01*
X115436700Y-35674639D01*
X115476474Y-35874598D01*
X115554495Y-36062956D01*
X115636700Y-36185985D01*
X115636701Y-45094014D01*
X115554495Y-45217044D01*
X115476474Y-45405402D01*
X115436700Y-45605361D01*
X115436700Y-45809239D01*
X115476474Y-46009198D01*
X115554495Y-46197556D01*
X115667763Y-46367074D01*
X115811926Y-46511237D01*
X115981444Y-46624505D01*
X116169802Y-46702526D01*
X116369761Y-46742300D01*
X116573639Y-46742300D01*
X116773598Y-46702526D01*
X116961956Y-46624505D01*
X117131474Y-46511237D01*
X117275637Y-46367074D01*
X117388905Y-46197556D01*
X117466926Y-46009198D01*
X117506700Y-45809239D01*
X117506700Y-45605361D01*
X117466926Y-45405402D01*
X117388905Y-45217044D01*
X117306700Y-45094015D01*
X117306700Y-36185985D01*
X117388905Y-36062956D01*
X117466926Y-35874598D01*
X117506700Y-35674639D01*
X117506700Y-35470761D01*
X117466926Y-35270802D01*
X117388905Y-35082444D01*
X117275637Y-34912926D01*
X117131474Y-34768763D01*
X116961956Y-34655495D01*
X116773598Y-34577474D01*
X116573639Y-34537700D01*
X116369761Y-34537700D01*
X116169802Y-34577474D01*
X115981444Y-34655495D01*
X115811926Y-34768763D01*
X115667763Y-34912926D01*
X115554495Y-35082444D01*
X115476474Y-35270802D01*
X115436700Y-35470761D01*
X58546142Y-35470761D01*
X58545000Y-35459176D01*
X58545000Y-35459167D01*
X58534003Y-35347514D01*
X58490546Y-35204253D01*
X58419974Y-35072224D01*
X58396482Y-35043599D01*
X58348799Y-34985496D01*
X58348795Y-34985492D01*
X58325001Y-34956499D01*
X58296009Y-34932706D01*
X56824803Y-33461502D01*
X56801001Y-33432499D01*
X56685276Y-33337526D01*
X56553247Y-33266954D01*
X56409986Y-33223497D01*
X56298333Y-33212500D01*
X56298322Y-33212500D01*
X56261000Y-33208824D01*
X56223678Y-33212500D01*
X51376711Y-33212500D01*
X51332774Y-33168563D01*
X51163256Y-33055295D01*
X50974898Y-32977274D01*
X50774939Y-32937500D01*
X50571061Y-32937500D01*
X50371102Y-32977274D01*
X50182744Y-33055295D01*
X50013226Y-33168563D01*
X49869063Y-33312726D01*
X49755795Y-33482244D01*
X49677774Y-33670602D01*
X49638000Y-33870561D01*
X41660000Y-33870561D01*
X41660000Y-31165000D01*
X63279815Y-31165000D01*
X63308487Y-31456111D01*
X63393401Y-31736034D01*
X63531294Y-31994014D01*
X63716866Y-32220134D01*
X63942986Y-32405706D01*
X63960374Y-32415000D01*
X63942986Y-32424294D01*
X63716866Y-32609866D01*
X63531294Y-32835986D01*
X63393401Y-33093966D01*
X63308487Y-33373889D01*
X63279815Y-33665000D01*
X63308487Y-33956111D01*
X63393401Y-34236034D01*
X63531294Y-34494014D01*
X63716866Y-34720134D01*
X63942986Y-34905706D01*
X64200966Y-35043599D01*
X64480889Y-35128513D01*
X64699050Y-35150000D01*
X65094950Y-35150000D01*
X65313111Y-35128513D01*
X65593034Y-35043599D01*
X65851014Y-34905706D01*
X66077134Y-34720134D01*
X66093658Y-34700000D01*
X73225342Y-34700000D01*
X73241866Y-34720134D01*
X73467986Y-34905706D01*
X73725966Y-35043599D01*
X74005889Y-35128513D01*
X74224050Y-35150000D01*
X74619950Y-35150000D01*
X74838111Y-35128513D01*
X75118034Y-35043599D01*
X75376014Y-34905706D01*
X75602134Y-34720134D01*
X75618658Y-34700000D01*
X82750342Y-34700000D01*
X82766866Y-34720134D01*
X82992986Y-34905706D01*
X83250966Y-35043599D01*
X83530889Y-35128513D01*
X83749050Y-35150000D01*
X84144950Y-35150000D01*
X84363111Y-35128513D01*
X84643034Y-35043599D01*
X84901014Y-34905706D01*
X85127134Y-34720134D01*
X85143658Y-34700000D01*
X92275342Y-34700000D01*
X92291866Y-34720134D01*
X92517986Y-34905706D01*
X92775966Y-35043599D01*
X93055889Y-35128513D01*
X93274050Y-35150000D01*
X93669950Y-35150000D01*
X93888111Y-35128513D01*
X94168034Y-35043599D01*
X94426014Y-34905706D01*
X94652134Y-34720134D01*
X94668658Y-34700000D01*
X101800342Y-34700000D01*
X101816866Y-34720134D01*
X102042986Y-34905706D01*
X102300966Y-35043599D01*
X102580889Y-35128513D01*
X102799050Y-35150000D01*
X103194950Y-35150000D01*
X103413111Y-35128513D01*
X103693034Y-35043599D01*
X103951014Y-34905706D01*
X104177134Y-34720134D01*
X104193658Y-34700000D01*
X111325342Y-34700000D01*
X111341866Y-34720134D01*
X111567986Y-34905706D01*
X111825966Y-35043599D01*
X112105889Y-35128513D01*
X112324050Y-35150000D01*
X112719950Y-35150000D01*
X112938111Y-35128513D01*
X113218034Y-35043599D01*
X113476014Y-34905706D01*
X113702134Y-34720134D01*
X113887706Y-34494014D01*
X114025599Y-34236034D01*
X114110513Y-33956111D01*
X114139185Y-33665000D01*
X114110513Y-33373889D01*
X114025599Y-33093966D01*
X113887706Y-32835986D01*
X113702134Y-32609866D01*
X113476014Y-32424294D01*
X113458626Y-32415000D01*
X113476014Y-32405706D01*
X113702134Y-32220134D01*
X113887706Y-31994014D01*
X114025599Y-31736034D01*
X114110513Y-31456111D01*
X114139185Y-31165000D01*
X114110513Y-30873889D01*
X114025599Y-30593966D01*
X113887706Y-30335986D01*
X113702134Y-30109866D01*
X113638663Y-30057777D01*
X113740386Y-30003405D01*
X113874962Y-29892962D01*
X113985405Y-29758386D01*
X114067472Y-29604850D01*
X114118008Y-29438254D01*
X114135072Y-29265000D01*
X114135072Y-28065000D01*
X114118008Y-27891746D01*
X114067472Y-27725150D01*
X113985405Y-27571614D01*
X113874962Y-27437038D01*
X113740386Y-27326595D01*
X113586850Y-27244528D01*
X113420254Y-27193992D01*
X113247000Y-27176928D01*
X111797000Y-27176928D01*
X111623746Y-27193992D01*
X111457150Y-27244528D01*
X111303614Y-27326595D01*
X111169038Y-27437038D01*
X111058595Y-27571614D01*
X110976528Y-27725150D01*
X110925992Y-27891746D01*
X110908928Y-28065000D01*
X110908928Y-29265000D01*
X110925992Y-29438254D01*
X110976528Y-29604850D01*
X111058595Y-29758386D01*
X111169038Y-29892962D01*
X111303614Y-30003405D01*
X111405337Y-30057777D01*
X111341866Y-30109866D01*
X111156294Y-30335986D01*
X111018401Y-30593966D01*
X110933487Y-30873889D01*
X110904815Y-31165000D01*
X110933487Y-31456111D01*
X111018401Y-31736034D01*
X111156294Y-31994014D01*
X111341866Y-32220134D01*
X111567986Y-32405706D01*
X111585374Y-32415000D01*
X111567986Y-32424294D01*
X111341866Y-32609866D01*
X111325342Y-32630000D01*
X104193658Y-32630000D01*
X104177134Y-32609866D01*
X103951014Y-32424294D01*
X103933626Y-32415000D01*
X103951014Y-32405706D01*
X104177134Y-32220134D01*
X104362706Y-31994014D01*
X104500599Y-31736034D01*
X104585513Y-31456111D01*
X104614185Y-31165000D01*
X104585513Y-30873889D01*
X104500599Y-30593966D01*
X104362706Y-30335986D01*
X104177134Y-30109866D01*
X104113663Y-30057777D01*
X104215386Y-30003405D01*
X104349962Y-29892962D01*
X104460405Y-29758386D01*
X104542472Y-29604850D01*
X104593008Y-29438254D01*
X104610072Y-29265000D01*
X104610072Y-28065000D01*
X104593008Y-27891746D01*
X104542472Y-27725150D01*
X104460405Y-27571614D01*
X104349962Y-27437038D01*
X104215386Y-27326595D01*
X104061850Y-27244528D01*
X103895254Y-27193992D01*
X103722000Y-27176928D01*
X102272000Y-27176928D01*
X102098746Y-27193992D01*
X101932150Y-27244528D01*
X101778614Y-27326595D01*
X101644038Y-27437038D01*
X101533595Y-27571614D01*
X101451528Y-27725150D01*
X101400992Y-27891746D01*
X101383928Y-28065000D01*
X101383928Y-29265000D01*
X101400992Y-29438254D01*
X101451528Y-29604850D01*
X101533595Y-29758386D01*
X101644038Y-29892962D01*
X101778614Y-30003405D01*
X101880337Y-30057777D01*
X101816866Y-30109866D01*
X101631294Y-30335986D01*
X101493401Y-30593966D01*
X101408487Y-30873889D01*
X101379815Y-31165000D01*
X101408487Y-31456111D01*
X101493401Y-31736034D01*
X101631294Y-31994014D01*
X101816866Y-32220134D01*
X102042986Y-32405706D01*
X102060374Y-32415000D01*
X102042986Y-32424294D01*
X101816866Y-32609866D01*
X101800342Y-32630000D01*
X94668658Y-32630000D01*
X94652134Y-32609866D01*
X94426014Y-32424294D01*
X94408626Y-32415000D01*
X94426014Y-32405706D01*
X94652134Y-32220134D01*
X94837706Y-31994014D01*
X94975599Y-31736034D01*
X95060513Y-31456111D01*
X95089185Y-31165000D01*
X95060513Y-30873889D01*
X94975599Y-30593966D01*
X94837706Y-30335986D01*
X94652134Y-30109866D01*
X94588663Y-30057777D01*
X94690386Y-30003405D01*
X94824962Y-29892962D01*
X94935405Y-29758386D01*
X95017472Y-29604850D01*
X95068008Y-29438254D01*
X95085072Y-29265000D01*
X95085072Y-28065000D01*
X95068008Y-27891746D01*
X95017472Y-27725150D01*
X94935405Y-27571614D01*
X94824962Y-27437038D01*
X94690386Y-27326595D01*
X94536850Y-27244528D01*
X94370254Y-27193992D01*
X94197000Y-27176928D01*
X92747000Y-27176928D01*
X92573746Y-27193992D01*
X92407150Y-27244528D01*
X92253614Y-27326595D01*
X92119038Y-27437038D01*
X92008595Y-27571614D01*
X91926528Y-27725150D01*
X91875992Y-27891746D01*
X91858928Y-28065000D01*
X91858928Y-29265000D01*
X91875992Y-29438254D01*
X91926528Y-29604850D01*
X92008595Y-29758386D01*
X92119038Y-29892962D01*
X92253614Y-30003405D01*
X92355337Y-30057777D01*
X92291866Y-30109866D01*
X92106294Y-30335986D01*
X91968401Y-30593966D01*
X91883487Y-30873889D01*
X91854815Y-31165000D01*
X91883487Y-31456111D01*
X91968401Y-31736034D01*
X92106294Y-31994014D01*
X92291866Y-32220134D01*
X92517986Y-32405706D01*
X92535374Y-32415000D01*
X92517986Y-32424294D01*
X92291866Y-32609866D01*
X92275342Y-32630000D01*
X85143658Y-32630000D01*
X85127134Y-32609866D01*
X84901014Y-32424294D01*
X84883626Y-32415000D01*
X84901014Y-32405706D01*
X85127134Y-32220134D01*
X85312706Y-31994014D01*
X85450599Y-31736034D01*
X85535513Y-31456111D01*
X85564185Y-31165000D01*
X85535513Y-30873889D01*
X85450599Y-30593966D01*
X85312706Y-30335986D01*
X85127134Y-30109866D01*
X85063663Y-30057777D01*
X85165386Y-30003405D01*
X85299962Y-29892962D01*
X85410405Y-29758386D01*
X85492472Y-29604850D01*
X85543008Y-29438254D01*
X85560072Y-29265000D01*
X85560072Y-28065000D01*
X85543008Y-27891746D01*
X85492472Y-27725150D01*
X85410405Y-27571614D01*
X85299962Y-27437038D01*
X85165386Y-27326595D01*
X85011850Y-27244528D01*
X84845254Y-27193992D01*
X84672000Y-27176928D01*
X83222000Y-27176928D01*
X83048746Y-27193992D01*
X82882150Y-27244528D01*
X82728614Y-27326595D01*
X82594038Y-27437038D01*
X82483595Y-27571614D01*
X82401528Y-27725150D01*
X82350992Y-27891746D01*
X82333928Y-28065000D01*
X82333928Y-29265000D01*
X82350992Y-29438254D01*
X82401528Y-29604850D01*
X82483595Y-29758386D01*
X82594038Y-29892962D01*
X82728614Y-30003405D01*
X82830337Y-30057777D01*
X82766866Y-30109866D01*
X82581294Y-30335986D01*
X82443401Y-30593966D01*
X82358487Y-30873889D01*
X82329815Y-31165000D01*
X82358487Y-31456111D01*
X82443401Y-31736034D01*
X82581294Y-31994014D01*
X82766866Y-32220134D01*
X82992986Y-32405706D01*
X83010374Y-32415000D01*
X82992986Y-32424294D01*
X82766866Y-32609866D01*
X82750342Y-32630000D01*
X75618658Y-32630000D01*
X75602134Y-32609866D01*
X75376014Y-32424294D01*
X75358626Y-32415000D01*
X75376014Y-32405706D01*
X75602134Y-32220134D01*
X75787706Y-31994014D01*
X75925599Y-31736034D01*
X76010513Y-31456111D01*
X76039185Y-31165000D01*
X76010513Y-30873889D01*
X75925599Y-30593966D01*
X75787706Y-30335986D01*
X75602134Y-30109866D01*
X75538663Y-30057777D01*
X75640386Y-30003405D01*
X75774962Y-29892962D01*
X75885405Y-29758386D01*
X75967472Y-29604850D01*
X76018008Y-29438254D01*
X76035072Y-29265000D01*
X76035072Y-28065000D01*
X76018008Y-27891746D01*
X75967472Y-27725150D01*
X75885405Y-27571614D01*
X75774962Y-27437038D01*
X75640386Y-27326595D01*
X75486850Y-27244528D01*
X75320254Y-27193992D01*
X75147000Y-27176928D01*
X73697000Y-27176928D01*
X73523746Y-27193992D01*
X73357150Y-27244528D01*
X73203614Y-27326595D01*
X73069038Y-27437038D01*
X72958595Y-27571614D01*
X72876528Y-27725150D01*
X72825992Y-27891746D01*
X72808928Y-28065000D01*
X72808928Y-29265000D01*
X72825992Y-29438254D01*
X72876528Y-29604850D01*
X72958595Y-29758386D01*
X73069038Y-29892962D01*
X73203614Y-30003405D01*
X73305337Y-30057777D01*
X73241866Y-30109866D01*
X73056294Y-30335986D01*
X72918401Y-30593966D01*
X72833487Y-30873889D01*
X72804815Y-31165000D01*
X72833487Y-31456111D01*
X72918401Y-31736034D01*
X73056294Y-31994014D01*
X73241866Y-32220134D01*
X73467986Y-32405706D01*
X73485374Y-32415000D01*
X73467986Y-32424294D01*
X73241866Y-32609866D01*
X73225342Y-32630000D01*
X66093658Y-32630000D01*
X66077134Y-32609866D01*
X65851014Y-32424294D01*
X65833626Y-32415000D01*
X65851014Y-32405706D01*
X66077134Y-32220134D01*
X66262706Y-31994014D01*
X66400599Y-31736034D01*
X66485513Y-31456111D01*
X66514185Y-31165000D01*
X66485513Y-30873889D01*
X66400599Y-30593966D01*
X66262706Y-30335986D01*
X66077134Y-30109866D01*
X66013663Y-30057777D01*
X66115386Y-30003405D01*
X66249962Y-29892962D01*
X66360405Y-29758386D01*
X66442472Y-29604850D01*
X66493008Y-29438254D01*
X66510072Y-29265000D01*
X66510072Y-28065000D01*
X66493008Y-27891746D01*
X66442472Y-27725150D01*
X66360405Y-27571614D01*
X66249962Y-27437038D01*
X66115386Y-27326595D01*
X65961850Y-27244528D01*
X65795254Y-27193992D01*
X65622000Y-27176928D01*
X64172000Y-27176928D01*
X63998746Y-27193992D01*
X63832150Y-27244528D01*
X63678614Y-27326595D01*
X63544038Y-27437038D01*
X63433595Y-27571614D01*
X63351528Y-27725150D01*
X63300992Y-27891746D01*
X63283928Y-28065000D01*
X63283928Y-29265000D01*
X63300992Y-29438254D01*
X63351528Y-29604850D01*
X63433595Y-29758386D01*
X63544038Y-29892962D01*
X63678614Y-30003405D01*
X63780337Y-30057777D01*
X63716866Y-30109866D01*
X63531294Y-30335986D01*
X63393401Y-30593966D01*
X63308487Y-30873889D01*
X63279815Y-31165000D01*
X41660000Y-31165000D01*
X41660000Y-28904155D01*
X42021161Y-29444670D01*
X42555330Y-29978839D01*
X43183446Y-30398533D01*
X43881372Y-30687623D01*
X44622285Y-30835000D01*
X45377715Y-30835000D01*
X46118628Y-30687623D01*
X46816554Y-30398533D01*
X47444670Y-29978839D01*
X47978839Y-29444670D01*
X48398533Y-28816554D01*
X48687623Y-28118628D01*
X48835000Y-27377715D01*
X48835000Y-26622285D01*
X48687623Y-25881372D01*
X48398533Y-25183446D01*
X47978839Y-24555330D01*
X47444670Y-24021161D01*
X46904155Y-23660000D01*
X125095845Y-23660000D01*
X124555330Y-24021161D01*
%TA.AperFunction,Conductor*%
D25*
G36*
X124555330Y-24021161D02*
G01*
X124021161Y-24555330D01*
X123601467Y-25183446D01*
X123312377Y-25881372D01*
X123165000Y-26622285D01*
X123165000Y-27377715D01*
X123312377Y-28118628D01*
X123601467Y-28816554D01*
X124021161Y-29444670D01*
X124555330Y-29978839D01*
X125183446Y-30398533D01*
X125334255Y-30461000D01*
X124533111Y-30461000D01*
X119142707Y-25070597D01*
X119110296Y-25031104D01*
X118952697Y-24901766D01*
X118772893Y-24805659D01*
X118577795Y-24746476D01*
X118425738Y-24731500D01*
X118425728Y-24731500D01*
X118374900Y-24726494D01*
X118324072Y-24731500D01*
X112358361Y-24731500D01*
X112324230Y-24738289D01*
X112241105Y-24746476D01*
X112161178Y-24770722D01*
X112158402Y-24771274D01*
X112155787Y-24772357D01*
X112046007Y-24805659D01*
X111866203Y-24901766D01*
X111708604Y-25031104D01*
X111579266Y-25188703D01*
X111483159Y-25368507D01*
X111423976Y-25563605D01*
X111403993Y-25766500D01*
X111423976Y-25969395D01*
X111483159Y-26164493D01*
X111579266Y-26344297D01*
X111708604Y-26501896D01*
X111866203Y-26631234D01*
X112046007Y-26727341D01*
X112155787Y-26760643D01*
X112158402Y-26761726D01*
X112161178Y-26762278D01*
X112241105Y-26786524D01*
X112324230Y-26794711D01*
X112358361Y-26801500D01*
X117946190Y-26801500D01*
X123336596Y-32191907D01*
X123369004Y-32231396D01*
X123408492Y-32263803D01*
X123526602Y-32360734D01*
X123706406Y-32456841D01*
X123751815Y-32470615D01*
X123901505Y-32516024D01*
X124053562Y-32531000D01*
X124053565Y-32531000D01*
X124104400Y-32536007D01*
X124155235Y-32531000D01*
X127587290Y-32531000D01*
X128454201Y-33397912D01*
X128454200Y-37874489D01*
X127993690Y-38335000D01*
X124139239Y-38335000D01*
X124088401Y-38329993D01*
X124037563Y-38335000D01*
X123885506Y-38349976D01*
X123690408Y-38409159D01*
X123510604Y-38505266D01*
X123353005Y-38634604D01*
X123223667Y-38792203D01*
X123127560Y-38972007D01*
X123068377Y-39167105D01*
X123048394Y-39370000D01*
X123053402Y-39420848D01*
X123053402Y-40385656D01*
X123053401Y-40385661D01*
X123053401Y-40589539D01*
X123053402Y-40589544D01*
X123053401Y-69227404D01*
X122950680Y-69172498D01*
X122830982Y-69136188D01*
X122706500Y-69123928D01*
X122142250Y-69127000D01*
X121983500Y-69285750D01*
X121983500Y-70485000D01*
X122003500Y-70485000D01*
X122003500Y-70739000D01*
X121983500Y-70739000D01*
X121983500Y-71938250D01*
X122142250Y-72097000D01*
X122706500Y-72100072D01*
X122830982Y-72087812D01*
X122950680Y-72051502D01*
X123053401Y-71996596D01*
X123053401Y-75142573D01*
X123048395Y-75193401D01*
X123053401Y-75244229D01*
X123053401Y-75244238D01*
X123068377Y-75396295D01*
X123127560Y-75591393D01*
X123223667Y-75771198D01*
X123353005Y-75928797D01*
X123392498Y-75961208D01*
X124941487Y-77510197D01*
X124865000Y-77894721D01*
X124865000Y-78315279D01*
X124947047Y-78727756D01*
X125107988Y-79116302D01*
X125341637Y-79465983D01*
X125639017Y-79763363D01*
X125988698Y-79997012D01*
X126377244Y-80157953D01*
X126789721Y-80240000D01*
X127210279Y-80240000D01*
X127622756Y-80157953D01*
X128011302Y-79997012D01*
X128360983Y-79763363D01*
X128658363Y-79465983D01*
X128892012Y-79116302D01*
X129052953Y-78727756D01*
X129135000Y-78315279D01*
X129135000Y-77894721D01*
X129052953Y-77482244D01*
X128892012Y-77093698D01*
X128658363Y-76744017D01*
X128360983Y-76446637D01*
X128011302Y-76212988D01*
X127622756Y-76052047D01*
X127210279Y-75970000D01*
X126789721Y-75970000D01*
X126405197Y-76046487D01*
X125123401Y-74764691D01*
X125123401Y-70739000D01*
X130340001Y-70739000D01*
X130340000Y-86995000D01*
X121412000Y-86995000D01*
X121412000Y-84685000D01*
X124861928Y-84685000D01*
X124874188Y-84809482D01*
X124910498Y-84929180D01*
X124969463Y-85039494D01*
X125048815Y-85136185D01*
X125145506Y-85215537D01*
X125255820Y-85274502D01*
X125375518Y-85310812D01*
X125500000Y-85323072D01*
X126714250Y-85320000D01*
X126873000Y-85161250D01*
X126873000Y-83312000D01*
X127127000Y-83312000D01*
X127127000Y-85161250D01*
X127285750Y-85320000D01*
X128500000Y-85323072D01*
X128624482Y-85310812D01*
X128744180Y-85274502D01*
X128854494Y-85215537D01*
X128951185Y-85136185D01*
X129030537Y-85039494D01*
X129089502Y-84929180D01*
X129125812Y-84809482D01*
X129138072Y-84685000D01*
X129135000Y-83470750D01*
X128976250Y-83312000D01*
X127127000Y-83312000D01*
X126873000Y-83312000D01*
X125023750Y-83312000D01*
X124865000Y-83470750D01*
X124861928Y-84685000D01*
X121412000Y-84685000D01*
X121412000Y-82042000D01*
X121409560Y-82017224D01*
X121402333Y-81993399D01*
X121390597Y-81971443D01*
X121374803Y-81952197D01*
X121355557Y-81936403D01*
X121333601Y-81924667D01*
X121309776Y-81917440D01*
X121285000Y-81915000D01*
X118985000Y-81915000D01*
X118985000Y-81685000D01*
X124861928Y-81685000D01*
X124865000Y-82899250D01*
X125023750Y-83058000D01*
X126873000Y-83058000D01*
X126873000Y-81208750D01*
X127127000Y-81208750D01*
X127127000Y-83058000D01*
X128976250Y-83058000D01*
X129135000Y-82899250D01*
X129138072Y-81685000D01*
X129125812Y-81560518D01*
X129089502Y-81440820D01*
X129030537Y-81330506D01*
X128951185Y-81233815D01*
X128854494Y-81154463D01*
X128744180Y-81095498D01*
X128624482Y-81059188D01*
X128500000Y-81046928D01*
X127285750Y-81050000D01*
X127127000Y-81208750D01*
X126873000Y-81208750D01*
X126714250Y-81050000D01*
X125500000Y-81046928D01*
X125375518Y-81059188D01*
X125255820Y-81095498D01*
X125145506Y-81154463D01*
X125048815Y-81233815D01*
X124969463Y-81330506D01*
X124910498Y-81440820D01*
X124874188Y-81560518D01*
X124861928Y-81685000D01*
X118985000Y-81685000D01*
X118985000Y-78239627D01*
X118990006Y-78188799D01*
X118985000Y-78137971D01*
X118985000Y-78137962D01*
X118970024Y-77985905D01*
X118910841Y-77790807D01*
X118814734Y-77611003D01*
X118685396Y-77453404D01*
X118645908Y-77420997D01*
X118634003Y-77409092D01*
X118601596Y-77369604D01*
X118562108Y-77337197D01*
X118525974Y-77301063D01*
X118483484Y-77272672D01*
X118443997Y-77240266D01*
X118398946Y-77216186D01*
X118356456Y-77187795D01*
X118309242Y-77168238D01*
X118264193Y-77144159D01*
X118215313Y-77129331D01*
X118168098Y-77109774D01*
X118117977Y-77099804D01*
X118069095Y-77084976D01*
X118018257Y-77079969D01*
X117968139Y-77070000D01*
X117917028Y-77070000D01*
X117866200Y-77064994D01*
X117815372Y-77070000D01*
X100177635Y-77070000D01*
X100126800Y-77064993D01*
X100075965Y-77070000D01*
X82067435Y-77070000D01*
X82016600Y-77064993D01*
X81965765Y-77070000D01*
X81965762Y-77070000D01*
X81813705Y-77084976D01*
X81618607Y-77144159D01*
X81537331Y-77187602D01*
X81475544Y-77213195D01*
X81306026Y-77326463D01*
X81161863Y-77470626D01*
X81048595Y-77640144D01*
X81007611Y-77739086D01*
X80989160Y-77773607D01*
X80977798Y-77811061D01*
X80970574Y-77828502D01*
X80966891Y-77847016D01*
X80929977Y-77968705D01*
X80909994Y-78171600D01*
X80915001Y-78222438D01*
X80915000Y-81915000D01*
X76481523Y-81915000D01*
X76418533Y-81895892D01*
X76313651Y-81885562D01*
X76210279Y-81865000D01*
X76104882Y-81865000D01*
X76000000Y-81854670D01*
X75895118Y-81865000D01*
X75789721Y-81865000D01*
X75686349Y-81885562D01*
X75581468Y-81895892D01*
X75518476Y-81915000D01*
X66675000Y-81915000D01*
X66650224Y-81917440D01*
X66626399Y-81924667D01*
X66604443Y-81936403D01*
X66585197Y-81952197D01*
X66569403Y-81971443D01*
X66557667Y-81993399D01*
X66550440Y-82017224D01*
X66548000Y-82042000D01*
X66548000Y-112340000D01*
X46904155Y-112340000D01*
X47444670Y-111978839D01*
X47978839Y-111444670D01*
X48398533Y-110816554D01*
X48687623Y-110118628D01*
X48835000Y-109377715D01*
X48835000Y-108622285D01*
X48687623Y-107881372D01*
X48398533Y-107183446D01*
X47978839Y-106555330D01*
X47444670Y-106021161D01*
X46816554Y-105601467D01*
X46118628Y-105312377D01*
X45377715Y-105165000D01*
X44622285Y-105165000D01*
X43881372Y-105312377D01*
X43183446Y-105601467D01*
X42555330Y-106021161D01*
X42021161Y-106555330D01*
X41660000Y-107095845D01*
X41660000Y-74612161D01*
X85718700Y-74612161D01*
X85718700Y-74816039D01*
X85758474Y-75015998D01*
X85836495Y-75204356D01*
X85949763Y-75373874D01*
X86093926Y-75518037D01*
X86263444Y-75631305D01*
X86451802Y-75709326D01*
X86651761Y-75749100D01*
X86855639Y-75749100D01*
X87055598Y-75709326D01*
X87243956Y-75631305D01*
X87413474Y-75518037D01*
X87557637Y-75373874D01*
X87670905Y-75204356D01*
X87748926Y-75015998D01*
X87788700Y-74816039D01*
X87788700Y-74753901D01*
X88313102Y-74229500D01*
X100419678Y-74229500D01*
X100457000Y-74233176D01*
X100494322Y-74229500D01*
X100494333Y-74229500D01*
X100605986Y-74218503D01*
X100749247Y-74175046D01*
X100881276Y-74104474D01*
X100997001Y-74009501D01*
X101020804Y-73980497D01*
X107875502Y-67125800D01*
X107937639Y-67125800D01*
X108024762Y-67108470D01*
X104277079Y-70856154D01*
X104245209Y-70882309D01*
X104174935Y-70967939D01*
X104140864Y-71009455D01*
X104063328Y-71154514D01*
X104015582Y-71311912D01*
X103999460Y-71475600D01*
X104003500Y-71516619D01*
X104003501Y-74126214D01*
X103921295Y-74249244D01*
X103843274Y-74437602D01*
X103803500Y-74637561D01*
X103803500Y-74841439D01*
X103843274Y-75041398D01*
X103921295Y-75229756D01*
X104034563Y-75399274D01*
X104178726Y-75543437D01*
X104348244Y-75656705D01*
X104536602Y-75734726D01*
X104736561Y-75774500D01*
X104940439Y-75774500D01*
X105140398Y-75734726D01*
X105328756Y-75656705D01*
X105498274Y-75543437D01*
X105642437Y-75399274D01*
X105755705Y-75229756D01*
X105833726Y-75041398D01*
X105873500Y-74841439D01*
X105873500Y-74637561D01*
X105833726Y-74437602D01*
X105755705Y-74249244D01*
X105673500Y-74126215D01*
X105673500Y-71821467D01*
X110569168Y-66925800D01*
X111032415Y-66925800D01*
X111155444Y-67008005D01*
X111343802Y-67086026D01*
X111543761Y-67125800D01*
X111567899Y-67125800D01*
X109522908Y-69170791D01*
X109302760Y-69127000D01*
X109010240Y-69127000D01*
X108723342Y-69184068D01*
X108453089Y-69296010D01*
X108209868Y-69458525D01*
X108003025Y-69665368D01*
X107840510Y-69908589D01*
X107728568Y-70178842D01*
X107671500Y-70465740D01*
X107671500Y-70758260D01*
X107728568Y-71045158D01*
X107840510Y-71315411D01*
X108003025Y-71558632D01*
X108209868Y-71765475D01*
X108453089Y-71927990D01*
X108723342Y-72039932D01*
X109010240Y-72097000D01*
X109302760Y-72097000D01*
X109589658Y-72039932D01*
X109859911Y-71927990D01*
X110103132Y-71765475D01*
X110309975Y-71558632D01*
X110426500Y-71384240D01*
X110543025Y-71558632D01*
X110749868Y-71765475D01*
X110993089Y-71927990D01*
X111263342Y-72039932D01*
X111550240Y-72097000D01*
X111842760Y-72097000D01*
X112129658Y-72039932D01*
X112399911Y-71927990D01*
X112643132Y-71765475D01*
X112849975Y-71558632D01*
X112966500Y-71384240D01*
X113083025Y-71558632D01*
X113289868Y-71765475D01*
X113533089Y-71927990D01*
X113803342Y-72039932D01*
X114090240Y-72097000D01*
X114382760Y-72097000D01*
X114669658Y-72039932D01*
X114939911Y-71927990D01*
X115183132Y-71765475D01*
X115389975Y-71558632D01*
X115506500Y-71384240D01*
X115623025Y-71558632D01*
X115829868Y-71765475D01*
X116073089Y-71927990D01*
X116343342Y-72039932D01*
X116630240Y-72097000D01*
X116922760Y-72097000D01*
X117209658Y-72039932D01*
X117479911Y-71927990D01*
X117723132Y-71765475D01*
X117929975Y-71558632D01*
X118046500Y-71384240D01*
X118163025Y-71558632D01*
X118369868Y-71765475D01*
X118613089Y-71927990D01*
X118883342Y-72039932D01*
X119170240Y-72097000D01*
X119462760Y-72097000D01*
X119749658Y-72039932D01*
X120019911Y-71927990D01*
X120263132Y-71765475D01*
X120394987Y-71633620D01*
X120416998Y-71706180D01*
X120475963Y-71816494D01*
X120555315Y-71913185D01*
X120652006Y-71992537D01*
X120762320Y-72051502D01*
X120882018Y-72087812D01*
X121006500Y-72100072D01*
X121570750Y-72097000D01*
X121729500Y-71938250D01*
X121729500Y-70739000D01*
X121709500Y-70739000D01*
X121709500Y-70485000D01*
X121729500Y-70485000D01*
X121729500Y-69285750D01*
X121570750Y-69127000D01*
X121006500Y-69123928D01*
X120882018Y-69136188D01*
X120762320Y-69172498D01*
X120652006Y-69231463D01*
X120555315Y-69310815D01*
X120475963Y-69407506D01*
X120416998Y-69517820D01*
X120394987Y-69590380D01*
X120263132Y-69458525D01*
X120019911Y-69296010D01*
X119749658Y-69184068D01*
X119462760Y-69127000D01*
X119336303Y-69127000D01*
X119776709Y-68686594D01*
X119805701Y-68662801D01*
X119829495Y-68633808D01*
X119829499Y-68633804D01*
X119900673Y-68547077D01*
X119900674Y-68547076D01*
X119971246Y-68415047D01*
X120014703Y-68271786D01*
X120025700Y-68160133D01*
X120025700Y-68160124D01*
X120029376Y-68122801D01*
X120025700Y-68085478D01*
X120025700Y-66794511D01*
X120069637Y-66750574D01*
X120182905Y-66581056D01*
X120260926Y-66392698D01*
X120300700Y-66192739D01*
X120300700Y-65988861D01*
X120260926Y-65788902D01*
X120182905Y-65600544D01*
X120069637Y-65431026D01*
X119925474Y-65286863D01*
X119755956Y-65173595D01*
X119567598Y-65095574D01*
X119367639Y-65055800D01*
X119163761Y-65055800D01*
X118963802Y-65095574D01*
X118775444Y-65173595D01*
X118630700Y-65270310D01*
X118485956Y-65173595D01*
X118297598Y-65095574D01*
X118097639Y-65055800D01*
X117893761Y-65055800D01*
X117693802Y-65095574D01*
X117505444Y-65173595D01*
X117335926Y-65286863D01*
X117191763Y-65431026D01*
X117078495Y-65600544D01*
X117000474Y-65788902D01*
X116960700Y-65988861D01*
X116960700Y-66192739D01*
X117000474Y-66392698D01*
X117078495Y-66581056D01*
X117124216Y-66649482D01*
X114602908Y-69170791D01*
X114382760Y-69127000D01*
X114090240Y-69127000D01*
X113803342Y-69184068D01*
X113533089Y-69296010D01*
X113289868Y-69458525D01*
X113083025Y-69665368D01*
X112966500Y-69839760D01*
X112849975Y-69665368D01*
X112643132Y-69458525D01*
X112399911Y-69296010D01*
X112129658Y-69184068D01*
X111842760Y-69127000D01*
X111716301Y-69127000D01*
X119193802Y-61649500D01*
X119826289Y-61649500D01*
X119870226Y-61693437D01*
X120039744Y-61806705D01*
X120228102Y-61884726D01*
X120428061Y-61924500D01*
X120631939Y-61924500D01*
X120831898Y-61884726D01*
X121020256Y-61806705D01*
X121189774Y-61693437D01*
X121333937Y-61549274D01*
X121447205Y-61379756D01*
X121525226Y-61191398D01*
X121565000Y-60991439D01*
X121565000Y-60787561D01*
X121525226Y-60587602D01*
X121447205Y-60399244D01*
X121333937Y-60229726D01*
X121189774Y-60085563D01*
X121020256Y-59972295D01*
X120831898Y-59894274D01*
X120631939Y-59854500D01*
X120428061Y-59854500D01*
X120228102Y-59894274D01*
X120039744Y-59972295D01*
X119870226Y-60085563D01*
X119826289Y-60129500D01*
X118916322Y-60129500D01*
X118878999Y-60125824D01*
X118841676Y-60129500D01*
X118841667Y-60129500D01*
X118730014Y-60140497D01*
X118586753Y-60183954D01*
X118454724Y-60254526D01*
X118338999Y-60349499D01*
X118315201Y-60378497D01*
X115215000Y-63478698D01*
X115215000Y-63296461D01*
X115175226Y-63096502D01*
X115097205Y-62908144D01*
X114983937Y-62738626D01*
X114940000Y-62694689D01*
X114940000Y-50634931D01*
X114943677Y-50597598D01*
X114929003Y-50448612D01*
X114885546Y-50305351D01*
X114814974Y-50173322D01*
X114743799Y-50086595D01*
X114720001Y-50057597D01*
X114691003Y-50033799D01*
X106059204Y-41402000D01*
X108789593Y-41402000D01*
X108794600Y-41452838D01*
X108794600Y-41503939D01*
X108804569Y-41554057D01*
X108809576Y-41604895D01*
X108824404Y-41653777D01*
X108834374Y-41703898D01*
X108853931Y-41751113D01*
X108868759Y-41799993D01*
X108892838Y-41845042D01*
X108912395Y-41892256D01*
X108940786Y-41934746D01*
X108964866Y-41979797D01*
X108997272Y-42019284D01*
X109025663Y-42061774D01*
X109061797Y-42097908D01*
X109094204Y-42137396D01*
X109133692Y-42169803D01*
X109169826Y-42205937D01*
X109212316Y-42234328D01*
X109251803Y-42266734D01*
X109296854Y-42290814D01*
X109339344Y-42319205D01*
X109386558Y-42338762D01*
X109431607Y-42362841D01*
X109480487Y-42377669D01*
X109527702Y-42397226D01*
X109577823Y-42407196D01*
X109626705Y-42422024D01*
X109677543Y-42427031D01*
X109727661Y-42437000D01*
X113589139Y-42437000D01*
X113639257Y-42427031D01*
X113690095Y-42422024D01*
X113738977Y-42407196D01*
X113789098Y-42397226D01*
X113836313Y-42377669D01*
X113885193Y-42362841D01*
X113930242Y-42338762D01*
X113977456Y-42319205D01*
X114019946Y-42290814D01*
X114064997Y-42266734D01*
X114104484Y-42234328D01*
X114146974Y-42205937D01*
X114183108Y-42169803D01*
X114222596Y-42137396D01*
X114255003Y-42097908D01*
X114291137Y-42061774D01*
X114319528Y-42019284D01*
X114351934Y-41979797D01*
X114376014Y-41934746D01*
X114404405Y-41892256D01*
X114423962Y-41845042D01*
X114448041Y-41799993D01*
X114462869Y-41751113D01*
X114482426Y-41703898D01*
X114492396Y-41653777D01*
X114507224Y-41604895D01*
X114512231Y-41554057D01*
X114522200Y-41503939D01*
X114522200Y-41452838D01*
X114527207Y-41402000D01*
X114522200Y-41351162D01*
X114522200Y-41300061D01*
X114512231Y-41249943D01*
X114507224Y-41199105D01*
X114492396Y-41150223D01*
X114482426Y-41100102D01*
X114462869Y-41052887D01*
X114448041Y-41004007D01*
X114423962Y-40958958D01*
X114404405Y-40911744D01*
X114376014Y-40869254D01*
X114351934Y-40824203D01*
X114319528Y-40784716D01*
X114291137Y-40742226D01*
X114255003Y-40706092D01*
X114222596Y-40666604D01*
X114183108Y-40634197D01*
X114146974Y-40598063D01*
X114104484Y-40569672D01*
X114064997Y-40537266D01*
X114019946Y-40513186D01*
X113977456Y-40484795D01*
X113930242Y-40465238D01*
X113885193Y-40441159D01*
X113836313Y-40426331D01*
X113789098Y-40406774D01*
X113738977Y-40396804D01*
X113690095Y-40381976D01*
X113639257Y-40376969D01*
X113589139Y-40367000D01*
X109727661Y-40367000D01*
X109677543Y-40376969D01*
X109626705Y-40381976D01*
X109577823Y-40396804D01*
X109527702Y-40406774D01*
X109480487Y-40426331D01*
X109431607Y-40441159D01*
X109386558Y-40465238D01*
X109339344Y-40484795D01*
X109296854Y-40513186D01*
X109251803Y-40537266D01*
X109212316Y-40569672D01*
X109169826Y-40598063D01*
X109133692Y-40634197D01*
X109094204Y-40666604D01*
X109061797Y-40706092D01*
X109025663Y-40742226D01*
X108997272Y-40784716D01*
X108964866Y-40824203D01*
X108940786Y-40869254D01*
X108912395Y-40911744D01*
X108892838Y-40958958D01*
X108868759Y-41004007D01*
X108853931Y-41052887D01*
X108834374Y-41100102D01*
X108824404Y-41150223D01*
X108809576Y-41199105D01*
X108804569Y-41249943D01*
X108794600Y-41300061D01*
X108794600Y-41351162D01*
X108789593Y-41402000D01*
X106059204Y-41402000D01*
X104519000Y-39861797D01*
X104519000Y-38930711D01*
X104562937Y-38886774D01*
X104676205Y-38717256D01*
X104754226Y-38528898D01*
X104794000Y-38328939D01*
X104794000Y-38125061D01*
X104754226Y-37925102D01*
X104676205Y-37736744D01*
X104562937Y-37567226D01*
X104418774Y-37423063D01*
X104249256Y-37309795D01*
X104060898Y-37231774D01*
X103860939Y-37192000D01*
X103657061Y-37192000D01*
X103457102Y-37231774D01*
X103268744Y-37309795D01*
X103251000Y-37321651D01*
X103233256Y-37309795D01*
X103044898Y-37231774D01*
X102844939Y-37192000D01*
X102641061Y-37192000D01*
X102441102Y-37231774D01*
X102252744Y-37309795D01*
X102235000Y-37321651D01*
X102217256Y-37309795D01*
X102028898Y-37231774D01*
X101828939Y-37192000D01*
X101625061Y-37192000D01*
X101425102Y-37231774D01*
X101236744Y-37309795D01*
X101219000Y-37321651D01*
X101201256Y-37309795D01*
X101012898Y-37231774D01*
X100812939Y-37192000D01*
X100609061Y-37192000D01*
X100409102Y-37231774D01*
X100220744Y-37309795D01*
X100051226Y-37423063D01*
X99907063Y-37567226D01*
X99793795Y-37736744D01*
X99715774Y-37925102D01*
X99676000Y-38125061D01*
X99676000Y-38328939D01*
X99715774Y-38528898D01*
X99793795Y-38717256D01*
X99907063Y-38886774D01*
X99951001Y-38930712D01*
X99951000Y-42188877D01*
X99947324Y-42226200D01*
X99951000Y-42263522D01*
X99951000Y-42263532D01*
X99961997Y-42375185D01*
X100005454Y-42518446D01*
X100076026Y-42650476D01*
X100115871Y-42699026D01*
X100170999Y-42766201D01*
X100200003Y-42790004D01*
X108340001Y-50930003D01*
X108340000Y-57240602D01*
X108245937Y-57099826D01*
X108101774Y-56955663D01*
X107932256Y-56842395D01*
X107743898Y-56764374D01*
X107543939Y-56724600D01*
X107340061Y-56724600D01*
X107140102Y-56764374D01*
X106951744Y-56842395D01*
X106782226Y-56955663D01*
X106738289Y-56999600D01*
X102505722Y-56999600D01*
X102347075Y-56762168D01*
X102140232Y-56555325D01*
X101897011Y-56392810D01*
X101626758Y-56280868D01*
X101339860Y-56223800D01*
X101047340Y-56223800D01*
X100760442Y-56280868D01*
X100490189Y-56392810D01*
X100246968Y-56555325D01*
X100115113Y-56687180D01*
X100093102Y-56614620D01*
X100034137Y-56504306D01*
X99954785Y-56407615D01*
X99858094Y-56328263D01*
X99747780Y-56269298D01*
X99628082Y-56232988D01*
X99503600Y-56220728D01*
X97803600Y-56220728D01*
X97679118Y-56232988D01*
X97559420Y-56269298D01*
X97449106Y-56328263D01*
X97352415Y-56407615D01*
X97273063Y-56504306D01*
X97214098Y-56614620D01*
X97177788Y-56734318D01*
X97165528Y-56858800D01*
X97165528Y-58558800D01*
X97177788Y-58683282D01*
X97214098Y-58802980D01*
X97273063Y-58913294D01*
X97352415Y-59009985D01*
X97449106Y-59089337D01*
X97559420Y-59148302D01*
X97679118Y-59184612D01*
X97803600Y-59196872D01*
X99503600Y-59196872D01*
X99628082Y-59184612D01*
X99747780Y-59148302D01*
X99858094Y-59089337D01*
X99954785Y-59009985D01*
X100034137Y-58913294D01*
X100093102Y-58802980D01*
X100115113Y-58730420D01*
X100246968Y-58862275D01*
X100490189Y-59024790D01*
X100760442Y-59136732D01*
X101047340Y-59193800D01*
X101339860Y-59193800D01*
X101626758Y-59136732D01*
X101897011Y-59024790D01*
X102140232Y-58862275D01*
X102347075Y-58655432D01*
X102437835Y-58519600D01*
X106738289Y-58519600D01*
X106782226Y-58563537D01*
X106951744Y-58676805D01*
X107140102Y-58754826D01*
X107340061Y-58794600D01*
X107543939Y-58794600D01*
X107743898Y-58754826D01*
X107932256Y-58676805D01*
X108101774Y-58563537D01*
X108245937Y-58419374D01*
X108340000Y-58278598D01*
X108340000Y-61410289D01*
X108304974Y-61375263D01*
X108135456Y-61261995D01*
X107947098Y-61183974D01*
X107747139Y-61144200D01*
X107543261Y-61144200D01*
X107343302Y-61183974D01*
X107154944Y-61261995D01*
X106985426Y-61375263D01*
X106841263Y-61519426D01*
X106727995Y-61688944D01*
X106649974Y-61877302D01*
X106610200Y-62077261D01*
X106610200Y-62139397D01*
X98826887Y-69922712D01*
X98701498Y-69870774D01*
X98501539Y-69831000D01*
X98297661Y-69831000D01*
X98097702Y-69870774D01*
X97909344Y-69948795D01*
X97739826Y-70062063D01*
X97595663Y-70206226D01*
X97482395Y-70375744D01*
X97404374Y-70564102D01*
X97364600Y-70764061D01*
X97364600Y-70967939D01*
X97404374Y-71167898D01*
X97482395Y-71356256D01*
X97595663Y-71525774D01*
X97739826Y-71669937D01*
X97909344Y-71783205D01*
X98097702Y-71861226D01*
X98297661Y-71901000D01*
X98501539Y-71901000D01*
X98701498Y-71861226D01*
X98889856Y-71783205D01*
X99059374Y-71669937D01*
X99117322Y-71611989D01*
X99250647Y-71571546D01*
X99382676Y-71500974D01*
X99498401Y-71406001D01*
X99522204Y-71376997D01*
X101330141Y-69569060D01*
X101381295Y-69692556D01*
X101494563Y-69862074D01*
X101638726Y-70006237D01*
X101808244Y-70119505D01*
X101996602Y-70197526D01*
X102196561Y-70237300D01*
X102400439Y-70237300D01*
X102600398Y-70197526D01*
X102692197Y-70159501D01*
X100142199Y-72709500D01*
X88035622Y-72709500D01*
X87998299Y-72705824D01*
X87960976Y-72709500D01*
X87960967Y-72709500D01*
X87849314Y-72720497D01*
X87706053Y-72763954D01*
X87574024Y-72834526D01*
X87458299Y-72929499D01*
X87434501Y-72958497D01*
X86713899Y-73679100D01*
X86651761Y-73679100D01*
X86451802Y-73718874D01*
X86263444Y-73796895D01*
X86093926Y-73910163D01*
X85949763Y-74054326D01*
X85836495Y-74223844D01*
X85758474Y-74412202D01*
X85718700Y-74612161D01*
X41660000Y-74612161D01*
X41660000Y-68579661D01*
X45955000Y-68579661D01*
X45955000Y-68783539D01*
X45994774Y-68983498D01*
X46072795Y-69171856D01*
X46186063Y-69341374D01*
X46330226Y-69485537D01*
X46499744Y-69598805D01*
X46688102Y-69676826D01*
X46888061Y-69716600D01*
X47091939Y-69716600D01*
X47291898Y-69676826D01*
X47480256Y-69598805D01*
X47603285Y-69516600D01*
X53705382Y-69516600D01*
X53746400Y-69520640D01*
X53787418Y-69516600D01*
X53787419Y-69516600D01*
X53910089Y-69504518D01*
X54067487Y-69456772D01*
X54212546Y-69379236D01*
X54339691Y-69274891D01*
X54365846Y-69243021D01*
X56341575Y-67267292D01*
X56486698Y-67238426D01*
X56675056Y-67160405D01*
X56844574Y-67047137D01*
X56988737Y-66902974D01*
X57102005Y-66733456D01*
X57180026Y-66545098D01*
X57219800Y-66345139D01*
X57219800Y-66141261D01*
X57180026Y-65941302D01*
X57102005Y-65752944D01*
X56988737Y-65583426D01*
X56844574Y-65439263D01*
X56675056Y-65325995D01*
X56486698Y-65247974D01*
X56286739Y-65208200D01*
X56082861Y-65208200D01*
X55882902Y-65247974D01*
X55694544Y-65325995D01*
X55525026Y-65439263D01*
X55380863Y-65583426D01*
X55267595Y-65752944D01*
X55189574Y-65941302D01*
X55160708Y-66086425D01*
X53400533Y-67846600D01*
X47603285Y-67846600D01*
X47480256Y-67764395D01*
X47291898Y-67686374D01*
X47091939Y-67646600D01*
X46888061Y-67646600D01*
X46688102Y-67686374D01*
X46499744Y-67764395D01*
X46330226Y-67877663D01*
X46186063Y-68021826D01*
X46072795Y-68191344D01*
X45994774Y-68379702D01*
X45955000Y-68579661D01*
X41660000Y-68579661D01*
X41660000Y-48831500D01*
X41885994Y-48831500D01*
X41891000Y-48882328D01*
X41891001Y-58496162D01*
X41885994Y-58547000D01*
X41905977Y-58749895D01*
X41965160Y-58944993D01*
X42061266Y-59124797D01*
X42158197Y-59242907D01*
X42190605Y-59282396D01*
X42230092Y-59314802D01*
X43682197Y-60766908D01*
X43714604Y-60806396D01*
X43872203Y-60935734D01*
X44052007Y-61031841D01*
X44247105Y-61091024D01*
X44399162Y-61106000D01*
X44399171Y-61106000D01*
X44449999Y-61111006D01*
X44500827Y-61106000D01*
X45162893Y-61106000D01*
X45281368Y-61224475D01*
X45455760Y-61341000D01*
X45281368Y-61457525D01*
X45074525Y-61664368D01*
X44912010Y-61907589D01*
X44800068Y-62177842D01*
X44743000Y-62464740D01*
X44743000Y-62757260D01*
X44800068Y-63044158D01*
X44912010Y-63314411D01*
X45074525Y-63557632D01*
X45281368Y-63764475D01*
X45455760Y-63881000D01*
X45281368Y-63997525D01*
X45074525Y-64204368D01*
X44912010Y-64447589D01*
X44800068Y-64717842D01*
X44743000Y-65004740D01*
X44743000Y-65297260D01*
X44800068Y-65584158D01*
X44912010Y-65854411D01*
X45074525Y-66097632D01*
X45281368Y-66304475D01*
X45524589Y-66466990D01*
X45794842Y-66578932D01*
X46081740Y-66636000D01*
X46374260Y-66636000D01*
X46661158Y-66578932D01*
X46931411Y-66466990D01*
X47174632Y-66304475D01*
X47381475Y-66097632D01*
X47543990Y-65854411D01*
X47655932Y-65584158D01*
X47713000Y-65297260D01*
X47713000Y-65004740D01*
X47655932Y-64717842D01*
X47543990Y-64447589D01*
X47381475Y-64204368D01*
X47174632Y-63997525D01*
X47000240Y-63881000D01*
X47174632Y-63764475D01*
X47381475Y-63557632D01*
X47543990Y-63314411D01*
X47655932Y-63044158D01*
X47713000Y-62757260D01*
X47713000Y-62464740D01*
X47655932Y-62177842D01*
X47543990Y-61907589D01*
X47381475Y-61664368D01*
X47174632Y-61457525D01*
X47000240Y-61341000D01*
X47174632Y-61224475D01*
X47381475Y-61017632D01*
X47543990Y-60774411D01*
X47655932Y-60504158D01*
X47713000Y-60217260D01*
X47713000Y-59924740D01*
X47655932Y-59637842D01*
X47543990Y-59367589D01*
X47381475Y-59124368D01*
X47249620Y-58992513D01*
X47322180Y-58970502D01*
X47432494Y-58911537D01*
X47529185Y-58832185D01*
X47608537Y-58735494D01*
X47667502Y-58625180D01*
X47703812Y-58505482D01*
X47716072Y-58381000D01*
X48549928Y-58381000D01*
X48562188Y-58505482D01*
X48598498Y-58625180D01*
X48657463Y-58735494D01*
X48736815Y-58832185D01*
X48833506Y-58911537D01*
X48943820Y-58970502D01*
X49016380Y-58992513D01*
X48884525Y-59124368D01*
X48722010Y-59367589D01*
X48610068Y-59637842D01*
X48553000Y-59924740D01*
X48553000Y-60217260D01*
X48610068Y-60504158D01*
X48722010Y-60774411D01*
X48884525Y-61017632D01*
X49091368Y-61224475D01*
X49265760Y-61341000D01*
X49091368Y-61457525D01*
X48884525Y-61664368D01*
X48722010Y-61907589D01*
X48610068Y-62177842D01*
X48553000Y-62464740D01*
X48553000Y-62757260D01*
X48610068Y-63044158D01*
X48722010Y-63314411D01*
X48884525Y-63557632D01*
X49091368Y-63764475D01*
X49265760Y-63881000D01*
X49091368Y-63997525D01*
X48884525Y-64204368D01*
X48722010Y-64447589D01*
X48610068Y-64717842D01*
X48553000Y-65004740D01*
X48553000Y-65297260D01*
X48610068Y-65584158D01*
X48722010Y-65854411D01*
X48884525Y-66097632D01*
X49091368Y-66304475D01*
X49334589Y-66466990D01*
X49604842Y-66578932D01*
X49891740Y-66636000D01*
X50184260Y-66636000D01*
X50471158Y-66578932D01*
X50741411Y-66466990D01*
X50984632Y-66304475D01*
X51191475Y-66097632D01*
X51353990Y-65854411D01*
X51465932Y-65584158D01*
X51523000Y-65297260D01*
X51523000Y-65004740D01*
X51465932Y-64717842D01*
X51353990Y-64447589D01*
X51191475Y-64204368D01*
X50984632Y-63997525D01*
X50810240Y-63881000D01*
X50984632Y-63764475D01*
X51191475Y-63557632D01*
X51353990Y-63314411D01*
X51465932Y-63044158D01*
X51523000Y-62757260D01*
X51523000Y-62464740D01*
X51465932Y-62177842D01*
X51353990Y-61907589D01*
X51191475Y-61664368D01*
X50984632Y-61457525D01*
X50810240Y-61341000D01*
X50984632Y-61224475D01*
X51191475Y-61017632D01*
X51353990Y-60774411D01*
X51465932Y-60504158D01*
X51523000Y-60217260D01*
X51523000Y-59924740D01*
X51465932Y-59637842D01*
X51353990Y-59367589D01*
X51191475Y-59124368D01*
X51059620Y-58992513D01*
X51132180Y-58970502D01*
X51242494Y-58911537D01*
X51339185Y-58832185D01*
X51418537Y-58735494D01*
X51477502Y-58625180D01*
X51513812Y-58505482D01*
X51526072Y-58381000D01*
X51523000Y-57816750D01*
X51364250Y-57658000D01*
X50165000Y-57658000D01*
X50165000Y-57678000D01*
X49911000Y-57678000D01*
X49911000Y-57658000D01*
X48711750Y-57658000D01*
X48553000Y-57816750D01*
X48549928Y-58381000D01*
X47716072Y-58381000D01*
X47713000Y-57816750D01*
X47554250Y-57658000D01*
X46355000Y-57658000D01*
X46355000Y-57678000D01*
X46101000Y-57678000D01*
X46101000Y-57658000D01*
X44901750Y-57658000D01*
X44743000Y-57816750D01*
X44739928Y-58381000D01*
X44752188Y-58505482D01*
X44788498Y-58625180D01*
X44847463Y-58735494D01*
X44926815Y-58832185D01*
X45023506Y-58911537D01*
X45133820Y-58970502D01*
X45206380Y-58992513D01*
X45162893Y-59036000D01*
X44878711Y-59036000D01*
X43961000Y-58118290D01*
X43961000Y-56681000D01*
X44739928Y-56681000D01*
X44743000Y-57245250D01*
X44901750Y-57404000D01*
X46101000Y-57404000D01*
X46101000Y-56204750D01*
X46355000Y-56204750D01*
X46355000Y-57404000D01*
X47554250Y-57404000D01*
X47713000Y-57245250D01*
X47716072Y-56681000D01*
X48549928Y-56681000D01*
X48553000Y-57245250D01*
X48711750Y-57404000D01*
X49911000Y-57404000D01*
X49911000Y-56204750D01*
X50165000Y-56204750D01*
X50165000Y-57404000D01*
X51364250Y-57404000D01*
X51523000Y-57245250D01*
X51526072Y-56681000D01*
X51513812Y-56556518D01*
X51477502Y-56436820D01*
X51418537Y-56326506D01*
X51339185Y-56229815D01*
X51242494Y-56150463D01*
X51132180Y-56091498D01*
X51012482Y-56055188D01*
X50888000Y-56042928D01*
X50323750Y-56046000D01*
X50165000Y-56204750D01*
X49911000Y-56204750D01*
X49752250Y-56046000D01*
X49188000Y-56042928D01*
X49063518Y-56055188D01*
X48943820Y-56091498D01*
X48833506Y-56150463D01*
X48736815Y-56229815D01*
X48657463Y-56326506D01*
X48598498Y-56436820D01*
X48562188Y-56556518D01*
X48549928Y-56681000D01*
X47716072Y-56681000D01*
X47703812Y-56556518D01*
X47667502Y-56436820D01*
X47608537Y-56326506D01*
X47529185Y-56229815D01*
X47432494Y-56150463D01*
X47322180Y-56091498D01*
X47202482Y-56055188D01*
X47078000Y-56042928D01*
X46513750Y-56046000D01*
X46355000Y-56204750D01*
X46101000Y-56204750D01*
X45942250Y-56046000D01*
X45378000Y-56042928D01*
X45253518Y-56055188D01*
X45133820Y-56091498D01*
X45023506Y-56150463D01*
X44926815Y-56229815D01*
X44847463Y-56326506D01*
X44788498Y-56436820D01*
X44752188Y-56556518D01*
X44739928Y-56681000D01*
X43961000Y-56681000D01*
X43961000Y-49719890D01*
X46630024Y-49719890D01*
X46722148Y-49982858D01*
X46869004Y-50234193D01*
X47062071Y-50452049D01*
X47293930Y-50628053D01*
X47555670Y-50755442D01*
X47837233Y-50829320D01*
X48069500Y-50689165D01*
X48069500Y-49490000D01*
X48323500Y-49490000D01*
X48323500Y-50689165D01*
X48555767Y-50829320D01*
X48837330Y-50755442D01*
X49099070Y-50628053D01*
X49330929Y-50452049D01*
X49523996Y-50234193D01*
X49670852Y-49982858D01*
X49762976Y-49719890D01*
X49641655Y-49490000D01*
X48323500Y-49490000D01*
X48069500Y-49490000D01*
X46751345Y-49490000D01*
X46630024Y-49719890D01*
X43961000Y-49719890D01*
X43961000Y-49364561D01*
X92056000Y-49364561D01*
X92056000Y-49568439D01*
X92095774Y-49768398D01*
X92173795Y-49956756D01*
X92256000Y-50079785D01*
X92256001Y-65743955D01*
X92249995Y-65752944D01*
X92171974Y-65941302D01*
X92132200Y-66141261D01*
X92132200Y-66345139D01*
X92171974Y-66545098D01*
X92249995Y-66733456D01*
X92363263Y-66902974D01*
X92507426Y-67047137D01*
X92676944Y-67160405D01*
X92865302Y-67238426D01*
X93065261Y-67278200D01*
X93269139Y-67278200D01*
X93469098Y-67238426D01*
X93657456Y-67160405D01*
X93826974Y-67047137D01*
X93971137Y-66902974D01*
X94084405Y-66733456D01*
X94162426Y-66545098D01*
X94202200Y-66345139D01*
X94202200Y-66141261D01*
X94162426Y-65941302D01*
X94129521Y-65861861D01*
X96767700Y-65861861D01*
X96767700Y-66065739D01*
X96807474Y-66265698D01*
X96885495Y-66454056D01*
X96998763Y-66623574D01*
X97042701Y-66667512D01*
X97042700Y-67253989D01*
X96998763Y-67297926D01*
X96885495Y-67467444D01*
X96807474Y-67655802D01*
X96767700Y-67855761D01*
X96767700Y-68059639D01*
X96807474Y-68259598D01*
X96885495Y-68447956D01*
X96998763Y-68617474D01*
X97142926Y-68761637D01*
X97312444Y-68874905D01*
X97500802Y-68952926D01*
X97700761Y-68992700D01*
X97904639Y-68992700D01*
X98104598Y-68952926D01*
X98292956Y-68874905D01*
X98462474Y-68761637D01*
X98606637Y-68617474D01*
X98719905Y-68447956D01*
X98797926Y-68259598D01*
X98837700Y-68059639D01*
X98837700Y-67855761D01*
X98797926Y-67655802D01*
X98719905Y-67467444D01*
X98606637Y-67297926D01*
X98562700Y-67253989D01*
X98562700Y-66667511D01*
X98606637Y-66623574D01*
X98719905Y-66454056D01*
X98797926Y-66265698D01*
X98837700Y-66065739D01*
X98837700Y-65861861D01*
X98797926Y-65661902D01*
X98719905Y-65473544D01*
X98606637Y-65304026D01*
X98462474Y-65159863D01*
X98292956Y-65046595D01*
X98104598Y-64968574D01*
X97904639Y-64928800D01*
X97700761Y-64928800D01*
X97500802Y-64968574D01*
X97312444Y-65046595D01*
X97142926Y-65159863D01*
X96998763Y-65304026D01*
X96885495Y-65473544D01*
X96807474Y-65661902D01*
X96767700Y-65861861D01*
X94129521Y-65861861D01*
X94084405Y-65752944D01*
X93971137Y-65583426D01*
X93926000Y-65538289D01*
X93926000Y-50301500D01*
X94700933Y-50301500D01*
X96054708Y-51655276D01*
X96083574Y-51800398D01*
X96161595Y-51988756D01*
X96274863Y-52158274D01*
X96419026Y-52302437D01*
X96588544Y-52415705D01*
X96776902Y-52493726D01*
X96976861Y-52533500D01*
X97180739Y-52533500D01*
X97380698Y-52493726D01*
X97569056Y-52415705D01*
X97738574Y-52302437D01*
X97882737Y-52158274D01*
X97996005Y-51988756D01*
X98074026Y-51800398D01*
X98113800Y-51600439D01*
X98113800Y-51396561D01*
X98074026Y-51196602D01*
X97996005Y-51008244D01*
X97882737Y-50838726D01*
X97738574Y-50694563D01*
X97569056Y-50581295D01*
X97380698Y-50503274D01*
X97235576Y-50474408D01*
X95666246Y-48905079D01*
X95640091Y-48873209D01*
X95512946Y-48768864D01*
X95367887Y-48691328D01*
X95210489Y-48643582D01*
X95087819Y-48631500D01*
X95087818Y-48631500D01*
X95046800Y-48627460D01*
X95005782Y-48631500D01*
X93704285Y-48631500D01*
X93581256Y-48549295D01*
X93392898Y-48471274D01*
X93192939Y-48431500D01*
X92989061Y-48431500D01*
X92789102Y-48471274D01*
X92600744Y-48549295D01*
X92431226Y-48662563D01*
X92287063Y-48806726D01*
X92173795Y-48976244D01*
X92095774Y-49164602D01*
X92056000Y-49364561D01*
X43961000Y-49364561D01*
X43961000Y-49260210D01*
X45323211Y-47898000D01*
X46999842Y-47898000D01*
X47016366Y-47918134D01*
X47242486Y-48103706D01*
X47268222Y-48117462D01*
X47062071Y-48273951D01*
X46869004Y-48491807D01*
X46722148Y-48743142D01*
X46630024Y-49006110D01*
X46751345Y-49236000D01*
X48069500Y-49236000D01*
X48069500Y-49216000D01*
X48323500Y-49216000D01*
X48323500Y-49236000D01*
X49641655Y-49236000D01*
X49762976Y-49006110D01*
X49670852Y-48743142D01*
X49523996Y-48491807D01*
X49330929Y-48273951D01*
X49124778Y-48117462D01*
X49150514Y-48103706D01*
X49376634Y-47918134D01*
X49562206Y-47692014D01*
X49700099Y-47434034D01*
X49785013Y-47154111D01*
X49813685Y-46863000D01*
X49785013Y-46571889D01*
X49700099Y-46291966D01*
X49562206Y-46033986D01*
X49376634Y-45807866D01*
X49150514Y-45622294D01*
X49133126Y-45613000D01*
X49150514Y-45603706D01*
X49376634Y-45418134D01*
X49562206Y-45192014D01*
X49700099Y-44934034D01*
X49785013Y-44654111D01*
X49813685Y-44363000D01*
X49785013Y-44071889D01*
X49700099Y-43791966D01*
X49562206Y-43533986D01*
X49376634Y-43307866D01*
X49313163Y-43255777D01*
X49414886Y-43201405D01*
X49549462Y-43090962D01*
X49659905Y-42956386D01*
X49741972Y-42802850D01*
X49792508Y-42636254D01*
X49809572Y-42463000D01*
X49809572Y-41263000D01*
X49792508Y-41089746D01*
X49741972Y-40923150D01*
X49659905Y-40769614D01*
X49549462Y-40635038D01*
X49414886Y-40524595D01*
X49261350Y-40442528D01*
X49094754Y-40391992D01*
X48921500Y-40374928D01*
X47471500Y-40374928D01*
X47298246Y-40391992D01*
X47131650Y-40442528D01*
X46978114Y-40524595D01*
X46843538Y-40635038D01*
X46733095Y-40769614D01*
X46651028Y-40923150D01*
X46600492Y-41089746D01*
X46583428Y-41263000D01*
X46583428Y-42463000D01*
X46600492Y-42636254D01*
X46651028Y-42802850D01*
X46733095Y-42956386D01*
X46843538Y-43090962D01*
X46978114Y-43201405D01*
X47079837Y-43255777D01*
X47016366Y-43307866D01*
X46830794Y-43533986D01*
X46692901Y-43791966D01*
X46607987Y-44071889D01*
X46579315Y-44363000D01*
X46607987Y-44654111D01*
X46692901Y-44934034D01*
X46830794Y-45192014D01*
X47016366Y-45418134D01*
X47242486Y-45603706D01*
X47259874Y-45613000D01*
X47242486Y-45622294D01*
X47016366Y-45807866D01*
X46999842Y-45828000D01*
X44945327Y-45828000D01*
X44894499Y-45822994D01*
X44843671Y-45828000D01*
X44843662Y-45828000D01*
X44691605Y-45842976D01*
X44496507Y-45902159D01*
X44412809Y-45946896D01*
X44316702Y-45998266D01*
X44198592Y-46095197D01*
X44159104Y-46127604D01*
X44126697Y-46167092D01*
X42230097Y-48063693D01*
X42190604Y-48096104D01*
X42061266Y-48253703D01*
X41965159Y-48433508D01*
X41905976Y-48628606D01*
X41891000Y-48780663D01*
X41891000Y-48780672D01*
X41885994Y-48831500D01*
X41660000Y-48831500D01*
X41660000Y-33870561D01*
X49638000Y-33870561D01*
X49638000Y-34074439D01*
X49677774Y-34274398D01*
X49755795Y-34462756D01*
X49869063Y-34632274D01*
X50013226Y-34776437D01*
X50182744Y-34889705D01*
X50371102Y-34967726D01*
X50571061Y-35007500D01*
X50774939Y-35007500D01*
X50974898Y-34967726D01*
X51163256Y-34889705D01*
X51332774Y-34776437D01*
X51376711Y-34732500D01*
X55946199Y-34732500D01*
X57025000Y-35811303D01*
X57025001Y-39936288D01*
X56981063Y-39980226D01*
X56867795Y-40149744D01*
X56789774Y-40338102D01*
X56750000Y-40538061D01*
X56750000Y-40741939D01*
X56789774Y-40941898D01*
X56867795Y-41130256D01*
X56981063Y-41299774D01*
X57125226Y-41443937D01*
X57294744Y-41557205D01*
X57483102Y-41635226D01*
X57683061Y-41675000D01*
X57886939Y-41675000D01*
X58086898Y-41635226D01*
X58275256Y-41557205D01*
X58444774Y-41443937D01*
X58588937Y-41299774D01*
X58702205Y-41130256D01*
X58780226Y-40941898D01*
X58820000Y-40741939D01*
X58820000Y-40538061D01*
X84029600Y-40538061D01*
X84029600Y-40741939D01*
X84069374Y-40941898D01*
X84147395Y-41130256D01*
X84260663Y-41299774D01*
X84404826Y-41443937D01*
X84574344Y-41557205D01*
X84762702Y-41635226D01*
X84962661Y-41675000D01*
X85166539Y-41675000D01*
X85366498Y-41635226D01*
X85554856Y-41557205D01*
X85724374Y-41443937D01*
X85768311Y-41400000D01*
X87281889Y-41400000D01*
X87325826Y-41443937D01*
X87495344Y-41557205D01*
X87683702Y-41635226D01*
X87883661Y-41675000D01*
X88087539Y-41675000D01*
X88287498Y-41635226D01*
X88475856Y-41557205D01*
X88645374Y-41443937D01*
X88789537Y-41299774D01*
X88902805Y-41130256D01*
X88980826Y-40941898D01*
X89020600Y-40741939D01*
X89020600Y-40538061D01*
X88980826Y-40338102D01*
X88902805Y-40149744D01*
X88789537Y-39980226D01*
X88645374Y-39836063D01*
X88475856Y-39722795D01*
X88287498Y-39644774D01*
X88087539Y-39605000D01*
X87883661Y-39605000D01*
X87683702Y-39644774D01*
X87495344Y-39722795D01*
X87325826Y-39836063D01*
X87281889Y-39880000D01*
X85768311Y-39880000D01*
X85724374Y-39836063D01*
X85554856Y-39722795D01*
X85366498Y-39644774D01*
X85166539Y-39605000D01*
X84962661Y-39605000D01*
X84762702Y-39644774D01*
X84574344Y-39722795D01*
X84404826Y-39836063D01*
X84260663Y-39980226D01*
X84147395Y-40149744D01*
X84069374Y-40338102D01*
X84029600Y-40538061D01*
X58820000Y-40538061D01*
X58780226Y-40338102D01*
X58702205Y-40149744D01*
X58588937Y-39980226D01*
X58545000Y-39936289D01*
X58545000Y-35533822D01*
X58548676Y-35496499D01*
X58546142Y-35470761D01*
X115436700Y-35470761D01*
X115436700Y-35674639D01*
X115476474Y-35874598D01*
X115554495Y-36062956D01*
X115636700Y-36185985D01*
X115636701Y-45094014D01*
X115554495Y-45217044D01*
X115476474Y-45405402D01*
X115436700Y-45605361D01*
X115436700Y-45809239D01*
X115476474Y-46009198D01*
X115554495Y-46197556D01*
X115667763Y-46367074D01*
X115811926Y-46511237D01*
X115981444Y-46624505D01*
X116169802Y-46702526D01*
X116369761Y-46742300D01*
X116573639Y-46742300D01*
X116773598Y-46702526D01*
X116961956Y-46624505D01*
X117131474Y-46511237D01*
X117275637Y-46367074D01*
X117388905Y-46197556D01*
X117466926Y-46009198D01*
X117506700Y-45809239D01*
X117506700Y-45605361D01*
X117466926Y-45405402D01*
X117388905Y-45217044D01*
X117306700Y-45094015D01*
X117306700Y-36185985D01*
X117388905Y-36062956D01*
X117466926Y-35874598D01*
X117506700Y-35674639D01*
X117506700Y-35470761D01*
X117466926Y-35270802D01*
X117388905Y-35082444D01*
X117275637Y-34912926D01*
X117131474Y-34768763D01*
X116961956Y-34655495D01*
X116773598Y-34577474D01*
X116573639Y-34537700D01*
X116369761Y-34537700D01*
X116169802Y-34577474D01*
X115981444Y-34655495D01*
X115811926Y-34768763D01*
X115667763Y-34912926D01*
X115554495Y-35082444D01*
X115476474Y-35270802D01*
X115436700Y-35470761D01*
X58546142Y-35470761D01*
X58545000Y-35459176D01*
X58545000Y-35459167D01*
X58534003Y-35347514D01*
X58490546Y-35204253D01*
X58419974Y-35072224D01*
X58396482Y-35043599D01*
X58348799Y-34985496D01*
X58348795Y-34985492D01*
X58325001Y-34956499D01*
X58296009Y-34932706D01*
X56824803Y-33461502D01*
X56801001Y-33432499D01*
X56685276Y-33337526D01*
X56553247Y-33266954D01*
X56409986Y-33223497D01*
X56298333Y-33212500D01*
X56298322Y-33212500D01*
X56261000Y-33208824D01*
X56223678Y-33212500D01*
X51376711Y-33212500D01*
X51332774Y-33168563D01*
X51163256Y-33055295D01*
X50974898Y-32977274D01*
X50774939Y-32937500D01*
X50571061Y-32937500D01*
X50371102Y-32977274D01*
X50182744Y-33055295D01*
X50013226Y-33168563D01*
X49869063Y-33312726D01*
X49755795Y-33482244D01*
X49677774Y-33670602D01*
X49638000Y-33870561D01*
X41660000Y-33870561D01*
X41660000Y-31165000D01*
X63279815Y-31165000D01*
X63308487Y-31456111D01*
X63393401Y-31736034D01*
X63531294Y-31994014D01*
X63716866Y-32220134D01*
X63942986Y-32405706D01*
X63960374Y-32415000D01*
X63942986Y-32424294D01*
X63716866Y-32609866D01*
X63531294Y-32835986D01*
X63393401Y-33093966D01*
X63308487Y-33373889D01*
X63279815Y-33665000D01*
X63308487Y-33956111D01*
X63393401Y-34236034D01*
X63531294Y-34494014D01*
X63716866Y-34720134D01*
X63942986Y-34905706D01*
X64200966Y-35043599D01*
X64480889Y-35128513D01*
X64699050Y-35150000D01*
X65094950Y-35150000D01*
X65313111Y-35128513D01*
X65593034Y-35043599D01*
X65851014Y-34905706D01*
X66077134Y-34720134D01*
X66093658Y-34700000D01*
X73225342Y-34700000D01*
X73241866Y-34720134D01*
X73467986Y-34905706D01*
X73725966Y-35043599D01*
X74005889Y-35128513D01*
X74224050Y-35150000D01*
X74619950Y-35150000D01*
X74838111Y-35128513D01*
X75118034Y-35043599D01*
X75376014Y-34905706D01*
X75602134Y-34720134D01*
X75618658Y-34700000D01*
X82750342Y-34700000D01*
X82766866Y-34720134D01*
X82992986Y-34905706D01*
X83250966Y-35043599D01*
X83530889Y-35128513D01*
X83749050Y-35150000D01*
X84144950Y-35150000D01*
X84363111Y-35128513D01*
X84643034Y-35043599D01*
X84901014Y-34905706D01*
X85127134Y-34720134D01*
X85143658Y-34700000D01*
X92275342Y-34700000D01*
X92291866Y-34720134D01*
X92517986Y-34905706D01*
X92775966Y-35043599D01*
X93055889Y-35128513D01*
X93274050Y-35150000D01*
X93669950Y-35150000D01*
X93888111Y-35128513D01*
X94168034Y-35043599D01*
X94426014Y-34905706D01*
X94652134Y-34720134D01*
X94668658Y-34700000D01*
X101800342Y-34700000D01*
X101816866Y-34720134D01*
X102042986Y-34905706D01*
X102300966Y-35043599D01*
X102580889Y-35128513D01*
X102799050Y-35150000D01*
X103194950Y-35150000D01*
X103413111Y-35128513D01*
X103693034Y-35043599D01*
X103951014Y-34905706D01*
X104177134Y-34720134D01*
X104193658Y-34700000D01*
X111325342Y-34700000D01*
X111341866Y-34720134D01*
X111567986Y-34905706D01*
X111825966Y-35043599D01*
X112105889Y-35128513D01*
X112324050Y-35150000D01*
X112719950Y-35150000D01*
X112938111Y-35128513D01*
X113218034Y-35043599D01*
X113476014Y-34905706D01*
X113702134Y-34720134D01*
X113887706Y-34494014D01*
X114025599Y-34236034D01*
X114110513Y-33956111D01*
X114139185Y-33665000D01*
X114110513Y-33373889D01*
X114025599Y-33093966D01*
X113887706Y-32835986D01*
X113702134Y-32609866D01*
X113476014Y-32424294D01*
X113458626Y-32415000D01*
X113476014Y-32405706D01*
X113702134Y-32220134D01*
X113887706Y-31994014D01*
X114025599Y-31736034D01*
X114110513Y-31456111D01*
X114139185Y-31165000D01*
X114110513Y-30873889D01*
X114025599Y-30593966D01*
X113887706Y-30335986D01*
X113702134Y-30109866D01*
X113638663Y-30057777D01*
X113740386Y-30003405D01*
X113874962Y-29892962D01*
X113985405Y-29758386D01*
X114067472Y-29604850D01*
X114118008Y-29438254D01*
X114135072Y-29265000D01*
X114135072Y-28065000D01*
X114118008Y-27891746D01*
X114067472Y-27725150D01*
X113985405Y-27571614D01*
X113874962Y-27437038D01*
X113740386Y-27326595D01*
X113586850Y-27244528D01*
X113420254Y-27193992D01*
X113247000Y-27176928D01*
X111797000Y-27176928D01*
X111623746Y-27193992D01*
X111457150Y-27244528D01*
X111303614Y-27326595D01*
X111169038Y-27437038D01*
X111058595Y-27571614D01*
X110976528Y-27725150D01*
X110925992Y-27891746D01*
X110908928Y-28065000D01*
X110908928Y-29265000D01*
X110925992Y-29438254D01*
X110976528Y-29604850D01*
X111058595Y-29758386D01*
X111169038Y-29892962D01*
X111303614Y-30003405D01*
X111405337Y-30057777D01*
X111341866Y-30109866D01*
X111156294Y-30335986D01*
X111018401Y-30593966D01*
X110933487Y-30873889D01*
X110904815Y-31165000D01*
X110933487Y-31456111D01*
X111018401Y-31736034D01*
X111156294Y-31994014D01*
X111341866Y-32220134D01*
X111567986Y-32405706D01*
X111585374Y-32415000D01*
X111567986Y-32424294D01*
X111341866Y-32609866D01*
X111325342Y-32630000D01*
X104193658Y-32630000D01*
X104177134Y-32609866D01*
X103951014Y-32424294D01*
X103933626Y-32415000D01*
X103951014Y-32405706D01*
X104177134Y-32220134D01*
X104362706Y-31994014D01*
X104500599Y-31736034D01*
X104585513Y-31456111D01*
X104614185Y-31165000D01*
X104585513Y-30873889D01*
X104500599Y-30593966D01*
X104362706Y-30335986D01*
X104177134Y-30109866D01*
X104113663Y-30057777D01*
X104215386Y-30003405D01*
X104349962Y-29892962D01*
X104460405Y-29758386D01*
X104542472Y-29604850D01*
X104593008Y-29438254D01*
X104610072Y-29265000D01*
X104610072Y-28065000D01*
X104593008Y-27891746D01*
X104542472Y-27725150D01*
X104460405Y-27571614D01*
X104349962Y-27437038D01*
X104215386Y-27326595D01*
X104061850Y-27244528D01*
X103895254Y-27193992D01*
X103722000Y-27176928D01*
X102272000Y-27176928D01*
X102098746Y-27193992D01*
X101932150Y-27244528D01*
X101778614Y-27326595D01*
X101644038Y-27437038D01*
X101533595Y-27571614D01*
X101451528Y-27725150D01*
X101400992Y-27891746D01*
X101383928Y-28065000D01*
X101383928Y-29265000D01*
X101400992Y-29438254D01*
X101451528Y-29604850D01*
X101533595Y-29758386D01*
X101644038Y-29892962D01*
X101778614Y-30003405D01*
X101880337Y-30057777D01*
X101816866Y-30109866D01*
X101631294Y-30335986D01*
X101493401Y-30593966D01*
X101408487Y-30873889D01*
X101379815Y-31165000D01*
X101408487Y-31456111D01*
X101493401Y-31736034D01*
X101631294Y-31994014D01*
X101816866Y-32220134D01*
X102042986Y-32405706D01*
X102060374Y-32415000D01*
X102042986Y-32424294D01*
X101816866Y-32609866D01*
X101800342Y-32630000D01*
X94668658Y-32630000D01*
X94652134Y-32609866D01*
X94426014Y-32424294D01*
X94408626Y-32415000D01*
X94426014Y-32405706D01*
X94652134Y-32220134D01*
X94837706Y-31994014D01*
X94975599Y-31736034D01*
X95060513Y-31456111D01*
X95089185Y-31165000D01*
X95060513Y-30873889D01*
X94975599Y-30593966D01*
X94837706Y-30335986D01*
X94652134Y-30109866D01*
X94588663Y-30057777D01*
X94690386Y-30003405D01*
X94824962Y-29892962D01*
X94935405Y-29758386D01*
X95017472Y-29604850D01*
X95068008Y-29438254D01*
X95085072Y-29265000D01*
X95085072Y-28065000D01*
X95068008Y-27891746D01*
X95017472Y-27725150D01*
X94935405Y-27571614D01*
X94824962Y-27437038D01*
X94690386Y-27326595D01*
X94536850Y-27244528D01*
X94370254Y-27193992D01*
X94197000Y-27176928D01*
X92747000Y-27176928D01*
X92573746Y-27193992D01*
X92407150Y-27244528D01*
X92253614Y-27326595D01*
X92119038Y-27437038D01*
X92008595Y-27571614D01*
X91926528Y-27725150D01*
X91875992Y-27891746D01*
X91858928Y-28065000D01*
X91858928Y-29265000D01*
X91875992Y-29438254D01*
X91926528Y-29604850D01*
X92008595Y-29758386D01*
X92119038Y-29892962D01*
X92253614Y-30003405D01*
X92355337Y-30057777D01*
X92291866Y-30109866D01*
X92106294Y-30335986D01*
X91968401Y-30593966D01*
X91883487Y-30873889D01*
X91854815Y-31165000D01*
X91883487Y-31456111D01*
X91968401Y-31736034D01*
X92106294Y-31994014D01*
X92291866Y-32220134D01*
X92517986Y-32405706D01*
X92535374Y-32415000D01*
X92517986Y-32424294D01*
X92291866Y-32609866D01*
X92275342Y-32630000D01*
X85143658Y-32630000D01*
X85127134Y-32609866D01*
X84901014Y-32424294D01*
X84883626Y-32415000D01*
X84901014Y-32405706D01*
X85127134Y-32220134D01*
X85312706Y-31994014D01*
X85450599Y-31736034D01*
X85535513Y-31456111D01*
X85564185Y-31165000D01*
X85535513Y-30873889D01*
X85450599Y-30593966D01*
X85312706Y-30335986D01*
X85127134Y-30109866D01*
X85063663Y-30057777D01*
X85165386Y-30003405D01*
X85299962Y-29892962D01*
X85410405Y-29758386D01*
X85492472Y-29604850D01*
X85543008Y-29438254D01*
X85560072Y-29265000D01*
X85560072Y-28065000D01*
X85543008Y-27891746D01*
X85492472Y-27725150D01*
X85410405Y-27571614D01*
X85299962Y-27437038D01*
X85165386Y-27326595D01*
X85011850Y-27244528D01*
X84845254Y-27193992D01*
X84672000Y-27176928D01*
X83222000Y-27176928D01*
X83048746Y-27193992D01*
X82882150Y-27244528D01*
X82728614Y-27326595D01*
X82594038Y-27437038D01*
X82483595Y-27571614D01*
X82401528Y-27725150D01*
X82350992Y-27891746D01*
X82333928Y-28065000D01*
X82333928Y-29265000D01*
X82350992Y-29438254D01*
X82401528Y-29604850D01*
X82483595Y-29758386D01*
X82594038Y-29892962D01*
X82728614Y-30003405D01*
X82830337Y-30057777D01*
X82766866Y-30109866D01*
X82581294Y-30335986D01*
X82443401Y-30593966D01*
X82358487Y-30873889D01*
X82329815Y-31165000D01*
X82358487Y-31456111D01*
X82443401Y-31736034D01*
X82581294Y-31994014D01*
X82766866Y-32220134D01*
X82992986Y-32405706D01*
X83010374Y-32415000D01*
X82992986Y-32424294D01*
X82766866Y-32609866D01*
X82750342Y-32630000D01*
X75618658Y-32630000D01*
X75602134Y-32609866D01*
X75376014Y-32424294D01*
X75358626Y-32415000D01*
X75376014Y-32405706D01*
X75602134Y-32220134D01*
X75787706Y-31994014D01*
X75925599Y-31736034D01*
X76010513Y-31456111D01*
X76039185Y-31165000D01*
X76010513Y-30873889D01*
X75925599Y-30593966D01*
X75787706Y-30335986D01*
X75602134Y-30109866D01*
X75538663Y-30057777D01*
X75640386Y-30003405D01*
X75774962Y-29892962D01*
X75885405Y-29758386D01*
X75967472Y-29604850D01*
X76018008Y-29438254D01*
X76035072Y-29265000D01*
X76035072Y-28065000D01*
X76018008Y-27891746D01*
X75967472Y-27725150D01*
X75885405Y-27571614D01*
X75774962Y-27437038D01*
X75640386Y-27326595D01*
X75486850Y-27244528D01*
X75320254Y-27193992D01*
X75147000Y-27176928D01*
X73697000Y-27176928D01*
X73523746Y-27193992D01*
X73357150Y-27244528D01*
X73203614Y-27326595D01*
X73069038Y-27437038D01*
X72958595Y-27571614D01*
X72876528Y-27725150D01*
X72825992Y-27891746D01*
X72808928Y-28065000D01*
X72808928Y-29265000D01*
X72825992Y-29438254D01*
X72876528Y-29604850D01*
X72958595Y-29758386D01*
X73069038Y-29892962D01*
X73203614Y-30003405D01*
X73305337Y-30057777D01*
X73241866Y-30109866D01*
X73056294Y-30335986D01*
X72918401Y-30593966D01*
X72833487Y-30873889D01*
X72804815Y-31165000D01*
X72833487Y-31456111D01*
X72918401Y-31736034D01*
X73056294Y-31994014D01*
X73241866Y-32220134D01*
X73467986Y-32405706D01*
X73485374Y-32415000D01*
X73467986Y-32424294D01*
X73241866Y-32609866D01*
X73225342Y-32630000D01*
X66093658Y-32630000D01*
X66077134Y-32609866D01*
X65851014Y-32424294D01*
X65833626Y-32415000D01*
X65851014Y-32405706D01*
X66077134Y-32220134D01*
X66262706Y-31994014D01*
X66400599Y-31736034D01*
X66485513Y-31456111D01*
X66514185Y-31165000D01*
X66485513Y-30873889D01*
X66400599Y-30593966D01*
X66262706Y-30335986D01*
X66077134Y-30109866D01*
X66013663Y-30057777D01*
X66115386Y-30003405D01*
X66249962Y-29892962D01*
X66360405Y-29758386D01*
X66442472Y-29604850D01*
X66493008Y-29438254D01*
X66510072Y-29265000D01*
X66510072Y-28065000D01*
X66493008Y-27891746D01*
X66442472Y-27725150D01*
X66360405Y-27571614D01*
X66249962Y-27437038D01*
X66115386Y-27326595D01*
X65961850Y-27244528D01*
X65795254Y-27193992D01*
X65622000Y-27176928D01*
X64172000Y-27176928D01*
X63998746Y-27193992D01*
X63832150Y-27244528D01*
X63678614Y-27326595D01*
X63544038Y-27437038D01*
X63433595Y-27571614D01*
X63351528Y-27725150D01*
X63300992Y-27891746D01*
X63283928Y-28065000D01*
X63283928Y-29265000D01*
X63300992Y-29438254D01*
X63351528Y-29604850D01*
X63433595Y-29758386D01*
X63544038Y-29892962D01*
X63678614Y-30003405D01*
X63780337Y-30057777D01*
X63716866Y-30109866D01*
X63531294Y-30335986D01*
X63393401Y-30593966D01*
X63308487Y-30873889D01*
X63279815Y-31165000D01*
X41660000Y-31165000D01*
X41660000Y-28904155D01*
X42021161Y-29444670D01*
X42555330Y-29978839D01*
X43183446Y-30398533D01*
X43881372Y-30687623D01*
X44622285Y-30835000D01*
X45377715Y-30835000D01*
X46118628Y-30687623D01*
X46816554Y-30398533D01*
X47444670Y-29978839D01*
X47978839Y-29444670D01*
X48398533Y-28816554D01*
X48687623Y-28118628D01*
X48835000Y-27377715D01*
X48835000Y-26622285D01*
X48687623Y-25881372D01*
X48398533Y-25183446D01*
X47978839Y-24555330D01*
X47444670Y-24021161D01*
X46904155Y-23660000D01*
X125095845Y-23660000D01*
X124555330Y-24021161D01*
G37*
%TD.AperFunction*%
%TD*%
M02*
