M48
; DRILL file {KiCad 5.99.0+really5.1.10+dfsg1-1} date Sun Mar 13 14:27:58 2022
; FORMAT={-:-/ absolute / inch / decimal}
; #@! TF.CreationDate,2022-03-13T14:27:58+01:00
; #@! TF.GenerationSoftware,Kicad,Pcbnew,5.99.0+really5.1.10+dfsg1-1
FMAT,2
INCH
T1C0.0157
T2C0.0197
T3C0.0236
T4C0.0300
T5C0.0374
T6C0.0390
T7C0.0394
T8C0.0598
T9C0.1260
T10C0.0236
%
G90
G05
T1
X2.134Y-3.328
X2.2825Y-1.0925
X2.335Y-1.015
X2.34Y-3.564
X2.5Y-3.336
X2.618Y-3.594
X2.736Y-3.336
X2.892Y-3.328
X3.098Y-3.564
X3.2425Y-1.71
X3.258Y-3.336
X3.325Y-1.845
X3.365Y-1.76
X3.376Y-3.596
X3.496Y-3.406
X3.5Y-1.16
X3.5Y-1.25
X3.565Y-1.985
X3.565Y-2.5225
X3.647Y-3.327
X3.6675Y-1.93
X3.6825Y-1.7025
X3.6974Y-2.2224
X3.73Y-1.93
X3.84Y-1.155
X3.84Y-1.26
X3.85Y-3.564
X3.885Y-1.93
X3.908Y-3.135
X3.9325Y-2.5225
X3.9525Y-2.2725
X3.9925Y-1.905
X3.9975Y-2.05
X4.006Y-3.402
X4.0425Y-2.0025
X4.0625Y-2.7225
X4.102Y-1.99
X4.114Y-3.595
X4.125Y-2.7225
X4.1925Y-2.7225
X4.1955Y-2.601
X4.223Y-3.407
X4.245Y-2.39
X4.2455Y-2.602
X4.29Y-2.954
X4.2953Y-2.496
X4.296Y-1.824
X4.308Y-3.0275
X4.3453Y-2.496
X4.3725Y-3.3575
X4.3725Y-3.405
X4.3725Y-3.4525
X4.395Y-1.934
X4.3955Y-2.602
X4.4225Y-3.665
X4.427Y-2.031
X4.4453Y-2.496
X4.4953Y-2.496
X4.5Y-3.265
X4.5275Y-3.63
X4.54Y-3.265
X4.645Y-1.56
X4.645Y-2.6
X4.646Y-2.5
X4.647Y-1.7165
X4.65Y-1.09
X4.663Y-2.174
X4.695Y-2.6
X4.696Y-2.498
X4.7825Y-2.755
X4.8Y-2.4
X4.8075Y-1.955
X4.8125Y-2.6275
X4.8155Y-3.472
X4.8155Y-3.662
X4.828Y-3.422
X4.828Y-3.722
X4.834Y-3.546
X4.834Y-3.586
X4.835Y-1.715
X4.88Y-2.955
X4.88Y-3.265
X4.965Y-1.3625
X4.965Y-1.4625
X4.97Y-1.5625
X5.0225Y-2.865
X5.0225Y-3.045
X5.027Y-3.264
X5.07Y-3.16
X5.1075Y-1.22
T2
X1.6772Y-1.063
X1.6772Y-4.2913
X1.7048Y-0.9962
X1.7048Y-1.1298
X1.7048Y-4.2245
X1.7048Y-4.3582
X1.7717Y-0.9685
X1.7717Y-1.1575
X1.7717Y-4.1969
X1.7717Y-4.3858
X1.8385Y-0.9962
X1.8385Y-1.1298
X1.8385Y-4.2245
X1.8385Y-4.3582
X1.8661Y-1.063
X1.8661Y-4.2913
X4.9055Y-1.063
X4.9055Y-4.2913
X4.9332Y-0.9962
X4.9332Y-1.1298
X4.9332Y-4.2245
X4.9332Y-4.3582
X5.0Y-0.9685
X5.0Y-1.1575
X5.0Y-4.1969
X5.0Y-4.3858
X5.0668Y-0.9962
X5.0668Y-1.1298
X5.0668Y-4.2245
X5.0668Y-4.3582
X5.0945Y-1.063
X5.0945Y-4.2913
T4
X1.7165Y-3.6713
X1.8661Y-3.4744
X1.8661Y-3.8681
T5
X1.8504Y-1.8504
X1.8504Y-1.9488
X1.8504Y-2.0472
X1.8504Y-2.1457
X1.8504Y-2.4409
X1.8504Y-2.5394
X1.8504Y-2.6378
X1.8504Y-2.7362
X2.6378Y-1.1024
X2.6378Y-1.2008
X2.6378Y-1.2992
X2.6378Y-1.3976
X2.6378Y-1.4961
X2.9921Y-1.1024
X2.9921Y-1.2008
X2.9921Y-1.2992
X2.9921Y-1.3976
X2.9921Y-1.4961
X3.3465Y-1.1024
X3.3465Y-1.2008
X3.3465Y-1.2992
X3.3465Y-1.3976
X3.3465Y-1.4961
X3.7008Y-1.1024
X3.7008Y-1.2008
X3.7008Y-1.2992
X3.7008Y-1.3976
X3.7008Y-1.4961
X4.0551Y-1.1024
X4.0551Y-1.2008
X4.0551Y-1.2992
X4.0551Y-1.3976
X4.0551Y-1.4961
X4.4094Y-1.1024
X4.4094Y-1.2008
X4.4094Y-1.2992
X4.4094Y-1.3976
X4.4094Y-1.4961
T6
X5.0175Y-3.8775
X5.0175Y-4.0547
T7
X2.1299Y-3.537
X2.1299Y-3.637
X2.1299Y-4.037
X2.1299Y-4.337
X2.8878Y-3.537
X2.8878Y-3.637
X2.8878Y-4.037
X2.8878Y-4.337
X3.6457Y-3.537
X3.6457Y-3.637
X3.6457Y-4.037
X3.6457Y-4.337
X4.164Y-2.864
X4.264Y-2.864
X4.364Y-2.864
X4.464Y-2.864
X4.564Y-2.864
X4.664Y-2.864
X4.6665Y-2.7615
T8
X2.4606Y-4.2815
X2.6606Y-4.2815
X3.2185Y-4.2815
X3.4185Y-4.2815
X3.9764Y-4.2815
X4.1764Y-4.2815
X4.4783Y-4.2815
X4.6783Y-4.2815
T9
X1.7717Y-1.063
X1.7717Y-4.2913
X5.0Y-1.063
X5.0Y-4.2913
T10
X4.9309Y-3.4532
X4.9309Y-3.6808
T3
G00X4.9337Y-3.3969
M15
G01X4.8904Y-3.3969
M16
G05
G00X4.9337Y-3.7371
M15
G01X4.8904Y-3.7371
M16
G05
G00X5.0919Y-3.3969
M15
G01X5.0604Y-3.3969
M16
G05
G00X5.0919Y-3.7371
M15
G01X5.0604Y-3.7371
M16
G05
T0
M30
