%TF.GenerationSoftware,KiCad,Pcbnew,5.99.0+really5.1.10+dfsg1-1*%
%TF.CreationDate,2022-03-13T14:28:09+01:00*%
%TF.ProjectId,terrarium,74657272-6172-4697-956d-2e6b69636164,rev?*%
%TF.SameCoordinates,Original*%
%TF.FileFunction,Legend,Bot*%
%TF.FilePolarity,Positive*%
%FSLAX46Y46*%
G04 Gerber Fmt 4.6, Leading zero omitted, Abs format (unit mm)*
G04 Created by KiCad (PCBNEW 5.99.0+really5.1.10+dfsg1-1) date 2022-03-13 14:28:09*
%MOMM*%
%LPD*%
G01*
G04 APERTURE LIST*
%TA.AperFunction,Profile*%
%ADD10C,0.050000*%
%TD*%
%ADD11C,0.300000*%
%ADD12C,0.500000*%
G04 APERTURE END LIST*
D10*
X51054000Y-97536000D02*
G75*
G02*
X51054000Y-96520000I0J508000D01*
G01*
X122047000Y-96520000D02*
G75*
G02*
X122047000Y-97536000I0J-508000D01*
G01*
X122047000Y-97536000D02*
X51054000Y-97536000D01*
X51054000Y-96520000D02*
X122047000Y-96520000D01*
D11*
X51479571Y-31643357D02*
X51479571Y-32214785D01*
X50979571Y-31857642D02*
X52265285Y-31857642D01*
X52408142Y-31929071D01*
X52479571Y-32071928D01*
X52479571Y-32214785D01*
X52408142Y-33286214D02*
X52479571Y-33143357D01*
X52479571Y-32857642D01*
X52408142Y-32714785D01*
X52265285Y-32643357D01*
X51693857Y-32643357D01*
X51551000Y-32714785D01*
X51479571Y-32857642D01*
X51479571Y-33143357D01*
X51551000Y-33286214D01*
X51693857Y-33357642D01*
X51836714Y-33357642D01*
X51979571Y-32643357D01*
X52479571Y-34000500D02*
X51479571Y-34000500D01*
X51765285Y-34000500D02*
X51622428Y-34071928D01*
X51551000Y-34143357D01*
X51479571Y-34286214D01*
X51479571Y-34429071D01*
X52479571Y-34929071D02*
X51479571Y-34929071D01*
X51765285Y-34929071D02*
X51622428Y-35000500D01*
X51551000Y-35071928D01*
X51479571Y-35214785D01*
X51479571Y-35357642D01*
X52479571Y-36500500D02*
X51693857Y-36500500D01*
X51551000Y-36429071D01*
X51479571Y-36286214D01*
X51479571Y-36000500D01*
X51551000Y-35857642D01*
X52408142Y-36500500D02*
X52479571Y-36357642D01*
X52479571Y-36000500D01*
X52408142Y-35857642D01*
X52265285Y-35786214D01*
X52122428Y-35786214D01*
X51979571Y-35857642D01*
X51908142Y-36000500D01*
X51908142Y-36357642D01*
X51836714Y-36500500D01*
X52479571Y-37214785D02*
X51479571Y-37214785D01*
X51765285Y-37214785D02*
X51622428Y-37286214D01*
X51551000Y-37357642D01*
X51479571Y-37500500D01*
X51479571Y-37643357D01*
X52479571Y-38143357D02*
X51479571Y-38143357D01*
X50979571Y-38143357D02*
X51051000Y-38071928D01*
X51122428Y-38143357D01*
X51051000Y-38214785D01*
X50979571Y-38143357D01*
X51122428Y-38143357D01*
X51479571Y-39500500D02*
X52479571Y-39500500D01*
X51479571Y-38857642D02*
X52265285Y-38857642D01*
X52408142Y-38929071D01*
X52479571Y-39071928D01*
X52479571Y-39286214D01*
X52408142Y-39429071D01*
X52336714Y-39500500D01*
X52479571Y-40214785D02*
X51479571Y-40214785D01*
X51622428Y-40214785D02*
X51551000Y-40286214D01*
X51479571Y-40429071D01*
X51479571Y-40643357D01*
X51551000Y-40786214D01*
X51693857Y-40857642D01*
X52479571Y-40857642D01*
X51693857Y-40857642D02*
X51551000Y-40929071D01*
X51479571Y-41071928D01*
X51479571Y-41286214D01*
X51551000Y-41429071D01*
X51693857Y-41500500D01*
X52479571Y-41500500D01*
X52408142Y-44000500D02*
X52479571Y-43857642D01*
X52479571Y-43571928D01*
X52408142Y-43429071D01*
X52336714Y-43357642D01*
X52193857Y-43286214D01*
X51765285Y-43286214D01*
X51622428Y-43357642D01*
X51551000Y-43429071D01*
X51479571Y-43571928D01*
X51479571Y-43857642D01*
X51551000Y-44000500D01*
X52479571Y-44857642D02*
X52408142Y-44714785D01*
X52336714Y-44643357D01*
X52193857Y-44571928D01*
X51765285Y-44571928D01*
X51622428Y-44643357D01*
X51551000Y-44714785D01*
X51479571Y-44857642D01*
X51479571Y-45071928D01*
X51551000Y-45214785D01*
X51622428Y-45286214D01*
X51765285Y-45357642D01*
X52193857Y-45357642D01*
X52336714Y-45286214D01*
X52408142Y-45214785D01*
X52479571Y-45071928D01*
X52479571Y-44857642D01*
X51479571Y-46000500D02*
X52479571Y-46000500D01*
X51622428Y-46000500D02*
X51551000Y-46071928D01*
X51479571Y-46214785D01*
X51479571Y-46429071D01*
X51551000Y-46571928D01*
X51693857Y-46643357D01*
X52479571Y-46643357D01*
X51479571Y-47143357D02*
X51479571Y-47714785D01*
X50979571Y-47357642D02*
X52265285Y-47357642D01*
X52408142Y-47429071D01*
X52479571Y-47571928D01*
X52479571Y-47714785D01*
X52479571Y-48214785D02*
X51479571Y-48214785D01*
X51765285Y-48214785D02*
X51622428Y-48286214D01*
X51551000Y-48357642D01*
X51479571Y-48500500D01*
X51479571Y-48643357D01*
X52479571Y-49357642D02*
X52408142Y-49214785D01*
X52336714Y-49143357D01*
X52193857Y-49071928D01*
X51765285Y-49071928D01*
X51622428Y-49143357D01*
X51551000Y-49214785D01*
X51479571Y-49357642D01*
X51479571Y-49571928D01*
X51551000Y-49714785D01*
X51622428Y-49786214D01*
X51765285Y-49857642D01*
X52193857Y-49857642D01*
X52336714Y-49786214D01*
X52408142Y-49714785D01*
X52479571Y-49571928D01*
X52479571Y-49357642D01*
X52479571Y-50714785D02*
X52408142Y-50571928D01*
X52265285Y-50500500D01*
X50979571Y-50500500D01*
X52479571Y-51500500D02*
X52408142Y-51357642D01*
X52265285Y-51286214D01*
X50979571Y-51286214D01*
X52408142Y-52643357D02*
X52479571Y-52500500D01*
X52479571Y-52214785D01*
X52408142Y-52071928D01*
X52265285Y-52000500D01*
X51693857Y-52000500D01*
X51551000Y-52071928D01*
X51479571Y-52214785D01*
X51479571Y-52500500D01*
X51551000Y-52643357D01*
X51693857Y-52714785D01*
X51836714Y-52714785D01*
X51979571Y-52000500D01*
X52479571Y-53357642D02*
X51479571Y-53357642D01*
X51765285Y-53357642D02*
X51622428Y-53429071D01*
X51551000Y-53500500D01*
X51479571Y-53643357D01*
X51479571Y-53786214D01*
X54029571Y-31714785D02*
X55029571Y-32071928D01*
X54029571Y-32429071D01*
X55029571Y-33786214D02*
X55029571Y-32929071D01*
X55029571Y-33357642D02*
X53529571Y-33357642D01*
X53743857Y-33214785D01*
X53886714Y-33071928D01*
X53958142Y-32929071D01*
X54886714Y-34429071D02*
X54958142Y-34500500D01*
X55029571Y-34429071D01*
X54958142Y-34357642D01*
X54886714Y-34429071D01*
X55029571Y-34429071D01*
X53529571Y-35786214D02*
X53529571Y-35500500D01*
X53601000Y-35357642D01*
X53672428Y-35286214D01*
X53886714Y-35143357D01*
X54172428Y-35071928D01*
X54743857Y-35071928D01*
X54886714Y-35143357D01*
X54958142Y-35214785D01*
X55029571Y-35357642D01*
X55029571Y-35643357D01*
X54958142Y-35786214D01*
X54886714Y-35857642D01*
X54743857Y-35929071D01*
X54386714Y-35929071D01*
X54243857Y-35857642D01*
X54172428Y-35786214D01*
X54101000Y-35643357D01*
X54101000Y-35357642D01*
X54172428Y-35214785D01*
X54243857Y-35143357D01*
X54386714Y-35071928D01*
X56579571Y-32500500D02*
X57793857Y-32500500D01*
X57936714Y-32429071D01*
X58008142Y-32357642D01*
X58079571Y-32214785D01*
X58079571Y-32000500D01*
X58008142Y-31857642D01*
X57508142Y-32500500D02*
X57579571Y-32357642D01*
X57579571Y-32071928D01*
X57508142Y-31929071D01*
X57436714Y-31857642D01*
X57293857Y-31786214D01*
X56865285Y-31786214D01*
X56722428Y-31857642D01*
X56651000Y-31929071D01*
X56579571Y-32071928D01*
X56579571Y-32357642D01*
X56651000Y-32500500D01*
X57579571Y-33214785D02*
X56579571Y-33214785D01*
X56079571Y-33214785D02*
X56151000Y-33143357D01*
X56222428Y-33214785D01*
X56151000Y-33286214D01*
X56079571Y-33214785D01*
X56222428Y-33214785D01*
X56579571Y-33714785D02*
X56579571Y-34286214D01*
X56079571Y-33929071D02*
X57365285Y-33929071D01*
X57508142Y-34000500D01*
X57579571Y-34143357D01*
X57579571Y-34286214D01*
X57579571Y-34786214D02*
X56079571Y-34786214D01*
X57579571Y-35429071D02*
X56793857Y-35429071D01*
X56651000Y-35357642D01*
X56579571Y-35214785D01*
X56579571Y-35000500D01*
X56651000Y-34857642D01*
X56722428Y-34786214D01*
X56579571Y-36786214D02*
X57579571Y-36786214D01*
X56579571Y-36143357D02*
X57365285Y-36143357D01*
X57508142Y-36214785D01*
X57579571Y-36357642D01*
X57579571Y-36571928D01*
X57508142Y-36714785D01*
X57436714Y-36786214D01*
X57579571Y-37500500D02*
X56079571Y-37500500D01*
X56651000Y-37500500D02*
X56579571Y-37643357D01*
X56579571Y-37929071D01*
X56651000Y-38071928D01*
X56722428Y-38143357D01*
X56865285Y-38214785D01*
X57293857Y-38214785D01*
X57436714Y-38143357D01*
X57508142Y-38071928D01*
X57579571Y-37929071D01*
X57579571Y-37643357D01*
X57508142Y-37500500D01*
X57436714Y-38857642D02*
X57508142Y-38929071D01*
X57579571Y-38857642D01*
X57508142Y-38786214D01*
X57436714Y-38857642D01*
X57579571Y-38857642D01*
X57508142Y-40214785D02*
X57579571Y-40071928D01*
X57579571Y-39786214D01*
X57508142Y-39643357D01*
X57436714Y-39571928D01*
X57293857Y-39500500D01*
X56865285Y-39500500D01*
X56722428Y-39571928D01*
X56651000Y-39643357D01*
X56579571Y-39786214D01*
X56579571Y-40071928D01*
X56651000Y-40214785D01*
X57579571Y-41071928D02*
X57508142Y-40929071D01*
X57436714Y-40857642D01*
X57293857Y-40786214D01*
X56865285Y-40786214D01*
X56722428Y-40857642D01*
X56651000Y-40929071D01*
X56579571Y-41071928D01*
X56579571Y-41286214D01*
X56651000Y-41429071D01*
X56722428Y-41500500D01*
X56865285Y-41571928D01*
X57293857Y-41571928D01*
X57436714Y-41500500D01*
X57508142Y-41429071D01*
X57579571Y-41286214D01*
X57579571Y-41071928D01*
X57579571Y-42214785D02*
X56579571Y-42214785D01*
X56722428Y-42214785D02*
X56651000Y-42286214D01*
X56579571Y-42429071D01*
X56579571Y-42643357D01*
X56651000Y-42786214D01*
X56793857Y-42857642D01*
X57579571Y-42857642D01*
X56793857Y-42857642D02*
X56651000Y-42929071D01*
X56579571Y-43071928D01*
X56579571Y-43286214D01*
X56651000Y-43429071D01*
X56793857Y-43500500D01*
X57579571Y-43500500D01*
X56008142Y-45286214D02*
X57936714Y-44000500D01*
X57579571Y-45786214D02*
X56079571Y-45786214D01*
X56651000Y-45786214D02*
X56579571Y-45929071D01*
X56579571Y-46214785D01*
X56651000Y-46357642D01*
X56722428Y-46429071D01*
X56865285Y-46500500D01*
X57293857Y-46500500D01*
X57436714Y-46429071D01*
X57508142Y-46357642D01*
X57579571Y-46214785D01*
X57579571Y-45929071D01*
X57508142Y-45786214D01*
X57579571Y-47143357D02*
X56579571Y-47143357D01*
X56865285Y-47143357D02*
X56722428Y-47214785D01*
X56651000Y-47286214D01*
X56579571Y-47429071D01*
X56579571Y-47571928D01*
X56579571Y-48714785D02*
X57579571Y-48714785D01*
X56579571Y-48071928D02*
X57365285Y-48071928D01*
X57508142Y-48143357D01*
X57579571Y-48286214D01*
X57579571Y-48500500D01*
X57508142Y-48643357D01*
X57436714Y-48714785D01*
X57508142Y-49357642D02*
X57579571Y-49500500D01*
X57579571Y-49786214D01*
X57508142Y-49929071D01*
X57365285Y-50000500D01*
X57293857Y-50000500D01*
X57151000Y-49929071D01*
X57079571Y-49786214D01*
X57079571Y-49571928D01*
X57008142Y-49429071D01*
X56865285Y-49357642D01*
X56793857Y-49357642D01*
X56651000Y-49429071D01*
X56579571Y-49571928D01*
X56579571Y-49786214D01*
X56651000Y-49929071D01*
X57579571Y-50643357D02*
X56079571Y-50643357D01*
X57579571Y-51286214D02*
X56793857Y-51286214D01*
X56651000Y-51214785D01*
X56579571Y-51071928D01*
X56579571Y-50857642D01*
X56651000Y-50714785D01*
X56722428Y-50643357D01*
X57579571Y-52000500D02*
X56079571Y-52000500D01*
X57008142Y-52143357D02*
X57579571Y-52571928D01*
X56579571Y-52571928D02*
X57151000Y-52000500D01*
X56579571Y-53214785D02*
X57579571Y-53214785D01*
X56722428Y-53214785D02*
X56651000Y-53286214D01*
X56579571Y-53429071D01*
X56579571Y-53643357D01*
X56651000Y-53786214D01*
X56793857Y-53857642D01*
X57579571Y-53857642D01*
X57579571Y-54571928D02*
X56579571Y-54571928D01*
X56079571Y-54571928D02*
X56151000Y-54500500D01*
X56222428Y-54571928D01*
X56151000Y-54643357D01*
X56079571Y-54571928D01*
X56222428Y-54571928D01*
X56579571Y-55929071D02*
X57793857Y-55929071D01*
X57936714Y-55857642D01*
X58008142Y-55786214D01*
X58079571Y-55643357D01*
X58079571Y-55429071D01*
X58008142Y-55286214D01*
X57508142Y-55929071D02*
X57579571Y-55786214D01*
X57579571Y-55500500D01*
X57508142Y-55357642D01*
X57436714Y-55286214D01*
X57293857Y-55214785D01*
X56865285Y-55214785D01*
X56722428Y-55286214D01*
X56651000Y-55357642D01*
X56579571Y-55500500D01*
X56579571Y-55786214D01*
X56651000Y-55929071D01*
X57579571Y-56643357D02*
X56079571Y-56643357D01*
X57579571Y-57286214D02*
X56793857Y-57286214D01*
X56651000Y-57214785D01*
X56579571Y-57071928D01*
X56579571Y-56857642D01*
X56651000Y-56714785D01*
X56722428Y-56643357D01*
X56579571Y-57786214D02*
X56579571Y-58357642D01*
X56079571Y-58000500D02*
X57365285Y-58000500D01*
X57508142Y-58071928D01*
X57579571Y-58214785D01*
X57579571Y-58357642D01*
X56008142Y-59929071D02*
X57936714Y-58643357D01*
X56579571Y-60214785D02*
X56579571Y-60786214D01*
X56079571Y-60429071D02*
X57365285Y-60429071D01*
X57508142Y-60500500D01*
X57579571Y-60643357D01*
X57579571Y-60786214D01*
X57508142Y-61857642D02*
X57579571Y-61714785D01*
X57579571Y-61429071D01*
X57508142Y-61286214D01*
X57365285Y-61214785D01*
X56793857Y-61214785D01*
X56651000Y-61286214D01*
X56579571Y-61429071D01*
X56579571Y-61714785D01*
X56651000Y-61857642D01*
X56793857Y-61929071D01*
X56936714Y-61929071D01*
X57079571Y-61214785D01*
X57579571Y-62571928D02*
X56579571Y-62571928D01*
X56865285Y-62571928D02*
X56722428Y-62643357D01*
X56651000Y-62714785D01*
X56579571Y-62857642D01*
X56579571Y-63000500D01*
X57579571Y-63500500D02*
X56579571Y-63500500D01*
X56865285Y-63500500D02*
X56722428Y-63571928D01*
X56651000Y-63643357D01*
X56579571Y-63786214D01*
X56579571Y-63929071D01*
X57579571Y-65071928D02*
X56793857Y-65071928D01*
X56651000Y-65000500D01*
X56579571Y-64857642D01*
X56579571Y-64571928D01*
X56651000Y-64429071D01*
X57508142Y-65071928D02*
X57579571Y-64929071D01*
X57579571Y-64571928D01*
X57508142Y-64429071D01*
X57365285Y-64357642D01*
X57222428Y-64357642D01*
X57079571Y-64429071D01*
X57008142Y-64571928D01*
X57008142Y-64929071D01*
X56936714Y-65071928D01*
X57579571Y-65786214D02*
X56579571Y-65786214D01*
X56865285Y-65786214D02*
X56722428Y-65857642D01*
X56651000Y-65929071D01*
X56579571Y-66071928D01*
X56579571Y-66214785D01*
X57579571Y-66714785D02*
X56579571Y-66714785D01*
X56079571Y-66714785D02*
X56151000Y-66643357D01*
X56222428Y-66714785D01*
X56151000Y-66786214D01*
X56079571Y-66714785D01*
X56222428Y-66714785D01*
X56579571Y-68071928D02*
X57579571Y-68071928D01*
X56579571Y-67429071D02*
X57365285Y-67429071D01*
X57508142Y-67500500D01*
X57579571Y-67643357D01*
X57579571Y-67857642D01*
X57508142Y-68000500D01*
X57436714Y-68071928D01*
X57579571Y-68786214D02*
X56579571Y-68786214D01*
X56722428Y-68786214D02*
X56651000Y-68857642D01*
X56579571Y-69000500D01*
X56579571Y-69214785D01*
X56651000Y-69357642D01*
X56793857Y-69429071D01*
X57579571Y-69429071D01*
X56793857Y-69429071D02*
X56651000Y-69500500D01*
X56579571Y-69643357D01*
X56579571Y-69857642D01*
X56651000Y-70000500D01*
X56793857Y-70071928D01*
X57579571Y-70071928D01*
X59129571Y-32500500D02*
X60343857Y-32500500D01*
X60486714Y-32429071D01*
X60558142Y-32357642D01*
X60629571Y-32214785D01*
X60629571Y-32000500D01*
X60558142Y-31857642D01*
X60058142Y-32500500D02*
X60129571Y-32357642D01*
X60129571Y-32071928D01*
X60058142Y-31929071D01*
X59986714Y-31857642D01*
X59843857Y-31786214D01*
X59415285Y-31786214D01*
X59272428Y-31857642D01*
X59201000Y-31929071D01*
X59129571Y-32071928D01*
X59129571Y-32357642D01*
X59201000Y-32500500D01*
X60129571Y-33214785D02*
X59129571Y-33214785D01*
X58629571Y-33214785D02*
X58701000Y-33143357D01*
X58772428Y-33214785D01*
X58701000Y-33286214D01*
X58629571Y-33214785D01*
X58772428Y-33214785D01*
X59129571Y-33714785D02*
X59129571Y-34286214D01*
X58629571Y-33929071D02*
X59915285Y-33929071D01*
X60058142Y-34000500D01*
X60129571Y-34143357D01*
X60129571Y-34286214D01*
X60129571Y-34786214D02*
X58629571Y-34786214D01*
X60129571Y-35429071D02*
X59343857Y-35429071D01*
X59201000Y-35357642D01*
X59129571Y-35214785D01*
X59129571Y-35000500D01*
X59201000Y-34857642D01*
X59272428Y-34786214D01*
X59129571Y-36786214D02*
X60129571Y-36786214D01*
X59129571Y-36143357D02*
X59915285Y-36143357D01*
X60058142Y-36214785D01*
X60129571Y-36357642D01*
X60129571Y-36571928D01*
X60058142Y-36714785D01*
X59986714Y-36786214D01*
X60129571Y-37500500D02*
X58629571Y-37500500D01*
X59201000Y-37500500D02*
X59129571Y-37643357D01*
X59129571Y-37929071D01*
X59201000Y-38071928D01*
X59272428Y-38143357D01*
X59415285Y-38214785D01*
X59843857Y-38214785D01*
X59986714Y-38143357D01*
X60058142Y-38071928D01*
X60129571Y-37929071D01*
X60129571Y-37643357D01*
X60058142Y-37500500D01*
X59986714Y-38857642D02*
X60058142Y-38929071D01*
X60129571Y-38857642D01*
X60058142Y-38786214D01*
X59986714Y-38857642D01*
X60129571Y-38857642D01*
X60058142Y-40214785D02*
X60129571Y-40071928D01*
X60129571Y-39786214D01*
X60058142Y-39643357D01*
X59986714Y-39571928D01*
X59843857Y-39500500D01*
X59415285Y-39500500D01*
X59272428Y-39571928D01*
X59201000Y-39643357D01*
X59129571Y-39786214D01*
X59129571Y-40071928D01*
X59201000Y-40214785D01*
X60129571Y-41071928D02*
X60058142Y-40929071D01*
X59986714Y-40857642D01*
X59843857Y-40786214D01*
X59415285Y-40786214D01*
X59272428Y-40857642D01*
X59201000Y-40929071D01*
X59129571Y-41071928D01*
X59129571Y-41286214D01*
X59201000Y-41429071D01*
X59272428Y-41500500D01*
X59415285Y-41571928D01*
X59843857Y-41571928D01*
X59986714Y-41500500D01*
X60058142Y-41429071D01*
X60129571Y-41286214D01*
X60129571Y-41071928D01*
X60129571Y-42214785D02*
X59129571Y-42214785D01*
X59272428Y-42214785D02*
X59201000Y-42286214D01*
X59129571Y-42429071D01*
X59129571Y-42643357D01*
X59201000Y-42786214D01*
X59343857Y-42857642D01*
X60129571Y-42857642D01*
X59343857Y-42857642D02*
X59201000Y-42929071D01*
X59129571Y-43071928D01*
X59129571Y-43286214D01*
X59201000Y-43429071D01*
X59343857Y-43500500D01*
X60129571Y-43500500D01*
X58558142Y-45286214D02*
X60486714Y-44000500D01*
X60129571Y-45786214D02*
X58629571Y-45786214D01*
X59201000Y-45786214D02*
X59129571Y-45929071D01*
X59129571Y-46214785D01*
X59201000Y-46357642D01*
X59272428Y-46429071D01*
X59415285Y-46500500D01*
X59843857Y-46500500D01*
X59986714Y-46429071D01*
X60058142Y-46357642D01*
X60129571Y-46214785D01*
X60129571Y-45929071D01*
X60058142Y-45786214D01*
X60129571Y-47143357D02*
X59129571Y-47143357D01*
X59415285Y-47143357D02*
X59272428Y-47214785D01*
X59201000Y-47286214D01*
X59129571Y-47429071D01*
X59129571Y-47571928D01*
X59129571Y-48714785D02*
X60129571Y-48714785D01*
X59129571Y-48071928D02*
X59915285Y-48071928D01*
X60058142Y-48143357D01*
X60129571Y-48286214D01*
X60129571Y-48500500D01*
X60058142Y-48643357D01*
X59986714Y-48714785D01*
X60058142Y-49357642D02*
X60129571Y-49500500D01*
X60129571Y-49786214D01*
X60058142Y-49929071D01*
X59915285Y-50000500D01*
X59843857Y-50000500D01*
X59701000Y-49929071D01*
X59629571Y-49786214D01*
X59629571Y-49571928D01*
X59558142Y-49429071D01*
X59415285Y-49357642D01*
X59343857Y-49357642D01*
X59201000Y-49429071D01*
X59129571Y-49571928D01*
X59129571Y-49786214D01*
X59201000Y-49929071D01*
X60129571Y-50643357D02*
X58629571Y-50643357D01*
X60129571Y-51286214D02*
X59343857Y-51286214D01*
X59201000Y-51214785D01*
X59129571Y-51071928D01*
X59129571Y-50857642D01*
X59201000Y-50714785D01*
X59272428Y-50643357D01*
X60129571Y-52000500D02*
X58629571Y-52000500D01*
X59558142Y-52143357D02*
X60129571Y-52571928D01*
X59129571Y-52571928D02*
X59701000Y-52000500D01*
X59129571Y-53214785D02*
X60129571Y-53214785D01*
X59272428Y-53214785D02*
X59201000Y-53286214D01*
X59129571Y-53429071D01*
X59129571Y-53643357D01*
X59201000Y-53786214D01*
X59343857Y-53857642D01*
X60129571Y-53857642D01*
X60129571Y-54571928D02*
X59129571Y-54571928D01*
X58629571Y-54571928D02*
X58701000Y-54500500D01*
X58772428Y-54571928D01*
X58701000Y-54643357D01*
X58629571Y-54571928D01*
X58772428Y-54571928D01*
X59129571Y-55929071D02*
X60343857Y-55929071D01*
X60486714Y-55857642D01*
X60558142Y-55786214D01*
X60629571Y-55643357D01*
X60629571Y-55429071D01*
X60558142Y-55286214D01*
X60058142Y-55929071D02*
X60129571Y-55786214D01*
X60129571Y-55500500D01*
X60058142Y-55357642D01*
X59986714Y-55286214D01*
X59843857Y-55214785D01*
X59415285Y-55214785D01*
X59272428Y-55286214D01*
X59201000Y-55357642D01*
X59129571Y-55500500D01*
X59129571Y-55786214D01*
X59201000Y-55929071D01*
X60129571Y-56643357D02*
X58629571Y-56643357D01*
X60129571Y-57286214D02*
X59343857Y-57286214D01*
X59201000Y-57214785D01*
X59129571Y-57071928D01*
X59129571Y-56857642D01*
X59201000Y-56714785D01*
X59272428Y-56643357D01*
X59129571Y-57786214D02*
X59129571Y-58357642D01*
X58629571Y-58000500D02*
X59915285Y-58000500D01*
X60058142Y-58071928D01*
X60129571Y-58214785D01*
X60129571Y-58357642D01*
X58558142Y-59929071D02*
X60486714Y-58643357D01*
X59129571Y-60214785D02*
X59129571Y-60786214D01*
X58629571Y-60429071D02*
X59915285Y-60429071D01*
X60058142Y-60500500D01*
X60129571Y-60643357D01*
X60129571Y-60786214D01*
X60058142Y-61857642D02*
X60129571Y-61714785D01*
X60129571Y-61429071D01*
X60058142Y-61286214D01*
X59915285Y-61214785D01*
X59343857Y-61214785D01*
X59201000Y-61286214D01*
X59129571Y-61429071D01*
X59129571Y-61714785D01*
X59201000Y-61857642D01*
X59343857Y-61929071D01*
X59486714Y-61929071D01*
X59629571Y-61214785D01*
X60129571Y-62571928D02*
X59129571Y-62571928D01*
X59415285Y-62571928D02*
X59272428Y-62643357D01*
X59201000Y-62714785D01*
X59129571Y-62857642D01*
X59129571Y-63000500D01*
X60129571Y-63500500D02*
X59129571Y-63500500D01*
X59415285Y-63500500D02*
X59272428Y-63571928D01*
X59201000Y-63643357D01*
X59129571Y-63786214D01*
X59129571Y-63929071D01*
X60129571Y-65071928D02*
X59343857Y-65071928D01*
X59201000Y-65000500D01*
X59129571Y-64857642D01*
X59129571Y-64571928D01*
X59201000Y-64429071D01*
X60058142Y-65071928D02*
X60129571Y-64929071D01*
X60129571Y-64571928D01*
X60058142Y-64429071D01*
X59915285Y-64357642D01*
X59772428Y-64357642D01*
X59629571Y-64429071D01*
X59558142Y-64571928D01*
X59558142Y-64929071D01*
X59486714Y-65071928D01*
X60129571Y-65786214D02*
X59129571Y-65786214D01*
X59415285Y-65786214D02*
X59272428Y-65857642D01*
X59201000Y-65929071D01*
X59129571Y-66071928D01*
X59129571Y-66214785D01*
X60129571Y-66714785D02*
X59129571Y-66714785D01*
X58629571Y-66714785D02*
X58701000Y-66643357D01*
X58772428Y-66714785D01*
X58701000Y-66786214D01*
X58629571Y-66714785D01*
X58772428Y-66714785D01*
X59129571Y-68071928D02*
X60129571Y-68071928D01*
X59129571Y-67429071D02*
X59915285Y-67429071D01*
X60058142Y-67500500D01*
X60129571Y-67643357D01*
X60129571Y-67857642D01*
X60058142Y-68000500D01*
X59986714Y-68071928D01*
X60129571Y-68786214D02*
X59129571Y-68786214D01*
X59272428Y-68786214D02*
X59201000Y-68857642D01*
X59129571Y-69000500D01*
X59129571Y-69214785D01*
X59201000Y-69357642D01*
X59343857Y-69429071D01*
X60129571Y-69429071D01*
X59343857Y-69429071D02*
X59201000Y-69500500D01*
X59129571Y-69643357D01*
X59129571Y-69857642D01*
X59201000Y-70000500D01*
X59343857Y-70071928D01*
X60129571Y-70071928D01*
X59558142Y-70786214D02*
X59558142Y-71929071D01*
X60129571Y-72643357D02*
X58629571Y-72643357D01*
X60129571Y-73286214D02*
X59343857Y-73286214D01*
X59201000Y-73214785D01*
X59129571Y-73071928D01*
X59129571Y-72857642D01*
X59201000Y-72714785D01*
X59272428Y-72643357D01*
X60129571Y-74643357D02*
X59343857Y-74643357D01*
X59201000Y-74571928D01*
X59129571Y-74429071D01*
X59129571Y-74143357D01*
X59201000Y-74000500D01*
X60058142Y-74643357D02*
X60129571Y-74500500D01*
X60129571Y-74143357D01*
X60058142Y-74000500D01*
X59915285Y-73929071D01*
X59772428Y-73929071D01*
X59629571Y-74000500D01*
X59558142Y-74143357D01*
X59558142Y-74500500D01*
X59486714Y-74643357D01*
X60129571Y-75357642D02*
X59129571Y-75357642D01*
X59415285Y-75357642D02*
X59272428Y-75429071D01*
X59201000Y-75500500D01*
X59129571Y-75643357D01*
X59129571Y-75786214D01*
X60129571Y-76929071D02*
X58629571Y-76929071D01*
X60058142Y-76929071D02*
X60129571Y-76786214D01*
X60129571Y-76500500D01*
X60058142Y-76357642D01*
X59986714Y-76286214D01*
X59843857Y-76214785D01*
X59415285Y-76214785D01*
X59272428Y-76286214D01*
X59201000Y-76357642D01*
X59129571Y-76500500D01*
X59129571Y-76786214D01*
X59201000Y-76929071D01*
X59129571Y-77500500D02*
X60129571Y-77786214D01*
X59415285Y-78071928D01*
X60129571Y-78357642D01*
X59129571Y-78643357D01*
X60129571Y-79857642D02*
X59343857Y-79857642D01*
X59201000Y-79786214D01*
X59129571Y-79643357D01*
X59129571Y-79357642D01*
X59201000Y-79214785D01*
X60058142Y-79857642D02*
X60129571Y-79714785D01*
X60129571Y-79357642D01*
X60058142Y-79214785D01*
X59915285Y-79143357D01*
X59772428Y-79143357D01*
X59629571Y-79214785D01*
X59558142Y-79357642D01*
X59558142Y-79714785D01*
X59486714Y-79857642D01*
X60129571Y-80571928D02*
X59129571Y-80571928D01*
X59415285Y-80571928D02*
X59272428Y-80643357D01*
X59201000Y-80714785D01*
X59129571Y-80857642D01*
X59129571Y-81000500D01*
X60058142Y-82071928D02*
X60129571Y-81929071D01*
X60129571Y-81643357D01*
X60058142Y-81500500D01*
X59915285Y-81429071D01*
X59343857Y-81429071D01*
X59201000Y-81500500D01*
X59129571Y-81643357D01*
X59129571Y-81929071D01*
X59201000Y-82071928D01*
X59343857Y-82143357D01*
X59486714Y-82143357D01*
X59629571Y-81429071D01*
D12*
X130746500Y-70497700D02*
X124496500Y-70497700D01*
X130746500Y-41997700D02*
X130746500Y-70497700D01*
X124496500Y-41997700D02*
X130746500Y-41997700D01*
X124496500Y-70497700D02*
X124496500Y-41997700D01*
D10*
X45000000Y-113000000D02*
G75*
G02*
X41000000Y-109000000I0J4000000D01*
G01*
X131000000Y-109000000D02*
G75*
G02*
X127000000Y-113000000I-4000000J0D01*
G01*
X127000000Y-23000000D02*
G75*
G02*
X131000000Y-27000000I0J-4000000D01*
G01*
X41000000Y-27000000D02*
G75*
G02*
X45000000Y-23000000I4000000J0D01*
G01*
X127000000Y-23000000D02*
X45000000Y-23000000D01*
X131000000Y-109000000D02*
X131000000Y-27000000D01*
X45000000Y-113000000D02*
X127000000Y-113000000D01*
X41000000Y-27000000D02*
X41000000Y-109000000D01*
M02*
